<?xml version="1.0" standalone="no"?>
<!DOCTYPE svg PUBLIC "-//W3C//DTD SVG 1.1//EN" "http://www.w3.org/Graphics/SVG/1.1/DTD/svg11.dtd" >
<svg xmlns="http://www.w3.org/2000/svg" xmlns:xlink="http://www.w3.org/1999/xlink" version="1.1">
<metadata>
Created by FontForge 20190801 at Mon Oct  2 08:04:13 2017
 By www-data
Copyright (c) 2014 ParaType Inc., ParaType Ltd. All rights reserved.
</metadata>
<defs>
<font id="DIN2014Bold" horiz-adv-x="486" >
  <font-face 
    font-family="DIN2014Bold"
    font-weight="400"
    font-stretch="normal"
    units-per-em="1000"
    panose-1="2 11 7 4 2 2 2 2 2 4"
    ascent="800"
    descent="-200"
    x-height="500"
    cap-height="690"
    bbox="-378 -297 3054 1010"
    underline-thickness="50"
    underline-position="-100"
    unicode-range="U+0020-1F4F1"
  />
<missing-glyph horiz-adv-x="250" 
 />
    <glyph glyph-name="afii10017.var.accented" unicode="&#x410;`" horiz-adv-x="607" 
d="M146 0h-150l240 690h134l240 -690h-149l-42 131h-231zM303 492l-78 -243h156zM244 742l80 129h147l-103 -129h-124z" />
    <glyph glyph-name="afii10022.var.accented" unicode="&#x415;`" horiz-adv-x="527" 
d="M68 690h430v-119h-290v-155h260v-118h-260v-180h290v-118h-430v690zM201 742l80 129h147l-103 -129h-124z" />
    <glyph glyph-name="afii10026.var.accented" unicode="&#x418;`" horiz-adv-x="676" 
d="M68 690h140v-433l288 433h112v-690h-140v428l-285 -428h-115v690zM271 742l80 129h147l-103 -129h-124z" />
    <glyph glyph-name="afii10032.var.accented" unicode="&#x41e;`" horiz-adv-x="623" 
d="M576 296q0 -153 -71.5 -229t-193.5 -76t-193 76t-71 229v98q0 154 71 229.5t193 75.5q123 0 194 -75.5t71 -229.5v-98zM187 394v-98q0 -187 124 -187q125 0 125 187v98q0 187 -125 187q-124 0 -124 -187zM237 742l80 129h147l-103 -129h-124z" />
    <glyph glyph-name="afii10037.var.accented" unicode="&#x423;`" horiz-adv-x="579" 
d="M435 690h144l-212 -550q-34 -87 -88 -118t-161 -31v122q56 0 83 10.5t43 40.5l-236 526h155l148 -344zM233 742l80 129h147l-103 -129h-124z" />
    <glyph glyph-name="afii10045.var.accented" unicode="&#x42b;`" horiz-adv-x="816" 
d="M68 690h140v-253h97q131 0 194.5 -60.5t63.5 -158.5q0 -97 -66 -157.5t-206 -60.5h-223v690zM748 690v-690h-140v690h140zM297 319h-89v-201h89q126 0 126 100q0 101 -126 101zM324 742l80 129h147l-103 -129h-124z" />
    <glyph glyph-name="afii10047.var.accented" unicode="&#x42d;`" horiz-adv-x="594" 
d="M199 288v118h208q-4 175 -125 175q-99 0 -118 -105h-134q17 111 82 167t170 56q123 0 194 -75.5t71 -229.5v-98q0 -153 -71.5 -229t-193.5 -76q-217 0 -252 223h134q11 -53 39 -79t79 -26q122 0 125 179h-208zM209 742l80 129h147l-103 -129h-124z" />
    <glyph glyph-name="afii10048.var.accented" unicode="&#x42e;`" horiz-adv-x="842" 
d="M795 306q0 -315 -250 -315q-247 0 -250 307h-87v-298h-140v690h140v-274h87q13 283 250 283q250 0 250 -315v-78zM435 378v-65q0 -107 25 -155.5t85 -48.5q61 0 85.5 48.5t24.5 155.5v65q0 106 -24.5 154.5t-85.5 48.5q-60 0 -85 -48.5t-25 -154.5zM270 742l80 129h147
l-103 -129h-124z" />
    <glyph glyph-name="afii10049.var.accented" unicode="&#x42f;`" horiz-adv-x="614" 
d="M167 0h-154l160 289q-132 46 -132 192q0 103 69 156t192 53h244v-690h-140v271h-96zM312 389h94v182h-94q-67 0 -99 -20.5t-32 -69.5q0 -48 28.5 -70t102.5 -22zM249 742l80 129h147l-103 -129h-124z" />
    <glyph glyph-name="afii10023.var.accented" unicode="&#x401;`" horiz-adv-x="527" 
d="M68 690h430v-119h-290v-155h260v-118h-260v-180h290v-118h-430v690zM119 752v117h124v-117h-124zM322 752v117h124v-117h-124zM217 881l80 129h147l-103 -129h-124z" />
    <glyph glyph-name="afii10065.var.accented" unicode="&#x430;`" 
d="M26 148q0 76 51 114t134 38h99v29q0 43 -18 58.5t-71 15.5q-38 0 -58.5 -8t-35.5 -32l-90 63q27 45 72.5 64t123.5 19q103 0 152.5 -39.5t49.5 -141.5v-328h-125v44q-31 -53 -108 -53q-80 0 -128 41t-48 116zM310 187v19h-84q-75 0 -75 -56t73 -56q44 0 65 21.5t21 71.5z
M162 567l70 158h143l-91 -158h-122z" />
    <glyph glyph-name="afii10070.var.accented" unicode="&#x435;`" 
d="M343 142l95 -66q-49 -85 -183 -85q-108 0 -165 62.5t-57 163.5v68q0 111 53.5 167.5t152.5 56.5q206 0 206 -234v-57h-285q2 -119 94 -119q37 0 55 10t34 33zM240 401q-72 0 -80 -92h157q-4 92 -77 92zM179 567l70 158h143l-91 -158h-122z" />
    <glyph glyph-name="afii10074.var.accented" unicode="&#x438;`" horiz-adv-x="532" 
d="M179 500v-273l191 273h110v-500h-127v283l-193 -283h-109v500h128zM202 567l70 158h143l-91 -158h-122z" />
    <glyph glyph-name="afii10080.var.accented" unicode="&#x43e;`" horiz-adv-x="499" 
d="M465 281v-60q0 -107 -53.5 -168.5t-162.5 -61.5q-106 0 -161 61t-55 169v60q0 112 56 170t160 58q105 0 160.5 -58t55.5 -170zM249 99q89 0 89 126v52q0 124 -89 124t-89 -124v-52q0 -60 19.5 -93t69.5 -33zM179 567l70 158h143l-91 -158h-122z" />
    <glyph glyph-name="afii10085.var.accented" unicode="&#x443;`" horiz-adv-x="479" 
d="M5 500h134l111 -320l100 320h129l-175 -523q-34 -101 -79 -134t-150 -33v114q54 0 78 13.5t39 55.5zM185 567l70 158h143l-91 -158h-122z" />
    <glyph glyph-name="afii10093.var.accented" unicode="&#x44b;`" horiz-adv-x="661" 
d="M51 500h128v-172h53q211 0 211 -163q0 -82 -53 -123.5t-148 -41.5h-191v500zM482 500h127v-500h-127v500zM179 220v-112h56q71 0 71 57q0 55 -83 55h-44zM251 567l70 158h143l-91 -158h-122z" />
    <glyph glyph-name="afii10095.var.accented" unicode="&#x44d;`" horiz-adv-x="451" 
d="M134 204v99h156q-5 98 -96 98q-54 0 -83 -42l-95 67q63 83 173 83q113 0 171 -58t58 -166v-68q0 -106 -58.5 -166t-170.5 -60q-124 0 -176 85l93 66q30 -43 88 -43q94 0 96 105h-156zM138 567l70 158h143l-91 -158h-122z" />
    <glyph glyph-name="afii10096.var.accented" unicode="&#x44e;`" horiz-adv-x="691" 
d="M657 285v-68q0 -104 -53.5 -165t-150.5 -61q-90 0 -145 53.5t-59 156.5h-70v-201h-128v500h128v-190h71q6 97 59.5 148t143.5 51q96 0 150 -57t54 -167zM453 99q77 0 77 124v56q0 122 -77 122t-77 -122v-56q0 -62 17.5 -93t59.5 -31zM211 567l70 158h143l-91 -158h-122z
" />
    <glyph glyph-name="afii10097.var.accented" unicode="&#x44f;`" horiz-adv-x="500" 
d="M448 0h-127v178h-63l-105 -178h-135l120 199q-94 41 -94 146q0 70 49 112.5t155 42.5h200v-500zM321 284v108h-67q-73 0 -73 -53q0 -55 81 -55h59zM203 567l70 158h143l-91 -158h-122z" />
    <glyph glyph-name="afii10071.var.accented" unicode="&#x451;`" 
d="M343 142l95 -66q-49 -85 -183 -85q-108 0 -165 62.5t-57 163.5v68q0 111 53.5 167.5t152.5 56.5q206 0 206 -234v-57h-285q2 -119 94 -119q37 0 55 10t34 33zM240 401q-72 0 -80 -92h157q-4 92 -77 92zM171 717l70 158h143l-91 -158h-122zM73 573v117h124v-117h-124z
M277 573v117h123v-117h-123z" />
    <glyph glyph-name="fi" unicode="fi" horiz-adv-x="494" 
d="M14 500h64v27q0 94 38.5 128.5t132.5 34.5h37v-112h-24q-34 0 -45.5 -16t-11.5 -55v-7h252v-500h-128v392h-124v-392h-127v392h-64v108z" />
    <glyph glyph-name="fl" unicode="fl" horiz-adv-x="553" 
d="M330 160v418h-68q-34 0 -45.5 -16t-11.5 -55v-7h81v-108h-81v-392h-127v392h-64v108h64v27q0 94 38.5 128.5t132.5 34.5h209v-501q0 -42 15.5 -60.5t54.5 -18.5v-110q-105 0 -151.5 34.5t-46.5 125.5z" />
    <glyph glyph-name=".notdef" horiz-adv-x="250" 
 />
    <glyph glyph-name=".null" horiz-adv-x="0" 
 />
    <glyph glyph-name="nonmarkingreturn" horiz-adv-x="333" 
 />
    <glyph glyph-name="space" unicode=" " horiz-adv-x="250" 
 />
    <glyph glyph-name="exclam" unicode="!" horiz-adv-x="250" 
d="M188 690v-501h-126v501h126zM193 0v136h-136v-136h136z" />
    <glyph glyph-name="quotedbl" unicode="&#x22;" horiz-adv-x="362" 
d="M160 690v-183h-120v183h120zM322 690v-183h-119v183h119z" />
    <glyph glyph-name="numbersign" unicode="#" horiz-adv-x="615" 
d="M51 501h105l35 189h128l-35 -189h96l35 189h128l-35 -189h79v-112h-100l-16 -85h79v-112h-100l-36 -192h-127l35 192h-96l-35 -192h-129l36 192h-84v112h105l16 85h-84v112zM263 389l-16 -85h96l16 85h-96z" />
    <glyph glyph-name="dollar" unicode="$" horiz-adv-x="540" 
d="M515 583l-105 -75q-35 53 -83 66v-174q104 -29 149.5 -75t45.5 -131q0 -80 -47.5 -134t-139.5 -66v-110h-116v111q-129 16 -201 112l107 75q43 -56 101 -68v180q-96 28 -142.5 78t-46.5 131q0 76 45.5 128t136.5 64v117h116v-118q119 -18 180 -111zM382 187q0 48 -55 75
v-146q55 17 55 71zM177 504q0 -47 49 -72v141q-49 -17 -49 -69z" />
    <glyph glyph-name="percent" unicode="%" horiz-adv-x="759" 
d="M510 690h123l-385 -690h-124zM739 200v-59q0 -150 -151 -150q-73 0 -111.5 38.5t-38.5 111.5v59q0 72 39 110t111 38q151 0 151 -148zM588 78q48 0 48 63v56q0 63 -48 63q-46 0 -46 -63v-56q0 -63 46 -63zM323 551v-59q0 -150 -152 -150q-73 0 -111 38.5t-38 111.5v59
q0 72 38.5 110t110.5 38q152 0 152 -148zM172 429q48 0 48 63v56q0 63 -48 63q-46 0 -46 -63v-56q0 -63 46 -63z" />
    <glyph glyph-name="ampersand" unicode="&#x26;" horiz-adv-x="666" 
d="M35 183q0 63 31 110t85 90q-66 81 -66 159q0 70 53 113.5t136 43.5q89 0 138 -40t49 -97q0 -36 -23 -72t-49 -58.5t-71 -55.5l132 -147q14 42 14 93h132q0 -109 -54 -195l115 -127h-161l-38 41q-77 -50 -185 -50q-110 0 -174 57t-64 135zM279 109q57 0 97 23l-153 168
q-52 -50 -52 -97q0 -43 29.5 -68.5t78.5 -25.5zM218 542q0 -39 35 -88q40 28 61 51t21 49q0 20 -16 34t-43 14q-26 0 -42 -15t-16 -45z" />
    <glyph glyph-name="quotesingle" unicode="'" horiz-adv-x="200" 
d="M160 690v-183h-120v183h120z" />
    <glyph glyph-name="parenleft" unicode="(" horiz-adv-x="317" 
d="M307 -17l-70 -99q-102 64 -138 124t-36 147v386q0 87 36 146.5t138 124.5l70 -99q-49 -37 -69.5 -57t-34 -54t-13.5 -87v-334q0 -53 13.5 -87t34 -54t69.5 -57z" />
    <glyph glyph-name="parenright" unicode=")" horiz-adv-x="317" 
d="M93 -116l-70 99q49 37 69.5 57t34 54t13.5 87v334q0 53 -13.5 87t-34 54t-69.5 57l70 99q102 -65 138 -124.5t36 -146.5v-386q0 -87 -36 -147t-138 -124z" />
    <glyph glyph-name="asterisk" unicode="*" horiz-adv-x="425" 
d="M254 690l-5 -102l85 56l47 -82l-88 -46l89 -47l-48 -81l-85 54l5 -101h-95l4 100l-83 -54l-48 82l90 46l-89 47l46 82l84 -54l-4 100h95z" />
    <glyph glyph-name="plus" unicode="+" horiz-adv-x="540" 
d="M58 300v108h139v141h110v-141h140v-108h-140v-140h-110v140h-139z" />
    <glyph glyph-name="comma" unicode="," horiz-adv-x="256" 
d="M196 156v-202l-136 -116v318h136z" />
    <glyph glyph-name="hyphen" unicode="-" horiz-adv-x="319" 
d="M30 233v112h259v-112h-259z" />
    <glyph glyph-name="period" unicode="." horiz-adv-x="276" 
d="M216 156v-156h-156v156h156z" />
    <glyph glyph-name="slash" unicode="/" horiz-adv-x="485" 
d="M162 -116h-115l336 928h115z" />
    <glyph glyph-name="zero" unicode="0" horiz-adv-x="540" 
d="M502 480v-269q0 -110 -65.5 -165t-166.5 -55t-166.5 55t-65.5 165v268q0 114 65 167t167 53t167 -53t65 -166zM362 467q0 114 -92 114q-93 0 -93 -114v-244q0 -114 93 -114q92 0 92 114v244z" />
    <glyph glyph-name="one" unicode="1" horiz-adv-x="540" 
d="M364 690v-690h-140v544l-99 -65v135l113 76h126z" />
    <glyph glyph-name="two" unicode="2" horiz-adv-x="540" 
d="M477 118v-118h-426v90l231 272q64 74 64 137q0 40 -25 62t-61 22t-59.5 -22t-26.5 -62h-124q0 88 63 144t154 56q93 0 155.5 -57.5t62.5 -142.5q0 -42 -19 -86t-36.5 -67.5t-48.5 -60.5l-142 -167h238z" />
    <glyph glyph-name="three" unicode="3" horiz-adv-x="540" 
d="M194 297v118h51q44 0 70 23t26 65q0 35 -24 57.5t-62 22.5q-36 0 -58.5 -20.5t-27.5 -53.5h-124q4 84 65.5 137t151.5 53q93 0 155.5 -56t62.5 -134q0 -100 -94 -151q104 -51 104 -165q0 -87 -58.5 -144.5t-161.5 -57.5q-107 0 -168.5 53.5t-65.5 140.5h123
q6 -35 31.5 -55.5t70.5 -20.5q41 0 65.5 26t24.5 65q0 97 -106 97h-51z" />
    <glyph glyph-name="four" unicode="4" horiz-adv-x="540" 
d="M245 690h153l-215 -473h132v176h140v-176h63v-119h-63v-98h-140v98h-306v97z" />
    <glyph glyph-name="five" unicode="5" horiz-adv-x="540" 
d="M272 355q-48 0 -73 -51h-126v386h393v-127h-256v-118q38 36 102 36q82 0 131 -63t49 -183q0 -244 -216 -244q-91 0 -153.5 49t-70.5 138h138q17 -69 82 -69q80 0 80 119q0 127 -80 127z" />
    <glyph glyph-name="six" unicode="6" horiz-adv-x="540" 
d="M390 690l-144 -284q27 13 67 13q80 0 134.5 -58.5t54.5 -147.5q0 -110 -64.5 -166t-166.5 -56q-103 0 -168 56t-65 165q0 69 63 197l139 281h150zM178 207q0 -45 24 -71.5t69 -26.5q44 0 67.5 26.5t23.5 71.5q0 44 -23.5 70.5t-67.5 26.5q-45 0 -69 -26.5t-24 -70.5z" />
    <glyph glyph-name="seven" unicode="7" horiz-adv-x="540" 
d="M185 464h-119v226h422v-98l-199 -592h-145l200 571h-159v-107z" />
    <glyph glyph-name="eight" unicode="8" horiz-adv-x="540" 
d="M35 192q0 56 30 101t73 65q-42 21 -67.5 62.5t-25.5 89.5q0 87 66 138t159 51q94 0 159.5 -50.5t65.5 -138.5q0 -48 -25.5 -89.5t-67.5 -62.5q44 -20 73.5 -65t29.5 -101q0 -93 -67.5 -147t-167.5 -54t-167.5 54t-67.5 147zM175 205q0 -40 27 -68.5t68 -28.5
q40 0 68 28.5t28 68.5q0 43 -29.5 69.5t-66.5 26.5q-38 0 -66.5 -26.5t-28.5 -69.5zM184 496q0 -36 25 -61.5t61 -25.5q35 0 60.5 25.5t25.5 61.5q0 35 -25.5 60t-60.5 25q-36 0 -61 -25t-25 -60z" />
    <glyph glyph-name="nine" unicode="9" horiz-adv-x="540" 
d="M150 0l145 284q-29 -13 -67 -13q-80 0 -135 58.5t-55 147.5q0 109 65 165.5t167 56.5q103 0 168 -56t65 -165q0 -67 -64 -197l-139 -281h-150zM363 483q0 45 -24 71.5t-69 26.5q-44 0 -68 -26.5t-24 -71.5q0 -44 24 -70.5t68 -26.5q45 0 69 26.5t24 70.5z" />
    <glyph glyph-name="colon" unicode=":" horiz-adv-x="246" 
d="M196 500v-137h-136v137h136zM196 136v-136h-136v136h136z" />
    <glyph glyph-name="semicolon" unicode=";" horiz-adv-x="246" 
d="M196 136v-188l-136 -117v305h136zM196 500v-137h-136v137h136z" />
    <glyph glyph-name="less" unicode="&#x3c;" horiz-adv-x="540" 
d="M426 436l-181 -94l181 -93v-144l-325 183v109l325 183v-144z" />
    <glyph glyph-name="equal" unicode="=" horiz-adv-x="540" 
d="M76 359v120h389v-120h-389zM76 182v119h389v-119h-389z" />
    <glyph glyph-name="greater" unicode="&#x3e;" horiz-adv-x="540" 
d="M293 342l-181 94v144l325 -183v-109l-325 -183v144z" />
    <glyph glyph-name="question" unicode="?" horiz-adv-x="487" 
d="M297 189h-121v69q0 33 8 54.5t31 43.5l45 43q35 33 49.5 55.5t14.5 54.5q0 34 -21.5 53.5t-55.5 19.5q-33 0 -55 -18t-23 -50h-132q0 89 59.5 137t150.5 48q94 0 155.5 -49t61.5 -142q0 -55 -26 -99t-74 -91l-33 -32q-13 -13 -18.5 -19.5t-10.5 -18.5t-5 -28v-31zM305 0
v136h-137v-136h137z" />
    <glyph glyph-name="at" unicode="@" horiz-adv-x="898" 
d="M640 484v-243q0 -41 11 -58t35 -17q58 0 58 127q0 148 -82.5 216t-212.5 68q-78 0 -136 -26.5t-90 -71t-47.5 -95.5t-15.5 -108q0 -149 82 -224.5t212 -75.5q117 0 221 52l47 -91q-96 -69 -273 -69q-81 0 -154.5 26t-132.5 75.5t-94 128.5t-35 178q0 127 59 222t152 141
t205 46q185 0 303.5 -105t118.5 -288q0 -111 -47 -172.5t-135 -61.5q-93 0 -133 65q-33 -65 -131 -65q-79 0 -123.5 51t-44.5 139v52q0 93 46 141t122 48q52 0 88 -23v18h127zM446 166q36 0 51.5 19t15.5 61v50q0 47 -16 66t-51 19q-61 0 -61 -85v-38q0 -48 14 -70t47 -22z
" />
    <glyph glyph-name="A" unicode="A" horiz-adv-x="607" 
d="M146 0h-150l240 690h134l240 -690h-149l-42 131h-231zM303 492l-78 -243h156z" />
    <glyph glyph-name="B" unicode="B" horiz-adv-x="606" 
d="M68 690h231q252 0 252 -181q0 -102 -91 -147q113 -41 113 -164q0 -87 -61.5 -142.5t-190.5 -55.5h-253v690zM208 299v-181h101q124 0 124 91q0 48 -33 69t-104 21h-88zM208 572v-155h93q110 0 110 79q0 39 -26.5 57.5t-98.5 18.5h-78z" />
    <glyph glyph-name="C" unicode="C" horiz-adv-x="594" 
d="M564 476h-134q-21 105 -119 105q-124 0 -124 -187v-98q0 -187 124 -187q51 0 79 25.5t40 79.5h133q-33 -223 -252 -223q-122 0 -193 76t-71 229v98q0 154 71 229.5t193 75.5q105 0 170.5 -56t82.5 -167z" />
    <glyph glyph-name="D" unicode="D" horiz-adv-x="625" 
d="M313 0h-245v690h245q265 0 265 -300v-90q0 -300 -265 -300zM313 118q68 0 96.5 44.5t28.5 137.5v90q0 92 -28.5 136.5t-96.5 44.5h-105v-453h105z" />
    <glyph glyph-name="E" unicode="E" horiz-adv-x="527" 
d="M68 690h430v-119h-290v-155h260v-118h-260v-180h290v-118h-430v690z" />
    <glyph glyph-name="F" unicode="F" horiz-adv-x="521" 
d="M68 690h430v-119h-290v-171h260v-118h-260v-282h-140v690z" />
    <glyph glyph-name="G" unicode="G" horiz-adv-x="612" 
d="M314 359h251v-63q0 -154 -66.5 -229.5t-187.5 -75.5q-122 0 -193 76t-71 229v88q0 161 71 238t193 77q108 0 172.5 -58t80.5 -165h-134q-20 105 -119 105q-124 0 -124 -187v-98q0 -187 124 -187q57 0 85 33.5t34 98.5h-116v118z" />
    <glyph glyph-name="H" unicode="H" horiz-adv-x="656" 
d="M208 690v-274h239v274h140v-690h-140v298h-239v-298h-140v690h140z" />
    <glyph glyph-name="I" unicode="I" horiz-adv-x="296" 
d="M218 690v-690h-140v690h140z" />
    <glyph glyph-name="J" unicode="J" horiz-adv-x="512" 
d="M-9 94l116 65q35 -50 94 -50q53 0 78 34.5t25 121.5v425h140v-425q0 -144 -60 -209t-174 -65q-147 0 -219 103z" />
    <glyph glyph-name="K" unicode="K" horiz-adv-x="645" 
d="M633 0h-167l-176 291l-82 -108v-183h-140v690h140v-298l218 298h166l-211 -279z" />
    <glyph glyph-name="L" unicode="L" horiz-adv-x="504" 
d="M208 690v-572h290v-118h-430v690h140z" />
    <glyph glyph-name="M" unicode="M" horiz-adv-x="786" 
d="M199 690l194 -376l192 376h133v-690h-134v428l-150 -304h-85l-148 301v-425h-133v690h131z" />
    <glyph glyph-name="N" unicode="N" horiz-adv-x="656" 
d="M454 690h133v-690h-117l-269 427v-427h-133v690h116l270 -433v433z" />
    <glyph glyph-name="O" unicode="O" horiz-adv-x="623" 
d="M576 296q0 -153 -71.5 -229t-193.5 -76t-193 76t-71 229v98q0 154 71 229.5t193 75.5q123 0 194 -75.5t71 -229.5v-98zM187 394v-98q0 -187 124 -187q125 0 125 187v98q0 187 -125 187q-124 0 -124 -187z" />
    <glyph glyph-name="P" unicode="P" horiz-adv-x="590" 
d="M315 243h-107v-243h-140v690h247q122 0 190 -56t68 -165q0 -108 -68.5 -167t-189.5 -59zM208 361h87q72 0 105 26t33 82q0 102 -138 102h-87v-210z" />
    <glyph glyph-name="Q" unicode="Q" horiz-adv-x="630" 
d="M576 296q0 -97 -31 -165l96 -82l-74 -88l-93 79q-65 -49 -163 -49q-122 0 -193 76t-71 229v98q0 154 71 229.5t193 75.5q123 0 194 -75.5t71 -229.5v-98zM187 394v-98q0 -187 124 -187q38 0 63 16l-78 67l76 89l59 -52q5 33 5 67v98q0 187 -125 187q-124 0 -124 -187z
" />
    <glyph glyph-name="R" unicode="R" horiz-adv-x="617" 
d="M598 0h-154l-124 271h-112v-271h-140v690h247q122 0 190 -54t68 -157q0 -136 -118 -185zM208 389h94q67 0 99 19.5t32 70.5t-32.5 71.5t-98.5 20.5h-94v-182z" />
    <glyph glyph-name="S" unicode="S" horiz-adv-x="575" 
d="M532 586l-105 -75q-23 37 -54 53.5t-82 16.5q-47 0 -72 -20t-25 -56q0 -39 31.5 -61t104.5 -40q111 -28 160 -75.5t49 -136.5t-60.5 -145t-177.5 -56q-180 0 -266 113l107 74q29 -36 63.5 -52.5t86.5 -16.5q107 0 107 77q0 37 -29.5 60t-111.5 44q-104 27 -154 79
t-50 136q0 87 59 140.5t177 53.5q169 0 242 -113z" />
    <glyph glyph-name="T" unicode="T" horiz-adv-x="536" 
d="M8 690h520v-119h-190v-571h-140v571h-190v119z" />
    <glyph glyph-name="U" unicode="U" horiz-adv-x="666" 
d="M458 690h140v-410q0 -146 -72 -217.5t-193 -71.5t-193 71t-72 217v411h140v-411q0 -88 30 -129t95 -41t95 41t30 129v411z" />
    <glyph glyph-name="V" unicode="V" horiz-adv-x="614" 
d="M3 690h153l151 -464l151 464h153l-240 -690h-127z" />
    <glyph glyph-name="W" unicode="W" horiz-adv-x="889" 
d="M444 475l-146 -475h-133l-158 690h150l92 -454l131 454h126l135 -457l91 457h151l-159 -690h-134z" />
    <glyph glyph-name="X" unicode="X" horiz-adv-x="592" 
d="M165 0h-152l194 356l-173 334h152l110 -220l111 220h151l-174 -334l195 -356h-151l-132 235z" />
    <glyph glyph-name="Y" unicode="Y" horiz-adv-x="583" 
d="M6 690h162l123 -257l124 257h161l-215 -408v-282h-140v282z" />
    <glyph glyph-name="Z" unicode="Z" horiz-adv-x="519" 
d="M30 690h456v-92l-278 -480h288v-118h-466v92l280 479h-280v119z" />
    <glyph glyph-name="bracketleft" unicode="[" horiz-adv-x="335" 
d="M70 -102v894h239v-108h-112v-678h112v-108h-239z" />
    <glyph glyph-name="backslash" unicode="\" horiz-adv-x="485" 
d="M25 812h116l336 -928h-116z" />
    <glyph glyph-name="bracketright" unicode="]" horiz-adv-x="335" 
d="M26 792h239v-894h-239v106h112v682h-112v106z" />
    <glyph glyph-name="asciicircum" unicode="^" horiz-adv-x="540" 
d="M212 690h115l176 -253h-144l-89 129l-82 -129h-150z" />
    <glyph glyph-name="underscore" unicode="_" horiz-adv-x="526" 
d="M0 -66h526v-103h-526v103z" />
    <glyph glyph-name="grave" unicode="`" horiz-adv-x="337" 
d="M205 725l70 -158h-122l-91 158h143z" />
    <glyph glyph-name="a" unicode="a" 
d="M26 148q0 76 51 114t134 38h99v29q0 43 -18 58.5t-71 15.5q-38 0 -58.5 -8t-35.5 -32l-90 63q27 45 72.5 64t123.5 19q103 0 152.5 -39.5t49.5 -141.5v-328h-125v44q-31 -53 -108 -53q-80 0 -128 41t-48 116zM310 187v19h-84q-75 0 -75 -56t73 -56q44 0 65 21.5t21 71.5z
" />
    <glyph glyph-name="b" unicode="b" horiz-adv-x="510" 
d="M172 690v-221q37 40 108 40q92 0 144.5 -58.5t52.5 -169.5v-60q0 -106 -50.5 -168t-146.5 -62q-72 0 -108 39v-30h-121v690h121zM261 99q89 0 89 126v52q0 124 -89 124t-89 -124v-52q0 -126 89 -126z" />
    <glyph glyph-name="c" unicode="c" horiz-adv-x="446" 
d="M343 142l95 -66q-50 -85 -182 -85q-106 0 -164.5 61t-58.5 165v68q0 109 59 166.5t171 57.5q122 0 175 -83l-96 -67q-30 42 -82 42q-100 0 -100 -124v-52q0 -60 21.5 -93t78.5 -33t83 43z" />
    <glyph glyph-name="d" unicode="d" horiz-adv-x="517" 
d="M338 474v216h127v-690h-127v29q-41 -38 -107 -38q-96 0 -147 61.5t-51 164.5v68q0 107 53.5 165.5t144.5 58.5q66 0 107 -35zM249 99q50 0 69.5 33t19.5 93v63q0 113 -89 113t-89 -124v-52q0 -126 89 -126z" />
    <glyph glyph-name="e" unicode="e" 
d="M343 142l95 -66q-49 -85 -183 -85q-108 0 -165 62.5t-57 163.5v68q0 111 53.5 167.5t152.5 56.5q206 0 206 -234v-57h-285q2 -119 94 -119q37 0 55 10t34 33zM240 401q-72 0 -80 -92h157q-4 92 -77 92z" />
    <glyph glyph-name="f" unicode="f" horiz-adv-x="301" 
d="M14 500h64v27q0 94 38.5 128.5t132.5 34.5h37v-112h-24q-34 0 -45.5 -16t-11.5 -55v-7h81v-108h-81v-392h-127v392h-64v108z" />
    <glyph glyph-name="g" unicode="g" horiz-adv-x="517" 
d="M338 474v26h127v-490q0 -61 -16 -102.5t-47 -63.5t-68.5 -31t-88.5 -9q-72 0 -118 20t-78 70l86 62q33 -45 98 -45q58 0 81.5 21t23.5 78v16q-41 -35 -107 -35q-96 0 -147 61.5t-51 164.5v68q0 107 53.5 165.5t144.5 58.5q66 0 107 -35zM249 99q89 0 89 115v63
q0 124 -89 124t-89 -124v-52q0 -126 89 -126z" />
    <glyph glyph-name="h" unicode="h" horiz-adv-x="526" 
d="M51 0v690h128v-229q36 48 112 48q83 0 133 -46t50 -150v-313h-127v293q0 57 -20 81.5t-60 24.5q-88 0 -88 -105v-294h-128z" />
    <glyph glyph-name="i" unicode="i" horiz-adv-x="260" 
d="M66 0v500h128v-500h-128zM61 566v124h138v-124h-138z" />
    <glyph glyph-name="j" unicode="j" horiz-adv-x="251" 
d="M194 500v-527q0 -93 -45 -128t-149 -35v110q38 0 52.5 17t14.5 54v509h127zM62 566v124h137v-124h-137z" />
    <glyph glyph-name="k" unicode="k" horiz-adv-x="502" 
d="M319 500h152l-173 -209l202 -291h-150l-137 188l-34 -42v-146h-128v690h128v-372z" />
    <glyph glyph-name="l" unicode="l" horiz-adv-x="285" 
d="M51 160v530h128v-501q0 -42 15.5 -60.5t54.5 -18.5v-110q-105 0 -151.5 34.5t-46.5 125.5z" />
    <glyph glyph-name="m" unicode="m" horiz-adv-x="795" 
d="M461 294v-294h-127v293q0 106 -76 106q-36 0 -57.5 -26.5t-21.5 -78.5v-294h-128v500h125v-42q37 51 111 51q93 0 140 -67q55 67 144 67q83 0 128 -50t45 -146v-313h-128v293q0 106 -77 106q-36 0 -57 -26.5t-21 -78.5z" />
    <glyph glyph-name="n" unicode="n" horiz-adv-x="526" 
d="M51 0v500h125v-42q39 51 115 51q83 0 133 -46t50 -150v-313h-127v293q0 57 -20 81.5t-60 24.5q-88 0 -88 -105v-294h-128z" />
    <glyph glyph-name="o" unicode="o" horiz-adv-x="499" 
d="M465 281v-60q0 -107 -53.5 -168.5t-162.5 -61.5q-106 0 -161 61t-55 169v60q0 112 56 170t160 58q105 0 160.5 -58t55.5 -170zM249 99q89 0 89 126v52q0 124 -89 124t-89 -124v-52q0 -60 19.5 -93t69.5 -33z" />
    <glyph glyph-name="p" unicode="p" horiz-adv-x="517" 
d="M484 285v-68q0 -101 -50.5 -163.5t-144.5 -62.5q-75 0 -110 29v-210h-128v690h128v-33q37 42 111 42q88 0 141 -59t53 -165zM268 99q88 0 88 126v52q0 124 -88 124q-89 0 -89 -113v-63q0 -60 19.5 -93t69.5 -33z" />
    <glyph glyph-name="q" unicode="q" horiz-adv-x="517" 
d="M338 475v25h127v-690h-127v218q-42 -37 -107 -37q-96 0 -147 61.5t-51 164.5v68q0 107 53.5 165.5t144.5 58.5q65 0 107 -34zM249 99q50 0 69.5 33t19.5 93v52q0 124 -89 124t-89 -124v-52q0 -126 89 -126z" />
    <glyph glyph-name="r" unicode="r" horiz-adv-x="410" 
d="M420 431l-98 -70q-26 38 -63 38t-58.5 -27t-21.5 -78v-294h-128v500h125v-42q35 51 109 51q90 0 135 -78z" />
    <glyph glyph-name="s" unicode="s" horiz-adv-x="464" 
d="M419 426l-94 -67q-18 21 -39 30.5t-59 9.5q-63 0 -63 -39q0 -21 19 -32t61 -17q94 -15 139.5 -53.5t45.5 -111.5t-50.5 -114t-145.5 -41q-76 0 -125.5 19.5t-81.5 63.5l98 70q16 -22 39.5 -32.5t67.5 -10.5q71 0 71 41q0 23 -18 33t-67 18q-180 29 -180 162q0 72 50 113
t143 41q138 0 189 -83z" />
    <glyph glyph-name="t" unicode="t" horiz-adv-x="331" 
d="M14 392v108h64v110h127v-110h98v-108h-98v-209q0 -39 11.5 -55t45.5 -16h41v-112h-54q-94 0 -132.5 34.5t-38.5 128.5v229h-64z" />
    <glyph glyph-name="u" unicode="u" horiz-adv-x="526" 
d="M474 500v-500h-125v42q-17 -27 -42 -39t-72 -12q-83 0 -133.5 46.5t-50.5 150.5v312h128v-293q0 -57 20 -81.5t61 -24.5q87 0 87 105v294h127z" />
    <glyph glyph-name="v" unicode="v" horiz-adv-x="504" 
d="M363 500h141l-190 -500h-120l-194 500h140l112 -324z" />
    <glyph glyph-name="w" unicode="w" horiz-adv-x="716" 
d="M358 313l-113 -313h-104l-138 500h132l71 -286l101 286h94l108 -287l71 287h133l-139 -500h-103z" />
    <glyph glyph-name="x" unicode="x" horiz-adv-x="490" 
d="M484 0h-142l-97 152l-97 -152h-141l164 256l-151 244h141l84 -143l84 143h141l-151 -244z" />
    <glyph glyph-name="y" unicode="y" horiz-adv-x="479" 
d="M5 500h134l111 -320l100 320h129l-175 -523q-34 -101 -79 -134t-150 -33v114q54 0 78 13.5t39 55.5z" />
    <glyph glyph-name="z" unicode="z" horiz-adv-x="449" 
d="M30 89l220 303h-217v108h382v-89l-217 -303h224v-108h-392v89z" />
    <glyph glyph-name="braceleft" unicode="{" horiz-adv-x="328" 
d="M227 606v-190q0 -31 -10.5 -46.5t-34.5 -23.5q45 -15 45 -70v-190q0 -46 14 -59.5t50 -13.5h14v-108h-41q-84 0 -124 32t-40 123v178q0 28 -11.5 40t-38.5 12h-19v112h19q27 0 38.5 12t11.5 40v178q0 91 40 123t124 32h41v-108h-14q-36 0 -50 -13.5t-14 -59.5z" />
    <glyph glyph-name="bar" unicode="|" horiz-adv-x="290" 
d="M206 812v-928h-121v928h121z" />
    <glyph glyph-name="braceright" unicode="}" horiz-adv-x="317" 
d="M108 416v190q0 46 -13.5 59.5t-49.5 13.5h-14v108h41q84 0 124 -32t40 -123v-178q0 -28 11.5 -40t38.5 -12h19v-112h-19q-27 0 -38.5 -12t-11.5 -40v-178q0 -91 -40 -123t-124 -32h-41v108h14q36 0 49.5 13.5t13.5 59.5v190q0 55 45 70q-24 8 -34.5 23.5t-10.5 46.5z" />
    <glyph glyph-name="asciitilde" unicode="~" horiz-adv-x="540" 
d="M355 259q-47 0 -95.5 22.5t-75.5 22.5q-53 0 -88 -45l-85 69q69 86 173 86q48 0 96.5 -22.5t74.5 -22.5q53 0 88 46l86 -70q-71 -86 -174 -86z" />
    <glyph glyph-name="uni00A0" unicode="&#xa0;" horiz-adv-x="250" 
 />
    <glyph glyph-name="exclamdown" unicode="&#xa1;" horiz-adv-x="250" 
d="M188 -190v501h-126v-501h126zM193 500v-136h-136v136h136z" />
    <glyph glyph-name="cent" unicode="&#xa2;" horiz-adv-x="540" 
d="M371 145l95 -66q-39 -69 -126 -82v-113h-114v115q-79 16 -122 74t-43 146v64q0 187 165 218v121h114v-120q86 -16 126 -79l-96 -67q-30 42 -82 42q-100 0 -100 -124v-46q0 -60 21.5 -93t78.5 -33q58 0 83 43z" />
    <glyph glyph-name="sterling" unicode="&#xa3;" horiz-adv-x="540" 
d="M27 0v118h73v159h-73v119h73v31q0 272 219 272q135 0 203 -103l-115 -65q-38 50 -82 50q-42 0 -63.5 -35t-21.5 -119v-31h131v-119h-131v-159h259v-118h-472z" />
    <glyph glyph-name="currency" unicode="&#xa4;" horiz-adv-x="540" 
d="M72 366q0 48 22 92l-79 79l84 84l77 -78q45 24 95 24q51 0 94 -23l78 78l84 -84l-78 -78q23 -43 23 -94q0 -49 -24 -94l79 -78l-84 -84l-79 78q-44 -22 -93 -22q-51 0 -94 23l-78 -78l-84 84l79 79q-22 42 -22 92zM179 366q0 -40 26.5 -67.5t65.5 -27.5q40 0 66.5 27.5
t26.5 67.5t-27 68t-66 28t-65.5 -28t-26.5 -68z" />
    <glyph glyph-name="yen" unicode="&#xa5;" horiz-adv-x="540" 
d="M60 231h137v51h-137v112h74l-112 296h155l90 -293l95 293h157l-119 -296h74v-112h-137v-51h137v-112h-137v-119h-140v119h-137v112z" />
    <glyph glyph-name="brokenbar" unicode="&#xa6;" horiz-adv-x="268" 
d="M209 243v-243h-140v243h140zM209 690v-243h-140v243h140z" />
    <glyph glyph-name="section" unicode="&#xa7;" horiz-adv-x="533" 
d="M72 -35h127q2 -22 12.5 -34t38.5 -12q53 0 53 43q0 23 -18.5 41t-63.5 34q-93 32 -135.5 77t-42.5 136q0 111 91 160q-62 49 -62 125q0 72 49.5 114t133.5 42q176 0 176 -156h-126q-3 22 -13.5 34t-38.5 12q-52 0 -52 -43q0 -23 19 -41.5t68 -35.5q88 -30 130 -75
t42 -136q0 -112 -91 -161q62 -49 62 -124q0 -72 -49.5 -114t-132.5 -42q-175 0 -177 156zM333 250q0 39 -22 60t-59 21q-38 0 -60 -21.5t-22 -59.5t22 -59.5t60 -21.5t59.5 21.5t21.5 59.5z" />
    <glyph glyph-name="dieresis" unicode="&#xa8;" horiz-adv-x="426" 
d="M49 573v117h124v-117h-124zM253 573v117h123v-117h-123z" />
    <glyph glyph-name="copyright" unicode="&#xa9;" horiz-adv-x="956" 
d="M34 250q0 184 128.5 312t311.5 128t311.5 -128t128.5 -312t-128.5 -312t-311.5 -128t-311.5 128t-128.5 312zM154 250q0 -137 93 -232t227 -95q135 0 227 95t92 232t-92 231.5t-227 94.5q-134 0 -227 -94.5t-93 -231.5zM565 142l95 -66q-50 -85 -182 -85
q-106 0 -164.5 61t-58.5 165v68q0 109 59 166.5t171 57.5q122 0 175 -83l-96 -67q-30 42 -82 42q-100 0 -100 -124v-52q0 -60 21.5 -93t78.5 -33t83 43z" />
    <glyph glyph-name="ordfeminine" unicode="&#xaa;" horiz-adv-x="316" 
d="M16 467q0 98 120 98h60v15q0 24 -11 34t-41 10q-24 0 -37 -7.5t-24 -25.5l-60 41q31 60 130 60q65 0 97.5 -23.5t32.5 -77.5v-217h-87v23q-21 -27 -71 -27q-48 0 -78.5 24.5t-30.5 72.5zM196 489v11h-47q-45 0 -45 -33q0 -29 41 -29q26 0 38.5 10.5t12.5 40.5z" />
    <glyph glyph-name="guillemotleft" unicode="&#xab;" horiz-adv-x="519" 
d="M30 283l232 231v-143l-90 -88l90 -89v-142zM245 283l232 231v-143l-89 -88l89 -89v-142z" />
    <glyph glyph-name="logicalnot" unicode="&#xac;" horiz-adv-x="534" 
d="M484 167h-129v133h-318v112h447v-245z" />
    <glyph glyph-name="uni00AD" unicode="&#xad;" horiz-adv-x="319" 
d="M30 233v112h259v-112h-259z" />
    <glyph glyph-name="registered" unicode="&#xae;" horiz-adv-x="544" 
d="M7 501q0 108 77 185t185 77t185 -77t77 -185t-77 -185t-185 -77t-185 77t-77 185zM82 501q0 -77 55 -132t132 -55t132 55t55 132t-55 132t-132 55t-132 -55t-55 -132zM230 374h-67v261h111q51 0 76 -24t25 -59q0 -55 -48 -76l61 -102h-76l-51 90h-31v-90zM230 520h30
q46 0 46 31q0 28 -41 28h-35v-59z" />
    <glyph glyph-name="macron" unicode="&#xaf;" horiz-adv-x="405" 
d="M61 573v111h283v-111h-283z" />
    <glyph glyph-name="degree" unicode="&#xb0;" horiz-adv-x="308" 
d="M13 559q0 60 41 100.5t100 40.5t100 -40.5t41 -100.5t-41 -100.5t-100 -40.5t-100 40.5t-41 100.5zM102 559q0 -22 15 -37.5t37 -15.5t36 15t14 38q0 22 -14 37t-36 15t-37 -15t-15 -37z" />
    <glyph glyph-name="plusminus" unicode="&#xb1;" horiz-adv-x="506" 
d="M59 340v108h139v141h109v-141h141v-108h-141v-105h-109v105h-139zM59 104v108h389v-108h-389z" />
    <glyph glyph-name="twosuperior" unicode="&#xb2;" horiz-adv-x="278" 
d="M264 442v-68h-233v63l103 89q36 31 36 58q0 31 -30 31q-14 0 -23 -9t-10 -24h-82q0 52 34.5 81.5t84.5 29.5q52 0 83.5 -27.5t31.5 -76.5q0 -52 -63 -106l-47 -41h115z" />
    <glyph glyph-name="threesuperior" unicode="&#xb3;" horiz-adv-x="301" 
d="M119 507v59h13q39 0 39 30q0 25 -29 25t-32 -27h-84q0 45 34 72t85 27t80.5 -23.5t29.5 -65.5q0 -46 -43 -66q49 -17 49 -70q0 -47 -32 -72t-84 -25q-56 0 -88.5 28.5t-34.5 72.5h85q5 -27 35 -27q33 0 33 30q0 32 -43 32h-13z" />
    <glyph glyph-name="acute" unicode="&#xb4;" horiz-adv-x="399" 
d="M93 567l70 158h143l-91 -158h-122z" />
    <glyph glyph-name="mu" unicode="&#x3bc;" horiz-adv-x="518" 
d="M175 -137h-127v637h127v-291q0 -64 22 -86t62 -22q85 0 85 106v293h113v-500h-111v42q-31 -51 -103 -51q-41 0 -68 15v-143z" />
    <glyph glyph-name="mu" unicode="&#xb5;" horiz-adv-x="518" 
d="M175 -137h-127v637h127v-291q0 -64 22 -86t62 -22q85 0 85 106v293h113v-500h-111v42q-31 -51 -103 -51q-41 0 -68 15v-143z" />
    <glyph glyph-name="paragraph" unicode="&#xb6;" horiz-adv-x="655" 
d="M576 690v-880h-133v761h-75v-761h-133v500q-79 0 -134.5 55.5t-55.5 134.5t55.5 134.5t134.5 55.5h341z" />
    <glyph glyph-name="periodcentered" unicode="&#xb7;" horiz-adv-x="216" 
d="M183 423v-150h-150v150h150z" />
    <glyph glyph-name="cedilla" unicode="&#xb8;" horiz-adv-x="350" 
d="M116 -72l20 97l81 -3l-12 -44q52 -20 52 -72q0 -40 -32.5 -63t-85.5 -23q-30 0 -46 4l15 65q12 -2 19 -2q33 0 33 21q0 20 -44 20z" />
    <glyph glyph-name="onesuperior" unicode="&#xb9;" horiz-adv-x="277" 
d="M215 690v-316h-88v223l-57 -37v87l64 43h81z" />
    <glyph glyph-name="ordmasculine" unicode="&#xba;" horiz-adv-x="350" 
d="M308 555v-45q0 -66 -37 -102.5t-103 -36.5q-63 0 -101 36t-38 103v45q0 68 38 103t101 35q64 0 102 -34.5t38 -103.5zM168 451q52 0 52 60v43q0 59 -52 59q-51 0 -51 -59v-43q0 -60 51 -60z" />
    <glyph glyph-name="guillemotright" unicode="&#xbb;" horiz-adv-x="519" 
d="M257 514l232 -231l-232 -231v142l89 89l-89 88v143zM41 514l232 -231l-232 -231v142l90 89l-90 88v143z" />
    <glyph glyph-name="onequarter" unicode="&#xbc;" horiz-adv-x="658" 
d="M210 690v-316h-88v223l-57 -37v87l64 43h81zM457 316h102l-123 -198h51v45h88v-45h39v-71h-39v-47h-88v47h-161v64zM488 690h127l-474 -690h-128z" />
    <glyph glyph-name="onehalf" unicode="&#xbd;" horiz-adv-x="650" 
d="M210 690v-316h-88v223l-57 -37v87l64 43h81zM611 68v-68h-233v63l103 89q36 31 36 58q0 31 -30 31q-13 0 -22 -9t-11 -24h-82q0 52 34.5 81.5t84.5 29.5q52 0 83.5 -27.5t31.5 -76.5q0 -52 -63 -106l-47 -41h115zM488 690h127l-474 -690h-128z" />
    <glyph glyph-name="threequarters" unicode="&#xbe;" horiz-adv-x="632" 
d="M113 507v59h13q39 0 39 30q0 25 -29 25t-32 -27h-84q0 45 34 72t85 27t80.5 -23.5t29.5 -65.5q0 -46 -43 -66q49 -17 49 -70q0 -47 -32 -72t-84 -25q-56 0 -88.5 28.5t-34.5 72.5h85q5 -27 35 -27q33 0 33 30q0 32 -43 32h-13zM457 316h102l-123 -198h51v45h88v-45h39
v-71h-39v-47h-88v47h-161v64zM488 690h127l-474 -690h-128z" />
    <glyph glyph-name="questiondown" unicode="&#xbf;" horiz-adv-x="487" 
d="M204 311h121v-69q0 -33 -8 -54.5t-31 -43.5l-45 -43q-35 -33 -49.5 -55.5t-14.5 -54.5q0 -34 21.5 -53.5t55.5 -19.5q33 0 55 18t23 50h132q0 -89 -59.5 -137t-150.5 -48q-94 0 -155.5 49t-61.5 142q0 55 26 99t74 91l33 32q13 13 18.5 19.5t10.5 18.5t5 28v31zM196 364
v136h137v-136h-137z" />
    <glyph glyph-name="Agrave" unicode="&#xc0;" horiz-adv-x="607" 
d="M146 0h-150l240 690h134l240 -690h-149l-42 131h-231zM303 492l-78 -243h156zM282 871l80 -129h-125l-103 129h148z" />
    <glyph glyph-name="Aacute" unicode="&#xc1;" horiz-adv-x="607" 
d="M146 0h-150l240 690h134l240 -690h-149l-42 131h-231zM303 492l-78 -243h156zM244 742l80 129h147l-103 -129h-124z" />
    <glyph glyph-name="Acircumflex" unicode="&#xc2;" horiz-adv-x="607" 
d="M146 0h-150l240 690h134l240 -690h-149l-42 131h-231zM303 492l-78 -243h156zM251 879h105l138 -142h-133l-58 61l-57 -61h-133z" />
    <glyph glyph-name="Atilde" unicode="&#xc3;" horiz-adv-x="607" 
d="M146 0h-150l240 690h134l240 -690h-149l-42 131h-231zM303 492l-78 -243h156zM365 738q-27 0 -65 14.5t-53 14.5q-29 0 -52 -26l-68 69q50 60 118 60q24 0 62 -14.5t55 -14.5q28 0 50 27l68 -69q-49 -61 -115 -61z" />
    <glyph glyph-name="Adieresis" unicode="&#xc4;" horiz-adv-x="607" 
d="M146 0h-150l240 690h134l240 -690h-149l-42 131h-231zM303 492l-78 -243h156zM140 752v117h124v-117h-124zM343 752v117h124v-117h-124z" />
    <glyph glyph-name="Aring" unicode="&#xc5;" horiz-adv-x="607" 
d="M146 0h-150l230 661q-38 27 -38 76q0 45 32.5 72t82.5 27q52 0 84.5 -27t32.5 -72q0 -50 -40 -77l230 -660h-149l-42 131h-231zM303 492l-78 -243h156zM267 737q0 -31 36 -31q37 0 37 31t-37 31q-36 0 -36 -31z" />
    <glyph glyph-name="AE" unicode="&#xc6;" horiz-adv-x="894" 
d="M160 0h-164l391 690h477v-119h-289v-155h259v-118h-259v-180h289v-118h-429v138h-198zM302 256h133v238z" />
    <glyph glyph-name="Ccedilla" unicode="&#xc7;" horiz-adv-x="594" 
d="M262 -72l13 65q-106 10 -167 86t-61 217v98q0 154 71 229.5t193 75.5q105 0 170.5 -56t82.5 -167h-134q-21 105 -119 105q-124 0 -124 -187v-98q0 -187 124 -187q51 0 79 25.5t40 79.5h133q-30 -200 -208 -220l-4 -16q53 -20 53 -72q0 -40 -33 -63t-86 -23q-30 0 -46 4
l15 65q12 -2 19 -2q33 0 33 21q0 20 -44 20z" />
    <glyph glyph-name="Egrave" unicode="&#xc8;" horiz-adv-x="527" 
d="M68 690h430v-119h-290v-155h260v-118h-260v-180h290v-118h-430v690zM289 871l80 -129h-125l-103 129h148z" />
    <glyph glyph-name="Eacute" unicode="&#xc9;" horiz-adv-x="527" 
d="M68 690h430v-119h-290v-155h260v-118h-260v-180h290v-118h-430v690zM201 742l80 129h147l-103 -129h-124z" />
    <glyph glyph-name="Ecircumflex" unicode="&#xca;" horiz-adv-x="527" 
d="M68 690h430v-119h-290v-155h260v-118h-260v-180h290v-118h-430v690zM230 879h105l138 -142h-133l-58 61l-57 -61h-133z" />
    <glyph glyph-name="Edieresis" unicode="&#xcb;" horiz-adv-x="527" 
d="M68 690h430v-119h-290v-155h260v-118h-260v-180h290v-118h-430v690zM119 752v117h124v-117h-124zM322 752v117h124v-117h-124z" />
    <glyph glyph-name="Igrave" unicode="&#xcc;" horiz-adv-x="296" 
d="M218 690v-690h-140v690h140zM139 871l80 -129h-125l-103 129h148z" />
    <glyph glyph-name="Iacute" unicode="&#xcd;" horiz-adv-x="296" 
d="M218 690v-690h-140v690h140zM78 742l80 129h147l-103 -129h-124z" />
    <glyph glyph-name="Icircumflex" unicode="&#xce;" horiz-adv-x="296" 
d="M218 690v-690h-140v690h140zM96 879h105l138 -142h-133l-58 61l-57 -61h-133z" />
    <glyph glyph-name="Idieresis" unicode="&#xcf;" horiz-adv-x="296" 
d="M218 690v-690h-140v690h140zM-15 752v117h124v-117h-124zM188 752v117h124v-117h-124z" />
    <glyph glyph-name="Eth" unicode="&#xd0;" horiz-adv-x="626" 
d="M314 0h-245v298h-79v118h79v274h245q265 0 265 -300v-90q0 -300 -265 -300zM314 118q68 0 96.5 44.5t28.5 137.5v90q0 92 -28.5 136.5t-96.5 44.5h-105v-155h136v-118h-136v-180h105z" />
    <glyph glyph-name="Ntilde" unicode="&#xd1;" horiz-adv-x="656" 
d="M454 690h133v-690h-117l-269 427v-427h-133v690h116l270 -433v433zM389 738q-27 0 -65 14.5t-53 14.5q-29 0 -52 -26l-68 69q50 60 118 60q24 0 62 -14.5t55 -14.5q27 0 50 27l68 -69q-49 -61 -115 -61z" />
    <glyph glyph-name="Ograve" unicode="&#xd2;" horiz-adv-x="623" 
d="M576 296q0 -153 -71.5 -229t-193.5 -76t-193 76t-71 229v98q0 154 71 229.5t193 75.5q123 0 194 -75.5t71 -229.5v-98zM187 394v-98q0 -187 124 -187q125 0 125 187v98q0 187 -125 187q-124 0 -124 -187zM312 871l80 -129h-125l-103 129h148z" />
    <glyph glyph-name="Oacute" unicode="&#xd3;" horiz-adv-x="623" 
d="M576 296q0 -153 -71.5 -229t-193.5 -76t-193 76t-71 229v98q0 154 71 229.5t193 75.5q123 0 194 -75.5t71 -229.5v-98zM187 394v-98q0 -187 124 -187q125 0 125 187v98q0 187 -125 187q-124 0 -124 -187zM237 742l80 129h147l-103 -129h-124z" />
    <glyph glyph-name="Ocircumflex" unicode="&#xd4;" horiz-adv-x="623" 
d="M576 296q0 -153 -71.5 -229t-193.5 -76t-193 76t-71 229v98q0 154 71 229.5t193 75.5q123 0 194 -75.5t71 -229.5v-98zM187 394v-98q0 -187 124 -187q125 0 125 187v98q0 187 -125 187q-124 0 -124 -187zM259 879h105l138 -142h-133l-58 61l-57 -61h-133z" />
    <glyph glyph-name="Otilde" unicode="&#xd5;" horiz-adv-x="623" 
d="M576 296q0 -153 -71.5 -229t-193.5 -76t-193 76t-71 229v98q0 154 71 229.5t193 75.5q123 0 194 -75.5t71 -229.5v-98zM187 394v-98q0 -187 124 -187q125 0 125 187v98q0 187 -125 187q-124 0 -124 -187zM373 738q-27 0 -65 14.5t-53 14.5q-29 0 -52 -26l-68 69
q50 60 118 60q24 0 62 -14.5t55 -14.5q28 0 50 27l68 -69q-49 -61 -115 -61z" />
    <glyph glyph-name="Odieresis" unicode="&#xd6;" horiz-adv-x="623" 
d="M576 296q0 -153 -71.5 -229t-193.5 -76t-193 76t-71 229v98q0 154 71 229.5t193 75.5q123 0 194 -75.5t71 -229.5v-98zM187 394v-98q0 -187 124 -187q125 0 125 187v98q0 187 -125 187q-124 0 -124 -187zM148 752v117h124v-117h-124zM351 752v117h124v-117h-124z" />
    <glyph glyph-name="multiply" unicode="&#xd7;" horiz-adv-x="563" 
d="M170 159l-78 78l117 117l-117 118l77 77l118 -118l118 118l77 -77l-118 -118l117 -117l-78 -78l-117 117z" />
    <glyph glyph-name="Oslash" unicode="&#xd8;" horiz-adv-x="623" 
d="M204 -116h-115l57 157q-99 77 -99 255v98q0 154 71 229.5t193 75.5q32 0 70 -7l44 120h115l-60 -166q96 -77 96 -252v-98q0 -153 -71.5 -229t-193.5 -76q-29 0 -66 7zM187 394v-98q0 -65 13 -105l140 387q-14 3 -29 3q-124 0 -124 -187zM436 394q0 59 -12 99l-138 -382
q8 -2 25 -2q125 0 125 187v98z" />
    <glyph glyph-name="Ugrave" unicode="&#xd9;" horiz-adv-x="666" 
d="M458 690h140v-410q0 -146 -72 -217.5t-193 -71.5t-193 71t-72 217v411h140v-411q0 -88 30 -129t95 -41t95 41t30 129v411zM325 871l80 -129h-125l-103 129h148z" />
    <glyph glyph-name="Uacute" unicode="&#xda;" horiz-adv-x="666" 
d="M458 690h140v-410q0 -146 -72 -217.5t-193 -71.5t-193 71t-72 217v411h140v-411q0 -88 30 -129t95 -41t95 41t30 129v411zM261 742l80 129h147l-103 -129h-124z" />
    <glyph glyph-name="Ucircumflex" unicode="&#xdb;" horiz-adv-x="666" 
d="M458 690h140v-410q0 -146 -72 -217.5t-193 -71.5t-193 71t-72 217v411h140v-411q0 -88 30 -129t95 -41t95 41t30 129v411zM281 879h105l138 -142h-133l-58 61l-57 -61h-133z" />
    <glyph glyph-name="Udieresis" unicode="&#xdc;" horiz-adv-x="666" 
d="M458 690h140v-410q0 -146 -72 -217.5t-193 -71.5t-193 71t-72 217v411h140v-411q0 -88 30 -129t95 -41t95 41t30 129v411zM170 752v117h124v-117h-124zM373 752v117h124v-117h-124z" />
    <glyph glyph-name="Yacute" unicode="&#xdd;" horiz-adv-x="583" 
d="M6 690h162l123 -257l124 257h161l-215 -408v-282h-140v282zM221 742l80 129h147l-103 -129h-124z" />
    <glyph glyph-name="Thorn" unicode="&#xde;" horiz-adv-x="590" 
d="M315 136h-107v-136h-140v690h140v-107h107q122 0 190 -56t68 -164q0 -109 -68.5 -168t-189.5 -59zM208 255h87q72 0 105 26t33 82q0 102 -138 102h-87v-210z" />
    <glyph glyph-name="germandbls" unicode="&#xdf;" horiz-adv-x="513" 
d="M462 565q0 -69 -61 -98q35 -13 48 -40t13 -75v-212q0 -85 -33 -112.5t-113 -27.5h-63v106h33q27 0 38 13.5t11 42.5v187q0 31 -10.5 45t-38.5 14h-33v99h33q49 0 49 47q0 46 -69 46q-47 0 -67 -27.5t-20 -81.5v-491h-128v499q0 200 215 200q100 0 148 -39t48 -95z" />
    <glyph glyph-name="agrave" unicode="&#xe0;" 
d="M26 148q0 76 51 114t134 38h99v29q0 43 -18 58.5t-71 15.5q-38 0 -58.5 -8t-35.5 -32l-90 63q27 45 72.5 64t123.5 19q103 0 152.5 -39.5t49.5 -141.5v-328h-125v44q-31 -53 -108 -53q-80 0 -128 41t-48 116zM310 187v19h-84q-75 0 -75 -56t73 -56q44 0 65 21.5t21 71.5z
M250 725l70 -158h-122l-91 158h143z" />
    <glyph glyph-name="aacute" unicode="&#xe1;" 
d="M26 148q0 76 51 114t134 38h99v29q0 43 -18 58.5t-71 15.5q-38 0 -58.5 -8t-35.5 -32l-90 63q27 45 72.5 64t123.5 19q103 0 152.5 -39.5t49.5 -141.5v-328h-125v44q-31 -53 -108 -53q-80 0 -128 41t-48 116zM310 187v19h-84q-75 0 -75 -56t73 -56q44 0 65 21.5t21 71.5z
M162 567l70 158h143l-91 -158h-122z" />
    <glyph glyph-name="acircumflex" unicode="&#xe2;" 
d="M26 148q0 76 51 114t134 38h99v29q0 43 -18 58.5t-71 15.5q-38 0 -58.5 -8t-35.5 -32l-90 63q27 45 72.5 64t123.5 19q103 0 152.5 -39.5t49.5 -141.5v-328h-125v44q-31 -53 -108 -53q-80 0 -128 41t-48 116zM310 187v19h-84q-75 0 -75 -56t73 -56q44 0 65 21.5t21 71.5z
M188 710h106l108 -142h-114l-47 65l-47 -65h-114z" />
    <glyph glyph-name="atilde" unicode="&#xe3;" 
d="M26 148q0 76 51 114t134 38h99v29q0 43 -18 58.5t-71 15.5q-38 0 -58.5 -8t-35.5 -32l-90 63q27 45 72.5 64t123.5 19q103 0 152.5 -39.5t49.5 -141.5v-328h-125v44q-31 -53 -108 -53q-80 0 -128 41t-48 116zM310 187v19h-84q-75 0 -75 -56t73 -56q44 0 65 21.5t21 71.5z
M307 569q-27 0 -64 14.5t-53 14.5q-30 0 -53 -27l-67 64q48 61 117 61q24 0 62 -14.5t55 -14.5q27 0 51 27l67 -64q-47 -61 -115 -61z" />
    <glyph glyph-name="adieresis" unicode="&#xe4;" 
d="M26 148q0 76 51 114t134 38h99v29q0 43 -18 58.5t-71 15.5q-38 0 -58.5 -8t-35.5 -32l-90 63q27 45 72.5 64t123.5 19q103 0 152.5 -39.5t49.5 -141.5v-328h-125v44q-31 -53 -108 -53q-80 0 -128 41t-48 116zM310 187v19h-84q-75 0 -75 -56t73 -56q44 0 65 21.5t21 71.5z
M69 573v117h124v-117h-124zM273 573v117h123v-117h-123z" />
    <glyph glyph-name="aring" unicode="&#xe5;" 
d="M26 148q0 76 51 114t134 38h99v29q0 43 -18 58.5t-71 15.5q-38 0 -58.5 -8t-35.5 -32l-90 63q27 45 72.5 64t123.5 19q103 0 152.5 -39.5t49.5 -141.5v-328h-125v44q-31 -53 -108 -53q-80 0 -128 41t-48 116zM310 187v19h-84q-75 0 -75 -56t73 -56q44 0 65 21.5t21 71.5z
M121 646q0 48 34 79t89 31t89 -31t34 -79t-34 -78.5t-89 -30.5t-89 30.5t-34 78.5zM207 646q0 -20 10 -32t27 -12q37 0 37 44q0 43 -37 43t-37 -43z" />
    <glyph glyph-name="ae" unicode="&#xe6;" horiz-adv-x="760" 
d="M618 142l94 -66q-49 -85 -182 -85q-113 0 -163 69q-55 -69 -164 -69q-82 0 -129.5 41t-47.5 114q0 79 52 116.5t137 37.5h95v25q0 43 -16.5 60.5t-69.5 17.5q-42 0 -62 -8.5t-35 -31.5l-90 61q51 85 199 85q102 0 146 -48q48 48 132 48q206 0 206 -235v-58h-285
q1 -117 95 -117q34 0 53 10t35 33zM310 186v20h-85q-74 0 -74 -56t73 -56q42 0 64 20.5t22 71.5zM515 401q-72 0 -80 -94h157q-5 94 -77 94z" />
    <glyph glyph-name="ccedilla" unicode="&#xe7;" horiz-adv-x="446" 
d="M204 -72l13 66q-88 10 -136 70t-48 153v68q0 109 59 166.5t171 57.5q122 0 175 -83l-96 -67q-30 42 -82 42q-100 0 -100 -124v-52q0 -60 21.5 -93t78.5 -33t83 43l95 -66q-44 -73 -141 -83l-4 -15q52 -20 52 -72q0 -40 -32.5 -63t-85.5 -23q-30 0 -46 4l15 65
q12 -2 19 -2q33 0 33 21q0 20 -44 20z" />
    <glyph glyph-name="egrave" unicode="&#xe8;" 
d="M343 142l95 -66q-49 -85 -183 -85q-108 0 -165 62.5t-57 163.5v68q0 111 53.5 167.5t152.5 56.5q206 0 206 -234v-57h-285q2 -119 94 -119q37 0 55 10t34 33zM240 401q-72 0 -80 -92h157q-4 92 -77 92zM256 725l70 -158h-122l-91 158h143z" />
    <glyph glyph-name="eacute" unicode="&#xe9;" 
d="M343 142l95 -66q-49 -85 -183 -85q-108 0 -165 62.5t-57 163.5v68q0 111 53.5 167.5t152.5 56.5q206 0 206 -234v-57h-285q2 -119 94 -119q37 0 55 10t34 33zM240 401q-72 0 -80 -92h157q-4 92 -77 92zM164 567l70 158h143l-91 -158h-122z" />
    <glyph glyph-name="ecircumflex" unicode="&#xea;" 
d="M343 142l95 -66q-49 -85 -183 -85q-108 0 -165 62.5t-57 163.5v68q0 111 53.5 167.5t152.5 56.5q206 0 206 -234v-57h-285q2 -119 94 -119q37 0 55 10t34 33zM240 401q-72 0 -80 -92h157q-4 92 -77 92zM186 710h106l108 -142h-114l-47 65l-47 -65h-114z" />
    <glyph glyph-name="edieresis" unicode="&#xeb;" 
d="M343 142l95 -66q-49 -85 -183 -85q-108 0 -165 62.5t-57 163.5v68q0 111 53.5 167.5t152.5 56.5q206 0 206 -234v-57h-285q2 -119 94 -119q37 0 55 10t34 33zM240 401q-72 0 -80 -92h157q-4 92 -77 92zM75 573v117h124v-117h-124zM279 573v117h123v-117h-123z" />
    <glyph glyph-name="igrave" unicode="&#xec;" horiz-adv-x="260" 
d="M66 0v500h128v-500h-128zM119 725l70 -158h-122l-91 158h143z" />
    <glyph glyph-name="iacute" unicode="&#xed;" horiz-adv-x="260" 
d="M66 0v500h128v-500h-128zM61 567l70 158h143l-91 -158h-122z" />
    <glyph glyph-name="icircumflex" unicode="&#xee;" horiz-adv-x="260" 
d="M66 0v500h128v-500h-128zM72 710h106l108 -142h-114l-47 65l-47 -65h-114z" />
    <glyph glyph-name="idieresis" unicode="&#xef;" horiz-adv-x="260" 
d="M66 0v500h128v-500h-128zM-39 573v117h124v-117h-124zM165 573v117h123v-117h-123z" />
    <glyph glyph-name="eth" unicode="&#xf0;" horiz-adv-x="505" 
d="M165 562l22 42q-25 9 -54 21l45 85l53 -22l26 50l73 -39l-24 -45q91 -43 125 -97t34 -167v-98v-14v-57q0 -107 -53.5 -168.5t-162.5 -61.5q-106 0 -161 61t-55 169v60q0 111 55.5 169.5t156.5 58.5q71 0 110 -35q-6 35 -26 56t-66 42l-25 -48zM249 99q89 0 89 126v52
q0 124 -89 124t-89 -124v-52q0 -60 19.5 -93t69.5 -33z" />
    <glyph glyph-name="ntilde" unicode="&#xf1;" horiz-adv-x="526" 
d="M51 0v500h125v-42q39 51 115 51q83 0 133 -46t50 -150v-313h-127v293q0 57 -20 81.5t-60 24.5q-88 0 -88 -105v-294h-128zM324 569q-27 0 -64 14.5t-53 14.5q-31 0 -53 -27l-67 64q48 61 117 61q24 0 62 -14.5t55 -14.5q27 0 51 27l67 -64q-47 -61 -115 -61z" />
    <glyph glyph-name="ograve" unicode="&#xf2;" horiz-adv-x="499" 
d="M465 281v-60q0 -107 -53.5 -168.5t-162.5 -61.5q-106 0 -161 61t-55 169v60q0 112 56 170t160 58q105 0 160.5 -58t55.5 -170zM249 99q89 0 89 126v52q0 124 -89 124t-89 -124v-52q0 -60 19.5 -93t69.5 -33zM269 725l70 -158h-122l-91 158h143z" />
    <glyph glyph-name="oacute" unicode="&#xf3;" horiz-adv-x="499" 
d="M465 281v-60q0 -107 -53.5 -168.5t-162.5 -61.5q-106 0 -161 61t-55 169v60q0 112 56 170t160 58q105 0 160.5 -58t55.5 -170zM249 99q89 0 89 126v52q0 124 -89 124t-89 -124v-52q0 -60 19.5 -93t69.5 -33zM179 567l70 158h143l-91 -158h-122z" />
    <glyph glyph-name="ocircumflex" unicode="&#xf4;" horiz-adv-x="499" 
d="M465 281v-60q0 -107 -53.5 -168.5t-162.5 -61.5q-106 0 -161 61t-55 169v60q0 112 56 170t160 58q105 0 160.5 -58t55.5 -170zM249 99q89 0 89 126v52q0 124 -89 124t-89 -124v-52q0 -60 19.5 -93t69.5 -33zM196 710h106l108 -142h-114l-47 65l-47 -65h-114z" />
    <glyph glyph-name="otilde" unicode="&#xf5;" horiz-adv-x="499" 
d="M465 281v-60q0 -107 -53.5 -168.5t-162.5 -61.5q-106 0 -161 61t-55 169v60q0 112 56 170t160 58q105 0 160.5 -58t55.5 -170zM249 99q89 0 89 126v52q0 124 -89 124t-89 -124v-52q0 -60 19.5 -93t69.5 -33zM311 569q-27 0 -64 14.5t-53 14.5q-30 0 -53 -27l-67 64
q48 61 117 61q24 0 62 -14.5t55 -14.5q27 0 51 27l67 -64q-47 -61 -115 -61z" />
    <glyph glyph-name="odieresis" unicode="&#xf6;" horiz-adv-x="499" 
d="M465 281v-60q0 -107 -53.5 -168.5t-162.5 -61.5q-106 0 -161 61t-55 169v60q0 112 56 170t160 58q105 0 160.5 -58t55.5 -170zM249 99q89 0 89 126v52q0 124 -89 124t-89 -124v-52q0 -60 19.5 -93t69.5 -33zM85 573v117h124v-117h-124zM289 573v117h123v-117h-123z" />
    <glyph glyph-name="divide" unicode="&#xf7;" horiz-adv-x="506" 
d="M58 298v112h389v-112h-389zM192 460v121h121v-121h-121zM192 128v120h121v-120h-121z" />
    <glyph glyph-name="oslash" unicode="&#xf8;" horiz-adv-x="499" 
d="M140 -79h-77l49 109q-79 58 -79 191v60q0 112 56 170t160 58q40 0 73 -9l37 82h77l-50 -111q79 -56 79 -190v-60q0 -107 -53.5 -168.5t-162.5 -61.5q-41 0 -74 9zM160 225q0 -42 8 -69l108 241q-16 4 -27 4q-89 0 -89 -124v-52zM249 99q89 0 89 126v52q0 39 -9 66
l-108 -241q12 -3 28 -3z" />
    <glyph glyph-name="ugrave" unicode="&#xf9;" horiz-adv-x="526" 
d="M474 500v-500h-125v42q-17 -27 -42 -39t-72 -12q-83 0 -133.5 46.5t-50.5 150.5v312h128v-293q0 -57 20 -81.5t61 -24.5q87 0 87 105v294h127zM281 725l70 -158h-122l-91 158h143z" />
    <glyph glyph-name="uacute" unicode="&#xfa;" horiz-adv-x="526" 
d="M474 500v-500h-125v42q-17 -27 -42 -39t-72 -12q-83 0 -133.5 46.5t-50.5 150.5v312h128v-293q0 -57 20 -81.5t61 -24.5q87 0 87 105v294h127zM196 567l70 158h143l-91 -158h-122z" />
    <glyph glyph-name="ucircumflex" unicode="&#xfb;" horiz-adv-x="526" 
d="M474 500v-500h-125v42q-17 -27 -42 -39t-72 -12q-83 0 -133.5 46.5t-50.5 150.5v312h128v-293q0 -57 20 -81.5t61 -24.5q87 0 87 105v294h127zM210 710h106l108 -142h-114l-47 65l-47 -65h-114z" />
    <glyph glyph-name="udieresis" unicode="&#xfc;" horiz-adv-x="526" 
d="M474 500v-500h-125v42q-17 -27 -42 -39t-72 -12q-83 0 -133.5 46.5t-50.5 150.5v312h128v-293q0 -57 20 -81.5t61 -24.5q87 0 87 105v294h127zM99 573v117h124v-117h-124zM303 573v117h123v-117h-123z" />
    <glyph glyph-name="yacute" unicode="&#xfd;" horiz-adv-x="479" 
d="M5 500h134l111 -320l100 320h129l-175 -523q-34 -101 -79 -134t-150 -33v114q54 0 78 13.5t39 55.5zM187 567l70 158h143l-91 -158h-122z" />
    <glyph glyph-name="thorn" unicode="&#xfe;" horiz-adv-x="517" 
d="M484 285v-68q0 -101 -50.5 -163.5t-144.5 -62.5q-75 0 -110 29v-210h-128v880h128v-223q37 42 111 42q88 0 141 -59t53 -165zM268 99q88 0 88 126v52q0 124 -88 124q-89 0 -89 -113v-63q0 -60 19.5 -93t69.5 -33z" />
    <glyph glyph-name="ydieresis" unicode="&#xff;" horiz-adv-x="479" 
d="M5 500h134l111 -320l100 320h129l-175 -523q-34 -101 -79 -134t-150 -33v114q54 0 78 13.5t39 55.5zM84 573v117h124v-117h-124zM288 573v117h123v-117h-123z" />
    <glyph glyph-name="Amacron" unicode="&#x100;" horiz-adv-x="607" 
d="M146 0h-150l240 690h134l240 -690h-149l-42 131h-231zM303 492l-78 -243h156zM143 744v112h322v-112h-322z" />
    <glyph glyph-name="amacron" unicode="&#x101;" 
d="M26 148q0 76 51 114t134 38h99v29q0 43 -18 58.5t-71 15.5q-38 0 -58.5 -8t-35.5 -32l-90 63q27 45 72.5 64t123.5 19q103 0 152.5 -39.5t49.5 -141.5v-328h-125v44q-31 -53 -108 -53q-80 0 -128 41t-48 116zM310 187v19h-84q-75 0 -75 -56t73 -56q44 0 65 21.5t21 71.5z
M103 573v111h283v-111h-283z" />
    <glyph glyph-name="Abreve" unicode="&#x102;" horiz-adv-x="607" 
d="M146 0h-150l240 690h134l240 -690h-149l-42 131h-231zM303 492l-78 -243h156zM383 879h112q0 -73 -53 -112.5t-138 -39.5t-138 39.5t-53 112.5h111q11 -54 80 -54t79 54z" />
    <glyph glyph-name="abreve" unicode="&#x103;" 
d="M26 148q0 76 51 114t134 38h99v29q0 43 -18 58.5t-71 15.5q-38 0 -58.5 -8t-35.5 -32l-90 63q27 45 72.5 64t123.5 19q103 0 152.5 -39.5t49.5 -141.5v-328h-125v44q-31 -53 -108 -53q-80 0 -128 41t-48 116zM310 187v19h-84q-75 0 -75 -56t73 -56q44 0 65 21.5t21 71.5z
M310 690h92q-2 -63 -41 -97.5t-108 -34.5t-108.5 34.5t-41.5 97.5h93q7 -53 57 -53t57 53z" />
    <glyph glyph-name="Aogonek" unicode="&#x104;" horiz-adv-x="607" 
d="M146 0h-150l240 690h134l240 -690q-44 -39 -44 -61t27 -22q9 0 19 2l15 -65q-16 -4 -48 -4q-45 0 -77.5 18.5t-32.5 57.5q0 42 35 74h-43l-42 131h-231zM303 492l-78 -243h156z" />
    <glyph glyph-name="aogonek" unicode="&#x105;" horiz-adv-x="495" 
d="M26 148q0 76 51 114t134 38h99v29q0 43 -18 58.5t-71 15.5q-38 0 -58.5 -8t-35.5 -32l-90 63q27 45 72.5 64t123.5 19q103 0 152.5 -39.5t49.5 -141.5v-328q-17 -15 -24.5 -22.5t-14 -18t-6.5 -20.5q0 -22 27 -22q9 0 19 2l15 -65q-16 -4 -48 -4q-45 0 -77.5 18.5
t-32.5 57.5q0 42 35 74h-18v44q-31 -53 -108 -53q-80 0 -128 41t-48 116zM310 187v19h-84q-75 0 -75 -56t73 -56q44 0 65 21.5t21 71.5z" />
    <glyph glyph-name="Cacute" unicode="&#x106;" horiz-adv-x="594" 
d="M564 476h-134q-21 105 -119 105q-124 0 -124 -187v-98q0 -187 124 -187q51 0 79 25.5t40 79.5h133q-33 -223 -252 -223q-122 0 -193 76t-71 229v98q0 154 71 229.5t193 75.5q105 0 170.5 -56t82.5 -167zM221 742l80 129h147l-103 -129h-124z" />
    <glyph glyph-name="cacute" unicode="&#x107;" horiz-adv-x="446" 
d="M343 142l95 -66q-50 -85 -182 -85q-106 0 -164.5 61t-58.5 165v68q0 109 59 166.5t171 57.5q122 0 175 -83l-96 -67q-30 42 -82 42q-100 0 -100 -124v-52q0 -60 21.5 -93t78.5 -33t83 43zM183 567l70 158h143l-91 -158h-122z" />
    <glyph glyph-name="Ccircumflex" unicode="&#x108;" horiz-adv-x="594" 
d="M564 476h-134q-21 105 -119 105q-124 0 -124 -187v-98q0 -187 124 -187q51 0 79 25.5t40 79.5h133q-33 -223 -252 -223q-122 0 -193 76t-71 229v98q0 154 71 229.5t193 75.5q105 0 170.5 -56t82.5 -167zM256 879h105l138 -142h-133l-58 61l-57 -61h-133z" />
    <glyph glyph-name="ccircumflex" unicode="&#x109;" horiz-adv-x="446" 
d="M343 142l95 -66q-50 -85 -182 -85q-106 0 -164.5 61t-58.5 165v68q0 109 59 166.5t171 57.5q122 0 175 -83l-96 -67q-30 42 -82 42q-100 0 -100 -124v-52q0 -60 21.5 -93t78.5 -33t83 43zM206 710h106l108 -142h-114l-47 65l-47 -65h-114z" />
    <glyph glyph-name="Cdotaccent" unicode="&#x10a;" horiz-adv-x="594" 
d="M564 476h-134q-21 105 -119 105q-124 0 -124 -187v-98q0 -187 124 -187q51 0 79 25.5t40 79.5h133q-33 -223 -252 -223q-122 0 -193 76t-71 229v98q0 154 71 229.5t193 75.5q105 0 170.5 -56t82.5 -167zM239 759v110h141v-110h-141z" />
    <glyph glyph-name="cdotaccent" unicode="&#x10b;" horiz-adv-x="446" 
d="M343 142l95 -66q-50 -85 -182 -85q-106 0 -164.5 61t-58.5 165v68q0 109 59 166.5t171 57.5q122 0 175 -83l-96 -67q-30 42 -82 42q-100 0 -100 -124v-52q0 -60 21.5 -93t78.5 -33t83 43zM182 566v124h138v-124h-138z" />
    <glyph glyph-name="Ccaron" unicode="&#x10c;" horiz-adv-x="594" 
d="M564 476h-134q-21 105 -119 105q-124 0 -124 -187v-98q0 -187 124 -187q51 0 79 25.5t40 79.5h133q-33 -223 -252 -223q-122 0 -193 76t-71 229v98q0 154 71 229.5t193 75.5q105 0 170.5 -56t82.5 -167zM358 737h-105l-138 142h133l57 -61l58 61h133z" />
    <glyph glyph-name="ccaron" unicode="&#x10d;" horiz-adv-x="446" 
d="M343 142l95 -66q-50 -85 -182 -85q-106 0 -164.5 61t-58.5 165v68q0 109 59 166.5t171 57.5q122 0 175 -83l-96 -67q-30 42 -82 42q-100 0 -100 -124v-52q0 -60 21.5 -93t78.5 -33t83 43zM308 568h-106l-108 142h114l47 -65l47 65h114z" />
    <glyph glyph-name="Dcaron" unicode="&#x10e;" horiz-adv-x="625" 
d="M313 0h-245v690h245q265 0 265 -300v-90q0 -300 -265 -300zM313 118q68 0 96.5 44.5t28.5 137.5v90q0 92 -28.5 136.5t-96.5 44.5h-105v-453h105zM341 737h-105l-138 142h133l57 -61l58 61h133z" />
    <glyph glyph-name="dcaron" unicode="&#x10f;" horiz-adv-x="538" 
d="M338 474v216h127v-690h-127v29q-41 -38 -107 -38q-96 0 -147 61.5t-51 164.5v68q0 107 53.5 165.5t144.5 58.5q66 0 107 -35zM249 99q50 0 69.5 33t19.5 93v63q0 113 -89 113t-89 -124v-52q0 -126 89 -126zM636 689v-129l-137 -117v246h137z" />
    <glyph glyph-name="Dcroat" unicode="&#x110;" horiz-adv-x="636" 
d="M324 0h-245v298h-89v118h89v274h245q265 0 265 -300v-90q0 -300 -265 -300zM324 118q68 0 96.5 44.5t28.5 137.5v90q0 92 -28.5 136.5t-96.5 44.5h-105v-155h140v-118h-140v-180h105z" />
    <glyph glyph-name="dcroat" unicode="&#x111;" horiz-adv-x="517" 
d="M338 474v64h-124v105h124v47h127v-47h75v-105h-75v-538h-127v29q-41 -38 -107 -38q-96 0 -147 61.5t-51 164.5v68q0 107 53.5 165.5t144.5 58.5q66 0 107 -35zM249 99q50 0 69.5 33t19.5 93v63q0 113 -89 113t-89 -124v-52q0 -126 89 -126z" />
    <glyph glyph-name="Emacron" unicode="&#x112;" horiz-adv-x="527" 
d="M68 690h430v-119h-290v-155h260v-118h-260v-180h290v-118h-430v690zM122 744v112h322v-112h-322z" />
    <glyph glyph-name="emacron" unicode="&#x113;" 
d="M343 142l95 -66q-49 -85 -183 -85q-108 0 -165 62.5t-57 163.5v68q0 111 53.5 167.5t152.5 56.5q206 0 206 -234v-57h-285q2 -119 94 -119q37 0 55 10t34 33zM240 401q-72 0 -80 -92h157q-4 92 -77 92zM98 573v111h283v-111h-283z" />
    <glyph glyph-name="Edotaccent" unicode="&#x116;" horiz-adv-x="527" 
d="M68 690h430v-119h-290v-155h260v-118h-260v-180h290v-118h-430v690zM212 759v110h141v-110h-141z" />
    <glyph glyph-name="edotaccent" unicode="&#x117;" 
d="M343 142l95 -66q-49 -85 -183 -85q-108 0 -165 62.5t-57 163.5v68q0 111 53.5 167.5t152.5 56.5q206 0 206 -234v-57h-285q2 -119 94 -119q37 0 55 10t34 33zM240 401q-72 0 -80 -92h157q-4 92 -77 92zM170 566v124h138v-124h-138z" />
    <glyph glyph-name="Eogonek" unicode="&#x118;" horiz-adv-x="527" 
d="M68 690h430v-119h-290v-155h260v-118h-260v-180h290v-118h-111q-17 -15 -24.5 -22.5t-14 -18t-6.5 -20.5q0 -22 27 -22q9 0 19 2l15 -65q-16 -4 -48 -4q-45 0 -77.5 18.5t-32.5 57.5q0 42 35 74h-212v690z" />
    <glyph glyph-name="eogonek" unicode="&#x119;" 
d="M343 142l95 -66q-37 -65 -120 -80q-40 -34 -40 -57q0 -22 27 -22q9 0 19 2l15 -65q-16 -4 -48 -4q-45 0 -77.5 18.5t-32.5 57.5q0 38 29 69q-87 12 -132 72t-45 150v68q0 111 53.5 167.5t152.5 56.5q206 0 206 -234v-57h-285q2 -119 94 -119q37 0 55 10t34 33zM240 401
q-72 0 -80 -92h157q-4 92 -77 92z" />
    <glyph glyph-name="Ecaron" unicode="&#x11a;" horiz-adv-x="527" 
d="M68 690h430v-119h-290v-155h260v-118h-260v-180h290v-118h-430v690zM335 737h-105l-138 142h133l57 -61l58 61h133z" />
    <glyph glyph-name="ecaron" unicode="&#x11b;" 
d="M343 142l95 -66q-49 -85 -183 -85q-108 0 -165 62.5t-57 163.5v68q0 111 53.5 167.5t152.5 56.5q206 0 206 -234v-57h-285q2 -119 94 -119q37 0 55 10t34 33zM240 401q-72 0 -80 -92h157q-4 92 -77 92zM295 568h-106l-108 142h114l47 -65l47 65h114z" />
    <glyph glyph-name="Gcircumflex" unicode="&#x11c;" horiz-adv-x="612" 
d="M314 359h251v-63q0 -154 -66.5 -229.5t-187.5 -75.5q-122 0 -193 76t-71 229v88q0 161 71 238t193 77q108 0 172.5 -58t80.5 -165h-134q-20 105 -119 105q-124 0 -124 -187v-98q0 -187 124 -187q57 0 85 33.5t34 98.5h-116v118zM253 879h105l138 -142h-133l-58 61
l-57 -61h-133z" />
    <glyph glyph-name="gcircumflex" unicode="&#x11d;" horiz-adv-x="517" 
d="M338 474v26h127v-490q0 -61 -16 -102.5t-47 -63.5t-68.5 -31t-88.5 -9q-72 0 -118 20t-78 70l86 62q33 -45 98 -45q58 0 81.5 21t23.5 78v16q-41 -35 -107 -35q-96 0 -147 61.5t-51 164.5v68q0 107 53.5 165.5t144.5 58.5q66 0 107 -35zM249 99q89 0 89 115v63
q0 124 -89 124t-89 -124v-52q0 -126 89 -126zM230 710h106l108 -142h-114l-47 65l-47 -65h-114z" />
    <glyph glyph-name="Gbreve" unicode="&#x11e;" horiz-adv-x="612" 
d="M314 359h251v-63q0 -154 -66.5 -229.5t-187.5 -75.5q-122 0 -193 76t-71 229v88q0 161 71 238t193 77q108 0 172.5 -58t80.5 -165h-134q-20 105 -119 105q-124 0 -124 -187v-98q0 -187 124 -187q57 0 85 33.5t34 98.5h-116v118zM385 879h112q0 -73 -53 -112.5t-138 -39.5
t-138 39.5t-53 112.5h111q11 -54 80 -54t79 54z" />
    <glyph glyph-name="gbreve" unicode="&#x11f;" horiz-adv-x="517" 
d="M338 474v26h127v-490q0 -61 -16 -102.5t-47 -63.5t-68.5 -31t-88.5 -9q-72 0 -118 20t-78 70l86 62q33 -45 98 -45q58 0 81.5 21t23.5 78v16q-41 -35 -107 -35q-96 0 -147 61.5t-51 164.5v68q0 107 53.5 165.5t144.5 58.5q66 0 107 -35zM249 99q89 0 89 115v63
q0 124 -89 124t-89 -124v-52q0 -126 89 -126zM341 690h92q-2 -63 -41 -97.5t-108 -34.5t-108.5 34.5t-41.5 97.5h93q7 -53 57 -53t57 53z" />
    <glyph glyph-name="Gdotaccent" unicode="&#x120;" horiz-adv-x="612" 
d="M314 359h251v-63q0 -154 -66.5 -229.5t-187.5 -75.5q-122 0 -193 76t-71 229v88q0 161 71 238t193 77q108 0 172.5 -58t80.5 -165h-134q-20 105 -119 105q-124 0 -124 -187v-98q0 -187 124 -187q57 0 85 33.5t34 98.5h-116v118zM240 759v110h141v-110h-141z" />
    <glyph glyph-name="gdotaccent" unicode="&#x121;" horiz-adv-x="517" 
d="M338 474v26h127v-490q0 -61 -16 -102.5t-47 -63.5t-68.5 -31t-88.5 -9q-72 0 -118 20t-78 70l86 62q33 -45 98 -45q58 0 81.5 21t23.5 78v16q-41 -35 -107 -35q-96 0 -147 61.5t-51 164.5v68q0 107 53.5 165.5t144.5 58.5q66 0 107 -35zM249 99q89 0 89 115v63
q0 124 -89 124t-89 -124v-52q0 -126 89 -126zM208 566v124h138v-124h-138z" />
    <glyph glyph-name="Gcommaaccent" unicode="&#x122;" horiz-adv-x="612" 
d="M314 359h251v-63q0 -154 -66.5 -229.5t-187.5 -75.5q-122 0 -193 76t-71 229v88q0 161 71 238t193 77q108 0 172.5 -58t80.5 -165h-134q-20 105 -119 105q-124 0 -124 -187v-98q0 -187 124 -187q57 0 85 33.5t34 98.5h-116v118zM375 -51v-129l-137 -117v246h137z" />
    <glyph glyph-name="gcommaaccent" unicode="&#x123;" horiz-adv-x="517" 
d="M338 474v26h127v-490q0 -61 -16 -102.5t-47 -63.5t-68.5 -31t-88.5 -9q-72 0 -118 20t-78 70l86 62q33 -45 98 -45q58 0 81.5 21t23.5 78v16q-41 -35 -107 -35q-96 0 -147 61.5t-51 164.5v68q0 107 53.5 165.5t144.5 58.5q66 0 107 -35zM249 99q89 0 89 115v63
q0 124 -89 124t-89 -124v-52q0 -126 89 -126zM189 542v129l137 117v-246h-137z" />
    <glyph glyph-name="Hcircumflex" unicode="&#x124;" horiz-adv-x="656" 
d="M208 690v-274h239v274h140v-690h-140v298h-239v-298h-140v690h140zM275 879h105l138 -142h-133l-58 61l-57 -61h-133z" />
    <glyph glyph-name="hcircumflex" unicode="&#x125;" horiz-adv-x="526" 
d="M51 0v690h128v-229q36 48 112 48q83 0 133 -46t50 -150v-313h-127v293q0 57 -20 81.5t-60 24.5q-88 0 -88 -105v-294h-128zM62 876h106l108 -142h-114l-47 65l-47 -65h-114z" />
    <glyph glyph-name="Hbar" unicode="&#x126;" horiz-adv-x="672" 
d="M216 690v-97h239v97h140v-97h87v-125h-87v-468h-140v298h-239v-298h-140v468h-86v125h86v97h140zM216 416h239v52h-239v-52z" />
    <glyph glyph-name="hbar" unicode="&#x127;" horiz-adv-x="529" 
d="M-26 538v105h80v47h128v-47h131v-105h-131v-77q36 48 112 48q83 0 133 -46t50 -150v-313h-127v293q0 57 -20 81.5t-60 24.5q-88 0 -88 -105v-294h-128v538h-80z" />
    <glyph glyph-name="Imacron" unicode="&#x12a;" horiz-adv-x="296" 
d="M218 690v-690h-140v690h140zM-12 744v112h322v-112h-322z" />
    <glyph glyph-name="imacron" unicode="&#x12b;" horiz-adv-x="260" 
d="M66 0v500h128v-500h-128zM-16 573v111h283v-111h-283z" />
    <glyph glyph-name="Iogonek" unicode="&#x12e;" horiz-adv-x="296" 
d="M218 690v-690q-17 -15 -24.5 -22.5t-14 -18t-6.5 -20.5q0 -22 27 -22q9 0 19 2l15 -65q-16 -4 -48 -4q-45 0 -77.5 18.5t-32.5 57.5q0 42 35 74h-33v690h140z" />
    <glyph glyph-name="iogonek" unicode="&#x12f;" horiz-adv-x="260" 
d="M66 0v500h128v-500q-17 -15 -24.5 -22.5t-14 -18t-6.5 -20.5q0 -22 27 -22q9 0 19 2l15 -65q-16 -4 -48 -4q-45 0 -77.5 18.5t-32.5 57.5q0 42 35 74h-21zM61 566v124h138v-124h-138z" />
    <glyph glyph-name="Idotaccent" unicode="&#x130;" horiz-adv-x="296" 
d="M218 690v-690h-140v690h140zM78 759v110h141v-110h-141z" />
    <glyph glyph-name="dotlessi" unicode="&#x131;" horiz-adv-x="260" 
d="M66 0v500h128v-500h-128z" />
    <glyph glyph-name="Jcircumflex" unicode="&#x134;" horiz-adv-x="512" 
d="M-9 94l116 65q35 -50 94 -50q53 0 78 34.5t25 121.5v425h140v-425q0 -144 -60 -209t-174 -65q-147 0 -219 103zM325 879h105l138 -142h-133l-58 61l-57 -61h-133z" />
    <glyph glyph-name="jcircumflex" unicode="&#x135;" horiz-adv-x="251" 
d="M194 500v-527q0 -93 -45 -128t-149 -35v110q38 0 52.5 17t14.5 54v509h127zM74 710h106l108 -142h-114l-47 65l-47 -65h-114z" />
    <glyph glyph-name="Kcommaaccent" unicode="&#x136;" horiz-adv-x="645" 
d="M633 0h-167l-176 291l-82 -108v-183h-140v690h140v-298l218 298h166l-211 -279zM393 -51v-129l-137 -117v246h137z" />
    <glyph glyph-name="kcommaaccent" unicode="&#x137;" horiz-adv-x="502" 
d="M319 500h152l-173 -209l202 -291h-150l-137 188l-34 -42v-146h-128v690h128v-372zM329 -51v-129l-137 -117v246h137z" />
    <glyph glyph-name="Lacute" unicode="&#x139;" horiz-adv-x="504" 
d="M208 690v-572h290v-118h-430v690h140zM84 742l80 129h147l-103 -129h-124z" />
    <glyph glyph-name="lacute" unicode="&#x13a;" horiz-adv-x="285" 
d="M51 160v530h128v-501q0 -42 15.5 -60.5t54.5 -18.5v-110q-105 0 -151.5 34.5t-46.5 125.5zM54 723l70 158h143l-91 -158h-122z" />
    <glyph glyph-name="Lcommaaccent" unicode="&#x13b;" horiz-adv-x="504" 
d="M208 690v-572h290v-118h-430v690h140zM352 -51v-129l-137 -117v246h137z" />
    <glyph glyph-name="lcommaaccent" unicode="&#x13c;" horiz-adv-x="285" 
d="M51 160v530h128v-501q0 -42 15.5 -60.5t54.5 -18.5v-110q-105 0 -151.5 34.5t-46.5 125.5zM223 -51v-129l-137 -117v246h137z" />
    <glyph glyph-name="Lcaron" unicode="&#x13d;" horiz-adv-x="504" 
d="M208 690v-572h290v-118h-430v690h140zM441 706v-165l-134 -114v279h134z" />
    <glyph glyph-name="lcaron" unicode="&#x13e;" horiz-adv-x="281" 
d="M51 160v530h128v-501q0 -42 15.5 -60.5t54.5 -18.5v-110q-105 0 -151.5 34.5t-46.5 125.5zM359 689v-129l-137 -117v246h137z" />
    <glyph glyph-name="Ldot" unicode="&#x13f;" horiz-adv-x="504" 
d="M208 690v-572h290v-118h-430v690h140zM321 326v124h138v-124h-138z" />
    <glyph glyph-name="ldot" unicode="&#x140;" horiz-adv-x="367" 
d="M51 160v530h128v-501q0 -42 15.5 -60.5t54.5 -18.5v-110q-105 0 -151.5 34.5t-46.5 125.5zM224 353v110h141v-110h-141z" />
    <glyph glyph-name="Lslash" unicode="&#x141;" horiz-adv-x="538" 
d="M241 690v-192l94 75l71 -90l-165 -132v-233h290v-118h-430v239l-57 -45l-71 90l128 102v304h140z" />
    <glyph glyph-name="lslash" unicode="&#x142;" horiz-adv-x="294" 
d="M30 236l-40 60l91 62v332h128v-243l54 37l40 -59l-94 -65v-171q0 -42 15.5 -60.5t54.5 -18.5v-110q-105 0 -151.5 34.5t-46.5 125.5v111z" />
    <glyph glyph-name="Nacute" unicode="&#x143;" horiz-adv-x="656" 
d="M454 690h133v-690h-117l-269 427v-427h-133v690h116l270 -433v433zM262 742l80 129h147l-103 -129h-124z" />
    <glyph glyph-name="nacute" unicode="&#x144;" horiz-adv-x="526" 
d="M51 0v500h125v-42q39 51 115 51q83 0 133 -46t50 -150v-313h-127v293q0 57 -20 81.5t-60 24.5q-88 0 -88 -105v-294h-128zM191 567l70 158h143l-91 -158h-122z" />
    <glyph glyph-name="Ncommaaccent" unicode="&#x145;" horiz-adv-x="656" 
d="M454 690h133v-690h-117l-269 427v-427h-133v690h116l270 -433v433zM401 -51v-129l-137 -117v246h137z" />
    <glyph glyph-name="ncommaaccent" unicode="&#x146;" horiz-adv-x="526" 
d="M51 0v500h125v-42q39 51 115 51q83 0 133 -46t50 -150v-313h-127v293q0 57 -20 81.5t-60 24.5q-88 0 -88 -105v-294h-128zM334 -51v-129l-137 -117v246h137z" />
    <glyph glyph-name="Ncaron" unicode="&#x147;" horiz-adv-x="656" 
d="M454 690h133v-690h-117l-269 427v-427h-133v690h116l270 -433v433zM380 737h-105l-138 142h133l57 -61l58 61h133z" />
    <glyph glyph-name="ncaron" unicode="&#x148;" horiz-adv-x="526" 
d="M51 0v500h125v-42q39 51 115 51q83 0 133 -46t50 -150v-313h-127v293q0 57 -20 81.5t-60 24.5q-88 0 -88 -105v-294h-128zM316 568h-106l-108 142h114l47 -65l47 65h114z" />
    <glyph glyph-name="Omacron" unicode="&#x14c;" horiz-adv-x="623" 
d="M576 296q0 -153 -71.5 -229t-193.5 -76t-193 76t-71 229v98q0 154 71 229.5t193 75.5q123 0 194 -75.5t71 -229.5v-98zM187 394v-98q0 -187 124 -187q125 0 125 187v98q0 187 -125 187q-124 0 -124 -187zM151 744v112h322v-112h-322z" />
    <glyph glyph-name="omacron" unicode="&#x14d;" horiz-adv-x="499" 
d="M465 281v-60q0 -107 -53.5 -168.5t-162.5 -61.5q-106 0 -161 61t-55 169v60q0 112 56 170t160 58q105 0 160.5 -58t55.5 -170zM249 99q89 0 89 126v52q0 124 -89 124t-89 -124v-52q0 -60 19.5 -93t69.5 -33zM108 573v111h283v-111h-283z" />
    <glyph glyph-name="Ohungarumlaut" unicode="&#x150;" horiz-adv-x="623" 
d="M576 296q0 -153 -71.5 -229t-193.5 -76t-193 76t-71 229v98q0 154 71 229.5t193 75.5q123 0 194 -75.5t71 -229.5v-98zM187 394v-98q0 -187 124 -187q125 0 125 187v98q0 187 -125 187q-124 0 -124 -187zM130 742l80 129h148l-103 -129h-125zM334 742l90 129h147
l-113 -129h-124z" />
    <glyph glyph-name="ohungarumlaut" unicode="&#x151;" horiz-adv-x="499" 
d="M465 281v-60q0 -107 -53.5 -168.5t-162.5 -61.5q-106 0 -161 61t-55 169v60q0 112 56 170t160 58q105 0 160.5 -58t55.5 -170zM249 99q89 0 89 126v52q0 124 -89 124t-89 -124v-52q0 -60 19.5 -93t69.5 -33zM263 567l90 158h144l-111 -158h-123zM89 567l70 158h143
l-91 -158h-122z" />
    <glyph glyph-name="OE" unicode="&#x152;" horiz-adv-x="896" 
d="M866 690v-119h-290v-155h260v-118h-260v-180h290v-118h-430v24q-48 -33 -125 -33q-122 0 -193 76t-71 229v98q0 154 71 229.5t193 75.5q77 0 125 -33v24h430zM187 394v-98q0 -187 124 -187q125 0 125 177v118q0 177 -125 177q-124 0 -124 -187z" />
    <glyph glyph-name="oe" unicode="&#x153;" horiz-adv-x="791" 
d="M648 142l95 -66q-26 -44 -68.5 -64.5t-116.5 -20.5q-98 0 -153 67q-51 -67 -156 -67q-104 0 -160 60.5t-56 165.5v68q0 107 56 165.5t160 58.5q102 0 153 -63q51 63 148 63q98 0 149 -59.5t51 -170.5v-63h-285q0 -117 94 -117q36 0 54.5 10t34.5 33zM249 99q89 0 89 118
v68q0 116 -89 116t-89 -116v-68q0 -118 89 -118zM544 401q-71 0 -79 -94h157q-5 94 -78 94z" />
    <glyph glyph-name="Racute" unicode="&#x154;" horiz-adv-x="617" 
d="M598 0h-154l-124 271h-112v-271h-140v690h247q122 0 190 -54t68 -157q0 -136 -118 -185zM208 389h94q67 0 99 19.5t32 70.5t-32.5 71.5t-98.5 20.5h-94v-182zM208 742l80 129h147l-103 -129h-124z" />
    <glyph glyph-name="racute" unicode="&#x155;" horiz-adv-x="410" 
d="M420 431l-98 -70q-26 38 -63 38t-58.5 -27t-21.5 -78v-294h-128v500h125v-42q35 51 109 51q90 0 135 -78zM136 567l70 158h143l-91 -158h-122z" />
    <glyph glyph-name="Rcommaaccent" unicode="&#x156;" horiz-adv-x="617" 
d="M598 0h-154l-124 271h-112v-271h-140v690h247q122 0 190 -54t68 -157q0 -136 -118 -185zM208 389h94q67 0 99 19.5t32 70.5t-32.5 71.5t-98.5 20.5h-94v-182zM389 -51v-129l-137 -117v246h137z" />
    <glyph glyph-name="rcommaaccent" unicode="&#x157;" horiz-adv-x="410" 
d="M420 431l-98 -70q-26 38 -63 38t-58.5 -27t-21.5 -78v-294h-128v500h125v-42q35 51 109 51q90 0 135 -78zM185 -51v-129l-137 -117v246h137z" />
    <glyph glyph-name="Rcaron" unicode="&#x158;" horiz-adv-x="617" 
d="M598 0h-154l-124 271h-112v-271h-140v690h247q122 0 190 -54t68 -157q0 -136 -118 -185zM208 389h94q67 0 99 19.5t32 70.5t-32.5 71.5t-98.5 20.5h-94v-182zM355 737h-105l-138 142h133l57 -61l58 61h133z" />
    <glyph glyph-name="rcaron" unicode="&#x159;" horiz-adv-x="410" 
d="M420 431l-98 -70q-26 38 -63 38t-58.5 -27t-21.5 -78v-294h-128v500h125v-42q35 51 109 51q90 0 135 -78zM285 568h-106l-108 142h114l47 -65l47 65h114z" />
    <glyph glyph-name="Sacute" unicode="&#x15a;" horiz-adv-x="575" 
d="M532 586l-105 -75q-23 37 -54 53.5t-82 16.5q-47 0 -72 -20t-25 -56q0 -39 31.5 -61t104.5 -40q111 -28 160 -75.5t49 -136.5t-60.5 -145t-177.5 -56q-180 0 -266 113l107 74q29 -36 63.5 -52.5t86.5 -16.5q107 0 107 77q0 37 -29.5 60t-111.5 44q-104 27 -154 79
t-50 136q0 87 59 140.5t177 53.5q169 0 242 -113zM215 742l80 129h147l-103 -129h-124z" />
    <glyph glyph-name="sacute" unicode="&#x15b;" horiz-adv-x="464" 
d="M419 426l-94 -67q-18 21 -39 30.5t-59 9.5q-63 0 -63 -39q0 -21 19 -32t61 -17q94 -15 139.5 -53.5t45.5 -111.5t-50.5 -114t-145.5 -41q-76 0 -125.5 19.5t-81.5 63.5l98 70q16 -22 39.5 -32.5t67.5 -10.5q71 0 71 41q0 23 -18 33t-67 18q-180 29 -180 162q0 72 50 113
t143 41q138 0 189 -83zM154 567l70 158h143l-91 -158h-122z" />
    <glyph glyph-name="Scircumflex" unicode="&#x15c;" horiz-adv-x="575" 
d="M532 586l-105 -75q-23 37 -54 53.5t-82 16.5q-47 0 -72 -20t-25 -56q0 -39 31.5 -61t104.5 -40q111 -28 160 -75.5t49 -136.5t-60.5 -145t-177.5 -56q-180 0 -266 113l107 74q29 -36 63.5 -52.5t86.5 -16.5q107 0 107 77q0 37 -29.5 60t-111.5 44q-104 27 -154 79
t-50 136q0 87 59 140.5t177 53.5q169 0 242 -113zM242 879h105l138 -142h-133l-58 61l-57 -61h-133z" />
    <glyph glyph-name="scircumflex" unicode="&#x15d;" horiz-adv-x="464" 
d="M419 426l-94 -67q-18 21 -39 30.5t-59 9.5q-63 0 -63 -39q0 -21 19 -32t61 -17q94 -15 139.5 -53.5t45.5 -111.5t-50.5 -114t-145.5 -41q-76 0 -125.5 19.5t-81.5 63.5l98 70q16 -22 39.5 -32.5t67.5 -10.5q71 0 71 41q0 23 -18 33t-67 18q-180 29 -180 162q0 72 50 113
t143 41q138 0 189 -83zM176 710h106l108 -142h-114l-47 65l-47 -65h-114z" />
    <glyph glyph-name="Scedilla" unicode="&#x15e;" horiz-adv-x="575" 
d="M241 -72l13 65q-144 12 -219 111l107 74q29 -36 63.5 -52.5t86.5 -16.5q107 0 107 77q0 37 -29.5 60t-111.5 44q-104 27 -154 79t-50 136q0 87 59 140.5t177 53.5q169 0 242 -113l-105 -75q-23 37 -54 53.5t-82 16.5q-47 0 -72 -20t-25 -56q0 -39 31.5 -61t104.5 -40
q111 -28 160 -75.5t49 -136.5q0 -82 -52 -136.5t-153 -62.5l-4 -15q53 -20 53 -72q0 -40 -33 -63t-86 -23q-30 0 -46 4l15 65q12 -2 19 -2q33 0 33 21q0 20 -44 20z" />
    <glyph glyph-name="scedilla" unicode="&#x15f;" horiz-adv-x="464" 
d="M182 -72l13 64q-116 9 -169 82l98 70q16 -22 39.5 -32.5t67.5 -10.5q71 0 71 41q0 23 -18 33t-67 18q-180 29 -180 162q0 72 50 113t143 41q138 0 189 -83l-94 -67q-18 21 -39 30.5t-59 9.5q-63 0 -63 -39q0 -21 19 -32t61 -17q94 -15 139.5 -53.5t45.5 -111.5
q0 -65 -39.5 -105t-114.5 -48l-4 -15q52 -20 52 -72q0 -40 -32.5 -63t-85.5 -23q-30 0 -46 4l15 65q12 -2 19 -2q33 0 33 21q0 20 -44 20z" />
    <glyph glyph-name="Scaron" unicode="&#x160;" horiz-adv-x="575" 
d="M532 586l-105 -75q-23 37 -54 53.5t-82 16.5q-47 0 -72 -20t-25 -56q0 -39 31.5 -61t104.5 -40q111 -28 160 -75.5t49 -136.5t-60.5 -145t-177.5 -56q-180 0 -266 113l107 74q29 -36 63.5 -52.5t86.5 -16.5q107 0 107 77q0 37 -29.5 60t-111.5 44q-104 27 -154 79
t-50 136q0 87 59 140.5t177 53.5q169 0 242 -113zM340 737h-105l-138 142h133l57 -61l58 61h133z" />
    <glyph glyph-name="scaron" unicode="&#x161;" horiz-adv-x="464" 
d="M419 426l-94 -67q-18 21 -39 30.5t-59 9.5q-63 0 -63 -39q0 -21 19 -32t61 -17q94 -15 139.5 -53.5t45.5 -111.5t-50.5 -114t-145.5 -41q-76 0 -125.5 19.5t-81.5 63.5l98 70q16 -22 39.5 -32.5t67.5 -10.5q71 0 71 41q0 23 -18 33t-67 18q-180 29 -180 162q0 72 50 113
t143 41q138 0 189 -83zM282 568h-106l-108 142h114l47 -65l47 65h114z" />
    <glyph glyph-name="Tcedilla" unicode="&#x162;" horiz-adv-x="536" 
d="M211 -72l15 72h-28v571h-190v119h520v-119h-190v-571h-32l-6 -22q53 -20 53 -72q0 -40 -33 -63t-86 -23q-30 0 -46 4l15 65q12 -2 19 -2q33 0 33 21q0 20 -44 20z" />
    <glyph glyph-name="tcedilla" unicode="&#x163;" horiz-adv-x="331" 
d="M156 -72l16 79q-50 11 -72 47t-22 109v229h-64v108h64v110h127v-110h98v-108h-98v-209q0 -39 11.5 -55t45.5 -16h41v-112h-52l-6 -22q52 -20 52 -72q0 -40 -32.5 -63t-85.5 -23q-30 0 -46 4l15 65q12 -2 19 -2q33 0 33 21q0 20 -44 20z" />
    <glyph glyph-name="Tcaron" unicode="&#x164;" horiz-adv-x="536" 
d="M8 690h520v-119h-190v-571h-140v571h-190v119zM321 737h-105l-138 142h133l57 -61l58 61h133z" />
    <glyph glyph-name="tcaron" unicode="&#x165;" horiz-adv-x="367" 
d="M14 392v108h64v110h127v-110h98v-108h-98v-209q0 -39 11.5 -55t45.5 -16h41v-112h-54q-94 0 -132.5 34.5t-38.5 128.5v229h-64zM459 689v-129l-137 -117v246h137z" />
    <glyph glyph-name="Umacron" unicode="&#x16a;" horiz-adv-x="666" 
d="M458 690h140v-410q0 -146 -72 -217.5t-193 -71.5t-193 71t-72 217v411h140v-411q0 -88 30 -129t95 -41t95 41t30 129v411zM172 744v112h322v-112h-322z" />
    <glyph glyph-name="umacron" unicode="&#x16b;" horiz-adv-x="526" 
d="M474 500v-500h-125v42q-17 -27 -42 -39t-72 -12q-83 0 -133.5 46.5t-50.5 150.5v312h128v-293q0 -57 20 -81.5t61 -24.5q87 0 87 105v294h127zM122 573v111h283v-111h-283z" />
    <glyph glyph-name="Ubreve" unicode="&#x16c;" horiz-adv-x="666" 
d="M458 690h140v-410q0 -146 -72 -217.5t-193 -71.5t-193 71t-72 217v411h140v-411q0 -88 30 -129t95 -41t95 41t30 129v411zM413 879h112q0 -73 -53 -112.5t-138 -39.5t-138 39.5t-53 112.5h111q11 -54 80 -54t79 54z" />
    <glyph glyph-name="ubreve" unicode="&#x16d;" horiz-adv-x="526" 
d="M474 500v-500h-125v42q-17 -27 -42 -39t-72 -12q-83 0 -133.5 46.5t-50.5 150.5v312h128v-293q0 -57 20 -81.5t61 -24.5q87 0 87 105v294h127zM320 690h92q-2 -63 -41 -97.5t-108 -34.5t-108.5 34.5t-41.5 97.5h93q7 -53 57 -53t57 53z" />
    <glyph glyph-name="Uring" unicode="&#x16e;" horiz-adv-x="666" 
d="M458 690h140v-410q0 -146 -72 -217.5t-193 -71.5t-193 71t-72 217v411h140v-411q0 -88 30 -129t95 -41t95 41t30 129v411zM218 800q0 45 32.5 72t82.5 27q52 0 84.5 -27t32.5 -72q0 -44 -32.5 -71t-84.5 -27q-50 0 -82.5 27t-32.5 71zM297 800q0 -31 36 -31q37 0 37 31
t-37 31q-36 0 -36 -31z" />
    <glyph glyph-name="uring" unicode="&#x16f;" horiz-adv-x="526" 
d="M474 500v-500h-125v42q-17 -27 -42 -39t-72 -12q-83 0 -133.5 46.5t-50.5 150.5v312h128v-293q0 -57 20 -81.5t61 -24.5q87 0 87 105v294h127zM140 646q0 48 34 79t89 31t89 -31t34 -79t-34 -78.5t-89 -30.5t-89 30.5t-34 78.5zM226 646q0 -20 10 -32t27 -12q37 0 37 44
q0 43 -37 43t-37 -43z" />
    <glyph glyph-name="Uhungarumlaut" unicode="&#x170;" horiz-adv-x="666" 
d="M458 690h140v-410q0 -146 -72 -217.5t-193 -71.5t-193 71t-72 217v411h140v-411q0 -88 30 -129t95 -41t95 41t30 129v411zM159 742l80 129h148l-103 -129h-125zM363 742l90 129h147l-113 -129h-124z" />
    <glyph glyph-name="uhungarumlaut" unicode="&#x171;" horiz-adv-x="526" 
d="M474 500v-500h-125v42q-17 -27 -42 -39t-72 -12q-83 0 -133.5 46.5t-50.5 150.5v312h128v-293q0 -57 20 -81.5t61 -24.5q87 0 87 105v294h127zM284 567l90 158h144l-111 -158h-123zM110 567l70 158h143l-91 -158h-122z" />
    <glyph glyph-name="Uogonek" unicode="&#x172;" horiz-adv-x="666" 
d="M458 690h140v-410q0 -128 -55.5 -198.5t-151.5 -85.5q-22 -20 -31 -31.5t-9 -25.5q0 -22 27 -22q9 0 19 2l15 -65q-16 -4 -48 -4q-45 0 -77.5 18.5t-32.5 57.5q0 37 29 68q-100 13 -157.5 84t-57.5 201v411h140v-411q0 -88 30 -129t95 -41t95 41t30 129v411z" />
    <glyph glyph-name="uogonek" unicode="&#x173;" horiz-adv-x="526" 
d="M474 500v-497l1 -3q-17 -15 -24.5 -22.5t-14 -18t-6.5 -20.5q0 -22 27 -22q9 0 19 2l15 -65q-16 -4 -48 -4q-45 0 -77.5 18.5t-32.5 57.5q0 42 35 74h-19v42q-17 -27 -42 -39t-72 -12q-83 0 -133.5 46.5t-50.5 150.5v312h128v-293q0 -57 20 -81.5t61 -24.5q87 0 87 105
v294h127z" />
    <glyph glyph-name="Ydieresis" unicode="&#x178;" horiz-adv-x="583" 
d="M6 690h162l123 -257l124 257h161l-215 -408v-282h-140v282zM128 752v117h124v-117h-124zM331 752v117h124v-117h-124z" />
    <glyph glyph-name="Zacute" unicode="&#x179;" horiz-adv-x="519" 
d="M30 690h456v-92l-278 -480h288v-118h-466v92l280 479h-280v119zM188 742l80 129h147l-103 -129h-124z" />
    <glyph glyph-name="zacute" unicode="&#x17a;" horiz-adv-x="449" 
d="M30 89l220 303h-217v108h382v-89l-217 -303h224v-108h-392v89zM163 567l70 158h143l-91 -158h-122z" />
    <glyph glyph-name="Zdotaccent" unicode="&#x17b;" horiz-adv-x="519" 
d="M30 690h456v-92l-278 -480h288v-118h-466v92l280 479h-280v119zM195 759v110h141v-110h-141z" />
    <glyph glyph-name="zdotaccent" unicode="&#x17c;" horiz-adv-x="449" 
d="M30 89l220 303h-217v108h382v-89l-217 -303h224v-108h-392v89zM163 566v124h138v-124h-138z" />
    <glyph glyph-name="Zcaron" unicode="&#x17d;" horiz-adv-x="519" 
d="M30 690h456v-92l-278 -480h288v-118h-466v92l280 479h-280v119zM318 737h-105l-138 142h133l57 -61l58 61h133z" />
    <glyph glyph-name="zcaron" unicode="&#x17e;" horiz-adv-x="449" 
d="M30 89l220 303h-217v108h382v-89l-217 -303h224v-108h-392v89zM288 568h-106l-108 142h114l47 -65l47 65h114z" />
    <glyph glyph-name="uni018F" unicode="&#x18f;" horiz-adv-x="602" 
d="M47 296v73h378v25q0 187 -124 187q-50 0 -79.5 -28t-38.5 -77h-134q15 107 79.5 165t172.5 58q122 0 193 -77t71 -238v-88q0 -153 -71 -229t-193 -76q-121 0 -187.5 75.5t-66.5 229.5zM301 109q55 0 85 33t37 108h-242q5 -70 32.5 -105.5t87.5 -35.5z" />
    <glyph glyph-name="florin" unicode="&#x192;" horiz-adv-x="540" 
d="M121 500h64v27q0 93 42.5 128t137.5 35h37v-119h-21q-34 0 -46.5 -15.5t-12.5 -50.5v-5h80v-119h-80v-408q0 -92 -49.5 -127.5t-154.5 -35.5v119q38 0 52.5 16.5t14.5 53.5v382h-64v119z" />
    <glyph glyph-name="uni01DD" unicode="&#x1dd;" 
d="M143 358l-95 66q49 85 183 85q108 0 165 -62.5t57 -163.5v-68q0 -111 -53.5 -167.5t-152.5 -56.5q-206 0 -206 234v57h285q-2 119 -94 119q-37 0 -55 -10t-34 -33zM246 99q72 0 80 92h-157q4 -92 77 -92z" />
    <glyph glyph-name="Scommaaccent" unicode="&#x218;" horiz-adv-x="575" 
d="M532 586l-105 -75q-23 37 -54 53.5t-82 16.5q-47 0 -72 -20t-25 -56q0 -39 31.5 -61t104.5 -40q111 -28 160 -75.5t49 -136.5t-60.5 -145t-177.5 -56q-180 0 -266 113l107 74q29 -36 63.5 -52.5t86.5 -16.5q107 0 107 77q0 37 -29.5 60t-111.5 44q-104 27 -154 79
t-50 136q0 87 59 140.5t177 53.5q169 0 242 -113zM372 -51v-129l-137 -117v246h137z" />
    <glyph glyph-name="scommaaccent" unicode="&#x219;" horiz-adv-x="464" 
d="M419 426l-94 -67q-18 21 -39 30.5t-59 9.5q-63 0 -63 -39q0 -21 19 -32t61 -17q94 -15 139.5 -53.5t45.5 -111.5t-50.5 -114t-145.5 -41q-76 0 -125.5 19.5t-81.5 63.5l98 70q16 -22 39.5 -32.5t67.5 -10.5q71 0 71 41q0 23 -18 33t-67 18q-180 29 -180 162q0 72 50 113
t143 41q138 0 189 -83zM306 -51v-129l-137 -117v246h137z" />
    <glyph glyph-name="Tcommaaccent" unicode="&#x21a;" horiz-adv-x="536" 
d="M8 690h520v-119h-190v-571h-140v571h-190v119zM337 -51v-129l-137 -117v246h137z" />
    <glyph glyph-name="tcommaaccent" unicode="&#x21b;" horiz-adv-x="331" 
d="M14 392v108h64v110h127v-110h98v-108h-98v-209q0 -39 11.5 -55t45.5 -16h41v-112h-54q-94 0 -132.5 34.5t-38.5 128.5v229h-64zM264 -51v-129l-137 -117v246h137z" />
    <glyph glyph-name="uni0237" unicode="&#x237;" horiz-adv-x="251" 
d="M194 500v-527q0 -93 -45 -128t-149 -35v110q38 0 52.5 17t14.5 54v509h127z" />
    <glyph glyph-name="uni0259" unicode="&#x259;" 
d="M143 358l-95 66q49 85 183 85q108 0 165 -62.5t57 -163.5v-68q0 -111 -53.5 -167.5t-152.5 -56.5q-206 0 -206 234v57h285q-2 119 -94 119q-37 0 -55 -10t-34 -33zM246 99q72 0 80 92h-157q4 -92 77 -92z" />
    <glyph glyph-name="afii57929" unicode="&#x2bc;" horiz-adv-x="185" 
d="M171 500v-146l-136 -117v263h136z" />
    <glyph glyph-name="circumflex" unicode="&#x2c6;" horiz-adv-x="414" 
d="M154 710h106l108 -142h-114l-47 65l-47 -65h-114z" />
    <glyph glyph-name="caron" unicode="&#x2c7;" horiz-adv-x="414" 
d="M260 568h-106l-108 142h114l47 -65l47 65h114z" />
    <glyph glyph-name="breve" unicode="&#x2d8;" horiz-adv-x="412" 
d="M263 690h92q-2 -63 -41 -97.5t-108 -34.5t-108.5 34.5t-41.5 97.5h93q7 -53 57 -53t57 53z" />
    <glyph glyph-name="dotaccent" unicode="&#x2d9;" horiz-adv-x="329" 
d="M95 566v124h138v-124h-138z" />
    <glyph glyph-name="ring" unicode="&#x2da;" horiz-adv-x="386" 
d="M70 646q0 48 34 79t89 31t89 -31t34 -79t-34 -78.5t-89 -30.5t-89 30.5t-34 78.5zM156 646q0 -20 10 -32t27 -12q37 0 37 44q0 43 -37 43t-37 -43z" />
    <glyph glyph-name="ogonek" unicode="&#x2db;" horiz-adv-x="343" 
d="M215 55l19 -55q-17 -15 -24.5 -22.5t-14 -18t-6.5 -20.5q0 -22 27 -22q9 0 19 2l15 -65q-16 -4 -48 -4q-45 0 -77.5 18.5t-32.5 57.5q0 40 31 70t92 59z" />
    <glyph glyph-name="tilde" unicode="&#x2dc;" horiz-adv-x="437" 
d="M279 569q-27 0 -64 14.5t-53 14.5q-30 0 -53 -27l-67 64q48 61 117 61q24 0 62 -14.5t55 -14.5q27 0 51 27l67 -64q-47 -61 -115 -61z" />
    <glyph glyph-name="hungarumlaut" unicode="&#x2dd;" horiz-adv-x="505" 
d="M222 567l90 158h144l-111 -158h-123zM48 567l70 158h143l-91 -158h-122z" />
    <glyph glyph-name="acutecomb" unicode="&#x301;" horiz-adv-x="0" 
d="M-314 567l70 158h143l-91 -158h-122z" />
    <glyph glyph-name="uni0394" unicode="&#x2206;" horiz-adv-x="590" 
d="M570 0h-550l202 690h146zM394 118l-99 389l-100 -389h199z" />
    <glyph glyph-name="uni0394" unicode="&#x394;" horiz-adv-x="590" 
d="M570 0h-550l202 690h146zM394 118l-99 389l-100 -389h199z" />
    <glyph glyph-name="uni03A9" unicode="&#x2126;" horiz-adv-x="629" 
d="M516 118h64v-118h-213v118q38 21 55.5 60t17.5 122v94q0 187 -125 187t-125 -187v-94q0 -84 17 -123.5t55 -58.5v-118h-212v118h64q-34 35 -49 75t-15 107v94q0 154 71 229.5t194 75.5q122 0 193.5 -75.5t71.5 -229.5v-94q0 -66 -15 -106.5t-49 -75.5z" />
    <glyph glyph-name="uni03A9" unicode="&#x3a9;" horiz-adv-x="629" 
d="M516 118h64v-118h-213v118q38 21 55.5 60t17.5 122v94q0 187 -125 187t-125 -187v-94q0 -84 17 -123.5t55 -58.5v-118h-212v118h64q-34 35 -49 75t-15 107v94q0 154 71 229.5t194 75.5q122 0 193.5 -75.5t71.5 -229.5v-94q0 -66 -15 -106.5t-49 -75.5z" />
    <glyph glyph-name="pi" unicode="&#x3c0;" horiz-adv-x="565" 
d="M340 160v232h-158v-392h-121v392h-74v108h550v-108h-70v-203q0 -42 15.5 -60.5t54.5 -18.5v-110q-105 0 -151 34.5t-46 125.5z" />
    <glyph glyph-name="afii10023" unicode="&#x401;" horiz-adv-x="527" 
d="M68 690h430v-119h-290v-155h260v-118h-260v-180h290v-118h-430v690zM119 752v117h124v-117h-124zM322 752v117h124v-117h-124z" />
    <glyph glyph-name="afii10051" unicode="&#x402;" horiz-adv-x="727" 
d="M-2 690h520v-119h-190v-186q19 17 59 32t88 15q112 0 163.5 -52.5t51.5 -161.5v-61q0 -52 -17 -85.5t-49.5 -48t-61.5 -19t-70 -4.5h-23v112h23q32 0 45 15.5t13 49.5v32q0 57 -26 80.5t-82 23.5q-74 0 -114 -54v-259h-140v571h-190v119z" />
    <glyph glyph-name="afii10052" unicode="&#x403;" horiz-adv-x="491" 
d="M491 690v-119h-283v-571h-140v690h423zM204 742l80 129h147l-103 -129h-124z" />
    <glyph glyph-name="afii10053" unicode="&#x404;" horiz-adv-x="585" 
d="M560 476h-134q-19 105 -118 105q-122 0 -125 -175h208v-118h-208q3 -179 125 -179q51 0 79 26t39 79h134q-35 -223 -252 -223q-122 0 -193.5 76t-71.5 229v98q0 154 71 229.5t194 75.5q105 0 170 -56t82 -167z" />
    <glyph glyph-name="afii10054" unicode="&#x405;" horiz-adv-x="575" 
d="M532 586l-105 -75q-23 37 -54 53.5t-82 16.5q-47 0 -72 -20t-25 -56q0 -39 31.5 -61t104.5 -40q111 -28 160 -75.5t49 -136.5t-60.5 -145t-177.5 -56q-180 0 -266 113l107 74q29 -36 63.5 -52.5t86.5 -16.5q107 0 107 77q0 37 -29.5 60t-111.5 44q-104 27 -154 79
t-50 136q0 87 59 140.5t177 53.5q169 0 242 -113z" />
    <glyph glyph-name="afii10055" unicode="&#x406;" horiz-adv-x="296" 
d="M218 690v-690h-140v690h140zM78 759v110h141v-110h-141z" />
    <glyph glyph-name="afii10056" unicode="&#x407;" horiz-adv-x="296" 
d="M218 690v-690h-140v690h140zM-15 752v117h124v-117h-124zM188 752v117h124v-117h-124z" />
    <glyph glyph-name="afii10057" unicode="&#x408;" horiz-adv-x="512" 
d="M-9 94l116 65q35 -50 94 -50q53 0 78 34.5t25 121.5v425h140v-425q0 -144 -60 -209t-174 -65q-147 0 -219 103z" />
    <glyph glyph-name="afii10058" unicode="&#x409;" horiz-adv-x="977" 
d="M124 690h462v-253h106q131 0 194.5 -60.5t63.5 -158.5q0 -96 -63.5 -157t-194.5 -61h-246v571h-182v-76q0 -167 -7.5 -241.5t-26.5 -124.5q-45 -119 -217 -138v146q71 13 90 64q21 54 21 294v195zM685 319h-99v-201h99q125 0 125 100q0 101 -125 101z" />
    <glyph glyph-name="afii10059" unicode="&#x40a;" horiz-adv-x="979" 
d="M208 690v-274h239v274h140v-253h107q131 0 194.5 -60.5t63.5 -158.5q0 -96 -63.5 -157t-194.5 -61h-247v298h-239v-298h-140v690h140zM686 319h-99v-201h99q126 0 126 100q0 101 -126 101z" />
    <glyph glyph-name="afii10060" unicode="&#x40b;" horiz-adv-x="737" 
d="M8 690h520v-119h-190v-186q19 17 59 32t88 15q112 0 163.5 -52.5t51.5 -161.5v-218h-140v209q0 57 -26 80.5t-82 23.5q-74 0 -114 -54v-259h-140v571h-190v119z" />
    <glyph glyph-name="afii10061" unicode="&#x40c;" horiz-adv-x="623" 
d="M610 0h-166l-177 288h-59v-288h-140v690h140v-284h56l158 284h154l-186 -334zM232 742l80 129h147l-103 -129h-124z" />
    <glyph glyph-name="afii10062" unicode="&#x40e;" horiz-adv-x="579" 
d="M435 690h144l-212 -550q-34 -87 -88 -118t-161 -31v122q56 0 83 10.5t43 40.5l-236 526h155l148 -344zM359 879h128q0 -151 -190 -151q-191 0 -191 151h129q0 -30 13.5 -46t48.5 -16t48.5 16t13.5 46z" />
    <glyph glyph-name="afii10145" unicode="&#x40f;" horiz-adv-x="638" 
d="M396 -130h-126v130h-202v690h140v-572h250v572h140v-690h-202v-130z" />
    <glyph glyph-name="afii10017" unicode="&#x410;" horiz-adv-x="607" 
d="M146 0h-150l240 690h134l240 -690h-149l-42 131h-231zM303 492l-78 -243h156z" />
    <glyph glyph-name="afii10018" unicode="&#x411;" horiz-adv-x="596" 
d="M522 690v-119h-314v-134h107q130 0 194 -60.5t64 -157.5t-64 -158t-194 -61h-247v690h454zM307 319h-99v-201h99q126 0 126 101q0 100 -126 100z" />
    <glyph glyph-name="afii10019" unicode="&#x412;" horiz-adv-x="606" 
d="M68 690h231q252 0 252 -181q0 -102 -91 -147q113 -41 113 -164q0 -87 -61.5 -142.5t-190.5 -55.5h-253v690zM208 299v-181h101q124 0 124 91q0 48 -33 69t-104 21h-88zM208 572v-155h93q110 0 110 79q0 39 -26.5 57.5t-98.5 18.5h-78z" />
    <glyph glyph-name="afii10020" unicode="&#x413;" horiz-adv-x="491" 
d="M491 690v-119h-283v-571h-140v690h423z" />
    <glyph glyph-name="afii10021" unicode="&#x414;" horiz-adv-x="697" 
d="M136 -130h-126v248h44q25 28 45 84q31 101 31 303v185h461v-572h86v-248h-126v130h-415v-130zM228 156q-5 -14 -19 -38h242v453h-181v-66q0 -137 -10 -212t-32 -137z" />
    <glyph glyph-name="afii10022" unicode="&#x415;" horiz-adv-x="527" 
d="M68 690h430v-119h-290v-155h260v-118h-260v-180h290v-118h-430v690z" />
    <glyph glyph-name="afii10024" unicode="&#x416;" horiz-adv-x="908" 
d="M160 0h-157l206 348l-172 342h148l140 -284h59v284h140v-284h58l141 284h148l-172 -342l206 -348h-157l-169 288h-55v-288h-140v288h-55z" />
    <glyph glyph-name="afii10025" unicode="&#x417;" horiz-adv-x="592" 
d="M212 299v118h75q110 0 110 84q0 81 -103 81q-52 0 -80 -21.5t-43 -62.5h-123q9 91 80 146t171 55q101 0 169.5 -48t68.5 -137q0 -98 -90 -151q112 -47 112 -165q0 -95 -69.5 -151t-191.5 -56q-232 0 -271 209h134q19 -48 49.5 -69.5t82.5 -21.5q126 0 126 95t-134 95h-73
z" />
    <glyph glyph-name="afii10026" unicode="&#x418;" horiz-adv-x="676" 
d="M68 690h140v-433l288 433h112v-690h-140v428l-285 -428h-115v690z" />
    <glyph glyph-name="afii10027" unicode="&#x419;" horiz-adv-x="676" 
d="M68 690h140v-433l288 433h112v-690h-140v428l-285 -428h-115v690zM408 879h128q0 -151 -190 -151q-191 0 -191 151h129q0 -30 13.5 -46t48.5 -16t48.5 16t13.5 46z" />
    <glyph glyph-name="afii10028" unicode="&#x41a;" horiz-adv-x="623" 
d="M610 0h-166l-177 288h-59v-288h-140v690h140v-284h56l158 284h154l-186 -334z" />
    <glyph glyph-name="afii10029" unicode="&#x41b;" horiz-adv-x="654" 
d="M124 690h462v-690h-140v571h-182v-76q0 -167 -7.5 -241.5t-26.5 -124.5q-45 -119 -217 -138v146q71 13 90 64q21 54 21 294v195z" />
    <glyph glyph-name="afii10030" unicode="&#x41c;" horiz-adv-x="786" 
d="M199 690l194 -376l192 376h133v-690h-134v428l-150 -304h-85l-148 301v-425h-133v690h131z" />
    <glyph glyph-name="afii10031" unicode="&#x41d;" horiz-adv-x="656" 
d="M208 690v-274h239v274h140v-690h-140v298h-239v-298h-140v690h140z" />
    <glyph glyph-name="afii10032" unicode="&#x41e;" horiz-adv-x="623" 
d="M576 296q0 -153 -71.5 -229t-193.5 -76t-193 76t-71 229v98q0 154 71 229.5t193 75.5q123 0 194 -75.5t71 -229.5v-98zM187 394v-98q0 -187 124 -187q125 0 125 187v98q0 187 -125 187q-124 0 -124 -187z" />
    <glyph glyph-name="afii10033" unicode="&#x41f;" horiz-adv-x="666" 
d="M68 690h530v-690h-140v571h-250v-571h-140v690z" />
    <glyph glyph-name="afii10034" unicode="&#x420;" horiz-adv-x="590" 
d="M315 243h-107v-243h-140v690h247q122 0 190 -56t68 -165q0 -108 -68.5 -167t-189.5 -59zM208 361h87q72 0 105 26t33 82q0 102 -138 102h-87v-210z" />
    <glyph glyph-name="afii10035" unicode="&#x421;" horiz-adv-x="594" 
d="M564 476h-134q-21 105 -119 105q-124 0 -124 -187v-98q0 -187 124 -187q51 0 79 25.5t40 79.5h133q-33 -223 -252 -223q-122 0 -193 76t-71 229v98q0 154 71 229.5t193 75.5q105 0 170.5 -56t82.5 -167z" />
    <glyph glyph-name="afii10036" unicode="&#x422;" horiz-adv-x="536" 
d="M8 690h520v-119h-190v-571h-140v571h-190v119z" />
    <glyph glyph-name="afii10037" unicode="&#x423;" horiz-adv-x="579" 
d="M435 690h144l-212 -550q-34 -87 -88 -118t-161 -31v122q56 0 83 10.5t43 40.5l-236 526h155l148 -344z" />
    <glyph glyph-name="afii10038" unicode="&#x424;" horiz-adv-x="786" 
d="M323 640v50h140v-50q280 0 280 -279v-32q0 -279 -280 -279v-50h-140v50q-280 0 -280 279v32q0 279 280 279zM463 522v-354q73 0 106.5 35t33.5 126v32q0 91 -33.5 126t-106.5 35zM323 168v354q-73 0 -106.5 -35t-33.5 -126v-32q0 -91 33.5 -126t106.5 -35z" />
    <glyph glyph-name="afii10039" unicode="&#x425;" horiz-adv-x="592" 
d="M165 0h-152l194 356l-173 334h152l110 -220l111 220h151l-174 -334l195 -356h-151l-132 235z" />
    <glyph glyph-name="afii10040" unicode="&#x426;" horiz-adv-x="714" 
d="M208 690v-572h250v572h140v-572h100v-248h-127v130h-503v690h140z" />
    <glyph glyph-name="afii10041" unicode="&#x427;" horiz-adv-x="598" 
d="M161 690v-203q0 -71 27 -101t92 -30q84 0 110 43v291h140v-690h-140v270q-46 -32 -136 -32q-127 0 -180 58t-53 191v203h140z" />
    <glyph glyph-name="afii10042" unicode="&#x428;" horiz-adv-x="934" 
d="M208 690v-572h189v572h140v-572h189v572h140v-690h-798v690h140z" />
    <glyph glyph-name="afii10043" unicode="&#x429;" horiz-adv-x="982" 
d="M208 690v-572h189v572h140v-572h189v572h140v-572h100v-248h-127v130h-771v690h140z" />
    <glyph glyph-name="afii10044" unicode="&#x42a;" horiz-adv-x="657" 
d="M-27 690h293v-253h107q130 0 194 -61t64 -158q0 -96 -64 -157t-194 -61h-247v571h-153v119zM365 319h-99v-201h99q126 0 126 100q0 101 -126 101z" />
    <glyph glyph-name="afii10045" unicode="&#x42b;" horiz-adv-x="816" 
d="M68 690h140v-253h97q131 0 194.5 -60.5t63.5 -158.5q0 -97 -66 -157.5t-206 -60.5h-223v690zM748 690v-690h-140v690h140zM297 319h-89v-201h89q126 0 126 100q0 101 -126 101z" />
    <glyph glyph-name="afii10046" unicode="&#x42c;" horiz-adv-x="599" 
d="M68 690h140v-253h107q130 0 194 -61t64 -158q0 -96 -64 -157t-194 -61h-247v690zM307 319h-99v-201h99q126 0 126 100q0 101 -126 101z" />
    <glyph glyph-name="afii10047" unicode="&#x42d;" horiz-adv-x="594" 
d="M199 288v118h208q-4 175 -125 175q-99 0 -118 -105h-134q17 111 82 167t170 56q123 0 194 -75.5t71 -229.5v-98q0 -153 -71.5 -229t-193.5 -76q-217 0 -252 223h134q11 -53 39 -79t79 -26q122 0 125 179h-208z" />
    <glyph glyph-name="afii10048" unicode="&#x42e;" horiz-adv-x="842" 
d="M795 306q0 -315 -250 -315q-247 0 -250 307h-87v-298h-140v690h140v-274h87q13 283 250 283q250 0 250 -315v-78zM435 378v-65q0 -107 25 -155.5t85 -48.5q61 0 85.5 48.5t24.5 155.5v65q0 106 -24.5 154.5t-85.5 48.5q-60 0 -85 -48.5t-25 -154.5z" />
    <glyph glyph-name="afii10049" unicode="&#x42f;" horiz-adv-x="614" 
d="M167 0h-154l160 289q-132 46 -132 192q0 103 69 156t192 53h244v-690h-140v271h-96zM312 389h94v182h-94q-67 0 -99 -20.5t-32 -69.5q0 -48 28.5 -70t102.5 -22z" />
    <glyph glyph-name="afii10065" unicode="&#x430;" 
d="M26 148q0 76 51 114t134 38h99v29q0 43 -18 58.5t-71 15.5q-38 0 -58.5 -8t-35.5 -32l-90 63q27 45 72.5 64t123.5 19q103 0 152.5 -39.5t49.5 -141.5v-328h-125v44q-31 -53 -108 -53q-80 0 -128 41t-48 116zM310 187v19h-84q-75 0 -75 -56t73 -56q44 0 65 21.5t21 71.5z
" />
    <glyph glyph-name="afii10066" unicode="&#x431;" horiz-adv-x="502" 
d="M404 723l66 -82q-13 -27 -35 -40t-63 -15l-92 -5q-76 -4 -100 -44q-12 -20 -18 -60q43 32 107 32q98 0 149 -57t51 -167v-68q0 -104 -54 -165t-162 -61q-107 0 -161.5 60.5t-54.5 165.5v65q0 220 44 308q48 95 169 101l100 5q37 2 54 27zM253 99q89 0 89 126v60
q0 116 -89 116t-89 -116v-60q0 -60 19.5 -93t69.5 -33z" />
    <glyph glyph-name="afii10067" unicode="&#x432;" horiz-adv-x="497" 
d="M51 500h200q186 0 186 -127q0 -37 -19.5 -63t-48.5 -38q45 -13 71 -46t26 -80q0 -63 -45.5 -104.5t-146.5 -41.5h-223v500zM179 212v-113h73q77 0 77 56q0 30 -19 43.5t-66 13.5h-65zM179 401v-95h54q67 0 67 47q0 48 -73 48h-48z" />
    <glyph glyph-name="afii10068" unicode="&#x433;" horiz-adv-x="373" 
d="M383 500v-108h-204v-392h-128v500h332z" />
    <glyph glyph-name="afii10069" unicode="&#x434;" horiz-adv-x="567" 
d="M129 -117h-117v225h39q21 17 38 60q22 56 22 212v120h373v-392h66v-225h-116v117h-305v-117zM195 118l-5 -10h167v284h-125v-31q0 -168 -37 -243z" />
    <glyph glyph-name="afii10070" unicode="&#x435;" 
d="M343 142l95 -66q-49 -85 -183 -85q-108 0 -165 62.5t-57 163.5v68q0 111 53.5 167.5t152.5 56.5q206 0 206 -234v-57h-285q2 -119 94 -119q37 0 55 10t34 33zM240 401q-72 0 -80 -92h157q-4 92 -77 92z" />
    <glyph glyph-name="afii10072" unicode="&#x436;" horiz-adv-x="693" 
d="M539 500h133l-105 -243l126 -257h-141l-92 199h-50v-199h-127v199h-50l-92 -199h-141l126 257l-105 243h133l81 -194h48v194h127v-194h47z" />
    <glyph glyph-name="afii10073" unicode="&#x437;" horiz-adv-x="454" 
d="M134 212v94h51q77 0 77 54q0 22 -16.5 35.5t-48.5 13.5q-53 0 -91 -41l-87 61q65 80 195 80q89 0 137 -36t48 -91q0 -78 -72 -113q91 -35 91 -127q0 -69 -52 -110t-153 -41q-142 0 -199 87l82 64q38 -51 108 -51q38 0 57.5 17.5t19.5 44.5q0 59 -99 59h-48z" />
    <glyph glyph-name="afii10074" unicode="&#x438;" horiz-adv-x="532" 
d="M179 500v-273l191 273h110v-500h-127v283l-193 -283h-109v500h128z" />
    <glyph glyph-name="afii10075" unicode="&#x439;" horiz-adv-x="532" 
d="M179 500v-273l191 273h110v-500h-127v283l-193 -283h-109v500h128zM315 687h104q0 -67 -41.5 -98t-112.5 -31t-113 31t-42 98h104q0 -55 51 -55q50 0 50 55z" />
    <glyph glyph-name="afii10076" unicode="&#x43a;" horiz-adv-x="492" 
d="M337 500h140l-137 -242l151 -258h-147l-114 199h-51v-199h-128v500h128v-194h48z" />
    <glyph glyph-name="afii10077" unicode="&#x43b;" horiz-adv-x="519" 
d="M91 500h377v-500h-127v392h-129v-116q0 -74 -6.5 -114.5t-24.5 -76.5q-46 -90 -173 -96v112q51 15 68 60q15 40 15 174v165z" />
    <glyph glyph-name="afii10078" unicode="&#x43c;" horiz-adv-x="636" 
d="M163 500l155 -272l155 272h111v-500h-127v258l-100 -183h-85l-93 180v-255h-128v500h112z" />
    <glyph glyph-name="afii10079" unicode="&#x43d;" horiz-adv-x="515" 
d="M179 500v-190h157v190h128v-500h-128v201h-157v-201h-128v500h128z" />
    <glyph glyph-name="afii10080" unicode="&#x43e;" horiz-adv-x="499" 
d="M465 281v-60q0 -107 -53.5 -168.5t-162.5 -61.5q-106 0 -161 61t-55 169v60q0 112 56 170t160 58q105 0 160.5 -58t55.5 -170zM249 99q89 0 89 126v52q0 124 -89 124t-89 -124v-52q0 -60 19.5 -93t69.5 -33z" />
    <glyph glyph-name="afii10081" unicode="&#x43f;" horiz-adv-x="515" 
d="M51 500h413v-500h-128v392h-157v-392h-128v500z" />
    <glyph glyph-name="afii10082" unicode="&#x440;" horiz-adv-x="517" 
d="M484 285v-68q0 -101 -50.5 -163.5t-144.5 -62.5q-75 0 -110 29v-210h-128v690h128v-33q37 42 111 42q88 0 141 -59t53 -165zM268 99q88 0 88 126v52q0 124 -88 124q-89 0 -89 -113v-63q0 -60 19.5 -93t69.5 -33z" />
    <glyph glyph-name="afii10083" unicode="&#x441;" horiz-adv-x="446" 
d="M343 142l95 -66q-50 -85 -182 -85q-106 0 -164.5 61t-58.5 165v68q0 109 59 166.5t171 57.5q122 0 175 -83l-96 -67q-30 42 -82 42q-100 0 -100 -124v-52q0 -60 21.5 -93t78.5 -33t83 43z" />
    <glyph glyph-name="afii10084" unicode="&#x442;" horiz-adv-x="420" 
d="M0 500h420v-108h-147v-392h-127v392h-146v108z" />
    <glyph glyph-name="afii10085" unicode="&#x443;" horiz-adv-x="479" 
d="M5 500h134l111 -320l100 320h129l-175 -523q-34 -101 -79 -134t-150 -33v114q54 0 78 13.5t39 55.5z" />
    <glyph glyph-name="afii10086" unicode="&#x444;" horiz-adv-x="698" 
d="M413 690v-181q252 0 252 -224v-68q0 -109 -62.5 -167.5t-189.5 -58.5v-181h-128v181q-127 0 -189.5 58.5t-62.5 167.5v68q0 224 252 224v181h128zM160 222q0 -64 29 -93.5t96 -29.5v302q-64 0 -94.5 -27.5t-30.5 -95.5v-56zM537 278q0 68 -30 95.5t-94 27.5v-302
q67 0 95.5 29.5t28.5 93.5v56z" />
    <glyph glyph-name="afii10087" unicode="&#x445;" horiz-adv-x="490" 
d="M484 0h-142l-97 152l-97 -152h-141l164 256l-151 244h141l84 -143l84 143h141l-151 -244z" />
    <glyph glyph-name="afii10088" unicode="&#x446;" horiz-adv-x="546" 
d="M530 -117h-117v117h-362v500h128v-392h157v392h128v-392h66v-225z" />
    <glyph glyph-name="afii10089" unicode="&#x447;" horiz-adv-x="470" 
d="M152 500v-144q0 -49 19 -65.5t52 -16.5q51 0 68 33v193h127v-500h-127v186q-31 -24 -94 -24q-172 0 -172 175v163h127z" />
    <glyph glyph-name="afii10090" unicode="&#x448;" horiz-adv-x="746" 
d="M695 0h-644v500h128v-392h130v392h128v-392h130v392h128v-500z" />
    <glyph glyph-name="afii10091" unicode="&#x449;" horiz-adv-x="778" 
d="M761 -117h-117v117h-593v500h128v-392h130v392h128v-392h130v392h128v-392h66v-225z" />
    <glyph glyph-name="afii10092" unicode="&#x44a;" horiz-adv-x="545" 
d="M-13 500h249v-172h77q211 0 211 -163q0 -79 -50.5 -122t-150.5 -43h-214v392h-122v108zM236 220v-112h80q71 0 71 57q0 55 -83 55h-68z" />
    <glyph glyph-name="afii10093" unicode="&#x44b;" horiz-adv-x="661" 
d="M51 500h128v-172h53q211 0 211 -163q0 -82 -53 -123.5t-148 -41.5h-191v500zM482 500h127v-500h-127v500zM179 220v-112h56q71 0 71 57q0 55 -83 55h-44z" />
    <glyph glyph-name="afii10094" unicode="&#x44c;" horiz-adv-x="488" 
d="M51 500h128v-172h76q211 0 211 -163q0 -79 -50.5 -122t-150.5 -43h-214v500zM179 220v-112h79q71 0 71 57q0 55 -83 55h-67z" />
    <glyph glyph-name="afii10095" unicode="&#x44d;" horiz-adv-x="451" 
d="M134 204v99h156q-5 98 -96 98q-54 0 -83 -42l-95 67q63 83 173 83q113 0 171 -58t58 -166v-68q0 -106 -58.5 -166t-170.5 -60q-124 0 -176 85l93 66q30 -43 88 -43q94 0 96 105h-156z" />
    <glyph glyph-name="afii10096" unicode="&#x44e;" horiz-adv-x="691" 
d="M657 285v-68q0 -104 -53.5 -165t-150.5 -61q-90 0 -145 53.5t-59 156.5h-70v-201h-128v500h128v-190h71q6 97 59.5 148t143.5 51q96 0 150 -57t54 -167zM453 99q77 0 77 124v56q0 122 -77 122t-77 -122v-56q0 -62 17.5 -93t59.5 -31z" />
    <glyph glyph-name="afii10097" unicode="&#x44f;" horiz-adv-x="500" 
d="M448 0h-127v178h-63l-105 -178h-135l120 199q-94 41 -94 146q0 70 49 112.5t155 42.5h200v-500zM321 284v108h-67q-73 0 -73 -53q0 -55 81 -55h59z" />
    <glyph glyph-name="afii10071" unicode="&#x451;" 
d="M343 142l95 -66q-49 -85 -183 -85q-108 0 -165 62.5t-57 163.5v68q0 111 53.5 167.5t152.5 56.5q206 0 206 -234v-57h-285q2 -119 94 -119q37 0 55 10t34 33zM240 401q-72 0 -80 -92h157q-4 92 -77 92zM73 573v117h124v-117h-124zM277 573v117h123v-117h-123z" />
    <glyph glyph-name="afii10099" unicode="&#x452;" horiz-adv-x="526" 
d="M-29 538v99h94v53h127v-53h138v-99h-138v-108q35 46 113 46q83 0 133 -46t50 -150v-300q0 -91 -45.5 -130.5t-132.5 -39.5h-13v110h11q27 0 40 13.5t13 46.5v280q0 57 -20 81.5t-61 24.5q-88 0 -88 -105v-261h-127v538h-94z" />
    <glyph glyph-name="afii10100" unicode="&#x453;" horiz-adv-x="373" 
d="M383 500v-108h-204v-392h-128v500h332zM147 567l70 158h143l-91 -158h-122z" />
    <glyph glyph-name="afii10101" unicode="&#x454;" horiz-adv-x="459" 
d="M314 303v-99h-157q2 -105 97 -105q59 0 87 43l94 -66q-53 -85 -176 -85q-112 0 -170.5 60t-58.5 166v68q0 108 58 166t171 58q110 0 173 -83l-96 -67q-29 42 -82 42q-94 0 -97 -98h157z" />
    <glyph glyph-name="afii10102" unicode="&#x455;" horiz-adv-x="464" 
d="M419 426l-94 -67q-18 21 -39 30.5t-59 9.5q-63 0 -63 -39q0 -21 19 -32t61 -17q94 -15 139.5 -53.5t45.5 -111.5t-50.5 -114t-145.5 -41q-76 0 -125.5 19.5t-81.5 63.5l98 70q16 -22 39.5 -32.5t67.5 -10.5q71 0 71 41q0 23 -18 33t-67 18q-180 29 -180 162q0 72 50 113
t143 41q138 0 189 -83z" />
    <glyph glyph-name="afii10103" unicode="&#x456;" horiz-adv-x="260" 
d="M66 0v500h128v-500h-128zM61 566v124h138v-124h-138z" />
    <glyph glyph-name="afii10104" unicode="&#x457;" horiz-adv-x="260" 
d="M66 0v500h128v-500h-128zM-38 573v117h124v-117h-124zM166 573v117h123v-117h-123z" />
    <glyph glyph-name="afii10105" unicode="&#x458;" horiz-adv-x="251" 
d="M194 500v-527q0 -93 -45 -128t-149 -35v110q38 0 52.5 17t14.5 54v509h127zM62 566v124h137v-124h-137z" />
    <glyph glyph-name="afii10106" unicode="&#x459;" horiz-adv-x="777" 
d="M91 500h377v-172h77q211 0 211 -163q0 -79 -51 -122t-151 -43h-213v392h-129v-116q0 -74 -6.5 -114.5t-24.5 -76.5q-46 -90 -173 -96v112q51 15 68 60q15 40 15 174v165zM468 220v-112h80q70 0 70 57q0 27 -18.5 41t-63.5 14h-68z" />
    <glyph glyph-name="afii10107" unicode="&#x45a;" horiz-adv-x="773" 
d="M179 500v-190h157v190h128v-172h76q211 0 211 -163q0 -79 -50.5 -122t-151.5 -43h-213v201h-157v-201h-128v500h128zM464 220v-112h79q71 0 71 57q0 55 -83 55h-67z" />
    <glyph glyph-name="afii10108" unicode="&#x45b;" horiz-adv-x="526" 
d="M-29 538v99h94v53h127v-53h138v-99h-138v-108q35 46 113 46q83 0 133 -46t50 -150v-280h-127v260q0 57 -20 81.5t-61 24.5q-88 0 -88 -105v-261h-127v538h-94z" />
    <glyph glyph-name="afii10109" unicode="&#x45c;" horiz-adv-x="492" 
d="M337 500h140l-137 -242l151 -258h-147l-114 199h-51v-199h-128v500h128v-194h48zM185 567l70 158h143l-91 -158h-122z" />
    <glyph glyph-name="afii10110" unicode="&#x45e;" horiz-adv-x="479" 
d="M5 500h134l111 -320l100 320h129l-175 -523q-34 -101 -79 -134t-150 -33v114q54 0 78 13.5t39 55.5zM299 687h104q0 -67 -41.5 -98t-112.5 -31t-113 31t-42 98h104q0 -55 51 -55q50 0 50 55z" />
    <glyph glyph-name="afii10193" unicode="&#x45f;" horiz-adv-x="526" 
d="M304 -117h-93v117h-160v500h128v-391h157v391h128v-500h-160v-117z" />
    <glyph glyph-name="afii10146" unicode="&#x462;" horiz-adv-x="599" 
d="M68 690h140v-72h151v-118h-151v-63h107q130 0 194 -61t64 -158q0 -96 -64 -157t-194 -61h-247v500h-78v118h78v72zM307 319h-99v-201h99q126 0 126 100q0 101 -126 101z" />
    <glyph glyph-name="afii10194" unicode="&#x463;" horiz-adv-x="488" 
d="M-29 401v99h80v190h128v-190h151v-99h-151v-73h76q211 0 211 -163q0 -79 -50.5 -122t-150.5 -43h-214v401h-80zM179 220v-112h79q71 0 71 57q0 55 -83 55h-67z" />
    <glyph glyph-name="afii10147" unicode="&#x472;" horiz-adv-x="623" 
d="M576 296q0 -153 -71.5 -229t-193.5 -76t-193 76t-71 229v98q0 154 71 229.5t193 75.5q123 0 194 -75.5t71 -229.5v-98zM311 109q125 0 125 187v2h-249v-2q0 -187 124 -187zM311 581q-117 0 -124 -165h248q-6 165 -124 165z" />
    <glyph glyph-name="afii10195" unicode="&#x473;" horiz-adv-x="499" 
d="M465 281v-60q0 -107 -53.5 -168.5t-162.5 -61.5q-106 0 -161 61t-55 169v60q0 112 56 170t160 58q105 0 160.5 -58t55.5 -170zM249 99q81 0 88 102h-176q7 -102 88 -102zM249 401q-77 0 -88 -91h175q-9 91 -87 91z" />
    <glyph glyph-name="afii10148" unicode="&#x474;" horiz-adv-x="617" 
d="M3 690h154l151 -464l108 332q24 76 70.5 108.5t145.5 32.5v-115q-35 0 -52 -15.5t-31 -56.5l-178 -512h-127z" />
    <glyph glyph-name="afii10196" unicode="&#x475;" horiz-adv-x="501" 
d="M511 509v-107q-28 0 -41 -13t-26 -48l-130 -341h-120l-194 500h140l112 -324l77 221q24 71 61 91.5t121 20.5z" />
    <glyph glyph-name="afii10050" unicode="&#x490;" horiz-adv-x="491" 
d="M375 690v108h116v-227h-283v-571h-140v690h307z" />
    <glyph glyph-name="afii10098" unicode="&#x491;" horiz-adv-x="373" 
d="M275 500v93h108v-201h-204v-392h-128v500h224z" />
    <glyph glyph-name="uni0492" unicode="&#x492;" horiz-adv-x="492" 
d="M492 690v-119h-283v-155h136v-118h-136v-298h-140v298h-79v118h79v274h423z" />
    <glyph glyph-name="uni0493" unicode="&#x493;" horiz-adv-x="395" 
d="M405 500v-108h-204v-82h106v-109h-106v-201h-128v201h-86v109h86v190h332z" />
    <glyph glyph-name="uni0496" unicode="&#x496;" horiz-adv-x="962" 
d="M160 0h-157l206 348l-172 342h148l140 -284h59v284h140v-284h58l141 284h148l-172 -342l136 -230h111v-248h-127v130h-71l-169 288h-55v-288h-140v288h-55z" />
    <glyph glyph-name="uni0497" unicode="&#x497;" horiz-adv-x="725" 
d="M539 500h133l-105 -243l73 -149h75v-225h-117v117h-46l-92 199h-50v-199h-127v199h-50l-92 -199h-141l126 257l-105 243h133l81 -194h48v194h127v-194h47z" />
    <glyph glyph-name="uni0498" unicode="&#x498;" horiz-adv-x="592" 
d="M362 -130h-127v126q-174 25 -208 204h134q19 -48 49.5 -69.5t82.5 -21.5q126 0 126 95t-134 95h-73v118h75q110 0 110 84q0 81 -103 81q-52 0 -80 -21.5t-43 -62.5h-123q9 91 80 146t171 55q101 0 169.5 -48t68.5 -137q0 -98 -90 -151q112 -47 112 -165q0 -81 -52 -135
t-145 -67v-126z" />
    <glyph glyph-name="uni0499" unicode="&#x499;" horiz-adv-x="454" 
d="M277 -117h-117v111q-100 13 -146 84l82 64q38 -51 108 -51q38 0 57.5 17.5t19.5 44.5q0 59 -99 59h-48v94h51q77 0 77 54q0 22 -16.5 35.5t-48.5 13.5q-53 0 -91 -41l-87 61q65 80 195 80q89 0 137 -36t48 -91q0 -78 -72 -113q91 -35 91 -127q0 -57 -35.5 -95.5
t-105.5 -50.5v-113z" />
    <glyph glyph-name="uni049A" unicode="&#x49a;" horiz-adv-x="665" 
d="M648 -130h-126v130h-78l-177 288h-59v-288h-140v690h140v-284h56l158 284h154l-186 -334l147 -238h111v-248z" />
    <glyph glyph-name="uni049B" unicode="&#x49b;" horiz-adv-x="522" 
d="M337 500h140l-137 -242l88 -150h81v-225h-117v117h-48l-114 199h-51v-199h-128v500h128v-194h48z" />
    <glyph glyph-name="uni049C" unicode="&#x49c;" horiz-adv-x="720" 
d="M706 0h-165l-178 288h-19v-107h-105v107h-31v-288h-140v690h140v-284h31v114h105v-114h17l157 284h154l-186 -334z" />
    <glyph glyph-name="uni049D" unicode="&#x49d;" horiz-adv-x="569" 
d="M414 500h140l-137 -242l151 -258h-147l-114 199h-10v-96h-95v96h-23v-199h-128v500h128v-194h23v98h95v-98h7z" />
    <glyph glyph-name="uni04A0" unicode="&#x4a0;" horiz-adv-x="681" 
d="M668 0h-166l-177 288h-59v-288h-140v571h-153v119h293v-284h56l158 284h154l-186 -334z" />
    <glyph glyph-name="uni04A1" unicode="&#x4a1;" horiz-adv-x="549" 
d="M394 500h140l-137 -242l151 -258h-147l-114 199h-51v-199h-128v392h-121v108h249v-194h48z" />
    <glyph glyph-name="uni04A2" unicode="&#x4a2;" horiz-adv-x="704" 
d="M208 690v-274h239v274h140v-572h100v-248h-127v130h-113v298h-239v-298h-140v690h140z" />
    <glyph glyph-name="uni04A3" unicode="&#x4a3;" horiz-adv-x="546" 
d="M179 500v-190h157v190h128v-392h66v-225h-117v117h-77v201h-157v-201h-128v500h128z" />
    <glyph glyph-name="uni04AA" unicode="&#x4aa;" horiz-adv-x="594" 
d="M375 -130h-127v127q-94 18 -147.5 93t-53.5 206v98q0 154 71 229.5t193 75.5q105 0 170.5 -56t82.5 -167h-134q-21 105 -119 105q-124 0 -124 -187v-98q0 -187 124 -187q51 0 79 25.5t40 79.5h133q-29 -190 -188 -217v-127z" />
    <glyph glyph-name="uni04AB" unicode="&#x4ab;" horiz-adv-x="446" 
d="M318 -117h-116v113q-81 14 -125 72.5t-44 148.5v68q0 109 59 166.5t171 57.5q122 0 175 -83l-96 -67q-30 42 -82 42q-100 0 -100 -124v-52q0 -60 21.5 -93t78.5 -33t83 43l95 -66q-39 -65 -120 -80v-113z" />
    <glyph glyph-name="uni04AE" unicode="&#x4ae;" horiz-adv-x="583" 
d="M6 690h162l123 -257l124 257h161l-215 -408v-282h-140v282z" />
    <glyph glyph-name="uni04AF" unicode="&#x4af;" horiz-adv-x="504" 
d="M363 500h141l-186 -490v-200h-128v200l-190 490h140l112 -324z" />
    <glyph glyph-name="uni04B0" unicode="&#x4b0;" horiz-adv-x="583" 
d="M6 690h162l123 -257l124 257h161l-201 -381h115v-118h-129v-191h-140v191h-127v118h113z" />
    <glyph glyph-name="uni04B1" unicode="&#x4b1;" horiz-adv-x="504" 
d="M363 500h141l-190 -500h99v-108h-99v-82h-120v82h-102v108h102l-194 500h140l112 -324z" />
    <glyph glyph-name="uni04B2" unicode="&#x4b2;" horiz-adv-x="642" 
d="M165 0h-152l194 356l-173 334h152l110 -220l111 220h151l-174 -334l130 -238h111v-248h-127v130h-70l-132 235z" />
    <glyph glyph-name="uni04B3" unicode="&#x4b3;" horiz-adv-x="511" 
d="M501 -117h-116v117h-43l-97 152l-97 -152h-141l164 256l-151 244h141l84 -143l84 143h141l-151 -244l95 -148h87v-225z" />
    <glyph glyph-name="uni04B6" unicode="&#x4b6;" horiz-adv-x="646" 
d="M161 690v-203q0 -71 27 -101t92 -30q84 0 110 43v291h140v-572h99v-248h-126v130h-113v270q-46 -32 -136 -32q-127 0 -180 58t-53 191v203h140z" />
    <glyph glyph-name="uni04B7" unicode="&#x4b7;" horiz-adv-x="503" 
d="M154 500v-144q0 -49 19 -65.5t52 -16.5q51 0 68 33v193h127v-392h66v-225h-117v117h-76v186q-31 -24 -94 -24q-172 0 -172 175v163h127z" />
    <glyph glyph-name="uni04B8" unicode="&#x4b8;" horiz-adv-x="618" 
d="M348 473v-109q48 11 62 35v291h140v-690h-140v270q-17 -12 -62 -23v-113h-118v104q-114 5 -161.5 63.5t-47.5 185.5v203h140v-203q0 -56 16 -86t53 -40v112h118z" />
    <glyph glyph-name="uni04B9" unicode="&#x4b9;" horiz-adv-x="512" 
d="M154 500v-144q0 -67 42 -79v104h95v-97q28 8 42 22v194h127v-500h-127v186q-17 -9 -42 -13v-92h-95v81q-170 0 -170 175v163h128z" />
    <glyph glyph-name="uni04BA" unicode="&#x4ba;" horiz-adv-x="598" 
d="M437 0v260q0 71 -27 101t-92 30q-85 0 -110 -43v-348h-140v690h140v-213q46 32 137 32q127 0 179.5 -58t52.5 -190v-261h-140z" />
    <glyph glyph-name="uni04BB" unicode="&#x4bb;" horiz-adv-x="526" 
d="M51 0v690h128v-229q36 48 112 48q83 0 133 -46t50 -150v-313h-127v293q0 57 -20 81.5t-60 24.5q-88 0 -88 -105v-294h-128z" />
    <glyph glyph-name="uni04D8" unicode="&#x4d8;" horiz-adv-x="602" 
d="M47 296v73h378v25q0 187 -124 187q-50 0 -79.5 -28t-38.5 -77h-134q15 107 79.5 165t172.5 58q122 0 193 -77t71 -238v-88q0 -153 -71 -229t-193 -76q-121 0 -187.5 75.5t-66.5 229.5zM301 109q55 0 85 33t37 108h-242q5 -70 32.5 -105.5t87.5 -35.5z" />
    <glyph glyph-name="afii10846" unicode="&#x4d9;" 
d="M143 358l-95 66q49 85 183 85q108 0 165 -62.5t57 -163.5v-68q0 -111 -53.5 -167.5t-152.5 -56.5q-206 0 -206 234v57h285q-2 119 -94 119q-37 0 -55 -10t-34 -33zM246 99q72 0 80 92h-157q4 -92 77 -92z" />
    <glyph glyph-name="uni04E2" unicode="&#x4e2;" horiz-adv-x="676" 
d="M68 690h140v-433l288 433h112v-690h-140v428l-285 -428h-115v690zM178 744v112h322v-112h-322z" />
    <glyph glyph-name="uni04E3" unicode="&#x4e3;" horiz-adv-x="532" 
d="M179 500v-273l191 273h110v-500h-127v283l-193 -283h-109v500h128zM125 573v111h283v-111h-283z" />
    <glyph glyph-name="uni04E8" unicode="&#x4e8;" horiz-adv-x="623" 
d="M576 296q0 -153 -71.5 -229t-193.5 -76t-193 76t-71 229v98q0 154 71 229.5t193 75.5q123 0 194 -75.5t71 -229.5v-98zM311 109q125 0 125 187v2h-249v-2q0 -187 124 -187zM311 581q-117 0 -124 -165h248q-6 165 -124 165z" />
    <glyph glyph-name="uni04E9" unicode="&#x4e9;" horiz-adv-x="499" 
d="M465 281v-60q0 -107 -53.5 -168.5t-162.5 -61.5q-106 0 -161 61t-55 169v60q0 112 56 170t160 58q105 0 160.5 -58t55.5 -170zM249 99q81 0 88 102h-176q7 -102 88 -102zM249 401q-77 0 -88 -91h175q-9 91 -87 91z" />
    <glyph glyph-name="uni04EE" unicode="&#x4ee;" horiz-adv-x="579" 
d="M435 690h144l-212 -550q-34 -87 -88 -118t-161 -31v122q56 0 83 10.5t43 40.5l-236 526h155l148 -344zM142 744v112h322v-112h-322z" />
    <glyph glyph-name="uni04EF" unicode="&#x4ef;" horiz-adv-x="479" 
d="M5 500h134l111 -320l100 320h129l-175 -523q-34 -101 -79 -134t-150 -33v114q54 0 78 13.5t39 55.5zM105 573v111h283v-111h-283z" />
    <glyph glyph-name="uni1E9E" unicode="&#x1e9e;" horiz-adv-x="607" 
d="M541 642l-99 -179q54 -12 76.5 -42.5t22.5 -84.5v-196q0 -85 -33.5 -112.5t-114.5 -27.5h-91v118h50q27 0 38 13.5t11 42.5v132q0 31 -10 45t-39 14h-50v90l67 116q-30 10 -63 10q-51 0 -74.5 -23.5t-23.5 -77.5v-480h-140v488q0 100 58 155.5t180 55.5q69 0 137 -19
t98 -38z" />
    <glyph glyph-name="uni2010" unicode="&#x2010;" horiz-adv-x="319" 
d="M30 233v112h259v-112h-259z" />
    <glyph glyph-name="uni2011" unicode="&#x2011;" horiz-adv-x="319" 
d="M30 233v112h259v-112h-259z" />
    <glyph glyph-name="figuredash" unicode="&#x2012;" horiz-adv-x="540" 
d="M64 287v124h412v-124h-412z" />
    <glyph glyph-name="endash" unicode="&#x2013;" horiz-adv-x="509" 
d="M60 227v124h389v-124h-389z" />
    <glyph glyph-name="emdash" unicode="&#x2014;" horiz-adv-x="706" 
d="M20 227v124h666v-124h-666z" />
    <glyph glyph-name="quoteleft" unicode="&#x2018;" horiz-adv-x="243" 
d="M46 534v162l137 117v-279h-137z" />
    <glyph glyph-name="quoteright" unicode="&#x2019;" horiz-adv-x="249" 
d="M180 706v-165l-134 -114v279h134z" />
    <glyph glyph-name="quotesinglbase" unicode="&#x201a;" horiz-adv-x="256" 
d="M196 136v-162l-136 -117v279h136z" />
    <glyph glyph-name="quotedblleft" unicode="&#x201c;" horiz-adv-x="386" 
d="M19 534v162l137 117v-279h-137zM199 534v162l136 117v-279h-136z" />
    <glyph glyph-name="quotedblright" unicode="&#x201d;" horiz-adv-x="386" 
d="M156 706v-162l-137 -117v279h137zM335 706v-162l-136 -117v279h136z" />
    <glyph glyph-name="quotedblbase" unicode="&#x201e;" horiz-adv-x="427" 
d="M376 136v-162l-137 -117v279h137zM196 136v-162l-136 -117v279h136z" />
    <glyph glyph-name="dagger" unicode="&#x2020;" horiz-adv-x="580" 
d="M33 500h187v190h140v-190h186v-119h-186v-571h-140v571h-187v119z" />
    <glyph glyph-name="daggerdbl" unicode="&#x2021;" horiz-adv-x="580" 
d="M33 500h187v190h140v-190h186v-119h-186v-263h186v-118h-186v-190h-140v190h-187v118h187v263h-187v119z" />
    <glyph glyph-name="bullet" unicode="&#x2022;" horiz-adv-x="296" 
d="M33 341q0 48 34 82t82 34t82 -34t34 -82t-34 -82t-82 -34t-82 34t-34 82z" />
    <glyph glyph-name="ellipsis" unicode="&#x2026;" horiz-adv-x="882" 
d="M216 156v-156h-156v156h156zM822 156v-156h-156v156h156zM519 156v-156h-156v156h156z" />
    <glyph glyph-name="perthousand" unicode="&#x2030;" horiz-adv-x="1112" 
d="M510 690h123l-385 -690h-124zM739 200v-59q0 -150 -151 -150q-73 0 -111.5 38.5t-38.5 111.5v59q0 72 39 110t111 38q151 0 151 -148zM588 78q48 0 48 63v56q0 63 -48 63q-46 0 -46 -63v-56q0 -63 46 -63zM323 551v-59q0 -150 -152 -150q-73 0 -111 38.5t-38 111.5v59
q0 72 38.5 110t110.5 38q152 0 152 -148zM172 429q48 0 48 63v56q0 63 -48 63q-46 0 -46 -63v-56q0 -63 46 -63zM1077 200v-59q0 -150 -152 -150q-73 0 -111.5 38.5t-38.5 111.5v59q0 72 39 110t111 38q152 0 152 -148zM926 78q47 0 47 63v56q0 34 -11.5 48.5t-35.5 14.5
q-46 0 -46 -63v-56q0 -63 46 -63z" />
    <glyph glyph-name="guilsinglleft" unicode="&#x2039;" horiz-adv-x="330" 
d="M30 283l232 231v-143l-90 -88l90 -89v-142z" />
    <glyph glyph-name="guilsinglright" unicode="&#x203a;" horiz-adv-x="330" 
d="M58 514l232 -231l-232 -231v142l89 89l-89 88v143z" />
    <glyph glyph-name="fraction" unicode="&#x2044;" horiz-adv-x="566" 
d="M485 690h127l-474 -690h-128z" />
    <glyph glyph-name="uni2074" unicode="&#x2074;" horiz-adv-x="349" 
d="M149 690h102l-123 -198h51v45h88v-45h39v-71h-39v-47h-88v47h-161v64z" />
    <glyph glyph-name="Euro" unicode="&#x20ac;" horiz-adv-x="540" 
d="M10 316h68v51h-68v112h73q29 220 227 220q99 0 152 -55.5t64 -167.5h-134q-6 53 -25 79t-57 26q-40 0 -60.5 -23t-27.5 -79h111v-112h-115v-51h115v-112h-110q8 -50 29 -72.5t58 -22.5t56 24.5t26 80.5h133q-11 -115 -62 -169t-153 -54q-194 0 -226 213h-74v112z" />
    <glyph glyph-name="uni20B4" unicode="&#x20b4;" horiz-adv-x="540" 
d="M7 219v106h526v-106h-338q-6 -15 -6 -33q0 -34 23.5 -55.5t72.5 -21.5q38 0 63 16t55 53l106 -74q-49 -62 -100.5 -87.5t-134.5 -25.5q-108 0 -166.5 55t-58.5 139q0 17 3 34h-45zM7 366v106h336q8 16 8 33q0 36 -21.5 56t-62.5 20q-35 0 -59 -16.5t-48 -52.5l-104 74
q75 113 212 113q110 0 167 -52.5t56 -133.5q0 -23 -6 -41h48v-106h-526z" />
    <glyph glyph-name="uni20B8" unicode="&#x20b8;" horiz-adv-x="540" 
d="M14 524h513v-119h-187v-405h-140v405h-186v119zM14 690h513v-119h-513v119z" />
    <glyph glyph-name="uni20BD" unicode="&#x20bd;" horiz-adv-x="540" 
d="M9 243v118h84v329h192q122 0 190 -56t68 -165q0 -108 -68.5 -167t-189.5 -59h-52v-39h115v-118h-115v-86h-140v86h-84v118h84v39h-84zM233 361h32q72 0 105 26t33 82q0 102 -138 102h-32v-210z" />
    <glyph glyph-name="afii61352" unicode="&#x2116;" horiz-adv-x="946" 
d="M927 537v-47q0 -74 -38.5 -118.5t-114.5 -44.5q-73 0 -113 44t-40 119v47q0 77 40 119.5t113 42.5t113 -42.5t40 -119.5zM645 166v119h259v-119h-259zM774 426q45 0 45 68v39q0 67 -45 67q-46 0 -46 -67v-39q0 -68 46 -68zM444 690h133v-690h-117l-269 427v-427h-133v690
h116l270 -433v433z" />
    <glyph glyph-name="trademark" unicode="&#x2122;" horiz-adv-x="910" 
d="M511 690l123 -215l123 215h106v-417h-112v195l-77 -131h-85l-72 131v-195h-111v417h105zM24 690h351v-100h-119v-317h-112v317h-120v100z" />
    <glyph glyph-name="uni2190" unicode="&#x2190;" horiz-adv-x="875" 
d="M523 -92h-110l-353 353l353 353h110l-314 -314h606v-78h-606z" />
    <glyph glyph-name="uni2191" unicode="&#x2191;" horiz-adv-x="826" 
d="M766 286v-110l-314 314v-606h-78v606l-314 -314v110l353 353z" />
    <glyph glyph-name="uni2192" unicode="&#x2192;" horiz-adv-x="875" 
d="M462 -92h-110l314 314h-606v78h606l-314 314h110l353 -353z" />
    <glyph glyph-name="uni2193" unicode="&#x2193;" horiz-adv-x="826" 
d="M60 236v110l314 -314v606h78v-606l314 314v-110l-353 -353z" />
    <glyph glyph-name="uni2196" unicode="&#x2196;" horiz-adv-x="698" 
d="M137 -78l-77 78v500h500l78 -77h-445l428 -429l-55 -55l-429 428v-445z" />
    <glyph glyph-name="uni2197" unicode="&#x2197;" horiz-adv-x="698" 
d="M638 0l-77 -78v445l-429 -428l-55 55l428 429h-445l78 77h500v-500z" />
    <glyph glyph-name="uni2198" unicode="&#x2198;" horiz-adv-x="698" 
d="M561 578l77 -78v-500h-500l-78 77h445l-428 429l55 55l429 -428v445z" />
    <glyph glyph-name="uni2199" unicode="&#x2199;" horiz-adv-x="698" 
d="M60 500l77 78v-445l429 428l55 -55l-428 -429h445l-78 -77h-500v500z" />
    <glyph glyph-name="uni21A3" unicode="&#x21a3;" horiz-adv-x="1375" 
d="M264 464l124 -124h768l-64 65l60 59l183 -183l-183 -183l-60 59l64 65h-768l-124 -124l-61 59l124 124l-124 124zM100 464l183 -183l-183 -183l-60 59l124 124l-124 124z" />
    <glyph glyph-name="partialdiff" unicode="&#x2202;" horiz-adv-x="503" 
d="M465 460v-239q0 -107 -53.5 -168.5t-162.5 -61.5q-106 0 -161 61t-55 169v60q0 111 55 169.5t153 58.5q57 0 97 -24q-4 107 -100 107q-50 0 -106 -35l-58 79q68 63 177 63q214 0 214 -239zM249 99q89 0 89 126v52q0 124 -89 124t-89 -124v-52q0 -60 19.5 -93t69.5 -33z
" />
    <glyph glyph-name="product" unicode="&#x220f;" horiz-adv-x="638" 
d="M58 690h522v-880h-140v761h-242v-761h-140v880z" />
    <glyph glyph-name="summation" unicode="&#x2211;" horiz-adv-x="519" 
d="M499 690v-118h-291l176 -268v-110l-176 -266h291v-118h-469v103l225 337l-225 337v103h469z" />
    <glyph glyph-name="minus" unicode="&#x2212;" horiz-adv-x="506" 
d="M58 298v112h389v-112h-389z" />
    <glyph glyph-name="uni2215" unicode="&#x2215;" horiz-adv-x="485" 
d="M162 -116h-115l336 928h115z" />
    <glyph glyph-name="radical" unicode="&#x221a;" horiz-adv-x="697" 
d="M7 500h214l126 -302l106 492h298v-119h-184l-142 -571h-132l-177 381h-109v119z" />
    <glyph glyph-name="infinity" unicode="&#x221e;" horiz-adv-x="802" 
d="M400 266q-90 -107 -191 -107q-77 0 -126.5 53t-49.5 130t50 130t130 53q106 0 193 -105q44 52 87 78.5t99 26.5q77 0 126.5 -53t49.5 -130t-48.5 -130t-121.5 -53q-108 0 -198 107zM588 272q29 0 49 19.5t20 50.5q0 30 -21 49t-52 19q-20 0 -39 -10t-31.5 -21.5
t-34.5 -35.5q64 -71 109 -71zM216 272q31 0 56 18t56 52q-61 68 -112 68q-29 0 -50 -19t-21 -49q0 -31 20.5 -50.5t50.5 -19.5z" />
    <glyph glyph-name="integral" unicode="&#x222b;" horiz-adv-x="309" 
d="M213 507v-534q0 -94 -40 -128.5t-134 -34.5h-37v114h24q33 0 45 15t12 53v535q0 94 40 128.5t134 34.5h37v-114h-23q-33 0 -45.5 -15t-12.5 -54z" />
    <glyph glyph-name="approxequal" unicode="&#x2248;" horiz-adv-x="500" 
d="M416 485l45 -93q-50 -53 -113 -53q-38 0 -101.5 26.5t-91.5 26.5q-34 0 -70 -29l-46 95q53 53 113 53q36 0 102 -26.5t95 -26.5q34 0 67 27zM416 311l45 -92q-50 -53 -113 -53q-38 0 -101.5 26.5t-91.5 26.5q-34 0 -70 -29l-46 95q53 53 113 53q36 0 102 -26.5t95 -26.5
q35 0 67 26z" />
    <glyph glyph-name="notequal" unicode="&#x2260;" horiz-adv-x="500" 
d="M55 359v120h206l68 156l100 -40l-51 -116h66v-120h-118l-25 -58h143v-119h-195l-64 -148l-100 40l47 108h-77v119h129l25 58h-154z" />
    <glyph glyph-name="lessequal" unicode="&#x2264;" horiz-adv-x="385" 
d="M83 401l232 231v-143l-90 -88l90 -89v-142zM83 195v141l232 -229v-143z" />
    <glyph glyph-name="greaterequal" unicode="&#x2265;" horiz-adv-x="385" 
d="M83 632l232 -231l-232 -231v142l89 89l-89 88v143zM315 336v-141l-232 -231v143z" />
    <glyph glyph-name="uni231A" unicode="&#x231a;" horiz-adv-x="666" 
d="M185 -205v235q-57 34 -91 92.5t-34 127.5t34 127t91 92v235h261v-234q48 -29 80.5 -76t41.5 -104h38v-80h-38q-9 -57 -41 -104t-81 -76v-235h-261zM105 250q0 -87 62 -149t149 -62t148.5 62t61.5 149t-61.5 148.5t-148.5 61.5t-149 -61.5t-62 -148.5zM482 318l-166 -93
l-133 75l-6 20l20 5l119 -70l153 87l19 -5z" />
    <glyph glyph-name="uni23F2" unicode="&#x23f2;" horiz-adv-x="1072" 
d="M60 342q0 197 139.5 336.5t336.5 139.5t336.5 -139.5t139.5 -336.5t-139.5 -336.5t-336.5 -139.5t-336.5 139.5t-139.5 336.5zM114 342q0 -175 123.5 -298.5t298.5 -123.5t298 123.5t123 298.5t-123 298t-298 123t-298.5 -123t-123.5 -298zM871 508l-335 -192l-248 142
l-10 35l36 10l222 -129l309 179l36 -9zM802 364h126v-46h-126v46zM513 -50v126h46v-126h-46zM145 364h126v-46h-126v46zM513 607v126h46v-126h-46z" />
    <glyph glyph-name="uni2550" unicode="&#x2550;" horiz-adv-x="2158" 
d="M2158 417v-119h-2158v119h2158zM2158 255v-119h-2158v119h2158z" />
    <glyph glyph-name="lozenge" unicode="&#x25ca;" horiz-adv-x="564" 
d="M215 587h136l190 -291l-190 -296h-136l-192 296zM282 476l-112 -180l112 -186l111 186z" />
    <glyph glyph-name="uni261D" unicode="&#x261d;" horiz-adv-x="705" 
d="M645 -28h-370l-215 292q3 3 8 7t21.5 12t33 10t39 -6t42.5 -29l71 -74v450q0 61 50 61t50 -58v-229h36q29 0 41.5 -13t12.5 -41h36q29 0 41.5 -13t12.5 -41h34q30 0 43 -12t13 -39v-277zM275 -243v161h370v-161h-370zM565 -135q-12 0 -20 -7.5t-8 -19.5t8 -20t20 -8
t19.5 8t7.5 20t-7.5 19.5t-19.5 7.5z" />
    <glyph glyph-name="uni261E" unicode="&#x261e;" horiz-adv-x="1061" 
d="M278 51v370l292 215q3 -3 7 -8t12 -21.5t10 -33t-6 -39t-29 -42.5l-74 -71h450q61 0 61 -50t-58 -50h-229v-36q0 -29 -13 -41.5t-41 -12.5v-36q0 -29 -13 -41.5t-41 -12.5v-34q0 -30 -12 -43t-39 -13h-277zM60 421h164v-370h-164v370zM169 131q0 12 -7.5 20t-19.5 8
t-20 -8t-8 -20t8 -19.5t20 -7.5t19.5 7.5t7.5 19.5z" />
    <glyph glyph-name="uni26F3" unicode="&#x26f3;" horiz-adv-x="674" 
d="M60 513q0 115 81 196t196 81t196 -81t81 -196q0 -86 -82 -216l-195 -307l-197 309q-80 128 -80 214zM226 513q0 -46 32.5 -78t78.5 -32t78 32t32 78t-32 78t-78 32t-78.5 -32t-32.5 -78z" />
    <glyph glyph-name="uni2709" unicode="&#x2709;" horiz-adv-x="1236" 
d="M60 578h1116v-60l-558 -334l-558 334v60zM60 481l338 -201l-338 -243v444zM1176 0h-1116l366 263l192 -114l192 114zM838 280l338 201v-444z" />
    <glyph glyph-name="uniF040" unicode="&#xf040;" horiz-adv-x="3054" 
d="M1637 469l129 -129h1288v-118h-1286l-131 -131l-61 59l130 130l-130 129zM0 222v118h1288l129 129l61 -60l-130 -129l130 -130l-61 -59l-131 131h-1286z" />
    <glyph glyph-name="uniF041" unicode="&#xf041;" horiz-adv-x="2855" 
d="M1559 440l80 -46l-31 -54h1247v-118h-1316l-57 -99l-79 45zM1373 440l79 -46l-156 -271l-80 45l31 54h-1247v118h1315z" />
    <glyph glyph-name="uniF042" unicode="&#xf042;" horiz-adv-x="2825" 
d="M1437 222v118h1388v-118h-1388zM1268 340v-118h-1268v118h1268z" />
    <glyph glyph-name="uniF043" unicode="&#xf043;" horiz-adv-x="705" 
d="M275 -28h370v277q0 27 -13 39t-43 12h-34q0 28 -12.5 41t-41.5 13h-36q0 28 -12.5 41t-41.5 13h-36v229q0 58 -50 58t-50 -61v-450l-71 74q-20 21 -42.5 29.5t-39.5 5.5t-31.5 -9.5t-22.5 -13.5l-8 -6zM275 -82v-161h370v161h-370zM565 -135q12 0 19.5 -7.5t7.5 -19.5
t-7.5 -20t-19.5 -8t-20 8t-8 20t8 19.5t20 7.5zM83 660h158v-55h-158v55zM409 660h158v-55h-158v55zM297 725v158h55v-158h-55z" />
    <glyph glyph-name="uniF044" unicode="&#xf044;" horiz-adv-x="931" 
d="M177 126l324 -154h370v277q0 27 -13 39t-43 12h-34q0 28 -12.5 41t-41.5 13h-36q0 28 -12.5 41t-41.5 13h-36v229q0 58 -50 58t-50 -61v-478l-201 45q-30 6 -51.5 1t-35.5 -17.5t-22 -25.5t-11 -23zM501 -82v-161h370v161h-370zM553 814h158v-158h-55v103h-103v55z
M218 15h-158v158h55v-103h103v-55zM791 -135q12 0 19.5 -7.5t7.5 -19.5t-7.5 -20t-19.5 -8t-20 8t-8 20t8 19.5t20 7.5z" />
    <glyph glyph-name="uniF045" unicode="&#xf045;" horiz-adv-x="903" 
d="M370 665h503v-55h-498v-202h36q29 0 41.5 -13t12.5 -41h36q29 0 41.5 -13t12.5 -41h34q30 0 43 -12t13 -39v-277h-370l-215 292q3 3 8 7t21.5 12t33 10t39 -6t42.5 -29l71 -74v450q0 61 50 61q35 0 45 -30zM275 -243v161h370v-161h-370zM87 637l112 112l39 -39l-73 -73
l73 -73l-39 -39zM565 -135q-12 0 -20 -7.5t-8 -19.5t8 -20t20 -8t19.5 8t7.5 20t-7.5 19.5t-19.5 7.5z" />
    <glyph glyph-name="uniF046" unicode="&#xf046;" horiz-adv-x="952" 
d="M892 -28h-370l-215 292q3 3 8 7t21.5 12t33 10t39 -6t42.5 -29l71 -74v426h-492v55h497q11 30 45 30q50 0 50 -58v-229h36q28 0 41 -13t13 -41h36q28 0 41 -13t13 -41h34q30 0 43 -12t13 -39v-277zM522 -243v161h370v-161h-370zM816 637l-112 -112l-39 39l73 73l-73 73
l39 39zM812 -135q-12 0 -20 -7.5t-8 -19.5t8 -20t20 -8t19.5 8t7.5 20t-7.5 19.5t-19.5 7.5z" />
    <glyph glyph-name="uniF047" unicode="&#xf047;" horiz-adv-x="1010" 
d="M866 510v-634h-55v603l-137 -79l17 -31q27 -48 -19 -73l18 -32q27 -46 -20 -73l17 -30q28 -48 -17 -74l-239 -139l-185 321l145 332q2 -1 5 -2t13 -6t17.5 -11t17.5 -16.5t13.5 -23.5t6 -30.5t-5.5 -38.5l-29 -99l391 226q52 29 78 -13q25 -43 -26 -73zM60 162l140 81
l184 -321l-139 -81zM726 690l112 112l112 -112l-39 -39l-73 73l-73 -73zM276 -20q-12 0 -20 -7.5t-8 -19.5t8 -20t20 -8t19.5 8t7.5 20t-7.5 19.5t-19.5 7.5z" />
    <glyph glyph-name="uniF048" unicode="&#xf048;" horiz-adv-x="1145" 
d="M245 137l186 321l360 40q1 -4 2 -10.5t-0.5 -24.5t-7.5 -33.5t-24.5 -31t-46.5 -22.5l-100 -24l332 -192v603h55v-635l4 -2q51 -30 27 -74q-25 -43 -76 -14l-198 115l-18 -30q-28 -48 -73 -21l-18 -31q-27 -46 -74 -19l-17 -30q-28 -48 -73 -22zM245 565l140 -80
l-186 -320l-139 80zM973 -163l-112 112l39 39l73 -73l73 73l39 -39zM172 301q-12 0 -20 -7.5t-8 -19.5t8 -20t20 -8t19.5 8t7.5 20t-7.5 19.5t-19.5 7.5z" />
    <glyph glyph-name="uniF400" unicode="&#xf400;" horiz-adv-x="0" 
d="M-314 567l70 158h143l-91 -158h-122z" />
    <glyph glyph-name="uniF401" unicode="&#xf401;" horiz-adv-x="0" 
d="M-378 742l80 129h147l-103 -129h-124z" />
    <glyph glyph-name="uniF406" unicode="&#xf406;" horiz-adv-x="519" 
d="M338 879h112q0 -73 -53 -112.5t-138 -39.5t-138 39.5t-53 112.5h111q11 -54 80 -54t79 54z" />
    <glyph glyph-name="uniF407" unicode="&#xf407;" horiz-adv-x="410" 
d="M145 -72l20 97l81 -3l-12 -44q53 -20 53 -72q0 -40 -33 -63t-86 -23q-30 0 -46 4l15 65q12 -2 19 -2q33 0 33 21q0 20 -44 20z" />
    <glyph glyph-name="uniF408" unicode="&#xf408;" horiz-adv-x="519" 
d="M207 879h105l138 -142h-133l-58 61l-57 -61h-133z" />
    <glyph glyph-name="uniF409" unicode="&#xf409;" horiz-adv-x="397" 
d="M267 -51v-129l-137 -117v246h137z" />
    <glyph glyph-name="uniF40A" unicode="&#xf40a;" horiz-adv-x="205" 
d="M193 690v-150l-136 -116v266h136z" />
    <glyph glyph-name="uniF40B" unicode="&#xf40b;" horiz-adv-x="399" 
d="M129 759v110h141v-110h-141z" />
    <glyph glyph-name="uniF40C" unicode="&#xf40c;" horiz-adv-x="445" 
d="M106 800q0 45 32.5 72t82.5 27q52 0 84.5 -27t32.5 -72q0 -44 -32.5 -71t-84.5 -27q-50 0 -82.5 27t-32.5 71zM185 800q0 -31 36 -31q37 0 37 31t-37 31q-36 0 -36 -31z" />
    <glyph glyph-name="uniF40D" unicode="&#xf40d;" horiz-adv-x="504" 
d="M313 738q-27 0 -65 14.5t-53 14.5q-29 0 -52 -26l-68 69q50 60 118 60q24 0 62 -14.5t55 -14.5q28 0 50 27l68 -69q-49 -61 -115 -61z" />
    <glyph glyph-name="uniF40E" unicode="&#xf40e;" horiz-adv-x="413" 
d="M235 48l34 -48q-17 -15 -24.5 -22.5t-14 -18t-6.5 -20.5q0 -22 27 -22q9 0 19 2l15 -65q-16 -4 -48 -4q-45 0 -77.5 18.5t-32.5 57.5q0 37 27 66t81 56z" />
    <glyph glyph-name="dollar.fitted" unicode="&#xf5f5;" horiz-adv-x="575" 
d="M532 586l-105 -75q-35 52 -83 64v-175q103 -28 149 -75t46 -133q0 -79 -47.5 -132.5t-139.5 -65.5v-110h-116v111q-130 15 -201 109l107 74q40 -52 101 -65v181q-96 28 -142.5 79t-46.5 132q0 76 45.5 127t136.5 63v117h116v-118q121 -18 180 -108zM399 186q0 49 -55 75
v-146q55 17 55 71zM194 505q0 -47 49 -72v140q-49 -17 -49 -68z" />
    <glyph glyph-name="Euro.fitted" unicode="&#xf5f6;" horiz-adv-x="639" 
d="M8 316h84v51h-84v112h90q19 111 86.5 165.5t171.5 54.5q105 0 170.5 -56t82.5 -167h-134q-21 105 -119 105q-93 0 -116 -102h148v-112h-156v-51h156v-112h-146q25 -95 114 -95q51 0 79 25.5t40 79.5h133q-33 -223 -252 -223q-102 0 -169 53t-87 160h-92v112z" />
    <glyph glyph-name="cent.fitted" unicode="&#xf5f7;" horiz-adv-x="446" 
d="M343 145l95 -66q-39 -69 -126 -82v-113h-114v115q-79 16 -122 74t-43 146v64q0 187 165 218v121h114v-120q86 -16 126 -79l-96 -67q-30 42 -82 42q-100 0 -100 -124v-46q0 -60 21.5 -93t78.5 -33q58 0 83 43z" />
    <glyph glyph-name="sterling.fitted" unicode="&#xf5f8;" horiz-adv-x="536" 
d="M25 0v118h73v159h-73v119h73v31q0 272 219 272q135 0 203 -103l-115 -65q-37 50 -82 50q-42 0 -63.5 -35t-21.5 -119v-31h131v-119h-131v-159h259v-118h-472z" />
    <glyph glyph-name="yen.fitted" unicode="&#xf5f9;" horiz-adv-x="596" 
d="M85 231h143v51h-143v112h84l-156 296h162l123 -257l124 257h161l-156 -296h85v-112h-144v-51h144v-112h-144v-119h-140v119h-143v112z" />
    <glyph glyph-name="florin.fitted" unicode="&#xf5fa;" horiz-adv-x="324" 
d="M24 500h64v27q0 93 42.5 128t137.5 35h37v-119h-21q-34 0 -46.5 -15.5t-12.5 -50.5v-5h80v-119h-80v-408q0 -92 -49.5 -127.5t-154.5 -35.5v119q38 0 52.5 16.5t14.5 53.5v382h-64v119z" />
    <glyph glyph-name="uni20B4.fitted" unicode="&#xf5fb;" horiz-adv-x="596" 
d="M35 219v106h526v-106h-338q-6 -15 -6 -33q0 -34 23 -55.5t73 -21.5q37 0 62 15.5t56 53.5l106 -74q-49 -62 -100.5 -87.5t-135.5 -25.5q-108 0 -166 55t-58 139q0 17 3 34h-45zM35 366v106h336q8 16 8 33q0 36 -22 56t-62 20q-35 0 -59 -16.5t-48 -52.5l-104 74
q74 113 211 113q110 0 167 -52.5t57 -133.5q0 -23 -6 -41h48v-106h-526z" />
    <glyph glyph-name="uni20BD.fitted" unicode="&#xf5fc;" horiz-adv-x="540" 
d="M9 243v118h84v329h192q122 0 190 -56t68 -165q0 -108 -68.5 -167t-189.5 -59h-52v-39h115v-118h-115v-86h-140v86h-84v118h84v39h-84zM233 361h32q72 0 105 26t33 82q0 102 -138 102h-32v-210z" />
    <glyph glyph-name="uni20B8.fitted" unicode="&#xf5fd;" horiz-adv-x="536" 
d="M8 524h520v-119h-190v-405h-140v405h-190v119zM8 690h520v-119h-520v119z" />
    <glyph glyph-name="currency.fitted" unicode="&#xf5fe;" horiz-adv-x="578" 
d="M90 366q0 48 22 92l-79 79l84 84l77 -78q45 24 95 24q51 0 94 -23l78 78l84 -84l-78 -78q23 -43 23 -94q0 -49 -24 -94l79 -78l-84 -84l-79 78q-44 -22 -93 -22q-51 0 -94 23l-78 -78l-84 84l79 79q-22 42 -22 92zM197 366q0 -40 26.5 -67.5t65.5 -27.5q40 0 66.5 27.5
t26.5 67.5t-27 68t-66 28t-65.5 -28t-26.5 -68z" />
    <glyph glyph-name="uniF639" unicode="&#xf639;" horiz-adv-x="570" 
d="M517 480v-269q0 -110 -65.5 -165t-166.5 -55t-166.5 55t-65.5 165v268q0 114 65 167t167 53t167 -53t65 -166zM377 467q0 114 -92 114q-93 0 -93 -114v-244q0 -114 93 -114q92 0 92 114v244z" />
    <glyph glyph-name="uniF63A" unicode="&#xf63a;" horiz-adv-x="515" 
d="M462 118v-118h-426v90l231 272q64 74 64 137q0 40 -25 62t-61 22t-59.5 -22t-26.5 -62h-124q0 88 63 144t154 56q93 0 155.5 -57.5t62.5 -142.5q0 -42 -19 -86t-36.5 -67.5t-48.5 -60.5l-142 -167h238z" />
    <glyph glyph-name="uniF63B" unicode="&#xf63b;" horiz-adv-x="513" 
d="M183 297v118h51q44 0 70 23t26 65q0 35 -24 57.5t-62 22.5q-36 0 -58.5 -20.5t-27.5 -53.5h-124q4 84 65.5 137t151.5 53q93 0 155.5 -56t62.5 -134q0 -100 -94 -151q104 -51 104 -165q0 -87 -58.5 -144.5t-161.5 -57.5q-107 0 -168.5 53.5t-65.5 140.5h123
q6 -35 31.5 -55.5t70.5 -20.5q41 0 65.5 26t24.5 65q0 97 -106 97h-51z" />
    <glyph glyph-name="uniF63C" unicode="&#xf63c;" horiz-adv-x="545" 
d="M249 690h153l-215 -473h132v176h140v-176h63v-119h-63v-98h-140v98h-306v97z" />
    <glyph glyph-name="uniF63D" unicode="&#xf63d;" horiz-adv-x="526" 
d="M266 355q-48 0 -73 -51h-126v386h393v-127h-256v-118q38 36 102 36q82 0 131 -63t49 -183q0 -244 -216 -244q-91 0 -153.5 49t-70.5 138h138q17 -69 82 -69q80 0 80 119q0 127 -80 127z" />
    <glyph glyph-name="uniF63E" unicode="&#xf63e;" horiz-adv-x="531" 
d="M385 690l-144 -284q27 13 67 13q80 0 134.5 -58.5t54.5 -147.5q0 -110 -64.5 -166t-166.5 -56q-103 0 -168 56t-65 165q0 69 63 197l139 281h150zM173 207q0 -45 24 -71.5t69 -26.5q44 0 67.5 26.5t23.5 71.5q0 44 -23.5 70.5t-67.5 26.5q-45 0 -69 -26.5t-24 -70.5z" />
    <glyph glyph-name="uniF63F" unicode="&#xf63f;" horiz-adv-x="452" 
d="M135 464h-119v226h422v-98l-199 -592h-145l200 571h-159v-107z" />
    <glyph glyph-name="uniF640" unicode="&#xf640;" horiz-adv-x="536" 
d="M33 192q0 56 30 101t73 65q-42 21 -67.5 62.5t-25.5 89.5q0 87 66 138t159 51q94 0 159.5 -50.5t65.5 -138.5q0 -48 -25.5 -89.5t-67.5 -62.5q44 -20 73.5 -65t29.5 -101q0 -93 -67.5 -147t-167.5 -54t-167.5 54t-67.5 147zM173 205q0 -40 27 -68.5t68 -28.5
q40 0 68 28.5t28 68.5q0 43 -29.5 69.5t-66.5 26.5q-38 0 -66.5 -26.5t-28.5 -69.5zM182 496q0 -36 25 -61.5t61 -25.5q35 0 60.5 25.5t25.5 61.5q0 35 -25.5 60t-60.5 25q-36 0 -61 -25t-25 -60z" />
    <glyph glyph-name="uniF641" unicode="&#xf641;" horiz-adv-x="531" 
d="M145 0l145 284q-29 -13 -67 -13q-80 0 -135 58.5t-55 147.5q0 109 65 165.5t167 56.5q103 0 168 -56t65 -165q0 -67 -64 -197l-139 -281h-150zM358 483q0 45 -24 71.5t-69 26.5q-44 0 -68 -26.5t-24 -71.5q0 -44 24 -70.5t68 -26.5q45 0 69 26.5t24 70.5z" />
    <glyph glyph-name="uniF6BA" unicode="&#xf6ba;" horiz-adv-x="319" 
d="M30 289v112h259v-112h-259z" />
    <glyph glyph-name="uniF6BB" unicode="&#xf6bb;" horiz-adv-x="509" 
d="M60 283v124h389v-124h-389z" />
    <glyph glyph-name="uniF6BC" unicode="&#xf6bc;" horiz-adv-x="706" 
d="M20 283v124h666v-124h-666z" />
    <glyph glyph-name="uniF6C3" unicode="&#xf6c3;" horiz-adv-x="332" 
d="M234 -51v-129l-137 -117v246h137z" />
    <glyph glyph-name="uniF6C9" unicode="&#xf6c9;" horiz-adv-x="379" 
d="M76 742l80 129h147l-103 -129h-124z" />
    <glyph glyph-name="uniF6CA" unicode="&#xf6ca;" horiz-adv-x="519" 
d="M312 737h-105l-138 142h133l57 -61l58 61h133z" />
    <glyph glyph-name="uniF6CB" unicode="&#xf6cb;" horiz-adv-x="492" 
d="M82 752v117h124v-117h-124zM285 752v117h124v-117h-124z" />
    <glyph glyph-name="uniF6CE" unicode="&#xf6ce;" horiz-adv-x="404" 
d="M236 871l80 -129h-125l-103 129h148z" />
    <glyph glyph-name="uniF6CF" unicode="&#xf6cf;" horiz-adv-x="590" 
d="M74 742l80 129h148l-103 -129h-125zM278 742l90 129h147l-113 -129h-124z" />
    <glyph glyph-name="uniF6D0" unicode="&#xf6d0;" horiz-adv-x="490" 
d="M84 744v112h322v-112h-322z" />
    <glyph glyph-name="uniF6D1" unicode="&#xf6d1;" horiz-adv-x="455" 
d="M290 879h128q0 -151 -190 -151q-191 0 -191 151h129q0 -30 13.5 -46t48.5 -16t48.5 16t13.5 46z" />
    <glyph glyph-name="uniF6D4" unicode="&#xf6d4;" horiz-adv-x="417" 
d="M259 687h104q0 -67 -41.5 -98t-112.5 -31t-113 31t-42 98h104q0 -55 51 -55q50 0 50 55z" />
    <glyph glyph-name="uniF6DC" unicode="&#xf6dc;" horiz-adv-x="337" 
d="M269 690v-690h-140v544l-99 -65v135l113 76h126z" />
    <glyph glyph-name="uniFEFF" unicode="&#xfeff;" horiz-adv-x="0" 
 />
    <glyph glyph-name="uniF4D3" unicode="&#x1f4d3;" horiz-adv-x="752" 
d="M60 60v815q0 25 18 43t43 18h510q25 0 43 -18t18 -43v-815q0 -25 -18 -42.5t-43 -17.5h-510q-25 0 -43 17.5t-18 42.5zM334 66q0 -17 12 -29t30 -12q17 0 29 12t12 29t-12 29t-29 12q-18 0 -30 -12t-12 -29zM648 823h-544v-691h544v691zM357 879q0 -7 5.5 -12.5
t12.5 -5.5t12.5 5.5t5.5 12.5q0 17 -18 17t-18 -17z" />
    <glyph glyph-name="uniF4F1" unicode="&#x1f4f1;" horiz-adv-x="552" 
d="M60 60v715q0 25 18 43t43 18h310q25 0 43 -18t18 -43v-715q0 -25 -18 -42.5t-43 -17.5h-310q-25 0 -43 17.5t-18 42.5zM234 66q0 -17 12 -29t30 -12q17 0 29 12t12 29t-12 29t-29 12q-18 0 -30 -12t-12 -29zM448 723h-344v-591h344v591zM323 790h-94q-11 0 -11 -12
t11 -12h94q11 0 11 12t-11 12z" />
    <glyph glyph-name="uni2197.ss02" horiz-adv-x="667" 
d="M607 0h-78v367l-414 -414l-55 55l414 414h-367v78h500v-500z" />
    <glyph glyph-name="uni2199.ss02" horiz-adv-x="667" 
d="M60 500h78v-367l414 414l55 -55l-414 -414h367v-78h-500v500z" />
    <glyph glyph-name="a.ss01" horiz-adv-x="517" 
d="M33 217v68q0 107 53.5 165.5t144.5 58.5q65 0 107 -34v25h127v-500h-127v28q-42 -37 -107 -37q-96 0 -147 61.5t-51 164.5zM249 99q50 0 69.5 33t19.5 93v52q0 124 -89 124t-89 -124v-52q0 -126 89 -126z" />
    <glyph glyph-name="uni2198.ss02" horiz-adv-x="667" 
d="M529 500h78v-500h-500v78h367l-414 414l55 55l414 -414v367z" />
    <glyph glyph-name="afii10069.ss01" horiz-adv-x="517" 
d="M465 460v-239q0 -107 -53.5 -168.5t-162.5 -61.5q-106 0 -161 61t-55 169v60q0 111 55 169.5t153 58.5q57 0 97 -24q-4 107 -100 107q-50 0 -106 -35l-58 79q68 63 177 63q214 0 214 -239zM249 99q89 0 89 126v52q0 124 -89 124t-89 -124v-52q0 -60 19.5 -93t69.5 -33z
" />
    <glyph glyph-name="afii10074.ss01" horiz-adv-x="526" 
d="M474 500v-500h-125v42q-17 -27 -42 -39t-72 -12q-83 0 -133.5 46.5t-50.5 150.5v312h128v-293q0 -57 20 -81.5t61 -24.5q87 0 87 105v294h127z" />
    <glyph glyph-name="afii10075.ss01" horiz-adv-x="526" 
d="M474 500v-500h-125v42q-17 -27 -42 -39t-72 -12q-83 0 -133.5 46.5t-50.5 150.5v312h128v-293q0 -57 20 -81.5t61 -24.5q87 0 87 105v294h127zM313 687h104q0 -67 -41.5 -98t-112.5 -31t-113 31t-42 98h104q0 -55 51 -55q50 0 50 55z" />
    <glyph glyph-name="afii10081.ss01" horiz-adv-x="526" 
d="M51 0v500h125v-42q39 51 115 51q83 0 133 -46t50 -150v-313h-127v293q0 57 -20 81.5t-60 24.5q-88 0 -88 -105v-294h-128z" />
    <glyph glyph-name="afii10084.ss01" horiz-adv-x="795" 
d="M461 294v-294h-127v293q0 106 -76 106q-36 0 -57.5 -26.5t-21.5 -78.5v-294h-128v500h125v-42q37 51 111 51q93 0 140 -67q55 67 144 67q83 0 128 -50t45 -146v-313h-128v293q0 106 -77 106q-36 0 -57 -26.5t-21 -78.5z" />
    <glyph glyph-name="uni2193.ss02" horiz-adv-x="826" 
d="M60 246l55 55l259 -259v586h78v-586l259 259l55 -55l-353 -353z" />
    <glyph glyph-name="uni2196.ss02" horiz-adv-x="667" 
d="M138 0h-78v500h500v-78h-367l414 -414l-55 -55l-414 414v-367z" />
    <glyph glyph-name="uni261E.ss02" horiz-adv-x="1061" 
d="M278 51v370l292 215q3 -3 7 -8t12 -21.5t10 -33t-6 -39t-29 -42.5l-74 -71h450q61 0 61 -50t-58 -50h-229v-36q0 -29 -13 -41.5t-41 -12.5v-36q0 -29 -13 -41.5t-41 -12.5v-34q0 -30 -12 -43t-39 -13h-277zM60 421h164v-370h-164v370zM86 396v-319h20v319h-20zM198 77
v319h-20v-319h20zM132 396v-222h20v222h-20zM132 112v-35h20v35h-20z" />
    <glyph glyph-name="uni2191.ss02" horiz-adv-x="826" 
d="M766 276l-55 -55l-259 259v-586h-78v586l-259 -259l-55 55l353 353z" />
    <glyph glyph-name="uni2192.ss02" horiz-adv-x="855" 
d="M442 -92l-55 55l259 259h-586v78h586l-259 259l55 55l353 -353z" />
    <glyph glyph-name="acircumflex.ss01" horiz-adv-x="517" 
d="M33 217v68q0 107 53.5 165.5t144.5 58.5q65 0 107 -34v25h127v-500h-127v28q-42 -37 -107 -37q-96 0 -147 61.5t-51 164.5zM249 99q50 0 69.5 33t19.5 93v52q0 124 -89 124t-89 -124v-52q0 -126 89 -126zM200 710h106l108 -142h-114l-47 65l-47 -65h-114z" />
    <glyph glyph-name="atilde.ss01" horiz-adv-x="517" 
d="M33 217v68q0 107 53.5 165.5t144.5 58.5q65 0 107 -34v25h127v-500h-127v28q-42 -37 -107 -37q-96 0 -147 61.5t-51 164.5zM249 99q50 0 69.5 33t19.5 93v52q0 124 -89 124t-89 -124v-52q0 -126 89 -126zM322 569q-27 0 -64 14.5t-53 14.5q-31 0 -53 -27l-67 64
q48 61 117 61q24 0 62 -14.5t55 -14.5q27 0 51 27l67 -64q-47 -61 -115 -61z" />
    <glyph glyph-name="adieresis.ss01" horiz-adv-x="517" 
d="M33 217v68q0 107 53.5 165.5t144.5 58.5q65 0 107 -34v25h127v-500h-127v28q-42 -37 -107 -37q-96 0 -147 61.5t-51 164.5zM249 99q50 0 69.5 33t19.5 93v52q0 124 -89 124t-89 -124v-52q0 -126 89 -126zM95 573v117h124v-117h-124zM299 573v117h123v-117h-123z" />
    <glyph glyph-name="aring.ss01" horiz-adv-x="517" 
d="M33 217v68q0 107 53.5 165.5t144.5 58.5q65 0 107 -34v25h127v-500h-127v28q-42 -37 -107 -37q-96 0 -147 61.5t-51 164.5zM249 99q50 0 69.5 33t19.5 93v52q0 124 -89 124t-89 -124v-52q0 -126 89 -126zM137 646q0 48 34 79t89 31t89 -31t34 -79t-34 -78.5t-89 -30.5
t-89 30.5t-34 78.5zM223 646q0 -20 10 -32t27 -12q37 0 37 44q0 43 -37 43t-37 -43z" />
    <glyph glyph-name="egrave.ss01" 
d="M343 142l95 -66q-49 -85 -183 -85q-108 0 -165 62.5t-57 163.5v68q0 111 55 167.5t155 56.5q103 0 152.5 -45t49.5 -118q0 -68 -49 -108t-153 -40h-82q9 -99 93 -99q37 0 55 10t34 33zM243 401q-81 0 -83 -108h83q75 0 75 53q0 55 -75 55zM263 725l70 -158h-122l-91 158
h143z" />
    <glyph glyph-name="eacute.ss01" 
d="M343 142l95 -66q-49 -85 -183 -85q-108 0 -165 62.5t-57 163.5v68q0 111 55 167.5t155 56.5q103 0 152.5 -45t49.5 -118q0 -68 -49 -108t-153 -40h-82q9 -99 93 -99q37 0 55 10t34 33zM243 401q-81 0 -83 -108h83q75 0 75 53q0 55 -75 55zM177 567l70 158h143l-91 -158
h-122z" />
    <glyph glyph-name="ecircumflex.ss01" 
d="M343 142l95 -66q-49 -85 -183 -85q-108 0 -165 62.5t-57 163.5v68q0 111 55 167.5t155 56.5q103 0 152.5 -45t49.5 -118q0 -68 -49 -108t-153 -40h-82q9 -99 93 -99q37 0 55 10t34 33zM243 401q-81 0 -83 -108h83q75 0 75 53q0 55 -75 55zM198 710h106l108 -142h-114
l-47 65l-47 -65h-114z" />
    <glyph glyph-name="edieresis.ss01" 
d="M343 142l95 -66q-49 -85 -183 -85q-108 0 -165 62.5t-57 163.5v68q0 111 55 167.5t155 56.5q103 0 152.5 -45t49.5 -118q0 -68 -49 -108t-153 -40h-82q9 -99 93 -99q37 0 55 10t34 33zM243 401q-81 0 -83 -108h83q75 0 75 53q0 55 -75 55zM87 573v117h124v-117h-124z
M291 573v117h123v-117h-123z" />
    <glyph glyph-name="afii10065.ss01" horiz-adv-x="517" 
d="M33 217v68q0 107 53.5 165.5t144.5 58.5q65 0 107 -34v25h127v-500h-127v28q-42 -37 -107 -37q-96 0 -147 61.5t-51 164.5zM249 99q50 0 69.5 33t19.5 93v52q0 124 -89 124t-89 -124v-52q0 -126 89 -126z" />
    <glyph glyph-name="afii10070.ss01" 
d="M343 142l95 -66q-49 -85 -183 -85q-108 0 -165 62.5t-57 163.5v68q0 111 55 167.5t155 56.5q103 0 152.5 -45t49.5 -118q0 -68 -49 -108t-153 -40h-82q9 -99 93 -99q37 0 55 10t34 33zM243 401q-81 0 -83 -108h83q75 0 75 53q0 55 -75 55z" />
    <glyph glyph-name="afii10071.ss01" 
d="M343 142l95 -66q-49 -85 -183 -85q-108 0 -165 62.5t-57 163.5v68q0 111 55 167.5t155 56.5q103 0 152.5 -45t49.5 -118q0 -68 -49 -108t-153 -40h-82q9 -99 93 -99q37 0 55 10t34 33zM243 401q-81 0 -83 -108h83q75 0 75 53q0 55 -75 55zM87 573v117h124v-117h-124z
M291 573v117h123v-117h-123z" />
    <glyph glyph-name="aogonek.ss01" horiz-adv-x="517" 
d="M465 500v-500q-44 -39 -44 -61t27 -22q9 0 19 2l15 -65q-16 -4 -48 -4q-45 0 -77.5 18.5t-32.5 57.5q0 42 35 74h-21v28q-42 -37 -107 -37q-96 0 -147 61.5t-51 164.5v68q0 107 53.5 165.5t144.5 58.5q65 0 107 -34v25h127zM249 99q50 0 69.5 33t19.5 93v52
q0 124 -89 124t-89 -124v-52q0 -126 89 -126z" />
    <glyph glyph-name="abreve.ss01" horiz-adv-x="517" 
d="M33 217v68q0 107 53.5 165.5t144.5 58.5q65 0 107 -34v25h127v-500h-127v28q-42 -37 -107 -37q-96 0 -147 61.5t-51 164.5zM249 99q50 0 69.5 33t19.5 93v52q0 124 -89 124t-89 -124v-52q0 -126 89 -126zM325 690h92q-2 -63 -41 -97.5t-108 -34.5t-108.5 34.5t-41.5 97.5
h93q7 -53 57 -53t57 53z" />
    <glyph glyph-name="eogonek.ss01" 
d="M343 142l95 -66q-32 -57 -102 -76q-17 -15 -24.5 -22.5t-14 -18t-6.5 -20.5q0 -22 27 -22q9 0 19 2l15 -65q-16 -4 -48 -4q-45 0 -77.5 18.5t-32.5 57.5q0 36 28 67q-93 9 -141 70t-48 154v68q0 111 55 167.5t155 56.5q103 0 152.5 -45t49.5 -118q0 -68 -49 -108
t-153 -40h-82q9 -99 93 -99q37 0 55 10t34 33zM243 401q-81 0 -83 -108h83q75 0 75 53q0 55 -75 55z" />
    <glyph glyph-name="ecaron.ss01" 
d="M343 142l95 -66q-49 -85 -183 -85q-108 0 -165 62.5t-57 163.5v68q0 111 55 167.5t155 56.5q103 0 152.5 -45t49.5 -118q0 -68 -49 -108t-153 -40h-82q9 -99 93 -99q37 0 55 10t34 33zM243 401q-81 0 -83 -108h83q75 0 75 53q0 55 -75 55zM300 568h-106l-108 142h114
l47 -65l47 65h114z" />
    <glyph glyph-name="amacron.ss01" horiz-adv-x="517" 
d="M33 217v68q0 107 53.5 165.5t144.5 58.5q65 0 107 -34v25h127v-500h-127v28q-42 -37 -107 -37q-96 0 -147 61.5t-51 164.5zM249 99q50 0 69.5 33t19.5 93v52q0 124 -89 124t-89 -124v-52q0 -126 89 -126zM122 573v111h283v-111h-283z" />
    <glyph glyph-name="emacron.ss01" 
d="M343 142l95 -66q-49 -85 -183 -85q-108 0 -165 62.5t-57 163.5v68q0 111 55 167.5t155 56.5q103 0 152.5 -45t49.5 -118q0 -68 -49 -108t-153 -40h-82q9 -99 93 -99q37 0 55 10t34 33zM243 401q-81 0 -83 -108h83q75 0 75 53q0 55 -75 55zM102 573v111h283v-111h-283z
" />
    <glyph glyph-name="edotaccent.ss01" 
d="M343 142l95 -66q-49 -85 -183 -85q-108 0 -165 62.5t-57 163.5v68q0 111 55 167.5t155 56.5q103 0 152.5 -45t49.5 -118q0 -68 -49 -108t-153 -40h-82q9 -99 93 -99q37 0 55 10t34 33zM243 401q-81 0 -83 -108h83q75 0 75 53q0 55 -75 55zM175 566v124h138v-124h-138z
" />
    <glyph glyph-name="afii10065.var.accented.ss01" horiz-adv-x="517" 
d="M33 217v68q0 107 53.5 165.5t144.5 58.5q65 0 107 -34v25h127v-500h-127v28q-42 -37 -107 -37q-96 0 -147 61.5t-51 164.5zM249 99q50 0 69.5 33t19.5 93v52q0 124 -89 124t-89 -124v-52q0 -126 89 -126zM189 567l70 158h143l-91 -158h-122z" />
    <glyph glyph-name="afii10070.var.accented.ss01" 
d="M343 142l95 -66q-49 -85 -183 -85q-108 0 -165 62.5t-57 163.5v68q0 111 55 167.5t155 56.5q103 0 152.5 -45t49.5 -118q0 -68 -49 -108t-153 -40h-82q9 -99 93 -99q37 0 55 10t34 33zM243 401q-81 0 -83 -108h83q75 0 75 53q0 55 -75 55zM177 567l70 158h143l-91 -158
h-122z" />
    <glyph glyph-name="afii10074.var.accented.ss01" horiz-adv-x="526" 
d="M474 500v-500h-125v42q-17 -27 -42 -39t-72 -12q-83 0 -133.5 46.5t-50.5 150.5v312h128v-293q0 -57 20 -81.5t61 -24.5q87 0 87 105v294h127zM196 567l70 158h143l-91 -158h-122z" />
    <glyph glyph-name="afii10071.var.accented.ss01" 
d="M343 142l95 -66q-49 -85 -183 -85q-108 0 -165 62.5t-57 163.5v68q0 111 55 167.5t155 56.5q103 0 152.5 -45t49.5 -118q0 -68 -49 -108t-153 -40h-82q9 -99 93 -99q37 0 55 10t34 33zM243 401q-81 0 -83 -108h83q75 0 75 53q0 55 -75 55zM171 717l70 158h143l-91 -158
h-122zM73 573v117h124v-117h-124zM277 573v117h123v-117h-123z" />
    <glyph glyph-name="uni04E3.ss01" horiz-adv-x="526" 
d="M474 500v-500h-125v42q-17 -27 -42 -39t-72 -12q-83 0 -133.5 46.5t-50.5 150.5v312h128v-293q0 -57 20 -81.5t61 -24.5q87 0 87 105v294h127zM122 573v111h283v-111h-283z" />
    <glyph glyph-name="afii10193.ss01" horiz-adv-x="526" 
d="M189 -117v112q-138 24 -138 193v312h128v-293q0 -57 20 -81.5t61 -24.5q87 0 87 105v294h127v-500h-125v42q-23 -38 -67 -47v-112h-93z" />
    <glyph glyph-name="uni2190.ss02" horiz-adv-x="855" 
d="M468 -37l-55 -55l-353 353l353 353l55 -55l-259 -259h586v-78h-586z" />
    <glyph glyph-name="aacute.ss01" horiz-adv-x="517" 
d="M33 217v68q0 107 53.5 165.5t144.5 58.5q65 0 107 -34v25h127v-500h-127v28q-42 -37 -107 -37q-96 0 -147 61.5t-51 164.5zM249 99q50 0 69.5 33t19.5 93v52q0 124 -89 124t-89 -124v-52q0 -126 89 -126zM189 567l70 158h143l-91 -158h-122z" />
    <glyph glyph-name="agrave.ss01" horiz-adv-x="517" 
d="M33 217v68q0 107 53.5 165.5t144.5 58.5q65 0 107 -34v25h127v-500h-127v28q-42 -37 -107 -37q-96 0 -147 61.5t-51 164.5zM249 99q50 0 69.5 33t19.5 93v52q0 124 -89 124t-89 -124v-52q0 -126 89 -126zM281 725l70 -158h-122l-91 158h143z" />
    <glyph glyph-name="afii10091.ss01" horiz-adv-x="807" 
d="M724 500v-392h66v-225h-117v117h-74v42q-36 -51 -105 -51q-92 0 -137 66q-52 -66 -137 -66q-81 0 -125 50t-44 146v313h128v-293q0 -56 17.5 -81t55.5 -25q72 0 72 105v294h127v-293q0 -106 72 -106q73 0 73 105v294h128z" />
    <glyph glyph-name="afii10090.ss01" horiz-adv-x="776" 
d="M324 206v294h127v-293q0 -106 72 -106q73 0 73 105v294h128v-500h-125v42q-36 -51 -105 -51q-92 0 -137 66q-52 -66 -137 -66q-81 0 -125 50t-44 146v313h128v-293q0 -56 17.5 -81t55.5 -25q72 0 72 105z" />
    <glyph glyph-name="afii10088.ss01" horiz-adv-x="557" 
d="M474 500v-392h66v-225h-116v117h-75v42q-17 -27 -42 -39t-72 -12q-83 0 -133.5 46.5t-50.5 150.5v312h128v-293q0 -57 20 -81.5t61 -24.5q87 0 87 105v294h127z" />
    <glyph glyph-name="e.ss01" 
d="M343 142l95 -66q-49 -85 -183 -85q-108 0 -165 62.5t-57 163.5v68q0 111 55 167.5t155 56.5q103 0 152.5 -45t49.5 -118q0 -68 -49 -108t-153 -40h-82q9 -99 93 -99q37 0 55 10t34 33zM243 401q-81 0 -83 -108h83q75 0 75 53q0 55 -75 55z" />
    </font>
</defs>
</svg>
