<svg xmlns="http://www.w3.org/2000/svg" viewBox="0 0 1581 737"><defs><style>.cls-1{opacity:0.45;}.cls-2{fill:#fff;}</style></defs><title>Asset 2</title><g id="Layer_2" data-name="Layer 2"><g id="Layer_1-2" data-name="Layer 1"><g class="cls-1"><path class="cls-2" d="M0,0V737H1581V0ZM433,371.75H229.2L151.85,517.84H386.46L366.86,553H91.5L294.82,174.31H562.06l-19.6,35.15h-227l-67,128.22H452.21ZM557.65,553H526l15.68-171h31L559.2,519.12,691.71,382H723Zm353.27-98.71a167.12,167.12,0,0,1-9.84,22.91H760.76l-.64,1.93q-7.92,23.88,1.52,36.29t36.53,12.42a97,97,0,0,0,31.44-5.33,103.23,103.23,0,0,0,28-14.35l5.85,22.26a133.15,133.15,0,0,1-36.63,18.06,131.29,131.29,0,0,1-40.2,6.45q-25.15,0-40.55-9t-19.84-25.8q-4.44-16.77,3-39.36a148.88,148.88,0,0,1,29.52-51.6,146.65,146.65,0,0,1,46.38-35.81q26.36-12.9,53.78-12.9,34.84,0,49.08,19.84T910.92,454.28ZM985.4,553h-31l62.49-119.69,48.35-32.83Zm169.18,0h-31l70.47-136.11h31Zm104.87-191.26a32.07,32.07,0,0,1-11.63,16.12A30.19,30.19,0,0,1,1229.5,384q-8.4,0-12.06-5.48t-1.1-13.23A31.41,31.41,0,0,1,1227.71,350a29.49,29.49,0,0,1,18-6.29q8.38,0,12.27,5.33T1259.45,361.73ZM1443,407.51h-49l-48.53,91a59.76,59.76,0,0,0-4,9q-3.42,10.32.41,15.8T1357,528.8q13.55,0,27.18-8.07l-1.35,23.55q-19,10.65-43.2,10.64-20.33,0-28.95-11.45t-2-31.45a79.64,79.64,0,0,1,5.56-12.9L1363,407.51h-29L1347.22,382h29.35l19.82-37.42h31L1407.54,382h49Zm-3.89-177c-88.44,25.27-116,82.65-221.1,69.48-74.41-9.31-176.88,94.76-176.88,94.76L1161.3,174.31c14.59-24.12,63.36,55.27,194.12,18.87,44.31-12.33,129.42-32.36,196.08,24.2C1551.5,217.38,1474.94,220.26,1439.07,230.51Z"/><path class="cls-2" d="M849.11,406.22q-22.92,0-43.63,12.9t-34,35.49H881.78q8.87-22.91-.28-35.65T849.11,406.22Z"/></g></g></g></svg>