<svg xmlns="http://www.w3.org/2000/svg" viewBox="0 0 600 1300"><defs><style>.cls-1{opacity:0.45;}.cls-2{fill:#fff;}</style></defs><title>Asset 11</title><g id="Layer_2" data-name="Layer 2"><g id="Layer_2-2" data-name="Layer 2"><g class="cls-1"><path class="cls-2" d="M331.75,578.6q-3.27-4.54-11.53-4.54a28.93,28.93,0,0,0-15.53,4.59,36.35,36.35,0,0,0-12.11,12.63h39.27Q335,583.14,331.75,578.6Z"/><path class="cls-2" d="M0,0V1300H600V0ZM495.61,615.74c.9,1.3,2.7,2,5.38,2a19,19,0,0,0,9.68-2.87l-.49,8.38A30.86,30.86,0,0,1,494.81,627q-7.23,0-10.31-4.08t-.71-11.19a29.41,29.41,0,0,1,2-4.59l17.35-32.61H492.79l4.73-9.07H508L515,552.13h11l-7,13.32h17.45l-4.85,9.07H514.14L496.87,606.9a21.31,21.31,0,0,0-1.41,3.21Q494.25,613.78,495.61,615.74Zm34.6-104.22c-31.48,9-41.29,29.42-78.7,24.73-26.48-3.32-63,33.73-63,33.73l42.79-78.47c5.19-8.58,22.55,19.68,69.09,6.72,15.77-4.39,46.07-11.51,69.8,8.61C570.23,506.84,543,507.87,530.21,511.52Zm-78.89,52.67a5.15,5.15,0,0,1-.39-4.7A11.14,11.14,0,0,1,455,554a10.49,10.49,0,0,1,6.42-2.24,5,5,0,0,1,4.37,1.9,4.73,4.73,0,0,1,.5,4.53,11.29,11.29,0,0,1-4.14,5.74,10.69,10.69,0,0,1-6.52,2.19A4.76,4.76,0,0,1,451.32,564.19ZM454,577.86,429,626.3h-11L443,577.86ZM397.16,572,368.73,626.3h-11L380,583.7ZM289.09,612.93q3.35,4.41,13,4.42a34.61,34.61,0,0,0,11.19-1.9,36.59,36.59,0,0,0,10-5.11l2.08,7.92a47.21,47.21,0,0,1-13,6.43A46.52,46.52,0,0,1,298,627q-9,0-14.43-3.21a14.69,14.69,0,0,1-7.06-9.19q-1.59-6,1.08-14a53.08,53.08,0,0,1,10.51-18.37,52.2,52.2,0,0,1,16.51-12.74,43.09,43.09,0,0,1,19.14-4.59q12.4,0,17.47,7.06t1,19.23a59.52,59.52,0,0,1-3.5,8.15h-50l-.23.69Q285.74,608.5,289.09,612.93ZM264.2,565.45h11.13L216.48,626.3H205.23l5.58-60.85h11l-4.8,48.8ZM122.93,491.51h95.12l-7,12.52H130.26l-23.84,45.63H179l-6.85,12.13H99.57L72,613.79h83.51l-7,12.51h-98Z"/></g></g></g></svg>