<svg xmlns="http://www.w3.org/2000/svg" width="301.482" height="266.914" viewBox="0 0 301.482 266.914">
  <g id="Group_78" data-name="Group 78" transform="translate(-4559.518 -981)">
    <circle id="Ellipse_57" data-name="Ellipse 57" cx="95" cy="95" r="95" transform="translate(4671 1021)" fill="#e83b1a"/>
    <path id="Path_805" data-name="Path 805" d="M34.144-8.8H16.192l11.44-16.984c2.992-4.488,7.128-10.824,7.128-18.48,0-10.208-6.776-17.248-15.664-17.248-8.536,0-15.752,6.776-15.752,17.072h9.24c.264-5.456,2.552-8.36,6.072-8.36,3.256,0,5.984,2.816,5.984,8.36,0,4.224-1.32,8.1-4.4,12.76L3.608-7.216V0H34.144Zm42.592-9.064V-42.856c0-12.936-7.744-18.656-16.544-18.656s-16.544,5.72-16.544,18.656v24.992C43.648-4.928,51.392.792,60.192.792S76.736-4.928,76.736-17.864ZM53.768-42.328c0-6.864,1.936-10.384,6.424-10.384s6.424,3.52,6.424,10.384v23.936c0,6.864-1.936,10.384-6.424,10.384s-6.424-3.52-6.424-10.384ZM114.4-8.8H96.448l11.44-16.984c2.992-4.488,7.128-10.824,7.128-18.48,0-10.208-6.776-17.248-15.664-17.248-8.536,0-15.752,6.776-15.752,17.072h9.24c.264-5.456,2.552-8.36,6.072-8.36,3.256,0,5.984,2.816,5.984,8.36,0,4.224-1.32,8.1-4.4,12.76L83.864-7.216V0H114.4Zm40.128,0H136.576l11.44-16.984c2.992-4.488,7.128-10.824,7.128-18.48,0-10.208-6.776-17.248-15.664-17.248-8.536,0-15.752,6.776-15.752,17.072h9.24c.264-5.456,2.552-8.36,6.072-8.36,3.256,0,5.984,2.816,5.984,8.36,0,4.224-1.32,8.1-4.4,12.76L123.992-7.216V0h30.536Z" transform="translate(4686 1144)" fill="#fff"/>
    <g id="Group_54" data-name="Group 54" transform="translate(3177.749 286.193)">
      <g id="Group_53" data-name="Group 53" transform="translate(1499.198 694.807)">
        <g id="Group_44" data-name="Group 44" transform="translate(4.975)">
          <g id="Group_39" data-name="Group 39" transform="translate(0 14.839)">
            <path id="Path_769" data-name="Path 769" d="M1548.8,760.844c-28.777-3.761-39.789-14.013-34.69-21.768C1519.4,731.03,1533.076,736.909,1548.8,760.844Z" transform="translate(-1512.903 -735.683)" fill="#fff"/>
            <path id="Path_770" data-name="Path 770" d="M1520.313,736.622h0c6.9,0,16.746,8.561,26.543,23.005-20.435-2.984-30.148-9.222-32.418-14.178a5.736,5.736,0,0,1,.454-5.858,6.172,6.172,0,0,1,5.421-2.969m0-.94a7.106,7.106,0,0,0-6.206,3.393c-5.1,7.755,5.914,18.007,34.69,21.768-11.359-17.294-21.652-25.162-28.484-25.161Z" transform="translate(-1512.903 -735.683)" fill="#333"/>
          </g>
          <g id="Group_40" data-name="Group 40" transform="translate(2.769 40)">
            <path id="Path_771" data-name="Path 771" d="M1553.655,804.995c-12.469,26.2-25.622,33.511-31.422,26.265C1516.215,823.743,1526.034,812.55,1553.655,804.995Z" transform="translate(-1520.531 -804.995)" fill="#fff"/>
            <path id="Path_772" data-name="Path 772" d="M1551.9,806.465c-9.627,19.492-18.823,26.5-24.321,26.5a5.694,5.694,0,0,1-4.611-2.29,6.172,6.172,0,0,1-1.149-6.075c2.133-6.561,13.318-13.28,30.082-18.134m1.756-1.47c-27.621,7.555-37.44,18.748-31.422,26.265a6.629,6.629,0,0,0,5.344,2.642c6.738,0,16.605-9,26.077-28.908Z" transform="translate(-1520.531 -804.995)" fill="#333"/>
          </g>
          <g id="Group_41" data-name="Group 41" transform="translate(35.737 40)">
            <path id="Path_773" data-name="Path 773" d="M1611.5,804.995c21.07,19.957,23.955,34.724,15.27,38C1617.764,846.4,1610.153,833.6,1611.5,804.995Z" transform="translate(-1611.347 -804.995)" fill="#fff"/>
            <path id="Path_774" data-name="Path 774" d="M1612.358,807.12c14.779,14.426,18.97,25.181,17.894,30.525a5.736,5.736,0,0,1-3.811,4.473,6.959,6.959,0,0,1-2.454.475,6.747,6.747,0,0,1-4.923-2.358c-4.811-5.044-7.229-17.049-6.706-33.115m-.855-2.125c-1.209,25.6,4.759,38.537,12.485,38.537a7.87,7.87,0,0,0,2.785-.536c8.685-3.277,5.8-18.044-15.27-38Z" transform="translate(-1611.347 -804.995)" fill="#333"/>
          </g>
          <g id="Group_42" data-name="Group 42" transform="translate(35.893 29.928)">
            <path id="Path_775" data-name="Path 775" d="M1611.777,787.322c25.492-13.871,40.426-12.051,40.86-2.779C1653.087,794.162,1638.564,797.446,1611.777,787.322Z" transform="translate(-1611.777 -777.25)" fill="#fff"/>
            <path id="Path_776" data-name="Path 776" d="M1642.036,778.189h0c3.5,0,9.4.831,9.663,6.4a6.18,6.18,0,0,1-1.667,4.743c-2.022,2.119-5.807,3.238-10.945,3.238-6.612,0-15.231-1.864-25.025-5.4,11.059-5.8,20.938-8.976,27.974-8.977m0-.939c-6.986,0-17.247,2.992-30.258,10.072,11.391,4.305,20.563,6.185,27.311,6.185,9.12,0,13.808-3.436,13.55-8.964-.212-4.54-3.9-7.293-10.6-7.293Z" transform="translate(-1611.777 -777.25)" fill="#333"/>
          </g>
          <g id="Group_43" data-name="Group 43" transform="translate(33.952)">
            <path id="Path_777" data-name="Path 777" d="M1608.373,734.807c-5.316-28.53,1.031-42.171,9.983-39.719C1627.643,697.633,1626.278,712.46,1608.373,734.807Z" transform="translate(-1606.431 -694.807)" fill="#fff"/>
            <path id="Path_778" data-name="Path 778" d="M1616.354,695.746h0a6.657,6.657,0,0,1,1.754.247,6.173,6.173,0,0,1,4.5,4.24c2.13,6.562-2.968,18.571-13.677,32.352-2.766-16.237-1.788-29,2.682-34.384a6.06,6.06,0,0,1,4.742-2.455m0-.939c-7.851,0-12.89,13.65-7.981,40,17.905-22.347,19.27-37.174,9.983-39.719a7.572,7.572,0,0,0-2-.281Z" transform="translate(-1606.431 -694.807)" fill="#333"/>
          </g>
        </g>
        <g id="Group_45" data-name="Group 45" transform="translate(35.593 34.724)">
          <circle id="Ellipse_55" data-name="Ellipse 55" cx="5.276" cy="5.276" r="5.276" fill="#fff"/>
          <path id="Path_779" data-name="Path 779" d="M1602.523,791.4a4.336,4.336,0,1,1-4.337,4.336,4.341,4.341,0,0,1,4.337-4.336m0-.939a5.276,5.276,0,1,0,5.276,5.275,5.276,5.276,0,0,0-5.276-5.275Z" transform="translate(-1597.247 -790.463)" fill="#333"/>
        </g>
        <g id="Group_51" data-name="Group 51" transform="translate(0 1.464)">
          <g id="Group_46" data-name="Group 46" transform="translate(40.869 38.536)">
            <path id="Path_780" data-name="Path 780" d="M1611.78,804.995c28.776,3.762,39.789,14.013,34.69,21.769C1641.181,834.809,1627.5,828.93,1611.78,804.995Z" transform="translate(-1611.78 -804.995)" fill="#fff"/>
            <path id="Path_781" data-name="Path 781" d="M1613.721,806.211c20.435,2.984,30.148,9.222,32.418,14.178a5.736,5.736,0,0,1-.454,5.858,6.173,6.173,0,0,1-5.421,2.969c-6.9,0-16.746-8.561-26.544-23.006m-1.941-1.216c11.359,17.294,21.652,25.161,28.484,25.161a7.105,7.105,0,0,0,6.206-3.393c5.1-7.755-5.914-18.007-34.69-21.769Z" transform="translate(-1611.78 -804.995)" fill="#333"/>
          </g>
          <g id="Group_47" data-name="Group 47" transform="translate(40.87 9.629)">
            <path id="Path_782" data-name="Path 782" d="M1611.782,754.271c12.469-26.2,25.622-33.511,31.422-26.265C1649.222,735.523,1639.4,746.717,1611.782,754.271Z" transform="translate(-1611.782 -725.364)" fill="#fff"/>
            <path id="Path_783" data-name="Path 783" d="M1637.86,726.3h0a5.694,5.694,0,0,1,4.611,2.29,6.172,6.172,0,0,1,1.149,6.075c-2.133,6.561-13.317,13.28-30.082,18.134,9.626-19.491,18.824-26.5,24.322-26.5m0-.939c-6.738,0-16.605,9-26.077,28.907,27.621-7.554,37.44-18.748,31.422-26.265a6.628,6.628,0,0,0-5.345-2.642Z" transform="translate(-1611.782 -725.364)" fill="#333"/>
          </g>
          <g id="Group_48" data-name="Group 48" transform="translate(21.014)">
            <path id="Path_784" data-name="Path 784" d="M1576.94,737.375c-21.07-19.957-23.955-34.723-15.27-38C1570.68,695.974,1578.291,708.771,1576.94,737.375Z" transform="translate(-1557.084 -698.839)" fill="#fff"/>
            <path id="Path_785" data-name="Path 785" d="M1564.458,699.778h0a6.744,6.744,0,0,1,4.921,2.357c4.812,5.044,7.229,17.05,6.707,33.115-14.778-14.425-18.97-25.181-17.894-30.524a5.737,5.737,0,0,1,3.811-4.473,6.973,6.973,0,0,1,2.455-.475m0-.939a7.872,7.872,0,0,0-2.786.536c-8.685,3.277-5.8,18.043,15.27,38,1.209-25.6-4.759-38.538-12.484-38.536Z" transform="translate(-1557.084 -698.839)" fill="#333"/>
          </g>
          <g id="Group_49" data-name="Group 49" transform="translate(0 32.351)">
            <path id="Path_786" data-name="Path 786" d="M1540.068,794.142c-25.492,13.872-40.426,12.051-40.86,2.779C1498.758,787.3,1513.281,784.019,1540.068,794.142Z" transform="translate(-1499.198 -787.957)" fill="#fff"/>
            <path id="Path_787" data-name="Path 787" d="M1512.758,788.9h0c6.611,0,15.23,1.864,25.024,5.4-11.06,5.8-20.938,8.977-27.973,8.977-3.5,0-9.4-.831-9.664-6.4a6.178,6.178,0,0,1,1.666-4.742c2.022-2.119,5.807-3.239,10.946-3.239m0-.939c-9.12,0-13.808,3.436-13.549,8.964.212,4.54,3.9,7.293,10.6,7.293,6.986,0,17.248-2.993,30.258-10.072-11.391-4.3-20.563-6.185-27.31-6.185Z" transform="translate(-1499.198 -787.957)" fill="#333"/>
          </g>
          <g id="Group_50" data-name="Group 50" transform="translate(25.229 38.536)">
            <path id="Path_788" data-name="Path 788" d="M1584.337,804.995c5.316,28.53-1.031,42.172-9.983,39.719C1565.067,842.17,1566.432,827.342,1584.337,804.995Z" transform="translate(-1568.698 -804.995)" fill="#fff"/>
            <path id="Path_789" data-name="Path 789" d="M1583.78,807.217c2.766,16.237,1.788,29-2.682,34.384a6.06,6.06,0,0,1-4.741,2.454,6.66,6.66,0,0,1-1.754-.247,6.174,6.174,0,0,1-4.5-4.24c-2.13-6.562,2.968-18.571,13.678-32.352m.558-2.222c-17.905,22.347-19.27,37.175-9.983,39.719a7.567,7.567,0,0,0,2,.281c7.852,0,12.89-13.65,7.981-40Z" transform="translate(-1568.698 -804.995)" fill="#333"/>
          </g>
        </g>
        <g id="Group_52" data-name="Group 52" transform="translate(35.593 34.724)">
          <circle id="Ellipse_56" data-name="Ellipse 56" cx="5.276" cy="5.276" r="5.276" fill="#fff"/>
          <path id="Path_790" data-name="Path 790" d="M1602.523,791.4a4.336,4.336,0,1,1-4.337,4.336,4.341,4.341,0,0,1,4.337-4.336m0-.939a5.276,5.276,0,1,0,5.276,5.275,5.276,5.276,0,0,0-5.276-5.275Z" transform="translate(-1597.247 -790.463)" fill="#333"/>
        </g>
      </g>
    </g>
    <g id="Group_57" data-name="Group 57" transform="translate(4923.635 425.109)">
      <path id="Path_792" data-name="Path 792" d="M-136.7,776.449c2.361-.975,4.931-.73,7.437-.436-.878-.35-1.725-.747-2.555-1.135-.365-.17-.729-.341-1.1-.506-3.237-1.468-6.413-2.691-9.681-1.56-3.829,1.324-7.211,4.495-9.729,7.11a2.4,2.4,0,0,0-.24.317,4.168,4.168,0,0,1-.6.72c-4.733,4.334-14.18,8.962-20.8,3.958a22.32,22.32,0,0,1-4.972-5.811c-3.861-5.922-8.431-11.088-15.643-8.827a4.239,4.239,0,0,0-.552.237,7.063,7.063,0,0,1-.728.315c-.1.036-.235.089-.384.148a4.746,4.746,0,0,1-2.222.532,1.15,1.15,0,0,1-.9-.7c-.49-1.2.576-2.153,1.149-2.665.093-.083.178-.155.234-.216a8.766,8.766,0,0,1,1.113-.972,4.633,4.633,0,0,0,1.079-1.023c2.523-3.934,2.586-7.817.182-11.228-3.7-5.25-12.642-8.343-19.529-6.749-3.349.774-7.544,2.948-8.5,8.908l-.705,4.381a1.143,1.143,0,0,1-1.311.953,1.149,1.149,0,0,1-.961-1.3c.556-3.752,1.187-8-.075-11.745a18.487,18.487,0,0,0-5.013-7.212,38.544,38.544,0,0,0-35.646-9.343c-5.836,1.51-10.614,4.617-15.037,9.777-2.847,3.322-6.274,7.8-7.519,13.011-1.808,7.569,1.343,16.149,7.842,21.351,6.083,4.868,14.672,6.679,22.975,4.842a24.385,24.385,0,0,0,6.362-2.319,21.574,21.574,0,0,1,3.478-2.44c.26-.237.519-.474.758-.724,5.291-5.539,4.516-14.361.764-19.358-3.315-4.414-8.226-5.377-13.473-2.644-1.634.851-3.549,2.674-3.891,4.667a3.118,3.118,0,0,0,.9,2.8,1.149,1.149,0,0,1-.056,1.625,1.149,1.149,0,0,1-1.624-.056,5.419,5.419,0,0,1-1.486-4.753c.476-2.78,2.9-5.176,5.1-6.318,6.254-3.254,12.374-2.02,16.372,3.3,3.729,4.965,4.873,13.229,1.169,19.52a29.793,29.793,0,0,1,12.686-.886c5.07.65,11.833,3.671,14.21,10.046,2.551,6.839-1.574,14.01-6.751,17.284a13.538,13.538,0,0,1-11.677,1.239,8.134,8.134,0,0,1-5.007-5.928c-.99-4.338,1.585-8.8,5.622-9.75a6.528,6.528,0,0,1,5.594.855,4.007,4.007,0,0,1,1.39,3.438,3.815,3.815,0,0,1-1.7,2.916,3.288,3.288,0,0,1-2.946.442,1.15,1.15,0,0,1-.7-1.467,1.15,1.15,0,0,1,1.466-.7,1.058,1.058,0,0,0,.9-.18,1.507,1.507,0,0,0,.684-1.112,1.793,1.793,0,0,0-.561-1.566,4.436,4.436,0,0,0-3.6-.387c-3.126.733-4.543,4.211-3.907,7a5.845,5.845,0,0,0,3.643,4.315,11.1,11.1,0,0,0,9.571-1.057c4.413-2.79,7.954-8.834,5.826-14.538-2.019-5.415-7.913-8-12.348-8.569-6.5-.834-11.673.3-15.6,2.459a20.007,20.007,0,0,1-3.425,2.389,18.379,18.379,0,0,0-4.85,6.633c-3.088,7.281-1.2,17.264,3.939,24.316a1.108,1.108,0,0,1,.289.137,1.143,1.143,0,0,1,.5.883,22.691,22.691,0,0,0,4.269,4.1c6.839,4.969,18.112,6.124,25.133,2.574a26.094,26.094,0,0,0,11.633-12.832,12.1,12.1,0,0,1-3.4-1.627,9.05,9.05,0,0,1-3.992-7.144A1.15,1.15,0,0,1-216.669,797h0a1.15,1.15,0,0,1,1.15,1.146,6.729,6.729,0,0,0,3.013,5.269,11.873,11.873,0,0,0,6.377,1.9c5.451.215,10.5-2.084,15.915-7.217a1.148,1.148,0,0,1,1.625.044,1.15,1.15,0,0,1-.045,1.625c-5.575,5.282-11.091,7.859-16.839,7.859-.247,0-.5-.005-.744-.014a17.976,17.976,0,0,1-1.834-.17c-.831,3.794,3.006,7.476,5.573,9.14a17.2,17.2,0,0,0,15.275,1.2c4.8-1.847,8.956-6.106,11.725-12a9,9,0,0,1-2.2-6.889c.349-2.944,2.473-6.13,7.383-6.241a5.874,5.874,0,0,1,4.335,1.827c1.342,1.438,1.9,3.5,1.655,6.115a1.158,1.158,0,0,1-1.251,1.038,1.149,1.149,0,0,1-1.038-1.251,5.423,5.423,0,0,0-1.047-4.335,3.587,3.587,0,0,0-2.6-1.1c-4.21.1-5.006,2.979-5.153,4.214a6.585,6.585,0,0,0,4.78,7c4.432,1.176,11.483-.392,14.513-4.524a3.333,3.333,0,0,0,.408-2.915,7.64,7.64,0,0,1,.011-3.278c.8-3.075,3.576-2.922,5.231-2.832.541.03,1.04.029,1.62.063a4.054,4.054,0,0,0,1.124-.024c2.287-.681,2.857-2.891,3.465-6.185.16-.864.31-1.68.523-2.453A11.258,11.258,0,0,1-136.7,776.449Z" fill="#ebebeb"/>
      <path id="Path_793" data-name="Path 793" d="M-258.3,786.849a20.291,20.291,0,0,1,2.021-3.646c-.748.229-1.509.441-2.3.617-8.977,1.984-18.288,0-24.907-5.293a24.837,24.837,0,0,1-7.8-10.955c-5.8.109-10.931,1.7-14.477,4.533-4.516,3.607-8.577,10.653-7.605,17.142a12.258,12.258,0,0,0,4.438,7.69c3.373,2.685,9.849,3.426,14.145,1.618a6.636,6.636,0,0,0,4.441-5.661,6.139,6.139,0,0,0-4.542-6.477A5.222,5.222,0,0,0-301.3,789.2a1.15,1.15,0,0,1-1.545.506,1.15,1.15,0,0,1-.506-1.545,7.492,7.492,0,0,1,9.106-3.953,8.412,8.412,0,0,1,6.182,8.915,9,9,0,0,1-5.836,7.548,16.421,16.421,0,0,1-6.294,1.167,16.86,16.86,0,0,1-10.175-3.106,14.581,14.581,0,0,1-5.279-9.148,15.95,15.95,0,0,1-.075-3.972,14.106,14.106,0,0,0-16.107.261,22.059,22.059,0,0,0-4.861,5.71c-1.881,2.779-3.826,5.654-7.1,7.3a13.44,13.44,0,0,1-5.06,1.132,12.021,12.021,0,0,1-6.433-1.409c-.731-.324-1.486-.659-2.34-.953-.325-.111-.637-.236-.948-.36a6.079,6.079,0,0,0-2.071-.57,10.053,10.053,0,0,0-3.244.355l-.224.064c3.225,1.145,4.839,4.731,5.742,6.735,2.157,4.8,4.5,7.824,9.52,8.108,4.585.259,8.127-2.05,11.871-4.495a41.464,41.464,0,0,1,6.357-3.632,15.087,15.087,0,0,1,1.817-.629,1.134,1.134,0,0,1,.563-.289,13.7,13.7,0,0,1,2.585-.244c5.181-.275,9.924,2.3,14.545,4.822,3.55,1.937,7.22,3.939,10.936,4.482,5.731.838,11.362-.665,15.077-4.018a1.148,1.148,0,0,1,1.623.083,1.149,1.149,0,0,1-.083,1.623,20.172,20.172,0,0,1-13.517,4.838,23.749,23.749,0,0,1-3.432-.251c-4.09-.6-7.914-2.671-11.613-4.689.734.706,1.429,1.407,2.086,2.07,1.034,1.043,2.01,2.028,2.9,2.8.514.444,1.009.878,1.491,1.3,3.861,3.388,6.65,5.837,11.771,6.771a18.413,18.413,0,0,0,10.007-1.034c3.19-1.3,5-3.431,7.1-5.893.37-.434.747-.878,1.141-1.327l0,0a1.149,1.149,0,0,1,1.622-.107,1.146,1.146,0,0,1,.372,1.074,16.508,16.508,0,0,0,3.291,2.707c5.884,3.893,12.333.465,16.169-4.581C-259.787,805.68-261.739,794.949-258.3,786.849Z" fill="#ebebeb"/>
    </g>
  </g>
</svg>
