<svg xmlns="http://www.w3.org/2000/svg" width="443.415" height="288.507" viewBox="0 0 443.415 288.507">
  <path id="Union_1" data-name="Union 1" d="M0,287.47V74.731L181.134,0,363.786,68.014l-2.443,6.56L181.265,7.519,7,79.416V280.471H435.415V216.388H207.045v-7h235.37V287.47Zm71.224-31.561c-.084,0-.133-.01-.149-.031a.276.276,0,0,1-.023-.141l.032-2.867v-2.148a15.891,15.891,0,0,1-2.078,1.554,1.1,1.1,0,0,1-.352.18q-.1,0-.3-.367a3.4,3.4,0,0,0-.734-.993,11.61,11.61,0,0,0,3.664-2.726H70.232l-2.016.031c-.084,0-.133-.01-.148-.031a.377.377,0,0,1-.023-.165v-.968a.285.285,0,0,1,.032-.172.271.271,0,0,1,.14-.023l2.016.032h2.023q.305-.5.508-.914h-.594l-2.2.039c-.12,0-.179-.054-.179-.164v-.977c0-.083.01-.132.032-.148a.293.293,0,0,1,.148-.023l2.2.031h1.125l.282-.883H71.24l-2.14.032c-.084,0-.133-.011-.149-.032a.271.271,0,0,1-.023-.14v-1.008c0-.088.011-.14.032-.157a.271.271,0,0,1,.14-.023l2.14.032H73.88a7.2,7.2,0,0,0,.172-1.422c0-.083,0-.158-.007-.227q.9.078,1.571.18c.213.047.319.12.319.219a.474.474,0,0,1-.132.32,3.072,3.072,0,0,0-.258.93h3.4l2.156-.032a.248.248,0,0,1,.157.032.3.3,0,0,1,.023.148v1.008c0,.083-.013.132-.039.148a.251.251,0,0,1-.141.023l-2.156-.032H75.224q-.132.531-.249.883h3.117l2.211-.031c.083,0,.132.011.148.031a.271.271,0,0,1,.023.14v.977c0,.11-.058.164-.172.164l-2.211-.039h-.7a8.232,8.232,0,0,0,.531.914h2.11l2-.032c.094,0,.148.013.165.039a.322.322,0,0,1,.023.157v.968a.283.283,0,0,1-.032.172.309.309,0,0,1-.157.023l-2-.031H78.9a10.409,10.409,0,0,0,3.734,2.562,4.638,4.638,0,0,0-.718,1.125q-.188.367-.289.367a.829.829,0,0,1-.352-.164,13.406,13.406,0,0,1-2.2-1.617v2.132l.031,2.852c0,.1-.057.157-.172.157H77.677c-.12,0-.179-.052-.179-.157V255.1H72.67v.64c0,.084-.013.133-.039.148a.311.311,0,0,1-.157.023Zm1.445-2.078H77.5v-1.055H72.67Zm0-2.257H77.5V250.6H72.67Zm-.2-2.258h5.313a9.713,9.713,0,0,1-.719-.945H73.209Q72.92,248.783,72.474,249.315Zm1.539-2.242h2.273q-.2-.352-.453-.914h-1.36A10.143,10.143,0,0,1,74.013,247.073Zm173.857,8.788c-.121,0-.18-.054-.18-.164l.039-2.414v-1.023l-.039-1.5c0-.088.011-.14.031-.157a.3.3,0,0,1,.148-.023l1.453.032h1.219l1.477-.032c.1,0,.157.06.157.18l-.031,1.227v2.437a5.127,5.127,0,0,0,3.039-2.078,6.513,6.513,0,0,0,.867-3.063q.031-.4.031-.718a7.039,7.039,0,0,0-.047-.8,11.156,11.156,0,0,1,1.531.157q.305.054.305.211a.517.517,0,0,1-.094.289,2.765,2.765,0,0,0-.18.953,6.114,6.114,0,0,0,1.679,3.344,6.712,6.712,0,0,0,2.532,1.571,5.274,5.274,0,0,0-.656,1.125q-.188.4-.305.4a1.254,1.254,0,0,1-.367-.14,7.13,7.13,0,0,1-3.406-3.719,6.3,6.3,0,0,1-3.507,3.75,1.813,1.813,0,0,1-.367.109c-.089,0-.2-.132-.337-.4a3.821,3.821,0,0,0-.718-.977c.005.282.013.529.023.742q.008.2.008.211c0,.121-.052.18-.157.18h-1.156c-.083,0-.132-.01-.148-.032a.3.3,0,0,1-.023-.148v-.429H249.2v.734c0,.11-.059.164-.179.164Zm1.327-2.21h1.492v-1.711H249.2Zm-192.272,2.2c-.084,0-.133-.011-.148-.031a.32.32,0,0,1-.023-.157l.031-2.21v-5.633H55.075a21.314,21.314,0,0,1-.414,4.625,9.318,9.318,0,0,1-1.383,3.039q-.227.3-.336.3a.927.927,0,0,1-.352-.227,3.53,3.53,0,0,0-1.039-.64,7.783,7.783,0,0,0,1.648-3.243,22.455,22.455,0,0,0,.32-4.609v-1.742q0-1.6-.094-2.734a7.958,7.958,0,0,1,1.469.383,11.052,11.052,0,0,0,2.774-1.11,4.419,4.419,0,0,0,.843-.586,6.369,6.369,0,0,1,1.047,1.133.535.535,0,0,1,.11.305c0,.109-.081.174-.242.2a1.948,1.948,0,0,0-.625.187,17.149,17.149,0,0,1-3.726,1.312v1.953h2.734l2.18-.031c.083,0,.132.01.148.031a.278.278,0,0,1,.023.141v1.172c0,.083-.011.132-.031.148a.271.271,0,0,1-.14.023l-.212-.008q-.625-.016-1.406-.023v5.633l.032,2.21a.269.269,0,0,1-.032.165.209.209,0,0,1-.125.023Zm170.278-.008c-.089,0-.14-.011-.157-.031a.271.271,0,0,1-.023-.14q0-.07.023-1.172.062-3.352.086-6.094a14.35,14.35,0,0,1-1.805,3.664c-.114.157-.2.235-.257.235s-.11-.086-.157-.258a5.172,5.172,0,0,0-.578-1.352,13.747,13.747,0,0,0,2.609-4.867h-.367l-1.648.031c-.084,0-.136-.01-.157-.031a.271.271,0,0,1-.023-.14v-1.172c0-.083.011-.132.032-.148a.3.3,0,0,1,.148-.023l1.648.031h.509v-.993a14.484,14.484,0,0,0-.125-2.179q.906.023,1.594.109c.172.021.257.076.257.164a.953.953,0,0,1-.094.337,6.075,6.075,0,0,0-.11,1.554v1.008l1.664-.031c.084,0,.133.011.148.031a.262.262,0,0,1,.023.14v1.172c0,.084-.01.133-.031.148a.268.268,0,0,1-.141.023l-1.57-.031a11.568,11.568,0,0,0,2.11,3.055,6.215,6.215,0,0,0-.6,1.234c-.078.172-.139.258-.18.258s-.122-.076-.227-.227a9.792,9.792,0,0,1-1.242-2.383q.008,2.727.063,5.711.015.632.039,1.664.008.46.008.531c0,.084-.011.133-.032.148a.3.3,0,0,1-.148.023Zm-112.812-.015c-.1,0-.157-.06-.157-.18l.032-2.43v-5.555q-.383.509-.93,1.133-.188.211-.289.211c-.058,0-.115-.091-.172-.273a4.5,4.5,0,0,0-.532-1.375,14.584,14.584,0,0,0,3.024-5.1,5.192,5.192,0,0,0,.257-1.117,12,12,0,0,1,1.586.477c.162.073.242.153.242.242a.359.359,0,0,1-.164.289,1.525,1.525,0,0,0-.336.641,22.119,22.119,0,0,1-1.055,2.32v8.109l.032,2.43c0,.12-.055.18-.165.18ZM48.676,255.8c-.083,0-.132-.014-.149-.04a.245.245,0,0,1-.023-.14q0-.132.032-1.422.023-1.164.031-2.273a13.487,13.487,0,0,1-2.078,2.587c-.167.15-.279.226-.337.226-.088,0-.174-.106-.257-.32a4.453,4.453,0,0,0-.625-1.07A9.81,9.81,0,0,0,48.1,250.5h-.4l-1.938.031c-.083,0-.132-.01-.149-.031a.293.293,0,0,1-.023-.148v-1.133c0-.084.011-.133.032-.148a.271.271,0,0,1,.14-.023l1.938.031h.836v-.29q0-.64-.015-.882h-.93l-1.969.031c-.1,0-.156-.057-.156-.172v-1.156c0-.115.051-.172.156-.172l1.969.031h2.062a10.42,10.42,0,0,0,.609-1.523,2.739,2.739,0,0,0,.11-.7c.219.042.474.1.766.172.369.1.578.154.625.165.131.041.2.117.2.226a.317.317,0,0,1-.125.242.956.956,0,0,0-.242.367q-.3.672-.5,1.055l1.734-.031c.083,0,.132.01.149.031a.275.275,0,0,1,.023.141v1.156c0,.084-.011.133-.032.148a.262.262,0,0,1-.14.023l-1.969-.031h-.734a5,5,0,0,0-.039.882v.29h.546l1.922-.031c.083,0,.132.01.148.031a.271.271,0,0,1,.023.14v1.133c0,.088-.011.14-.031.156a.271.271,0,0,1-.14.023l-1.922-.031H50.52a7.527,7.527,0,0,0,2.047,1.68A5.288,5.288,0,0,0,52,253.206c-.067.172-.13.257-.187.257q-.117,0-.336-.226a8.055,8.055,0,0,1-1.43-1.664q.016,1.335.055,2.781.031,1.094.031,1.265c0,.084-.013.136-.039.157a.32.32,0,0,1-.157.023Zm182.685-.031c-.114,0-.172-.055-.172-.164l.032-6.047V246.4l-.032-4.328c0-.088.01-.14.032-.156a.259.259,0,0,1,.14-.024l1.968.031H236.4l1.953-.031c.084,0,.133.011.148.031a.3.3,0,0,1,.023.149l-.031,3.8v3.672l.031,6.016c0,.109-.058.164-.172.164h-1.32c-.1,0-.157-.055-.157-.164v-.734h-4.023v.781c0,.078-.014.125-.04.14a.318.318,0,0,1-.156.023Zm1.492-2.484h4.023v-2.313h-4.023Zm0-3.82h4.023v-2.227h-4.023Zm0-3.734h4.023v-2.266h-4.023Zm-95.179,9.077a1.873,1.873,0,0,1-.742-1.531,1.946,1.946,0,0,1,.992-1.7,3.969,3.969,0,0,1,2.211-.571c.52,0,1.031.021,1.531.062q-.062-1.5-.078-1.906-.671.016-1.21.016-1.125,0-2.086-.086c-.156,0-.242-.088-.257-.265a8.013,8.013,0,0,1-.094-1.359,21.446,21.446,0,0,0,2.578.148c.333,0,.675-.008,1.023-.023l-.031-1.836q-.953.031-1.61.031a19.994,19.994,0,0,1-2.218-.109.238.238,0,0,1-.274-.227q-.07-.586-.109-1.437a40.958,40.958,0,0,0,4.195.157q0-.462-.031-1.555a4.978,4.978,0,0,0-.2-1.07,9.476,9.476,0,0,1,2.016.289.293.293,0,0,1,.227.305.335.335,0,0,1-.047.172,1.957,1.957,0,0,0-.242.773c-.005.12-.011.281-.016.484-.005.235-.01.414-.015.539a28.8,28.8,0,0,0,3.5-.484.527.527,0,0,1,.117-.015q.14,0,.157.211a8.586,8.586,0,0,1,.077,1.164c0,.157-.057.242-.172.258a34.234,34.234,0,0,1-3.695.414l.015,1.813q.726-.047,3.133-.414a.517.517,0,0,1,.132-.023c.073,0,.115.049.125.148q.047.914.047,1.312c0,.135-.08.211-.242.227q-1.679.273-3.133.382.07,1.617.11,2.258a14.573,14.573,0,0,1,4.242,1.93.333.333,0,0,1,.141.226.673.673,0,0,1-.031.157,3.6,3.6,0,0,1-.7,1.188.246.246,0,0,1-.2.124.251.251,0,0,1-.18-.077,12.826,12.826,0,0,0-3.18-1.821,2.151,2.151,0,0,1-.922,1.938,4.405,4.405,0,0,1-2.328.492A3.967,3.967,0,0,1,137.674,254.807Zm.813-1.57q0,.718,1.586.718a1.779,1.779,0,0,0,1.454-.476,1.664,1.664,0,0,0,.172-.9,6.478,6.478,0,0,0-1.484-.187Q138.487,252.393,138.487,253.238Zm160.386,1.906q-.18-.813-.641-2.672l-.758-2.961-.938.242a10.928,10.928,0,0,0-1.766.626,1.054,1.054,0,0,1-.289.077c-.1,0-.193-.076-.266-.226a9.289,9.289,0,0,1-.562-1.407,21.56,21.56,0,0,0,2.43-.531l.96-.258-.351-1.344a6.733,6.733,0,0,0-.656-1.617q1.444-.171,1.867-.172.344,0,.344.25a.42.42,0,0,1-.007.07,1.94,1.94,0,0,0-.023.313,3.586,3.586,0,0,0,.124.835l.305,1.2,3.469-.883a1.977,1.977,0,0,0,.8-.351.269.269,0,0,1,.188-.094.5.5,0,0,1,.273.14,7.307,7.307,0,0,1,.946.8.355.355,0,0,1,.125.242.5.5,0,0,1-.18.32,1.438,1.438,0,0,0-.25.336,21.29,21.29,0,0,1-1.8,3.008.342.342,0,0,1-.242.14.527.527,0,0,1-.242-.077,4.65,4.65,0,0,0-1.282-.485,11.035,11.035,0,0,0,1.7-2.445l-3.086.813.734,2.9q.132.477.406,1.476.212.759.328,1.211a.583.583,0,0,1,.023.148.3.3,0,0,1-.227.281,5.137,5.137,0,0,1-1.055.32.68.68,0,0,1-.156.023C298.99,255.4,298.909,255.316,298.873,255.144Zm-173.989.015h-5.915l-2.227.031c-.083,0-.132-.014-.148-.04a.282.282,0,0,1-.024-.148V253.76a.232.232,0,0,1,.028-.144.228.228,0,0,1,.144-.028l2.227.032h1.954v-3.313h-1.071l-2.1.031c-.088,0-.143-.01-.164-.031a.271.271,0,0,1-.023-.14v-1.2c0-.083.01-.132.032-.148a.318.318,0,0,1,.156-.023l2.1.032h1.071v-2.766h-1.508l-2.172.031a.25.25,0,0,1-.157-.031.3.3,0,0,1-.023-.148V244.69c0-.088.011-.14.032-.156a.407.407,0,0,1,.148-.016l2.172.016h5.008l2.18-.016a.321.321,0,0,1,.165.023.3.3,0,0,1,.023.148v1.219c0,.089-.011.141-.032.157a.32.32,0,0,1-.157.023l-2.18-.031h-1.788v2.766H123.9l2.11-.032c.083,0,.132.011.148.032a.271.271,0,0,1,.023.14v1.2a.131.131,0,0,1-.172.172l-2.11-.031h-1.265v3.313h2.25l2.21-.032a.248.248,0,0,1,.157.032.271.271,0,0,1,.023.14V255c0,.089-.014.144-.04.165a.245.245,0,0,1-.14.023Zm152.425,0c-.162,0-.253-.065-.274-.2q-.031-.171-.133-.742-.219-1.281-.374-1.992l-.4-1.891-2.18.391q-1.594.282-2.594.547a.428.428,0,0,1-.132.023c-.11,0-.188-.068-.235-.2q-.188-.547-.446-1.586,1.235-.14,2.977-.429l2.242-.367-.406-2.071-1.5.242q-1.43.235-2.383.485a.477.477,0,0,1-.109.015c-.084,0-.148-.06-.2-.18a10.165,10.165,0,0,1-.445-1.6q1.195-.086,2.844-.352l1.453-.227-.2-1.023a8.372,8.372,0,0,0-.641-2q.968-.062,1.469-.062c.224,0,.427.007.609.023.213.015.32.094.32.234l-.031.5a3.749,3.749,0,0,0,.062.648l.243,1.344,1.312-.219q2.078-.367,2.859-.578c.088,0,.149.059.18.179a12.008,12.008,0,0,1,.32,1.375c0,.1-.081.157-.243.172q-.273.047-1.406.235-.836.14-1.265.219l-1.407.249.4,2.055,2.32-.406q1.5-.25,2.507-.524a.6.6,0,0,1,.118-.015c.094,0,.146.065.156.2a9.057,9.057,0,0,1,.274,1.273.243.243,0,0,1-.242.274q-.539.07-2.57.414l-2.211.382.367,1.781q.212.977.711,2.891v.023q0,.086-.211.157a9.394,9.394,0,0,1-1.453.336ZM204.015,251.7a4.436,4.436,0,0,1,.851-2.29q.618.313,1.235.641c.083.047.125.1.125.157a.279.279,0,0,1-.047.132,2.232,2.232,0,0,0-.422,1.219q0,.821.992,1.172a8.844,8.844,0,0,0,2.805.329,20.344,20.344,0,0,0,4.335-.461.8.8,0,0,1,.141-.016.188.188,0,0,1,.2.165,9.027,9.027,0,0,1,.257,1.562v.032c0,.109-.091.179-.274.211a26.224,26.224,0,0,1-4.687.382Q204.015,254.932,204.015,251.7Zm-15.939,2.578a3.356,3.356,0,0,0-1.117-1.008,7.866,7.866,0,0,0,3.594-1.648,4.1,4.1,0,0,0,1.234-3.133,3.649,3.649,0,0,0-1.117-2.7,3.366,3.366,0,0,0-2.461-1.007h-.063a19.345,19.345,0,0,1-2,6.89,3.109,3.109,0,0,1-2.726,1.843,2.437,2.437,0,0,1-2.048-1.219,5.047,5.047,0,0,1-.781-2.891,5.739,5.739,0,0,1,1.8-4.163,7.053,7.053,0,0,1,5.2-2.048,6.129,6.129,0,0,1,4.687,1.782,5.288,5.288,0,0,1,1.406,3.766q0,4.343-4.929,5.827a.909.909,0,0,1-.234.04Q188.294,254.6,188.076,254.276Zm-4.523-7.953a4.412,4.412,0,0,0-1.25,2.961,3.457,3.457,0,0,0,.4,1.774q.312.516.688.516.656,0,1.2-.977a13.749,13.749,0,0,0,1.07-2.75,20.126,20.126,0,0,0,.625-2.976A4.918,4.918,0,0,0,183.552,246.323ZM384.5,254.378a10.577,10.577,0,0,1-1.282-1.781,11.785,11.785,0,0,0,2.165-.8q1.547-.8,2.57-1.476.9-.586,2.031-1.5a33.785,33.785,0,0,0,2.554-2.25,24.071,24.071,0,0,0,1.836-2.1,7.531,7.531,0,0,0,.445,1.867.837.837,0,0,1,.078.3.874.874,0,0,1-.258.484,24.665,24.665,0,0,1-3.679,3.391,36.905,36.905,0,0,1-4.828,3.133,6.3,6.3,0,0,0-1.07.742.459.459,0,0,1-.289.157A.4.4,0,0,1,384.5,254.378Zm-67.2,0a10.521,10.521,0,0,1-1.281-1.781,11.773,11.773,0,0,0,2.164-.8q1.547-.8,2.57-1.476.9-.586,2.031-1.5a34.006,34.006,0,0,0,2.555-2.25,24.219,24.219,0,0,0,1.835-2.1,7.528,7.528,0,0,0,.445,1.867.837.837,0,0,1,.078.3.871.871,0,0,1-.257.484,24.631,24.631,0,0,1-3.68,3.391,36.906,36.906,0,0,1-4.829,3.133,6.3,6.3,0,0,0-1.07.742.455.455,0,0,1-.289.157A.4.4,0,0,1,317.3,254.378Zm-157.042-1.21a7.1,7.1,0,0,1-1.078-2.954,28.043,28.043,0,0,1-.382-4.656,9.85,9.85,0,0,0-.2-2.094,6.278,6.278,0,0,1,2.031.524c.172.078.257.175.257.289a1.288,1.288,0,0,1-.133.446,5.9,5.9,0,0,0-.14,1.57,21.283,21.283,0,0,0,.289,3.648q.414,2.352,1.313,2.352.406,0,.773-.562a8.84,8.84,0,0,0,.758-1.664,6.7,6.7,0,0,0,1.023,1.235.451.451,0,0,1,.165.344.8.8,0,0,1-.048.25,4.509,4.509,0,0,1-1.265,1.937,2.218,2.218,0,0,1-1.453.555A2.379,2.379,0,0,1,160.254,253.167Zm189.5-.422a74.5,74.5,0,0,1-7.094-5.594.4.4,0,0,0-.25-.109.364.364,0,0,0-.257.125q-.462.477-1.273,1.4-.906,1.031-1.337,1.507a5.574,5.574,0,0,0-.64.813q-.134.211-.289.211a.341.341,0,0,1-.227-.109q-.563-.47-1.485-1.415a8.513,8.513,0,0,0,1.634-1.359q1.211-1.234,2.32-2.414a3.677,3.677,0,0,1,.813-.7,1.287,1.287,0,0,1,.625-.148,1.554,1.554,0,0,1,.7.148,3.311,3.311,0,0,1,.688.508,50.512,50.512,0,0,0,7.172,5.2.272.272,0,0,1,.2.25.352.352,0,0,1-.055.179,8.721,8.721,0,0,1-.828,1.391c-.084.12-.164.179-.242.179A.292.292,0,0,1,349.751,252.745Zm-96.4-.547-.8-.609c-.1-.073-.148-.13-.148-.172,0-.026.028-.07.085-.132a7.8,7.8,0,0,0,1.328-2q.07-.132.132-.132a.5.5,0,0,1,.188.07l.8.414c.131.073.2.132.2.18a.4.4,0,0,1-.031.124,8.758,8.758,0,0,1-1.391,2.243c-.062.073-.117.109-.164.109A.337.337,0,0,1,253.346,252.2Zm5.757-.5a5.063,5.063,0,0,0-.828-.555,7.254,7.254,0,0,0,1.289-1.445,2.575,2.575,0,0,0,.305-.6,6.756,6.756,0,0,1,1.234.476q.29.142.29.274a.289.289,0,0,1-.18.242,1.139,1.139,0,0,0-.266.3,12.067,12.067,0,0,1-1.078,1.313q-.258.258-.352.257A1.258,1.258,0,0,1,259.1,251.7Zm-89.326-.383a12.8,12.8,0,0,0-1.18-3.218,10.778,10.778,0,0,0-1.8-2.367q.788-.5,1.257-.734a.543.543,0,0,1,.18-.063.262.262,0,0,1,.172.094,9.463,9.463,0,0,1,2.07,2.657,9.732,9.732,0,0,1,1.063,2.82.377.377,0,0,1,.015.094c0,.094-.062.179-.187.257a5.941,5.941,0,0,1-1.25.641.507.507,0,0,1-.14.023C169.869,251.519,169.8,251.451,169.778,251.315ZM96.32,249.573a1.59,1.59,0,1,1,1.187.532A1.532,1.532,0,0,1,96.32,249.573Zm263.925-.07a15.189,15.189,0,0,1-.242-1.945,23.572,23.572,0,0,0,3.452.2h5.157q.757,0,1.953-.023,1.523-.024,1.726-.031h.078q.211,0,.211.227c.016.245.023.5.023.758s-.007.5-.023.75c0,.162-.076.242-.226.242h-.063q-2.4-.031-3.57-.031h-5.757l-2.352.2A.352.352,0,0,1,360.245,249.5Zm-109.8.25h-1.023l-1.359.032a.248.248,0,0,1-.157-.032.3.3,0,0,1-.023-.148v-1.023c0-.084.013-.135.039-.157a.251.251,0,0,1,.141-.023l1.359.04h1.023l1.328-.04c.094,0,.148.011.164.031a.23.23,0,0,1,.031.148V249.6c0,.089-.014.14-.04.157a.318.318,0,0,1-.156.023Zm2.516-1.554a3.975,3.975,0,0,0-.656-.883,5.249,5.249,0,0,0,2.914-1.859,4.981,4.981,0,0,0,.859-2.7c.015-.26.023-.495.023-.7a7.418,7.418,0,0,0-.039-.774q.663.039,1.484.165c.213.031.32.094.32.187a.517.517,0,0,1-.11.289,2.078,2.078,0,0,0-.164.813,5.007,5.007,0,0,0,1.625,3.086,7.137,7.137,0,0,0,2.524,1.32,4.236,4.236,0,0,0-.609,1.008c-.13.275-.237.414-.32.414a1.4,1.4,0,0,1-.351-.094,5.826,5.826,0,0,1-3.406-3.266,5.707,5.707,0,0,1-3.39,3.281,2.436,2.436,0,0,1-.352.109C253.227,248.6,253.109,248.464,252.963,248.2Zm-2.516-.594h-1.023l-1.359.032a.248.248,0,0,1-.157-.032.271.271,0,0,1-.023-.14v-1.04c0-.088.013-.14.039-.156s.063-.023.141-.023l1.359.031h1.023l1.328-.031c.094,0,.148.01.164.031a.23.23,0,0,1,.031.148v1.04c0,.083-.014.132-.04.148a.318.318,0,0,1-.156.023Zm135.681-.382a16.5,16.5,0,0,0-3.265-2.61q.4-.483,1.117-1.25a.291.291,0,0,1,.227-.124.5.5,0,0,1,.211.077,14.459,14.459,0,0,1,3.055,2.273c.094.094.14.169.14.227a.346.346,0,0,1-.094.2q-.522.7-.992,1.2c-.089.083-.154.125-.2.125A.346.346,0,0,1,386.129,247.222Zm-67.2,0a16.477,16.477,0,0,0-3.265-2.61q.4-.483,1.117-1.25a.292.292,0,0,1,.227-.124.5.5,0,0,1,.211.077,14.463,14.463,0,0,1,3.055,2.273c.094.094.14.169.14.227a.351.351,0,0,1-.094.2q-.524.7-.993,1.2c-.088.083-.154.125-.2.125A.346.346,0,0,1,318.928,247.222Zm-110.437-.078a4.048,4.048,0,0,0-1.117-.516q1.3-.852,2.093-1.328a9.917,9.917,0,0,1-1.164.047,15.38,15.38,0,0,1-2.946-.274.259.259,0,0,1-.211-.289q0-.25.07-1.422a20.1,20.1,0,0,0,4.492.414q1.477,0,3.328-.14h.047a.18.18,0,0,1,.2.18,9.276,9.276,0,0,1,.141,1.359c0,.209-.092.32-.274.337a9.9,9.9,0,0,0-3.914,1.586.688.688,0,0,1-.407.14A.7.7,0,0,1,208.491,247.144ZM47.3,246.214a8.265,8.265,0,0,0-.445-1.407.364.364,0,0,1-.055-.148c0-.057.065-.1.2-.124l.82-.243a.565.565,0,0,1,.133-.023c.058,0,.107.045.148.133a6.625,6.625,0,0,1,.594,1.445.382.382,0,0,1,.023.109c0,.063-.06.112-.18.148l-.914.235a.536.536,0,0,1-.164.039C47.384,246.378,47.332,246.323,47.3,246.214Zm299.528-.547a1.725,1.725,0,0,1,.125-2.437,1.711,1.711,0,0,1,1.165-.422,1.7,1.7,0,0,1,1.726,1.711,1.617,1.617,0,0,1-.571,1.273,1.682,1.682,0,0,1-1.156.437A1.662,1.662,0,0,1,346.829,245.667Zm.571-1.789a.988.988,0,0,0,.07,1.352.944.944,0,0,0,.649.234.956.956,0,0,0,.641-1.656.938.938,0,0,0-.641-.234A.922.922,0,0,0,347.4,243.878Zm-93.732,1.586-.789-.531c-.1-.068-.157-.12-.157-.156a.28.28,0,0,1,.078-.133,6.681,6.681,0,0,0,1.156-1.945c.031-.089.062-.133.094-.133a1.4,1.4,0,0,1,.2.062l.835.32c.121.052.18.107.18.165a.471.471,0,0,1-.023.109A8.423,8.423,0,0,1,254,245.448c-.063.073-.113.11-.148.11A.34.34,0,0,1,253.667,245.463Zm-2.93-.023h-1.773l-1.679.031c-.089,0-.141-.013-.157-.039a.3.3,0,0,1-.023-.148v-1.141c0-.083.01-.132.032-.148a.285.285,0,0,1,.148-.023l1.679.031h1.773l1.7-.031a.25.25,0,0,1,.157.031.271.271,0,0,1,.023.14v1.141c0,.088-.013.143-.04.164a.245.245,0,0,1-.14.023Zm8.414-.367a3.03,3.03,0,0,0-.812-.508,7.306,7.306,0,0,0,1.257-1.516,2.027,2.027,0,0,0,.289-.609,9.248,9.248,0,0,1,1.2.508c.172.095.258.175.258.242s-.052.148-.157.243a1.1,1.1,0,0,0-.274.32,10.267,10.267,0,0,1-1.008,1.258c-.193.193-.322.289-.391.289A.871.871,0,0,1,259.151,245.073Zm-44.323-.625a8.023,8.023,0,0,0-1.609-1.851l.843-.594a.148.148,0,0,1,.094-.039.25.25,0,0,1,.148.07,6.876,6.876,0,0,1,1.516,1.718.2.2,0,0,1,.048.118.169.169,0,0,1-.094.132l-.671.5a.233.233,0,0,1-.125.047C214.929,244.55,214.88,244.516,214.827,244.448Zm-92.436-.266a12.234,12.234,0,0,0-2.788-1.711c-.073-.047-.11-.091-.11-.133s.037-.1.11-.172l.758-.8a.258.258,0,0,1,.179-.1.478.478,0,0,1,.157.04,13.539,13.539,0,0,1,2.781,1.617c.088.068.133.114.133.14s-.04.086-.118.18l-.75.851c-.088.1-.161.156-.219.156A.234.234,0,0,1,122.391,244.183Zm-71.716-.117H47.863l-1.89.031c-.084,0-.133-.01-.148-.031a.266.266,0,0,1-.023-.141v-1.109c0-.084.01-.133.031-.148a.262.262,0,0,1,.14-.023l1.89.032h.625v-.43a4.521,4.521,0,0,0-.1-1.062q1.062.031,1.664.085c.172.015.257.062.257.14a.772.772,0,0,1-.094.274,1.378,1.378,0,0,0-.078.578v.415h.539l1.876-.032c.094,0,.148.01.164.032a.271.271,0,0,1,.023.14v1.109c0,.084-.01.133-.031.148a.307.307,0,0,1-.156.023Zm165.613-.688a7.563,7.563,0,0,0-1.6-1.836l.8-.579a.225.225,0,0,1,.11-.039.25.25,0,0,1,.132.07,6.2,6.2,0,0,1,1.524,1.649.27.27,0,0,1,.047.132.2.2,0,0,1-.094.157l-.641.5a.246.246,0,0,1-.132.047A.175.175,0,0,1,216.288,243.378Zm34.339-.219h-1.3l-1.461.031c-.1,0-.157-.054-.157-.164v-1.07c0-.114.052-.172.157-.172l1.461.032h1.3l1.437-.032c.084,0,.133.011.148.032a.271.271,0,0,1,.023.14v1.07c0,.11-.058.164-.172.164Zm-61.559-25.247v-7.539h-4.03v6.76h-3.067v-6.76h-4.68v7.539h-3.068v-11.18h17.94v11.18ZM174.223,203.2v-3.484h11.128l-7.9-3.9V193.6l7.826-3.847h-11.05V186.3h17.94V189.7l-9.776,5.044,9.776,4.992V203.2Zm7.7-19.89c-5.486,0-7.93-2.834-7.93-6.89,0-4.03,2.443-6.864,7.93-6.864h2.548c5.538,0,7.93,2.834,7.93,6.864,0,4.055-2.392,6.89-7.93,6.89Zm-4.862-6.89c0,2.106,1.43,3.25,4.862,3.25h2.548c3.432,0,4.862-1.144,4.862-3.25s-1.43-3.224-4.862-3.224h-2.548C178.487,173.193,177.057,174.311,177.057,176.417Zm97.822-18.32V126.405c0-17.9,11.057-24.51,23.6-24.51s23.6,6.611,23.6,24.51V158.1c0,17.9-11.058,24.511-23.6,24.511S274.879,176,274.879,158.1Zm15.96-31.122v30.552c0,7.524,1.6,11.628,7.638,11.628s7.637-4.1,7.637-11.628V126.975c0-7.524-1.6-11.628-7.637-11.628S290.839,119.451,290.839,126.975Zm94.734,54.607v-10.26l21.546-31.009c3.876-5.7,5.13-10.488,5.13-15.618,0-6.612-2.964-9.576-6.726-9.576-4.1,0-6.84,3.078-6.84,9.576H385c0-13.566,9.576-22.8,22-22.8,11.857,0,21.2,9.8,21.2,22.8,0,10.374-6.156,18.354-10.146,24.51l-11.97,18.924h21.2v13.452Zm-54.492,0v-10.26l21.546-31.009c3.876-5.7,5.13-10.488,5.13-15.618,0-6.612-2.964-9.576-6.726-9.576-4.1,0-6.84,3.078-6.84,9.576h-13.68c0-13.566,9.576-22.8,22-22.8,11.856,0,21.2,9.8,21.2,22.8,0,10.374-6.156,18.354-10.147,24.51L351.6,168.129h21.2v13.452Zm-108.984,0v-10.26l21.546-31.009c3.876-5.7,5.13-10.488,5.13-15.618,0-6.612-2.964-9.576-6.726-9.576-4.1,0-6.84,3.078-6.84,9.576h-13.68c0-13.566,9.576-22.8,22-22.8,11.857,0,21.2,9.8,21.2,22.8,0,10.374-6.156,18.354-10.146,24.51l-11.97,18.924h21.2v13.452Zm-47.874-15.044V162.9h7.748v-6.215h-7.748v-3.64h17.94v3.64h-7.124V162.9h7.124v3.64Zm0-26.26,7.046-3.224v-2.912h-7.046V130.5h17.94v6.422c0,4.134-1.846,6.708-5.486,6.708a4.786,4.786,0,0,1-4.81-3.068l-7.644,3.718Zm10.114-3.692c0,2.158.468,3.406,2.339,3.406s2.392-1.247,2.392-3.406v-2.444h-4.731Zm-2.834-9.62c-5.3,0-7.514-2.911-7.514-6.89s2.21-6.89,7.488-6.89h10.686v3.64H181.477c-3.068,0-4.42,1.014-4.42,3.251s1.352,3.25,4.42,3.25h10.686v3.64Zm-74.191-22.336v-3.255c0-8.251,4.033-11.655,9.769-11.655,5.365,0,8.583,3.034,9.361,8.25h-4.958c-.444-2.331-1.813-3.884-4.4-3.884-3,0-4.588,2.035-4.588,6.918v3.626c0,4.884,1.591,6.919,4.588,6.919,2.922,0,4.107-1.813,4.4-4.884h-4.292V102.3h9.287v2.331c0,7.808-3.626,11.285-9.4,11.285C111.345,115.914,107.312,112.436,107.312,104.629Zm-32.671,7.1,3.959-2.739a6.376,6.376,0,0,0,5.55,2.553c2.96,0,3.959-1.3,3.959-2.849,0-1.777-1.074-2.776-5.217-3.848-5.032-1.332-7.548-3.737-7.548-7.955,0-4.033,2.664-7.178,8.733-7.178,4.07,0,7.141,1.369,8.953,4.181l-3.884,2.775c-1.111-1.739-2.443-2.589-5.032-2.589-2.331,0-3.589,1.073-3.589,2.812,0,2,1.628,2.886,5.032,3.737,5.328,1.332,7.733,3.33,7.733,7.844,0,4.18-2.812,7.437-8.806,7.437C80.006,115.914,76.9,114.693,74.642,111.733Zm70.966,3.848-9.953-15.8v15.8h-4.92V90.051h4.291l9.991,16.021V90.051h4.92v25.529Zm-48.1,0V90.051h5.179v25.529Zm-41.144,0V90.051h15.91v4.4H61.544v5.735h9.62v4.366h-9.62v6.66h10.73v4.366Zm-23.125,0V90.051H42.3c5.772,0,9.806,2.959,9.806,11.1v3.33c0,8.1-4.034,11.1-9.806,11.1Zm5.18-4.366H42.3c3.441,0,4.625-2.331,4.625-6.734v-3.33c0-4.4-1.184-6.7-4.625-6.7H38.418Zm143.5-1.02c-5.486,0-7.93-2.834-7.93-6.89,0-4.03,2.443-6.863,7.93-6.863h2.548c5.538,0,7.93,2.833,7.93,6.863,0,4.056-2.392,6.89-7.93,6.89Zm-4.862-6.89c0,2.106,1.43,3.25,4.862,3.25h2.548c3.432,0,4.862-1.144,4.862-3.25s-1.43-3.224-4.862-3.224h-2.548C178.487,100.081,177.057,101.2,177.057,103.3Zm4.5-13.338h-7.331v-3.64h7.331l10.608-5.59v4.212l-6.682,3.2,6.682,3.224v4.186Z" transform="translate(0.5 0.537)" fill="#fff" stroke="rgba(0,0,0,0)" stroke-miterlimit="10" stroke-width="1"/>
</svg>
