<svg xmlns="http://www.w3.org/2000/svg" width="65.731" height="77.952" viewBox="0 0 65.731 77.952">
  <path id="Untitled-3" d="M64.781,2.58C63.749.913,61.646,0,58.867,0a9.729,9.729,0,0,0-8.891,5.954c-.238.556-.437.992-.6,1.469a13.088,13.088,0,0,0-1.469-1.508A25.256,25.256,0,0,0,32.394,0h-.2c-.476,0-.953,0-1.389.04A29.571,29.571,0,0,0,16.6,4.882,16.836,16.836,0,0,0,9.254,19.131a9.709,9.709,0,0,0,.318,2.461,16.978,16.978,0,0,1-4.326,2.7c-1.826.913-2.739,1.389-2.739,2.3a1.186,1.186,0,0,0,.675,1.072A6.06,6.06,0,0,0,6.04,28.3a21.357,21.357,0,0,0,6.628-1.469,16.166,16.166,0,0,1-1.588,3.215c-1.23,2.143-2.62,4.564-.079,6.39a3.781,3.781,0,0,0,2.223.675,4.18,4.18,0,0,0,3.255-1.548A10.686,10.686,0,0,0,18.5,31.276a47.324,47.324,0,0,0,13.892.159c4.088-.516,8.335-1.191,11.947-2.9.238.278.476.6.714.873,1.31,1.627,2.739,3.493,3.85,4.167a4.214,4.214,0,0,0,5-.079,3.339,3.339,0,0,0,.873-3.969,14.9,14.9,0,0,0-3.215-3.969,14.734,14.734,0,0,1-1.627-1.786,38.418,38.418,0,0,0,2.858-3.929c1.27-1.945,2.3-3.532,3.89-4.048,3.532-1.111,5.834-2.342,7.3-5.279,1.667-3.374,1.945-6.033.794-7.938M49.739,12.463A11.469,11.469,0,0,1,47,20.48l-2.7-4.8a1.056,1.056,0,0,0-.437-.4l-6.827-2.937,1.469-5,6.231,1.111L49.58,11.51a4.337,4.337,0,0,1,.159.953M14.613,25l.4-7.978,4.6-3.731,5.834,3.255L23.662,20.8a1.427,1.427,0,0,0-.079.437l.476,5.636a26.324,26.324,0,0,1-4.882-.238A16.01,16.01,0,0,1,14.613,25M22.948,7.5a51.443,51.443,0,0,1,8.216-2.58l5.6,1.985-1.548,5.279-8.494,2.977-5.954-3.334Zm2.5,13.812,1.865-4.445,8.613-3.016,6.946,3.016L45.65,21.83a14.137,14.137,0,0,1-4.167,2.381c-3.612,1.389-10.319,2.342-15.6,2.58h0Zm21.988-13.3L45.571,6.827a.758.758,0,0,0-.318-.119L38.109,5.4,32.354,3.413l.556-1.548A22.948,22.948,0,0,1,46.682,7.3c.278.238.516.476.754.714M30.925,1.865h.04l-.437,1.31c-3.294.873-7.1,1.945-8.533,2.778l-3.215-.4A26.624,26.624,0,0,1,30.925,1.865M16.915,6.906a1.092,1.092,0,0,0,.6.318L20.8,7.66,18.78,11.59l-5.239,4.247a.848.848,0,0,0-.318.675l-.357,7.144a6.26,6.26,0,0,1-1.746-4.525A15.622,15.622,0,0,1,16.915,6.906M5.206,26.394c.278-.159.635-.318.913-.476a21.7,21.7,0,0,0,4.247-2.58,8.024,8.024,0,0,0,1.469,1.826c-1.865.675-4.683,1.508-6.628,1.23M62.36,9.684c-1.191,2.381-3.1,3.334-6.231,4.326-2.183.714-3.453,2.58-4.882,4.763a31.9,31.9,0,0,1-2.9,3.929c-1.032,1.151.318,2.5,1.905,4.088A12.728,12.728,0,0,1,53.073,30.2a1.457,1.457,0,0,1-.4,1.826,2.293,2.293,0,0,1-2.818-.079,20.856,20.856,0,0,1-3.374-3.771c-.437-.556-.873-1.072-1.23-1.508a.862.862,0,0,0-1.111-.2c-3.453,1.865-7.819,2.54-11.986,3.056a44.342,44.342,0,0,1-14.13-.318.929.929,0,0,0-.714.119.815.815,0,0,0-.4.6,9.663,9.663,0,0,1-1.905,4.445,2.274,2.274,0,0,1-2.977.516c-1.072-.754-.833-1.469.6-3.969a16.579,16.579,0,0,0,1.826-3.969A18.389,18.389,0,0,0,18.7,28.339a21.079,21.079,0,0,0,4.048.278c5.676,0,14.646-.992,19.289-2.778,6.271-2.421,9.605-7.224,9.446-13.495a7.582,7.582,0,0,0-.913-3.175c.159-.357.278-.714.4-1.032.2-.516.357-.992.6-1.508a7.777,7.777,0,0,1,7.224-4.882c.992,0,3.413.159,4.366,1.707.873,1.389.556,3.493-.794,6.231M57.28,2.62h0a2.937,2.937,0,0,0-2.183.953,3.643,3.643,0,0,0-.833,2.818A3.949,3.949,0,0,0,57.915,10h.04a2.959,2.959,0,0,0,2.183-.992,3.643,3.643,0,0,0,.833-2.818A4.087,4.087,0,0,0,57.28,2.62m1.429,5.2a1.1,1.1,0,0,1-.833.357,2.124,2.124,0,0,1-1.826-1.985A1.927,1.927,0,0,1,56.407,4.8a1.071,1.071,0,0,1,.794-.357h0a1.615,1.615,0,0,1,1.111.516c-.079,0-.159-.04-.278-.04a.876.876,0,0,0-.873.953.909.909,0,0,0,1.786.2c.04.119.04.238.079.357a1.5,1.5,0,0,1-.318,1.389M23.3,56.678a7.087,7.087,0,0,0-.833.04h0a.967.967,0,0,1-.476,0h-.357a1.1,1.1,0,0,1-.357-.04c-.318-.159-.357-.516-.437-.794-.079-.2-.119-.357-.2-.516-.04-.2-.119-.4-.159-.556a2.96,2.96,0,0,0-.278-.476c-.04-.079-.119-.119-.159-.2h-.079a.867.867,0,0,0-.2-.119H17.828a.7.7,0,0,0-.6.357c-.04.159-.159.318-.2.476-.04.119,0,.318-.04.437-.079.357-.159.675-.238,1.032-.04.2-.357.476-.556.437H14.97c-.278,0-.357-.079-.4-.318a2.764,2.764,0,0,1,.2-.992,4.336,4.336,0,0,1,.2-.675c.2-.4.357-.794.556-1.23.04-.119.04-.278.079-.437V52.55A10.717,10.717,0,0,1,15.922,51c.079-.2.159-.437.238-.675.079-.2.079-.4.159-.6a10.251,10.251,0,0,0,.318-1.032c.04-.119.04-.278.079-.4.079-.238.159-.437.238-.675a2.732,2.732,0,0,0,.079-.516,8.021,8.021,0,0,1,.238-1.349,6.61,6.61,0,0,0,.318-1.27,3.019,3.019,0,0,1,.318-.833l.238-.6c.04-.159.159-.119.278-.119a4.4,4.4,0,0,1,.754-.079h.754a.456.456,0,0,1,.357.238,4.8,4.8,0,0,1,.2.714c.278.953.516,1.865.754,2.778.159.556.278,1.072.4,1.588a5.88,5.88,0,0,1,.119.754,2.1,2.1,0,0,0,.318,1.072c.119.318.2.714.318,1.072.278,1.072.556,2.183.833,3.255l.357,1.31a.847.847,0,0,1,0,.318c.04.159.04.278.079.4-.079.159-.2.318-.357.318m-3.691-5.636a1.659,1.659,0,0,0-.159-.4,2.441,2.441,0,0,0-.119-.437c-.119-.357-.238-.714-.357-1.111l-.04-.04a.262.262,0,0,0-.238-.04c-.119,0-.159.119-.238.2a3.9,3.9,0,0,1-.2.635,2.44,2.44,0,0,1-.119.437,1.609,1.609,0,0,0-.2.357,1.4,1.4,0,0,0-.119.794.5.5,0,0,0,.04.238.725.725,0,0,0,.6.238,9.758,9.758,0,0,0,1.111-.079v.04h.079v-.04c.159-.238.04-.556-.04-.794m17.622,5.517c-.079.119-.159.2-.278.2a3.414,3.414,0,0,0-.635-.04c-.2,0-.476.04-.675.04a1.174,1.174,0,0,1-.4-.079.664.664,0,0,1-.357-.437,7.061,7.061,0,0,0-.675-1.191c-.278-.4-.516-.794-.754-1.191-.2-.357-.437-.714-.675-1.151l-.119-.238-.04-.04c-.04,0-.04,0-.04.04,0,0-.04.04-.04,0a.123.123,0,0,1,.04-.079.139.139,0,0,1-.079-.04c-.04-.04-.079-.119-.119-.159-.079-.079-.159-.278-.278-.278h-.2c-.079.04-.159.119-.278.2-.04.079-.079.119-.119.2v1.349c0,.556,0,1.111-.04,1.707a6.021,6.021,0,0,1-.119.833v.04c0,.04-.04.079-.04.119,0,.119-.04.278-.159.318a.554.554,0,0,1-.437,0h-.318c-.357,0-.635.04-.992.04s-.476-.159-.516-.476c0-.278-.04-.516-.04-.794a5.862,5.862,0,0,0,.04-.833c0-.278-.04-.556-.04-.833,0-.437.04-.873.04-1.31v-.476a1.932,1.932,0,0,1,.04-.476,3.01,3.01,0,0,0-.04-1.032V49.97c0-.159-.04-.318-.04-.476a10.4,10.4,0,0,0,.04-1.111c0-.476-.04-.953-.04-1.429,0-.238.04-.437.04-.635,0-.357.04-.714.04-1.032s-.079-.635-.079-.953v-.357a2.441,2.441,0,0,0-.04-.556.79.79,0,0,1,.278-.635c.04,0,.04-.04.079-.04.238,0,.437.04.635.04.238,0,.437.04.675.04h.079a.518.518,0,0,1,.476.04.981.981,0,0,1,.159.357V43.3a.756.756,0,0,1,.2.4,3,3,0,0,1,.04.6c0,.437-.079.873-.119,1.31,0,.079-.04.159-.04.238,0,.159.04.318.04.476a.972.972,0,0,0,.476.159h.278l.238-.2c.119-.119.278-.159.4-.278.119-.159.278-.4.4-.556.159-.159.278-.318.437-.476l.238-.357a1.433,1.433,0,0,1,.437-.516,1.551,1.551,0,0,0,.556-.675c.119-.2.2-.476.476-.516a2.236,2.236,0,0,1,.516,0H37c.119,0,.159.04.159.119a1.1,1.1,0,0,0,.04.357c0,.2-.159.238-.2.357-.318.4-.675.794-.992,1.191-.278.318-.516.6-.754.913-.357.4-.675.794-1.032,1.191-.278.318-.516.6-.794.913a1.909,1.909,0,0,0-.357.437.654.654,0,0,0,0,.794c.4.675.794,1.31,1.191,1.985a.4.4,0,0,1,.04.119,1.857,1.857,0,0,0,.318.556,8.973,8.973,0,0,1,.635,1.032c.437.714.873,1.429,1.27,2.183.079.119.079.278.159.4.119.2.278.4.4.6a.358.358,0,0,1,.159.516M50.731,53.82a2.728,2.728,0,0,1-.2.953c-.079.2-.119.4-.2.6a2.181,2.181,0,0,1-1.032.953,6.18,6.18,0,0,1-1.469.4h-.516a5.32,5.32,0,0,1-.794.04l-1.31-.119a6.021,6.021,0,0,1-.833-.119A1.253,1.253,0,0,1,43.507,56a.834.834,0,0,0-.437-.278c-.318-.119-.4-.4-.516-.635A1.777,1.777,0,0,1,42.4,54.3c-.04-.516-.04-1.032-.04-1.508,0-.159.079-.318.04-.476a6.21,6.21,0,0,1,.079-1.23,1.992,1.992,0,0,0-.079-.476,3,3,0,0,1-.04-.6,1.35,1.35,0,0,1-.04-.4c0-.4.04-.794.04-1.151,0-.476-.04-.953-.04-1.429,0-.2.079-.357.04-.516a4.125,4.125,0,0,1,.159-1.548v-.318a.737.737,0,0,1,.4-.675,2.312,2.312,0,0,0,.6-.437,4.466,4.466,0,0,1,.833-.476,2.163,2.163,0,0,1,.873-.2,4.189,4.189,0,0,1,.992.079,1.079,1.079,0,0,0,.357,0h.754a.812.812,0,0,1,.437,0c.119,0,.238.04.318.04.159,0,.318.079.437.079a.657.657,0,0,1,.516.2,4.379,4.379,0,0,0,1.032.714c.318.119.357.437.476.675a4.063,4.063,0,0,1,.2,1.389,8.943,8.943,0,0,0,0,1.032v1.389c0,.119-.04.2-.04.318,0,.159.04.357.04.516,0,.04.04.119.04.159-.04,1.429-.079,2.9-.04,4.366M48.786,53.3c-.04-.318-.04-.6-.079-.913,0-.476,0-.953-.04-1.429v-.079a4.374,4.374,0,0,1-.079-.714v-.635c.04-.476.079-.953.119-1.469a.139.139,0,0,1,.04-.079,1.992,1.992,0,0,0,.079-.476,2.413,2.413,0,0,1-.04-.754,5.32,5.32,0,0,0-.04-.794,1.069,1.069,0,0,0-.2-.6,1.169,1.169,0,0,0-.635-.4,4.011,4.011,0,0,0-.675-.119h-.079a1.933,1.933,0,0,0-.476.04,3.085,3.085,0,0,0-.635.079.3.3,0,0,0-.159.079,2.181,2.181,0,0,0-.357.278,1.321,1.321,0,0,0-.238.4c-.04.079-.04.159-.079.238a1.688,1.688,0,0,0-.079.437,10.46,10.46,0,0,0-.079,1.111c-.04,1.23-.079,2.421-.079,3.652v.953a8.3,8.3,0,0,0,.04.992c.04.119.04.2.079.318a2.073,2.073,0,0,0,.556.992,3.6,3.6,0,0,0,.635.437h.278a5.588,5.588,0,0,1,1.151-.04.736.736,0,0,0,.278-.079c.119-.04.2-.2.318-.238a1.363,1.363,0,0,0,.476-1.191m15.44,3.453c-.159,0-.278-.04-.476-.04s-.4.04-.6.04a1.159,1.159,0,0,1-.357-.079h-.556a.478.478,0,0,1-.278-.4,4.545,4.545,0,0,1-.04-1.27V53.106a7.648,7.648,0,0,1,.04-.953c.04-.2.04-.4.079-.556a.358.358,0,0,0-.04-.2,1.512,1.512,0,0,0-.119-.4,3.147,3.147,0,0,0-.357-.159h-.913c-.357,0-.714-.04-1.072-.04h-.119c-.079.079-.2.159-.318.278a1.23,1.23,0,0,0-.238.516,4.314,4.314,0,0,0-.04.714,8.972,8.972,0,0,0,.04,1.032V54.3c0,.159-.04.318-.04.516v.238h0c-.04.278-.04.516-.079.754s-.079.6-.318.754a.175.175,0,0,1-.2.04.793.793,0,0,1-.357.079c-.357,0-.714.04-1.032.04-.4,0-.476-.159-.516-.476a11.153,11.153,0,0,1-.04-1.151c0-.2.079-.357.079-.556,0-.278-.079-.516-.079-.794,0-.437.04-.913.079-1.349v-.318A4.847,4.847,0,0,1,56.407,51c0-.2-.04-.357-.04-.516a2.62,2.62,0,0,1-.04-.556c0-.119-.04-.278-.04-.4a5.423,5.423,0,0,0,.079-.754c0-.238-.04-.476-.04-.714,0-.278-.04-.556-.04-.873a3.474,3.474,0,0,1,.079-.635c0-.119-.04-.238-.04-.4a1.932,1.932,0,0,1,.04-.476,3.2,3.2,0,0,0-.04-1.072,2.243,2.243,0,0,1,0-.516c0-.238-.04-.476-.04-.714a.694.694,0,0,1,.278-.556.123.123,0,0,1,.079-.04,4.313,4.313,0,0,0,.714.04h.635a1.719,1.719,0,0,1,.2.04l.04-.04a.228.228,0,0,1,.278.079.64.64,0,0,1,.119.357v.556a2.621,2.621,0,0,1-.04.556c.04.318.04.714.079,1.032l.119,1.667a5.861,5.861,0,0,1,.04.833v.4a1.259,1.259,0,0,0,.2.238c.04,0,.079.04.159.04H59.3c.238.04.516.079.794.119a1.608,1.608,0,0,0,.437,0,3.831,3.831,0,0,1,.675,0,1.593,1.593,0,0,0,.6-.119,2.43,2.43,0,0,0,.159-.238,1.935,1.935,0,0,0,.159-.437.676.676,0,0,0,.04-.278,1.719,1.719,0,0,1,.04-.2v-.119a7.731,7.731,0,0,1-.079-.992,10.544,10.544,0,0,1,.04-1.945c0-.2-.079-.357-.079-.556a2.657,2.657,0,0,1,0-.794c.04-.119.079-.278.238-.318h.159a.039.039,0,0,0,.04-.04.358.358,0,0,1,.2-.04h.4c.159.04.318.04.476.079a5.292,5.292,0,0,0,.794,0,.182.182,0,0,1,.2.159,4.373,4.373,0,0,1,.079.714c.04.794.04,1.548.04,2.3v2.342c0,.119-.04.2-.04.318v.516c0,.04.04.079.04.159v4.922c0,.079-.04.119-.04.2v.516a1.719,1.719,0,0,1,.04.2,8.95,8.95,0,0,0,0,1.032.554.554,0,0,1-.476.675M22.194,74.975a2.058,2.058,0,0,1-.2.953,1.756,1.756,0,0,1-.2.6,2.017,2.017,0,0,1-1.032.953,5.06,5.06,0,0,1-1.469.4,2.263,2.263,0,0,1-.516.04c-.278,0-.516.04-.794.04-.437,0-.873-.079-1.31-.119a3.021,3.021,0,0,1-.833-.119,1.253,1.253,0,0,1-.873-.516.834.834,0,0,0-.437-.278c-.318-.119-.4-.4-.556-.635a2.073,2.073,0,0,1-.159-.833c-.04-.516-.04-1.032-.079-1.508,0-.159.079-.318.079-.476-.04-.437.04-.833.04-1.23.04-.159-.04-.318-.04-.476a3,3,0,0,1-.04-.6c0-.119-.04-.278-.04-.4.04-.4.079-.794.079-1.151,0-.476-.04-.953-.079-1.429,0-.2.079-.357.079-.516a6.789,6.789,0,0,1,.119-1.548c.04-.079,0-.2,0-.318a.734.734,0,0,1,.437-.675,2.312,2.312,0,0,0,.6-.437,3.483,3.483,0,0,1,.833-.476,1.664,1.664,0,0,1,.873-.2,4.189,4.189,0,0,1,.992.079.586.586,0,0,0,.357-.04h1.191a.934.934,0,0,1,.318.079c.159,0,.318.079.437.079a.755.755,0,0,1,.516.2,4.379,4.379,0,0,0,1.032.714c.318.119.357.437.437.675a4.063,4.063,0,0,1,.2,1.389v2.421c0,.119-.04.2-.04.318,0,.159.04.318.04.516v.159c.04,1.389,0,2.9.04,4.366m-1.945-.516c0-.318-.04-.6-.04-.913-.04-.476-.04-.953-.04-1.429v-.079a4.373,4.373,0,0,0-.079-.714v-.675c.04-.476.079-.953.079-1.469a.139.139,0,0,0,.04-.079c0-.159.079-.318.04-.476a4.8,4.8,0,0,1-.04-.754,5.292,5.292,0,0,0,0-.794,1.181,1.181,0,0,0-.2-.6,1.091,1.091,0,0,0-.635-.4,2.016,2.016,0,0,0-.675-.119h-.04a1.932,1.932,0,0,0-.476.04,3.085,3.085,0,0,0-.635.079c-.04,0-.079.04-.159.04a2.568,2.568,0,0,0-.357.318,3.433,3.433,0,0,0-.278.4.358.358,0,0,0-.04.2,1.427,1.427,0,0,0-.079.437c-.04.357-.04.714-.079,1.111-.079,1.23-.079,2.421-.079,3.652,0,.238.04.437.04.635v.357a7.971,7.971,0,0,0,.04.992c.04.119.04.2.079.318a2.073,2.073,0,0,0,.556.992,1.729,1.729,0,0,0,.635.4.336.336,0,0,0,.278,0,5.588,5.588,0,0,1,1.151-.04.574.574,0,0,0,.278-.079c.119-.04.2-.2.318-.238a1.382,1.382,0,0,0,.4-1.111m17.226,3.1c.04.119-.04.357-.159.318A.758.758,0,0,1,37,77.753h0a1.1,1.1,0,0,1-.714,0c-.159,0-.318-.04-.476-.04h-.159c-.04,0-.079.04-.119.04-.04.04-.119,0-.2-.04a.3.3,0,0,1-.159-.04.146.146,0,0,0-.119-.04A.8.8,0,0,1,34.815,77c.04-.953.04-1.905.04-2.858,0-.675.04-1.389.04-2.064v-.04s0-.079.04-.079v-.794a2.971,2.971,0,0,0-.04-1.032,1.512,1.512,0,0,0-.119-.4c-.04-.079-.079-.119-.119-.2-.04,0-.04.079-.079.079a7.4,7.4,0,0,0-.4.794c-.119.238-.2.437-.318.675a4.119,4.119,0,0,1-.159.4A.776.776,0,0,1,32.91,72h-.873a.753.753,0,0,1-.833-.516,1.659,1.659,0,0,0-.159-.4,1.029,1.029,0,0,1-.119-.675.4.4,0,0,0-.238-.4.179.179,0,0,1-.119-.119,1.407,1.407,0,0,1-.119.437v.2a1.992,1.992,0,0,0,.079.476,6.4,6.4,0,0,1,0,.873v3.136a7.648,7.648,0,0,1-.04.953h0c0,.079.04.159.04.278s-.04.278-.04.4v.04a1.718,1.718,0,0,1-.04.635c-.04.159-.119.357-.318.4a1.628,1.628,0,0,1-.437-.04h-.119c-.357,0-.754.04-1.111.04a.391.391,0,0,1-.318-.119.651.651,0,0,1-.278-.437,3.9,3.9,0,0,1-.119-1.349,7.75,7.75,0,0,0,.079-.913c.04-.516.04-1.032.04-1.548,0-1.27-.04-2.58.04-3.85.04-.635.079-1.27.079-1.945V66.68c-.04-.278-.04-.6-.079-.913a3.914,3.914,0,0,1-.119-.953,1.039,1.039,0,0,1,.4-.913h.079c.04,0,.079-.04.119-.079.119-.079.357-.04.556-.04a7.731,7.731,0,0,0,.992.079.426.426,0,0,1,.476.437,1.23,1.23,0,0,0,.238.516,4.776,4.776,0,0,1,.437.913c.079.238.119.476.2.714a.626.626,0,0,0,.2.318c.278.2.318.476.437.754a6.106,6.106,0,0,1,.318.754c.079.238.278.2.476.238h.119c.159,0,.278-.04.278-.238.04-.119.159-.238.2-.357a1.227,1.227,0,0,0,.079-.318,1.969,1.969,0,0,1,.119-.516,2.161,2.161,0,0,1,.437-.714,1.333,1.333,0,0,0,.2-.556,1,1,0,0,1,.357-.794,1.124,1.124,0,0,0,.437-.675,1.609,1.609,0,0,1,.2-.357.425.425,0,0,1,.238-.079c.437-.04.873-.04,1.31-.079a.239.239,0,0,1,.159.04H36.76c.079-.04.079-.04.119,0h.278c.04,0,.04.079.079.119l.119.357c.04.278.079.516.119.794a7.8,7.8,0,0,1,0,1.667c0,.556-.04,1.111-.04,1.667,0,.6-.04,1.27-.04,1.905a5.861,5.861,0,0,0-.04.833c.04.6.04,1.23.079,1.826v.992a8.268,8.268,0,0,1,0,.992,7.007,7.007,0,0,0,0,.913,6.021,6.021,0,0,1,.119.833,1,1,0,0,1-.079.6c-.04.04,0,.119,0,.2m13.971-1.23v1.032a.461.461,0,0,1-.516.516c-.119,0-.278-.04-.4-.04-.159,0-.318.04-.516.04h-3.1c-.357,0-.675-.04-.992-.04-.357,0-.714.04-1.032.04-.159,0-.318-.04-.476-.04-.278,0-.556.04-.833.04-.4,0-.476-.159-.516-.476,0-.278-.04-.6-.04-.873,0-.238.04-.516.04-.754,0-.278-.04-.556-.04-.833,0-.437.04-.913.04-1.349v-.357A9.773,9.773,0,0,0,43.15,72.2a2.011,2.011,0,0,0-.079-.516v-.556c0-.119-.04-.278-.04-.4.04-.4.04-.794.04-1.151,0-.476-.04-.953-.04-1.429,0-.159.079-.318.04-.476a7.48,7.48,0,0,1,.079-1.349,1.992,1.992,0,0,0-.079-.476v-.556a4.314,4.314,0,0,0-.04-.714.776.776,0,0,1,.278-.6h.714a5.424,5.424,0,0,0,1.389,0,3.226,3.226,0,0,1,.873.04c.2,0,.437.119.635.119.238,0,.476-.04.714-.04a.432.432,0,0,1,.2-.04c.476,0,.913-.04,1.389-.04a4.557,4.557,0,0,1,.754.04h1.111a.254.254,0,0,1,.278.2,6.417,6.417,0,0,1,.079,1.508.361.361,0,0,1-.4.318H47.119c-.04.04-.119.04-.2.079-.119.079-.318.04-.437.079a1.79,1.79,0,0,0-.437.119c0,.04-.04.04-.04.079l-.04.04a.039.039,0,0,0-.04.04v.04c0,.04-.04.079-.04.119s0,.04-.04.04V66.8c-.04,0-.04.04-.04.079h0v.159a9.321,9.321,0,0,0-.04,1.072c0,.278.04.556.04.833a3.9,3.9,0,0,0,.318.714,1.07,1.07,0,0,0,.278.318,1.992,1.992,0,0,0,.476.079h.913c.437,0,.873-.04,1.27,0,.079,0,.2.119.238.2a2.342,2.342,0,0,1,.079.556c.04.238,0,.476.04.714a.509.509,0,0,1-.516.556c-.318,0-.675-.04-.992-.04-.159,0-.278.04-.437.04-.278,0-.556-.04-.833-.04a2.34,2.34,0,0,0-.318.159,1.249,1.249,0,0,0-.516.675h0v.119c0,.516.119,1.032.119,1.548a1.936,1.936,0,0,0,.04.675.905.905,0,0,0,.238.476l.119.119a.867.867,0,0,0,.2.119c.119,0,.278.04.4.04H47.4a4.146,4.146,0,0,1,.992,0,1.8,1.8,0,0,0,.913-.079,1.134,1.134,0,0,1,.635.04c.079.04.238,0,.357,0,.278,0,.6-.079.873-.079.04,0,.119,0,.119.079a.746.746,0,0,1,.159.4M64.9,75.848a2.877,2.877,0,0,1-1.667,1.667,6.6,6.6,0,0,1-1.469.357c-.4.04-.833,0-1.23,0a4.864,4.864,0,0,1-.754-.079c-.2-.04-.437-.079-.6-.119a5.026,5.026,0,0,1-.714-.238,2.548,2.548,0,0,1-.516-.4A3,3,0,0,1,57.4,76.6a1.557,1.557,0,0,1-.318-.556,4.307,4.307,0,0,1-.318-1.865.407.407,0,0,1,.2-.238,2.3,2.3,0,0,1,1.27,0c.119,0,.2.04.278,0,.238,0,.318.079.357.318A1.432,1.432,0,0,0,59.9,75.57a2.342,2.342,0,0,1,.318.159A3.6,3.6,0,0,0,61.8,75.61a2.023,2.023,0,0,0,.873-.754,1.488,1.488,0,0,0,.04-.437,2.524,2.524,0,0,0-1.389-1.905,7.581,7.581,0,0,0-1.111-.6,6.846,6.846,0,0,1-1.072-.6,4.755,4.755,0,0,1-.476-.437c-.2-.159-.437-.278-.6-.437a3.108,3.108,0,0,1-.635-.794,2.412,2.412,0,0,1-.4-.556,2.62,2.62,0,0,1-.238-1.072c0-.238.04-.476.04-.675a2.441,2.441,0,0,1,.04-.516c.079-.357.2-.714.278-1.072a.725.725,0,0,1,.318-.516.866.866,0,0,0,.2-.159,3,3,0,0,0,.556-.437c.238-.159.437-.318.635-.437a1.3,1.3,0,0,1,.873-.2c.079,0,.2.04.278,0a1.5,1.5,0,0,1,.6,0h.357c.2,0,.437-.079.635-.079a1.51,1.51,0,0,1,.714.119,5.651,5.651,0,0,0,.635.2c.4,0,.635.318.913.516a3.154,3.154,0,0,1,.714.556,1.013,1.013,0,0,1,.278.4,4.06,4.06,0,0,1,.318,1.786.316.316,0,0,1-.278.357c-.2.04-.476.079-.714.119l-.714-.119c-.238-.079-.238-.119-.278-.357a1.407,1.407,0,0,0-.119-.437L62.8,66.8a3.458,3.458,0,0,0-.714-.437,2.837,2.837,0,0,0-1.627-.119,1.47,1.47,0,0,0-.714.318c-.119.079-.2.159-.278.2l-.04.04h0a2.363,2.363,0,0,0,.4,1.985,6.255,6.255,0,0,0,.476.6,1.053,1.053,0,0,1,.238.2c.04.04.119.04.159.079.2.079.357.159.556.238.079,0,.159.079.238.119.318.2.6.357.913.516a2.377,2.377,0,0,0,.635.318,1.9,1.9,0,0,1,.675.4,3.8,3.8,0,0,1,.873.913,2.983,2.983,0,0,1,.516,1.349,4.613,4.613,0,0,1-.2,2.342M9.81,43.342c-.04.278-.04.516-.079.794-.079.476-.079.913-.119,1.349a6.431,6.431,0,0,0-.04.873A14.137,14.137,0,0,1,9.334,48.1a1.78,1.78,0,0,0-.04.437v.794a2.68,2.68,0,0,1-.079.556c-.04.238-.159.437-.2.714a3.226,3.226,0,0,0-.04.873,3.738,3.738,0,0,1-.04,1.151l-.119.833c-.04.119.04.2,0,.278-.04.437-.079.913-.119,1.349-.04.4-.079.833-.119,1.23a.6.6,0,0,1-.516.437,1.1,1.1,0,0,1-.357.04,3.851,3.851,0,0,0-.675-.04c-.079,0-.2.04-.238,0-.278-.079-.318-.159-.318-.437a.851.851,0,0,0-.159-.476,2.2,2.2,0,0,1-.556-1.032c-.159-.476-.437-.913-.556-1.349a.5.5,0,0,0-.516-.357l-.079.079a5.176,5.176,0,0,0-.635,1.23,4.41,4.41,0,0,1-.278.635c-.04.079-.079.2-.119.278-.04.04-.04.04-.04.119v.079c-.04.159-.119.357-.159.556a1.039,1.039,0,0,1-.238.516.478.478,0,0,1-.556.119,9.651,9.651,0,0,1-1.072,0,.838.838,0,0,1-.4-.159c-.04,0-.079-.079-.079-.159a1.952,1.952,0,0,0-.159-.834.774.774,0,0,1-.04-.318,10.309,10.309,0,0,1-.119-1.032,1.747,1.747,0,0,1,.079-.4,2.278,2.278,0,0,0-.079-1.151,3.5,3.5,0,0,1-.079-.675c-.04-.318-.079-.635-.119-.913a1.78,1.78,0,0,1-.04-.437V49.613a1.488,1.488,0,0,0-.04-.437C.324,48.938.4,48.7.324,48.462a1.451,1.451,0,0,1,0-.714c.04-.119-.04-.278-.04-.4a10.7,10.7,0,0,0-.159-1.111c-.04-.4-.119-.754-.159-1.151-.079-.476-.119-.953-.2-1.389a.84.84,0,0,1,.159-.754.326.326,0,0,1,.238-.159c.516,0,1.032.04,1.508.079.079,0,.159.079.238.159.079,0,.119,0,.159.04a.4.4,0,0,1,.2.318,4.58,4.58,0,0,1,.04,1.032c0,.4.04.794.079,1.23l.238,1.905c.079.635.2,1.31.278,1.945.04.318.079.635.119.913v.238l.119-.238c.159-.4.318-.754.516-1.151l.119-.238a.721.721,0,0,1,.6-.4,4.886,4.886,0,0,0,.794-.079c.437,0,.516.2.516.516a.818.818,0,0,0,.278.675c.04.04.04.079.079.159.119.318.238.675.357,1.032,0,.119.079.119.159.079.159-.04.318-.119.318-.318a4.314,4.314,0,0,0,.04-.714v-.714c.04-.318.119-.6.159-.873a1.079,1.079,0,0,0,0-.357c0-.437.079-.833.079-1.23a4.03,4.03,0,0,1,.238-.992,1.353,1.353,0,0,0,0-.794,5.842,5.842,0,0,1,0-.833,3.91,3.91,0,0,1,.079-.675c.04-.238.079-.516.318-.635a.564.564,0,0,1,.238-.079,4.682,4.682,0,0,1,1.469.2c.278.079.318.159.318.357m-2.1,34.531c-.159,0-.318-.04-.476-.04-.2,0-.4.04-.6.04a.534.534,0,0,1-.357-.079c-.04.04-.079,0-.159,0-.04,0-.079-.04-.119-.04a.339.339,0,0,1-.278,0,.631.631,0,0,1-.318-.4,4.545,4.545,0,0,1-.04-1.27V74.181c0-.318.04-.635.04-.953a2.342,2.342,0,0,1,.079-.556.5.5,0,0,0-.04-.238,1.41,1.41,0,0,0-.159-.357.748.748,0,0,0-.357-.159H4.015a9.671,9.671,0,0,1-1.072-.04h0a1.07,1.07,0,0,0-.318.278,1.23,1.23,0,0,0-.238.516,4.314,4.314,0,0,0-.04.714,9.321,9.321,0,0,0,.04,1.032v.953c0,.159-.04.318-.04.516v.278c-.04.238-.04.516-.079.754a1.477,1.477,0,0,1-.278.794.175.175,0,0,1-.2.04.485.485,0,0,1-.357.119H.4c-.4,0-.476-.159-.516-.476a11.154,11.154,0,0,1-.04-1.151c0-.2.079-.4.079-.556,0-.278-.079-.516-.079-.794,0-.437.04-.913.079-1.349,0-.119.04-.238,0-.318a4.847,4.847,0,0,1,.04-1.072c0-.2-.04-.318-.04-.516a2.62,2.62,0,0,1-.04-.556,1.488,1.488,0,0,1-.04-.437,5.423,5.423,0,0,0,.079-.754c0-.238-.04-.476-.04-.754,0-.2-.04-.476-.04-.794a3.958,3.958,0,0,1,.079-.635c0-.119-.04-.238-.04-.4a1.932,1.932,0,0,1,.04-.476,3.2,3.2,0,0,0-.04-1.072,2.6,2.6,0,0,1,0-.556,4.314,4.314,0,0,1-.04-.714.694.694,0,0,1,.278-.556c.04,0,.04-.04.079,0,.238,0,.476.04.714.04h.635a1.719,1.719,0,0,1,.2.04h.04a.245.245,0,0,1,.278.079.64.64,0,0,1,.119.357v.556a2.62,2.62,0,0,1-.04.556,9.321,9.321,0,0,1,.04,1.072l.119,1.667a5.862,5.862,0,0,1,.04.833,1.35,1.35,0,0,1,.04.4.478.478,0,0,0,.2.2c.04,0,.079.04.119.079h.079c.278.04.516.079.794.119h.437a3.823,3.823,0,0,1,.675,0,1.593,1.593,0,0,0,.6-.119,1,1,0,0,1,.159-.278,1.189,1.189,0,0,0,.159-.4.588.588,0,0,0,.04-.278.419.419,0,0,1,.079-.2v-.079a9.072,9.072,0,0,1-.079-.992,10.544,10.544,0,0,1,.04-1.945,2.68,2.68,0,0,0-.079-.556,2.661,2.661,0,0,1,0-.794c.04-.119.079-.278.238-.318h.2l.04-.04c.04-.04.119,0,.159,0h.4c.159,0,.278.04.437.04a5.291,5.291,0,0,0,.794,0c.119,0,.2.04.2.159a3.932,3.932,0,0,1,.079.714V69.5c0,.119-.04.2-.04.357v5.6a1.719,1.719,0,0,1-.04.2v.675a8.944,8.944,0,0,0,0,1.032c.159.318-.119.516-.357.516" transform="translate(0.252)" fill="#fff"/>
</svg>
