<svg xmlns="http://www.w3.org/2000/svg" width="206" height="206" viewBox="0 0 206 206">
  <g id="Group_61" data-name="Group 61" transform="translate(-835 -8653)">
    <circle id="Ellipse_7" data-name="Ellipse 7" cx="103" cy="103" r="103" transform="translate(835 8653)" fill="#fff"/>
    <g id="Group_28" data-name="Group 28" transform="translate(832.05 8674.83)">
      <g id="Group_27" data-name="Group 27" transform="translate(74 36.057)">
        <path id="Path_31" data-name="Path 31" d="M137.9,49.225a2.059,2.059,0,0,0-.395-1.166,1.723,1.723,0,0,0-.263-.263c-14.231-12.2-13.291-11.43-13.611-11.562-.677-.32,1.767-.094-47.751-.169A1.885,1.885,0,0,0,74,37.945V124.4a1.885,1.885,0,0,0,1.88,1.88h60.14a1.885,1.885,0,0,0,1.88-1.88V49.225Zm-13.141-7.2,6.2,5.32h-6.2Zm-46.98,80.5v-82.7H121v9.4a1.885,1.885,0,0,0,1.88,1.88h11.28v71.42Z" transform="translate(-74 -36.057)" fill="#ada220"/>
        <path id="Path_32" data-name="Path 32" d="M244.68,386h-18.8a1.88,1.88,0,1,0,0,3.76h18.8a1.88,1.88,0,0,0,0-3.76Z" transform="translate(-195.801 -320.212)" fill="#ada220"/>
        <path id="Path_33" data-name="Path 33" d="M179.719,426H145.88a1.88,1.88,0,1,0,0,3.76h33.839a1.88,1.88,0,1,0,0-3.76Z" transform="translate(-130.84 -352.692)" fill="#ada220"/>
        <path id="Path_34" data-name="Path 34" d="M187.76,389.76a1.88,1.88,0,1,0,0-3.76h-1.88a1.88,1.88,0,0,0,0,3.76Z" transform="translate(-163.32 -320.212)" fill="#ada220"/>
        <path id="Path_35" data-name="Path 35" d="M145.88,389.76h1.88a1.88,1.88,0,0,0,0-3.76h-1.88a1.88,1.88,0,1,0,0,3.76Z" transform="translate(-130.84 -320.212)" fill="#ada220"/>
        <path id="Path_36" data-name="Path 36" d="M154.68,146.1a20.68,20.68,0,1,0,20.68,20.68A20.7,20.7,0,0,0,154.68,146.1Zm16.807,18.781H156.56V149.954A16.945,16.945,0,0,1,171.486,164.881Zm-33.727,1.88a16.949,16.949,0,0,1,15.04-16.807v16.807a2.04,2.04,0,0,0,.282,1l8.911,14.25A16.934,16.934,0,0,1,137.76,166.761Zm27.41,13.254-7.106-11.374h13.423A16.8,16.8,0,0,1,165.17,180.015Z" transform="translate(-122.72 -125.412)" fill="#ada220"/>
      </g>
    </g>
  </g>
</svg>
