<svg xmlns="http://www.w3.org/2000/svg" width="206" height="206" viewBox="0 0 206 206">
  <g id="Group_61" data-name="Group 61" transform="translate(-889 -5443)">
    <circle id="Ellipse_7" data-name="Ellipse 7" cx="103" cy="103" r="103" transform="translate(889 5443)" fill="#fff"/>
    <g id="noun_Pregnancy_374502" transform="translate(964 5482)">
      <path id="Path_9" data-name="Path 9" d="M69.588,36.385c-8.135,0-13.035-6.456-13.035-13.765A12.487,12.487,0,0,1,81.3,20.258c.15.765.5,6.625,7.442,4.562A21.031,21.031,0,0,1,69.588,36.385ZM32.509,85.017A25.33,25.33,0,0,1,55.8,62.782L59.149,49.1c2.933-11.976,19.334-12.983,20.927-3.121l4.424,27.4L59.9,88.211a2.389,2.389,0,1,0,2.458,4.1l.01,0,17.36-10.466,6.819,44.2H75.207V137.15H59.149l-3.2-11.114H40.3l3.9-15.9A25.69,25.69,0,0,1,32.509,85.017Z" transform="translate(-32.276 -10.133)" fill="#438aca"/>
    </g>
  </g>
</svg>
