<svg xmlns="http://www.w3.org/2000/svg" width="206" height="206" viewBox="0 0 206 206">
  <g id="Group_60" data-name="Group 60" transform="translate(-537 -5443)">
    <circle id="Ellipse_7" data-name="Ellipse 7" cx="103" cy="103" r="103" transform="translate(537 5443)" fill="#fff"/>
    <g id="noun_Headache_3008955" transform="translate(-762.174 5549.675)">
      <g id="Group_10" data-name="Group 10" transform="translate(1221.064 -80.63)">
        <path id="Path_8" data-name="Path 8" d="M156.541,86.476c-6.4,6.584-7.051,9.4-9.949,15.266l7.892,3.6q-.344,4.115-.686,8.233l2.486.6c-.138,17.429-.465,14,17.925,11.321v8.916l35-5.9c0-26.527-2.442-17.592,9.948-41.1,15.438-44.747-52.35-61.729-63.466-20.239V82.96l.852,3.516Zm2.544-31.318L158.523,34.8l-5.336,3.37L150.94,22.861l-9.83,7.583,6.6,16.148,5.477-3.51Zm7.3-6.459-1.406-11.8-3.229,1.826-2.247-13.9,9.409-5.336-1.264,13.9,5.336-1.264Z" fill="#438aca" fill-rule="evenodd"/>
      </g>
    </g>
  </g>
</svg>
