<svg xmlns="http://www.w3.org/2000/svg" width="206" height="206" viewBox="0 0 206 206">
  <g id="Group_59" data-name="Group 59" transform="translate(-247 -5443)">
    <circle id="Ellipse_7" data-name="Ellipse 7" cx="103" cy="103" r="103" transform="translate(247 5443)" fill="#fff"/>
    <path id="Path_7" data-name="Path 7" d="M12.007,86.818H77.929v8.8a5.254,5.254,0,0,1-2.213,4.292l-1.61.537a9.59,9.59,0,0,1-2.867.469H18.7a9.4,9.4,0,0,1-2.85-.469L14.2,99.912a5.284,5.284,0,0,1-2.2-4.292Zm0-46.994H77.929V85.141H12.007Zm8.215,36.2a.841.841,0,0,0,.838.838H68.876a.841.841,0,0,0,.838-.838V48.944a.83.83,0,0,0-.838-.838H21.06a.83.83,0,0,0-.838.838ZM74.09,22.236l-6.757-1.945a4.929,4.929,0,0,1-3.571-4.727v-1.71H26.174v1.71A4.929,4.929,0,0,1,22.6,20.291l-6.757,1.945a5.3,5.3,0,0,0-3.839,5.1V38.147H77.929V27.333a5.3,5.3,0,0,0-3.84-5.1ZM23.106,12.176H66.831a1.2,1.2,0,0,0,1.207-1.207V3.207A1.2,1.2,0,0,0,66.831,2H23.106A1.2,1.2,0,0,0,21.9,3.207V10.97a1.2,1.2,0,0,0,1.207,1.207ZM68.038,75.182H21.9v-25.4H68.038Zm-13.9-12.96a.853.853,0,0,0-.737-.738,11.7,11.7,0,0,0-4.594.5,6.07,6.07,0,0,0,.318-1.828c0-3.621-3.487-6.438-3.638-6.555a.811.811,0,0,0-1.04,0c-.151.118-3.638,2.935-3.638,6.555a6.07,6.07,0,0,0,.318,1.828,11.7,11.7,0,0,0-4.594-.5.854.854,0,0,0-.738.738c-.016.184-.5,4.644,2.062,7.209a8.9,8.9,0,0,0,6.152,2.112,8.534,8.534,0,0,0,.956-.05,8.538,8.538,0,0,0,.956.05,8.9,8.9,0,0,0,6.153-2.113c2.565-2.565,2.078-7.025,2.062-7.209ZM47.449,60.16a7.4,7.4,0,0,0-2.481-4.778,7.447,7.447,0,0,0-2.481,4.778,6.221,6.221,0,0,0,1.492,3.654,2.576,2.576,0,0,1,.319.4c.251.268.486.52.67.7.184-.184.419-.436.67-.7a2.6,2.6,0,0,1,.319-.4,6.221,6.221,0,0,0,1.492-3.655Zm-1.643,8.551a9.214,9.214,0,0,1,.033,1.14A7.275,7.275,0,0,0,50.9,68.242a7.445,7.445,0,0,0,1.609-5.13,7.468,7.468,0,0,0-5.13,1.626,6.481,6.481,0,0,0-1.576,3.973Zm-3.252-3.973a7.386,7.386,0,0,0-5.13-1.626,7.421,7.421,0,0,0,1.609,5.131A7.406,7.406,0,0,0,44.1,69.868a9.131,9.131,0,0,1,.033-1.14,6.488,6.488,0,0,0-1.575-3.991Z" transform="translate(304.993 5494.541)" fill="#438aca"/>
  </g>
</svg>
