<svg xmlns="http://www.w3.org/2000/svg" width="178" height="178" viewBox="0 0 178 178">
  <g id="Group_65" data-name="Group 65" transform="translate(-954 -11924)">
    <circle id="Ellipse_15" data-name="Ellipse 15" cx="89" cy="89" r="89" transform="translate(954 11924)" fill="#fff"/>
    <g id="Group_41" data-name="Group 41" transform="translate(233.732 -565.242)">
      <path id="Path_45" data-name="Path 45" d="M30.636,30.736a1.291,1.291,0,0,0,1.4-.3l2.951-3,2.951,3a1.306,1.306,0,0,0,1.4.3,1.277,1.277,0,0,0,.8-1.2V21.38a9.022,9.022,0,1,0-10.311,0v8.158A1.277,1.277,0,0,0,30.636,30.736Zm6.934-4.343L35.907,24.7a1.34,1.34,0,0,0-1.843,0L32.4,26.393v-3.75a8.9,8.9,0,0,0,2.578.374,9.367,9.367,0,0,0,2.578-.374v3.75Zm-9.022-12.4a6.444,6.444,0,1,1,6.444,6.444A6.446,6.446,0,0,1,28.548,13.995Z" transform="translate(774.242 12547.144)" fill="#48a55a"/>
      <path id="Path_46" data-name="Path 46" d="M83.321,45.832A1.288,1.288,0,0,0,81.5,45.7L66.1,59.119l-.632-.889v-.013L56.836,46.051a.013.013,0,0,1-.013-.013l-.309-.425,26.64-21.5A1.292,1.292,0,1,0,81.53,22.1L53.949,44.362a1.3,1.3,0,0,0-.245,1.753l.232.322-1.044.67a3.013,3.013,0,0,1-2.127.425l-11.1-2.023a5.531,5.531,0,0,0-5.387,2.1,7.612,7.612,0,0,0-1.327-.013,5.24,5.24,0,0,1-3.428-.915l-.748-.528a1.3,1.3,0,0,0-.245-1.727L3,23.677a1.3,1.3,0,0,0-1.637,2.011l24.578,20-.026.039h0L16.805,58.565v.013l-.425.593L3.054,47.262a1.287,1.287,0,0,0-1.714,1.92L15.748,62.045a1.3,1.3,0,0,0,.864.322.529.529,0,0,0,.142-.013,1.269,1.269,0,0,0,.9-.528l.528-.735,3.093,2.165-.49.709a3.447,3.447,0,0,0,.851,4.794h0a3.174,3.174,0,0,0,1.173.516,3.445,3.445,0,0,0,1.418,3.286h0a3.4,3.4,0,0,0,1.972.619,3.546,3.546,0,0,0,1.611-.4,3.334,3.334,0,0,0,.889.915,3.37,3.37,0,0,0,1.972.619c.077,0,.155-.026.245-.026a3.485,3.485,0,0,0,1.315,1.882h0a3.4,3.4,0,0,0,1.972.619,3.45,3.45,0,0,0,2.823-1.469l.49-.709,3.106,2.178a3.414,3.414,0,0,0,2.062.683,3.657,3.657,0,0,0,2.99-1.547,3.481,3.481,0,0,0,.477-.954l1.3.915a3.631,3.631,0,0,0,2.719.606A3.591,3.591,0,0,0,52.518,75a3.645,3.645,0,0,0,.567-1.25,3.66,3.66,0,0,0,3.583-1.121,3.726,3.726,0,0,0,.864-2.835,3.681,3.681,0,0,0-.567-1.547,3.678,3.678,0,0,0,1.147-1.25,3.529,3.529,0,0,0,.425-1.869l5.619-4.3.683.967a1.269,1.269,0,0,0,.9.528c.052,0,.1.013.155.013a1.319,1.319,0,0,0,.851-.322L83.218,47.649A1.31,1.31,0,0,0,83.321,45.832ZM22.876,65.46l2.346-3.351a.865.865,0,1,1,1.418.992l-.335.477-2.011,2.874a.866.866,0,0,1-1.211.206A.878.878,0,0,1,22.876,65.46Zm2.81,5a.866.866,0,0,1-.206-1.211l4.214-6.019a.831.831,0,0,1,.554-.348.863.863,0,0,1,.644.142.831.831,0,0,1,.348.554.863.863,0,0,1-.142.644l-4.214,6.019A.853.853,0,0,1,25.685,70.461Zm4.459,1.147h0a.831.831,0,0,1-.348-.554.863.863,0,0,1,.142-.644l2.346-3.351a.831.831,0,0,1,.554-.348.628.628,0,0,1,.155-.013.82.82,0,0,1,.49.155.831.831,0,0,1,.348.554.863.863,0,0,1-.142.644L31.343,71.4a.831.831,0,0,1-.554.348A.889.889,0,0,1,30.144,71.608Zm4.743,2.255a.859.859,0,0,1-1.559-.335.863.863,0,0,1,.142-.644h0l.838-1.186a.864.864,0,0,1,1.2-.206.879.879,0,0,1,.206,1.211Zm20.969-8.145a1.047,1.047,0,0,1-.7.516,1.019,1.019,0,0,1-.838-.168l-8.068-5.645a1.287,1.287,0,1,0-1.469,2.114l8.068,5.645,1.675,1.173a1.049,1.049,0,0,1,.438.735,1.031,1.031,0,0,1-.258.825A1.148,1.148,0,0,1,53.2,71l-9.64-6.753a1.287,1.287,0,1,0-1.469,2.114l8.068,5.645a1.064,1.064,0,0,1,.438.683,1.006,1.006,0,0,1-.18.786,1.054,1.054,0,0,1-1.469.258L40.88,68.09A1.287,1.287,0,1,0,39.411,70.2l3.918,2.745h0a1.056,1.056,0,0,1,.245,1.469,1.054,1.054,0,0,1-1.469.258L38.47,72.124a3.477,3.477,0,0,0-1.456-2.8,3.7,3.7,0,0,0-.851-.412,3.521,3.521,0,0,0,.245-2A3.346,3.346,0,0,0,34.99,64.7a3.431,3.431,0,0,0-1.173-.528,3.236,3.236,0,0,0-.013-1.057A3.346,3.346,0,0,0,32.387,60.9a3.434,3.434,0,0,0-2.578-.567,3.474,3.474,0,0,0-1.005.361,3.57,3.57,0,0,0-.889-.928,3.44,3.44,0,0,0-4.794.851l-.374.528-3.08-2.152,7.617-10.736.76.528a7.658,7.658,0,0,0,4.421,1.366L29.41,54.505A2.5,2.5,0,0,0,29,56.336,2.446,2.446,0,0,0,30,57.908a5.47,5.47,0,0,0,7.6-1.34l2.255-3.222L55.405,64.236A1.215,1.215,0,0,1,55.856,65.718Zm1.624-3.055a5.522,5.522,0,0,0-.58-.516l-5.233-3.66a5.414,5.414,0,0,0,2.384-1.907,1.287,1.287,0,1,0-2.114-1.469,2.934,2.934,0,0,1-4.086.722l-7.565-5.3a.762.762,0,0,0-.18-.077,1.094,1.094,0,0,0-.284-.116,1.19,1.19,0,0,0-.477-.013h-.026c-.052.013-.09.039-.142.052a1.2,1.2,0,0,0-.322.129,1.368,1.368,0,0,0-.374.348l-2.99,4.279a2.884,2.884,0,0,1-3.892.786l4.64-6.637A2.951,2.951,0,0,1,39.2,48.074L50.3,50.1a5.494,5.494,0,0,0,3.982-.786l1.147-.735,7.2,10.156Z" transform="translate(767 12552.013)" fill="#48a55a"/>
      <path id="Path_47" data-name="Path 47" d="M16.259,40.915a1.293,1.293,0,0,0,1.289-1.289V3.578H58.79V39.626a1.289,1.289,0,1,0,2.578,0V2.289A1.293,1.293,0,0,0,60.079,1H16.259A1.293,1.293,0,0,0,14.97,2.289V39.626A1.284,1.284,0,0,0,16.259,40.915Z" transform="translate(771.065 12546)" fill="#48a55a"/>
      <path id="Path_48" data-name="Path 48" d="M53.768,27.97H20.259a1.289,1.289,0,0,0,0,2.578H53.768a1.289,1.289,0,0,0,0-2.578Z" transform="translate(772.22 12553.789)" fill="#48a55a"/>
      <path id="Path_49" data-name="Path 49" d="M55.057,33.259a1.293,1.293,0,0,0-1.289-1.289H20.259a1.289,1.289,0,1,0,0,2.578H53.768A1.284,1.284,0,0,0,55.057,33.259Z" transform="translate(772.22 12554.944)" fill="#48a55a"/>
      <path id="Path_50" data-name="Path 50" d="M25.259,35.97a1.289,1.289,0,1,0,0,2.578H45.88a1.289,1.289,0,0,0,0-2.578Z" transform="translate(773.664 12556.1)" fill="#48a55a"/>
      <path id="Path_51" data-name="Path 51" d="M32.294,15.538a1.266,1.266,0,0,0,.915.374,1.32,1.32,0,0,0,.915-.374l3.866-3.866a1.285,1.285,0,1,0-1.817-1.817l-2.951,2.951-.76-.76a1.285,1.285,0,0,0-1.817,1.817Z" transform="translate(775.483 12548.448)" fill="#48a55a"/>
    </g>
  </g>
</svg>
