<svg xmlns="http://www.w3.org/2000/svg" width="206" height="206" viewBox="0 0 206 206">
  <g id="Group_60" data-name="Group 60" transform="translate(-538 -8653)">
    <circle id="Ellipse_7" data-name="Ellipse 7" cx="103" cy="103" r="103" transform="translate(538 8653)" fill="#fff"/>
    <g id="Group_26" data-name="Group 26" transform="translate(660 8757.222)">
      <path id="Path_15" data-name="Path 15" d="M0,1.678V5.035A1.677,1.677,0,0,0,1.678,6.713H5.035A1.677,1.677,0,0,0,6.713,5.035V1.678A1.677,1.677,0,0,0,5.035,0H1.678A1.677,1.677,0,0,0,0,1.678Z" fill="#ada220"/>
      <path id="Path_16" data-name="Path 16" d="M12.713,1.678A1.677,1.677,0,0,0,11.035,0H7.678A1.677,1.677,0,0,0,6,1.678V5.035A1.677,1.677,0,0,0,7.678,6.713h3.356a1.677,1.677,0,0,0,1.678-1.678Z" transform="translate(4.069)" fill="#ada220"/>
      <path id="Path_17" data-name="Path 17" d="M13.678,6.713h3.356a1.677,1.677,0,0,0,1.678-1.678V1.678A1.677,1.677,0,0,0,17.035,0H13.678A1.677,1.677,0,0,0,12,1.678V5.035A1.677,1.677,0,0,0,13.678,6.713Z" transform="translate(8.139)" fill="#ada220"/>
      <path id="Path_18" data-name="Path 18" d="M23.035,0H19.678A1.677,1.677,0,0,0,18,1.678V5.035a1.677,1.677,0,0,0,1.678,1.678h3.356a1.677,1.677,0,0,0,1.678-1.678V1.678A1.677,1.677,0,0,0,23.035,0Z" transform="translate(12.208)" fill="#ada220"/>
      <path id="Path_19" data-name="Path 19" d="M0,11.035a1.677,1.677,0,0,0,1.678,1.678H5.035a1.677,1.677,0,0,0,1.678-1.678V7.678A1.677,1.677,0,0,0,5.035,6H1.678A1.677,1.677,0,0,0,0,7.678Z" transform="translate(0 4.069)" fill="#ada220"/>
      <path id="Path_20" data-name="Path 20" d="M12.713,7.678A1.677,1.677,0,0,0,11.035,6H7.678A1.677,1.677,0,0,0,6,7.678v3.356a1.677,1.677,0,0,0,1.678,1.678h3.356a1.677,1.677,0,0,0,1.678-1.678Z" transform="translate(4.069 4.069)" fill="#ada220"/>
      <path id="Path_21" data-name="Path 21" d="M12,11.035a1.677,1.677,0,0,0,1.678,1.678h3.356a1.677,1.677,0,0,0,1.678-1.678V7.678A1.677,1.677,0,0,0,17.035,6H13.678A1.677,1.677,0,0,0,12,7.678Z" transform="translate(8.139 4.069)" fill="#ada220"/>
      <path id="Path_22" data-name="Path 22" d="M18,11.035a1.677,1.677,0,0,0,1.678,1.678h3.356a1.677,1.677,0,0,0,1.678-1.678V7.678A1.677,1.677,0,0,0,23.035,6H19.678A1.677,1.677,0,0,0,18,7.678Z" transform="translate(12.208 4.069)" fill="#ada220"/>
      <path id="Path_23" data-name="Path 23" d="M0,17.035a1.677,1.677,0,0,0,1.678,1.678H5.035a1.677,1.677,0,0,0,1.678-1.678V13.678A1.677,1.677,0,0,0,5.035,12H1.678A1.677,1.677,0,0,0,0,13.678Z" transform="translate(0 8.139)" fill="#ada220"/>
      <path id="Path_24" data-name="Path 24" d="M12.713,13.678A1.677,1.677,0,0,0,11.035,12H7.678A1.677,1.677,0,0,0,6,13.678v3.356a1.677,1.677,0,0,0,1.678,1.678h3.356a1.677,1.677,0,0,0,1.678-1.678Z" transform="translate(4.069 8.139)" fill="#ada220"/>
      <path id="Path_25" data-name="Path 25" d="M12,17.035a1.677,1.677,0,0,0,1.678,1.678h3.356a1.677,1.677,0,0,0,1.678-1.678V13.678A1.677,1.677,0,0,0,17.035,12H13.678A1.677,1.677,0,0,0,12,13.678Z" transform="translate(8.139 8.139)" fill="#ada220"/>
      <path id="Path_26" data-name="Path 26" d="M18,17.035a1.677,1.677,0,0,0,1.678,1.678h3.356a1.677,1.677,0,0,0,1.678-1.678V13.678A1.677,1.677,0,0,0,23.035,12H19.678A1.677,1.677,0,0,0,18,13.678Z" transform="translate(12.208 8.139)" fill="#ada220"/>
      <path id="Path_27" data-name="Path 27" d="M0,23.035a1.677,1.677,0,0,0,1.678,1.678H5.035a1.677,1.677,0,0,0,1.678-1.678V19.678A1.677,1.677,0,0,0,5.035,18H1.678A1.677,1.677,0,0,0,0,19.678Z" transform="translate(0 12.208)" fill="#ada220"/>
      <path id="Path_28" data-name="Path 28" d="M11.035,18H7.678A1.677,1.677,0,0,0,6,19.678v3.356a1.677,1.677,0,0,0,1.678,1.678h3.356a1.677,1.677,0,0,0,1.678-1.678V19.678A1.677,1.677,0,0,0,11.035,18Z" transform="translate(4.069 12.208)" fill="#ada220"/>
      <path id="Path_29" data-name="Path 29" d="M12,23.035a1.677,1.677,0,0,0,1.678,1.678h3.356a1.677,1.677,0,0,0,1.678-1.678V19.678A1.677,1.677,0,0,0,17.035,18H13.678A1.677,1.677,0,0,0,12,19.678Z" transform="translate(8.139 12.208)" fill="#ada220"/>
      <path id="Path_30" data-name="Path 30" d="M18,23.035a1.677,1.677,0,0,0,1.678,1.678h3.356a1.677,1.677,0,0,0,1.678-1.678V19.678A1.677,1.677,0,0,0,23.035,18H19.678A1.677,1.677,0,0,0,18,19.678Z" transform="translate(12.208 12.208)" fill="#ada220"/>
    </g>
    <g id="Layer_6" data-name="Layer 6" transform="translate(578.182 8710.696)">
      <path id="Path_37" data-name="Path 37" d="M61.847,21.943V17.955h1.994a1.994,1.994,0,0,0,1.994-1.994V3.994A1.994,1.994,0,0,0,63.841,2H15.977a1.994,1.994,0,0,0-1.994,1.994V15.96a1.994,1.994,0,0,0,1.994,1.994h1.994v3.989A9.972,9.972,0,0,0,8,31.915V79.779a9.972,9.972,0,0,0,9.972,9.972H61.847a9.972,9.972,0,0,0,9.972-9.972V31.915A9.972,9.972,0,0,0,61.847,21.943ZM11.989,33.909H67.83V73.8H11.989ZM17.972,5.989H21.96V9.977a1.994,1.994,0,0,0,3.989,0V5.989h3.989V9.977a1.994,1.994,0,0,0,3.989,0V5.989h3.989V9.977a1.994,1.994,0,0,0,3.989,0V5.989h3.989V9.977a1.994,1.994,0,0,0,3.989,0V5.989h3.989V9.977a1.994,1.994,0,0,0,3.989,0V5.989h3.989v7.977H17.972Zm0,19.943h1.994a1.994,1.994,0,0,0,1.994-1.994V17.955h35.9v5.983a1.994,1.994,0,0,0,1.994,1.994h1.994a5.983,5.983,0,0,1,5.624,3.989H12.348a5.983,5.983,0,0,1,5.624-3.989Zm43.875,59.83H17.972a5.983,5.983,0,0,1-5.983-5.983V77.784H67.83v1.994A5.983,5.983,0,0,1,61.847,85.762Z" fill="#ada220"/>
      <path id="Path_38" data-name="Path 38" d="M42.926,28.977H36.943V22.994A1.994,1.994,0,0,0,34.949,21H26.972a1.994,1.994,0,0,0-1.994,1.994v5.983H18.994A1.994,1.994,0,0,0,17,30.972v7.977a1.994,1.994,0,0,0,1.994,1.994h5.983v5.983a1.994,1.994,0,0,0,1.994,1.994h7.977a1.994,1.994,0,0,0,1.994-1.994V40.943h5.983a1.994,1.994,0,0,0,1.994-1.994V30.972A1.994,1.994,0,0,0,42.926,28.977Zm-1.994,7.977H34.949a1.994,1.994,0,0,0-1.994,1.994v5.983H28.966V38.949a1.994,1.994,0,0,0-1.994-1.994H20.989V32.966h5.983a1.994,1.994,0,0,0,1.994-1.994V24.989h3.989v5.983a1.994,1.994,0,0,0,1.994,1.994h5.983Z" transform="translate(8.949 18.892)" fill="#ada220"/>
    </g>
  </g>
</svg>
