<svg xmlns="http://www.w3.org/2000/svg" width="58.321" height="58.321" viewBox="0 0 58.321 58.321">
  <path id="arrow-up-circle" d="M58.321,29.161A29.07,29.07,0,0,0,43.8,3.9,28.629,28.629,0,0,0,29.161,0,29.07,29.07,0,0,0,3.9,14.524,28.656,28.656,0,0,0,0,29.161,29.07,29.07,0,0,0,14.524,54.42a28.672,28.672,0,0,0,14.637,3.9A29.07,29.07,0,0,0,54.42,43.8,28.645,28.645,0,0,0,58.321,29.161Zm-54.733,0a24.943,24.943,0,0,1,2.022-9.91,25.385,25.385,0,0,1,5.468-8.144,26,26,0,0,1,8.173-5.44,25.3,25.3,0,0,1,19.82,0A25.061,25.061,0,0,1,52.654,19.249a25.3,25.3,0,0,1,0,19.821,25.733,25.733,0,0,1-5.438,8.146,25.5,25.5,0,0,1-8.144,5.438,25.3,25.3,0,0,1-19.821,0,26.092,26.092,0,0,1-8.173-5.438A25.314,25.314,0,0,1,5.61,39.072a24.97,24.97,0,0,1-2.022-9.911ZM30.983,41.918v-20.5l6.607,6.607a1.738,1.738,0,0,0,1.281.512,1.785,1.785,0,0,0,1.311-.541,1.751,1.751,0,0,0,.541-1.281,1.8,1.8,0,0,0-.57-1.311L29.1,14.637,18.055,25.4a1.934,1.934,0,0,0,0,2.621,2.6,2.6,0,0,0,.627.371,1.711,1.711,0,0,0,1.367,0,2.6,2.6,0,0,0,.627-.371L27.34,21.3V41.922a1.8,1.8,0,0,0,.256.94,1.73,1.73,0,0,0,.684.654,1.877,1.877,0,0,0,.883.228,1.753,1.753,0,0,0,1.823-1.823Z" fill="#438aca"/>
</svg>
