<svg xmlns="http://www.w3.org/2000/svg" viewBox="0 0 1581 737"><defs><style>.cls-1{opacity:0.45;}.cls-2{fill:#fff;}.cls-3{opacity:0.3;}.cls-4{fill:#2bcede;}</style></defs><title>Asset 3</title><g id="Layer_2" data-name="Layer 2"><g id="Layer_1-2" data-name="Layer 1"><g id="Layer_2-2" data-name="Layer 2"><g id="Layer_1-2-2" data-name="Layer 1-2"><g class="cls-1"><path class="cls-2" d="M0,0V737H1581V0ZM433,371.75H229.2L151.85,517.84H386.46L366.86,553H91.5L294.82,174.31H562.06l-19.6,35.15h-227l-67,128.22H452.21ZM557.65,553H526l15.68-171h31L559.2,519.12,691.71,382H723Zm353.27-98.71a166,166,0,0,1-9.84,22.91H760.76l-.64,1.93q-7.92,23.88,1.52,36.29t36.53,12.42a97,97,0,0,0,31.44-5.33,103.08,103.08,0,0,0,28-14.35l5.85,22.26a133,133,0,0,1-36.63,18.06,131.32,131.32,0,0,1-40.2,6.45q-25.15,0-40.55-9t-19.84-25.8q-4.44-16.77,3-39.36a148.84,148.84,0,0,1,29.52-51.6,146.63,146.63,0,0,1,46.38-35.81q26.36-12.9,53.78-12.9,34.85,0,49.08,19.84t2.92,54ZM985.4,553h-31l62.49-119.69,48.35-32.83Zm169.18,0h-31l70.47-136.11h31Zm104.87-191.26a32.05,32.05,0,0,1-11.63,16.12A30.16,30.16,0,0,1,1229.5,384q-8.4,0-12.06-5.48t-1.1-13.23A31.47,31.47,0,0,1,1227.71,350a29.54,29.54,0,0,1,18-6.29q8.38,0,12.27,5.33t1.47,12.69ZM1443,407.51h-49l-48.53,91a59.29,59.29,0,0,0-4,9q-3.42,10.32.41,15.8T1357,528.8q13.55,0,27.18-8.07l-1.35,23.55q-19,10.65-43.2,10.64-20.33,0-29-11.45t-2-31.45a79.54,79.54,0,0,1,5.56-12.9L1363,407.51h-29L1347.22,382h29.35l19.82-37.42h31L1407.54,382h49Zm-3.89-177c-88.44,25.27-116,82.65-221.1,69.48-74.41-9.31-176.88,94.76-176.88,94.76L1161.3,174.31c14.59-24.12,63.36,55.27,194.12,18.87,44.31-12.33,129.42-32.36,196.08,24.2,0,0-76.56,2.88-112.43,13.13Z"/><path class="cls-2" d="M849.11,406.22q-22.92,0-43.63,12.9t-34,35.49h110.3q8.87-22.91-.28-35.65T849.11,406.22Z"/></g></g></g></g><g id="Layer_2-3" data-name="Layer 2"><g class="cls-3"><polygon class="cls-4" points="315.46 209.46 542.46 209.46 562.06 174.31 294.82 174.31 91.5 553 366.86 553 386.46 517.84 151.85 517.84 229.2 371.75 433 371.75 452.21 337.68 248.46 337.68 315.46 209.46"/><polygon class="cls-4" points="559.2 519.12 572.68 382 541.68 382 526 553 557.65 553 723 382 691.71 382 559.2 519.12"/><polygon class="cls-4" points="954.4 553 985.4 553 1065.24 400.48 1016.89 433.31 954.4 553"/><polygon class="cls-4" points="1123.58 553 1154.58 553 1225.05 416.89 1194.05 416.89 1123.58 553"/><path class="cls-4" d="M1258,349q-3.88-5.32-12.27-5.33a29.54,29.54,0,0,0-18,6.29,31.47,31.47,0,0,0-11.37,15.29q-2.56,7.75,1.1,13.23T1229.5,384a30.16,30.16,0,0,0,18.32-6.14,32.05,32.05,0,0,0,11.63-16.12h0Q1261.86,354.37,1258,349Z"/><path class="cls-4" d="M1427.39,344.58h-31L1376.57,382h-29.35L1334,407.51h29l-48.76,91.61a79.54,79.54,0,0,0-5.56,12.9q-6.62,20,2,31.45t29,11.45q24.19,0,43.2-10.64l1.35-23.55q-13.64,8.07-27.18,8.07-11.3,0-15.12-5.49t-.41-15.8a59.29,59.29,0,0,1,4-9l48.53-91h49L1456.54,382h-49Z"/><path class="cls-4" d="M1218,300c105.1,13.17,132.66-44.21,221.1-69.48h0c35.87-10.25,112.43-13.13,112.43-13.13-66.66-56.56-151.77-36.53-196.08-24.2-130.76,36.4-179.53-43-194.12-18.87L1041.13,394.75S1143.6,290.68,1218,300Z"/><path class="cls-4" d="M908,400.3q-14.24-19.85-49.08-19.84-27.42,0-53.78,12.9a146.49,146.49,0,0,0-46.38,35.81,148.84,148.84,0,0,0-29.52,51.6q-7.44,22.59-3,39.36t19.84,25.8q15.4,9,40.55,9a131.32,131.32,0,0,0,40.2-6.45,133,133,0,0,0,36.63-18.06l-5.85-22.26a103.08,103.08,0,0,1-28,14.35,97,97,0,0,1-31.44,5.33q-27.09,0-36.53-12.42t-1.52-36.29l.64-1.93H901.08a166,166,0,0,0,9.84-22.91h0Q922.25,420.14,908,400.3Zm-26.22,54.31H771.48q13.29-22.59,34-35.49t43.63-12.9q23.24,0,32.39,12.74T881.78,454.61Z"/></g></g></g></svg>