<?xml version="1.0" encoding="utf-8"?>
<!-- Generator: Adobe Illustrator 24.0.0, SVG Export Plug-In . SVG Version: 6.00 Build 0)  -->
<svg version="1.1" xmlns="http://www.w3.org/2000/svg" xmlns:xlink="http://www.w3.org/1999/xlink" x="0px" y="0px"
	 viewBox="0 0 600 1300" style="enable-background:new 0 0 600 1300;" xml:space="preserve">
<style type="text/css">
	.st0{opacity:0.45;}
	.st1{fill:#FFFFFF;}
	.st2{opacity:0.3;}
	.st3{fill:#2BCEDE;}
</style>
<g id="Layer_1">
	<title>Asset 11</title>
	<g id="Layer_2_1_">
		<g id="Layer_2-2">
			<g class="st0">
				<path class="st1" d="M331.8,578.6c-2.2-3-6-4.5-11.5-4.5c-5.5,0-10.9,1.6-15.5,4.6c-5,3.2-9.2,7.5-12.1,12.6h39.3
					C333.9,585.9,333.9,581.6,331.8,578.6z"/>
				<path class="st1" d="M0,0v1300h600V0H0z M495.6,615.7c0.9,1.3,2.7,2,5.4,2c3.4-0.1,6.8-1.1,9.7-2.9l-0.5,8.4
					c-4.7,2.6-10,3.9-15.4,3.8c-4.8,0-8.3-1.4-10.3-4.1c-2.1-2.7-2.3-6.5-0.7-11.2c0.5-1.6,1.2-3.1,2-4.6l17.4-32.6h-10.4l4.7-9.1
					H508l7-13.3h11l-7,13.3h17.5l-4.8,9.1h-17.5l-17.3,32.4c-0.6,1-1,2.1-1.4,3.2C494.7,612.6,494.7,614.4,495.6,615.7z
					 M530.2,511.5c-31.5,9-41.3,29.4-78.7,24.7c-26.5-3.3-63,33.7-63,33.7l42.8-78.5c5.2-8.6,22.5,19.7,69.1,6.7
					c15.8-4.4,46.1-11.5,69.8,8.6C570.2,506.8,543,507.9,530.2,511.5L530.2,511.5z M451.3,564.2c-0.9-1.4-1-3.2-0.4-4.7
					c0.7-2.2,2.2-4.1,4.1-5.5c1.8-1.4,4.1-2.2,6.4-2.2c1.7-0.1,3.3,0.6,4.4,1.9c0.9,1.3,1.1,3,0.5,4.5c-0.7,2.3-2.2,4.3-4.1,5.7
					c-1.9,1.4-4.2,2.2-6.5,2.2C454,566.3,452.3,565.6,451.3,564.2L451.3,564.2z M454,577.9l-25,48.4h-11l25-48.4H454z M397.2,572
					l-28.4,54.3h-11l22.3-42.6L397.2,572z M289.1,612.9c2.2,2.9,6.6,4.4,13,4.4c3.8,0,7.6-0.7,11.2-1.9c3.6-1.2,6.9-2.9,10-5.1
					l2.1,7.9c-4,2.8-8.4,5-13,6.4c-4.6,1.5-9.5,2.3-14.4,2.3c-6,0-10.8-1.1-14.4-3.2c-3.5-2-6.1-5.3-7.1-9.2c-1.1-4-0.7-8.7,1.1-14
					c2.2-6.8,5.8-13,10.5-18.4c4.6-5.3,10.2-9.6,16.5-12.7c5.9-3,12.5-4.6,19.1-4.6c8.3,0,14.1,2.4,17.5,7.1s3.7,11.1,1,19.2
					c-1,2.8-2.1,5.5-3.5,8.2h-50l-0.2,0.7C286.7,605.7,286.9,610,289.1,612.9z M264.2,565.5h11.1l-58.9,60.8h-11.3l5.6-60.8h11
					l-4.8,48.8L264.2,565.5z M122.9,491.5h95.1l-7,12.5h-80.8l-23.8,45.6H179l-6.9,12.1H99.6l-27.6,52h83.5l-7,12.5h-98L122.9,491.5
					z"/>
			</g>
		</g>
	</g>
</g>
<g id="Layer_2">
	<g class="st2">
		<g>
			<path class="st3" d="M526,552.1h-11l-7,13.3h-10.5l-4.7,9.1h10.3l-17.3,32.6c-0.8,1.5-1.5,3-2,4.6c-1.6,4.7-1.3,8.5,0.7,11.2
				c2.1,2.7,5.5,4.1,10.3,4.1c5.4,0.1,10.7-1.2,15.4-3.8l0.5-8.4c-2.9,1.8-6.3,2.8-9.7,2.9c-2.7,0-4.5-0.7-5.4-2
				c-0.9-1.3-1-3.2-0.1-5.6c0.4-1.1,0.9-2.2,1.4-3.2l17.3-32.4h17.5l4.8-9.1H519L526,552.1z"/>
			<path class="st3" d="M451.5,536.3c37.4,4.7,47.2-15.7,78.7-24.7h0c12.8-3.6,40-4.7,40-4.7c-23.7-20.1-54-13-69.8-8.6
				c-46.5,13-63.9-15.3-69.1-6.7L388.5,570C388.5,570,425,532.9,451.5,536.3z"/>
			<path class="st3" d="M461.4,551.8c-2.3,0-4.6,0.8-6.4,2.2c-1.9,1.4-3.3,3.3-4.1,5.5c-0.6,1.5-0.5,3.3,0.4,4.7h0
				c1,1.4,2.6,2.1,4.3,1.9c2.4,0,4.6-0.8,6.5-2.2c2-1.4,3.4-3.4,4.1-5.7c0.6-1.5,0.4-3.2-0.5-4.5
				C464.7,552.3,463.1,551.6,461.4,551.8z"/>
			<polygon class="st3" points="418,626.3 429,626.3 454,577.9 443,577.9 			"/>
			<polygon class="st3" points="357.7,626.3 368.7,626.3 397.2,572 380,583.7 			"/>
			<polygon class="st3" points="217,614.3 221.8,565.5 210.8,565.5 205.2,626.3 216.5,626.3 275.3,565.5 264.2,565.5 			"/>
			<polygon class="st3" points="130.3,504 211,504 218,491.5 122.9,491.5 50.5,626.3 148.5,626.3 155.5,613.8 72,613.8 99.6,561.8 
				172.2,561.8 179,549.7 106.4,549.7 			"/>
			<path class="st3" d="M323.8,564.9c-6.6,0-13.2,1.6-19.1,4.6c-6.3,3.1-11.9,7.4-16.5,12.7c-4.7,5.4-8.3,11.6-10.5,18.4
				c-1.8,5.3-2.1,10-1.1,14c1,3.9,3.5,7.2,7.1,9.2c3.6,2.1,8.4,3.2,14.4,3.2c4.9,0,9.7-0.8,14.4-2.3c4.6-1.5,9-3.6,13-6.4l-2.1-7.9
				c-3.1,2.2-6.4,3.9-10,5.1c-3.6,1.2-7.4,1.9-11.2,1.9c-6.4,0-10.8-1.5-13-4.4c-2.2-3-2.4-7.3-0.6-12.9l0.2-0.7h50
				c1.4-2.6,2.5-5.4,3.5-8.2c2.7-8.1,2.4-14.5-1-19.2S332,564.9,323.8,564.9z M331.9,591.3h-39.3c2.9-5.1,7.1-9.5,12.1-12.6
				c4.6-3,10-4.6,15.5-4.6c5.5,0,9.3,1.5,11.5,4.5C333.9,581.6,334,585.9,331.9,591.3z"/>
		</g>
	</g>
</g>
</svg>
