<svg xmlns="http://www.w3.org/2000/svg" width="23.882" height="23.923" viewBox="0 0 23.882 23.923">
  <path id="Icon_feather-phone-call" data-name="Icon feather-phone-call" d="M16.656,5.67a5.212,5.212,0,0,1,4.118,4.118M16.656,1.5a9.382,9.382,0,0,1,8.288,8.277M23.9,18.1v3.127a2.085,2.085,0,0,1-2.273,2.085,20.631,20.631,0,0,1-9-3.2,20.329,20.329,0,0,1-6.255-6.255,20.631,20.631,0,0,1-3.2-9.038A2.085,2.085,0,0,1,5.251,2.542H8.378a2.085,2.085,0,0,1,2.085,1.793,13.385,13.385,0,0,0,.73,2.929,2.085,2.085,0,0,1-.469,2.2L9.4,10.789a16.68,16.68,0,0,0,6.255,6.255l1.324-1.324a2.085,2.085,0,0,1,2.2-.469,13.385,13.385,0,0,0,2.929.73A2.085,2.085,0,0,1,23.9,18.1Z" transform="translate(-2.167 -0.396)" fill="none" stroke="#a48bad" stroke-linecap="round" stroke-linejoin="round" stroke-width="2"/>
</svg>
