<svg xmlns="http://www.w3.org/2000/svg" viewBox="0 0 152.18 23.97"><defs><style>.cls-1{fill:#fff;}</style></defs><title>white-logo</title><g id="Layer_2" data-name="Layer 2"><g id="Layer_1-2" data-name="Layer 1"><path class="cls-1" d="M20.4.15V1.24a.53.53,0,0,1-.46.57l-.21,0-.52.09-3.6,11.58H13.37L10.45,4.38c0-.11-.07-.24-.11-.37s-.09-.29-.13-.44c0,.15-.08.31-.11.44s-.08.26-.11.37L7,13.52H4.79L1.2,1.94.67,1.85l-.21,0A.53.53,0,0,1,0,1.24V.15H5V1.24a.52.52,0,0,1-.46.57.18.18,0,0,0-.09,0l-.2.06A1.32,1.32,0,0,0,3.92,2L5.83,8.71c0,.2.11.43.16.65s.09.48.13.74c.06-.26.11-.52.17-.74a5.06,5.06,0,0,1,.18-.65L9.1.72A.84.84,0,0,1,9.39.33.86.86,0,0,1,9.91.15h.74a.8.8,0,0,1,.54.15.77.77,0,0,1,.29.42l2.61,8A9.9,9.9,0,0,1,14.44,10c0-.24.08-.46.13-.68s.1-.44.15-.63L16.63,2c-.19,0-.45-.09-.76-.17a.52.52,0,0,1-.46-.57V.15h5Z"/><path class="cls-1" d="M34.06,12.58v.94H29.54v-.94a.52.52,0,0,1,.37-.49,2.54,2.54,0,0,0,.37-.14l-.07-.21-.67-1.81H24.22l-.69,1.91-.05.11a2.54,2.54,0,0,0,.37.14.52.52,0,0,1,.37.49v.94H19.7v-.94a.52.52,0,0,1,.37-.49c.1,0,.45-.18,1-.42L25.6.15h2.56l4.53,11.52,1,.42A.49.49,0,0,1,34.06,12.58Zm-9.2-4.41h4.05L27.38,4l-.24-.68c-.09-.26-.17-.58-.26-.89l-.26.89a7,7,0,0,1-.24.7Z"/><path class="cls-1" d="M45.4.15V3.31h-1A.42.42,0,0,1,43.91,3c0-.11-.06-.35-.1-.76H41.09v9.49l.54.09c.13,0,.22.06.28.06H42a.56.56,0,0,1,.48.58v1.09H37.21V12.43a.54.54,0,0,1,.46-.58h.11c.06,0,.15,0,.28-.06l.54-.09V2.18H35.88q-.06.61-.09.78a.41.41,0,0,1-.43.35H34.29V.15H45.4Z"/><path class="cls-1" d="M56.09,4a14.48,14.48,0,0,1-.17-1.48,9.45,9.45,0,0,0-2.55-.42,4.49,4.49,0,0,0-1.74.31,3.73,3.73,0,0,0-1.35.94,4.53,4.53,0,0,0-.89,1.48,5.67,5.67,0,0,0-.33,2,5.63,5.63,0,0,0,.33,2,4.45,4.45,0,0,0,.85,1.48,3.72,3.72,0,0,0,1.3.92,3.68,3.68,0,0,0,1.59.32,6.56,6.56,0,0,0,.92-.06,3.9,3.9,0,0,0,.76-.16,3.56,3.56,0,0,0,.65-.32,4.9,4.9,0,0,0,.61-.48,1,1,0,0,1,.2-.13.56.56,0,0,1,.22,0,.43.43,0,0,1,.35.14l1,1.08a5.27,5.27,0,0,1-2,1.53,7.13,7.13,0,0,1-2.87.54,6.78,6.78,0,0,1-2.66-.52,5.66,5.66,0,0,1-2-1.41A6.34,6.34,0,0,1,47,9.58a8,8,0,0,1-.45-2.74A7.5,7.5,0,0,1,47,4.07a6.43,6.43,0,0,1,1.41-2.15A6.16,6.16,0,0,1,50.59.5a7.59,7.59,0,0,1,2.8-.5,12.13,12.13,0,0,1,4.19,1v3.4H56.51A.38.38,0,0,1,56.09,4Z"/><path class="cls-1" d="M73.2,1.83s-.15,0-.28.06-.31.05-.53.09v9.71l.53.09c.13,0,.23.06.28.06h.11a.54.54,0,0,1,.47.58v1.09H68.49V12.43a.53.53,0,0,1,.46-.58h.11l.28-.06.53-.09v-4H63.6v4l.56.09c.13,0,.22.06.28.06h.11a.54.54,0,0,1,.46.58v1.09H59.7V12.43a.54.54,0,0,1,.46-.58h.12s.14,0,.27-.06l.56-.09V2c-.22,0-.43-.08-.56-.09s-.22-.06-.27-.06a.35.35,0,0,0-.12,0,.53.53,0,0,1-.46-.57V.15H65V1.24a.53.53,0,0,1-.46.57.28.28,0,0,0-.11,0c-.06,0-.15,0-.28.06s-.33.05-.56.09V5.9h6.27V2c-.22,0-.4-.08-.53-.09l-.28-.06a.54.54,0,0,1-.11,0,.52.52,0,0,1-.46-.57V.15h5.29V1.24a.53.53,0,0,1-.47.57A.54.54,0,0,1,73.2,1.83Z"/><path class="cls-1" d="M96.11.15V1.24a.53.53,0,0,1-.46.57l-.21,0-.52.09-3.6,11.58H89.08L86.16,4.38A3.25,3.25,0,0,1,86.05,4c0-.13-.1-.29-.13-.44,0,.15-.08.31-.11.44s-.08.26-.11.37l-3,9.14H80.5L76.91,1.94l-.54-.09-.2,0a.53.53,0,0,1-.46-.57V.15h5V1.24a.53.53,0,0,1-.46.57.16.16,0,0,0-.09,0l-.21.06a1.35,1.35,0,0,0-.31.07l1.9,6.75c.06.2.12.43.17.65s.09.48.13.74c.06-.26.11-.52.17-.74a5.06,5.06,0,0,1,.18-.65l2.63-8A.84.84,0,0,1,85.1.33a.86.86,0,0,1,.52-.18h.74A.8.8,0,0,1,86.9.3a.77.77,0,0,1,.29.42l2.61,8A9.9,9.9,0,0,1,90.15,10c0-.24.08-.46.13-.68a5.3,5.3,0,0,1,.15-.63L92.33,2l-.75-.17a.53.53,0,0,1-.47-.57V.15h5Z"/><path class="cls-1" d="M111,9.56a6.69,6.69,0,0,1-1.37,2.16,6.14,6.14,0,0,1-2.15,1.43,7.36,7.36,0,0,1-2.75.52,7.48,7.48,0,0,1-2.78-.52,6.1,6.1,0,0,1-2.14-1.43,6.42,6.42,0,0,1-1.39-2.16,7.41,7.41,0,0,1-.48-2.74,7.25,7.25,0,0,1,.48-2.71A6.36,6.36,0,0,1,99.8,1.94,6.07,6.07,0,0,1,101.94.52,7.28,7.28,0,0,1,104.72,0a7,7,0,0,1,2.75.52,6.4,6.4,0,0,1,2.15,1.42A6.63,6.63,0,0,1,111,4.11a7.26,7.26,0,0,1,.49,2.71A7.41,7.41,0,0,1,111,9.56Zm-2.35-4.7a4,4,0,0,0-.84-1.48,3.83,3.83,0,0,0-1.33-.94,4.47,4.47,0,0,0-1.75-.31,4.59,4.59,0,0,0-1.78.31,3.83,3.83,0,0,0-1.33.94,4.14,4.14,0,0,0-.85,1.48,5.72,5.72,0,0,0-.3,2,5.84,5.84,0,0,0,.3,2,4.05,4.05,0,0,0,.85,1.48,3.85,3.85,0,0,0,1.33,1,4.59,4.59,0,0,0,1.78.31,4.47,4.47,0,0,0,1.75-.31,3.85,3.85,0,0,0,1.33-1,3.9,3.9,0,0,0,.84-1.48,6.7,6.7,0,0,0,.29-2A6.57,6.57,0,0,0,108.64,4.86Z"/><path class="cls-1" d="M125.38,12.43v1.09h-2.49a1.06,1.06,0,0,1-.56-.13A1.09,1.09,0,0,1,122,13l-2.81-4.29a.9.9,0,0,0-.35-.33,1.07,1.07,0,0,0-.56-.11h-.94v3.4l.56.09c.13,0,.22.06.27.06h.11a.54.54,0,0,1,.47.58v1.09h-5.29V12.43a.54.54,0,0,1,.46-.58H114l.28-.06.55-.09V2c-.22,0-.42-.08-.55-.09s-.22-.06-.28-.06l-.11,0a.53.53,0,0,1-.46-.57V.15h5.34a8.93,8.93,0,0,1,2.35.27,4.56,4.56,0,0,1,1.59.8,3.14,3.14,0,0,1,.93,1.22A3.93,3.93,0,0,1,123.92,4a4.18,4.18,0,0,1-.2,1.28,3.77,3.77,0,0,1-.57,1.09,3.46,3.46,0,0,1-.93.85A4.87,4.87,0,0,1,121,7.8a2.64,2.64,0,0,1,.82.78l2.1,3.11.58.09c.15,0,.24.06.31.06h.15A.53.53,0,0,1,125.38,12.43Zm-4.56-6.59a2,2,0,0,0,.49-.74,2.29,2.29,0,0,0,.17-.92,1.93,1.93,0,0,0-.66-1.57,3.19,3.19,0,0,0-2.06-.54H117.3V6.51h1.43A3.81,3.81,0,0,0,120,6.32,2.28,2.28,0,0,0,120.82,5.84Z"/><path class="cls-1" d="M137.06,10.32v3.2h-9.69V12.43a.54.54,0,0,1,.46-.58H128l.27-.06.56-.09V2c-.22,0-.43-.08-.56-.09s-.22-.06-.27-.06a.35.35,0,0,0-.12,0,.53.53,0,0,1-.46-.57V.15h5.29V1.24a.53.53,0,0,1-.46.57.28.28,0,0,0-.11,0l-.28.06c-.13,0-.33.05-.55.09v9.49h4.31a7.44,7.44,0,0,1,.07-.8.4.4,0,0,1,.42-.35Z"/><path class="cls-1" d="M152.18,6.82a6.94,6.94,0,0,1-.5,2.7,6.27,6.27,0,0,1-1.36,2.13A6.38,6.38,0,0,1,148.17,13a7.37,7.37,0,0,1-2.76.5h-6.3V12.43a.54.54,0,0,1,.46-.58h.11c.06,0,.15,0,.28-.06l.55-.09V2c-.22,0-.42-.08-.55-.09s-.22-.06-.28-.06l-.11,0a.53.53,0,0,1-.46-.57V.15h6.3a7.18,7.18,0,0,1,2.76.5A6.23,6.23,0,0,1,150.32,2a6.24,6.24,0,0,1,1.36,2.1A7,7,0,0,1,152.18,6.82Zm-2.55,0a5.72,5.72,0,0,0-.3-2,4.28,4.28,0,0,0-.83-1.48,3.78,3.78,0,0,0-1.33-.92,4.49,4.49,0,0,0-1.76-.33H143v9.41h2.4a4.49,4.49,0,0,0,1.76-.33,3.68,3.68,0,0,0,1.33-.93,4,4,0,0,0,.83-1.48A5.84,5.84,0,0,0,149.63,6.82Z"/><path class="cls-1" d="M60.27,18.56h1.51a2.81,2.81,0,0,1,1.53.32,1.12,1.12,0,0,1,.48,1,1.17,1.17,0,0,1-.27.79,1.27,1.27,0,0,1-.77.4v0c.81.14,1.22.57,1.22,1.28a1.36,1.36,0,0,1-.49,1.12,2.09,2.09,0,0,1-1.35.4H60.27Zm.62,2.29h1a1.65,1.65,0,0,0,1-.21.8.8,0,0,0,.29-.69.71.71,0,0,0-.32-.65,2.06,2.06,0,0,0-1-.2h-.92Zm0,.52v2H62a1.63,1.63,0,0,0,1-.25.93.93,0,0,0,.32-.79.81.81,0,0,0-.33-.72,1.74,1.74,0,0,0-1-.24Z"/><path class="cls-1" d="M67.06,21.23l1.42-2.67h.67l-1.78,3.27V23.9h-.63v-2L65,18.56h.67Z"/><path class="cls-1" d="M76.46,23.9h-.62V21.39H73V23.9h-.62V18.56H73v2.27h2.81V18.56h.62Z"/><path class="cls-1" d="M81.86,23.9l-.67-1.7H79.06l-.66,1.7h-.63l2.11-5.36h.52l2.1,5.36ZM81,21.64,80.38,20c-.08-.21-.16-.47-.25-.77a6.39,6.39,0,0,1-.23.77l-.63,1.65Z"/><path class="cls-1" d="M88,23.9h-.71l-2.91-4.48h0c0,.53.06,1,.06,1.45v3h-.57V18.56h.7L87.42,23h0q0-.11,0-.63c0-.36,0-.61,0-.77V18.56H88Z"/><path class="cls-1" d="M94.29,21.18a2.69,2.69,0,0,1-.72,2,2.84,2.84,0,0,1-2.06.7H90V18.56h1.64a2.4,2.4,0,0,1,2.62,2.62Zm-.66,0a2.14,2.14,0,0,0-.52-1.57,2.12,2.12,0,0,0-1.56-.53h-.9v4.26h.76a2.33,2.33,0,0,0,1.67-.54A2.19,2.19,0,0,0,93.63,21.2Z"/><path class="cls-1" d="M99.42,23.9l-.67-1.7H96.62L96,23.9h-.63l2.11-5.36H98l2.1,5.36Zm-.86-2.26L97.94,20c-.08-.21-.16-.47-.25-.77a6.39,6.39,0,0,1-.23.77l-.63,1.65Z"/><path class="cls-1" d="M108,23.9h-.61l-1.08-3.57c0-.16-.11-.36-.17-.6s-.09-.39-.1-.44a8.85,8.85,0,0,1-.25,1.06l-1.05,3.55h-.61l-1.42-5.34h.66l.84,3.3c.12.46.2.88.26,1.25a8.15,8.15,0,0,1,.29-1.3l1-3.25h.65l1,3.28a9.16,9.16,0,0,1,.3,1.27,11.88,11.88,0,0,1,.26-1.26l.84-3.29h.66Z"/><path class="cls-1" d="M113.19,23.9l-.12-.57h0a1.7,1.7,0,0,1-.6.51,2,2,0,0,1-.74.13,1.29,1.29,0,0,1-.93-.31,1.09,1.09,0,0,1-.34-.87c0-.81.64-1.23,1.94-1.27l.67,0v-.25a1,1,0,0,0-.2-.69.83.83,0,0,0-.65-.23,2.72,2.72,0,0,0-1.13.31l-.18-.46a3.06,3.06,0,0,1,.64-.26,2.94,2.94,0,0,1,.71-.09,1.53,1.53,0,0,1,1.06.32,1.32,1.32,0,0,1,.34,1V23.9Zm-1.37-.43a1.22,1.22,0,0,0,.89-.31,1.18,1.18,0,0,0,.32-.87v-.36l-.61,0a2.18,2.18,0,0,0-1,.22.68.68,0,0,0-.32.62.64.64,0,0,0,.2.5A.85.85,0,0,0,111.82,23.47Z"/><path class="cls-1" d="M116.76,23.47l.31,0,.24-.05v.46a1.3,1.3,0,0,1-.29.08l-.35,0c-.77,0-1.16-.41-1.16-1.22V20.37h-.57v-.29l.57-.25.26-.86h.35v.93h1.16v.47h-1.16v2.35a.8.8,0,0,0,.17.56A.58.58,0,0,0,116.76,23.47Z"/><path class="cls-1" d="M120.29,24a1.74,1.74,0,0,1-1.35-.53,2.25,2.25,0,0,1-.47-1.52,2.28,2.28,0,0,1,.48-1.55,1.75,1.75,0,0,1,1.38-.54,2.76,2.76,0,0,1,.57.06,2.13,2.13,0,0,1,.46.14l-.19.52a3.81,3.81,0,0,0-.44-.14,2.37,2.37,0,0,0-.42-.05c-.81,0-1.22.52-1.22,1.56a1.85,1.85,0,0,0,.3,1.13,1,1,0,0,0,.88.39,2.75,2.75,0,0,0,1-.21v.53A2.19,2.19,0,0,1,120.29,24Z"/><path class="cls-1" d="M125.57,23.9V21.31a1,1,0,0,0-.23-.73.89.89,0,0,0-.69-.24,1.13,1.13,0,0,0-.92.34,1.72,1.72,0,0,0-.29,1.13V23.9h-.61V18.22h.61v1.72a3.49,3.49,0,0,1,0,.51h0A1.25,1.25,0,0,1,124,20a1.67,1.67,0,0,1,.76-.17,1.58,1.58,0,0,1,1.1.35,1.48,1.48,0,0,1,.36,1.11V23.9Z"/><path class="cls-1" d="M134.69,23.9h-.61L133,20.33c-.05-.16-.11-.36-.17-.6a2.31,2.31,0,0,1-.1-.44,7.39,7.39,0,0,1-.26,1.06l-1,3.55h-.61l-1.42-5.34h.66l.84,3.3c.11.46.2.88.25,1.25a9.44,9.44,0,0,1,.3-1.3l1-3.25h.66l1,3.28a9.16,9.16,0,0,1,.3,1.27,9.79,9.79,0,0,1,.26-1.26l.84-3.29h.65Z"/><path class="cls-1" d="M140.89,21.89a2.2,2.2,0,0,1-.49,1.53A1.72,1.72,0,0,1,139,24a1.77,1.77,0,0,1-.95-.25,1.66,1.66,0,0,1-.64-.72,2.59,2.59,0,0,1-.23-1.11,2.19,2.19,0,0,1,.49-1.52,1.75,1.75,0,0,1,1.36-.54,1.7,1.7,0,0,1,1.33.55A2.21,2.21,0,0,1,140.89,21.89Zm-3,0a1.94,1.94,0,0,0,.3,1.17,1.22,1.22,0,0,0,1.81,0,1.9,1.9,0,0,0,.31-1.17,1.88,1.88,0,0,0-.31-1.15,1.08,1.08,0,0,0-.91-.4,1.06,1.06,0,0,0-.9.39A1.89,1.89,0,0,0,137.85,21.89Z"/><path class="cls-1" d="M144.36,19.83a2.33,2.33,0,0,1,.48,0l-.08.56a2.58,2.58,0,0,0-.44-.05,1.08,1.08,0,0,0-.83.39,1.43,1.43,0,0,0-.34,1V23.9h-.61v-4h.5l.07.74h0a1.84,1.84,0,0,1,.53-.6A1.22,1.22,0,0,1,144.36,19.83Z"/><path class="cls-1" d="M146.78,23.9h-.61V18.22h.61Z"/><path class="cls-1" d="M151.37,23.36h0a1.42,1.42,0,0,1-1.26.61,1.48,1.48,0,0,1-1.22-.54,2.33,2.33,0,0,1-.43-1.52,2.37,2.37,0,0,1,.44-1.54,1.46,1.46,0,0,1,1.21-.54,1.45,1.45,0,0,1,1.25.59h0l0-.29V18.22h.6V23.9h-.49Zm-1.21.1a1.13,1.13,0,0,0,.9-.33,1.7,1.7,0,0,0,.28-1.09v-.13a2,2,0,0,0-.29-1.21,1,1,0,0,0-.9-.37.92.92,0,0,0-.81.42,2,2,0,0,0-.29,1.17,2,2,0,0,0,.28,1.15A1,1,0,0,0,150.16,23.46Z"/></g></g></svg>