<svg xmlns="http://www.w3.org/2000/svg" width="31.586" height="93.736" viewBox="0 0 31.586 93.736">
  <g id="Group_113" data-name="Group 113" transform="translate(0 0)">
    <g id="Group_112" data-name="Group 112" transform="translate(0 0)">
      <path id="Path_1334" data-name="Path 1334" d="M978.141-336.149c-.055.288-.055.439-.219.548-.137.123-.315.288-.535.233a1.2,1.2,0,0,0-.37-.068c-.137.014-.233-.137-.411-.178-.124-.1-.3-.123-.4-.219a.7.7,0,0,1-.411-.247c-.192-.041-.247-.178-.356-.233-.138-.151-.4-.205-.535-.342s-.4-.247-.534-.384c-.206-.1-.329-.288-.508-.384-.219-.137-.3-.3-.507-.412a1.989,1.989,0,0,1-.48-.439,1.794,1.794,0,0,1-.466-.439c-.151-.124-.109-.11-.247-.233a.875.875,0,0,1-.3-.329c-.123-.192-.3-.3-.493-.137-.206.205-.3.233-.315.342-.137.11-.137.165-.275.288-.109.1-.137.205-.274.274a4.365,4.365,0,0,0-.576.535c-.11.151-.22.137-.288.26-.151.138-.219.151-.3.261-.178.247-.466.288-.6.494a.849.849,0,0,1-.3.247c-.151.123-.275.1-.315.233a2.456,2.456,0,0,1-.645.439,4.566,4.566,0,0,1-.658.425,2.413,2.413,0,0,0-.466.288c-.151.165-.357.124-.535.165a.977.977,0,0,1-.521-.232c-.11-.165-.26-.357-.205-.535a.751.751,0,0,1,.122-.4c.138-.041.165-.192.316-.288a3.952,3.952,0,0,1,.658-.411c.178-.138.384-.247.644-.412a2.181,2.181,0,0,0,.618-.452c.192-.1.342-.329.617-.466a.535.535,0,0,0,.315-.261c.082-.1.246-.123.3-.26s.137-.137.315-.275c.165-.068.137-.233.288-.288a.609.609,0,0,0,.3-.288c.137-.1.206-.123.274-.3a.749.749,0,0,0,.275-.3c.055-.11.192-.206.261-.315.15-.082.164-.192.274-.343s.205-.151.274-.329a.794.794,0,0,1,.685-.329.759.759,0,0,1,.535.178c.109.165.275.288.247.467a2.484,2.484,0,0,0,.466.63,3.387,3.387,0,0,1,.465.535c.111.165.371.315.508.48a.962.962,0,0,0,.521.425,5.006,5.006,0,0,1,.6.453,5.766,5.766,0,0,0,.63.439c.165.11.439.247.645.4a4.373,4.373,0,0,0,.658.356,1.539,1.539,0,0,0,.712.37,1.488,1.488,0,0,1,.37.315A1.332,1.332,0,0,1,978.141-336.149Zm-.411,6.21a.549.549,0,0,1-.151.466c-.15.151-.219.219-.425.219a2.1,2.1,0,0,1-.712.014c-.234.014-.494-.028-.685,0-.233-.055-.481.068-.672,0a2.843,2.843,0,0,1-.686,0c-.205-.055-.535.042-.7,0-.192.028-.425-.028-.685,0-.192-.055-.508.055-.685,0a2.878,2.878,0,0,1-.686,0,1.914,1.914,0,0,0-.685,0c-.233.042-.452-.028-.7,0a2.27,2.27,0,0,1-.685,0c-.233-.014-.411,0-.685,0a3.83,3.83,0,0,0-.685,0c-.205,0-.4.014-.685,0a1.644,1.644,0,0,0-.686,0c-.288.028-.41-.028-.7-.014a.393.393,0,0,1-.425-.219,1.545,1.545,0,0,1-.15-.466c.055-.1.041-.342.15-.466a.521.521,0,0,1,.425-.219c.205,0,.384-.014.6-.014.137.042.384-.028.589,0,.206,0,.37.014.59,0a1.41,1.41,0,0,0,.589,0,1.186,1.186,0,0,0,.589,0,1.655,1.655,0,0,0,.589,0,5.909,5.909,0,0,1,.714,0c.342.028.355-.288.411-.6.055-.041-.041-.082,0-.384-.055-.151.041-.439-.123-.507a.942.942,0,0,0-.508-.1,4.369,4.369,0,0,1-.85,0,4.733,4.733,0,0,1-.768,0,5.087,5.087,0,0,0-.782-.014c-.246.028-.274-.11-.425-.205-.028-.151-.11-.315-.137-.466a1.841,1.841,0,0,1,.137-.466.537.537,0,0,1,.425-.205,2.126,2.126,0,0,1,.782-.014,3.6,3.6,0,0,0,.768,0c.3.068.535-.055.932,0a.533.533,0,0,0,.425-.123c.109-.069.109-.3.123-.548a3.891,3.891,0,0,0-.082-.548c-.11-.055-.206-.205-.356-.137-.329.027-.508-.042-.754,0a3.018,3.018,0,0,0-.618,0c-.26-.014-.466.068-.63-.014-.165.055-.343-.11-.425-.206-.1-.178-.205-.232-.136-.466a.725.725,0,0,1,.2-.412c.028-.11.275-.165.357-.261.233-.068.521.055.836-.014a3.928,3.928,0,0,0,.808,0,3.959,3.959,0,0,0,.809,0,2.749,2.749,0,0,1,.822,0,4,4,0,0,1,.809,0,1.836,1.836,0,0,0,.823,0,7.7,7.7,0,0,0,.809,0c.315.028.494-.013.837.014a1.5,1.5,0,0,1,.37.261.739.739,0,0,1,.205.412c-.068.205-.042.37-.151.466-.082.11-.261.261-.425.206a1.388,1.388,0,0,1-.672.014c-.151.068-.452-.014-.645,0a3.7,3.7,0,0,1-.782,0c-.123.055-.383-.014-.411.123a1.2,1.2,0,0,0-.042.562.623.623,0,0,0,.1.562c.124.164.343.082.467.109a5.554,5.554,0,0,1,.959,0,3.842,3.842,0,0,0,.8,0c.233-.028.562.027.809.014.123.013.383.068.425.205a.417.417,0,0,1,.151.466c.027.151-.1.343-.151.466-.068.165-.26.192-.425.205a7.528,7.528,0,0,1-.809.014c-.234.028-.535-.041-.8,0a6.163,6.163,0,0,1-.877,0c-.205.068-.425,0-.535.151-.192.192-.055.3-.11.452a.881.881,0,0,0,.015.535c.013.3-.015.452.233.466a4.778,4.778,0,0,0,.9-.014,1.485,1.485,0,0,1,.6,0c.248-.014.37,0,.6,0a2.186,2.186,0,0,0,.6,0c.22-.055.343.055.6,0,.205-.055.384.055.589,0,.178.042.37-.055.631.014a1.416,1.416,0,0,1,.425.219A.547.547,0,0,1,977.729-329.939Z" transform="translate(-946.646 341.65)" fill="#1a1311"/>
      <path id="Path_1335" data-name="Path 1335" d="M977.763-310.79c-.068.288-.055.535-.11.754a.9.9,0,0,1-.4.644.726.726,0,0,1-.37.247c-.124.138-.246.11-.439.151a5.157,5.157,0,0,1-.892.082c-.288-.027-.562,0-.9,0a6.768,6.768,0,0,1-.919,0c-.3-.041-.618.014-.919,0-.315.028-.672-.055-.919,0-.288,0-.672.014-.919,0-.342.041-.644-.027-.919,0s-.6-.055-.919,0c-.3-.014-.645,0-.9,0-.288-.041-.713-.055-.959-.109a.7.7,0,0,1-.453-.165.958.958,0,0,1-.383-.3,1.367,1.367,0,0,1-.329-.617,1.794,1.794,0,0,1-.082-.685,4.108,4.108,0,0,0,0-1,2.981,2.981,0,0,1,0-.987,8.053,8.053,0,0,1,0-1,8.034,8.034,0,0,1,0-1,6.058,6.058,0,0,0,0-1,8.2,8.2,0,0,0,0-1,2.951,2.951,0,0,1,0-.987,4.031,4.031,0,0,1,0-1c.055-.233.068-.521.109-.754a1.656,1.656,0,0,1,.4-.645c.055-.068.3-.178.384-.247a.985.985,0,0,0,.425-.151,2.643,2.643,0,0,1,.892-.068c.26,0,.562.028.9,0s.562,0,.919,0c.343-.027.6.042.919,0a5.088,5.088,0,0,0,.919,0,4.078,4.078,0,0,0,.919,0,2.574,2.574,0,0,0,.919,0c.274-.013.589.028.919,0a5.091,5.091,0,0,0,.919,0,3.758,3.758,0,0,1,.945.1c.178-.014.261.1.452.165s.205.219.384.3a1.6,1.6,0,0,1,.329.617,2.014,2.014,0,0,1,.082.685c.013.4.013.685,0,1a5.867,5.867,0,0,0,0,.987c.013.329-.042.7,0,1-.028.3.013.74,0,1a8.2,8.2,0,0,0,0,1c-.042.37.028.672,0,1a3.41,3.41,0,0,1,0,.987C977.735-311.434,977.8-311.133,977.763-310.79Zm-1.59-6.8a3.449,3.449,0,0,0,0-.919,2.865,2.865,0,0,0-.151-.535,2.759,2.759,0,0,0-.7-.178c-.342-.028-.589,0-.836,0-.246-.055-.575.068-.864,0a6.035,6.035,0,0,1-.863,0,3.621,3.621,0,0,1-.864,0c-.342-.014-.575.014-.864,0a6.065,6.065,0,0,1-.863,0c-.3-.028-.562,0-.864,0a5.623,5.623,0,0,1-.836,0c-.219.068-.562.014-.727.205-.109.1-.109.37-.123.507a6.9,6.9,0,0,0,0,.919c.055.288-.068.672,0,.933a3.042,3.042,0,0,0,0,.932,5.448,5.448,0,0,0,0,.946,3.037,3.037,0,0,0,0,.932c-.041.384.055.631,0,.945.041.357-.041.672,0,.932.041.3-.041.562,0,.919a.526.526,0,0,0,.233.59c.192.178.411.068.6.109.233.055.589-.055.849,0a2.6,2.6,0,0,0,.864,0c.233-.055.548.068.863,0a6.107,6.107,0,0,0,.864,0c.329.055.508-.041.864,0,.342-.055.535.068.863,0,.233-.041.576.055.864,0a2.211,2.211,0,0,0,.851,0c.288-.027.589-.055.685-.165a.765.765,0,0,0,.151-.535,2.548,2.548,0,0,1,0-.919,3.488,3.488,0,0,1,0-.932,2.712,2.712,0,0,1,0-.945,6.878,6.878,0,0,1,0-.932,3.613,3.613,0,0,1,0-.946,7.2,7.2,0,0,0,0-.932C976.145-316.972,976.2-317.219,976.173-317.59ZM975.624-312a.538.538,0,0,1-.137.439,1.4,1.4,0,0,1-.384.219,2,2,0,0,1-.809,0,7.61,7.61,0,0,0-.795,0c-.206-.055-.535.041-.8,0s-.548.041-.8,0c-.315.028-.535-.014-.8,0-.219,0-.548.014-.795,0a3.861,3.861,0,0,0-.795,0,5.312,5.312,0,0,0-.809,0,.292.292,0,0,1-.384-.219c-.082-.151-.206-.205-.137-.439a.91.91,0,0,1,.137-.425c.109-.178.164-.233.384-.219a1.554,1.554,0,0,1,.617,0,1.621,1.621,0,0,1,.576,0,6.278,6.278,0,0,0,.727,0c.219.041.329-.082.384-.384a2.856,2.856,0,0,0,.028-.713c-.028-.219.027-.329-.082-.48a1,1,0,0,0-.672-.123,4.913,4.913,0,0,1-1.015,0,.917.917,0,0,1-.384-.219.58.58,0,0,1-.137-.425.417.417,0,0,1,.137-.439.451.451,0,0,1,.384-.219.863.863,0,0,0,.494,0,1.065,1.065,0,0,1,.631-.014c.192-.027.508.042.589-.109a.818.818,0,0,0,.055-.521c.055-.343,0-.658-.385-.645a2.774,2.774,0,0,0-.672,0,1.059,1.059,0,0,1-.548,0,.9.9,0,0,1-.576-.014c-.177-.041-.37-.013-.383-.205-.042-.151-.137-.233-.137-.439a.55.55,0,0,1,.137-.425c.055-.165.233-.165.383-.219a3.022,3.022,0,0,0,.782-.014,1.543,1.543,0,0,0,.755,0c.219,0,.493.014.754,0a2.332,2.332,0,0,1,.754,0,1.807,1.807,0,0,0,.768,0,4.647,4.647,0,0,1,.754,0,2.756,2.756,0,0,0,.755,0,2.938,2.938,0,0,1,.782.014,1.1,1.1,0,0,1,.4.205.779.779,0,0,1,.137.439.671.671,0,0,1-.137.439c-.068.192-.288.205-.4.205a1.634,1.634,0,0,1-.631.014,1.288,1.288,0,0,1-.6,0,5.226,5.226,0,0,1-.658,0c-.576,0-.507.219-.493.645a.927.927,0,0,0,.1.521c.042.151.48.137.617.109a1.734,1.734,0,0,0,.7.014,1.4,1.4,0,0,1,.535,0,.355.355,0,0,1,.384.205.555.555,0,0,1,.137.453,1.27,1.27,0,0,1-.137.425.418.418,0,0,1-.384.178,1.075,1.075,0,0,0-.425.1c-.042.028-.028.055.041.082a1.208,1.208,0,0,1,.315.329c.041.192.192.247.247.4a.623.623,0,0,1,.027.507c-.151.247.1.315.356.329a2.148,2.148,0,0,1,.4.205A1.851,1.851,0,0,1,975.624-312Zm-1.947-.644c.1-.028.151-.1.1-.165a1.612,1.612,0,0,1-.274-.466c-.028-.165-.233-.178-.275-.315a.441.441,0,0,1,.014-.59c.055-.055.041-.082-.014-.11a1.509,1.509,0,0,0-.6.014c-.1.082-.028.247-.069.535a1.8,1.8,0,0,1-.013.466.5.5,0,0,0,.205.508.577.577,0,0,0,.48.123A.642.642,0,0,0,973.677-312.64Z" transform="translate(-946.926 335.173)" fill="#1a1311"/>
      <path id="Path_1336" data-name="Path 1336" d="M977.676-295.205a2.1,2.1,0,0,1-.082.535c.014.233-.137.315-.123.535a3.285,3.285,0,0,1-.192.507c-.123.124-.151.384-.233.48a1.514,1.514,0,0,1-.288.466,1.062,1.062,0,0,1-.328.425c-.137.205-.3.26-.4.4-.083.178-.315.233-.481.37-.219.178-.466.261-.6.371-.246.137-.452.219-.63.3-.233.055-.37.137-.6.192a.842.842,0,0,1-.741-.219.577.577,0,0,1-.26-.575c-.055-.124.082-.329.164-.48.11-.151.275-.178.425-.3a2.437,2.437,0,0,0,.535-.233,4.676,4.676,0,0,0,.48-.261,4.428,4.428,0,0,0,.466-.3,1.621,1.621,0,0,0,.412-.384c.177-.082.219-.329.37-.521.04-.165.233-.329.26-.575a3.944,3.944,0,0,0,.151-.631,2.64,2.64,0,0,1,.041-.645c-.068-.178,0-.4-.055-.631A4.713,4.713,0,0,0,975.8-297a3.079,3.079,0,0,0-.275-.562,4.176,4.176,0,0,0-.37-.494,2.317,2.317,0,0,0-.576-.494,2.721,2.721,0,0,0-.658-.342,1.317,1.317,0,0,0-.548-.151.642.642,0,0,0-.617.439c-.082.412-.055.631-.11.822-.013.275-.1.522-.109.686a3.7,3.7,0,0,0-.137.7,4.144,4.144,0,0,1-.178.672c-.109.26-.124.521-.205.672-.082.288-.233.479-.261.658-.082.192-.192.37-.288.645a1.546,1.546,0,0,1-.261.48.971.971,0,0,1-.288.452,1.656,1.656,0,0,1-.357.425,2.118,2.118,0,0,0-.411.356,3.113,3.113,0,0,1-.754.343,2.56,2.56,0,0,1-.809.123,1.407,1.407,0,0,1-.918-.192,2.032,2.032,0,0,1-.411-.219c-.192-.068-.206-.192-.37-.3a1.7,1.7,0,0,1-.425-.562,1.073,1.073,0,0,1-.288-.645,6.663,6.663,0,0,0-.151-.7,4.025,4.025,0,0,1-.042-.7,2.6,2.6,0,0,0,.028-.548,2.1,2.1,0,0,0,.082-.535,2.085,2.085,0,0,1,.137-.521.991.991,0,0,1,.178-.508,2.25,2.25,0,0,1,.233-.493,1.47,1.47,0,0,1,.274-.452c.124-.124.206-.357.329-.439a1.628,1.628,0,0,1,.356-.4c.206-.206.37-.3.494-.439a1.027,1.027,0,0,1,.548-.384c.137-.041.37-.274.562-.315a2.142,2.142,0,0,1,.6-.261,1.14,1.14,0,0,0,.631-.192c.233-.109.438-.055.644-.137.178-.042.356-.028.644-.082a2.489,2.489,0,0,1,.658-.027c.151,0,.315.027.549.013a2.8,2.8,0,0,1,.535.068c.233,0,.343.1.535.1a1.627,1.627,0,0,0,.521.151,2.08,2.08,0,0,0,.507.206,1.7,1.7,0,0,0,.48.26,5.107,5.107,0,0,0,.452.3c.178.137.288.261.411.37s.178.247.315.343a3,3,0,0,0,.274.384,2.934,2.934,0,0,0,.22.411c.027.178.164.288.192.425a.668.668,0,0,1,.151.452c0,.165.109.274.1.452a3.738,3.738,0,0,1,.083.932A1.482,1.482,0,0,0,977.676-295.205Zm-6.635-3.346a.393.393,0,0,0-.453-.3,1.313,1.313,0,0,0-.439.124c-.138.068-.275.165-.4.219s-.261.247-.425.274c-.178.151-.274.178-.371.315-.123.068-.164.219-.329.357-.123.123-.178.315-.288.384-.028.137-.138.219-.247.425a1.352,1.352,0,0,0-.192.439,1.379,1.379,0,0,0-.138.466,2.529,2.529,0,0,0-.123.96,2.322,2.322,0,0,1,.041.521c.042.124.014.384.138.548a1.849,1.849,0,0,0,.288.439.7.7,0,0,0,.479.178,1.373,1.373,0,0,0,.507-.137c.111-.068.206-.233.371-.343.137-.165.205-.329.315-.466a2.553,2.553,0,0,0,.232-.48,2.745,2.745,0,0,1,.233-.521c.055-.205.151-.37.193-.548a2.638,2.638,0,0,0,.178-.548,1.311,1.311,0,0,1,.137-.562,2.44,2.44,0,0,1,.11-.562,4.678,4.678,0,0,0,.1-.575A2.935,2.935,0,0,0,971.041-298.551Z" transform="translate(-946.921 329.002)" fill="#1a1311"/>
      <path id="Path_1337" data-name="Path 1337" d="M967.412-275.237a1.617,1.617,0,0,0-.136.562,2.146,2.146,0,0,0-.151.522c-.082.247-.178.466-.219.644a3.255,3.255,0,0,0-.274.6.956.956,0,0,1-.315.439,1.673,1.673,0,0,1-.535.192c-.192,0-.452-.055-.534-.205a.51.51,0,0,1-.233-.521c.013-.178-.014-.329.109-.439a2.04,2.04,0,0,0,.246-.562,1.449,1.449,0,0,1,.206-.48c.042-.219.164-.342.151-.507a2.881,2.881,0,0,0,.137-.508,1.274,1.274,0,0,0,.109-.493,2.932,2.932,0,0,1,.138-.836,3.948,3.948,0,0,1,.082-.822,2.4,2.4,0,0,1,.055-.837,5.832,5.832,0,0,1,.014-.849c-.028-.3.041-.658,0-.988a4,4,0,0,1,0-.987,1.811,1.811,0,0,1,.082-.672c.055-.192.137-.48.356-.576a1.436,1.436,0,0,1,.712-.342c.3-.042.563-.055.782-.068a4.651,4.651,0,0,0,.741-.014,1.85,1.85,0,0,0,.726,0,2.407,2.407,0,0,1,.905,0,.4.4,0,0,0,.438-.247,2.271,2.271,0,0,0,.082-.63.522.522,0,0,1,.261-.548,1.393,1.393,0,0,1,.521-.151c.165-.027.356.11.494.151.192.068.26.205.26.548a1.15,1.15,0,0,0,.11.672.448.448,0,0,0,.3.205c.329-.028.466.028.7,0,.165-.041.4.041.576,0s.412.041.576,0a1.359,1.359,0,0,1,.576,0,.915.915,0,0,0,.575,0c.192-.028.315.069.576,0,.26-.014.37.069.6.014a.854.854,0,0,1,.4.219,1.233,1.233,0,0,1,.151.452c.027.192-.055.274-.151.466a.642.642,0,0,1-.4.219,1.3,1.3,0,0,0-.562,0c-.165.068-.357-.014-.535,0a3.592,3.592,0,0,0-1.082,0,3.6,3.6,0,0,1-1.084,0,5.567,5.567,0,0,0-1.069,0,5.7,5.7,0,0,1-1.084,0c-.425-.041-.754.068-1.082,0a7.041,7.041,0,0,0-1.069,0c-.3-.055-.74.055-1.069,0-.275.068-.48.042-.672.178a1.092,1.092,0,0,0-.082.439,6.2,6.2,0,0,0,0,.864c.042.26-.013.63,0,.864a1.2,1.2,0,0,0-.013.589,1.609,1.609,0,0,0-.014.575,4.461,4.461,0,0,1-.042.576,1.766,1.766,0,0,1-.055.575,1.125,1.125,0,0,0-.068.576,1.066,1.066,0,0,0-.1.575C967.535-275.58,967.4-275.4,967.412-275.237Zm4-.315c-.2-.219-.329-.219-.315.082-.013.26.028.658,0,.892-.041.109.042.3,0,.493a2.981,2.981,0,0,0-.013.987,8.16,8.16,0,0,1-.014,1c.014.137-.151.329-.219.425a.683.683,0,0,1-.466.137.477.477,0,0,1-.479-.137c-.1-.027-.165-.233-.22-.425a3.674,3.674,0,0,1,0-.672,5.189,5.189,0,0,0,0-.658c-.041-.123.055-.4.014-.6a4.066,4.066,0,0,0,.013-.617c.015-.329.015-.575-.068-.6s-.124.068-.261.315a2.29,2.29,0,0,1-.26.439c-.151.11-.178.343-.288.439-.1.178-.233.22-.3.343a1.05,1.05,0,0,1-.425.151,1.474,1.474,0,0,1-.439-.178.492.492,0,0,1-.192-.425,1.012,1.012,0,0,1,.165-.452,1.065,1.065,0,0,0,.26-.37c.138-.137.22-.165.248-.343a2.767,2.767,0,0,1,.233-.37c.055-.165.15-.205.2-.37.083-.11.068-.205.192-.384a1.514,1.514,0,0,1,.206-.412,2.231,2.231,0,0,1,.164-.4c.014-.164.206-.342.219-.562.014-.178-.123-.192-.576-.178a.921.921,0,0,1-.562-.192.583.583,0,0,1-.109-.425c0-.233.028-.589.438-.644.248-.028.4.027.727-.014a.5.5,0,0,0,.4-.508c.014-.411-.028-.63,0-.891a.8.8,0,0,1,.22-.439,1.145,1.145,0,0,1,.479-.068.555.555,0,0,1,.466.068.572.572,0,0,1,.219.439c0,.274,0,.575.014.891,0,.165-.014.425.151.453a2.4,2.4,0,0,0,.6.068,1.08,1.08,0,0,1,.48.205.645.645,0,0,1,.151.425c.013.206-.109.329-.137.439-.028.137-.22.192-.494.205a4.083,4.083,0,0,0-.645.041c-.151.123-.123.192-.109.356a2.153,2.153,0,0,0,.261.26,1.09,1.09,0,0,0,.329.261c.083.165.165.178.3.274.11.1.151.22.288.288.205.247.342.439.329.644s-.028.329-.192.425a.369.369,0,0,1-.439.178A.69.69,0,0,1,971.415-275.552Zm6.732,1.426a1.361,1.361,0,0,1-.206.466.629.629,0,0,1-.466.192,1.209,1.209,0,0,1-.507-.205,2.456,2.456,0,0,1-.342-.439c-.151-.123-.178-.315-.3-.479a.941.941,0,0,0-.288-.494c-.1-.137-.041-.178-.151-.288-.055-.1-.165-.178-.219-.151-.027,0-.042.027-.042.068a1.879,1.879,0,0,0,0,.617c-.013.192.028.439.015.658a3.185,3.185,0,0,0,.013.631,6.375,6.375,0,0,1,0,.727c-.028.233.014.493-.013.754a.653.653,0,0,1-.219.425.843.843,0,0,1-.466.137c-.192-.041-.411.028-.481-.137-.068-.123-.2-.178-.219-.425a7.023,7.023,0,0,0,0-.754,6.574,6.574,0,0,0,0-.741v-.712c0-.261,0-.466-.015-.686.015-.109-.027-.164-.082-.164a.082.082,0,0,0-.082.068,3.175,3.175,0,0,1-.233.288c-.123.137-.178.4-.288.48-.178.109-.192.384-.329.479-.165.151-.151.3-.315.371-.111.15-.275.123-.439.15-.151-.027-.342-.027-.452-.178a.452.452,0,0,1-.192-.439.666.666,0,0,1,.165-.439c.055-.1.233-.274.315-.411a1.017,1.017,0,0,0,.274-.384,2.668,2.668,0,0,1,.247-.384c.014-.1.192-.233.233-.4a3.27,3.27,0,0,0,.22-.412c.027-.082.123-.232.219-.439.1-.137.124-.315.192-.425a2.6,2.6,0,0,0,.288-.617c-.015-.178-.206-.192-.7-.178-.193-.042-.343-.028-.453-.205-.055-.151-.165-.288-.151-.439a.575.575,0,0,1,.151-.425c.042-.151.22-.192.493-.205a1.482,1.482,0,0,0,.7-.124c.1-.042.164-.042.233-.412a4.917,4.917,0,0,1,0-.918c0-.233.055-.37.219-.425a1.781,1.781,0,0,1,.508-.11,1.362,1.362,0,0,1,.439.11c.178.027.219.261.219.439a5.051,5.051,0,0,0,.013.9c0,.343.165.522.535.522.452-.055.7.068.946.014.109.027.342.068.384.205.055.165.151.261.137.425a.617.617,0,0,1-.137.439.376.376,0,0,1-.384.205,2.873,2.873,0,0,1-.782,0c-.274,0-.466.1-.383.343a3.649,3.649,0,0,0,.246.383c.014.165.151.261.233.412.11.137.124.288.219.4a1.9,1.9,0,0,1,.22.384.736.736,0,0,1,.246.37c.1.082.109.275.261.37s.137.233.275.343a2.551,2.551,0,0,1,.273.356A.466.466,0,0,1,978.147-274.126Z" transform="translate(-946.625 324.048)" fill="#1a1311"/>
      <path id="Path_1338" data-name="Path 1338" d="M977.851-254.349c-.109.069-.3.261-.4.206-.288.041-.494-.028-.7.014a2.12,2.12,0,0,0-.658,0h-.74a.585.585,0,0,0-.439.178c-.124.137-.069.383-.11.521a3.529,3.529,0,0,1,0,.672,2.022,2.022,0,0,1-.014.521c.028.275-.151.343-.233.439-.205.124-.274.192-.494.151a.661.661,0,0,1-.493-.151c-.123-.123-.247-.205-.233-.439a1.115,1.115,0,0,1-.014-.521,5.432,5.432,0,0,0,0-.672.55.55,0,0,0-.164-.452.87.87,0,0,0-.645-.247,1.75,1.75,0,0,0-.795,0c-.22.068-.315,0-.549,0a.938.938,0,0,1-.548,0,1.94,1.94,0,0,0-.562,0,3.586,3.586,0,0,0-.549,0c-.151-.068-.37.014-.562-.014a.425.425,0,0,1-.4-.219.678.678,0,0,1-.137-.439.536.536,0,0,1,.137-.439.451.451,0,0,1,.4-.205c.246-.014.466,0,.726-.014.275-.028.439-.041.385-.275-.055-.178.027-.37.425-.562.261-.1.22-.275-.068-.37a1.02,1.02,0,0,1-.6-.261c-.151-.068-.205-.178-.329-.411a.942.942,0,0,1-.109-.631c.013-.357-.014-.727,0-1.042,0-.288-.014-.672,0-1.042a.907.907,0,0,1,.109-.631c.082-.192.11-.3.3-.412a2.017,2.017,0,0,1,.493-.232c.192,0,.37-.055.919-.069.206-.027.4.069.6-.027.151-.082.165-.206.288-.412.137-.342-.193-.329-.494-.315-.342,0-.658.027-.878,0a5,5,0,0,1-.782,0c-.328-.055-.479.055-.768,0a1.3,1.3,0,0,0-.493.1c-.124.109-.11.192-.137.4a6.576,6.576,0,0,0,0,1.056,3.414,3.414,0,0,0,0,1.055,2.454,2.454,0,0,0-.015.631,2.036,2.036,0,0,0-.027.631c-.028.192-.028.425-.055.631a6.159,6.159,0,0,1-.082.631,1.662,1.662,0,0,0-.11.616,2.893,2.893,0,0,0-.123.617,1.229,1.229,0,0,0-.165.617,2.843,2.843,0,0,0-.192.6,2.4,2.4,0,0,0-.205.521c-.138.234-.151.48-.275.658a2.447,2.447,0,0,1-.343.617c-.192.165-.246.4-.37.439a1.361,1.361,0,0,1-.493.165.524.524,0,0,1-.507-.192.96.96,0,0,1-.233-.508,1.238,1.238,0,0,1,.288-.7c.041-.068.1-.178.219-.37.082-.137.178-.219.192-.384a2.775,2.775,0,0,0,.178-.384,1.146,1.146,0,0,1,.151-.384c.109-.165.068-.219.137-.425-.014-.151.123-.315.165-.617.055-.247-.055-.466-.412-.206-.384.233-.617.288-.685.247a.616.616,0,0,1-.481-.219.849.849,0,0,1-.205-.493.847.847,0,0,1,.453-.658c.164-.055.288-.219.507-.233.164-.082.247-.137.439-.233.1-.028.233-.165.384-.205a.464.464,0,0,0,.288-.288,2.007,2.007,0,0,0,.068-.645c.014-.315-.15-.288-.575-.165-.274.068-.507-.165-.631-.37-.151-.178-.165-.343-.274-.48a.648.648,0,0,1-.247-.383.866.866,0,0,1-.192-.494.658.658,0,0,1,.234-.452,1.843,1.843,0,0,1,.479-.192.613.613,0,0,1,.4.137.9.9,0,0,1,.3.3,1.177,1.177,0,0,0,.261.412c.082.082.178.1.219-.042a2.711,2.711,0,0,0,.028-.562c.055-.123-.041-.288.014-.452a1.084,1.084,0,0,1,.137-.782,1.4,1.4,0,0,1,.385-.507,4.837,4.837,0,0,1,.616-.261,2.322,2.322,0,0,1,.782-.082,1.443,1.443,0,0,0,.685,0,1.649,1.649,0,0,0,.686,0,3.285,3.285,0,0,0,.836,0c.068.055.315-.027.383-.178a.862.862,0,0,0,.1-.479.51.51,0,0,1,.261-.535,2.1,2.1,0,0,1,.521-.138c.109.028.412.028.507.151.192.068.261.219.247.521s.055.479.192.575a.681.681,0,0,0,.575.082c.3-.027.562.042.74,0a1.243,1.243,0,0,1,.548,0c.4-.055.658.068,1.042,0,.3-.041.713.055,1.07.014.151.014.315.028.4.205a1.162,1.162,0,0,1,.138.425.97.97,0,0,1-.138.439.338.338,0,0,1-.4.192,6.147,6.147,0,0,1-1,.014c-.288.055-.727-.042-.987,0h-.521c-.205-.042-.384.027-.645,0a1.362,1.362,0,0,0-.534,0c-.082.027-.137.082-.1.178.041.137-.055.3-.068.4s.028.205.151.192c.205.014.493-.014.685-.014.274,0,.631.014.892,0a1.622,1.622,0,0,1,.63.069c.206.123.425.192.494.232.165.055.261.3.315.412a3.765,3.765,0,0,0,.109.631,8.877,8.877,0,0,0,0,1.042c.042.329-.068.74,0,1.042a.91.91,0,0,1-.109.617.609.609,0,0,1-.315.411,3.847,3.847,0,0,1-.494.233c-.247.055-.4.014-.74.068-.192.028-.315.247-.315.59a.5.5,0,0,0,.466.589,5.291,5.291,0,0,1,.823,0c.165.055.452-.055.658,0a1.678,1.678,0,0,0,.7.014c.233-.028.3.137.4.205.041.165.1.3.137.439A.759.759,0,0,1,977.851-254.349Zm-7.019-5.58c-.042.233-.014.343.247.357a3.662,3.662,0,0,0,.672,0c.137-.014.37.1.507-.055a.657.657,0,0,0,.069-.522c-.124-.137-.248-.082-.426-.123a5.99,5.99,0,0,1-.712,0C970.983-260.2,970.832-260.134,970.832-259.928Zm1.124,2.125a1.161,1.161,0,0,0,.233-.494c-.041-.165-.493-.165-.892-.137-.37-.041-.479.1-.465.342s.082.315.507.343C971.655-257.748,971.888-257.707,971.956-257.8Zm1.385,1.439c0-.082-.041-.206-.082-.219a.532.532,0,0,0-.356-.014,2.963,2.963,0,0,0-.384.343c-.042.041-.11.123-.274.274s-.275.205-.439.343c-.055.055-.068.109,0,.15a.677.677,0,0,0,.343.041c.4,0,.973.055,1.137-.082C973.382-255.61,973.382-255.857,973.341-256.364Zm1.672-1.371c.233-.028.3-.11.315-.357s-.11-.288-.356-.342a6.006,6.006,0,0,1-.864,0l-.315.014c-.192.041-.178.164-.219.288a.826.826,0,0,0-.068.247c.013.192.206.164.494.151C974.492-257.748,974.685-257.694,975.013-257.734Zm-.753-1.8c.122,0,.383,0,.767-.014a.29.29,0,0,0,.3-.384c0-.3-.137-.329-.356-.342-.261.027-.6-.028-.987.014-.289.027-.357.4-.289.575C973.752-259.531,974.026-259.5,974.26-259.531Z" transform="translate(-946.59 317.945)" fill="#1a1311"/>
      <path id="Path_1339" data-name="Path 1339" d="M970.222-237.306c.041.356-.069.644-.028.973-.014.342-.042.645-.055.974a4.772,4.772,0,0,0-.069.973c-.027.342-.1.589-.123.891a2.439,2.439,0,0,1-.123.439,1.259,1.259,0,0,1-.205.4c-.165.178-.329.412-.535.425-.15.151-.4.068-.658.123a1.955,1.955,0,0,1-.836-.1c-.219-.068-.343-.082-.385-.288a.577.577,0,0,1-.055-.439,1.472,1.472,0,0,1,.165-.507c.137-.124.137-.329.383-.288.6.11.727,0,.727-.151a3.315,3.315,0,0,0,.137-.864,8.663,8.663,0,0,0,.068-.877,1.568,1.568,0,0,1,.042-.617,1.164,1.164,0,0,0,.028-.617c-.028-.151.055-.425.027-.617a1.163,1.163,0,0,1,0-.617c.014-.151-.042-.329-.329-.288-.233-.028-.328.055-.384.48a2.979,2.979,0,0,0-.109.85,2.391,2.391,0,0,0-.11.672c-.109.178-.042.493-.137.685a2.433,2.433,0,0,0-.165.658,4.8,4.8,0,0,1-.192.672,2.094,2.094,0,0,1-.247.631c-.068.165-.233.507-.275.645a5.381,5.381,0,0,1-.355.575.527.527,0,0,1-.59.275.945.945,0,0,1-.507-.206.5.5,0,0,1-.233-.48c.027-.192-.015-.342.122-.452a3.676,3.676,0,0,0,.357-.755,7.649,7.649,0,0,1,.288-.768c.055-.192.165-.548.248-.781,0-.192.178-.562.178-.809a3.756,3.756,0,0,1,.138-.809,3.517,3.517,0,0,1,.1-.809c-.014-.26.082-.575.055-.822a4.116,4.116,0,0,0,.014-.822c-.042-.137.1-.466,0-.755a1.868,1.868,0,0,0-.233-.288.714.714,0,0,0-.549-.151c-.233-.027-.466-.1-.507-.233-.138-.1-.138-.315-.151-.452a2.281,2.281,0,0,1,.151-.466.515.515,0,0,1,.411-.233,2.251,2.251,0,0,1,.809,0c.151-.027.493-.342.452-.617.014-.439-.014-.685.014-1.042a.992.992,0,0,1,.233-.466.883.883,0,0,1,.507-.151.583.583,0,0,1,.508.151,1.355,1.355,0,0,1,.233.466c-.042.356.027.644.013,1.042.055.233.275.6.494.617a2.711,2.711,0,0,0,.891,0,1.8,1.8,0,0,1,.425.22.721.721,0,0,1,.083.452,1.035,1.035,0,0,1-.165.466c-.068.1-.15.247-.342.247a1.2,1.2,0,0,0-.494,0,2.459,2.459,0,0,0-.63.014c-.151.041-.247-.028-.425.041-.151.055-.192.357-.164.631-.028.384.109.589.383.548a4.207,4.207,0,0,1,.836.082c.233.082.411.11.563.329a1.974,1.974,0,0,0,.246.479,2.09,2.09,0,0,1,.055.535C970.168-237.965,970.29-237.581,970.222-237.306Zm.123-3.455a1.36,1.36,0,0,1,.192-.521c.151-.247.26-.343.4-.589a2.166,2.166,0,0,1,.343-.618,1.894,1.894,0,0,0,.288-.6,2.329,2.329,0,0,0,.247-.658.692.692,0,0,1,.123-.37c.082-.165.205-.192.275-.343a1.39,1.39,0,0,1,.425-.137,2.659,2.659,0,0,1,.548.192.4.4,0,0,1,.261.479,3.255,3.255,0,0,1-.165.576.5.5,0,0,0,.055.493c.11.124.411.055.535.041a5.006,5.006,0,0,0,.685-.014c.178-.028.371.082.535.014a2.928,2.928,0,0,0,1.042.013c.3.055.644-.041,1.056.014.219.042.356.082.425.219s.192.343.151.467c.028.178-.124.383-.151.479-.123.151-.219.247-.425.219-.233.055-.356-.041-.631.014-.219-.014-.452.068-.589,0a2.916,2.916,0,0,0-.6,0c-.232.068-.452-.028-.6,0a1.554,1.554,0,0,0-.616,0c-.22.055-.385-.028-.6,0s-.426-.041-.6,0-.4-.028-.563,0a.958.958,0,0,1-.274.425,2.813,2.813,0,0,0-.3.439c-.165.165-.151.205-.3.3a.425.425,0,0,1-.425.123.5.5,0,0,1-.494-.192A.542.542,0,0,1,970.345-240.761Zm7.664,7.307c-.138.233-.205.4-.275.48a1.413,1.413,0,0,1-.411.343c-.165.11-.37.151-.507.233-.192,0-.4.165-.562.137a1.78,1.78,0,0,1-.6.068c-.164-.041-.465.055-.575.014-.165.041-.356-.014-.548.014a3.767,3.767,0,0,1-.549-.014,1.284,1.284,0,0,1-.6-.028,1.031,1.031,0,0,1-.616-.068.841.841,0,0,1-.521-.151c-.288-.068-.425-.342-.562-.535a1.3,1.3,0,0,1-.137-.768,5.593,5.593,0,0,0,0-.836c0-.233.015-.589,0-.836a4.91,4.91,0,0,1,0-1.015c-.027-.151.11-.575-.123-.617-.165-.1-.493.124-.754-.151a.37.37,0,0,1-.233-.452.454.454,0,0,1,.15-.425c.111-.22.275-.22.535-.275.329-.068.384-.26.425-.548a2.7,2.7,0,0,1,.015-.836c-.055-.192.013-.329.26-.37.165-.055.274-.165.438-.219a.506.506,0,0,1,.493.151.758.758,0,0,1,.248.535c.041.165,0,.493.1.658.123.205.357.109.48.1.082,0,.082-.37.1-.617a1.635,1.635,0,0,1,0-.63,1.228,1.228,0,0,1,.014-.453c.013-.15.1-.4.219-.411.138-.014.343-.042.453-.055a4.3,4.3,0,0,1,.452.055,1.1,1.1,0,0,1,.219.411c-.028.233.027.48.014.864,0,.439.137.521.507.4a1.7,1.7,0,0,1,.631-.082,1.988,1.988,0,0,0,.48.068,2.252,2.252,0,0,1,.4.261,3.257,3.257,0,0,1,.274.795,4.55,4.55,0,0,0-.014.658c.041.247-.055.521-.042.8a2.257,2.257,0,0,1-.082.767c-.014.192-.137.522-.137.645a1.822,1.822,0,0,1-.425.672.7.7,0,0,1-.658.261c-.275,0-.48-.055-.6-.055a.465.465,0,0,1-.178-.151c-.068-.082-.138-.15-.233-.013-.151.205-.4.151-.617.205a1.967,1.967,0,0,1-.452-.151c-.178-.082-.165-.233-.205-.412a4.664,4.664,0,0,0-.014-.644c-.055-.178.055-.439,0-.617a5.175,5.175,0,0,0,.028-1.029c-.028-.3-.37-.137-.6-.041-.178.041-.082.425-.1.617a9.188,9.188,0,0,1,0,1.069,5.519,5.519,0,0,0,0,.836,2.969,2.969,0,0,1,0,.85c.027.3,0,.425.3.439a1.615,1.615,0,0,0,.59.068,1.129,1.129,0,0,0,.6,0c.192-.028.631,0,.973-.014.137-.055.3-.014.521-.068.165-.068.247-.041.4-.137a.773.773,0,0,0,.22-.357,1.248,1.248,0,0,1,.122-.425c.206-.1.426-.342.645-.342a.692.692,0,0,1,.535.205.783.783,0,0,1,.205.521A1.3,1.3,0,0,1,978.009-233.455Zm-2.975-3.235c-.028.247.028.384,0,.63-.055.315.178.371.37.206a1.07,1.07,0,0,0,.384-.028,2.205,2.205,0,0,0,.1-.932c.055-.275-.1-.645-.055-1a.3.3,0,0,0-.439-.068.38.38,0,0,0-.356.466A6.348,6.348,0,0,0,975.034-236.689Z" transform="translate(-946.651 311.731)" fill="#1a1311"/>
      <path id="Path_1340" data-name="Path 1340" d="M968.37-219.914c-.109.151-.082.26-.219.342-.055.124-.22.315-.3.508-.165.164-.124.4.124.6a1.757,1.757,0,0,1,.055.85,3.167,3.167,0,0,1,0,.726c.014.315,0,.48,0,.74,0,.288.014.439,0,.741-.042.192.042.466,0,.74a2.145,2.145,0,0,1,0,.727c-.014.205.014.562,0,.74-.055.192.027.493-.014.754.041.165-.1.3-.247.425-.178.123-.3.205-.479.137a.475.475,0,0,1-.494-.137c-.205-.124-.233-.178-.247-.425a1.525,1.525,0,0,1,0-.658c-.068-.151.055-.356,0-.645a3.213,3.213,0,0,0,0-.63c-.028-.261.055-.548.014-.727a1.639,1.639,0,0,1,.028-.631c0-.165-.015-.329-.015-.836-.027-.165,0-.521-.177-.521a.947.947,0,0,1-.686.151c-.165.028-.356-.137-.493-.219a.571.571,0,0,1-.205-.48.636.636,0,0,1,.246-.562c.068-.137.124-.26.288-.315.137-.068.151-.192.288-.329a.622.622,0,0,1,.248-.3c.137-.138.219-.151.246-.329a4.3,4.3,0,0,1,.246-.356,3,3,0,0,0,.233-.357c.082-.1.069-.192.206-.356.027-.124.082-.165.205-.357.11-.1.137-.315.233-.439a.982.982,0,0,1,.645-.4.983.983,0,0,1,.522.192,1.137,1.137,0,0,1,.259.494c-.055.15-.082.26-.15.493C968.618-220.421,968.549-220.147,968.37-219.914Zm-3.318-1.591c-.04-.178.137-.411.275-.589a2.329,2.329,0,0,1,.521-.521,2.258,2.258,0,0,0,.411-.493c.1-.1.178-.33.356-.466a.823.823,0,0,0,.3-.467c-.015-.137.1-.178.192-.315a.6.6,0,0,1,.616-.343,1.405,1.405,0,0,1,.535.192c.164.082.192.274.246.479.028.1-.082.206-.082.343a2.959,2.959,0,0,1-.219.37.648.648,0,0,0-.233.356,1.356,1.356,0,0,1-.233.357.644.644,0,0,0-.261.343,1,1,0,0,0-.261.329c-.042.068-.192.205-.274.315a.685.685,0,0,1-.288.3,2.52,2.52,0,0,0-.315.288,1.573,1.573,0,0,1-.562.247,2.2,2.2,0,0,1-.507-.219C965.108-221.093,965.094-221.312,965.052-221.5Zm5.4,3.1c-.014.178-.027.412-.027.562a1.3,1.3,0,0,1-.069.535,2.3,2.3,0,0,0-.082.521,2.367,2.367,0,0,0-.082.521.841.841,0,0,0-.1.466,2.652,2.652,0,0,0-.137.617,1.435,1.435,0,0,0-.178.6c-.124.206-.124.3-.206.439-.109.247-.355.261-.575.261-.206.068-.343-.123-.466-.178a.488.488,0,0,1-.205-.439c.11-.4.068-.507.151-.644a6.676,6.676,0,0,1,.205-.7,4.008,4.008,0,0,1,.165-.712c.042-.274.11-.48.123-.727a5.068,5.068,0,0,0,.1-.726,1.262,1.262,0,0,0,.041-.521.451.451,0,0,1,.22-.385c.068-.055.274-.192.425-.137a.536.536,0,0,1,.494.178A1.151,1.151,0,0,1,970.454-218.406Zm1.947-1.522c-.137.109-.1.288-.151.452a5.452,5.452,0,0,0,0,.658c.028.219-.055.411,0,.507a3.142,3.142,0,0,0,0,.946c.015.288.015.685,0,.946a7.253,7.253,0,0,1,0,.96c-.055.288.042.644,0,.946.055.288-.027.645,0,.946-.013.315.028.617-.013.973a.5.5,0,0,1-.247.452.8.8,0,0,1-.493.151c-.138-.013-.439-.013-.508-.151-.192-.068-.178-.246-.246-.452a5.7,5.7,0,0,1,0-.973,3.6,3.6,0,0,1,0-.946,5.4,5.4,0,0,1,0-.946c-.069-.275.041-.672,0-.96-.028-.247.013-.617,0-.946a7.022,7.022,0,0,1,0-.946,3.162,3.162,0,0,0,0-.507c-.015-.151.013-.329,0-.658-.015-.165.055-.439-.1-.548a.968.968,0,0,0-.425-.137,4.129,4.129,0,0,1-.726-.014c-.165.068-.274-.1-.411-.233a.767.767,0,0,1-.1-.439c.041-.178,0-.384.1-.48a.7.7,0,0,1,.4-.233c.165-.068.411.055.809-.014a.4.4,0,0,0,.453-.452,7.641,7.641,0,0,0,0-.781c-.028-.275.027-.425,0-.645a1.781,1.781,0,0,0,0-.658c0-.205.082-.383.26-.411a1.128,1.128,0,0,1,.494-.124,2.042,2.042,0,0,0,.479.124.4.4,0,0,1,.261.411,2.647,2.647,0,0,1,.013.658c.015.192-.013.466,0,.645a3.683,3.683,0,0,0,0,.781c-.068.151.192.4.466.452.439-.055.576.068.851.014a1.142,1.142,0,0,1,.4.219.9.9,0,0,1,.137.466.575.575,0,0,1-.137.466c-.055.1-.192.3-.4.233a8.051,8.051,0,0,1-.851.014A.474.474,0,0,0,972.4-219.927Zm.041-3.482c.055-.22.055-.275.206-.4.041-.109.288-.082.411-.15a.933.933,0,0,1,.508.246,5.435,5.435,0,0,1,.342.466c.11.138.11.3.219.356a4.046,4.046,0,0,0,.1.412.5.5,0,0,1-.192.425.516.516,0,0,1-.453.192c-.261.068-.356-.1-.479-.3-.124-.178-.206-.4-.288-.48C972.525-223.149,972.456-223.2,972.442-223.409Zm1.344,8.445c-.329.014-.48-.178-.6-.439a1.048,1.048,0,0,1-.109-.494c0-.123-.109-.26-.082-.493a1.184,1.184,0,0,1-.109-.494c-.069-.109-.014-.343-.11-.507,0-.11-.123-.275-.123-.48a4.663,4.663,0,0,0-.165-.521c-.082-.329.1-.4.178-.576a.961.961,0,0,1,.439-.178c.315.014.521.109.6.342.109.192.151.508.275.768.055.261.164.645.2.782a6.3,6.3,0,0,0,.165.768,1.551,1.551,0,0,1,.137.768.53.53,0,0,1-.178.535A.568.568,0,0,1,973.786-214.965Zm4.277-4.565a.479.479,0,0,1-.48.233c-.247.041-.589.315-.562.521a2.678,2.678,0,0,0,0,.891,1.764,1.764,0,0,0,0,.713,6.521,6.521,0,0,1,0,.726,6.224,6.224,0,0,0,0,.727c-.028.205.013.521,0,.726a6.533,6.533,0,0,1,0,.727,5.946,5.946,0,0,0,0,.713,1.567,1.567,0,0,1-.082.644.826.826,0,0,1-.329.562,1.055,1.055,0,0,1-.535.275,1.856,1.856,0,0,1-.59.055,2.051,2.051,0,0,1-.973-.1.544.544,0,0,1-.384-.247,3.472,3.472,0,0,1-.15-.452c-.069-.165.109-.384.178-.494a.7.7,0,0,1,.452-.219,2.251,2.251,0,0,1,.7.068c.206,0,.206-.165.206-.329a5.381,5.381,0,0,0,0-.672,6.061,6.061,0,0,1,0-.7c-.028-.178.042-.425,0-.7a5.989,5.989,0,0,1,0-.7,2.924,2.924,0,0,1,0-.7,5.763,5.763,0,0,0,0-.685,2.451,2.451,0,0,1,0-.85.7.7,0,0,0-.151-.425,1.237,1.237,0,0,0-.631-.082c-.219-.028-.411-.042-.494-.233a.443.443,0,0,1-.122-.466c.013-.11.013-.357.122-.466.069-.178.138-.165.4-.233a7.011,7.011,0,0,1,.768-.014,6.772,6.772,0,0,0,.74,0,3.437,3.437,0,0,0,.754,0,2.382,2.382,0,0,0,.768.014.768.768,0,0,1,.4.233c.028.137.178.342.137.466A.674.674,0,0,1,978.063-219.53ZM974.4-223.4c-.069-.068.027-.233.055-.439.109-.178.233-.165.4-.219a2.51,2.51,0,0,0,.63-.014,1.482,1.482,0,0,1,.6,0,1.173,1.173,0,0,0,.618,0,3.175,3.175,0,0,1,.63.014c.178-.041.3.11.4.219a1.868,1.868,0,0,1,.137.466.569.569,0,0,1-.137.466.347.347,0,0,1-.4.219c-.233,0-.438.027-.63.014a1.541,1.541,0,0,0-.618,0,1.13,1.13,0,0,1-.6,0,3.243,3.243,0,0,0-.63-.014c-.219,0-.385-.055-.315-.247A.489.489,0,0,1,974.4-223.4Z" transform="translate(-946.623 305.591)" fill="#1a1311"/>
      <path id="Path_1341" data-name="Path 1341" d="M951-337.41a.63.63,0,0,1,.178.493.6.6,0,0,1-.178.493c-.178.178-.3.247-.467.234a3.279,3.279,0,0,1-.63,0,4.278,4.278,0,0,0-.6,0,6.174,6.174,0,0,0-.727,0c-.151.027-.425.205-.439.37a3.888,3.888,0,0,1-.014.7,1.532,1.532,0,0,0-.068.685,3.9,3.9,0,0,0-.123.658,4.482,4.482,0,0,0-.178.658c-.068.288-.1.508-.247.631a2.339,2.339,0,0,1-.3.617,2.551,2.551,0,0,0-.356.575,2.283,2.283,0,0,0-.439.535c-.164.123-.383.4-.507.493a2.538,2.538,0,0,1-.617.508c-.274.192-.48.3-.658.411a1.754,1.754,0,0,1-.672.275.956.956,0,0,1-.782-.206.777.777,0,0,1-.261-.562.5.5,0,0,1,.151-.452.946.946,0,0,1,.371-.3c.288-.138.479-.261.671-.371a3.078,3.078,0,0,0,.618-.439,2.226,2.226,0,0,0,.37-.342c.151-.055.178-.261.342-.4.028-.124.233-.233.288-.425.1-.082.151-.329.233-.452.028-.178.206-.425.247-.685a3.733,3.733,0,0,0,.165-.726,5.741,5.741,0,0,0,.1-.946,1.288,1.288,0,0,0-.055-.466.724.724,0,0,0-.328-.315,3.543,3.543,0,0,1-.645.014,1.058,1.058,0,0,0-.466,0,7.915,7.915,0,0,0-.959-.041c-.26-.014-.575.26-.548.425a1.576,1.576,0,0,0,0,.726,4.381,4.381,0,0,1,0,.6,1.827,1.827,0,0,1-.014.616.661.661,0,0,1-.261.508,1.012,1.012,0,0,1-.562.178.815.815,0,0,1-.562-.178.527.527,0,0,1-.274-.508c.013-.219,0-.356,0-.616a2.227,2.227,0,0,0,0-.6c-.014-.123.028-.383,0-.672a.56.56,0,0,0-.261-.343c-.219-.164-.329-.082-.521-.136a6.509,6.509,0,0,0-.741,0c-.164-.028-.411.041-.576,0a.54.54,0,0,1-.466-.234.745.745,0,0,1-.178-.493.887.887,0,0,1,.178-.493,1.048,1.048,0,0,1,.466-.22c.151.014.412-.027.576-.013a6.6,6.6,0,0,0,.741,0,.753.753,0,0,0,.521-.138.774.774,0,0,0,.261-.356c.028-.261-.014-.37,0-.589a1.538,1.538,0,0,0,0-.562,2.787,2.787,0,0,1,0-.589c.028-.247.055-.425.274-.522a.657.657,0,0,1,.562-.178,1.054,1.054,0,0,1,.562.178.684.684,0,0,1,.261.522,4.582,4.582,0,0,0,.014.589,1.55,1.55,0,0,0,0,.562c.014.178-.014.274,0,.6a.521.521,0,0,0,.507.48,6.163,6.163,0,0,0,1,0,3.924,3.924,0,0,1,.96.027c.219.014.562-.219.549-.452a7.032,7.032,0,0,0,0-.754,3.112,3.112,0,0,0,0-.617,4.7,4.7,0,0,1,0-.631.877.877,0,0,1,.274-.507,1.108,1.108,0,0,1,.562-.178,1.019,1.019,0,0,1,.562.178c.1.123.316.274.261.507a3.362,3.362,0,0,0,.014.644,4.381,4.381,0,0,0,0,.6c.013.246-.028.466,0,.754a.428.428,0,0,0,.425.425c.342,0,.48.013.727,0,.164.041.384-.028.6,0s.425-.055.63.013A.708.708,0,0,1,951-337.41Z" transform="translate(-938.621 341.375)" fill="#1a1311"/>
      <path id="Path_1342" data-name="Path 1342" d="M950.448-315.217a4.869,4.869,0,0,0,0,.631c0,.288-.068.466,0,.645,0,.178-.014.37,0,.631a1.862,1.862,0,0,1-.11.795,2.675,2.675,0,0,1-.164.37c-.124.055-.192.288-.261.315-.068.178-.261.192-.4.261a1.323,1.323,0,0,1-.425.151,4.244,4.244,0,0,1-.919.082,2.118,2.118,0,0,1-.658,0,2.763,2.763,0,0,1-.672,0,5.59,5.59,0,0,1-.672,0c-.233-.042-.508.068-.672,0a5.342,5.342,0,0,1-.658,0,2.725,2.725,0,0,1-.672,0c-.288.027-.4-.028-.672,0a5.163,5.163,0,0,0-.658,0c-.11-.055-.37.068-.494-.028-.219-.055-.329.014-.494-.082a.608.608,0,0,1-.466-.178,1.415,1.415,0,0,1-.4-.315,1.583,1.583,0,0,1-.343-.645c-.027-.26-.15-.507-.082-.713-.014-.15.014-.383,0-.644a2.014,2.014,0,0,1,0-.645,4.889,4.889,0,0,0,0-.631,2.571,2.571,0,0,0,0-.644c-.068-.178.014-.412,0-.645.027-.233-.014-.37,0-.644.041-.192-.028-.412,0-.631.014-.247-.014-.4,0-.645a2.47,2.47,0,0,1,.109-.795,1.009,1.009,0,0,1,.425-.685,2.3,2.3,0,0,0,.383-.247,2.1,2.1,0,0,1,.439-.151,4.866,4.866,0,0,1,.919-.1,2.113,2.113,0,0,1,.658,0,5.423,5.423,0,0,0,.672,0,3.689,3.689,0,0,1,.672,0,1.767,1.767,0,0,0,.658,0,2.2,2.2,0,0,0,.672,0,2.759,2.759,0,0,1,.672,0,5.444,5.444,0,0,0,.672,0,2.618,2.618,0,0,0,.658,0,3.124,3.124,0,0,0,.494.028c.205.068.261,0,.494.082.137.069.288.11.466.192a.7.7,0,0,1,.383.3,2.983,2.983,0,0,1,.357.645,1.571,1.571,0,0,1,.082.726,3.26,3.26,0,0,0,0,.631,4.852,4.852,0,0,0,0,.645c.014.26-.028.479,0,.644a2.037,2.037,0,0,0,0,.645A3.372,3.372,0,0,1,950.448-315.217Zm-1.7.535a2.843,2.843,0,0,0,0-.589c0-.247-.014-.384,0-.589-.014-.178.027-.425.014-.6.013-.192,0-.37,0-.589a4.159,4.159,0,0,1-.014-.59,4.085,4.085,0,0,0,0-.575.738.738,0,0,0-.137-.452.858.858,0,0,0-.658-.165,2.186,2.186,0,0,1-.6,0,4.356,4.356,0,0,0-.6,0,1.816,1.816,0,0,0-.617,0c-.246.068-.425-.055-.631,0a3.06,3.06,0,0,0-.617,0,3.048,3.048,0,0,1-.616,0,2.973,2.973,0,0,1-.6,0c-.248,0-.412.014-.618,0a1.051,1.051,0,0,0-.685.192.579.579,0,0,0-.1.412c-.027.233.042.384,0,.589a1.435,1.435,0,0,0,0,.59,2.886,2.886,0,0,0,0,.589,4.285,4.285,0,0,1,0,.6,2.835,2.835,0,0,0,0,.589,4.061,4.061,0,0,1,0,.589,2.057,2.057,0,0,1,0,.59,2.886,2.886,0,0,0,0,.589.676.676,0,0,0,.165.466.724.724,0,0,0,.617.137,1.176,1.176,0,0,0,.618,0,1.279,1.279,0,0,0,.6,0,1.854,1.854,0,0,0,.616,0,4.59,4.59,0,0,0,.617,0c.178-.027.439.068.631,0,.137-.055.439.055.617,0a2.206,2.206,0,0,0,.6,0c.26-.027.425.014.616,0a1.988,1.988,0,0,0,.59-.109c.151-.068.192-.329.192-.494.027-.233-.014-.411,0-.589A2.106,2.106,0,0,0,948.748-314.683Z" transform="translate(-939.079 335.106)" fill="#1a1311"/>
      <path id="Path_1343" data-name="Path 1343" d="M941.356-301.957a1.461,1.461,0,0,1-.438-.439.636.636,0,0,1-.124-.384.954.954,0,0,1,.288-.617,1.391,1.391,0,0,1,.617-.26.638.638,0,0,1,.4.1,1.882,1.882,0,0,1,.383.219c.083.1.275.178.357.261.042.137.219.165.3.247.109.1.137.192.328.274a1.132,1.132,0,0,0,.329.288c.109.082.288.192.328.315.165.123.178.261.288.329a.5.5,0,0,1,.151.507,1.15,1.15,0,0,1-.273.645,1.153,1.153,0,0,1-.645.288,1.06,1.06,0,0,1-.631-.274c-.1-.1-.288-.275-.411-.384-.178-.151-.219-.288-.411-.384a1.359,1.359,0,0,0-.411-.37C941.7-301.656,941.493-301.834,941.356-301.957Zm9.693,1.042c-.109.288-.315.439-.384.631a2.925,2.925,0,0,1-.411.6,2.47,2.47,0,0,1-.426.589c-.2.233-.273.4-.438.562a4.746,4.746,0,0,1-.48.548,5.815,5.815,0,0,1-.494.522c-.165.137-.37.383-.52.493-.151.233-.426.329-.563.494-.178.192-.411.26-.534.425-.178.137-.384.247-.562.412a2.3,2.3,0,0,1-.576.4,1.661,1.661,0,0,1-.6.37,2.58,2.58,0,0,0-.6.329,5.256,5.256,0,0,1-.631.315,1.967,1.967,0,0,1-.63.288c-.178.11-.453.178-.658.275a.9.9,0,0,1-.385.055.816.816,0,0,1-.6-.261,1,1,0,0,1-.247-.617.707.707,0,0,1,.329-.617,3.529,3.529,0,0,1,.685-.329c.082-.055.178-.068.384-.165a.926.926,0,0,1,.37-.178,2.454,2.454,0,0,1,.384-.192c.11-.041.192-.178.37-.192.137-.068.192-.123.37-.205a1.651,1.651,0,0,1,.357-.219c.15-.055.233-.205.356-.233a1.7,1.7,0,0,1,.342-.233c.069-.055.261-.123.343-.247a.755.755,0,0,0,.329-.26c.055-.11.219-.11.329-.261.15-.109.219-.205.329-.274a.887.887,0,0,0,.315-.274c.1-.028.138-.151.3-.288.11-.137.192-.26.3-.3.082-.11.165-.26.288-.315.1-.151.357-.3.466-.521.151-.123.275-.4.425-.548a3.138,3.138,0,0,1,.4-.575c.178-.219.205-.357.37-.589.11-.165.261-.3.343-.453.164-.137.26-.247.521-.205a1.28,1.28,0,0,1,.6.219.82.82,0,0,1,.274.576A1.626,1.626,0,0,1,951.049-300.915Z" transform="translate(-939.159 329.937)" fill="#1a1311"/>
      <path id="Path_1344" data-name="Path 1344" d="M950.686-281.14a.7.7,0,0,1-.357.645c-.165.082-.507.137-.658.233a6.262,6.262,0,0,0-.809.219,5.2,5.2,0,0,1-.754.288c-.1.055-.3.082-.425.151a5.232,5.232,0,0,0-.548.192.954.954,0,0,0-.4.342.71.71,0,0,0-.1.48c.042.356.028.507.042.7a3.613,3.613,0,0,1,0,.535.723.723,0,0,1-.247.535,1.064,1.064,0,0,1-.562.192.7.7,0,0,1-.522-.164c-.137-.055-.233-.22-.233-.48s-.027-.494-.041-.8a.282.282,0,0,0-.4-.275,5.333,5.333,0,0,0-.713.467c-.164.192-.356.37-.439.493a.849.849,0,0,0-.165.617c.014.206.042.384.233.466.082.165.3.165.562.247s.453.014.672.082c.22-.014.384,0,.562,0,.206-.028.425,0,.576-.014a1.949,1.949,0,0,0,.589-.028,4.379,4.379,0,0,1,.59-.055,5.708,5.708,0,0,0,.576-.082,1.991,1.991,0,0,1,.589-.069.9.9,0,0,1,.453.233.868.868,0,0,1,.219.562.528.528,0,0,1-.124.425c-.15.165-.233.247-.342.274-.192.138-.384.068-.644.165-.288.014-.576.055-.864.082a4.013,4.013,0,0,1-.878.042,3.77,3.77,0,0,0-.685.013c-.151.014-.438-.041-.575-.013-.151-.068-.453.041-.618-.068-.26-.068-.425-.014-.616-.11a.976.976,0,0,1-.6-.205,1.054,1.054,0,0,1-.52-.288.772.772,0,0,1-.411-.4,1.085,1.085,0,0,1-.288-.507,1.8,1.8,0,0,1-.1-.658,4.833,4.833,0,0,1,.082-.617c.015-.192.151-.315.22-.549.137-.178.233-.4.329-.494a1.841,1.841,0,0,1,.425-.439c.137-.082.274-.233.493-.4.124-.1.3-.164.508-.329a4.839,4.839,0,0,0,.782-.425c.15-.082.178-.342-.028-.535a.653.653,0,0,0-.645-.165,2.063,2.063,0,0,0-.6.11,4.211,4.211,0,0,1-.645.261c-.15.055-.356.232-.575.342a1.716,1.716,0,0,0-.507.343,2.613,2.613,0,0,0-.466.356,1.126,1.126,0,0,1-.521.178,1.145,1.145,0,0,1-.535-.233c-.082-.124-.261-.275-.233-.522a.722.722,0,0,1,.315-.63,2.213,2.213,0,0,0,.329-.3.842.842,0,0,0,.275-.261c.055-.068.192-.165.274-.274a2.565,2.565,0,0,0,.508-.576,3.936,3.936,0,0,0,.493-.617c.082-.123.192-.274.178-.384-.013-.165-.122-.178-.37-.165-.164.014-.3,0-.466.014a1.116,1.116,0,0,1-.37.028.571.571,0,0,1-.534-.233.658.658,0,0,1-.233-.535.756.756,0,0,1,.205-.507.827.827,0,0,1,.507-.22c.288,0,.59-.013.878-.027a2.07,2.07,0,0,0,.562-.028,2.435,2.435,0,0,0,.535-.028.885.885,0,0,0,.411-.329,2.905,2.905,0,0,0,.219-.548c.1-.275.165-.425.261-.727a.561.561,0,0,1,.274-.37.639.639,0,0,1,.453-.137c.2-.028.37.109.534.178a.835.835,0,0,1,.261.479,1.149,1.149,0,0,1-.124.508c-.041.109-.109.233-.178.412s.111.342.344.3c.328-.055.631-.055.822-.1a5.106,5.106,0,0,1,.85-.137.507.507,0,0,1,.466.206.828.828,0,0,1,.192.479.565.565,0,0,1-.138.425.7.7,0,0,1-.315.233,3.457,3.457,0,0,1-.864.178c-.206.028-.494.068-.726.11a4.722,4.722,0,0,1-.741.1,1.88,1.88,0,0,0-.712.151.733.733,0,0,0-.3.356c-.068.11-.192.275-.246.37a1.688,1.688,0,0,1-.165.233c-.082.124-.123.192-.055.275.028.055.109.082.383,0a3.153,3.153,0,0,1,.521-.068,2.489,2.489,0,0,1,.741.082,1.143,1.143,0,0,1,.658.342,3.438,3.438,0,0,1,.4.521.534.534,0,0,0,.617.178,1.861,1.861,0,0,0,.616-.26c.11,0,.206-.124.4-.151a5.388,5.388,0,0,1,.768-.274c.234-.055.562-.192.782-.261.151,0,.466-.164.658-.151a.783.783,0,0,1,.534.234A.791.791,0,0,1,950.686-281.14Z" transform="translate(-938.851 324.689)" fill="#1a1311"/>
      <path id="Path_1345" data-name="Path 1345" d="M942.6-259.17c-.151.082-.329.165-.507.247a1.133,1.133,0,0,0-.385.26.835.835,0,0,0-.041.508,1.392,1.392,0,0,0,0,.63c.055.124-.028.343,0,.467a2.17,2.17,0,0,0,0,.849,6.018,6.018,0,0,0,0,.864c-.014.178-.055.343-.082.576a2.161,2.161,0,0,1-.315.507.75.75,0,0,1-.548.275,4.37,4.37,0,0,0-.6.068.571.571,0,0,1-.494-.014.833.833,0,0,1-.493-.11.625.625,0,0,1-.4-.658.957.957,0,0,1,.165-.494.714.714,0,0,1,.452-.246c.206-.028.535.15.74-.015.137-.109.055-.342.055-.822a3.419,3.419,0,0,1,0-.658c.014-.206,0-.439,0-.768,0-.274-.192-.438-.37-.357-.357.068-.467.192-.645.138a.49.49,0,0,1-.507-.233.622.622,0,0,1-.192-.535c.027-.137.055-.37.15-.425a.534.534,0,0,1,.384-.26c.137-.014.329-.138.7-.206a.732.732,0,0,0,.425-.4,5.345,5.345,0,0,0,.055-.932c0-.206-.028-.384-.028-.782a.586.586,0,0,0-.151-.494c-.137-.137-.425-.055-.713-.1a.588.588,0,0,1-.534-.233.56.56,0,0,1-.138-.465,2.973,2.973,0,0,1,.151-.453c.1-.164.219-.205.521-.219a3.192,3.192,0,0,0,.618-.137c.15-.1.219-.137.274-.274a1.377,1.377,0,0,1,0-.713,1.147,1.147,0,0,1,0-.576c.042-.164-.055-.37,0-.6a.422.422,0,0,1,.247-.452.87.87,0,0,1,.52-.151c.206-.055.385.11.508.151a1.993,1.993,0,0,1,.233.452,2.257,2.257,0,0,0,.014.6,4.083,4.083,0,0,1,0,.576,4.139,4.139,0,0,1,0,.713c.014.247.247.384.521.411a.542.542,0,0,1,.494.206c.1.205.205.37.151.466.027.205-.11.329-.151.465-.137.206-.247.165-.494.233a1.024,1.024,0,0,0-.425.11c-.151.137-.11.384-.1.672a3.1,3.1,0,0,0,.041.768c0,.4.206.412.4.3a.908.908,0,0,1,.7.165c.178.192.261.3.219.48a.739.739,0,0,1-.192.452C942.724-259.266,942.67-259.28,942.6-259.17Zm8.705,3.373c-.055.247-.042.412-.219.535a.483.483,0,0,1-.521.219c-.151-.055-.356-.041-.438-.109-.11-.083-.343-.124-.4-.233-.205-.192-.494-.275-.645-.453a.785.785,0,0,1-.315-.246c-.123-.1-.205-.192-.3-.261-.137-.068-.178-.233-.288-.274a5.745,5.745,0,0,1-.411-.412c-.083-.137-.165-.165-.22-.11s-.082.178-.082.385c.014.342.028.658.028.932a2.991,2.991,0,0,0,0,.7,2.513,2.513,0,0,0-.014.713.482.482,0,0,1-.233.439.573.573,0,0,1-.493.137.478.478,0,0,1-.494-.137.413.413,0,0,1-.233-.439,1.436,1.436,0,0,1-.014-.726,1.571,1.571,0,0,0,0-.672,9.183,9.183,0,0,0,.028-.919c-.014-.137-.014-.261-.028-.342-.014-.124-.055-.178-.137-.083-.192.083-.247.3-.315.33a.536.536,0,0,0-.288.288c-.178.151-.233.247-.3.288a3.076,3.076,0,0,0-.315.261c-.138.055-.205.219-.315.26s-.205.219-.343.247a.7.7,0,0,0-.328.246,2.038,2.038,0,0,1-.4.247c-.082.138-.288.11-.438.11a.424.424,0,0,1-.48-.219c-.192-.1-.138-.329-.192-.48a.808.808,0,0,1,.37-.617c.165-.137.315-.151.385-.233a.855.855,0,0,1,.342-.205c.082-.123.247-.123.342-.233a.71.71,0,0,0,.315-.247c.124-.151.165-.233.315-.274a1.068,1.068,0,0,0,.288-.261,2.721,2.721,0,0,1,.3-.288c.137-.1.137-.192.3-.329.015-.028.015-.055-.027-.1a.8.8,0,0,0-.48-.109c-.466-.028-.74,0-1.015,0-.192-.055-.37-.028-.4-.219-.042-.151-.137-.22-.137-.439-.069-.137.082-.274.137-.439.109-.068.205-.233.4-.205a4.807,4.807,0,0,1,.631-.014c.261-.055.4.041.6,0,.22-.028.4.041.754,0a.47.47,0,0,0,.343-.178c.138-.137.042-.37.082-.644a.624.624,0,0,1,.247-.535c.165-.028.261-.151.494-.151.192-.014.342.109.493.151.178.109.206.246.233.535a1.416,1.416,0,0,0,.1.644.369.369,0,0,0,.438.178,3.96,3.96,0,0,0,.905,0,2.228,2.228,0,0,1,.74,0,1.721,1.721,0,0,0,.754.014c.205-.042.342.151.4.205.027.165.164.3.151.439a3.841,3.841,0,0,1-.151.439.368.368,0,0,1-.4.205,1.756,1.756,0,0,0-.6.014,1.082,1.082,0,0,1-.59,0,3.525,3.525,0,0,0-.658,0c-.206.055-.151.288,0,.411a1.527,1.527,0,0,0,.342.3,1.91,1.91,0,0,0,.315.247c.247.124.329.356.617.453a1.469,1.469,0,0,0,.658.383c.068.1.3.138.384.22A.73.73,0,0,1,951.307-255.8Zm-8.239-8.9a4.853,4.853,0,0,1,.068-.562c.015-.178.165-.288.288-.479a.887.887,0,0,1,.589-.275,3.98,3.98,0,0,1,.631-.055,1.356,1.356,0,0,1,.575,0,.912.912,0,0,0,.576,0c.178-.041.4.068.576,0a1.627,1.627,0,0,1,.576,0,2.019,2.019,0,0,1,.575,0,1.345,1.345,0,0,0,.576,0c.192-.028.329.028.575,0,.137.041.425-.028.576,0a2.569,2.569,0,0,0,.7.068,1.33,1.33,0,0,1,.6.329,1.061,1.061,0,0,1,.233.466,1.1,1.1,0,0,0,.055.507c.028.233-.042.521-.013.754.055.137-.138.4-.233.425-.206.055-.329.109-.494.137a.673.673,0,0,1-.494-.137c-.1-.042-.3-.275-.247-.425a1.241,1.241,0,0,0,0-.507c-.041-.192-.068-.288-.342-.3a2.886,2.886,0,0,1-1.028,0,8.851,8.851,0,0,1-1.042,0c-.288-.028-.713.055-1.042,0a6.348,6.348,0,0,0-1.028,0c-.178.014-.288.041-.329.288a2.224,2.224,0,0,0-.013.795.492.492,0,0,1-.233.425c-.192.042-.357.206-.494.137a3,3,0,0,1-.494-.137c-.192-.041-.219-.288-.233-.425A8.645,8.645,0,0,1,943.068-264.7Zm3.373.37a1,1,0,0,1,.164.549c-.055.233-.055.356-.109.508-.082.205-.124.342-.178.452a1.555,1.555,0,0,0-.233.439,1.262,1.262,0,0,1-.274.411c-.042.11-.22.247-.329.385-.164.1-.178.246-.357.342a3.12,3.12,0,0,1-.383.315c-.151.1-.247.151-.411.26-.109.138-.274.124-.425.124a.489.489,0,0,1-.48-.205.78.78,0,0,1-.192-.48c0-.288.192-.439.4-.631.124-.082.342-.247.48-.356a1.849,1.849,0,0,0,.439-.425c.1-.192.261-.315.329-.48a1.149,1.149,0,0,0,.233-.562c.069-.068.055-.247.109-.357a2.854,2.854,0,0,1,.248-.37,2.809,2.809,0,0,1,.425-.055A3.825,3.825,0,0,0,946.44-264.325Zm.768,2.056a4.538,4.538,0,0,1,0-.864,2.3,2.3,0,0,1,.014-.877c-.014-.109.055-.315.233-.329a.887.887,0,0,1,.452-.137c.178.042.26.11.438.137.165.082.261.178.246.329-.041.315.069.494.015.741.041.3-.042.535,0,.712-.083.288.192.247.37.219.246.068.589-.014.658-.247s-.042-.383.165-.521a.482.482,0,0,1,.508-.219c.219-.028.315.068.479.178s.165.329.192.48a1.435,1.435,0,0,1-.123.63,2.318,2.318,0,0,1-.356.522,1.263,1.263,0,0,1-.795.315c-.234.028-.548.014-.851.055-.246-.028-.479.068-.74-.042-.329-.1-.48-.082-.672-.329A.936.936,0,0,1,947.208-262.269Z" transform="translate(-938.43 318.5)" fill="#1a1311"/>
      <path id="Path_1346" data-name="Path 1346" d="M951.191-243.4a.725.725,0,0,1-.466.768,7.357,7.357,0,0,1-.782,0,5.155,5.155,0,0,1-.63.014c-.315.028-.467,0-.768.014a7.145,7.145,0,0,1-.782.027,3.98,3.98,0,0,0-.8.014.565.565,0,0,0-.465.548c0,.356.027.48.013.575a3.849,3.849,0,0,0,.068.988,3.226,3.226,0,0,1,.206.535c.055.205.137.411.15.535a3.389,3.389,0,0,1,.083.507c0,.151.028.371.028.48a3.578,3.578,0,0,1-.083.919,1.67,1.67,0,0,1-.1.452,1.249,1.249,0,0,0-.137.425,1.349,1.349,0,0,1-.178.439,1.894,1.894,0,0,1-.22.4c-.082.165-.205.261-.261.371a4.09,4.09,0,0,1-.315.356,3.86,3.86,0,0,1-.411.384c-.192.165-.439.247-.59.439a5.1,5.1,0,0,1-.631.357,1.483,1.483,0,0,1-.589.151.534.534,0,0,1-.562-.233.982.982,0,0,1-.247-.562.943.943,0,0,1,.261-.548,2.375,2.375,0,0,1,.521-.3,3.539,3.539,0,0,0,.576-.329,1.829,1.829,0,0,0,.521-.385c.055-.068.165-.178.275-.3a.283.283,0,0,0,.109-.356c-.042-.082-.165-.082-.3-.055-.164.028-.288,0-.4.014a2.561,2.561,0,0,1-.85-.151c-.178-.055-.342-.082-.411-.205a1.155,1.155,0,0,1-.357-.288c-.165-.055-.233-.315-.315-.412a1.257,1.257,0,0,1-.219-.452c-.055-.1-.027-.261-.109-.493,0-.219-.028-.275-.042-.508a1.832,1.832,0,0,1,.151-.919,2.351,2.351,0,0,0,.206-.425,1.485,1.485,0,0,1,.288-.37.949.949,0,0,1,.329-.261c.165-.055.233-.151.371-.192a1.621,1.621,0,0,1,.425-.109,5.057,5.057,0,0,1,.549-.028c.356.028.6,0,.6-.3,0-.233.028-.315-.1-.466s-.26-.137-.548-.109c-.178-.014-.37.014-.521.014a2.953,2.953,0,0,0-.521.027,6.393,6.393,0,0,0-1.042.055,5.834,5.834,0,0,0-1,.055,3.485,3.485,0,0,1-.767.068,5.772,5.772,0,0,1-.809.027.589.589,0,0,1-.575-.232.939.939,0,0,1-.219-.589.707.707,0,0,1,.274-.6,1.952,1.952,0,0,1,.7-.192c.288,0,.522-.055.919-.028a3.972,3.972,0,0,0,.768-.055c.233-.042.521,0,.754-.028.315-.041.6-.028.919-.041.22-.042.411-.014.575-.042.137-.027.425.014.685-.027a.776.776,0,0,0,.466-.631c.028-.48-.027-.672,0-1.029a.565.565,0,0,1,.261-.521.792.792,0,0,1,.548-.192.723.723,0,0,1,.645.288.984.984,0,0,1,.151.617c.013.3-.028.465-.014.658a.819.819,0,0,0,.1.452.514.514,0,0,0,.452.275,4.841,4.841,0,0,0,.767-.014c.275-.028.371.014.727-.028a4.825,4.825,0,0,1,.987-.014,4.625,4.625,0,0,1,.973,0c.248-.014.385.151.521.233A.761.761,0,0,1,951.191-243.4Zm-6.238,3.551a.925.925,0,0,0-.685-.315.772.772,0,0,0-.549.288.705.705,0,0,0-.192.645,1.481,1.481,0,0,0,.247.713.852.852,0,0,0,.645.329.554.554,0,0,0,.617-.288,2.041,2.041,0,0,0,.164-.617A1.085,1.085,0,0,0,944.953-239.851Z" transform="translate(-938.548 312.287)" fill="#1a1311"/>
    </g>
  </g>
</svg>
