<?xml version="1.0" standalone="no"?>
<!DOCTYPE svg PUBLIC "-//W3C//DTD SVG 1.1//EN" "http://www.w3.org/Graphics/SVG/1.1/DTD/svg11.dtd" >
<svg xmlns="http://www.w3.org/2000/svg" xmlns:xlink="http://www.w3.org/1999/xlink" version="1.1">
<metadata></metadata>
<defs>
<font id="corporate_logo_ver2medium" horiz-adv-x="1167" vert-adv-y="2048" >
<font-face units-per-em="2048" ascent="1802" descent="-246" />
<missing-glyph horiz-adv-x="1024" />
<glyph unicode="&#xfb01;" horiz-adv-x="1296" d="M63 938v176l154 12v142q0 182 87 286.5t269 104.5q106 0 199 -37l-47 -178q-63 29 -123 29q-150 0 -149 -203v-144h227v-188h-227v-938h-236v938h-154zM856 1479q0 63 41 101t107 38t106.5 -38t40.5 -101t-41 -102.5t-106 -39.5q-66 0 -107 39t-41 103zM885 0v1126h235 v-1126h-235z" />
<glyph unicode="&#xfb02;" horiz-adv-x="1316" d="M63 938v176l154 12v142q0 182 87 286.5t269 104.5q106 0 199 -37l-47 -178q-63 29 -123 29q-150 0 -149 -203v-144h227v-188h-227v-938h-236v938h-154zM885 264v1368h235v-1380q0 -43 16.5 -64.5t39.5 -21.5q20 0 41 4l30 -178q-55 -18 -127 -19q-125 0 -180 74t-55 217z " />
<glyph unicode="&#xfb03;" horiz-adv-x="1974" d="M63 938v176l154 12v119q0 182 93 286.5t282 104.5q119 0 215 -41l-47 -176q-68 31 -146 31q-76 0 -118.5 -53.5t-42.5 -153.5v-117h442v142q0 182 88 286.5t268 104.5q109 0 201 -37l-47 -178q-63 29 -125 29q-150 0 -150 -203v-144h228v-188h-228v-938h-235v938h-442 v-938h-236v938h-154zM1536 1479q0 63 40 101t105 38q66 0 107 -38t41 -101t-41 -102.5t-107 -39.5q-65 0 -105 39t-40 103zM1563 0v1126h237v-1126h-237z" />
<glyph unicode="&#xfb04;" horiz-adv-x="1996" d="M63 938v176l154 12v119q0 182 93 286.5t282 104.5q119 0 215 -41l-47 -176q-68 31 -146 31q-76 0 -118.5 -53.5t-42.5 -153.5v-117h442v142q0 182 88 286.5t268 104.5q109 0 201 -37l-47 -178q-63 29 -125 29q-150 0 -150 -203v-144h228v-188h-228v-938h-235v938h-442 v-938h-236v938h-154zM1563 264v1368h237v-1380q0 -45 15.5 -65.5t39.5 -20.5q20 0 41 4l31 -178q-55 -18 -129 -19q-123 0 -179 75t-56 216z" />
<glyph horiz-adv-x="0" vert-adv-y="0" />
<glyph horiz-adv-x="682" />
<glyph unicode=" "  horiz-adv-x="1024" />
<glyph unicode="&#x09;" horiz-adv-x="1024" />
<glyph unicode="&#xa0;" horiz-adv-x="1024" />
<glyph unicode="!" horiz-adv-x="702" d="M195 137q0 74 44 121t111 47q68 0 114 -47t46 -121q0 -72 -46 -118t-114 -46q-67 0 -111 46.5t-44 117.5zM233 1544h238l-8 -244l-33 -819h-158l-32 819z" />
<glyph unicode="&#x22;" horiz-adv-x="1060" d="M182 1587h244l-6 -241l-47 -408h-137l-48 408zM631 1587h246l-7 -241l-47 -408h-137l-47 408z" />
<glyph unicode="#" d="M82 459v157h197l40 314h-192v157h209l53 410h143l-49 -410h283l53 410h146l-52 -410h185v-157h-203l-39 -314h197v-157h-215l-56 -459h-147l55 459h-282l-58 -459h-145l55 459h-178zM424 616h285l39 314h-285z" />
<glyph unicode="$" d="M111 152l106 161q178 -147 346 -147q119 0 178.5 55t59.5 158q0 72 -38 125t-94.5 90t-150.5 84q-113 57 -183.5 105t-118.5 124t-48 185q0 158 92 264t248 133v231h164v-229q104 -12 182 -58.5t147 -119.5l-120 -137q-70 66 -130.5 95t-142.5 29q-98 0 -155.5 -52 t-57.5 -146q0 -61 34 -107.5t85 -77t143 -75.5q117 -57 192 -106.5t127 -133.5t52 -207q0 -166 -94 -275.5t-262 -137.5v-234h-164v227q-106 10 -213 58.5t-184 118.5z" />
<glyph unicode="%" horiz-adv-x="1923" d="M74 1061q0 223 96 349t256 126q162 0 258 -126t96 -349t-97 -351t-257 -128t-256 127t-96 352zM246 1061q0 -168 49 -254t131 -86q84 0 133 86t49 254t-49 252t-133 84q-82 0 -131 -84t-49 -252zM473 -27l825 1563h150l-825 -1563h-150zM1143 451q0 223 96 349t258 126 q160 0 256 -126t96 -349t-96 -350.5t-256 -127.5q-162 0 -258 127t-96 351zM1317 451q0 -168 49 -254t131 -86t131 86t49 254t-49 251.5t-131 83.5q-84 0 -132 -84t-48 -251z" />
<glyph unicode="&#x26;" horiz-adv-x="1445" d="M70 393q0 141 76.5 242.5t213.5 191.5q-98 190 -98 340q0 102 46 186.5t129 133.5t192 49q150 0 234.5 -85t84.5 -226q0 -92 -46 -169t-112.5 -136.5t-175.5 -137.5q143 -201 361 -374q133 172 201 417h217q-90 -307 -260 -532q154 -96 276 -127l-61 -193 q-172 41 -359 166q-193 -166 -448 -166q-142 0 -248.5 55.5t-164.5 150.5t-58 214zM295 408q0 -111 78 -180.5t196 -69.5q131 0 260 102q-219 188 -372 408q-78 -66 -120 -127.5t-42 -132.5zM461 1169q-1 -102 65 -237q115 76 175.5 141.5t60.5 149.5q0 66 -33 108.5 t-96 42.5q-76 0 -124 -57t-48 -148z" />
<glyph unicode="'" horiz-adv-x="610" d="M182 1587h244l-6 -241l-47 -408h-137l-48 408z" />
<glyph unicode="(" horiz-adv-x="727" d="M182 641q0 293 77 549t226 498l148 -64q-129 -217 -193.5 -469t-64.5 -514q0 -264 64.5 -516t193.5 -467l-148 -66q-150 244 -226.5 499t-76.5 550z" />
<glyph unicode=")" horiz-adv-x="727" d="M94 -342q129 215 193.5 467t64.5 516q0 262 -64.5 514t-193.5 469l148 64q150 -242 227.5 -498t77.5 -549q0 -295 -77 -550t-228 -499z" />
<glyph unicode="*" horiz-adv-x="991" d="M119 1317l41 125l246 -58l22 256h133l23 -256l245 58l41 -125l-231 -98l133 -224l-106 -77l-170 198l-170 -198l-107 77l131 224z" />
<glyph unicode="+" d="M78 676v170h416v442h180v-442h416v-170h-416v-443h-180v443h-416z" />
<glyph unicode="," horiz-adv-x="610" d="M109 -276q106 43 164.5 116.5t58.5 163.5q-8 -2 -23 -2q-66 0 -111.5 40t-45.5 112q0 68 47 109.5t116 41.5q86 0 134.5 -67.5t48.5 -186.5q0 -160 -88 -280.5t-248 -180.5z" />
<glyph unicode="-" horiz-adv-x="731" d="M96 492v174h541v-174h-541z" />
<glyph unicode="." horiz-adv-x="610" d="M147 137q0 74 45.5 121t112.5 47q68 0 113 -47t45 -121q0 -72 -45 -118t-113 -46q-67 0 -112.5 46.5t-45.5 117.5z" />
<glyph unicode="/" horiz-adv-x="798" d="M25 -369l569 2005h164l-570 -2005h-163z" />
<glyph unicode="0" d="M96 760q0 383 130 579.5t358 196.5q227 0 357 -197.5t130 -578.5q0 -385 -130 -586t-357 -201q-228 0 -358 201t-130 586zM322 760q0 -311 69.5 -455.5t192.5 -144.5t192.5 144.5t69.5 455.5q0 309 -69.5 449.5t-192.5 140.5t-192.5 -140.5t-69.5 -449.5z" />
<glyph unicode="1" d="M176 0v195h330v1048h-270v150q106 20 185 47.5t142 68.5h178v-1314h295v-195h-860z" />
<glyph unicode="2" d="M78 1311q102 113 209.5 169t249.5 56q137 0 239.5 -56.5t158.5 -158.5t56 -238q0 -205 -144.5 -425t-406.5 -472q137 14 246 15h377v-201h-973v137q344 303 509 528.5t165 405.5q0 127 -65.5 202t-190.5 75q-152 0 -297 -168z" />
<glyph unicode="3" d="M57 180l115 152q162 -166 356 -166q129 0 208 67.5t79 184.5q0 133 -102.5 203.5t-343.5 70.5v174q395 0 395 264q0 100 -61.5 158t-170.5 60q-160 -2 -301 -142l-122 148q203 182 432 182q207 0 333.5 -103.5t126.5 -285.5q0 -127 -68.5 -218t-191.5 -136v-11 q137 -35 224.5 -133t87.5 -243q0 -133 -67.5 -230.5t-182.5 -150t-254 -52.5q-308 0 -492 207z" />
<glyph unicode="4" d="M41 406v157l600 946h274v-921h191v-182h-191v-406h-221v406h-653zM279 588h415v395q0 84 11 293h-9q-49 -104 -121 -234z" />
<glyph unicode="5" d="M55 174l113 154q74 -74 159 -118t193 -44q131 0 215 87t84 234q0 150 -77.5 233t-209.5 83q-68 0 -119 -19.5t-122 -66.5l-115 76l45 716h764v-200h-559l-35 -387q53 27 101.5 40t105.5 13q201 0 330 -122t129 -357q0 -160 -71 -279t-186.5 -181.5t-250.5 -62.5 q-164 0 -283 54.5t-211 146.5z" />
<glyph unicode="6" d="M109 725q0 276 77.5 458.5t206.5 267.5t285 85q223 0 377 -162l-129 -143q-43 49 -106.5 80.5t-129.5 31.5q-158 0 -256 -136t-106 -439q66 80 155.5 127t171.5 47q197 0 310.5 -121t113.5 -352q0 -145 -60.5 -258t-163.5 -175.5t-226 -62.5q-148 0 -265.5 83t-186 252 t-68.5 417zM332 594q18 -219 94 -329.5t201 -110.5q100 0 167.5 86t67.5 229q0 145 -64.5 223t-185.5 78q-69 0 -143 -43t-137 -133z" />
<glyph unicode="7" d="M100 1309v200h971v-145q-172 -215 -261 -412.5t-124 -410.5t-49 -541h-242q14 285 56.5 502t127.5 410.5t230 396.5h-709z" />
<glyph unicode="8" d="M94 375q0 139 77 241.5t194 163.5v11q-203 143 -203 352q0 115 56 204t153.5 137t220.5 48q129 0 225 -50t148.5 -141.5t52.5 -207.5q0 -106 -58.5 -200.5t-140.5 -154.5v-10q254 -143 254 -399q0 -111 -61.5 -201t-172 -142.5t-253.5 -52.5q-140 0 -252.5 51.5 t-176 143.5t-63.5 207zM303 397q0 -111 82 -182.5t205 -71.5q117 0 188.5 62.5t71.5 169.5q0 86 -47 145.5t-120 99t-204 93.5q-82 -55 -129 -137t-47 -179zM373 1143q0 -113 79.5 -179.5t231.5 -125.5q135 126 135 280q0 106 -61.5 175t-169.5 69q-94 0 -154.5 -59.5 t-60.5 -159.5z" />
<glyph unicode="9" d="M88 1040q0 145 60.5 258t163 175.5t225.5 62.5q150 0 267.5 -81t186 -244.5t68.5 -405.5q0 -283 -77 -470.5t-204 -274.5t-280 -87q-229 0 -385 160l129 146q45 -51 110.5 -82t134.5 -31q150 0 247 137t108 440q-66 -82 -156 -129t-176 -47q-195 0 -308.5 121t-113.5 352 zM307 1040q0 -145 63.5 -224t180.5 -79q74 0 149.5 46t137.5 139q-16 217 -94 324.5t-205 107.5q-100 0 -166 -85t-66 -229z" />
<glyph unicode=":" horiz-adv-x="610" d="M147 137q0 74 45.5 121t112.5 47q68 0 113 -47t45 -121q0 -72 -45 -118t-113 -46q-67 0 -112.5 46.5t-45.5 117.5zM147 942q0 72 46.5 120t111.5 48q66 0 112 -48t46 -120q0 -70 -46 -117t-112 -47q-65 0 -111.5 47t-46.5 117z" />
<glyph unicode=";" horiz-adv-x="610" d="M109 -276q106 43 164.5 116.5t58.5 163.5q-8 -2 -23 -2q-66 0 -111.5 40t-45.5 112q0 68 47 109.5t116 41.5q86 0 134.5 -67.5t48.5 -186.5q0 -160 -88 -280.5t-248 -180.5zM147 942q0 72 46.5 120t111.5 48q66 0 112 -48t46 -120q0 -70 -46 -117t-112 -47 q-65 0 -111.5 47t-46.5 117z" />
<glyph unicode="&#x3c;" d="M78 676v178l1012 393v-198l-461 -166l-310 -115v-8l771 -279v-198z" />
<glyph unicode="=" d="M78 422v170h1012v-170h-1012zM78 930v170h1012v-170h-1012z" />
<glyph unicode="&#x3e;" d="M78 283v198l772 279v8l-772 281v198l1012 -393v-178z" />
<glyph unicode="?" horiz-adv-x="1005" d="M90 1374q80 92 183.5 144.5t224.5 52.5q182 0 292.5 -99.5t110.5 -275.5q0 -96 -42 -170t-126 -174q-82 -94 -123 -167t-41 -163q0 -27 2 -41h-206q-4 23 -5 64q0 106 45.5 187t131.5 188q70 86 102.5 141t32.5 119q0 88 -53.5 143t-147.5 55q-137 0 -248 -125zM313 137 q0 74 45 121t113 47t113 -47t45 -121q0 -72 -45 -118t-113 -46t-113 46.5t-45 117.5z" />
<glyph unicode="@" horiz-adv-x="1990" d="M115 469q0 305 134 540.5t359.5 365.5t491.5 130q233 0 409.5 -98t271.5 -276.5t95 -407.5q0 -193 -71.5 -333t-183.5 -212t-226 -72q-98 0 -165 45.5t-81 129.5h-6q-53 -68 -130 -112t-149 -44q-127 0 -206.5 89t-79.5 243q0 129 58 256t161.5 206.5t230.5 79.5 q123 0 182 -112h4l29 94h152l-97 -473q-16 -70 -16 -111q0 -137 135 -137q74 0 143.5 56.5t113.5 160t44 238.5q0 184 -70.5 328.5t-214 227.5t-352.5 83q-205 0 -388 -110.5t-296.5 -310.5t-113.5 -456q0 -219 89 -375.5t243.5 -237.5t349.5 -81q96 0 191 26.5t173 71.5 l60 -135q-203 -115 -443 -115q-231 0 -420.5 96.5t-300 285t-110.5 456.5zM762 469q0 -96 41 -142t108 -46q93 0 195 125l61 350q-27 45 -58.5 65.5t-76.5 20.5q-78 0 -140.5 -57.5t-96 -144.5t-33.5 -171z" />
<glyph unicode="A" horiz-adv-x="1273" d="M0 0l500 1509h274l500 -1509h-252l-127 430h-524l-129 -430h-242zM426 616h412l-60 203q-55 176 -141 502h-10q-55 -225 -140 -502z" />
<glyph unicode="B" horiz-adv-x="1366" d="M199 0v1509h467q248 0 390 -89t142 -283q0 -111 -58.5 -202t-156.5 -124v-10q135 -29 216 -120t81 -239q0 -217 -158.5 -329.5t-419.5 -112.5h-503zM436 186h240q180 0 275.5 66.5t95.5 202.5q0 245 -368 245h-3h-240v-514zM436 879h203q326 0 326 227q0 117 -78 167 t-242 50h-209v-444z" />
<glyph unicode="C" horiz-adv-x="1323" d="M117 750q0 240 89 418t243.5 273t347.5 95q131 0 241.5 -53t186.5 -137l-129 -152q-131 135 -295 135q-129 0 -229.5 -69.5t-156 -198.5t-55.5 -303q0 -178 53.5 -308.5t151 -200t230.5 -69.5q100 0 181 41t152 119l127 -150q-188 -217 -469 -217q-190 0 -342.5 92.5 t-239.5 268.5t-87 416z" />
<glyph unicode="D" horiz-adv-x="1431" d="M199 0v1509h391q350 0 538.5 -191.5t188.5 -557.5q0 -365 -187.5 -562.5t-527.5 -197.5h-403zM436 195h137q244 0 371 142t127 423q0 555 -498 555h-137v-1120z" />
<glyph unicode="E" horiz-adv-x="1228" d="M199 0v1509h891v-200h-654v-420h553v-201h-553v-487h676v-201h-913z" />
<glyph unicode="F" horiz-adv-x="1159" d="M199 0v1509h893v-200h-656v-461h557v-199h-557v-649h-237z" />
<glyph unicode="G" horiz-adv-x="1435" d="M117 750q0 240 91 418t250.5 273t360.5 95q266 0 449 -190l-127 -152q-63 63 -138 99t-176 36q-139 0 -244.5 -69.5t-164 -198.5t-58.5 -303q0 -272 123 -425t355 -153q70 0 134 19.5t103 54.5v354h-299v195h514v-653q-80 -80 -203.5 -128.5t-273.5 -48.5 q-203 0 -360.5 92.5t-246.5 267.5t-89 417z" />
<glyph unicode="H" horiz-adv-x="1515" d="M199 0v1509h237v-616h645v616h238v-1509h-238v686h-645v-686h-237z" />
<glyph unicode="I" horiz-adv-x="632" d="M199 0v1509h237v-1509h-237z" />
<glyph unicode="J" horiz-adv-x="1126" d="M61 223l166 121q90 -164 244 -164q117 0 172 71t55 232v1026h238v-1048q0 -217 -109.5 -352.5t-328.5 -135.5q-152 0 -258.5 62.5t-178.5 187.5z" />
<glyph unicode="K" horiz-adv-x="1357" d="M199 0v1509h237v-714h6l574 714h264l-467 -583l545 -926h-264l-426 739l-232 -284v-455h-237z" />
<glyph unicode="L" horiz-adv-x="1142" d="M199 0v1509h237v-1308h639v-201h-876z" />
<glyph unicode="M" horiz-adv-x="1699" d="M199 0v1509h272l277 -764q18 -49 51 -151l49 -152h10q6 16 49 152l49 151l273 764h274v-1509h-221v745q0 125 31 467h-8l-121 -348l-262 -719h-148l-264 719l-119 348h-8q4 -61 8 -92q2 -39 11.5 -165t9.5 -210v-745h-213z" />
<glyph unicode="N" horiz-adv-x="1503" d="M199 0v1509h243l500 -886l158 -320h10q-4 61 -8 90q-8 102 -15.5 214t-7.5 198v704h226v-1509h-244l-500 889l-158 315h-10l8 -98q2 -20 12.5 -150.5t10.5 -244.5v-711h-225z" />
<glyph unicode="O" horiz-adv-x="1544" d="M117 760q0 238 83 414t231.5 269t340.5 93q195 0 343.5 -93t231.5 -269.5t83 -413.5q0 -240 -83 -417t-232.5 -273.5t-342.5 -96.5q-192 0 -340.5 96.5t-231.5 273.5t-83 417zM360 760q0 -174 51.5 -305t144.5 -203t216 -72t217 72t145.5 203t51.5 305t-51.5 303 t-144.5 197.5t-218 68.5t-218 -68.5t-143.5 -197.5t-50.5 -303z" />
<glyph unicode="P" horiz-adv-x="1325" d="M199 0v1509h456q575 0 576 -456q0 -238 -154.5 -360t-412.5 -122h-228v-571h-237zM436 762h205q182 0 269 70.5t87 220.5q0 143 -89 203.5t-275 60.5h-197v-555z" />
<glyph unicode="Q" horiz-adv-x="1544" d="M117 760q0 238 83 414t231.5 269t340.5 93q195 0 343.5 -93t231.5 -269.5t83 -413.5q0 -209 -65 -372t-180.5 -265.5t-271.5 -134.5q49 -92 144.5 -138.5t214.5 -46.5q84 0 160 23l45 -178q-39 -18 -99.5 -28.5t-132.5 -10.5q-211 0 -362.5 101.5t-223.5 271.5 q-164 29 -285.5 130t-189 267t-67.5 381zM360 760q0 -180 50.5 -314.5t143.5 -206t218 -71.5t218 71.5t144.5 206t51.5 314.5q0 174 -51.5 303t-144.5 197.5t-218 68.5t-218 -68.5t-143.5 -197.5t-50.5 -303z" />
<glyph unicode="R" horiz-adv-x="1343" d="M199 0v1509h493q252 0 398.5 -103t146.5 -335q0 -170 -83 -277.5t-232 -154.5l368 -639h-268l-342 608h-244v-608h-237zM436 799h228q166 0 251.5 68.5t85.5 203.5q0 133 -83.5 189.5t-253.5 56.5h-228v-518z" />
<glyph unicode="S" horiz-adv-x="1245" d="M92 195l139 163q82 -82 188.5 -130t213.5 -48q135 0 210 58.5t75 154.5q0 66 -30 108t-76 67.5t-136 66.5l-209 90q-307 129 -307 395q0 117 64.5 212t177 149.5t253.5 54.5q131 0 250 -51t207 -139l-125 -152q-74 66 -154.5 100.5t-177.5 34.5q-117 0 -185.5 -52 t-68.5 -140q0 -61 33 -103.5t81 -68t130 -58.5l207 -88q147 -63 227 -157.5t80 -249.5q0 -121 -64.5 -221.5t-185.5 -159t-280 -58.5q-154 0 -293 58.5t-244 163.5z" />
<glyph unicode="T" horiz-adv-x="1249" d="M63 1309v200h1125v-200h-445v-1309h-237v1309h-443z" />
<glyph unicode="U" horiz-adv-x="1501" d="M190 647v862h238v-878q0 -242 86 -346.5t238 -104.5q330 0 329 451v878h230v-862q0 -674 -559 -674q-267 0 -414.5 161t-147.5 513z" />
<glyph unicode="V" horiz-adv-x="1216" d="M-4 1509h252l223 -782q39 -131 70 -254l67 -240h10q47 160 82 293q10 39 23.5 89.5t32.5 111.5l223 782h242l-471 -1509h-281z" />
<glyph unicode="W" horiz-adv-x="1830" d="M47 1509h244l141 -786l80 -483h8q39 190 103 483l194 786h211l195 -786q18 -82 33.5 -159t31.5 -148l37 -176h10q33 205 47 307q23 127 29 176l143 786h228l-297 -1509h-293l-203 838q-39 172 -69 346h-9q-10 -59 -47 -226l-24 -120l-199 -838h-287z" />
<glyph unicode="X" horiz-adv-x="1220" d="M33 0l432 778l-406 731h265l182 -354q16 -31 35.5 -71t46.5 -89l33 -67h10q72 166 102 227l178 354h250l-405 -743l434 -766h-264l-199 375l-125 246h-8q-16 -39 -78 -166q-14 -27 -39 -80l-192 -375h-252z" />
<glyph unicode="Y" horiz-adv-x="1132" d="M-6 1509h254l174 -401l20 -49q47 -115 121 -283h8l56 125q14 35 36.5 86t51.5 121l176 401h248l-455 -938v-571h-238v571z" />
<glyph unicode="Z" horiz-adv-x="1243" d="M96 0v143l756 1166h-686v200h979v-143l-754 -1165h762v-201h-1057z" />
<glyph unicode="[" horiz-adv-x="727" d="M213 -350v1980h432v-129h-256v-1720h256v-131h-432z" />
<glyph unicode="\" horiz-adv-x="798" d="M41 1636h164l569 -2005h-164z" />
<glyph unicode="]" horiz-adv-x="727" d="M82 -219h256v1720h-256v129h434v-1980h-434v131z" />
<glyph unicode="^" d="M131 647l352 897h201l352 -897h-200l-138 371l-110 309h-10l-109 -309l-137 -371h-201z" />
<glyph unicode="_" horiz-adv-x="1150" d="M27 -154h1097v-145h-1097v145z" />
<glyph unicode="`" horiz-adv-x="0" d="M213 1335l156 156l659 -623l-121 -120z" />
<glyph unicode="a" horiz-adv-x="1177" d="M113 299q0 180 160.5 279.5t512.5 138.5q-4 246 -215 246q-145 0 -325 -115l-88 160q233 147 454 147q207 0 308.5 -124t101.5 -353v-678h-193l-18 129h-8q-180 -156 -359 -156q-147 0 -239 89.5t-92 236.5zM340 315q0 -80 48 -117.5t128 -37.5q70 0 133.5 31.5 t136.5 99.5v276q-242 -29 -344 -90t-102 -162z" />
<glyph unicode="b" horiz-adv-x="1288" d="M178 0v1632h236v-432l-8 -192q78 68 164.5 107.5t170.5 39.5q211 0 329 -155.5t118 -417.5q0 -186 -66.5 -324.5t-178.5 -211.5t-241 -73q-75 0 -156 38t-155 106h-6l-23 -117h-184zM414 270q61 -53 123.5 -77.5t119.5 -24.5q127 0 207 108.5t80 301.5q0 380 -263 380h-1 q-129 0 -266 -137v-551z" />
<glyph unicode="c" horiz-adv-x="1058" d="M98 563q0 180 76 315.5t203 206t278 70.5q182 0 330 -129l-117 -154q-98 88 -200 89q-94 0 -168 -50.5t-116 -140.5t-42 -207q0 -119 40 -209t112.5 -139t164.5 -49q125 0 246 102l99 -155q-78 -68 -173.5 -104t-193.5 -36q-154 0 -276.5 70t-192.5 204t-70 316z" />
<glyph unicode="d" horiz-adv-x="1290" d="M102 563q0 176 67 311.5t178.5 208t238.5 72.5q90 0 158.5 -30.5t144.5 -96.5l-10 186v418h235v-1632h-192l-19 127h-8q-68 -70 -153 -112t-175 -42q-215 0 -340 156t-125 434zM346 565q0 -190 71.5 -293.5t205.5 -103.5q69 0 131.5 32.5t124.5 104.5v551 q-113 102 -248 102q-80 0 -144.5 -48t-102.5 -137t-38 -208z" />
<glyph unicode="e" horiz-adv-x="1157" d="M98 563q0 176 73 310.5t190.5 208t250.5 73.5q219 0 340 -144.5t121 -387.5q0 -63 -12 -121h-731q14 -160 107 -252t241 -92q139 0 268 84l82 -150q-178 -119 -381 -119q-153 0 -278 71t-198 204t-73 315zM328 666h540q0 145 -64.5 225t-187.5 80q-111 0 -191.5 -81 t-96.5 -224z" />
<glyph unicode="f" horiz-adv-x="706" d="M63 938v176l154 12v142q0 182 87 286.5t269 104.5q106 0 199 -37l-47 -178q-63 29 -123 29q-150 0 -149 -203v-144h227v-188h-227v-938h-236v938h-154z" />
<glyph unicode="g" horiz-adv-x="1183" d="M96 -209q0 70 43 134.5t121 111.5v10q-102 61 -102 186q0 61 36.5 115.5t90.5 93.5v9q-63 49 -106.5 127.5t-43.5 173.5q0 123 59.5 214t159 140t217.5 49q88 0 164 -29h400v-176h-215q33 -35 53 -89t20 -118q0 -119 -55 -206.5t-151.5 -134t-215.5 -46.5q-82 0 -157 35 q-31 -29 -46.5 -54.5t-15.5 -64.5q0 -53 43 -81.5t146 -28.5h207q203 0 304 -66.5t101 -208.5q0 -109 -72.5 -198.5t-207 -142t-310.5 -52.5q-211 0 -339 77t-128 220zM297 -174q0 -82 81 -129t220 -47q94 0 170 27.5t117 73.5t41 99q0 68 -51.5 95.5t-159.5 27.5h-170 q-76 0 -152 17q-96 -70 -96 -164zM358 752q0 -111 61.5 -177.5t151.5 -66.5q91 0 152 66.5t61 177.5q0 109 -60 173t-153 64q-92 0 -152.5 -63.5t-60.5 -173.5z" />
<glyph unicode="h" horiz-adv-x="1271" d="M178 0v1632h236v-432l-11 -223q88 84 174.5 131t190.5 47q346 0 346 -446v-709h-235v680q0 145 -45.5 208.5t-145.5 63.5q-74 0 -134 -35.5t-140 -117.5v-799h-236z" />
<glyph unicode="i" horiz-adv-x="587" d="M150 1479q0 63 39.5 101t105.5 38t106.5 -38t40.5 -101t-41 -102.5t-106 -39.5q-66 0 -105.5 39t-39.5 103zM178 0v1126h236v-1126h-236z" />
<glyph unicode="j" horiz-adv-x="591" d="M-98 -455l43 176q70 -18 102 -18q74 0 103.5 51t29.5 158v1214h236v-1210q0 -401 -340 -401h-6q-92 0 -168 30zM150 1479q0 63 39.5 101t105.5 38t106.5 -38t40.5 -101t-41 -102.5t-106 -39.5q-66 0 -105.5 39t-39.5 103z" />
<glyph unicode="k" horiz-adv-x="1177" d="M178 0v1632h232v-1050h8l436 544h262l-381 -458l424 -668h-256l-305 510l-188 -217v-293h-232z" />
<glyph unicode="l" horiz-adv-x="610" d="M178 264v1368h236v-1380q0 -45 15 -65.5t40 -20.5q18 0 39 4l31 -178q-51 -18 -127 -19q-123 0 -178.5 74t-55.5 217z" />
<glyph unicode="m" horiz-adv-x="1929" d="M178 0v1126h193l18 -157h6q82 86 167 136t181 50q233 0 312 -207q92 100 180 153.5t186 53.5q174 0 260 -113.5t86 -332.5v-709h-235v680q0 143 -46 207.5t-143 64.5q-113 0 -253 -153v-799h-236v680q0 145 -45 208.5t-143 63.5q-113 0 -252 -153v-799h-236z" />
<glyph unicode="n" horiz-adv-x="1277" d="M178 0v1126h193l18 -155h6q90 88 178.5 136t194.5 48q346 0 346 -446v-709h-235v680q0 145 -45.5 208.5t-145.5 63.5q-74 0 -134 -35.5t-140 -117.5v-799h-236z" />
<glyph unicode="o" horiz-adv-x="1257" d="M98 563q0 180 73 315.5t194.5 206t263.5 70.5q141 0 263 -70.5t194.5 -206t72.5 -315.5t-72.5 -314t-194.5 -205t-263 -71q-142 0 -263.5 71t-194.5 205t-73 314zM342 563q0 -180 78 -288.5t209 -108.5q133 0 211 108.5t78 288.5t-78 289t-211 109q-131 0 -209 -109 t-78 -289z" />
<glyph unicode="p" horiz-adv-x="1290" d="M178 -457v1583h193l18 -122h6q181 151 346 151h2q211 0 328 -154.5t117 -418.5q0 -186 -66.5 -324.5t-178.5 -211.5t-241 -73q-147 0 -296 127l8 -192v-365h-236zM414 270q119 -102 243 -102q127 0 207 108.5t80 301.5q0 380 -263 380h-1q-66 0 -130.5 -33.5 t-135.5 -103.5v-551z" />
<glyph unicode="q" horiz-adv-x="1290" d="M102 563q0 176 67 311.5t178.5 208t238.5 72.5q92 0 165.5 -34t149.5 -103h6l21 108h186v-1583h-235v383l10 195q-68 -68 -152 -108t-170 -40q-215 0 -340 156t-125 434zM346 565q0 -190 71.5 -293.5t205.5 -103.5q69 0 131.5 32.5t124.5 104.5v551q-113 102 -248 102 q-80 0 -144.5 -48t-102.5 -137t-38 -208z" />
<glyph unicode="r" horiz-adv-x="837" d="M178 0v1126h193l18 -202h6q59 109 144.5 170t175.5 61q74 0 127 -25l-43 -204q-59 18 -113 18q-78 0 -150.5 -58.5t-121.5 -183.5v-702h-236z" />
<glyph unicode="s" horiz-adv-x="983" d="M59 129l111 152q82 -63 157.5 -96t161.5 -33q98 0 148.5 42t50.5 109q0 47 -33.5 82t-81 56.5t-133.5 56.5q-145 55 -231 127.5t-86 199.5q0 94 49 169t139 118t213 43q197 0 365 -133l-111 -145q-63 47 -123.5 72.5t-126.5 25.5q-90 0 -136 -39t-46 -100q0 -45 31 -76 t74 -51.5t129 -51.5q104 -39 170.5 -75.5t113.5 -102t47 -164.5q0 -96 -50 -174t-146.5 -123t-231.5 -45q-112 0 -225 43t-199 113z" />
<glyph unicode="t" horiz-adv-x="811" d="M51 938v176l176 12l27 312h197v-312h292v-188h-292v-571q0 -104 38.5 -154.5t124.5 -50.5q59 0 121 26l43 -174q-127 -41 -221 -41q-182 0 -262 103.5t-80 292.5v569h-164z" />
<glyph unicode="u" horiz-adv-x="1269" d="M164 418v708h235v-680q0 -143 44 -206.5t145 -63.5q78 0 138 39t132 129v782h236v-1126h-193l-18 170h-6q-82 -96 -170.5 -146.5t-196.5 -50.5q-178 0 -262 113t-84 332z" />
<glyph unicode="v" horiz-adv-x="1116" d="M27 1126h241l193 -606l98 -336h8l23 74l76 262l192 606h229l-389 -1126h-272z" />
<glyph unicode="w" horiz-adv-x="1695" d="M55 1126h238l149 -608l45 -237l17 -84h8l18 84q51 219 56 237l159 608h218l161 -608l76 -321h8l25 125q6 31 41 196l145 608h221l-290 -1126h-283l-143 557q-14 59 -32 140l-28 126l-12 60h-10q-41 -217 -72 -328l-137 -555h-273z" />
<glyph unicode="x" horiz-adv-x="1077" d="M31 0l364 588l-338 538h254l135 -225q33 -63 107 -190h8l94 190l119 225h246l-338 -565l362 -561h-256l-147 240q-78 139 -117 198h-10q-35 -63 -104 -198l-131 -240h-248z" />
<glyph unicode="y" horiz-adv-x="1114" d="M27 1126h241l209 -579q25 -68 41 -131l62 -187h10l88 318l180 579h229l-413 -1194q-72 -199 -174.5 -301t-270.5 -102h-7q-76 0 -134 22l45 185q55 -16 82 -17q164 0 236 211l22 78z" />
<glyph unicode="z" horiz-adv-x="1003" d="M76 0v127l557 811h-496v188h791v-125l-555 -813h573v-188h-870z" />
<glyph unicode="{" horiz-adv-x="727" d="M78 569v144q106 2 151 51t45 123q0 98 -10 207q-10 170 -10 223q0 176 64.5 244.5t211.5 68.5h115v-129h-53q-86 0 -117 -43t-31 -153q0 -92 7 -189q0 -31 3 -96.5t3 -118.5q0 -119 -35 -177t-115 -79v-10q80 -20 115 -79.5t35 -176.5q0 -53 -3 -118.5t-3 -96.5 q-6 -94 -7 -189q0 -111 31 -152.5t117 -41.5h53v-131h-115q-147 0 -211.5 68.5t-64.5 244.5q0 55 10 223q10 109 10 205q0 76 -45 126t-151 52z" />
<glyph unicode="|" horiz-adv-x="575" d="M209 -575v2304h158v-2304h-158z" />
<glyph unicode="}" horiz-adv-x="727" d="M82 -219h53q86 0 117 42t31 152q0 61 -4 189q-6 102 -7 215q0 117 34 176t114 80v10q-80 20 -114 78.5t-34 177.5q0 115 7 215q4 127 4 189q0 111 -31 153.5t-117 42.5h-53v129h115q147 0 212.5 -68.5t65.5 -244.5q0 -53 -10 -223q-10 -109 -10 -207q0 -74 45 -123 t151 -51v-144q-106 -2 -151 -52t-45 -126q0 -96 10 -205q10 -168 10 -223q0 -176 -65.5 -244.5t-212.5 -68.5h-115v131z" />
<glyph unicode="~" d="M78 723q66 113 144.5 165t160.5 52q68 0 121 -27.5t119 -78.5q53 -41 90 -61.5t75 -20.5q98 0 173 139l129 -96q-68 -109 -147 -162t-159 -53q-67 0 -120.5 27.5t-118.5 78.5q-53 41 -90 61.5t-76 20.5q-100 0 -174 -137z" />
<glyph unicode="&#xa1;" horiz-adv-x="702" d="M195 989q0 72 45 119t110 47q68 0 114 -47t46 -119t-46 -119t-114 -47q-65 0 -110 47.5t-45 118.5zM233 -416l7 244l32 819h158l33 -819l8 -244h-238z" />
<glyph unicode="&#xa2;" d="M139 711q0 156 61.5 274.5t168 190t243.5 92.5v237h142v-231q170 -10 297 -131l-113 -146q-82 78 -184 86v-741q111 10 217 98l100 -147q-68 -61 -149.5 -97t-167.5 -46v-232h-142v236q-217 25 -345 171t-128 386zM371 711q0 -138 63.5 -231t177.5 -126v713 q-115 -33 -178 -126t-63 -230z" />
<glyph unicode="&#xa3;" d="M121 0v145q113 59 178.5 164t65.5 232q0 55 -13 106h-231v144l155 10h33q-27 86 -40 143t-13 113q0 133 56.5 232.5t157.5 152.5t235 53q221 0 368 -178l-133 -129q-47 55 -98 83.5t-119 28.5q-113 0 -176.5 -67.5t-63.5 -185.5q0 -55 10.5 -105.5t34.5 -140.5h361v-154 h-326q10 -57 10 -110q0 -104 -30.5 -180t-98.5 -148v-8h631v-201h-954z" />
<glyph unicode="&#xa4;" d="M57 346l146 148q-82 111 -82 264q0 156 80 264l-144 149l121 123l158 -159q111 78 248 77q135 0 247 -77l158 159l121 -123l-145 -149q82 -106 82 -264q0 -150 -82 -264l145 -148l-121 -123l-160 160q-111 -76 -245 -76q-137 0 -248 76l-158 -160zM334 758 q0 -125 72.5 -203t177.5 -78q104 0 177 78t73 203t-73 204.5t-177 79.5t-177 -79.5t-73 -204.5z" />
<glyph unicode="&#xa5;" d="M45 1466h246l160 -366l45 -109q16 -39 37.5 -88t48.5 -110h8q37 80 61 143q14 35 31.5 76t40.5 88l162 366h237l-366 -716h313v-125h-369v-144h369v-125h-369v-356h-235v356h-367v125h367v144h-367v125h312z" />
<glyph unicode="&#xa6;" horiz-adv-x="575" d="M209 485h158v-1060h-158v1060zM209 684v1045h158v-1045h-158z" />
<glyph unicode="&#xa7;" horiz-adv-x="2048" d="M526 784q0 72 43 147t125 128q-37 29 -61.5 84t-24.5 110q0 100 57.5 178t162 121t241.5 43q203 0 363 -84l-54 -155q-57 35 -140 59.5t-183 24.5q-106 0 -173 -48.5t-67 -109.5q0 -74 71.5 -118t223.5 -85q203 -55 306.5 -139t103.5 -227q0 -86 -39 -162t-105 -127 q37 -27 63.5 -83t26.5 -124q0 -113 -66.5 -194.5t-175 -124.5t-233.5 -43q-121 0 -224 25.5t-175 76.5l61 154q53 -39 142.5 -69t195.5 -30q121 0 191.5 50.5t70.5 132.5q0 72 -64.5 119.5t-234.5 99.5q-217 66 -322.5 147.5t-105.5 222.5zM717 821q0 -61 53 -109t201 -100 q219 -72 282 -106q35 29 55.5 73t20.5 91q0 66 -47 110.5t-113.5 72.5t-175.5 62q-131 39 -182 68q-94 -70 -94 -162z" />
<glyph unicode="&#xa8;" horiz-adv-x="2048" d="M268 1468q0 55 37 93t94 38q55 0 92 -37.5t37 -93.5q0 -53 -36.5 -91t-92.5 -38q-55 0 -93 38t-38 91zM729 1468q0 55 37 93t94 38q55 0 92 -37.5t37 -93.5q0 -55 -37 -92t-92 -37t-93 38t-38 91z" />
<glyph unicode="&#xa9;" horiz-adv-x="1718" d="M111 745q0 227 101 400.5t272 266.5t374 93t375 -93t273.5 -266t101.5 -401q0 -229 -101.5 -403t-273.5 -269.5t-375 -95.5t-374 95.5t-272 269.5t-101 403zM233 745q0 -193 84 -343t226.5 -233t314.5 -83t315.5 83t227.5 233.5t84 342.5q0 193 -84 341.5t-227.5 230.5 t-315.5 82t-314.5 -82t-226.5 -230.5t-84 -341.5zM455 743q0 131 59 230.5t157.5 154t213.5 54.5q92 0 160.5 -34t132.5 -97l-95 -107q-47 47 -90 68.5t-96 21.5q-119 0 -190.5 -81t-71.5 -210q0 -139 68.5 -222t183.5 -83q63 0 113.5 23.5t107.5 70.5l80 -116 q-72 -61 -144.5 -94t-162.5 -33q-121 0 -218.5 55t-152.5 158.5t-55 240.5z" />
<glyph unicode="&#xaa;" horiz-adv-x="804" d="M80 1098q0 121 107.5 187.5t340.5 86.5q-4 150 -131 150q-100 0 -227 -76l-61 115q158 98 315 98q139 0 207.5 -81t68.5 -237v-446h-135l-20 84h-8q-111 -102 -228 -102q-104 0 -166.5 61t-62.5 160zM248 1112q0 -49 29.5 -74.5t84.5 -25.5q82 0 166 82v174 q-152 -16 -216 -55t-64 -101z" />
<glyph unicode="&#xab;" horiz-adv-x="1026" d="M106 496v172l314 348l94 -80l-266 -356l266 -359l-94 -76zM494 496v172l311 348l96 -80l-266 -356l266 -359l-96 -76z" />
<glyph unicode="&#xac;" d="M78 676v170h1012v-613h-183v443h-829z" />
<glyph unicode="&#xad;" horiz-adv-x="731" d="M96 492v174h541v-174h-541z" />
<glyph unicode="&#xae;" horiz-adv-x="1003" d="M59 1186q0 133 59.5 237.5t161 163t222.5 58.5t221 -58.5t159.5 -164t59.5 -236.5t-59.5 -235.5t-159.5 -162t-221 -57.5t-222.5 57.5t-161 162t-59.5 235.5zM162 1186q0 -106 44 -189.5t122 -129.5t174 -46t173 46t121 129t44 190q0 106 -44 190t-121 130t-173 46 t-174 -46t-122 -130t-44 -190zM328 961v462h184q80 0 131 -36.5t51 -112.5q0 -41 -23.5 -77t-62.5 -50l105 -186h-115l-80 155h-84v-155h-106zM434 1194h55q43 0 67 18.5t24 53.5q0 74 -86 73h-60v-145z" />
<glyph unicode="&#xaf;" horiz-adv-x="0" d="M-315 1376v160h630v-160h-630z" />
<glyph unicode="&#xb0;" horiz-adv-x="2048" d="M92 1272q0 88 41 157.5t110.5 108.5t151.5 39t150.5 -39t109.5 -108.5t41 -157.5t-41 -158t-109.5 -108.5t-150.5 -38.5t-151.5 38.5t-110.5 108.5t-41 158zM227 1272q0 -80 46 -131t122 -51q74 0 120 51t46 131q0 82 -46 133t-120 51q-76 0 -122 -51t-46 -133z" />
<glyph unicode="&#xb1;" horiz-adv-x="2048" d="M287 29v170h1485v-170h-1485zM287 942v170h651v543h172v-543h651v-170h-651v-545h-172v545h-651z" />
<glyph unicode="&#xb2;" horiz-adv-x="851" d="M82 1645q59 84 140 131t175 47q141 0 224.5 -78t83.5 -219q0 -76 -38 -151t-98.5 -146.5t-167.5 -181.5h347v-152h-633v100q225 199 320 306.5t95 197.5q0 80 -42 127t-117 47q-94 0 -185 -125z" />
<glyph unicode="&#xb3;" horiz-adv-x="851" d="M76 1044l114 89q84 -125 216 -125q70 0 116.5 38.5t46.5 104.5q0 74 -65.5 110.5t-192.5 36.5v109q104 0 165 40t61 107q0 57 -40 92t-108 35q-45 0 -90 -27.5t-82 -74.5l-104 92q66 74 138.5 113t166.5 39q123 0 209 -67.5t86 -178.5q0 -143 -150 -215q80 -25 132.5 -82 t52.5 -139q0 -121 -95.5 -197t-232.5 -76q-111 0 -200 47.5t-144 128.5z" />
<glyph unicode="&#xb4;" horiz-adv-x="2048" d="M494 1436l335 395l164 -156l-379 -356z" />
<glyph unicode="&#xb5;" horiz-adv-x="1316" d="M178 -410v1536h236v-680q0 -139 44 -204.5t140 -65.5q78 0 139.5 41t124.5 154v755h238l-6 -346q-8 -377 -9 -522q0 -92 89 -92q33 0 69 14l29 -178q-68 -29 -156 -29q-102 0 -157.5 50.5t-71.5 158.5h-6q-55 -100 -129 -151t-162 -51q-66 0 -113 19t-82 71 q2 -156 6.5 -255.5t14.5 -224.5h-238z" />
<glyph unicode="&#xb6;" horiz-adv-x="2048" d="M489 1061q0 215 151 363.5t505 148.5q199 0 287 -19v-1669h-158v1532h-170v-1532h-158v723h-18q-92 0 -194.5 51.5t-173.5 153.5t-71 248z" />
<glyph unicode="&#xb7;" horiz-adv-x="1175" d="M424 752q0 72 45 119t113 47t112.5 -47.5t44.5 -118.5q0 -70 -46 -118t-111 -48q-66 0 -112 48t-46 118z" />
<glyph unicode="&#xb8;" horiz-adv-x="1257" d="M410 -424q139 8 192 33.5t53 77.5q0 43 -40 67.5t-136 38.5l103 213h147l-67 -151q86 -20 127.5 -58.5t41.5 -105.5q0 -203 -401 -221z" />
<glyph unicode="&#xb9;" horiz-adv-x="851" d="M195 1585v115q78 14 128 34.5t103 59.5h145v-899h-180v690h-196z" />
<glyph unicode="&#xba;" horiz-adv-x="845" d="M63 1268q0 121 48.5 209t130.5 135t180 47q96 0 178 -47t130 -135t48 -209q0 -119 -48 -208t-130 -136t-178 -47q-98 0 -180 47t-130.5 136t-48.5 208zM242 1268q0 -115 47 -183.5t133 -68.5t133 68.5t47 183.5q0 117 -47 185.5t-133 68.5t-133 -69t-47 -185z" />
<glyph unicode="&#xbb;" horiz-adv-x="1026" d="M123 221l268 359l-268 356l96 80l313 -348v-172l-313 -351zM510 221l266 359l-266 356l96 80l314 -348v-172l-314 -351z" />
<glyph unicode="&#xbc;" horiz-adv-x="1818" d="M133 1300v113q78 12 129 34.5t105 61.5h143v-899h-178v690h-199zM420 -27l825 1563h150l-826 -1563h-149zM1059 227v90l360 582h209v-549h135v-123h-135v-227h-160v227h-409zM1235 350h233v144l13 256h-11z" />
<glyph unicode="&#xbd;" horiz-adv-x="1888" d="M133 1300v113q78 12 129 34.5t105 61.5h143v-899h-178v690h-199zM375 -27l827 1563h150l-828 -1563h-149zM1118 748q57 84 139 131t175 47q141 0 225 -78t84 -217q0 -78 -38 -153t-97.5 -144.5t-167.5 -181.5h346v-152h-633v100q229 203 322.5 308.5t93.5 195.5 q0 80 -43 127t-117 47q-94 0 -184 -125z" />
<glyph unicode="&#xbe;" horiz-adv-x="1849" d="M72 760l112 88q88 -127 217 -127q70 0 117 39t47 106q0 72 -66.5 110t-193.5 38v108q106 0 166.5 40t60.5 108q0 57 -40.5 92t-106.5 35q-90 0 -172 -103l-104 92q63 74 136.5 112t166.5 38q125 0 211 -66.5t86 -177.5q0 -141 -150 -217q80 -25 131 -82t51 -139 q0 -121 -95 -196.5t-230 -75.5q-111 0 -200 48t-144 130zM496 -27l827 1563h147l-827 -1563h-147zM1087 227v90l363 582h209v-549h133v-123h-133v-227h-162v227h-410zM1266 350h231v144l12 256h-10l-106 -185z" />
<glyph unicode="&#xbf;" horiz-adv-x="1005" d="M106 -68q0 94 41 165t125 175q82 98 123 170t41 164q0 27 -2 41h209q4 -41 4 -61q0 -109 -45 -191t-133 -186q-70 -86 -102.5 -141.5t-32.5 -118.5q0 -88 53 -144.5t148 -56.5q133 0 247 125l133 -121q-80 -92 -183 -144t-224 -52q-182 0 -292 99t-110 277zM379 989 q0 72 45 119t111 47q68 0 113.5 -47t45.5 -119t-46 -119t-113 -47q-66 0 -111 47.5t-45 118.5z" />
<glyph unicode="&#xc0;" horiz-adv-x="1273" d="M0 0l500 1509h274l500 -1509h-252l-127 430h-524l-129 -430h-242zM297 1860l129 157l348 -305l-106 -119zM426 616h412l-60 203q-55 176 -141 502h-10q-55 -225 -140 -502z" />
<glyph unicode="&#xc1;" horiz-adv-x="1273" d="M0 0l500 1509h274l500 -1509h-252l-127 430h-524l-129 -430h-242zM426 616h412l-60 203q-55 176 -141 502h-10q-55 -225 -140 -502zM496 1712l346 305l131 -157l-373 -267z" />
<glyph unicode="&#xc2;" horiz-adv-x="1273" d="M0 0l500 1509h274l500 -1509h-252l-127 430h-524l-129 -430h-242zM279 1671l229 256h252l229 -256l-102 -72l-248 209h-10l-248 -209zM426 616h412l-60 203q-55 176 -141 502h-10q-55 -225 -140 -502z" />
<glyph unicode="&#xc3;" horiz-adv-x="1273" d="M0 0l500 1509h274l500 -1509h-252l-127 430h-524l-129 -430h-242zM213 1647q6 141 73.5 219t176.5 78q66 0 112 -24t103 -69q43 -33 66.5 -46t52.5 -13q86 0 104 139l156 -12q-6 -141 -74 -219t-178 -78q-64 0 -112 24.5t-101 67.5q-43 33 -67.5 47.5t-53.5 14.5 q-41 0 -68.5 -36t-35.5 -106zM426 616h412l-60 203q-55 176 -141 502h-10q-55 -225 -140 -502z" />
<glyph unicode="&#xc4;" horiz-adv-x="1273" d="M0 0l500 1509h274l500 -1509h-252l-127 430h-524l-129 -430h-242zM264 1765q0 55 37 91t90 36q55 0 92 -35.5t37 -91.5q0 -55 -37 -91t-92 -36t-91 36t-36 91zM426 616h412l-60 203q-55 176 -141 502h-10q-55 -225 -140 -502zM748 1765q0 55 36.5 91t92.5 36 q55 0 91 -35.5t36 -91.5q0 -57 -36 -92t-91 -35q-56 0 -92.5 36t-36.5 91z" />
<glyph unicode="&#xc5;" horiz-adv-x="1273" d="M0 0l500 1509h274l500 -1509h-252l-127 430h-524l-129 -430h-242zM399 1823q0 98 65.5 156.5t170.5 58.5q102 0 168.5 -59.5t66.5 -155.5t-66.5 -155.5t-168.5 -59.5q-105 0 -170.5 58t-65.5 157zM426 616h412l-60 203q-55 176 -141 502h-10q-55 -225 -140 -502z M522 1823q0 -55 32 -86t81 -31q47 0 77.5 30.5t30.5 86.5q0 53 -31.5 84.5t-76.5 31.5q-49 0 -81 -31.5t-32 -84.5z" />
<glyph unicode="&#xc6;" horiz-adv-x="1910" d="M4 0l768 1509h1002v-200h-621v-420h518v-201h-518v-487h643v-201h-883v412h-454l-205 -412h-250zM551 598h362v727h-8q-152 -319 -227 -473z" />
<glyph unicode="&#xc7;" horiz-adv-x="1323" d="M117 750q0 240 89 418t243.5 273t347.5 95q131 0 241.5 -53t186.5 -137l-129 -152q-131 135 -295 135q-129 0 -229.5 -69.5t-156 -198.5t-55.5 -303q0 -178 53.5 -308.5t151 -200t230.5 -69.5q100 0 181 41t152 119l127 -150q-158 -182 -385 -213l-55 -122 q86 -20 129 -58.5t43 -105.5q0 -203 -401 -221l-21 106q139 8 192.5 33.5t53.5 77.5q0 43 -40 67.5t-138 38.5l90 182q-176 16 -313.5 112.5t-215 265.5t-77.5 397z" />
<glyph unicode="&#xc8;" horiz-adv-x="1228" d="M199 0v1509h891v-200h-654v-420h553v-201h-553v-487h676v-201h-913zM330 1860l131 157l346 -305l-105 -119z" />
<glyph unicode="&#xc9;" horiz-adv-x="1228" d="M199 0v1509h891v-200h-654v-420h553v-201h-553v-487h676v-201h-913zM528 1712l346 305l132 -157l-373 -267z" />
<glyph unicode="&#xca;" horiz-adv-x="1228" d="M199 0v1509h891v-200h-654v-420h553v-201h-553v-487h676v-201h-913zM313 1671l230 256h252l229 -256l-102 -72l-250 209h-8l-250 -209z" />
<glyph unicode="&#xcb;" horiz-adv-x="1228" d="M199 0v1509h891v-200h-654v-420h553v-201h-553v-487h676v-201h-913zM299 1765q0 55 36 91t91 36t91 -35.5t36 -91.5q0 -57 -36 -92t-91 -35t-91 35t-36 92zM782 1765q0 55 36 91t93 36q55 0 91 -35.5t36 -91.5q0 -57 -35.5 -92t-91.5 -35q-57 0 -93 35t-36 92z" />
<glyph unicode="&#xcc;" horiz-adv-x="632" d="M-18 1860l129 157l348 -305l-107 -119zM199 0v1509h237v-1509h-237z" />
<glyph unicode="&#xcd;" horiz-adv-x="632" d="M180 1712l346 305l131 -157l-372 -267zM199 0v1509h237v-1509h-237z" />
<glyph unicode="&#xce;" horiz-adv-x="632" d="M-37 1671l230 256h251l232 -256l-105 -72l-247 209h-11l-247 -209zM199 0v1509h237v-1509h-237z" />
<glyph unicode="&#xcf;" horiz-adv-x="632" d="M-51 1765q0 55 35.5 91t91.5 36q57 0 93 -35.5t36 -91.5q0 -57 -36 -92t-93 -35q-56 0 -91.5 35t-35.5 92zM199 0v1509h237v-1509h-237zM432 1765q0 55 36 91t93 36q55 0 91 -35.5t36 -91.5q0 -57 -36 -92t-91 -35q-57 0 -93 35t-36 92z" />
<glyph unicode="&#xd0;" horiz-adv-x="1484" d="M72 725v115l180 10v659h391q350 0 538.5 -191.5t188.5 -557.5q0 -365 -187.5 -562.5t-527.5 -197.5h-403v725h-180zM489 195h138q244 0 370.5 142t126.5 423q0 555 -497 555h-138v-465h326v-125h-326v-530z" />
<glyph unicode="&#xd1;" horiz-adv-x="1503" d="M199 0v1509h243l500 -886l158 -320h10q-4 61 -8 90q-8 102 -15.5 214t-7.5 198v704h226v-1509h-244l-500 889l-158 315h-10l8 -98q2 -20 12.5 -150.5t10.5 -244.5v-711h-225zM350 1647q6 141 74 219t178 78q63 0 107.5 -23t105.5 -68q39 -31 65.5 -46t55.5 -15 q41 0 67.5 35t34.5 104l156 -12q-6 -141 -73.5 -219t-178.5 -78q-63 0 -111.5 24.5t-101.5 67.5q-43 33 -67.5 47.5t-53.5 14.5q-41 0 -68.5 -36t-33.5 -106z" />
<glyph unicode="&#xd2;" horiz-adv-x="1544" d="M117 760q0 238 83 414t231.5 269t340.5 93q195 0 343.5 -93t231.5 -269.5t83 -413.5q0 -240 -83 -417t-232.5 -273.5t-342.5 -96.5q-192 0 -340.5 96.5t-231.5 273.5t-83 417zM360 760q0 -174 51.5 -305t144.5 -203t216 -72t217 72t145.5 203t51.5 305t-51.5 303 t-144.5 197.5t-218 68.5t-218 -68.5t-143.5 -197.5t-50.5 -303zM434 1860l129 157l348 -305l-104 -119z" />
<glyph unicode="&#xd3;" horiz-adv-x="1544" d="M117 760q0 238 83 414t231.5 269t340.5 93q195 0 343.5 -93t231.5 -269.5t83 -413.5q0 -240 -83 -417t-232.5 -273.5t-342.5 -96.5q-192 0 -340.5 96.5t-231.5 273.5t-83 417zM360 760q0 -174 51.5 -305t144.5 -203t216 -72t217 72t145.5 203t51.5 305t-51.5 303 t-144.5 197.5t-218 68.5t-218 -68.5t-143.5 -197.5t-50.5 -303zM633 1712l348 305l129 -157l-373 -267z" />
<glyph unicode="&#xd4;" horiz-adv-x="1544" d="M117 760q0 238 83 414t231.5 269t340.5 93q195 0 343.5 -93t231.5 -269.5t83 -413.5q0 -240 -83 -417t-232.5 -273.5t-342.5 -96.5q-192 0 -340.5 96.5t-231.5 273.5t-83 417zM360 760q0 -174 51.5 -305t144.5 -203t216 -72t217 72t145.5 203t51.5 305t-51.5 303 t-144.5 197.5t-218 68.5t-218 -68.5t-143.5 -197.5t-50.5 -303zM416 1671l231 256h252l229 -256l-102 -72l-250 209h-8l-250 -209z" />
<glyph unicode="&#xd5;" horiz-adv-x="1544" d="M117 760q0 238 83 414t231.5 269t340.5 93q195 0 343.5 -93t231.5 -269.5t83 -413.5q0 -240 -83 -417t-232.5 -273.5t-342.5 -96.5q-192 0 -340.5 96.5t-231.5 273.5t-83 417zM350 1647q8 143 75 220t177 77q63 0 107.5 -23t105.5 -68q39 -31 65.5 -46t55.5 -15 q84 0 102 139l156 -12q-6 -141 -73.5 -219t-178.5 -78q-63 0 -111.5 24.5t-101.5 67.5q-43 33 -67.5 47.5t-53.5 14.5q-41 0 -68.5 -36t-33.5 -106zM360 760q0 -174 51.5 -305t144.5 -203t216 -72t217 72t145.5 203t51.5 305t-51.5 303t-144.5 197.5t-218 68.5t-218 -68.5 t-143.5 -197.5t-50.5 -303z" />
<glyph unicode="&#xd6;" horiz-adv-x="1544" d="M117 760q0 238 83 414t231.5 269t340.5 93q195 0 343.5 -93t231.5 -269.5t83 -413.5q0 -240 -83 -417t-232.5 -273.5t-342.5 -96.5q-192 0 -340.5 96.5t-231.5 273.5t-83 417zM360 760q0 -174 51.5 -305t144.5 -203t216 -72t217 72t145.5 203t51.5 305t-51.5 303 t-144.5 197.5t-218 68.5t-218 -68.5t-143.5 -197.5t-50.5 -303zM403 1765q0 55 36 91t91 36t91 -35.5t36 -91.5q0 -57 -35.5 -92t-91.5 -35q-55 0 -91 35t-36 92zM887 1765q0 55 35.5 91t91.5 36q57 0 93 -35.5t36 -91.5q0 -57 -36 -92t-93 -35q-56 0 -91.5 35t-35.5 92z " />
<glyph unicode="&#xd7;" horiz-adv-x="2048" d="M358 227l547 547l-547 545l123 121l545 -547l545 547l121 -121l-547 -545l547 -547l-121 -118l-545 544l-547 -544z" />
<glyph unicode="&#xd8;" horiz-adv-x="1544" d="M109 20l161 207q-150 207 -149 533q0 238 83 414t231.5 269t340.5 93q238 0 406 -139l145 188l129 -98l-164 -211q141 -203 142 -516q0 -240 -83 -417t-232.5 -273.5t-342.5 -96.5q-231 0 -395 136l-145 -185zM365 760q0 -191 61 -332l616 791q-106 111 -266 110 q-125 0 -218 -68.5t-143 -197.5t-50 -303zM518 287q106 -106 258 -107q125 0 218 72t144.5 203t51.5 305q0 178 -55 315z" />
<glyph unicode="&#xd9;" horiz-adv-x="1501" d="M190 647v862h238v-878q0 -242 86 -346.5t238 -104.5q330 0 329 451v878h230v-862q0 -674 -559 -674q-267 0 -414.5 161t-147.5 513zM412 1860l129 157l348 -305l-105 -119z" />
<glyph unicode="&#xda;" horiz-adv-x="1501" d="M190 647v862h238v-878q0 -242 86 -346.5t238 -104.5q330 0 329 451v878h230v-862q0 -674 -559 -674q-267 0 -414.5 161t-147.5 513zM610 1712l346 305l131 -157l-372 -267z" />
<glyph unicode="&#xdb;" horiz-adv-x="1501" d="M190 647v862h238v-878q0 -242 86 -346.5t238 -104.5q330 0 329 451v878h230v-862q0 -674 -559 -674q-267 0 -414.5 161t-147.5 513zM393 1671l230 256h254l227 -256l-103 -72l-247 209h-11l-247 -209z" />
<glyph unicode="&#xdc;" horiz-adv-x="1501" d="M190 647v862h238v-878q0 -242 86 -346.5t238 -104.5q330 0 329 451v878h230v-862q0 -674 -559 -674q-267 0 -414.5 161t-147.5 513zM381 1765q0 55 35 91t90 36q57 0 93 -35.5t36 -91.5q0 -57 -36 -92t-93 -35q-55 0 -90 35t-35 92zM864 1765q0 55 36 91t91 36t91 -35.5 t36 -91.5q0 -57 -35.5 -92t-91.5 -35q-55 0 -91 35t-36 92z" />
<glyph unicode="&#xdd;" horiz-adv-x="1132" d="M-6 1509h254l174 -401l20 -49q47 -115 121 -283h8l56 125q14 35 36.5 86t51.5 121l176 401h248l-455 -938v-571h-238v571zM426 1712l348 305l129 -157l-371 -267z" />
<glyph unicode="&#xde;" horiz-adv-x="1368" d="M199 0v1509h237v-247h252q567 0 567 -455q0 -238 -155.5 -359.5t-411.5 -121.5h-252v-326h-237zM436 516h228q182 0 269 70.5t87 220.5q0 145 -86 204.5t-270 59.5h-228v-555z" />
<glyph unicode="&#xdf;" horiz-adv-x="1366" d="M178 0v1167q0 223 125 355.5t354 132.5q127 0 219.5 -47t139.5 -127t47 -176q0 -82 -29.5 -142.5t-85.5 -132.5q-43 -55 -63.5 -92t-20.5 -82q0 -57 40 -92t130 -84q84 -45 137.5 -84t92.5 -105.5t39 -164.5q0 -100 -46.5 -180t-134.5 -126.5t-207 -46.5q-92 0 -171.5 28 t-159.5 83l88 162q61 -49 118.5 -71.5t118.5 -22.5q80 0 127 47t47 114q0 74 -48 118t-148 99q-80 43 -128 77t-82 89.5t-34 132.5q0 66 23.5 115t72.5 117q47 63 71 110.5t24 108.5q0 82 -47.5 134t-131.5 52q-117 0 -181 -86t-64 -250v-1130h-232z" />
<glyph unicode="&#xe0;" horiz-adv-x="1177" d="M113 299q0 180 160.5 279.5t512.5 138.5q-4 246 -215 246q-145 0 -325 -115l-88 160q233 147 454 147q207 0 308.5 -124t101.5 -353v-678h-193l-18 129h-8q-180 -156 -359 -156q-147 0 -239 89.5t-92 236.5zM260 1675l162 156l334 -395l-119 -117zM340 315 q0 -80 48 -117.5t128 -37.5q70 0 133.5 31.5t136.5 99.5v276q-242 -29 -344 -90t-102 -162z" />
<glyph unicode="&#xe1;" horiz-adv-x="1177" d="M113 299q0 180 160.5 279.5t512.5 138.5q-4 246 -215 246q-145 0 -325 -115l-88 160q233 147 454 147q207 0 308.5 -124t101.5 -353v-678h-193l-18 129h-8q-180 -156 -359 -156q-147 0 -239 89.5t-92 236.5zM340 315q0 -80 48 -117.5t128 -37.5q70 0 133.5 31.5 t136.5 99.5v276q-242 -29 -344 -90t-102 -162zM487 1436l336 395l164 -156l-379 -356z" />
<glyph unicode="&#xe2;" horiz-adv-x="1177" d="M113 299q0 180 160.5 279.5t512.5 138.5q-4 246 -215 246q-145 0 -325 -115l-88 160q233 147 454 147q207 0 308.5 -124t101.5 -353v-678h-193l-18 129h-8q-180 -156 -359 -156q-147 0 -239 89.5t-92 236.5zM246 1393l258 315h237l258 -315l-96 -90l-276 245h-9 l-276 -245zM340 315q0 -80 48 -117.5t128 -37.5q70 0 133.5 31.5t136.5 99.5v276q-242 -29 -344 -90t-102 -162z" />
<glyph unicode="&#xe3;" horiz-adv-x="1177" d="M113 299q0 180 160.5 279.5t512.5 138.5q-4 246 -215 246q-145 0 -325 -115l-88 160q233 147 454 147q207 0 308.5 -124t101.5 -353v-678h-193l-18 129h-8q-180 -156 -359 -156q-147 0 -239 89.5t-92 236.5zM213 1350q4 154 65.5 238.5t182.5 84.5q57 0 100 -26.5 t98 -77.5q39 -37 67 -55.5t56 -18.5q84 0 99 164l151 -8q-4 -152 -65.5 -238t-182.5 -86q-59 0 -104 27.5t-96 77.5q-39 37 -65.5 55t-55.5 18q-86 0 -96 -166zM340 315q0 -80 48 -117.5t128 -37.5q70 0 133.5 31.5t136.5 99.5v276q-242 -29 -344 -90t-102 -162z" />
<glyph unicode="&#xe4;" horiz-adv-x="1177" d="M113 299q0 180 160.5 279.5t512.5 138.5q-4 246 -215 246q-145 0 -325 -115l-88 160q233 147 454 147q207 0 308.5 -124t101.5 -353v-678h-193l-18 129h-8q-180 -156 -359 -156q-147 0 -239 89.5t-92 236.5zM262 1468q0 55 37 93t92 38q57 0 94 -37.5t37 -93.5 q0 -53 -36.5 -91t-94.5 -38q-55 0 -92 38t-37 91zM340 315q0 -80 48 -117.5t128 -37.5q70 0 133.5 31.5t136.5 99.5v276q-242 -29 -344 -90t-102 -162zM723 1468q0 55 37 93t94 38q55 0 92 -37.5t37 -93.5q0 -53 -37 -91t-92 -38t-93 38t-38 91z" />
<glyph unicode="&#xe5;" horiz-adv-x="1177" d="M113 299q0 180 160.5 279.5t512.5 138.5q-4 246 -215 246q-145 0 -325 -115l-88 160q233 147 454 147q207 0 308.5 -124t101.5 -353v-678h-193l-18 129h-8q-180 -156 -359 -156q-147 0 -239 89.5t-92 236.5zM340 315q0 -80 48 -117.5t128 -37.5q70 0 133.5 31.5 t136.5 99.5v276q-242 -29 -344 -90t-102 -162zM354 1513q0 102 73 167t196 65t195.5 -64.5t72.5 -167.5q0 -100 -73 -164.5t-195 -64.5q-123 0 -196 64.5t-73 164.5zM500 1513q0 -59 35.5 -95t87.5 -36q51 0 85.5 36t34.5 95t-34.5 96.5t-85.5 37.5t-87 -37t-36 -97z" />
<glyph unicode="&#xe6;" horiz-adv-x="1808" d="M127 297q0 182 159.5 282.5t506.5 139.5q-8 244 -213 244q-139 0 -320 -115l-88 160q229 147 436 147q115 0 197 -58.5t123 -160.5q70 104 161 161.5t197 57.5q209 0 323.5 -147.5t114.5 -391.5q0 -57 -12 -114h-704q10 -156 100 -248t225 -92q72 0 133.5 22.5 t128.5 65.5l84 -158q-178 -119 -374 -119q-233 0 -396 199q-229 -199 -450 -199q-148 0 -240 89.5t-92 234.5zM354 315q0 -80 48.5 -117.5t127.5 -37.5q72 0 154 39t147 108q-35 80 -38 207l-2 53q-231 -29 -334 -90t-103 -162zM1008 651h512q0 154 -61.5 237t-178.5 83 q-106 0 -182 -86t-90 -234z" />
<glyph unicode="&#xe7;" horiz-adv-x="1058" d="M98 563q0 180 76 315.5t203 206t278 70.5q182 0 330 -129l-117 -154q-98 88 -200 89q-94 0 -168 -50.5t-116 -140.5t-42 -207q0 -119 40 -209t112.5 -139t164.5 -49q125 0 246 102l99 -155q-68 -59 -151 -94t-169 -44l-53 -120q86 -20 128 -58.5t42 -105.5 q0 -203 -400 -221l-22 106q139 8 192.5 33.5t53.5 77.5q0 43 -40 67.5t-136 38.5l92 189q-199 31 -321 184t-122 397z" />
<glyph unicode="&#xe8;" horiz-adv-x="1157" d="M98 563q0 176 73 310.5t190.5 208t250.5 73.5q219 0 340 -144.5t121 -387.5q0 -63 -12 -121h-731q14 -160 107 -252t241 -92q139 0 268 84l82 -150q-178 -119 -381 -119q-153 0 -278 71t-198 204t-73 315zM248 1675l162 156l333 -395l-116 -117zM328 666h540 q0 145 -64.5 225t-187.5 80q-111 0 -191.5 -81t-96.5 -224z" />
<glyph unicode="&#xe9;" horiz-adv-x="1157" d="M98 563q0 176 73 310.5t190.5 208t250.5 73.5q219 0 340 -144.5t121 -387.5q0 -63 -12 -121h-731q14 -160 107 -252t241 -92q139 0 268 84l82 -150q-178 -119 -381 -119q-153 0 -278 71t-198 204t-73 315zM328 666h540q0 145 -64.5 225t-187.5 80q-111 0 -191.5 -81 t-96.5 -224zM477 1436l334 395l164 -156l-379 -356z" />
<glyph unicode="&#xea;" horiz-adv-x="1157" d="M98 563q0 176 73 310.5t190.5 208t250.5 73.5q219 0 340 -144.5t121 -387.5q0 -63 -12 -121h-731q14 -160 107 -252t241 -92q139 0 268 84l82 -150q-178 -119 -381 -119q-153 0 -278 71t-198 204t-73 315zM233 1393l259 315h237l258 -315l-96 -90l-277 245h-8l-276 -245z M328 666h540q0 145 -64.5 225t-187.5 80q-111 0 -191.5 -81t-96.5 -224z" />
<glyph unicode="&#xeb;" horiz-adv-x="1157" d="M98 563q0 176 73 310.5t190.5 208t250.5 73.5q219 0 340 -144.5t121 -387.5q0 -63 -12 -121h-731q14 -160 107 -252t241 -92q139 0 268 84l82 -150q-178 -119 -381 -119q-153 0 -278 71t-198 204t-73 315zM250 1468q0 55 37 93t92 38q57 0 94 -37.5t37 -93.5 q0 -53 -37 -91t-94 -38q-55 0 -92 38t-37 91zM328 666h540q0 145 -64.5 225t-187.5 80q-111 0 -191.5 -81t-96.5 -224zM711 1468q0 55 36.5 93t94.5 38q57 0 94 -37.5t37 -93.5q0 -53 -37 -91t-94 -38q-56 0 -93.5 38t-37.5 91z" />
<glyph unicode="&#xec;" horiz-adv-x="587" d="M-68 1675l162 156l334 -395l-117 -117zM178 0v1126h236v-1126h-236z" />
<glyph unicode="&#xed;" horiz-adv-x="587" d="M162 1436l334 395l163 -156l-378 -356zM178 0v1126h236v-1126h-236z" />
<glyph unicode="&#xee;" horiz-adv-x="587" d="M-80 1393l256 315h240l256 -315l-94 -90l-279 245h-8l-277 -245zM178 0v1126h236v-1126h-236z" />
<glyph unicode="&#xef;" horiz-adv-x="587" d="M-66 1468q0 55 37 93t95 38q55 0 92 -37.5t37 -93.5q0 -53 -37 -91t-92 -38q-56 0 -94 38t-38 91zM178 0v1126h236v-1126h-236zM397 1468q0 55 37 93t92 38q57 0 94 -37.5t37 -93.5q0 -53 -36.5 -91t-94.5 -38q-55 0 -92 37t-37 92z" />
<glyph unicode="&#xf0;" horiz-adv-x="1265" d="M115 516q0 156 62.5 273.5t171 181t239.5 63.5q84 0 159.5 -32.5t126.5 -100.5q-57 229 -229 399l-326 -165l-65 110l285 146q-94 72 -242 151l104 148q188 -98 320 -207l328 168l63 -113l-289 -147q311 -315 312 -791q0 -184 -63.5 -326.5t-179.5 -221.5t-269 -79 q-136 0 -252.5 66.5t-186 189.5t-69.5 287zM334 516q0 -104 40 -184t107.5 -123t147.5 -43q137 0 209.5 111.5t72.5 310.5q0 47 -4 121q-63 82 -131.5 114.5t-146.5 32.5q-137 0 -216 -92t-79 -248z" />
<glyph unicode="&#xf1;" horiz-adv-x="1277" d="M178 0v1126h193l18 -155h6q90 88 178.5 136t194.5 48q346 0 346 -446v-709h-235v680q0 145 -45.5 208.5t-145.5 63.5q-74 0 -134 -35.5t-140 -117.5v-799h-236zM281 1350q4 154 66.5 238.5t182.5 84.5q57 0 100.5 -26.5t98.5 -77.5q39 -37 66.5 -55.5t56.5 -18.5 q43 0 67.5 43t28.5 121l154 -8q-4 -152 -65.5 -238t-182.5 -86q-59 0 -104 27.5t-97 77.5q-39 37 -65.5 55t-55.5 18q-86 0 -96 -166z" />
<glyph unicode="&#xf2;" horiz-adv-x="1257" d="M98 563q0 180 73 315.5t194.5 206t263.5 70.5q141 0 263 -70.5t194.5 -206t72.5 -315.5t-72.5 -314t-194.5 -205t-263 -71q-142 0 -263.5 71t-194.5 205t-73 314zM266 1675l162 156l336 -395l-119 -117zM342 563q0 -180 78 -288.5t209 -108.5q133 0 211 108.5t78 288.5 t-78 289t-211 109q-131 0 -209 -109t-78 -289z" />
<glyph unicode="&#xf3;" horiz-adv-x="1257" d="M98 563q0 180 73 315.5t194.5 206t263.5 70.5q141 0 263 -70.5t194.5 -206t72.5 -315.5t-72.5 -314t-194.5 -205t-263 -71q-142 0 -263.5 71t-194.5 205t-73 314zM342 563q0 -180 78 -288.5t209 -108.5q133 0 211 108.5t78 288.5t-78 289t-211 109q-131 0 -209 -109 t-78 -289zM494 1436l335 395l164 -156l-379 -356z" />
<glyph unicode="&#xf4;" horiz-adv-x="1257" d="M98 563q0 180 73 315.5t194.5 206t263.5 70.5q141 0 263 -70.5t194.5 -206t72.5 -315.5t-72.5 -314t-194.5 -205t-263 -71q-142 0 -263.5 71t-194.5 205t-73 314zM252 1393l258 315h238l258 -315l-95 -90l-278 245h-8l-277 -245zM342 563q0 -180 78 -288.5t209 -108.5 q133 0 211 108.5t78 288.5t-78 289t-211 109q-131 0 -209 -109t-78 -289z" />
<glyph unicode="&#xf5;" horiz-adv-x="1257" d="M98 563q0 180 73 315.5t194.5 206t263.5 70.5q141 0 263 -70.5t194.5 -206t72.5 -315.5t-72.5 -314t-194.5 -205t-263 -71q-142 0 -263.5 71t-194.5 205t-73 314zM219 1350q4 154 65.5 238.5t182.5 84.5q59 0 104 -27.5t97 -76.5q39 -37 65.5 -55.5t54.5 -18.5 q88 0 99 164l153 -8q-6 -152 -67.5 -238t-181.5 -86q-60 0 -104 27.5t-95 77.5q-39 37 -65.5 55t-55.5 18q-88 0 -98 -166zM342 563q0 -180 78 -288.5t209 -108.5q133 0 211 108.5t78 288.5t-78 289t-211 109q-131 0 -209 -109t-78 -289z" />
<glyph unicode="&#xf6;" horiz-adv-x="1257" d="M98 563q0 180 73 315.5t194.5 206t263.5 70.5q141 0 263 -70.5t194.5 -206t72.5 -315.5t-72.5 -314t-194.5 -205t-263 -71q-142 0 -263.5 71t-194.5 205t-73 314zM268 1468q0 55 37 93t94 38q55 0 92 -37.5t37 -93.5q0 -53 -36.5 -91t-92.5 -38q-55 0 -93 38t-38 91z M342 563q0 -180 78 -288.5t209 -108.5q133 0 211 108.5t78 288.5t-78 289t-211 109q-131 0 -209 -109t-78 -289zM729 1468q0 55 37 93t94 38q55 0 92 -37.5t37 -93.5q0 -55 -37 -92t-92 -37t-93 38t-38 91z" />
<glyph unicode="&#xf7;" horiz-adv-x="2048" d="M287 688v170h1474v-170h-1474zM862 254q0 66 48 113t114 47t114 -47.5t48 -112.5q0 -68 -48 -115t-114 -47t-114 47t-48 115zM862 1292q0 66 48 113t114 47t114 -47t48 -113q0 -68 -48 -115t-114 -47t-114 47.5t-48 114.5z" />
<glyph unicode="&#xf8;" horiz-adv-x="1257" d="M98 563q0 180 73 315.5t194.5 206t263.5 70.5q178 0 317 -108l109 135l98 -76l-119 -145q125 -166 125 -398q0 -180 -72.5 -314t-194.5 -205t-263 -71q-178 0 -316 107l-110 -135l-97 75l119 146q-127 160 -127 397zM330 573q0 -135 41 -229l448 549q-80 76 -190 76 q-88 0 -155.5 -50.5t-105.5 -139.5t-38 -206zM440 236q76 -76 189 -76q133 0 217 108.5t84 282.5q0 137 -41 231z" />
<glyph unicode="&#xf9;" horiz-adv-x="1269" d="M164 418v708h235v-680q0 -143 44 -206.5t145 -63.5q78 0 138 39t132 129v782h236v-1126h-193l-18 170h-6q-82 -96 -170.5 -146.5t-196.5 -50.5q-178 0 -262 113t-84 332zM270 1675l162 156l336 -395l-119 -117z" />
<glyph unicode="&#xfa;" horiz-adv-x="1269" d="M164 418v708h235v-680q0 -143 44 -206.5t145 -63.5q78 0 138 39t132 129v782h236v-1126h-193l-18 170h-6q-82 -96 -170.5 -146.5t-196.5 -50.5q-178 0 -262 113t-84 332zM500 1436l336 395l161 -156l-376 -356z" />
<glyph unicode="&#xfb;" horiz-adv-x="1269" d="M164 418v708h235v-680q0 -143 44 -206.5t145 -63.5q78 0 138 39t132 129v782h236v-1126h-193l-18 170h-6q-82 -96 -170.5 -146.5t-196.5 -50.5q-178 0 -262 113t-84 332zM258 1393l258 315h238l258 -315l-97 -90l-276 245h-10l-277 -245z" />
<glyph unicode="&#xfc;" horiz-adv-x="1269" d="M164 418v708h235v-680q0 -143 44 -206.5t145 -63.5q78 0 138 39t132 129v782h236v-1126h-193l-18 170h-6q-82 -96 -170.5 -146.5t-196.5 -50.5q-178 0 -262 113t-84 332zM272 1468q0 55 37 93t92 38q57 0 94 -37.5t37 -93.5q0 -53 -36.5 -91t-94.5 -38q-55 0 -92 38 t-37 91zM735 1468q0 55 37 93t94 38q55 0 92 -37.5t37 -93.5q0 -53 -36.5 -91t-92.5 -38q-55 0 -93 38t-38 91z" />
<glyph unicode="&#xfd;" horiz-adv-x="1114" d="M27 1126h241l209 -579q25 -68 41 -131l62 -187h10l88 318l180 579h229l-413 -1194q-72 -199 -174.5 -301t-270.5 -102q-80 -1 -141 22l45 185q55 -16 82 -17q164 0 236 211l22 78zM442 1436l336 395l164 -156l-381 -356z" />
<glyph unicode="&#xfe;" horiz-adv-x="1290" d="M178 -457v2089h236v-430l-6 -182q172 135 323 135q217 0 337 -154.5t120 -418.5q0 -186 -66.5 -324.5t-178.5 -211.5t-241 -73q-147 0 -294 119l6 -184v-365h-236zM414 270q119 -102 243 -102q127 0 207 108.5t80 301.5q0 381 -264 380q-66 0 -130.5 -33.5t-135.5 -103.5 v-551z" />
<glyph unicode="&#xff;" horiz-adv-x="1114" d="M27 1126h241l209 -579q25 -68 41 -131l62 -187h10l88 318l180 579h229l-413 -1194q-72 -199 -174.5 -301t-270.5 -102q-80 -1 -141 22l45 185q55 -16 82 -17q164 0 236 211l22 78zM217 1468q0 55 37 93t92 38t92 -37.5t37 -93.5q0 -55 -37 -92t-92 -37t-92 37t-37 92z M678 1468q0 55 37 93t94 38q55 0 92 -37.5t37 -93.5q0 -55 -37 -92t-92 -37q-57 0 -94 37t-37 92z" />
<glyph unicode="&#x152;" horiz-adv-x="1968" d="M117 760q0 362 198.5 555.5t548.5 193.5h965v-200h-617v-420h517v-201h-517v-487h641v-201h-1001q-225 0 -390 88t-255 259t-90 413zM360 760q0 -281 134.5 -423t386.5 -142h94v1120h-94q-254 0 -387.5 -137.5t-133.5 -417.5z" />
<glyph unicode="&#x153;" horiz-adv-x="1918" d="M98 563q0 182 70 316.5t188.5 205t257.5 70.5q127 0 230.5 -66.5t167.5 -189.5q66 121 166 188.5t217 67.5q207 0 323.5 -147.5t116.5 -391.5q0 -68 -10 -114h-711q10 -156 101.5 -248t226.5 -92q72 0 135 22.5t131 65.5l82 -158q-174 -119 -379 -119q-121 0 -226.5 68 t-170.5 186q-137 -254 -404 -254q-139 0 -256.5 71t-186.5 204t-69 315zM340 563q0 -180 76 -288.5t198 -108.5q127 0 204 108.5t77 288.5q0 178 -78 288t-203 110q-123 0 -198.5 -110t-75.5 -288zM1114 651h516q0 154 -62.5 237t-178.5 83q-109 0 -185 -86t-90 -234z" />
<glyph unicode="&#x2000;" horiz-adv-x="1019" vert-adv-y="0" />
<glyph unicode="&#x2001;" horiz-adv-x="2038" vert-adv-y="0" />
<glyph unicode="&#x2002;" horiz-adv-x="1019" vert-adv-y="0" />
<glyph unicode="&#x2003;" horiz-adv-x="2038" vert-adv-y="0" />
<glyph unicode="&#x2004;" horiz-adv-x="679" vert-adv-y="0" />
<glyph unicode="&#x2005;" horiz-adv-x="509" vert-adv-y="0" />
<glyph unicode="&#x2006;" horiz-adv-x="339" vert-adv-y="0" />
<glyph unicode="&#x2007;" horiz-adv-x="339" vert-adv-y="0" />
<glyph unicode="&#x2008;" horiz-adv-x="254" vert-adv-y="0" />
<glyph unicode="&#x2009;" horiz-adv-x="407" vert-adv-y="0" />
<glyph unicode="&#x200a;" horiz-adv-x="113" vert-adv-y="0" />
<glyph unicode="&#x2010;" horiz-adv-x="731" d="M96 492v174h541v-174h-541z" />
<glyph unicode="&#x2011;" horiz-adv-x="731" d="M96 492v174h541v-174h-541z" />
<glyph unicode="&#x2012;" horiz-adv-x="731" d="M96 492v174h541v-174h-541z" />
<glyph unicode="&#x2013;" horiz-adv-x="1105" d="M96 502v157h912v-157h-912z" />
<glyph unicode="&#x2014;" horiz-adv-x="1843" d="M96 502v157h1649v-157h-1649z" />
<glyph unicode="&#x2018;" horiz-adv-x="610" d="M129 1159q0 289 272 434l60 -106q-94 -57 -139.5 -125t-45.5 -162q6 2 21 2q57 0 98 -37t41 -98q0 -68 -39 -106.5t-100 -38.5q-82 0 -125 61t-43 176z" />
<glyph unicode="&#x2019;" horiz-adv-x="610" d="M150 1042q96 59 141 126t45 163q-8 -2 -23 -2q-57 0 -97 36t-40 97q0 68 38 107t99 39q82 0 125 -61.5t43 -174.5q0 -287 -270 -436z" />
<glyph unicode="&#x201a;" horiz-adv-x="610" d="M150 -244q96 57 141 124t45 163q-8 -2 -23 -2q-57 0 -97 36t-40 97q0 68 38 106.5t99 38.5q82 0 125 -61t43 -174q0 -287 -270 -436z" />
<glyph unicode="&#x201c;" horiz-adv-x="1060" d="M129 1159q0 289 272 434l60 -106q-94 -57 -139.5 -125t-45.5 -162q6 2 21 2q57 0 98 -37t41 -98q0 -68 -39 -106.5t-100 -38.5q-82 0 -125 61t-43 176zM580 1159q0 289 270 434l61 -106q-94 -57 -139 -125t-45 -162q6 2 18 2q59 0 100.5 -37t41.5 -98q0 -66 -39 -105.5 t-103 -39.5q-79 0 -122 61t-43 176z" />
<glyph unicode="&#x201d;" horiz-adv-x="1060" d="M150 1042q96 59 141 126t45 163q-8 -2 -23 -2q-57 0 -97 36t-40 97q0 68 38 107t99 39q82 0 125 -61.5t43 -174.5q0 -287 -270 -436zM600 1042q96 59 141 126t45 163q-8 -2 -22 -2q-57 0 -98 36t-41 97q0 66 38.5 106t100.5 40q82 0 125 -61.5t43 -174.5 q0 -287 -270 -436z" />
<glyph unicode="&#x201e;" horiz-adv-x="1060" d="M150 -244q96 57 141 124t45 163q-8 -2 -23 -2q-57 0 -97 36t-40 97q0 68 38 106.5t99 38.5q82 0 125 -61t43 -174q0 -287 -270 -436zM600 -244q96 57 141 124t45 163q-8 -2 -22 -2q-57 0 -98 36t-41 97q0 66 38.5 105.5t100.5 39.5q82 0 125 -61t43 -174 q0 -287 -270 -436z" />
<glyph unicode="&#x2022;" horiz-adv-x="729" d="M92 604q0 84 37 150.5t99.5 104.5t136.5 38t136 -38t99 -104.5t37 -150.5q0 -82 -37 -148.5t-99.5 -103.5t-135.5 -37q-74 0 -136.5 37t-99.5 103.5t-37 148.5z" />
<glyph unicode="&#x2026;" horiz-adv-x="2048" d="M195 778q0 61 43 104.5t104 43.5t104 -43t43 -105q0 -61 -43 -104t-104 -43t-104 43t-43 104zM877 778q0 61 43 104.5t104 43.5t104 -43t43 -105q0 -61 -43 -104t-104 -43t-104 43t-43 104zM1559 778q0 61 43 104.5t104 43.5t104 -43t43 -105q0 -61 -43 -104t-104 -43 t-104 43t-43 104z" />
<glyph unicode="&#x202f;" horiz-adv-x="407" vert-adv-y="0" />
<glyph unicode="&#x2039;" horiz-adv-x="638" d="M106 496v172l314 348l94 -80l-266 -356l266 -359l-94 -76z" />
<glyph unicode="&#x203a;" horiz-adv-x="638" d="M123 221l268 359l-268 356l96 80l313 -348v-172l-313 -351z" />
<glyph unicode="&#x205f;" horiz-adv-x="509" vert-adv-y="0" />
<glyph unicode="&#x20ac;" d="M51 526v119l133 10q-2 25 -2 74q0 47 2 70h-133v119l148 10q43 268 196.5 417.5t380.5 149.5q102 0 194.5 -49t159.5 -131l-135 -131q-100 125 -225 125q-133 0 -219 -98.5t-115 -280.5h557v-131h-569q-2 -20 -2 -62q0 -55 2 -80h477v-131h-463q31 -174 115 -270t209 -96 q76 0 137.5 36.5t116.5 112.5l135 -123q-164 -213 -403 -213q-213 0 -359.5 145.5t-189.5 407.5h-148z" />
<glyph unicode="&#x2122;" horiz-adv-x="1499" d="M6 1409v147h604v-147h-221v-569h-162v569h-221zM719 840v716h192l103 -253l61 -173h8l60 173l100 253h195v-716h-152v286l19 250h-9l-157 -428h-123l-154 428h-10l18 -250v-286h-151z" />
<glyph unicode="&#x25fc;" horiz-adv-x="1126" vert-adv-y="2252" d="M0 0v1126h1126v-1126h-1126z" />
</font>
</defs>
</svg>
