<?xml version="1.0" encoding="utf-8"?>
<!-- Generator: Adobe Illustrator 24.1.0, SVG Export Plug-In . SVG Version: 6.00 Build 0)  -->
<svg version="1.1" id="レイヤー_1" xmlns="http://www.w3.org/2000/svg" xmlns:xlink="http://www.w3.org/1999/xlink" x="0px"
	 y="0px" viewBox="0 0 555.5 261.9" style="enable-background:new 0 0 555.5 261.9;" xml:space="preserve">
<style type="text/css">
	.st0{fill:#59D4D8;}
	.st1{fill:#3EAEE6;}
	.st2{fill:#848484;}
	.st3{fill:#231815;}
</style>
<g>
	<circle class="st0" cx="285.9" cy="2.3" r="2.3"/>
	<circle class="st0" cx="334.5" cy="50.9" r="2.3"/>
	<circle class="st1" cx="269.6" cy="115.8" r="4.2"/>
	<circle class="st1" cx="285.9" cy="83.4" r="5"/>
	<path class="st1" d="M269.6,105.3c-3.2,0-5.8-2.6-5.8-5.7c0-1.5,0.6-3,1.7-4.1c1.5-1.5,1.5-4,0-5.5c-0.1-0.1-0.3-0.3-0.5-0.4
		c-3.4-2.5-4.2-7.2-1.7-10.7c0.1-0.1,0.2-0.3,0.3-0.4c1.3-1.6,1.2-3.8-0.2-5.2c-0.2-0.2-0.4-0.4-0.6-0.7c-0.7-0.8-1.6-1.3-2.6-1.4
		c-0.1,0-0.3,0-0.4,0c-0.9,0-1.8,0.3-2.5,0.9c-1.1,0.9-2.5,1.4-3.9,1.4c-3.5,0-6.3-2.8-6.3-6.2s2.8-6.3,6.2-6.3c0,0,0,0,0,0
		c1.4,0,2.8,0.5,3.9,1.4c0.7,0.6,1.6,0.9,2.5,0.9c0.1,0,0.3,0,0.4,0c1-0.1,2-0.6,2.6-1.4c0.4-0.5,0.9-1,1.4-1.4
		c1.7-1.3,2-3.8,0.7-5.5c0,0,0,0,0,0c-0.9-1.1-1.4-2.4-1.4-3.8c0-3.4,2.7-6.1,6.1-6.1c1.9,0,3.7,0.9,4.9,2.5c0.7,1,1.9,1.6,3.1,1.6
		h0c1.2,0,2.4-0.6,3.1-1.6c0.4-0.6,1-1.1,1.6-1.5c1.8-1.2,2.3-3.6,1.1-5.4c-0.3-0.4-0.6-0.7-1-1c-2.5-1.8-3.1-5.3-1.3-7.8
		s5.3-3.1,7.8-1.3c2.5,1.8,3.1,5.3,1.3,7.8c-0.4,0.5-0.8,0.9-1.3,1.3c-1.8,1.3-2.1,3.7-0.9,5.5c0.3,0.4,0.6,0.7,1,1
		c2.9,1.9,3.7,5.7,1.8,8.6c-0.3,0.5-0.7,1-1.2,1.4c-1.7,1.4-1.9,3.9-0.5,5.5c0.2,0.2,0.4,0.4,0.6,0.6c3,2.3,3.5,6.5,1.2,9.5
		c-2.3,3-6.5,3.5-9.5,1.2c0,0-0.1-0.1-0.1-0.1c-1.6-1.3-4-1.1-5.4,0.5c-0.1,0.1-0.2,0.3-0.4,0.4c-1.4,1.4-1.5,3.7-0.2,5.2
		c2.7,3.3,2.2,8.1-1,10.7c-0.1,0.1-0.2,0.2-0.4,0.3c-1.7,1.3-2.1,3.7-0.9,5.5c0.1,0.2,0.3,0.3,0.4,0.5c2.3,2.2,2.3,5.9,0,8.1
		C272.6,104.7,271.2,105.3,269.6,105.3L269.6,105.3z M277.7,53c-1.2,0-2.4,0.6-3.1,1.6c0,0.1-0.1,0.1-0.1,0.2
		c-1.4,1.7-1.1,4.2,0.6,5.5c0,0,0,0,0,0c0.4,0.3,0.8,0.7,1.2,1.1c1.4,1.6,3.8,1.8,5.4,0.5l0.1-0.1c1.7-1.3,2-3.8,0.7-5.5
		c-0.2-0.2-0.4-0.4-0.6-0.6c-0.4-0.3-0.7-0.7-1-1.1C280.1,53.6,278.9,53,277.7,53L277.7,53z"/>
	<circle class="st1" cx="221" cy="67.1" r="2.3"/>
	<circle class="st1" cx="269.6" cy="132" r="2.3"/>
	<circle class="st1" cx="302.1" cy="67.1" r="4.3"/>
	<circle class="st0" cx="285.9" cy="99.6" r="3.6"/>
	<circle class="st0" cx="285.9" cy="18.5" r="3.6"/>
	<circle class="st0" cx="318.3" cy="50.9" r="3.6"/>
	<circle class="st0" cx="302.1" cy="50.9" r="5"/>
	<circle class="st1" cx="269.6" cy="34.7" r="4.3"/>
	<circle class="st1" cx="237.2" cy="67.1" r="4.3"/>
	
		<ellipse transform="matrix(0.2298 -0.9732 0.9732 0.2298 145.6399 285.8604)" class="st0" cx="253.4" cy="50.9" rx="3.6" ry="3.6"/>
</g>
<path class="st2" d="M179.7,167.3c-0.2-0.2-0.6-0.8-1.3-1.7c-0.6-0.8-1.2-1.5-1.6-2.1c0.6-0.5,1.1-1,1.5-1.6
	c0.5-0.7,0.8-1.6,0.8-2.4c0.1-1.2-0.4-2.3-1.3-3c-1-0.7-2.1-1.1-3.3-1c-0.8,0-1.8,0-3,0.1l-0.2,0v14h1.4V164c0.9,0.1,1.9,0.1,3,0.1
	c1.7,2.4,2.8,3.7,3.2,4.2c0.4,0.4,0.9,0.8,1.4,1.1c0.6,0.3,1.3,0.4,2,0.4l0.2,0l0-1l-0.2,0C181.2,168.5,180.3,168,179.7,167.3z
	 M172.4,156.8c0.7,0,1.3-0.1,1.8-0.1c0.9,0,1.7,0.2,2.5,0.7c0.6,0.5,0.9,1.2,0.9,2c0,0.9-0.3,1.7-0.9,2.4c-0.4,0.6-1,0.9-1.6,1
	c-0.8,0-1.7,0-2.6-0.1V156.8z M184.7,156.8h1.3v12.8h-1.3L184.7,156.8z M199.3,156.8h1.3v12.9h-0.8l-8.3-9.5l-0.6-0.7
	c0,0.3,0,0.7,0,1.1v9.1h-1.3v-12.9h0.8l8.2,9.4c0.3,0.3,0.5,0.6,0.8,0.9c0-0.3,0-0.6,0-1.1L199.3,156.8z M213.3,168.6l0.2,0l0,1
	l-0.2,0c-0.6,0-1.2-0.1-1.8-0.3c-0.5-0.2-0.9-0.5-1.2-0.8c-0.4-0.3-1.1-1.1-2.2-2.4c-1-1.2-1.8-2.1-2.4-2.8v6.3h-1.3v-12.8h1.3v5.9
	l5.2-5.9h1.7l-5.5,6.2c1.3,1.6,2.6,3.2,4.1,4.6C211.8,168.1,212.5,168.5,213.3,168.6z M224.9,156.8h1.3v7.2c0.1,1.5-0.4,3-1.3,4.2
	c-2.3,2.1-5.7,2.1-8,0c-0.9-1.2-1.4-2.7-1.3-4.2v-7.2h1.3v7.2c0,3,1.3,4.5,4,4.5s4-1.5,4-4.5V156.8z M250.4,155.4l2.1,14.2h-1.4
	l-1.5-10.5c0-0.2-0.1-0.4-0.1-0.6c-0.1,0.2-0.2,0.4-0.3,0.6l-4.6,9.7h-0.8l-4-9.8c-0.1-0.2-0.2-0.4-0.2-0.6l-0.1,0.5l-1.6,10.5h-1.4
	l2.3-14.2h0.9l4.3,10.2c0.1,0.3,0.2,0.5,0.3,0.8c0.1-0.2,0.2-0.4,0.4-0.8l4.8-10.2L250.4,155.4z M256.8,168.3h5.1v1.3h-6.4v-12.8
	h6.2v1.2h-4.9v4h4.4v1.2h-4.4L256.8,168.3z M268.7,156.6c-1.4,0-2.6,0-3.6,0.1l-0.2,0v12.7l0.2,0c1.4,0.1,2.7,0.2,4,0.2
	c1.7,0.1,3.4-0.5,4.7-1.6c1.3-1.2,2-2.9,1.8-4.7c0.1-1.9-0.6-3.7-2-4.9C272.3,157.2,270.5,156.6,268.7,156.6L268.7,156.6z
	 M269.1,168.4c-1.1,0-2.1,0-2.8-0.1v-10.4c0.6,0,1.4-0.1,2.4-0.1c1.5,0,2.9,0.5,3.9,1.5c1.1,1.1,1.7,2.5,1.6,4
	c0.1,1.4-0.4,2.8-1.4,3.8C271.8,168.1,270.4,168.5,269.1,168.4L269.1,168.4z M278.7,156.8h1.3v12.8h-1.3V156.8z M293.6,167.8l0.5,1
	l-0.2,0.1c-1.3,0.6-2.7,0.9-4.1,0.8c-1.7,0-3.4-0.7-4.6-1.9c-1.3-1.2-2-2.9-2-4.7c0-1.7,0.6-3.4,1.7-4.7c1.2-1.3,2.8-2,4.5-1.9
	c1.5,0,2.9,0.2,4.3,0.7l0.2,0.1l-0.4,1.2l-0.2-0.1c-1.3-0.4-2.7-0.6-4-0.6c-1.3,0-2.5,0.5-3.4,1.5c-0.9,1-1.4,2.4-1.4,3.8
	c0,2.9,2.4,5.3,5.3,5.4c1.2,0,2.4-0.2,3.5-0.6L293.6,167.8z M301.4,156.7l-5.4,12.9h1.4l1.8-4.3h5.2l1.8,4.3h1.5l-5.4-12.9H301.4z
	 M303.9,164.1h-4.2l1.8-4.2c0.1-0.2,0.2-0.5,0.3-0.8c0.1,0.2,0.2,0.5,0.3,0.9L303.9,164.1z M311.1,168.3h5.7v1.3h-7v-12.8h1.3V168.3
	z M335.9,167.7l0.5,1l-0.2,0.1c-0.6,0.3-1.3,0.6-2,0.7c-0.8,0.2-1.5,0.2-2.3,0.2c-2,0-3.8-0.7-5.3-2.1c-1.4-1.3-2.2-3.2-2.2-5.2
	c0-1.9,0.6-3.8,1.9-5.2c1.3-1.4,3.1-2.2,4.9-2.1c1.6,0,3.2,0.3,4.7,0.8l0.2,0.1l-0.4,1.2l-0.2-0.1c-1.4-0.4-2.8-0.7-4.3-0.7
	c-1.5,0-2.9,0.6-3.9,1.7c-1,1.2-1.6,2.7-1.5,4.2c0,1.6,0.6,3.1,1.8,4.2c1.1,1.1,2.6,1.8,4.2,1.7c1.3,0,2.6-0.2,3.8-0.7L335.9,167.7z
	 M340.7,168.3h5.7v1.3h-7v-12.8h1.3V168.3z M349.4,156.8h1.3v12.8h-1.3V156.8z M364.1,156.8h1.3v12.9h-0.8l-8.3-9.5l-0.6-0.7
	c0,0.3,0,0.7,0,1.1v9.1h-1.3v-12.9h0.8l8.2,9.4c0.3,0.3,0.5,0.6,0.8,0.9c0-0.3,0-0.6,0-1.1L364.1,156.8z M369.1,156.8h1.3v12.8h-1.3
	L369.1,156.8z M384.5,168.8l-0.2,0.1c-1.3,0.6-2.7,0.9-4.1,0.8c-1.7,0-3.4-0.7-4.6-1.9c-1.3-1.2-2-2.9-2-4.7c0-1.7,0.6-3.4,1.7-4.7
	c1.2-1.3,2.8-2,4.5-1.9c1.5,0,2.9,0.2,4.3,0.7l0.2,0.1l-0.4,1.2l-0.2-0.1c-1.3-0.4-2.7-0.6-4-0.6c-1.3,0-2.5,0.5-3.4,1.5
	c-0.9,1-1.4,2.4-1.4,3.8c0,2.9,2.4,5.3,5.3,5.4c1.2,0,2.4-0.2,3.5-0.6l0.2-0.1L384.5,168.8z"/>
<g>
	<path d="M116,209.7c2-0.6,3.9-1.8,5.2-3.5c1.3-1.7,1.8-3.8,1.8-7.9c0-2.8-0.1-5.1-0.4-7.9h2.1c0.2,2.4,0.3,5,0.3,7.9
		c0,4.8-0.6,7.2-2.2,9.3c-1.4,1.7-3.3,3-5.5,3.7L116,209.7z M113.5,203.9c-1.3,0-2.1-2.1-2.1-6c0-2.4,0.2-4.8,0.5-7.1l2,0.2
		c-0.4,2.4-0.6,4.7-0.6,7.1c0,2.2,0.2,3.3,0.7,3.3c0.6,0,1.7-1.8,2.4-3.4l1.4,1.4C116.5,202.1,114.7,203.9,113.5,203.9z"/>
	<path d="M147.3,210.9c-2.4,0-3.5-1.6-3.6-5.2c-0.1-3.2-0.5-4.1-1.7-4.1c-2.3,0-4.7,2.9-7.5,9.3l-1.8-0.8c2.6-5.8,6.1-12.9,9.7-19.7
		l1.9,0.9c-2.1,3.6-4,7.1-5.6,10.3l0.1,0.1c1-1.1,2.3-1.7,3.8-1.8c2.1,0,2.9,1.4,3,5.1c0.1,3.1,0.4,3.9,1.8,3.9
		c1.6,0,3.3-1.9,4.7-5.3l1.6,1.5C151.7,209,149.6,210.9,147.3,210.9z"/>
	<path d="M170.4,211.4c-2.6-3.5-5.6-6.8-8.9-9.7c-0.6-0.4-0.9-1-1-1.6c0-0.6,0.1-0.8,1.7-2c2.9-2.4,5.4-5.2,7.5-8.3l1.7,1.3
		c-2.4,3.1-5.1,5.9-8.2,8.4c-0.3,0.3-0.4,0.4-0.4,0.7c0,0.3,0.1,0.4,1,1.1c3,2.6,5.9,5.5,8.4,8.6L170.4,211.4z"/>
	<path d="M186.3,209.8c5.4-1.2,8.2-4.3,8.2-8.9c0-2.3-1.1-3.5-3.1-3.5c-1.8,0-4.9,0.9-8.8,2.5l-0.9-2c5.1-1.7,7.6-2.3,9.8-2.3
		c3.1,0,5,2,5,5.3c0,5.4-3,8.9-8.9,10.6L186.3,209.8z M192.8,194.1c-2.2-1.3-4.5-2.3-6.9-3l0.9-1.7c2.5,0.7,4.9,1.7,7.1,3
		L192.8,194.1z"/>
	<path d="M204.4,209.4c3.6-2.1,6.6-5.1,9-8.5l0-0.1l-0.1,0c-1.7-1.4-3.6-2.6-5.5-3.7l1.3-1.5c1.8,1,3.6,2.2,5.3,3.5l0.1,0.1l0-0.1
		c1.5-2.6,2.7-5.3,3.6-8.2l2,0.8c-1,3-2.4,5.9-4.1,8.7l0,0.1l0.1,0c1.1,0.9,2.5,2.2,4.6,4.2l-1.5,1.6c-1.3-1.4-2.7-2.8-4.2-4.1
		l-0.1-0.1l-0.1,0.1c-2.4,3.5-5.4,6.4-8.9,8.7L204.4,209.4z"/>
	<path d="M231.9,209.6c4.9-1.8,6.8-4.4,6.9-9.9l0-0.1h-10v-1.8h20.8v1.8h-8.7l0,0.1c-0.1,6-2.4,9.4-7.6,11.5L231.9,209.6z
		 M247.6,194c-0.5-1.2-1.2-2.4-2-3.4l1.4-0.7c0.8,1,1.5,2.1,2.1,3.3L247.6,194z M232.2,193.5v-1.8h13.2v1.8H232.2z M250.3,192.5
		c-0.5-1.2-1.2-2.2-2-3.3l1.3-0.8c0.8,1,1.6,2,2.1,3.2L250.3,192.5z"/>
	<path d="M262.9,211.1v-9.9l-0.1,0.1c-1.9,1.4-3.9,2.6-6.1,3.6l-1.3-1.5c4.7-1.9,8.8-5,11.9-9l1.5,1.1c-1.2,1.5-2.5,2.9-4,4.1l0,0
		v11.5H262.9z"/>
	<path d="M276.7,209.1c4.5-2.3,7.2-6.3,7.7-11.8l0-0.1h-7.2v-1.8h7.3v-5.3h2v5.1h8.1c0.1,3.6-0.1,7.2-0.5,10.7
		c-0.5,3.4-1.3,4.5-3.3,4.5c-1.5-0.1-2.9-0.4-4.2-1l-0.1-2.2c1.2,0.6,2.5,1,3.9,1.1c1.1,0,1.4-0.5,1.7-3.3c0.3-2.7,0.4-5.3,0.5-8
		l0-0.1h-6.2l0,0.1c-0.5,6.1-3.4,10.9-8.2,13.5L276.7,209.1z"/>
	<path d="M301.5,208.8c4.5-3.3,5.4-6.1,5.3-16.3h2.1c0,10.9-1,14.1-5.8,17.8L301.5,208.8z M312.7,208.8v-17.3h2.1v15.7l0.1-0.1
		c3.2-2,6-4.7,8.1-7.8l1.3,1.8c-2.6,3.7-6,6.7-10,8.9L312.7,208.8z"/>
	<path d="M333.5,209.5c6.1-2.5,10.5-7.8,11.8-14.3l0-0.1h-7.4l0,0c-1.5,2.7-3.5,5.1-5.9,7.1l-1.5-1.4c3.6-2.8,6.2-6.5,7.5-10.9
		l1.9,0.6c-0.2,0.7-0.7,1.7-1.1,2.7l-0.1,0.1h7.4l1.3,1c-1.1,7.4-5.9,13.7-12.7,16.7L333.5,209.5z"/>
	<path d="M359.3,209.9c4.9-2.2,6.8-5.1,6.8-10.7v-8.7h2.2v8.6c0,6.2-2.2,9.9-7.5,12.5L359.3,209.9z M356.4,202.5v-11.5h2.2v11.5
		L356.4,202.5z"/>
	<path d="M377.2,207.5v-2h20.4v2H377.2z M380,196.4v-2h14.9v2H380z"/>
	<path d="M406.7,208.6c6.1-1.8,9.4-5.8,10.4-12.6l2,0.5c-1.3,7.2-4.8,11.5-11,13.7L406.7,208.6z M406.1,202.1
		c-0.5-1.6-1.2-3.2-2-4.6l1.8-0.9c0.9,1.5,1.6,3,2.1,4.6L406.1,202.1z M411.1,200.8c-0.4-1.6-1.1-3.1-1.9-4.5l1.8-0.8
		c0.8,1.4,1.5,2.9,2,4.5L411.1,200.8z"/>
	<path d="M429,209.5c6.1-2.5,10.5-7.8,11.8-14.3l0-0.1h-7.4l0,0c-1.5,2.7-3.5,5.1-5.9,7.1l-1.5-1.4c3.6-2.8,6.2-6.5,7.5-10.9
		l1.9,0.6c-0.2,0.7-0.7,1.7-1.1,2.7l-0.1,0.1h7.5l1.3,1c-1.1,7.4-5.9,13.7-12.7,16.7L429,209.5z"/>
</g>
<g>
	<path class="st3" d="M182,258.7h19.1v1.7H182v1.3h-2v-21.7h20.5v1.7H182L182,258.7z M187.3,246c-0.6,1-1.3,2-2.1,2.8l-1.3-1.2
		c1.5-1.5,2.5-3.4,3.1-5.5l1.8,0.5c-0.2,0.6-0.4,1.2-0.6,1.7h9.4v1.6h-5.4v3.1h7.8v1.6h-7.9c-0.1,0.3-0.1,0.5-0.2,0.9
		c2.6,1.3,5,2.7,7.4,4.3l-1.4,1.7c-2-1.7-4.2-3.2-6.5-4.4c-1,2.2-3.1,3.8-6.5,5.1l-1.2-1.6c4-1.3,6.1-3.2,6.4-5.9h-7v-1.6h7.2V246
		H187.3z"/>
	<path class="st3" d="M213.9,251.3c-0.7,0.7-1.4,1.3-2.2,1.8l-0.9-1.1c-0.2,4.4-1,7-3.1,9.9l-1.5-1.3c1.8-2.3,2.8-5.1,2.8-7.9
		c-1,0.8-2,1.4-3,2l-0.9-1.7c1.4-0.6,2.7-1.4,4-2.3v-9.9h8.6v-2.4h2v2.4h9.1v1.5h-17.9v7c0,0.8,0,1.6,0,2.2c1.1-0.7,2-1.4,2.9-2.3
		c-0.7-0.6-1.4-1.2-2.2-1.7l1.2-1.1c0.7,0.5,1.4,1.1,2,1.7c0.7-0.8,1.3-1.6,1.8-2.4h-5.3v-1.5h6.1c0.3-0.5,0.5-1.1,0.7-1.7l1.7,0.6
		c-0.2,0.5-0.3,0.7-0.5,1.1h8.9v1.5h-5.8c0.6,0.9,1.4,1.7,2.2,2.4c0.8-0.5,1.5-1.2,2.1-2l1.5,1.1c-0.7,0.7-1.5,1.3-2.3,1.8
		c1.1,0.8,2.2,1.4,3.4,2l-1.1,1.6c-1.1-0.6-2.1-1.3-3-2.1v5.1h-4.6v4.4c0,1.3-0.4,1.7-1.9,1.7c-0.8,0-1.6-0.1-2.5-0.2l-0.4-1.8
		c0.8,0.2,1.5,0.3,2.3,0.3c0.5,0,0.7-0.2,0.7-0.7v-3.7h-4.8L213.9,251.3z M207,249.3c-0.3-1.7-0.8-3.3-1.3-5l1.6-0.6
		c0.6,1.6,1.1,3.2,1.5,4.9L207,249.3z M210.3,260c1.6-1,3-2.3,4.1-3.8l1.5,0.9c-1.2,1.6-2.6,3.1-4.2,4.3L210.3,260z M215.6,251.3
		h7.9v-1.5h-7.9V251.3z M223.4,252.7h-7.9v1.5h7.9V252.7z M222.7,248.3c-0.8-0.8-1.5-1.7-2.1-2.6h-2.1c-0.5,0.9-1.1,1.8-1.8,2.6
		H222.7z M227.3,260.9c-1.5-1.4-3.2-2.7-5-3.8l1.4-1.1c1.8,1,3.5,2.1,5.1,3.3L227.3,260.9z"/>
	<path class="st3" d="M233.8,259.8c1.8-2.4,3.3-5,4.5-7.7l1.4,1.5c-1.2,2.8-2.6,5.4-4.3,7.9L233.8,259.8z M238.1,250.3
		c-1.1-1.3-2.4-2.5-3.8-3.4l1.3-1.5c1.4,1,2.7,2.1,3.9,3.4L238.1,250.3z M238.8,244.4c-1.1-1.3-2.3-2.5-3.7-3.5l1.3-1.5
		c1.4,0.9,2.6,2,3.7,3.3L238.8,244.4z M239.8,251.2v-1.7h7.2v-4.6h-5.7v-1.7h5.7v-4.3h2v4.3h6.2v1.7h-6.2v4.6h7.7v1.7h-8.7
		c-0.8,2.5-1.8,5-3,7.4c0.1,0,0.2,0,0.3,0c1.7-0.1,2.7-0.2,4.7-0.5c0.9-0.1,1.8-0.2,2.6-0.3c-0.8-1.3-1.8-2.5-2.7-3.7l1.6-0.9
		c1.9,2.2,3.7,4.6,5.1,7.1l-1.7,1.3c-0.8-1.4-1-1.8-1.4-2.3c-3.6,0.7-8,1.2-13,1.6l-0.6-2c1.1-0.1,1.3-0.1,2.9-0.2
		c1.2-2.4,2.3-4.9,3.1-7.5L239.8,251.2z"/>
	<path class="st3" d="M281.3,260.8c-5-3-8.9-8.2-9.7-13c-0.9,5.8-4.5,10.8-9.7,13.5l-1.6-1.8c4-1.7,7.1-5,8.6-9c1-3,1.4-6.1,1.3-9.2
		v-1.8h2.2v1.7c0,8.3,3.3,13.8,10.4,17.6L281.3,260.8z"/>
	<path class="st3" d="M303.5,239.3c-1,1.8-2.1,3.5-3.5,5.1c0.4,0.5,1.1,1.3,1.4,1.9c1.1-1.5,2.2-3.1,3.1-4.8l1.7,1
		c-1.6,2.4-3.4,4.8-5.3,6.9l-0.1,0.1c0.8,0,1.1-0.1,4.3-0.3c-0.3-0.7-0.7-1.4-1.1-2l1.5-0.8c1,1.6,1.9,3.4,2.6,5.2l-1.7,1
		c-0.3-0.8-0.4-1.3-0.7-2c-1,0.2-1.9,0.3-2.9,0.4v10.8H301v-10.6c-2.1,0.2-2.4,0.2-4.3,0.4l-0.6-1.8c0.9,0,0.9,0,1.4-0.1l1.3-0.1
		c0.1-0.1,0.1-0.2,0.2-0.3c0.4-0.5,0.7-0.9,1.3-1.6c-1.1-1.5-2.3-2.9-3.7-4.2l1.3-1.4c0.2,0.2,0.3,0.3,0.5,0.5l0.3,0.3l0.2,0.3
		c1-1.5,1.9-3.1,2.7-4.7L303.5,239.3z M296.5,259c0.7-2,1.2-4.1,1.4-6.2l1.8,0.3c-0.2,2.3-0.6,4.6-1.3,6.9L296.5,259z M305.4,258.7
		c-0.3-2-0.9-4-1.7-5.8l1.6-0.5c0.9,1.8,1.6,3.7,2,5.6L305.4,258.7z M316.1,248.2v-6.3h-8.2v-1.7h10v11.2h-1.8v-1.4h-5.4v8.1
		c0,1.1,0.4,1.2,2.8,1.2c3.8,0,3.8,0,3.9-4.5l1.9,0.5c-0.1,2.8-0.4,4.4-0.8,5c-0.6,0.7-1.5,0.9-5,0.9c-4.1,0-4.7-0.3-4.7-2.1v-10.8
		L316.1,248.2z"/>
	<path class="st3" d="M332.1,239.8l0.9,0.8c-0.7,2.3-1.5,4.7-2.5,6.9c1.3,1.8,2,4,2,6.2c0,2.2-0.6,2.9-2.4,2.9
		c-0.7,0-1.4-0.1-2.1-0.2l-0.3-1.8c0.6,0.2,1.3,0.3,2,0.3c0.7,0,1-0.3,1-1.3c0-2.2-0.7-4.3-2.1-6c0.9-2,1.7-4,2.2-6.1h-3.4v20.2
		h-1.8v-21.9L332.1,239.8z M344.6,240.1l1.1,0.9c-1,1.7-2.3,3.3-3.8,4.7c2,1.2,4.3,2.1,6.6,2.6l-1.2,1.7c-2.4-0.7-4.6-1.8-6.7-3.2
		c-1.5,1.2-3.1,2.1-4.8,2.8l1.8,0.4c-0.3,0.6-0.4,0.9-0.6,1.4h2.7v-2.6h1.8v2.6h5.4v1.5h-5.4v2.3h4.9v1.5h-4.9v2.7h6.6v1.6h-15.4
		v-1.6h7v-2.7H335v-1.5h4.6v-2.3h-3.4c-0.5,1-1.1,2-1.9,2.8l-1.3-1.1c1.2-1.5,2.1-3.2,2.7-5c-0.8,0.3-1.5,0.6-2.3,0.8l-1.1-1.5
		c2.5-0.6,4.8-1.7,6.9-3.2l-0.1-0.1l-0.1-0.1c-0.8-0.6-1.5-1.3-2.1-2.1c-0.9,1.1-1.9,2.1-3,2.9l-1.3-1.2c2.4-1.7,4.2-4.1,5.1-6.9
		l1.8,0.5c-0.3,0.6-0.4,0.9-0.6,1.3L344.6,240.1z M338.1,241.7c-0.2,0.3-0.2,0.3-0.3,0.5c0.8,0.9,1.7,1.8,2.6,2.5
		c1-0.9,1.9-1.9,2.6-3H338.1z"/>
	<path class="st3" d="M357.9,247.1c-1.5,1.1-3.1,2-4.7,2.8l-1.3-1.5c4.4-1.8,8.1-5,10.5-9.2h2.3c2.6,3.9,6.4,6.8,10.9,8.4l-1.3,1.8
		c-4.2-1.8-7.9-4.7-10.7-8.4c-1.4,2.2-3.1,4.2-5.2,5.8h11.1v1.7h-11.6V247.1z M353.4,253.1v-1.8H374v1.8h-11.8
		c-0.8,1.9-1.7,3.7-2.8,5.5c4.7-0.3,5.9-0.4,10-0.9c-1-1-2-2-3.1-3l1.5-1c2.3,1.9,4.4,4.1,6.3,6.3l-1.7,1.4c-0.7-1-0.9-1.1-1.9-2.3
		l-0.3,0l-0.3,0.1c-4.3,0.6-10.7,1.4-15.8,1.8l-0.7-2c0.7-0.1,2-0.1,3.8-0.2c1.1-1.8,2-3.7,2.7-5.7L353.4,253.1z"/>
</g>
</svg>
