<svg xmlns="http://www.w3.org/2000/svg" width="629.273" height="229.601" viewBox="0 0 629.273 229.601">
  <g id="よこ" transform="translate(99.04 36.136)">
    <g id="Group_40" data-name="Group 40" transform="translate(-99.04 -36.136)">
      <g id="Group_37" data-name="Group 37" transform="translate(266.968)">
        <path id="Path_96" data-name="Path 96" d="M107.949,12.045,90.1,8.872l-3.7,19.7L102.5,31.432Z" transform="translate(-79.497 19.252)" fill="#fff500"/>
        <path id="Path_97" data-name="Path 97" d="M107.9,19.185,91.91,0l-2.6,13.959-1.319,7.015,18.484,3.285Z" transform="translate(-76.041)" fill="#fff500"/>
        <path id="Path_98" data-name="Path 98" d="M220.5,76.836q-.233,7.37-.523,10.708a14.359,14.359,0,0,1-.878,4.508,1.876,1.876,0,0,1-1.756,1.17h-4.213q-1.645,0-2.048-.761a10.271,10.271,0,0,1-.415-3.8V61.617H180.477V49.562H163.384V61.617H134.125V77.3h26.339q-7.38,13.58-35.821,20.132,3.048,3.043,6.318,7.021A53.319,53.319,0,0,1,136,111.478q20.479-5.031,30.438-13.869Q176.376,88.77,179.19,77.3h13.46V88.892q0,8.193,1.579,12.7a11.049,11.049,0,0,0,5.211,6.435q3.623,1.935,10.3,1.934h9.481q5.858,0,9.247-2.282t5.326-7.843q1.931-5.559,2.752-15.745a74.693,74.693,0,0,1-8.955-3.157A25.623,25.623,0,0,1,220.5,76.836Z" transform="translate(3.505 107.548)" fill="#fff500"/>
        <path id="Path_99" data-name="Path 99" d="M230.383,43.591H187.544V33.758H169.985v9.833H127.853V69.227h17.086V58.69h10.3a24.028,24.028,0,0,1-3.4,9.659q-2.453,3.685-8.717,6.435t-17.964,4.508a37.794,37.794,0,0,1,5.031,6.555,34.917,34.917,0,0,1,3.63,7.256q14.745-2.81,22.941-7.434t11.643-11a46.615,46.615,0,0,0,4.742-15.977h10.182V71.918q0,7.142,1.4,11a9.416,9.416,0,0,0,5.091,5.557q3.685,1.7,10.946,1.7h11.238a20.688,20.688,0,0,0,8.483-1.465,10.49,10.49,0,0,0,5.034-5.031,33.407,33.407,0,0,0,2.748-10.125,66.314,66.314,0,0,1-7.6-2.4,34.345,34.345,0,0,1-6.552-3.1h16.265Zm-17.73,30.375a2.514,2.514,0,0,1-2.52,1.347h-6.555q-2.221,0-2.805-.586t-.586-3.043V58.69h12.176v9.364h1.284A20.681,20.681,0,0,1,212.653,73.966Z" transform="translate(4.629 73.254)" fill="#fff500"/>
        <path id="Path_100" data-name="Path 100" d="M236.284,67.69h24.228v-15.8h-97.5v15.8h25.166a141.7,141.7,0,0,1-6.9,17.676l-3.512.117q-4.684.233-14.4.466l2.229,16.623,6.67-.355q37.921-1.64,68.592-3.4a73.755,73.755,0,0,1,4.213,6.907l15.92-9.6a106.61,106.61,0,0,0-10.594-14.043A170.256,170.256,0,0,0,236.284,67.69ZM228.79,83.727,200.229,84.78q2.929-5.268,8.9-17.089H231.95l-12.407,6.438Q224.227,78.579,228.79,83.727Z" transform="translate(86.758 112.595)" fill="#fff500"/>
        <path id="Path_101" data-name="Path 101" d="M225.226,33.87H207.2q-6.662,10.532-19.543,21.3A108.679,108.679,0,0,1,160.5,72.024a62.183,62.183,0,0,1,5.56,6.907,53.149,53.149,0,0,1,4.5,7.373,127.941,127.941,0,0,0,19.2-11v8.664h54.3v-9.6a129.952,129.952,0,0,0,18.849,10.651q6.434-10.884,11-15.568a98.255,98.255,0,0,1-26.8-13.812A98.156,98.156,0,0,1,225.226,33.87ZM199.008,68.4a105.876,105.876,0,0,0,17.907-18.259q6.443,8.778,18.728,18.259Z" transform="translate(81.309 73.497)" fill="#fff500"/>
        <path id="Path_102" data-name="Path 102" d="M214.973,39.694a12.7,12.7,0,0,0-4.812-4.809,13.331,13.331,0,0,0-6.7-1.721,13.5,13.5,0,0,0-6.733,1.721,12.64,12.64,0,0,0-4.841,4.809,14.433,14.433,0,0,0,0,13.881,12.87,12.87,0,0,0,4.841,4.837,13.324,13.324,0,0,0,6.733,1.75,13.162,13.162,0,0,0,6.7-1.75,12.933,12.933,0,0,0,4.812-4.837,14.433,14.433,0,0,0,0-13.881Zm-4.606,14.319a10.012,10.012,0,0,1-13.821,0,10.239,10.239,0,0,1-2.65-7.38,10.122,10.122,0,0,1,2.65-7.345,10.079,10.079,0,0,1,13.821,0,10.11,10.11,0,0,1,2.653,7.345A10.227,10.227,0,0,1,210.367,54.013Z" transform="translate(145.553 71.965)" fill="#fff500"/>
        <path id="Path_103" data-name="Path 103" d="M203.493,41.837a4.052,4.052,0,0,0,.583-2.13,3.824,3.824,0,0,0-1.487-3.265,6.435,6.435,0,0,0-3.937-1.106h-6.064V48.4h4.023V44.49h1.75l1.981,3.905h4.14l-2.739-5.072A3.789,3.789,0,0,0,203.493,41.837Zm-4.2-.583a2.037,2.037,0,0,1-1.458.495h-1.224V38.308h1.284a2.011,2.011,0,0,1,1.43.466A1.6,1.6,0,0,1,199.819,40,1.644,1.644,0,0,1,199.292,41.253Z" transform="translate(150.941 76.676)" fill="#fff500"/>
        <path id="Path_104" data-name="Path 104" d="M197.415,71.514a1.481,1.481,0,0,1-1.122.346q-4.218,0-6.552-.1c.659,1.515,1.284,3.192,1.886,5.034a33.438,33.438,0,0,1,1.255,5.034q4.845,0,7.719-.295a13.141,13.141,0,0,0,5.024-1.48,6.966,6.966,0,0,0,3.319-3.357,16.4,16.4,0,0,0,.9-6.216V30.108H194.41l-1.081-.593a172.154,172.154,0,0,0,15.888-11.742l-7.361-7.4-2.691.688H159.588v9.672h11.577l-5.921,6.121,7.177,3.256H156.985V81.924H168.92v-15.3h8.169V80.542h11.932V66.626h8.7v3.753A1.687,1.687,0,0,1,197.415,71.514Zm-20.326-14.56H168.92V53.4h8.169Zm0-13.225H168.92V40.274h8.169Zm6.457-19.245-8.074-3.753h13.013Zm5.475,15.79h8.7V43.73h-8.7Zm0,16.68V53.4h8.7v3.55Z" transform="translate(73.684 22.507)" fill="#fff500"/>
        <path id="Path_105" data-name="Path 105" d="M147.9,59.882l6.521,1.068,10.984-25.3c.174,8.369.146,22.408-1.629,30.226l.016-.013q-2.42,13.523-9.332,21.911a31.368,31.368,0,0,1,4.8,4.343,35.42,35.42,0,0,1,4.352,5.332q7.893-9.182,10.86-23.642a149.615,149.615,0,0,0,2.961-30.054V24.217h59.228V11.978H206.15V3.127H192.329v8.851H165.318v20.38c.019.558.035,1.189.051,1.851L157.308,32.6l5.478-14.582-12.448-2.311L146.2,35.971l8.787,1.782Z" transform="translate(50.274 6.785)" fill="#fff500"/>
        <path id="Path_106" data-name="Path 106" d="M109.579,48.555q20.736-1.678,31.056-2.764a68.75,68.75,0,0,1,3.319,8.093l12.207-7.4a107.357,107.357,0,0,0-7.316-14.458,142.191,142.191,0,0,0-10-14.854L127.35,23.385q3.233,4.541,6.283,9.576L117.39,34.046Q123.22,21.017,128.158,6.9L112.99,3.354q-1.522,7.4-4.127,15.888t-5.474,15.6c-4.365.263-7.3.428-8.79.491L96.12,49.737Z" transform="translate(-61.694 7.278)" fill="#fff500"/>
        <path id="Path_107" data-name="Path 107" d="M142.925,61.416V19.668H96.891V61.813h12.651V57.961h20.1v3.455ZM109.542,44.838V32.795h20.1V44.838Z" transform="translate(-56.718 42.679)" fill="#fff500"/>
        <path id="Path_108" data-name="Path 108" d="M157.246,51.33h9.37v-15.8H108.089v15.8h7.256v26.1H105.163V93.468H115q-1.869,26.808-12.876,38.978a51.784,51.784,0,0,1,6.733,4.565,55.143,55.143,0,0,1,6.026,5.269q14.165-15.1,16.037-48.811H141.1v47.755h16.148V93.468h11.71V77.435h-11.71ZM141.1,77.435h-9.83V51.33h9.83Z" transform="translate(-45.371 77.101)" fill="#fff500"/>
        <path id="Path_109" data-name="Path 109" d="M119.661,110.82H108.494l6.267-20.953h27.027V74.534h-39.06l8.518-28.565,7.56-23.464L89.769,17.341,87.546,29.168l13.789,2.78L94.619,58.985,87.676,85.5l10.569-.387L84.218,191.971l21.619-72.266-.919,24.364v31.009h13.929v-8.312h21.885V110.82H119.661ZM126.34,151.9h-7.494V125.684h7.494Z" transform="translate(-84.218 37.629)" fill="#fff500"/>
        <path id="Path_110" data-name="Path 110" d="M128.838,25.769a14.379,14.379,0,0,0-4.539,1.138,11.387,11.387,0,0,0-2.878,1.724c-.615.555-.935.853-.967.884V21.36h-6.774V37.777h6.407a27.372,27.372,0,0,1,3.452-2.939,12.705,12.705,0,0,1,4.7-2.13,6.674,6.674,0,0,1,4.1.279,5.008,5.008,0,0,1,2.165,2.1,5.916,5.916,0,0,1,.735,2.837,5.149,5.149,0,0,1-.666,2.913,5.294,5.294,0,0,1-2.628,2.156,14.986,14.986,0,0,1-5.595.834,53.393,53.393,0,0,1-9.58-1.037v7.7q12.62,2.125,19-1.268T142.1,37.977a14.412,14.412,0,0,0-1.566-6.66,10.127,10.127,0,0,0-4.584-4.384A13.174,13.174,0,0,0,128.838,25.769Z" transform="translate(-20.289 46.35)" fill="#fff500"/>
        <path id="Path_111" data-name="Path 111" d="M119.506,25.787c1.335-.051,2.742-.057,4.213-.025a33.189,33.189,0,0,1,4.352.406q2.24.357,3.779.71a13.639,13.639,0,0,1,1.588.406V19.127c-.029,0-.536-.086-1.518-.254s-2.2-.339-3.661-.507-2.926-.285-4.4-.355-2.894-.092-4.26-.076-2.5.044-3.386.076-1.354.051-1.385.051v7.953q.047,0,1.36-.076C117.062,25.889,118.168,25.841,119.506,25.787Z" transform="translate(-17.798 38.909)" fill="#fff500"/>
        <path id="Path_112" data-name="Path 112" d="M130.836,51.193q1.331-4.864,4.6-20.621H142.4V22.923h-5.849q.138-1.417.78-5.268h-6.448c0,.032-.054.539-.162,1.518s-.285,2.228-.529,3.75h-5.8v7.649h4.562q-.789,4.917-4.793,20.621Z" transform="translate(2.442 38.311)" fill="#fff500"/>
        <path id="Path_113" data-name="Path 113" d="M130.013,38.708q-2.877,2.967-2.923,8.182a11.2,11.2,0,0,0,1.5,6.283,7.98,7.98,0,0,0,3.639,3.091,10.311,10.311,0,0,0,4.352.761,8.729,8.729,0,0,0,3.363-.685,6.09,6.09,0,0,0,2.834-2.634,11.441,11.441,0,0,0,1.173-5.8V44.61a15.031,15.031,0,0,1,2.492,1.369q1.284.861,2.992,2.178V39.9c-.063-.067-.644-.415-1.753-1.04a28.887,28.887,0,0,0-3.731-1.747V27.03q2.306.052,3.756.152c.967.07,1.468.1,1.5.1v-7.8a12.452,12.452,0,0,0-1.7-.152q-1.659-.1-4.216-.152a42.518,42.518,0,0,0-5.367.254L137.96,36.1Q132.9,35.747,130.013,38.708Zm7.947,8.537a4.278,4.278,0,0,1-.346,1.873,1.2,1.2,0,0,1-1.037.761,3.907,3.907,0,0,1-2.831-.659,3.085,3.085,0,0,1-.992-2.685,4.016,4.016,0,0,1,1.43-2.939,4.6,4.6,0,0,1,3.775-.656Z" transform="translate(8.813 41.6)" fill="#fff500"/>
        <path id="Path_114" data-name="Path 114" d="M145.59,37.189q.414,5.069.437,9.323t0,5.345c-.016.729-.022,1.125-.022,1.192h6.955a158.814,158.814,0,0,0-.713-19.784q-.856-6.866-1.775-10.943t-.967-4.08h-7.139a57.764,57.764,0,0,1,2.048,8.942Q145.175,32.125,145.59,37.189Z" transform="translate(41.961 39.585)" fill="#fff500"/>
        <path id="Path_115" data-name="Path 115" d="M144.332,57a11.617,11.617,0,0,0,4.077-1.243,13.022,13.022,0,0,0,2.672-1.823,10.6,10.6,0,0,1,.989-.888v-8.41c-.06.035-.5.4-1.335,1.09a28.061,28.061,0,0,1-2.878,2.076,6.076,6.076,0,0,1-2.926,1.087q-1.151-.147-1.5-2.634a49.223,49.223,0,0,1-.345-6.483q.048-3.091.117-6.765T143.365,26q.09-3.347.184-5.5t.092-2.254H136.73q0,.1-.07,2.485t-.136,6.051q-.071,3.676-.1,7.652t-.022,7.218q0,7.955,1.959,11.83T144.332,57Z" transform="translate(29.03 39.585)" fill="#fff500"/>
        <path id="Path_116" data-name="Path 116" d="M182.5,56.2a6.676,6.676,0,0,0,4.584-2.637,22.8,22.8,0,0,0,3.525-5.975,41.016,41.016,0,0,0,2.209-6.892l.047-.1c.644.273,1.306.567,1.981.888s1.366.666,2.073,1.037a79.875,79.875,0,0,1-2.235,8.486q-1.174,3.523-2.029,5.424t-.85,1.95h7.37a38.437,38.437,0,0,0,2.165-5.979q.87-3.191,1.474-6.536,2.211,1.322,3.547,2.206c.888.59,1.35.9,1.382.935V39.889a11.986,11.986,0,0,1-1.037-.634c-.659-.425-1.575-.954-2.742-1.6q.366-3.39.529-6.131t.162-4.33V25.548h-6.08c0,1.588-.041,3.141-.114,4.663s-.193,3.005-.346,4.457a36.739,36.739,0,0,0-4.007-1.721q.456-4.1.666-7.472t.231-5.4q.024-2.026.022-2.076H177.71v8.106h10.825c-.032.71-.076,1.556-.136,2.533s-.155,2.01-.279,3.091a11.879,11.879,0,0,0-5.367,1.6,14.87,14.87,0,0,0-4.422,3.95,12.238,12.238,0,0,0-2.374,5.852q-.595,5.929,1.176,9.475A5.822,5.822,0,0,0,182.5,56.2Zm-.875-12.059a10.758,10.758,0,0,1,.808-2.079,5.65,5.65,0,0,1,1.728-2.026,4.33,4.33,0,0,1,2.669-.859c0,.032-.092.5-.276,1.392s-.444,1.918-.783,3.065a13.778,13.778,0,0,1-1.268,3.04,2.273,2.273,0,0,1-1.772,1.366c-.308,0-.621-.32-.945-.96A5,5,0,0,1,181.625,44.143Z" transform="translate(114.529 39.059)" fill="#fff500"/>
        <path id="Path_117" data-name="Path 117" d="M191.912,52.979a7.421,7.421,0,0,0,4.121,1.544,5.671,5.671,0,0,0,4.882-2.381,20.789,20.789,0,0,0,3.227-6.685,44.989,44.989,0,0,0,1.728-9.221q.437-5.016.577-9.931a6,6,0,0,1,4.514,3.268,15.411,15.411,0,0,1,1.61,6.765q.047,6.533-2.21,9.9a7.434,7.434,0,0,1-6.175,3.522v7.6a14.657,14.657,0,0,0,10.02-4.33,16.73,16.73,0,0,0,3.779-6.41,28.237,28.237,0,0,0,1.36-9.83,24.236,24.236,0,0,0-2.72-10.993,14.208,14.208,0,0,0-6.242-6.1,16.169,16.169,0,0,0-8.315-1.446,13.689,13.689,0,0,0-7.51,3.268,19.766,19.766,0,0,0-5.3,7.4,26.568,26.568,0,0,0-2.073,10.21,25.19,25.19,0,0,0,1.4,9.066A10.834,10.834,0,0,0,191.912,52.979Zm1.725-13.856a22.74,22.74,0,0,1,.808-4.99,17.008,17.008,0,0,1,2.073-4.79,6.892,6.892,0,0,1,3.385-2.888q.043,2.839-.162,6.283t-.643,6.613a26.931,26.931,0,0,1-1.154,5.192q-.713,2.026-1.772,1.975c-.8-.067-1.442-.685-1.937-1.848A14.053,14.053,0,0,1,193.637,39.123Z" transform="translate(139.225 39.473)" fill="#fff500"/>
      </g>
      <g id="Group_39" data-name="Group 39" transform="translate(0 2.121)">
        <g id="Group_38" data-name="Group 38">
          <path id="Path_118" data-name="Path 118" d="M48.4,64.862a48.847,48.847,0,0,0,1.582,8.819q3.224,10.38,4.577,12.826a32.485,32.485,0,0,0,6.692,8.251,21.264,21.264,0,0,0,6.53,3.88,22.429,22.429,0,0,0,8.562,1.756A28.976,28.976,0,0,0,91.4,96.267q6.947-4.118,11.158-14.008t4.2-25.731q0-6.533-.824-17.723l-.377-1.553a33.707,33.707,0,0,1-.751-3.347q-2.782-13.4-10.626-20.424T74.464,6.459A20.6,20.6,0,0,0,62.9,9.765a25.175,25.175,0,0,0-7.589,7.313A46.613,46.613,0,0,0,49.231,31.9a90.96,90.96,0,0,0-1.807,19.562,66.617,66.617,0,0,0,.526,10.052C48.055,62.168,48.2,63.284,48.4,64.862Z" transform="translate(102.908 11.895)" fill="#fff500"/>
          <path id="Path_119" data-name="Path 119" d="M21.063,86.622c4.879.6,10.093-.732,13.25-4.673A19.356,19.356,0,0,0,38.15,69.929a23.784,23.784,0,0,0-5.687-16.135Q28.5,49.124,21.206,49.121c-.149,0-.311.025-.463.029l-9.05,31c.155.39.276.8.469,1.173C13.795,84.5,17.637,86.2,21.063,86.622Z" transform="translate(25.373 104.47)" fill="#fff500"/>
          <path id="Path_120" data-name="Path 120" d="M37.623,116.016l-22.6,2.526L27.573.669H0V218.053H19.148Z" transform="translate(0 -0.669)" fill="#fff500"/>
          <path id="Path_121" data-name="Path 121" d="M37.88,58.021A17.911,17.911,0,0,0,32,63.312,9.076,9.076,0,0,0,30.814,68.1a5.913,5.913,0,0,0,1.537,4.2A4.712,4.712,0,0,0,35.9,73.95a8.543,8.543,0,0,0,5.611-1.889q3.138-2.544,3.664-4.048t.533-8.543q0-2.6-.235-5.2A36.758,36.758,0,0,0,37.88,58.021Z" transform="translate(66.865 115.639)" fill="#fff500"/>
          <path id="Path_122" data-name="Path 122" d="M35.144.669,31.467,22.887c3.5,3.744,6.613,7.189,9.247,10.264q7.056,8.255,51.537,57.754V88.861l-.295-9.475q-.214-8.331-.58-13.193t-.437-11.6q-.071-6.733-.51-12.211-.875-10.7-.872-12.334c-.054-3.538-.39-5.69-1.024-6.451q-1.522-1.8-6.987-2.7a19.26,19.26,0,0,1-5.966-1.877l.07-4.822,1.9-.244,14.338-.491,16.015-.491c1.065-.051,2.086-.079,3.056-.079l.076,5.31a14.484,14.484,0,0,1-3.427,1.471,28.719,28.719,0,0,0-5.383,1.715,22.242,22.242,0,0,0-4,2.859,5.505,5.505,0,0,0-.656,3.021c0,.327.048,1.468.149,3.43q.071,1.474.07,6.863.071,11.845.586,18.706.138,2.206.216,4.983l.8,28.669c.048,2.016.07,3.43.07,4.251v10.046l.219,4.245-.219,4.413c.2,2.235.295,3.566.295,4v4.33l-8.369.323-8.667-10.046L65.024,91.8,52.652,77.918l-9.1-10.458q-8.877-9.8-16.157-17.235l-.387-.39L20.455,89.45l26.561-2.71L29.549,146.563a40.177,40.177,0,0,1,7.231-.694,19.031,19.031,0,0,1,10.7,3.072c.235.158.571.377,1,.653A18.107,18.107,0,0,1,52.8,153.67a30.846,30.846,0,0,1,4.254,8.277,25.083,25.083,0,0,1,1,7.684,29.83,29.83,0,0,1-1.594,10.4,27.313,27.313,0,0,1-5.5,8.568,23.349,23.349,0,0,1-8.366,6.15,24.461,24.461,0,0,1-9.37,1.832,34.5,34.5,0,0,1-6.914-.59,43.961,43.961,0,0,1-9.922-4.381L8.675,218.052H225.5V.669Zm75.832,43.593a48.619,48.619,0,0,1,7.367-13.476,49.787,49.787,0,0,1,11.872-10.908,50.864,50.864,0,0,1,14.582-6.86,61.575,61.575,0,0,1,16.611-2.086q15.625,0,27.129,6.372A48.062,48.062,0,0,1,206.652,34.54,56.375,56.375,0,0,1,215.217,64.2q0,23.114-14.468,39.615T160.5,120.31a75.329,75.329,0,0,1-11.948-.9,39.291,39.291,0,0,1-7.367-1.8q-5.711-2.035-6.391-2.365a63.933,63.933,0,0,1-13.152-10.375,53.494,53.494,0,0,1-8.419-12.008q-1.873-3.756-4.276-13.558a62.92,62.92,0,0,1,2.026-35.044Zm28.58,85.671a8.184,8.184,0,0,1-.78,3.42,6.2,6.2,0,0,1-2.466,2.742,6.521,6.521,0,0,1-3.446,1.03,6.185,6.185,0,0,1-4.454-2.06,6.791,6.791,0,0,1-2.035-4.929,5.975,5.975,0,0,1,1.763-4.454,6.174,6.174,0,0,1,4.527-1.737,6.925,6.925,0,0,1,4.929,1.839A5.573,5.573,0,0,1,139.556,129.934Zm-28.308,63.783a8.489,8.489,0,0,1-5.731,1.981,9.608,9.608,0,0,1-6-1.921q-2.511-1.921-4.574-6.768a16.412,16.412,0,0,1-7.155,6.768,25.34,25.34,0,0,1-11.291,2.276q-6.153,0-9.047-2.571a8.62,8.62,0,0,1-2.9-6.768,10.065,10.065,0,0,1,.859-3.962,13.364,13.364,0,0,1,2.777-3.988,27.355,27.355,0,0,1,6.178-4.346q.647-.357,4.492-2.01L93.57,166.5q.181-2.249.178-4.552,0-7.984-1.946-10.876c-.792-1.182-2.168-1.775-4.14-1.775a13.038,13.038,0,0,0-5.436,1.125,8,8,0,0,0-3.607,2.894,14.561,14.561,0,0,0-1.42,4.907,8.869,8.869,0,0,1-.767,3.015,7.565,7.565,0,0,1-3.218,2.038q-2.339.918-3.167,1.331a12.7,12.7,0,0,1-5.081,1.537,2.5,2.5,0,0,1-.827-2.01,11.237,11.237,0,0,1,1.42-5.792,25.2,25.2,0,0,1,6.413-6.654,30.3,30.3,0,0,1,8.007-4.52,40.475,40.475,0,0,1,12.414-1.655,17.645,17.645,0,0,1,8.128,1.743,9.576,9.576,0,0,1,4.73,5.17q1.331,3.428,1.328,12.357l-.12,9.751.12,7.155v1.832a6.183,6.183,0,0,0,.666,3.4,2.04,2.04,0,0,0,1.718.916,1.755,1.755,0,0,0,1.1-.355l1.775-2.777,1.065-.415,1.357.888a1.671,1.671,0,0,1,.65,1l.06.295Q113.553,191.735,111.249,193.717Zm37.352,1.626q-1.593.062-2.362.06c-.59,0-1.49-.038-2.71-.117q-6.02-.295-16.11-.295c-1.921,0-3.794.067-5.6.206s-3.046.206-3.718.206l-.114-3.842,6.676-.888a3.575,3.575,0,0,0,2.038-1.214,7.2,7.2,0,0,0,.561-3.573v-.653q0-.709.092-2.571t.086-3.278q0-1.122-.178-4.318l.092-2.954-.092-2.78.178-9.63a21.357,21.357,0,0,0-.352-3.788,5.184,5.184,0,0,0-2.387-1.534,23.8,23.8,0,0,0-6-.948v-3.309a28.653,28.653,0,0,0,10.7-2.539,24.812,24.812,0,0,0,6.8-5.024h3.956q.238,7.327.241,19.032l-.418,24.117a38.456,38.456,0,0,0,.241,4.492,36.984,36.984,0,0,0,5.969,1.3,13.15,13.15,0,0,1,2.542.59Zm66.858.355-11.586-.827-3.43.12h-2.72l-7.8.529h-2.013q-.057-.742-.057-1.141c0-.688.038-1.43.117-2.232q.827-.176,4.14-.593a14.465,14.465,0,0,0,1.946-.412c.792-.317,1.243-.634,1.363-.951a10.481,10.481,0,0,0,.469-3.845q0-4.969-.057-7.636l.057-6.863q0-12.491-1.588-15.568-2.244-4.441-6.72-4.441a15.835,15.835,0,0,0-6.841,1.686,30.719,30.719,0,0,0-7.31,5.123l-.12,1,.12,3.725-.12,3.959.241,9.459-.12,1.477q0,9.638.777,10.879t5.9,2.764a6.071,6.071,0,0,1-.238,3.664q-1.835.062-3.081.06a29.66,29.66,0,0,1-3.909-.4l-6.337-.13q-4.736,0-13.682.412a3.2,3.2,0,0,1-.238-1.22c0-.311.019-.932.06-1.864a12.032,12.032,0,0,1,2.837-.945,14.865,14.865,0,0,0,3.782-.888,2.7,2.7,0,0,0,1.186-1.3,23.326,23.326,0,0,0,.355-5.211v-5.148l.057-4.2-.178-6.216V164.8a25.926,25.926,0,0,0-.59-6.1,3.512,3.512,0,0,0-1.477-1.778,19.5,19.5,0,0,0-5.617-2.308l-.06-2.837a9.206,9.206,0,0,1,1.388-.323q.623-.09,4.758-1.154,3.252-1.179,4.2-1.655c.2-.117.514-.295.945-.533a19.389,19.389,0,0,1,1.6-1.179,23.283,23.283,0,0,0,4.257-4.314l3.189-.238-.114,6.679a13.694,13.694,0,0,0-.12,1.6c0,.317.038,1.22.12,2.717a33.977,33.977,0,0,1,8.908-5.909,25.964,25.964,0,0,1,9.973-2.187,17.324,17.324,0,0,1,9.738,2.752A13.134,13.134,0,0,1,207.3,154.4q1.3,3.609,1.3,14.566l-.238,19.308a4.746,4.746,0,0,0,.475,2.251,10.7,10.7,0,0,0,3.246.834l2.9.558a3.139,3.139,0,0,1,.533,1.861Q215.515,194.476,215.458,195.7Z" transform="translate(18.824 -0.669)" fill="#fff500"/>
        </g>
      </g>
    </g>
  </g>
</svg>
