<svg xmlns="http://www.w3.org/2000/svg" width="242.314" height="88.412" viewBox="0 0 242.314 88.412">
  <g id="よこ" transform="translate(121.157 44.206)">
    <g id="Group_28" data-name="Group 28" transform="translate(-121.157 -44.206)">
      <g id="Group_25" data-name="Group 25" transform="translate(102.801)">
        <path id="Path_15" data-name="Path 15" d="M94.694,10.094,87.82,8.872l-1.426,7.584,6.2,1.1Z" transform="translate(-83.738 1.958)" fill="#070304"/>
        <path id="Path_16" data-name="Path 16" d="M95.653,7.388,89.5,0l-1,5.375-.508,2.7L95.1,9.341Z" transform="translate(-83.387)" fill="#070304"/>
        <path id="Path_17" data-name="Path 17" d="M161.557,60.065q-.09,2.838-.2,4.123a5.53,5.53,0,0,1-.338,1.736.722.722,0,0,1-.676.45h-1.622q-.634,0-.789-.293a3.955,3.955,0,0,1-.16-1.465V54.2H146.143V49.562h-6.582V54.2H128.295v6.04h10.142Q135.6,65.473,124.644,68q1.174,1.172,2.433,2.7a20.531,20.531,0,0,1,1.938,2.7q7.886-1.937,11.721-5.34a15.231,15.231,0,0,0,4.912-7.82h5.183v4.463a15.445,15.445,0,0,0,.608,4.89,4.255,4.255,0,0,0,2.007,2.478,8.56,8.56,0,0,0,3.965.745h3.651a6.3,6.3,0,0,0,3.561-.879,5.761,5.761,0,0,0,2.051-3.02,25.6,25.6,0,0,0,1.06-6.063,28.76,28.76,0,0,1-3.448-1.216A9.867,9.867,0,0,1,161.557,60.065Z" transform="translate(-75.298 10.936)" fill="#070304"/>
        <path id="Path_18" data-name="Path 18" d="M165.679,37.544h-16.5V33.758h-6.761v3.786H126.2v9.871h6.579V43.358h3.967a9.253,9.253,0,0,1-1.309,3.719,7.542,7.542,0,0,1-3.357,2.478,28.408,28.408,0,0,1-6.917,1.736,14.553,14.553,0,0,1,1.937,2.524,13.447,13.447,0,0,1,1.4,2.794,29.661,29.661,0,0,0,8.834-2.862,11.071,11.071,0,0,0,4.483-4.237,17.95,17.95,0,0,0,1.826-6.152h3.921v5.094a12.95,12.95,0,0,0,.541,4.237,3.626,3.626,0,0,0,1.96,2.14,10.476,10.476,0,0,0,4.215.654H158.6a7.966,7.966,0,0,0,3.266-.564,4.039,4.039,0,0,0,1.938-1.937,12.865,12.865,0,0,0,1.058-3.9,25.535,25.535,0,0,1-2.928-.924,13.224,13.224,0,0,1-2.523-1.2h6.263Zm-6.827,11.7a.968.968,0,0,1-.97.519h-2.524a1.677,1.677,0,0,1-1.08-.226,1.888,1.888,0,0,1-.226-1.172v-5h4.689v3.606h.494A7.964,7.964,0,0,1,158.852,49.241Z" transform="translate(-75.183 7.449)" fill="#070304"/>
        <path id="Path_19" data-name="Path 19" d="M191.225,57.973h9.329V51.888H163.01v6.085H172.7a54.565,54.565,0,0,1-2.659,6.806l-1.352.045q-1.8.09-5.545.179l.858,6.4,2.568-.137q14.6-.632,26.413-1.307a28.4,28.4,0,0,1,1.622,2.66l6.13-3.7a41.053,41.053,0,0,0-4.079-5.408A65.559,65.559,0,0,0,191.225,57.973Zm-2.886,6.175-11,.405q1.128-2.029,3.426-6.581h8.789l-4.778,2.479Q186.583,62.166,188.34,64.148Z" transform="translate(-66.832 11.449)" fill="#070304"/>
        <path id="Path_20" data-name="Path 20" d="M185.424,33.87h-6.942a36.449,36.449,0,0,1-7.525,8.2A41.849,41.849,0,0,1,160.5,48.562a23.944,23.944,0,0,1,2.141,2.66,20.463,20.463,0,0,1,1.735,2.839,49.264,49.264,0,0,0,7.394-4.237V53.16h20.911v-3.7a50.038,50.038,0,0,0,7.258,4.1,33.306,33.306,0,0,1,4.237-5.995,38.454,38.454,0,0,1-18.75-13.7Zm-10.1,13.3a40.77,40.77,0,0,0,6.9-7.031,36.753,36.753,0,0,0,7.212,7.031Z" transform="translate(-67.386 7.474)" fill="#070304"/>
        <path id="Path_21" data-name="Path 21" d="M199.681,35.679a4.89,4.89,0,0,0-1.853-1.852,5.134,5.134,0,0,0-2.582-.663,5.2,5.2,0,0,0-2.593.663,4.867,4.867,0,0,0-1.864,1.852,5.558,5.558,0,0,0,0,5.345,4.956,4.956,0,0,0,1.864,1.863,5.131,5.131,0,0,0,2.593.674,5.068,5.068,0,0,0,2.582-.674,4.98,4.98,0,0,0,1.853-1.863,5.558,5.558,0,0,0,0-5.345Zm-1.774,5.514a3.855,3.855,0,0,1-5.322,0,3.943,3.943,0,0,1-1.02-2.842,3.9,3.9,0,0,1,1.02-2.828,3.881,3.881,0,0,1,5.322,0,3.893,3.893,0,0,1,1.022,2.828A3.938,3.938,0,0,1,197.907,41.192Z" transform="translate(-60.853 7.318)" fill="#070304"/>
        <path id="Path_22" data-name="Path 22" d="M196.787,37.839a1.56,1.56,0,0,0,.225-.82,1.472,1.472,0,0,0-.573-1.257,2.478,2.478,0,0,0-1.516-.426h-2.335v5.029h1.549v-1.5h.674l.763,1.5h1.594l-1.055-1.953A1.459,1.459,0,0,0,196.787,37.839Zm-1.617-.225a.784.784,0,0,1-.562.19h-.471V36.48h.494a.774.774,0,0,1,.551.179.618.618,0,0,1,.19.471A.633.633,0,0,1,195.17,37.614Z" transform="translate(-60.306 7.797)" fill="#070304"/>
        <path id="Path_23" data-name="Path 23" d="M172.553,33.916a.57.57,0,0,1-.432.133q-1.624,0-2.523-.039c.254.583.494,1.229.726,1.938a12.877,12.877,0,0,1,.483,1.938q1.866,0,2.972-.114a5.06,5.06,0,0,0,1.935-.57,2.682,2.682,0,0,0,1.278-1.293,6.316,6.316,0,0,0,.345-2.394V17.972H171.4l-.416-.228a66.294,66.294,0,0,0,6.118-4.521l-2.834-2.85-1.036.265h-15.24v3.724h4.458l-2.28,2.357,2.764,1.254h-5.943V37.925h4.6V32.034h3.146v5.359h4.595V32.034h3.352v1.445A.649.649,0,0,1,172.553,33.916Zm-7.827-5.606h-3.146V26.942h3.146Zm0-5.093h-3.146V21.886h3.146Zm2.486-7.411L164.1,14.361h5.011Zm2.108,6.08h3.352v1.331h-3.352Zm0,6.423V26.942h3.352V28.31Z" transform="translate(-68.162 2.289)" fill="#070304"/>
        <path id="Path_24" data-name="Path 24" d="M146.852,24.982l2.511.411,4.23-9.741c.067,3.223.056,8.629-.627,11.639l.006,0a18,18,0,0,1-3.594,8.437,12.078,12.078,0,0,1,1.849,1.672,13.641,13.641,0,0,1,1.676,2.053,19.78,19.78,0,0,0,4.182-9.1,57.611,57.611,0,0,0,1.14-11.573V11.248h22.807V6.535H169.283V3.127h-5.322V6.535h-10.4v7.848c.007.215.013.458.02.713l-3.1-.619,2.109-5.615-4.794-.89-1.594,7.8,3.384.686Z" transform="translate(-70.542 0.69)" fill="#070304"/>
        <path id="Path_25" data-name="Path 25" d="M100.367,20.759q7.985-.646,11.959-1.064a26.466,26.466,0,0,1,1.278,3.116l4.7-2.85a41.341,41.341,0,0,0-2.817-5.567,54.759,54.759,0,0,0-3.852-5.72l-4.425,2.394q1.245,1.749,2.419,3.688l-6.255.417q2.245-5.017,4.147-10.451L101.68,3.354q-.586,2.849-1.589,6.118t-2.108,6.006c-1.681.1-2.811.165-3.385.189l.586,5.548Z" transform="translate(-81.928 0.74)" fill="#070304"/>
        <path id="Path_26" data-name="Path 26" d="M114.617,35.744V19.668H96.891V35.9h4.872V34.414h7.74v1.331ZM101.763,29.36V24.723h7.74V29.36Z" transform="translate(-81.422 4.34)" fill="#070304"/>
        <path id="Path_27" data-name="Path 27" d="M123.347,41.615h3.608V35.531H104.419v6.084h2.794V51.667h-3.921v6.174h3.786q-.72,10.323-4.958,15.009a19.94,19.94,0,0,1,2.593,1.758,21.231,21.231,0,0,1,2.32,2.029q5.454-5.815,6.175-18.8h3.921V76.23h6.218V57.841h4.509V51.667h-4.509Zm-6.218,10.052h-3.785V41.615h3.785Z" transform="translate(-80.268 7.84)" fill="#070304"/>
        <path id="Path_28" data-name="Path 28" d="M97.866,53.337h-4.3l2.413-8.069h10.407v-5.9H91.345l3.28-11,2.911-9.035L86.355,17.341,85.5,21.9l5.31,1.071L88.223,33.377,85.55,43.589l4.07-.149-5.4,41.146,8.325-27.827-.354,9.382v11.94h5.364v-3.2h8.427V53.337H97.866Zm2.572,15.82H97.552v-10.1h2.886Z" transform="translate(-84.218 3.826)" fill="#070304"/>
        <path id="Path_29" data-name="Path 29" d="M119.516,23.058a5.537,5.537,0,0,0-1.748.438,4.385,4.385,0,0,0-1.108.664c-.237.214-.36.328-.372.341V21.36h-2.609v6.322h2.467a10.54,10.54,0,0,1,1.329-1.132,4.892,4.892,0,0,1,1.81-.82,2.57,2.57,0,0,1,1.578.107,1.928,1.928,0,0,1,.834.809,2.278,2.278,0,0,1,.283,1.092,1.983,1.983,0,0,1-.256,1.122,2.039,2.039,0,0,1-1.012.83,5.771,5.771,0,0,1-2.154.321,20.56,20.56,0,0,1-3.689-.4v2.965q4.859.818,7.317-.488a4.491,4.491,0,0,0,2.439-4.331,5.549,5.549,0,0,0-.6-2.565,3.9,3.9,0,0,0-1.765-1.688A5.073,5.073,0,0,0,119.516,23.058Z" transform="translate(-77.717 4.713)" fill="#070304"/>
        <path id="Path_30" data-name="Path 30" d="M116.629,20.956c.514-.02,1.056-.022,1.622-.01a12.78,12.78,0,0,1,1.676.156q.862.137,1.455.273a5.25,5.25,0,0,1,.612.156V18.391c-.011,0-.206-.033-.585-.1s-.848-.131-1.41-.2-1.127-.11-1.694-.137-1.114-.035-1.641-.029-.962.017-1.3.029l-.533.02v3.063l.524-.029C115.688,20.995,116.114,20.977,116.629,20.956Z" transform="translate(-77.464 3.956)" fill="#070304"/>
        <path id="Path_31" data-name="Path 31" d="M126.727,30.57q.513-1.873,1.772-7.94h2.679V19.684h-2.252q.053-.546.3-2.029h-2.483c0,.012-.021.208-.062.585s-.11.858-.2,1.444h-2.235v2.945H126q-.3,1.893-1.846,7.94Z" transform="translate(-75.406 3.896)" fill="#070304"/>
        <path id="Path_32" data-name="Path 32" d="M128.215,26.694a4.39,4.39,0,0,0-1.125,3.151,4.312,4.312,0,0,0,.576,2.419,3.073,3.073,0,0,0,1.4,1.19,3.971,3.971,0,0,0,1.676.293,3.361,3.361,0,0,0,1.3-.264,2.345,2.345,0,0,0,1.091-1.014,4.406,4.406,0,0,0,.452-2.234V28.967a5.788,5.788,0,0,1,.959.527q.494.331,1.152.839v-3.18c-.024-.026-.248-.16-.675-.4a11.124,11.124,0,0,0-1.437-.673V22.2q.888.02,1.446.059c.372.027.565.039.576.039v-3a4.794,4.794,0,0,0-.655-.059q-.639-.038-1.623-.059a16.372,16.372,0,0,0-2.067.1l.017,6.418A3.69,3.69,0,0,0,128.215,26.694Zm3.06,3.287a1.647,1.647,0,0,1-.133.721.463.463,0,0,1-.4.293,1.5,1.5,0,0,1-1.09-.254,1.188,1.188,0,0,1-.382-1.034,1.546,1.546,0,0,1,.551-1.132,1.772,1.772,0,0,1,1.454-.253Z" transform="translate(-74.758 4.23)" fill="#070304"/>
        <path id="Path_33" data-name="Path 33" d="M143.607,25.538q.159,1.952.168,3.59t0,2.058c-.006.281-.009.433-.009.459h2.678a61.156,61.156,0,0,0-.275-7.618q-.33-2.644-.684-4.214t-.372-1.571h-2.749a22.245,22.245,0,0,1,.789,3.443Q143.447,23.588,143.607,25.538Z" transform="translate(-71.387 4.025)" fill="#070304"/>
        <path id="Path_34" data-name="Path 34" d="M139.459,33.167a4.473,4.473,0,0,0,1.57-.478,5.014,5.014,0,0,0,1.029-.7,4.076,4.076,0,0,1,.381-.342V28.406c-.023.013-.194.153-.514.42a10.8,10.8,0,0,1-1.108.8,2.34,2.34,0,0,1-1.127.419q-.443-.057-.577-1.014a18.952,18.952,0,0,1-.133-2.5q.018-1.19.045-2.6t.062-2.7q.035-1.289.071-2.118t.035-.868h-2.661q0,.04-.027.957t-.052,2.33q-.027,1.415-.037,2.947t-.009,2.779a10.528,10.528,0,0,0,.754,4.555A2.2,2.2,0,0,0,139.459,33.167Z" transform="translate(-72.702 4.025)" fill="#070304"/>
        <path id="Path_35" data-name="Path 35" d="M178.385,32.71a2.571,2.571,0,0,0,1.765-1.016,8.779,8.779,0,0,0,1.357-2.3,15.788,15.788,0,0,0,.851-2.654l.018-.039c.248.1.5.218.763.342s.526.256.8.4a30.745,30.745,0,0,1-.861,3.268q-.452,1.357-.781,2.089t-.327.751h2.838a14.8,14.8,0,0,0,.834-2.3q.335-1.229.568-2.517.851.509,1.366.85c.342.227.52.347.532.36V26.429a4.62,4.62,0,0,1-.4-.244c-.254-.164-.607-.367-1.056-.615q.141-1.305.2-2.361t.062-1.667v-.635h-2.341c0,.612-.016,1.21-.044,1.8s-.074,1.157-.133,1.716a14.145,14.145,0,0,0-1.543-.663q.176-1.58.256-2.877T183.2,18.8q.009-.78.009-.8h-6.67v3.121h4.169c-.012.273-.029.6-.052.975s-.06.774-.107,1.19a4.574,4.574,0,0,0-2.067.615,5.726,5.726,0,0,0-1.7,1.521,4.713,4.713,0,0,0-.914,2.253,6.692,6.692,0,0,0,.453,3.649A2.242,2.242,0,0,0,178.385,32.71Zm-.337-4.643a4.143,4.143,0,0,1,.311-.8,2.176,2.176,0,0,1,.665-.78,1.667,1.667,0,0,1,1.028-.331c0,.012-.035.192-.106.536s-.171.738-.3,1.18a5.305,5.305,0,0,1-.488,1.171.875.875,0,0,1-.682.526q-.178,0-.364-.37A1.925,1.925,0,0,1,178.048,28.067Z" transform="translate(-64.008 3.972)" fill="#070304"/>
        <path id="Path_36" data-name="Path 36" d="M189.008,31.587a2.858,2.858,0,0,0,1.587.594,2.184,2.184,0,0,0,1.88-.917,8.005,8.005,0,0,0,1.243-2.574,17.322,17.322,0,0,0,.665-3.551q.168-1.932.222-3.824a2.312,2.312,0,0,1,1.738,1.258,5.935,5.935,0,0,1,.62,2.6,6.787,6.787,0,0,1-.851,3.813,2.863,2.863,0,0,1-2.378,1.356v2.926a5.644,5.644,0,0,0,3.859-1.667,6.442,6.442,0,0,0,1.455-2.468,10.874,10.874,0,0,0,.524-3.785,9.332,9.332,0,0,0-1.047-4.233,5.471,5.471,0,0,0-2.4-2.35,6.226,6.226,0,0,0-3.2-.557,5.271,5.271,0,0,0-2.892,1.258,7.611,7.611,0,0,0-2.04,2.848,10.231,10.231,0,0,0-.8,3.932,9.7,9.7,0,0,0,.541,3.491A4.171,4.171,0,0,0,189.008,31.587Zm.664-5.335a8.76,8.76,0,0,1,.311-1.921,6.55,6.55,0,0,1,.8-1.844,2.654,2.654,0,0,1,1.3-1.112q.017,1.093-.062,2.419t-.248,2.546a10.368,10.368,0,0,1-.444,2q-.275.78-.682.76c-.308-.026-.555-.264-.746-.712A5.412,5.412,0,0,1,189.672,26.251Z" transform="translate(-61.497 4.014)" fill="#070304"/>
      </g>
      <g id="Group_27" data-name="Group 27" transform="translate(0 0.817)">
        <g id="Group_26" data-name="Group 26">
          <path id="Path_37" data-name="Path 37" d="M47.8,28.948a18.81,18.81,0,0,0,.609,3.4,36.337,36.337,0,0,0,1.763,4.939,12.509,12.509,0,0,0,2.577,3.177,8.188,8.188,0,0,0,2.515,1.494,8.637,8.637,0,0,0,3.3.676,11.158,11.158,0,0,0,5.8-1.589,10.986,10.986,0,0,0,4.3-5.394,25.622,25.622,0,0,0,1.619-9.908q0-2.516-.317-6.825l-.145-.6a12.981,12.981,0,0,1-.289-1.289,14.02,14.02,0,0,0-4.092-7.865,10.972,10.972,0,0,0-7.595-2.7,7.932,7.932,0,0,0-4.453,1.273,9.694,9.694,0,0,0-2.922,2.816,17.95,17.95,0,0,0-2.341,5.708,35.025,35.025,0,0,0-.7,7.533,25.653,25.653,0,0,0,.2,3.871C47.667,27.911,47.723,28.34,47.8,28.948Z" transform="translate(10.464 0.609)"/>
          <path id="Path_38" data-name="Path 38" d="M15.3,63.561a5.574,5.574,0,0,0,5.1-1.8,7.453,7.453,0,0,0,1.477-4.629,9.159,9.159,0,0,0-2.19-6.213,5.377,5.377,0,0,0-4.335-1.8c-.057,0-.12.01-.178.011L11.693,61.068c.06.15.106.306.181.452A4.422,4.422,0,0,0,15.3,63.561Z" transform="translate(2.58 10.022)"/>
          <path id="Path_39" data-name="Path 39" d="M14.487,45.085l-8.7.973L10.617.669H0V84.377H7.373Z" transform="translate(0 -0.669)"/>
          <path id="Path_40" data-name="Path 40" d="M33.535,55.713a6.9,6.9,0,0,0-2.266,2.037,3.5,3.5,0,0,0-.455,1.843,2.277,2.277,0,0,0,.592,1.616,1.815,1.815,0,0,0,1.366.637,3.29,3.29,0,0,0,2.161-.728,4.448,4.448,0,0,0,1.411-1.559,14.508,14.508,0,0,0,.205-3.29q0-1-.09-2A14.155,14.155,0,0,0,33.535,55.713Z" transform="translate(6.799 11.158)"/>
          <path id="Path_41" data-name="Path 41" d="M18.867.669,17.452,9.225C18.8,10.666,20,11.993,21.012,13.177q2.717,3.179,19.845,22.239v-.787l-.114-3.649q-.082-3.208-.223-5.08t-.168-4.466q-.027-2.593-.2-4.7-.337-4.12-.336-4.75A5.015,5.015,0,0,0,39.426,9.5a4.675,4.675,0,0,0-2.69-1.039,7.416,7.416,0,0,1-2.3-.723l.027-1.857.73-.094L40.716,5.6l6.167-.189c.41-.02.8-.031,1.177-.031l.029,2.045a5.577,5.577,0,0,1-1.32.566,11.059,11.059,0,0,0-2.073.66,8.565,8.565,0,0,0-1.542,1.1,2.12,2.12,0,0,0-.253,1.163c0,.126.018.565.057,1.321q.027.568.027,2.643.027,4.561.226,7.2.053.85.083,1.919l.308,11.04c.018.776.027,1.321.027,1.637v3.868l.084,1.634-.084,1.7c.076.861.114,1.373.114,1.542v1.667l-3.223.125-3.337-3.868-6.81-7.58-4.764-5.346-3.5-4.027q-3.418-3.774-6.222-6.637l-.149-.15L13.211,34.856l10.228-1.044L16.713,56.848a15.47,15.47,0,0,1,2.784-.267,7.328,7.328,0,0,1,4.12,1.183c.09.061.22.145.386.251a6.973,6.973,0,0,1,1.663,1.57A11.878,11.878,0,0,1,27.3,62.772a9.659,9.659,0,0,1,.387,2.959,11.487,11.487,0,0,1-.614,4.006,10.518,10.518,0,0,1-2.117,3.3A8.991,8.991,0,0,1,21.738,75.4a9.419,9.419,0,0,1-3.608.706,13.284,13.284,0,0,1-2.662-.227A16.927,16.927,0,0,1,11.647,74.2L8.675,84.377H92.167V.669Zm29.2,16.786A18.722,18.722,0,0,1,50.9,12.266a19.171,19.171,0,0,1,4.571-4.2,19.586,19.586,0,0,1,5.615-2.641,23.711,23.711,0,0,1,6.4-.8A21.222,21.222,0,0,1,77.934,7.075a18.507,18.507,0,0,1,6.976,6.637,21.708,21.708,0,0,1,3.3,11.419,22.351,22.351,0,0,1-5.571,15.255q-5.57,6.355-15.5,6.354a29.007,29.007,0,0,1-4.6-.345A15.13,15.13,0,0,1,59.7,45.7q-2.2-.784-2.461-.911a24.619,24.619,0,0,1-5.065-4,20.6,20.6,0,0,1-3.242-4.624,28.289,28.289,0,0,1-1.647-5.221,24.228,24.228,0,0,1,.78-13.494ZM59.073,50.445a3.151,3.151,0,0,1-.3,1.317,2.386,2.386,0,0,1-.95,1.056,2.511,2.511,0,0,1-1.327.4,2.382,2.382,0,0,1-1.715-.793,2.615,2.615,0,0,1-.784-1.9,2.3,2.3,0,0,1,.679-1.715,2.377,2.377,0,0,1,1.743-.669,2.666,2.666,0,0,1,1.9.708A2.146,2.146,0,0,1,59.073,50.445Zm-10.9,24.561a3.269,3.269,0,0,1-2.207.763,3.7,3.7,0,0,1-2.312-.74,6.386,6.386,0,0,1-1.761-2.606,6.32,6.32,0,0,1-2.755,2.606,9.757,9.757,0,0,1-4.348.876,5.147,5.147,0,0,1-3.484-.99,3.319,3.319,0,0,1-1.116-2.606,3.876,3.876,0,0,1,.331-1.526,5.146,5.146,0,0,1,1.069-1.536,10.534,10.534,0,0,1,2.379-1.674q.249-.137,1.73-.774l5.666-2.275q.07-.866.068-1.753a8.125,8.125,0,0,0-.749-4.188A1.775,1.775,0,0,0,39.09,57.9,5.02,5.02,0,0,0,37,58.334a3.081,3.081,0,0,0-1.389,1.114,5.607,5.607,0,0,0-.547,1.89,3.415,3.415,0,0,1-.3,1.161,2.913,2.913,0,0,1-1.239.785q-.9.353-1.219.513a4.89,4.89,0,0,1-1.957.592.964.964,0,0,1-.319-.774,4.327,4.327,0,0,1,.547-2.23,9.705,9.705,0,0,1,2.469-2.562,11.666,11.666,0,0,1,3.083-1.741,15.586,15.586,0,0,1,4.78-.637,6.8,6.8,0,0,1,3.13.671,3.687,3.687,0,0,1,1.821,1.991,14.946,14.946,0,0,1,.511,4.758l-.046,3.755.046,2.755v.706a2.381,2.381,0,0,0,.256,1.309.785.785,0,0,0,.662.353.676.676,0,0,0,.425-.137l.684-1.069.41-.16.522.342a.643.643,0,0,1,.25.387l.023.114A5.563,5.563,0,0,1,48.173,75.006Zm14.383.626q-.613.024-.909.023c-.227,0-.574-.015-1.044-.045q-2.318-.114-6.2-.114c-.74,0-1.461.026-2.157.079s-1.173.079-1.432.079l-.044-1.479,2.571-.342a1.377,1.377,0,0,0,.785-.468,2.773,2.773,0,0,0,.216-1.376v-.251q0-.273.035-.99t.033-1.262q0-.432-.068-1.663l.035-1.138-.035-1.071.068-3.708a8.224,8.224,0,0,0-.135-1.459,2,2,0,0,0-.919-.591,9.163,9.163,0,0,0-2.312-.365V58.219a11.034,11.034,0,0,0,4.118-.978,9.554,9.554,0,0,0,2.618-1.935H59.3q.092,2.822.093,7.329l-.161,9.287a14.809,14.809,0,0,0,.093,1.73,14.244,14.244,0,0,0,2.3.5,5.062,5.062,0,0,1,.979.227Zm25.745.137-4.462-.319-1.321.046H81.471l-3,.2h-.775q-.022-.286-.022-.439c0-.265.015-.551.045-.859q.319-.068,1.594-.228a5.568,5.568,0,0,0,.749-.159c.305-.122.478-.244.525-.366a4.036,4.036,0,0,0,.181-1.481q0-1.913-.022-2.941l.022-2.643q0-4.81-.612-5.995a2.766,2.766,0,0,0-2.588-1.71,6.1,6.1,0,0,0-2.634.649A11.829,11.829,0,0,0,72.117,61.5l-.046.387.046,1.434-.046,1.525.093,3.642-.046.569q0,3.711.3,4.189a4.726,4.726,0,0,0,2.272,1.064,2.338,2.338,0,0,1-.092,1.411q-.707.024-1.186.023a11.422,11.422,0,0,1-1.505-.155l-2.44-.05q-1.824,0-5.268.159a1.23,1.23,0,0,1-.092-.47q0-.179.023-.718a4.633,4.633,0,0,1,1.092-.364,5.724,5.724,0,0,0,1.456-.342,1.039,1.039,0,0,0,.457-.5A8.982,8.982,0,0,0,67.27,71.3V69.316l.022-1.617-.068-2.394V63.87A9.983,9.983,0,0,0,67,61.522a1.353,1.353,0,0,0-.569-.685,7.509,7.509,0,0,0-2.163-.889l-.023-1.092a3.546,3.546,0,0,1,.535-.125q.24-.035,1.832-.444,1.252-.454,1.616-.637c.076-.045.2-.114.364-.205a7.462,7.462,0,0,1,.615-.454,8.966,8.966,0,0,0,1.639-1.661l1.228-.092-.044,2.572a5.272,5.272,0,0,0-.046.615c0,.122.015.47.046,1.046a13.084,13.084,0,0,1,3.43-2.275,10,10,0,0,1,3.84-.842,6.671,6.671,0,0,1,3.75,1.06,5.058,5.058,0,0,1,2.113,2.452,19.982,19.982,0,0,1,.5,5.609l-.092,7.435a1.827,1.827,0,0,0,.183.867A4.119,4.119,0,0,0,87,74.1l1.116.215a1.209,1.209,0,0,1,.205.717Q88.323,75.3,88.3,75.769Z" transform="translate(1.914 -0.669)"/>
        </g>
      </g>
    </g>
  </g>
</svg>
