<svg xmlns="http://www.w3.org/2000/svg" width="17.696" height="17.696" viewBox="0 0 17.696 17.696">
  <g id="Icon_ionic-ios-arrow-dropright" data-name="Icon ionic-ios-arrow-dropright" transform="translate(-6.375 -3.375)">
    <path id="Path_7" data-name="Path 7" d="M14.657,10.222a.824.824,0,0,1,1.161,0l4.058,4.071a.82.82,0,0,1,.026,1.132l-4,4.011a.82.82,0,1,1-1.161-1.157l3.4-3.45-3.484-3.45A.811.811,0,0,1,14.657,10.222Z" transform="translate(-1.361 -2.61)"/>
    <path id="Path_8" data-name="Path 8" d="M3.375,12.223a8.848,8.848,0,1,0,8.848-8.848A8.847,8.847,0,0,0,3.375,12.223Zm1.361,0A7.484,7.484,0,0,1,17.515,6.931,7.484,7.484,0,1,1,6.931,17.515,7.422,7.422,0,0,1,4.736,12.223Z" transform="translate(3)"/>
  </g>
</svg>
