<svg xmlns="http://www.w3.org/2000/svg" width="199.806" height="16.372" viewBox="0 0 199.806 16.372">
  <g id="Group_10" data-name="Group 10" transform="translate(-50.65 -382.512)">
    <g id="Group_8" data-name="Group 8" transform="translate(50.65 382.512)">
      <path id="Path_18" data-name="Path 18" d="M90.574,398.485v-7.828l-8.145-8.145-7.945,7.945-7.945-7.945-8.145,8.145v7.828H50.65v.4h8.145v-8.062l7.745-7.745,7.745,7.745v7.663H66.54v.4h15.89v-.4H74.684v-7.663l7.745-7.745,7.745,7.745v8.062h8.145v-.4Z" transform="translate(-50.65 -382.512)" fill="#1a1311"/>
      <path id="Path_19" data-name="Path 19" d="M66,391.172v3.242h3.242v-3.242Zm2.843,2.843H66.394v-2.444h2.444Z" transform="translate(-51.727 -383.12)" fill="#1a1311"/>
      <rect id="Rectangle_3" data-name="Rectangle 3" width="2.444" height="2.444" transform="translate(14.667 8.451)" fill="#ffec4a"/>
      <path id="Path_20" data-name="Path 20" d="M83.088,391.172v3.242h3.241v-3.242Zm2.842,2.843H83.487v-2.444H85.93Z" transform="translate(-52.928 -383.12)" fill="#1a1311"/>
      <rect id="Rectangle_4" data-name="Rectangle 4" width="2.444" height="2.444" transform="translate(30.559 8.451)" fill="#72c3c8"/>
    </g>
    <g id="Group_9" data-name="Group 9" transform="translate(103.896 386.481)">
      <path id="Path_21" data-name="Path 21" d="M115.355,386.951v1.763H112.65V399h-2.025V388.714h-2.707v-1.763Z" transform="translate(-107.918 -386.793)" fill="#1a1311"/>
      <path id="Path_22" data-name="Path 22" d="M120.477,393.73v-1.537c0-3.788,1.554-5.412,3.788-5.412s3.789,1.624,3.789,5.412v1.537c0,3.788-1.554,5.411-3.789,5.411S120.477,397.518,120.477,393.73Zm2.025-1.537v1.537c0,2.6.576,3.665,1.763,3.665s1.764-1.065,1.764-3.665v-1.537c0-2.6-.576-3.666-1.764-3.666S122.5,389.593,122.5,392.193Z" transform="translate(-108.8 -386.781)" fill="#1a1311"/>
      <path id="Path_23" data-name="Path 23" d="M139.029,393.759l2.688-6.808h1.991V399h-2.026v-7.07l-1.972,4.748h-1.344l-1.991-4.7V399h-2.025V386.951h1.973Z" transform="translate(-109.774 -386.793)" fill="#1a1311"/>
      <path id="Path_24" data-name="Path 24" d="M150.137,393.73v-1.537c0-3.788,1.553-5.412,3.788-5.412s3.788,1.624,3.788,5.412v1.537c0,3.788-1.554,5.411-3.788,5.411S150.137,397.518,150.137,393.73Zm2.025-1.537v1.537c0,2.6.576,3.665,1.763,3.665s1.763-1.065,1.763-3.665v-1.537c0-2.6-.576-3.666-1.763-3.666S152.162,389.593,152.162,392.193Z" transform="translate(-110.883 -386.781)" fill="#1a1311"/>
      <path id="Path_25" data-name="Path 25" d="M169.334,399l-1.78-4.888h-1.519V399h-2.025V386.951h3.509c2.27,0,3.684,1.2,3.684,3.6a3.188,3.188,0,0,1-1.711,3.212L171.534,399Zm-2.007-6.634c1.222,0,1.85-.454,1.85-1.816s-.629-1.85-1.85-1.85h-1.292v3.666Z" transform="translate(-111.858 -386.793)" fill="#1a1311"/>
      <path id="Path_26" data-name="Path 26" d="M182.756,399l-1.781-4.888h-1.519V399h-2.025V386.951h3.509c2.27,0,3.684,1.2,3.684,3.6a3.188,3.188,0,0,1-1.711,3.212L184.956,399Zm-2.007-6.634c1.222,0,1.85-.454,1.85-1.816s-.629-1.85-1.85-1.85h-1.292v3.666Z" transform="translate(-112.8 -386.793)" fill="#1a1311"/>
      <path id="Path_27" data-name="Path 27" d="M190.384,393.73v-1.537c0-3.788,1.554-5.412,3.788-5.412s3.789,1.624,3.789,5.412v1.537c0,3.788-1.554,5.411-3.789,5.411S190.384,397.518,190.384,393.73Zm2.025-1.537v1.537c0,2.6.576,3.665,1.763,3.665s1.764-1.065,1.764-3.665v-1.537c0-2.6-.576-3.666-1.764-3.666S192.409,389.593,192.409,392.193Z" transform="translate(-113.71 -386.781)" fill="#1a1311"/>
      <path id="Path_28" data-name="Path 28" d="M209.437,390.267,207.411,399h-1.972l-2.252-12.045h2.129l1.344,8.606,1.816-8.606h1.92l1.816,8.606,1.344-8.606h2.129L213.434,399h-1.973Z" transform="translate(-114.609 -386.793)" fill="#1a1311"/>
      <path id="Path_29" data-name="Path 29" d="M222.877,398.053h4.644V399h-5.656V386.951h1.012Z" transform="translate(-115.921 -386.793)" fill="#1a1311"/>
      <path id="Path_30" data-name="Path 30" d="M232.038,399l3.265-12.045h.925L239.475,399h-1.047l-.75-2.932h-3.842l-.75,2.932Zm2.095-3.875h3.248l-1.623-6.477Z" transform="translate(-116.636 -386.793)" fill="#1a1311"/>
      <path id="Path_31" data-name="Path 31" d="M251.72,386.951V399h-1.012l-4.348-9.689V399h-1.012V386.951h.995l4.365,9.776v-9.776Z" transform="translate(-117.57 -386.793)" fill="#1a1311"/>
      <path id="Path_32" data-name="Path 32" d="M258.658,399V386.951h2.95c2.112,0,3.457,1.414,3.457,5.306v1.432c0,3.893-1.344,5.307-3.457,5.307Zm5.394-5.307v-1.432c0-3.3-.872-4.364-2.443-4.364H259.67v10.16h1.939C263.179,398.053,264.052,397.041,264.052,393.689Z" transform="translate(-118.505 -386.793)" fill="#1a1311"/>
    </g>
  </g>
</svg>
