<svg id="Layer_1" data-name="Layer 1" xmlns="http://www.w3.org/2000/svg" viewBox="0 0 917.28 54.83"><defs><style>.cls-1{fill:#d02027;}</style></defs><path class="cls-1" d="M10.34,51.27v-31H0V12.39c6.11-.18,10.46-1.21,12.7-8.76h8.88V51.27Z"/><path class="cls-1" d="M43.15,3.81A46.73,46.73,0,0,1,45.2,15.42a43.69,43.69,0,0,0-6.46,1.45A72.57,72.57,0,0,0,36.2,5.14Zm11,51.87H45.51V43a35.43,35.43,0,0,1-3.09,5.32A37,37,0,0,0,36.32,42a40.45,40.45,0,0,0,8.4-16.33H37.28V18.2h8.23V.61L54.15,1c.3,0,1,.06,1,.6s-.54.73-1,1V13.12A56.65,56.65,0,0,0,56.87,2.9l7.2,2.78c.6.24,1.08.43,1.08.85,0,.6-.66.6-1.2.6-.31.73-1.09,2.85-1.64,4.24h9.31V.79l8.95.48c1,.06,1.94.12,1.94.67s-.73.9-1.52,1.2v8.23H92v7.31H61.83v-6.1a36.71,36.71,0,0,1-2.18,5,21.52,21.52,0,0,0-5.5-2.48V18.2H61v7.49H54.21A61.1,61.1,0,0,0,62,38.09a25.68,25.68,0,0,0-5.5,5.14c-1.09-1.7-1.63-2.54-2.36-3.81Zm38.27-8.4v7.8h-33v-7.8h16c3.27-9,5.44-26.91,5.44-27.39L90,21.52c1,.18,1.75.37,1.75,1s-1.08,1-2,1.15c-.12.79-3.81,17.23-5.68,23.58Zm-21.1-27C73.5,34,73.74,35.49,74.46,44.74a42.63,42.63,0,0,0-8.94,1.87,142.33,142.33,0,0,0-3-25Z"/><path class="cls-1" d="M154.41,11.55c-14.93-.24-27.87,13.18-27.87,23,0,7,8.89,10.46,17.11,10.64a82.1,82.1,0,0,0-4.54,11c-4.89-1.33-22.24-6.16-22.24-20.61,0-11.19,8.64-19.23,11.12-20.8a165.28,165.28,0,0,0-25,3.81L101.57,7.19a195.91,195.91,0,0,0,26.9-1.39c8.77-1,18.56-2.59,24.25-4.41Zm-10,8.58A37.43,37.43,0,0,1,150,26.6c-1.7,1.21-2.54,1.87-4.66,3.63A48.61,48.61,0,0,0,140,23.4Zm6.35-4.29a38.25,38.25,0,0,1,5.38,6.35c-1.51,1.15-2.54,2-4.41,3.75a45.18,45.18,0,0,0-5.38-6.84Z"/><path class="cls-1" d="M178.19,6.41c.54.18,1.21.36,1.21.91,0,.78-.73.9-1.27,1a54.11,54.11,0,0,0-3.39,18.2c0,7.38,2.3,12.51,4,12.51,1.94,0,4.24-5.32,5.87-9.12a27.45,27.45,0,0,0,6.35,6.4c-4.84,11.73-10.34,15.84-13.3,15.84-3.39,0-12.34-7.19-12.34-25.87,0-7.74,1.33-14.81,3-22.61Zm29.2.42c6.65,9,11.18,19.23,12.21,30.41-3.56,1.39-7.86,3.45-9.85,4.47a55.11,55.11,0,0,0-10.16-29.92Z"/><path class="cls-1" d="M241.41,6.41c.55.18,1.21.36,1.21.91,0,.78-.72.9-1.27,1A54.15,54.15,0,0,0,238,26.48C238,33.86,240.26,39,242,39c1.93,0,4.23-5.32,5.86-9.12a27.45,27.45,0,0,0,6.35,6.4c-4.84,11.73-10.34,15.84-13.3,15.84-3.39,0-12.33-7.19-12.33-25.87,0-7.74,1.33-14.81,3-22.61Zm29.2.42c6.65,9,11.19,19.23,12.21,30.41-3.56,1.39-7.86,3.45-9.85,4.47a55,55,0,0,0-10.16-29.92Z"/><path class="cls-1" d="M317.17,3.69c.66.18,1.21.36,1.21.9,0,.85-1.27,1-1.64,1-.9,4.11-1.27,5.69-1.69,7.26,5.2,0,13.84.18,13.84,14.81,0,10-3.14,18.5-6,22.37-1,1.39-3.51,4.23-9,4.23a32.07,32.07,0,0,1-6.41-.67,18.55,18.55,0,0,0,.18-2.23,46.13,46.13,0,0,0-.9-8.1A10.12,10.12,0,0,0,312,44.56a4.57,4.57,0,0,0,3.56-1.15c2.06-1.82,4-8.59,4-16.08,0-6.23-4.35-5.87-6.95-5.69C307.86,38,302.17,47.22,297.28,53.56a42.59,42.59,0,0,0-8.89-4.77,72.3,72.3,0,0,0,14.39-25.33,63.4,63.4,0,0,0-9.61,3.08l-3.33-9.73c2.48-.49,13.24-2.72,15.48-3.09A91.88,91.88,0,0,0,307.19.48Zm16.32,3.14c6.65,7.44,10.88,17.53,10.88,22.31,0,3.14-1,4.84-4.29,6.41A23.54,23.54,0,0,1,334,37.42a49,49,0,0,0-3.5-8.1c1.63-.36,3.87-.85,3.87-2.78,0-1.51-1.52-5.5-3.15-8.28a44.19,44.19,0,0,0-5.14-6.71Z"/><path class="cls-1" d="M371.74,14.15c.43.12.91.24.91.78,0,.73-.73.79-1.39.85a40.85,40.85,0,0,0-4,10.46,33.44,33.44,0,0,1,17.65-5.62c10.4,0,15.48,7.67,15.48,14.87C400.4,47,389.52,55,369.51,55c-1.76,0-3.27-.06-4.42-.12-.36-3.32-.84-4.95-2.84-10.15a34.36,34.36,0,0,0,8.95.9c13.72,0,19.16-5.13,19.16-10.21,0-1.76-.84-6.17-7.07-6.17-8.65,0-14.93,5.56-19.29,9.92L355.36,36a143.32,143.32,0,0,1,6.35-25ZM368.42,0a60.29,60.29,0,0,1,20.31,6.71,75.31,75.31,0,0,0-5.44,8.83c-5.08-3.57-12.45-6.23-18-7.44Z"/><path class="cls-1" d="M464.51,5.2v7.56h-41c-1.09,1.69-1.57,2.35-2.06,3.08h39.85V27.33h5.07v7.55h-5.44c-.3,2.84-.42,3.63-.54,4.54h4.11v7.31h-5.62c-2.6,9.61-5.26,9.61-14.09,9.68a17.67,17.67,0,0,0-3.87-7.86c.91.06,5.38.36,5.87.36,1.87,0,2.41-.49,3.2-2.18H425.46c-.55,2.48-.79,3.39-1.15,4.54a68.8,68.8,0,0,0-8.65-.61,87,87,0,0,0,3.63-15.78H411V27.33h9.25c.24-2.24.66-7.08.66-10.76a33.64,33.64,0,0,1-4.23,4.89c-3.81-3.56-5.93-4.41-7.2-5,4.48-3.8,9.62-12,11.31-17.16l8.46,2.47c.31.13.73.31.73.73s-.48.79-1.69,1.21c-.19.36-.43,1-.67,1.45ZM427.63,34.88c-.12.73-.54,3.33-.78,4.54h8c.18-1.33.48-3,.66-4.54Zm8.77-7.55c.06-.61.3-3.57.36-4.24H429c-.06,1.09-.12,2.3-.36,4.24Zm7.86,7.55a39.6,39.6,0,0,1-.55,4.54h8c.18-1.21.37-2.6.55-4.54Zm8.34-7.55V23.09h-7.38c0,1.4-.12,3-.24,4.24Z"/><path class="cls-1" d="M488.27,50.06v3.32h-9.5V4.05h43.35V53.38h-9.49V50.06Zm24.36-27.51V12.45H488.27v10.1Zm0,18.86V30.71H488.27v10.7Z"/><path class="cls-1" d="M557.11,10.76V4.53h12.33V0l7.86.48c.79.06,1.7.13,1.7.79s-1,1.21-1.46,1.39V4.53H591v7.08H577.54v2.11h8.89v6.59H560.56V13.72h8.88V11.61H558.08c.36,1.21-1.15,1.09-2.12,1-3,4.05-6,8-9.25,11.72,1,0,4-.12,4.9-.18-.3-1.33-.55-2.17-.91-3.44l5.87-1.94A46.83,46.83,0,0,1,558,24.67v-2.3h33V35.43h-7.68V28.35H565.51v2.24l7.26.67c.66.06,1.33.18,1.33.78s-.79,1-1.45,1.27c-.79,7.8-1.75,17.23-12.88,23-2-3.32-2.54-3.86-5.8-6.34,3.93-2.06,10.88-5.69,11.24-14.57H558v-4.9a25.37,25.37,0,0,0-5.44,1.33,10.46,10.46,0,0,0-.12-1.57,10.78,10.78,0,0,1-2,.18V55.8H543V35.67a2.57,2.57,0,0,1-1,.3c0,2.9-.43,9.43-1.51,13.06a32.82,32.82,0,0,0-6.65-1.15c1.51-5.32,1.57-8.28,1.69-14.33l6.47,1c.36.06.72.12,1,.18V31.2c-1.87.18-4.77.42-5.62.42-.3.78-.66,1.45-1.27,1.45s-.78-.91-.84-1.57l-.49-6.83c.67,0,2.12.06,2.9,0,1.09-1.15,1.46-1.64,4.84-5.75a58.23,58.23,0,0,0-7.74-6.34l4.11-5.75a9.41,9.41,0,0,1,1.15.73c3.09-5.14,3.63-6.23,4.23-7.8l6.59,3.14c.31.12.91.49.91,1,0,.73-.67.85-1.93,1-.73,1.15-1.88,3-4.66,7,.85.79,1.15,1.09,1.63,1.51a55,55,0,0,0,4.05-6.23Zm.42,22.07a65.13,65.13,0,0,0,1.64,11.73,33.24,33.24,0,0,0-6.53,1.87c-.79-2.9-1.09-9.91-1.09-13Zm24.37-2.3a1,1,0,0,1,1.09,1c0,.66-.67,1-1.09,1.09V47.7c0,.6,0,1.09,1,1.09s1.7-.24,1.94-6.11a18.44,18.44,0,0,0,7.07,2.48,18.31,18.31,0,0,1-1,6.41,6,6,0,0,1-5.31,3.93h-5.75c-3.08,0-5.56-.73-5.56-4.29V30.05Z"/><path class="cls-1" d="M614.8,4.47c.72.19,1,.31,1,.73,0,.72-1,.91-1.45,1-2.54,7-3.32,14.51-3.32,21.94a32.64,32.64,0,0,0,1,9.07c.43-1,2.3-5.38,2.73-6.29a39.91,39.91,0,0,0,6.4,4.42,51.4,51.4,0,0,0-6.4,17.23l-7.86,1.14c-3.81-8-5.14-20.37-5.14-27.62,0-3.87.42-15.48,3.2-24.12ZM643.69,2c1.15.12,1.63.12,1.63.72s-.66.79-1.08.85c0,3.44,0,7.55.06,10.88a55.71,55.71,0,0,0,8.94-2.72,68.67,68.67,0,0,0,.13,9.31,52.42,52.42,0,0,1-9.07,2.42c.06,15.9-1.33,22.61-10.95,32.4a26,26,0,0,0-7.91-6.59c8.88-6.59,9.61-15.17,9.61-24.48a109.4,109.4,0,0,1-12.52.66l-.84-9.79a29.72,29.72,0,0,0,6.41.54c.6,0,3,0,6.77-.3-.12-1.87-.67-9.25-1.52-14.81Z"/><path class="cls-1" d="M661.9,23.52a95.41,95.41,0,0,0,10.82-5.69A67.09,67.09,0,0,0,666,7.25l10-3.92a2.12,2.12,0,0,1,1-.25c.36,0,.85.06.85.79,0,.42-.36.66-.73.91,1.09,2.41,3,6.1,4.11,8.4,1.64-.85,2.91-1.51,5.75-2.78a52.28,52.28,0,0,0-5.38-6.47l8-3.69a45.25,45.25,0,0,1,6.1,7,29.39,29.39,0,0,1,7.26-1c11.67,0,15,7.68,15,13.84,0,13.48-13.78,15.54-22.49,15.66a44.49,44.49,0,0,0-3.26-9.07,34.78,34.78,0,0,0,9-.48c7.44-1.64,7.44-4.78,7.44-6.53,0-3-2.36-4.84-5.26-4.84-.72,0-1.75.12-2.3.18a54.5,54.5,0,0,1,2.91,5.2C700.47,21.4,697,23,694.79,24a42.45,42.45,0,0,0-3-6.17,64.91,64.91,0,0,0-6.83,3.09c6.65,14.14,9.92,24.66,11,29.74-1.64.61-8.77,4-10.22,4.66-1.39-11.91-5.26-20.8-9-29.38a101.83,101.83,0,0,0-9,6.71Z"/><path class="cls-1" d="M760.2,1.45c1,.12,1.51.18,1.51.67,0,.66-.73.9-1.21,1-.12,1.09-.18,1.82-.3,4.24,17-.73,18.92-.79,20.07-.91-.06,1.27-.18,7.25.06,9.73-10.94-.54-15.54-.54-20-.48a49.53,49.53,0,0,0,.06,6.71C764,26.72,764,33.19,764,34c0,8.58-5.63,18.62-14,23.33a40.19,40.19,0,0,0-8.83-6.22c1.82-.73,8.95-3.75,11.13-8.71a6.82,6.82,0,0,1-4.78,1.45c-1,0-4.41,0-6.53-2.72s-2.6-6.71-2.6-9c0-13.3,11.37-12.87,12.64-12.69.06-1.94.06-2.48.06-3.39a163.28,163.28,0,0,0-24.12,3.15l-.67-10.22c1.39.06,3.69-.06,24.55-1.27a65.82,65.82,0,0,0-.85-7.68Zm-14,30.23c0,4,2,5.08,3.09,5.08,1.87,0,3-2.78,3-5.81,0-1.39-.3-3.74-2.72-3.74C747.56,27.21,746.23,29.2,746.23,31.68Z"/><path class="cls-1" d="M802.87,6.41c.54.18,1.21.36,1.21.91,0,.78-.73.9-1.27,1a54.11,54.11,0,0,0-3.39,18.2c0,7.38,2.3,12.51,4.06,12.51,1.93,0,4.23-5.32,5.86-9.12a27.45,27.45,0,0,0,6.35,6.4c-4.84,11.73-10.34,15.84-13.3,15.84-3.39,0-12.34-7.19-12.34-25.87,0-7.74,1.33-14.81,3-22.61Zm29.2.42c6.65,9,11.18,19.23,12.21,30.41-3.56,1.39-7.86,3.45-9.85,4.47a55.11,55.11,0,0,0-10.16-29.92Z"/><path class="cls-1" d="M873.85,3.18V18.09l-2.31,18.82H865.4L863,18.09V3.18ZM863.1,42.8h10.75V53.61H863.1Z"/><path class="cls-1" d="M917.28,3.18V18.09L915,36.91h-6.15l-2.37-18.82V3.18ZM906.53,42.8h10.75V53.61H906.53Z"/></svg>