<svg id="Layer_1" data-name="Layer 1" xmlns="http://www.w3.org/2000/svg" viewBox="0 0 210.06 90.97"><defs><style>.cls-1{fill:#fff;}</style></defs><path class="cls-1" d="M13.88,10.11A25.45,25.45,0,0,1,12.5,20a7.63,7.63,0,0,0,5.41,1.64,77.36,77.36,0,0,0,8.36-.4,12.49,12.49,0,0,0-1.38,3.37c-.85,0-2.44.11-4.64.11-5.34,0-6.93-.42-9.13-2a14.67,14.67,0,0,1-2.26,2.81A10,10,0,0,0,6.47,23.7V25H2.92V13.29a8.32,8.32,0,0,1-.51.69A6.49,6.49,0,0,0,0,11.28,25.71,25.71,0,0,0,4.14.21l4,.85c.21.05.29.16.29.32s-.13.32-.64.48C6.82,5,6.71,5.39,6.29,6.5c.4.08.53.16.53.4s-.13.32-.35.48v4.75A31.93,31.93,0,0,0,9.05,6.29H7.56V2.87h5l1,.92a48.82,48.82,0,0,1-2.68,6.32ZM9.15,13.37c-.1.19-.18.3-.42.69a14.15,14.15,0,0,0-2.26-.42v9.58a10.74,10.74,0,0,0,2.39-2.73,18.08,18.08,0,0,1-2.23-5.15L9.31,14a21.17,21.17,0,0,0,1,3,15.39,15.39,0,0,0,.48-3.59ZM13,8.12V5.84h3.74V4.78H14V2.25h2.71V.58L20,.64a.37.37,0,0,1,.43.4c0,.15-.21.29-.64.58v.63h4.41V5.84h1V8.12h-1v3.63H19.82v1.09h4.25v2.63H19.82v.9h5.39v2.79H19.82V21H16.69V19.16H13.53V16.37h3.16v-.9H14.38V12.84h2.31V11.75H14V9.18h2.71V8.12Zm8.3-2.28V4.78H19.82V5.84ZM19.82,8.12V9.18h1.43V8.12Z"/><path class="cls-1" d="M42.59,21.31c0,3-.21,3.69-5.17,3.77a6.41,6.41,0,0,0-.88-3.14c-1.8.85-2,1-2.95,1.33,0,.19,0,.66-.34.66s-.35-.21-.5-.55L31.6,20.75a16,16,0,0,1-1.46,3.85,10.65,10.65,0,0,0-3.29-1.41c2-3.87,2-7.32,2-13.43V2.18H38V.48l4.24.13c.19,0,.43.11.43.35s-.45.47-.61.53v.69h9.65V5.39H42.59v.93h6.66V9.9h2.33v2.6H49.25v3.63h-.58l1.72,1.09c.16.11.45.29.45.51s-.34.29-.71.26a17.4,17.4,0,0,1-2.42,2.12,17.24,17.24,0,0,0,4.19,2c-1.38.69-1.67,1.14-2.68,2.71A26.24,26.24,0,0,1,42.59,20Zm-9-5.2V13.59h5.31V12.5h-6.4a31.62,31.62,0,0,1-.82,8,28.52,28.52,0,0,0,3.34-.9,12.67,12.67,0,0,0-2.57-2.23ZM38.88,9.9v-1H33.57V6.32h5.31V5.39H32.51V9.9Zm-3.14,6.23a11.09,11.09,0,0,1,1.62,1.46,18.89,18.89,0,0,0-2.17,1.94c.87-.32,2.28-1,3.18-1.46a9.67,9.67,0,0,0-.13,1.67A5,5,0,0,0,38.37,21c-.34.18-.42.23-1.11.58a9,9,0,0,0,.93,0c.69,0,.69-.26.69-1.19V16.13Zm6.85-7.27v1h3v-1Zm0,3.64v1.09h3V12.5Zm.8,3.63A12.16,12.16,0,0,0,45.06,18a12.24,12.24,0,0,0,1.78-1.86Z"/><path class="cls-1" d="M68.14,7.06h6.61V9.84H68.14v1H78.36v3.1H68.94c0,.43-.53.53-.88.61v.35H77.7v3.21H69.87c2.78,2.31,5.09,3,8.86,3.61a8.25,8.25,0,0,0-2.15,3.48C70.85,24,68,21.65,66.21,19.69c-2.15,3.13-6.77,5.2-10,5.54A7,7,0,0,0,54,21.76c3.24-.45,6.37-1.3,8.49-3.69H54.74V14.86h9.37c.08-.53.11-.74.13-1h-10V10.8H64.3v-1h-7V7.06h7V6.18H54.69V3.1h4.83a13.75,13.75,0,0,0-1.19-1.43L61.94,0a18.61,18.61,0,0,1,2.38,2.65c-.82.3-.93.35-1.19.45h5A23.27,23.27,0,0,0,69.63.05l3.85,1.44c.13.05.32.13.32.31s-.4.32-.67.32c-.21.45-.32.61-.5,1h5V6.18h-9.5Z"/><path class="cls-1" d="M101.1,24.78H97.31v-.61H88.42v.61h-3.9V18.12a12.21,12.21,0,0,1-2,1,7,7,0,0,0-2.76-2.68c2.71-1.12,8.6-3.88,11.28-9.5l3.66.69c.27,0,.51.24.51.42s-.08.24-.32.37c2.15,2.87,7.77,6.51,10.93,7.36a10,10,0,0,0-2.7,3.1,8.55,8.55,0,0,1-2-.93Zm3.61-22.39v6h-3.48a18.86,18.86,0,0,0,2.55,1.56,8.9,8.9,0,0,0-2.86,2.6,29.05,29.05,0,0,1-5.76-4.93L98,5.49H87.2L89.9,7a.57.57,0,0,1,.32.42c0,.3-.32.37-.55.4a18.35,18.35,0,0,1-4.86,4.67,8,8,0,0,0-2.89-2.39,14.85,14.85,0,0,0,2.49-1.72H80.78v-6h10V.27l4.11.1c.29,0,.53.16.53.32s-.29.37-.53.5v1.2ZM84.65,8.12a14.72,14.72,0,0,0,2.18-2.63H84.65ZM97.31,20.94V18.1H88.42v2.84Zm-1.12-6.29a25.41,25.41,0,0,1-3.61-3.32,29.13,29.13,0,0,1-3.29,3.32Zm2-9.16a21.9,21.9,0,0,0,2.71,2.6V5.49Z"/><path class="cls-1" d="M114,2.6c.5.19.72.27.72.45s-.54.29-.72.32a30.71,30.71,0,0,0-1.73,11,9.29,9.29,0,0,0,.19,2.12c.16-.29.8-1.46,1.11-2a7.62,7.62,0,0,0,2.05,2.18C115,17.88,113.73,21,113.87,23l-3.77,1a28,28,0,0,1-1.89-10.62,50.6,50.6,0,0,1,1.7-12.31Zm7,12.47a7.13,7.13,0,0,0-.39,1.89c0,1.16.63,1.35,3.68,1.35a27.09,27.09,0,0,0,6.56-.72,17.61,17.61,0,0,0-.4,4.33,57.43,57.43,0,0,1-6.71.34c-4,0-7-.69-7-3.92a9.82,9.82,0,0,1,.88-3.91ZM117.79,3.74c.8,0,1.86.13,3.45.13A30.62,30.62,0,0,0,129,3c0,.43.14,2.76.38,4a40,40,0,0,1-8.18.79c-1.56,0-2.6-.08-3.45-.13Z"/><path class="cls-1" d="M134.43,6.63a25,25,0,0,1,5.12,2.71,26.42,26.42,0,0,0-1.72,3.37,46.51,46.51,0,0,0-5-2.68Zm-1.64,15.71a42.44,42.44,0,0,0,5.41-8.81A13.65,13.65,0,0,0,141,16a59.77,59.77,0,0,1-4.2,7.91c0,.24.08.45.08.58s-.1.35-.26.35a.74.74,0,0,1-.4-.16Zm4.38-22A39.62,39.62,0,0,1,141.52,3a32.33,32.33,0,0,0-2,3.27,37,37,0,0,0-4.36-2.84Zm20.24,4.3V8H151v3.95h5v3.61h-5v5.07h6.79v3.69H140.4V20.62h6.69V15.55h-4.94V11.94h4.94V8h-6V4.62h5.84a23.94,23.94,0,0,0-2.28-2.1L147.91.08a29.45,29.45,0,0,1,3.93,3.66,15.38,15.38,0,0,0-1.35.88Z"/><path class="cls-1" d="M166.78,23.75v1h-4.06V1.33H181.9v23.4H178v-1ZM178,7.56V4.88H166.78V7.56Zm0,6.29V11.09H166.78v2.76Zm0,6.42V17.46H166.78v2.81Z"/><path class="cls-1" d="M188,4.8A18.49,18.49,0,0,0,191,5c.77,0,1.57,0,2.71-.13a39.25,39.25,0,0,0,1-4.51l4.17,1.3c.37.11.5.21.5.43s-.42.31-.56.31c-.07.19-.42,1.41-.53,1.76a23.34,23.34,0,0,0,2.87-.88,27.34,27.34,0,0,0,.08,4,34.49,34.49,0,0,1-4.25.93c-.37,1.09-1.27,3.53-2.7,6.8a35.17,35.17,0,0,1-3.11,5.83,21.74,21.74,0,0,0-4-1.59,47.56,47.56,0,0,0,5.36-10.48c-.61,0-3.16.13-4,.13Zm17.17,7.25a3.91,3.91,0,0,0-1,2.6,18.8,18.8,0,0,0,.27,2.6,28,28,0,0,1,5.62,3.24,26.57,26.57,0,0,0-2.44,3.18,24.22,24.22,0,0,0-3-2.23c-.5,2.49-2.26,3.24-5.31,3.24-4.22,0-6.31-1.89-6.31-4.38,0-.51.1-4.19,5.46-4.19.75,0,1.28.05,1.75.08,0-.19-.13-2.1-.13-2.31a5.17,5.17,0,0,1,1.86-3.69Zm-6.58,7.21c-.75,0-1.7.38-1.7,1.09s.77,1,1.88,1c1.81,0,1.91-.87,2-1.54A5.29,5.29,0,0,0,198.6,19.26Zm5.14-14.14c4.22,1.38,5.79,2.5,7,3.45A34.8,34.8,0,0,0,208.31,12a19.12,19.12,0,0,0-6.66-3.42Z"/><path class="cls-1" d="M45.59,37.94v4.8H40.92V38c0-3.24,2.79-3.47,4.67-3.66v1.67c-1.67.19-2.15.56-2.26,1.89Zm6.1,0v4.8H47V38c0-3.24,2.79-3.47,4.67-3.66v1.67c-1.64.19-2.15.56-2.25,1.89Z"/><path class="cls-1" d="M58,39.21a27.06,27.06,0,0,1,6.21,3.63,26.78,26.78,0,0,0-2.57,3.53,23,23,0,0,0-6-3.61Zm-.84,14.28A38.81,38.81,0,0,0,75.87,39.42,13.7,13.7,0,0,0,78.6,43c-3.34,5-11.2,11.52-18.28,14.15,0,.16-.06.61-.45.61-.19,0-.35-.27-.4-.35Zm3.52-20.17a40.27,40.27,0,0,1,6.67,3.13c-.56.64-2.15,2.89-2.53,3.45a27.55,27.55,0,0,0-6.44-3.34Z"/><path class="cls-1" d="M88.76,34.51c.32,0,.51,0,.51.27s-.32.42-.51.5v13H84.33V34.38ZM100.92,34c.26,0,.5.05.5.26s-.32.45-.5.53v8.65a14.44,14.44,0,0,1-2.13,8.2,16.16,16.16,0,0,1-8,6.13A7.57,7.57,0,0,0,88,54.41c8.31-2.89,8.47-8.2,8.47-10.9V33.88Z"/><path class="cls-1" d="M121.46,34.25c.34,0,.53,0,.53.29s-.32.4-.53.48c0,.82,0,1.91-.06,3.71h8.44c-.24,11.28-.74,13.11-1.38,14.6s-2.1,4.16-7.59,3.84a15,15,0,0,0-1.09-4.4,6.79,6.79,0,0,0,1.89.24c2.31,0,3.53,0,3.74-10.27H121c-1.27,7.88-4.82,11.62-10.19,14.7a10.78,10.78,0,0,0-3.07-3.19c6.13-3.26,8-6.47,9-11.51h-8v-4h8.43a30,30,0,0,0-.21-4.77Z"/><path class="cls-1" d="M133.8,39.77V35h4.67v4.7c0,3.24-2.79,3.48-4.67,3.66V41.65c1.64-.19,2.14-.56,2.25-1.88Zm6.1,0V35h4.67v4.73c0,3.21-2.79,3.45-4.67,3.63V41.65c1.64-.19,2.15-.56,2.25-1.88Z"/><path class="cls-1" d="M160.78,34c.16,0,.53.1.53.48s-.47.39-.66.39l-.61,1.3a28.32,28.32,0,0,0,5.49-1.24v3.92c-3.95.69-4.43.77-7.56,1.14-.32.56-.37.67-1,1.84a5.05,5.05,0,0,1,2.31-.53,4.66,4.66,0,0,1,3.88,2.25c3.92-1.88,4.38-2.07,5.36-2.63L170,45.18c-2.94.93-4.48,1.49-6,2.15.06.77.08,1.59.08,2.39,0,1.19,0,1.93-.08,2.65-.85,0-1.8,0-2.65,0a12.54,12.54,0,0,0-1.54,0,22.72,22.72,0,0,0,.19-3c-1.65,1-3.32,2.12-3.32,3.21s2.71,1.27,4.06,1.27a29.88,29.88,0,0,0,8.49-1.3,16.71,16.71,0,0,0-.5,4.22,32.83,32.83,0,0,1-7.41.77c-1.77,0-8.67,0-8.67-4.7,0-3.13,4.21-5.76,7.11-7.27a1.93,1.93,0,0,0-2-1.33c-2.76,0-4.62,3-6.08,5.34L148,47.46a56.68,56.68,0,0,0,5.39-7.14c-1.43.06-2.6.06-3.74,0l0-3.85c.83.08,2.37.21,4.17.21.77,0,1.09,0,1.51,0a19.64,19.64,0,0,0,1.41-3.48Z"/><path class="cls-1" d="M24.57,70.11A30.83,30.83,0,0,1,21.49,83.3a22.52,22.52,0,0,0,4.78,4.11,8.19,8.19,0,0,0-2.89,3,21.68,21.68,0,0,1-4.09-3.8,15.58,15.58,0,0,1-5.47,3.88,8.6,8.6,0,0,0-1.38-1.91v2.39H8.52V86.59c-2.47.66-3.93,1.06-6.21,1.57a.35.35,0,0,1-.37.42c-.29,0-.35-.21-.4-.42L.69,84.84c.74-.11,1-.13,1.72-.27V70.64H.82V67.27H14v1.86h9.1Zm-16,.53H6.26v2H8.52Zm0,5.23H6.26v2.2H8.52Zm0,5.39H6.26v2.6c.32-.06,1.89-.35,2.26-.4Zm8-7.94A23.94,23.94,0,0,0,19.1,80a18.44,18.44,0,0,0,1.52-7.35H13.56v-2H12.44V87A12.63,12.63,0,0,0,17,83.46a29.64,29.64,0,0,1-3.67-8.92Z"/><path class="cls-1" d="M35.9,67.78c.48.1.75.18.75.47s-.46.43-.64.46a20.19,20.19,0,0,0-1.17,6.76,10.15,10.15,0,0,0,.24,2.36c.21-.42.29-.63.61-1.4a6,6,0,0,1,.82-1.51,20.05,20.05,0,0,0,2.66,2.2,20.44,20.44,0,0,0-2.74,6.71l-3.79.45a25.87,25.87,0,0,1-1-16.4c.13-.58.13-.71.19-1ZM48,66.8c.26,0,.61,0,.61.37s-.24.34-.42.4c0,.92.37,5,.42,5.78s.13,2.07.13,3.11c0,3.34-.26,10.16-8,14.59a9.87,9.87,0,0,0-3.45-3.11c6.36-3.07,7-7.66,7-11.56a37.31,37.31,0,0,0-1-9.72Z"/><path class="cls-1" d="M65.49,72.47c0-.9,0-1.14,0-1.75H59.63v-3.9H69.76c0,.69-.18,3.74-.18,4.35a19.44,19.44,0,0,0,9.74,17,10.51,10.51,0,0,0-3.48,2.89c-3.29-2.28-8.09-7.27-9.61-13.37-.87,3-2.94,8.46-10,13.4a11.23,11.23,0,0,0-3.26-3c8.15-5.23,9.55-10.86,10.27-16.11Z"/><path class="cls-1" d="M92.05,73.51a8.79,8.79,0,0,1,5.44-2.71c.77,0,3.37.56,3.37,4.14a35.82,35.82,0,0,1-.66,5.44,23.36,23.36,0,0,0-.21,3c0,.34,0,1.24.69,1.24.32,0,1.43-.18,3.34-2.28a18,18,0,0,0,1.43,4.12c-2.38,2.3-4.43,2.81-5.62,2.81-1.49,0-4-1-4-4.8,0-1.33.72-7.54.72-8.31a.79.79,0,0,0-.83-.88c-1.61,0-3.9,2.71-5.59,4.7a85.56,85.56,0,0,0,.5,10.45L86,90.68a38.53,38.53,0,0,0,.24-4.57V85c-.38.53-1.89,2.91-2.26,3.34l-3.24-3.26a55.17,55.17,0,0,0,5.57-6.8c0-.26,0-.66,0-1a21.49,21.49,0,0,1-4.22,1l-.87-4.49a18.31,18.31,0,0,0,5.2-.79c0-1.81.08-5.33,0-6.26l3.88.32c.29,0,.74.07.74.45s-.34.34-.53.39c-.21,2.1-.26,3.16-.29,3.93Z"/><path class="cls-1" d="M119.7,67.62c.24,0,.53.16.53.42s-.37.35-.58.35c-.11.42-.56,2.31-.66,2.68a16.79,16.79,0,0,0,4.4-1.3l.45,4.16a33.78,33.78,0,0,1-6,1.25,63.81,63.81,0,0,1-7,15.52,28.1,28.1,0,0,0-4-2,43.09,43.09,0,0,0,6.55-12.87c-1.62.13-1.94.13-4.85.16l-.35-4.36c.8.06,1.73.11,3.08.11,1.19,0,2,0,3.16-.11.37-2,.55-3.71.71-5Zm2,16a2.61,2.61,0,0,0-.71,1.57.71.71,0,0,0,.48.69,9.65,9.65,0,0,0,3.55.45,19,19,0,0,0,5.84-.88,11.45,11.45,0,0,0-.19,2.07,19.82,19.82,0,0,0,.16,2.21,33.05,33.05,0,0,1-5.49.45c-3.48,0-8.09-.51-8.09-4.27a7.13,7.13,0,0,1,1-3.48Zm-1.24-7.51a34.5,34.5,0,0,1,5.86-.47,18.73,18.73,0,0,1,3.9.29c-.16,2-.18,2.39-.21,4.16a15.65,15.65,0,0,0-4-.47,48.27,48.27,0,0,0-5.57.47Z"/><path class="cls-1" d="M139.9,69.18c.24.08.53.16.53.4s-.32.4-.56.43a23.62,23.62,0,0,0-1.48,8c0,3.24,1,5.5,1.77,5.5s1.86-2.34,2.58-4a12,12,0,0,0,2.78,2.81c-2.12,5.15-4.53,6.95-5.83,6.95-1.49,0-5.42-3.15-5.42-11.35a47.88,47.88,0,0,1,1.3-9.93Zm12.81.19a26.46,26.46,0,0,1,5.36,13.35c-1.56.61-3.45,1.51-4.32,2a24.09,24.09,0,0,0-4.46-13.13Z"/><path class="cls-1" d="M184.48,70.17V74H173c0,1-.1,1.67-.16,2.2h8.39c0,9-.51,11.41-2.39,13.3-1.35,1.35-4.25,1.48-5.23,1.46a6.74,6.74,0,0,0-2-4.17c.71.11,2.52.4,2.78.4a2,2,0,0,0,2.13-1.54,18.48,18.48,0,0,0,.74-5.79h-5.17A17.94,17.94,0,0,1,162.61,91a7.15,7.15,0,0,0-3.26-2.87C164.07,86.62,169,82.77,169,74h-8.78V70.17h10V66.5l4.25.24c.16,0,.48.08.48.37s-.3.4-.48.48v2.58Z"/><path class="cls-1" d="M193.61,68.6c.5.19.71.27.71.45s-.53.29-.71.32a30.71,30.71,0,0,0-1.73,11,9.29,9.29,0,0,0,.19,2.12c.16-.29.79-1.46,1.11-2a7.62,7.62,0,0,0,2,2.18c-.67,1.24-1.89,4.32-1.76,6.34l-3.76,1a27.83,27.83,0,0,1-1.89-10.62,50.6,50.6,0,0,1,1.7-12.31Zm7,12.47a7.13,7.13,0,0,0-.4,1.89c0,1.16.64,1.35,3.69,1.35a27.09,27.09,0,0,0,6.56-.72,17.61,17.61,0,0,0-.4,4.33,57.43,57.43,0,0,1-6.71.34c-4,0-7-.69-7-3.92a9.82,9.82,0,0,1,.88-3.91ZM197.4,69.74c.8.05,1.86.13,3.45.13a30.7,30.7,0,0,0,7.8-.85c0,.43.14,2.76.37,4a39.73,39.73,0,0,1-8.17.79c-1.56,0-2.6-.08-3.45-.13Z"/></svg>