<svg id="day_icon" xmlns="http://www.w3.org/2000/svg" width="22" height="22" viewBox="0 0 22 22">
  <rect id="Rectangle_16" data-name="Rectangle 16" width="22" height="22" fill="rgba(255,255,255,0)"/>
  <g id="Group_98" data-name="Group 98">
    <path id="Path_26" data-name="Path 26" d="M11,0A11,11,0,1,0,22,11,10.968,10.968,0,0,0,11,0ZM6.7,17.9h-2V11.1a9.322,9.322,0,0,1-1,1L3,9.7A10.544,10.544,0,0,0,5.7,4.1l2.1.2A11.181,11.181,0,0,1,6.7,7.9Zm11-1.7a13.171,13.171,0,0,1-3.6-5.1v6.7h-2v-7a17.927,17.927,0,0,1-3.8,5.3L7,14.4a16.909,16.909,0,0,0,4.5-5.9H7.7V6.7h4.4V4.1h2V6.7h4.7V8.5H14.7a14.867,14.867,0,0,0,4.4,5.8Z" fill="#62bfeb"/>
  </g>
</svg>
