<?xml version="1.0" encoding="utf-8"?>
<!-- Generator: Adobe Illustrator 24.3.0, SVG Export Plug-In . SVG Version: 6.00 Build 0)  -->
<svg version="1.1" id="レイヤー_1" xmlns="http://www.w3.org/2000/svg" xmlns:xlink="http://www.w3.org/1999/xlink" x="0px"
	 y="0px" viewBox="0 0 40 40" style="enable-background:new 0 0 40 40;" xml:space="preserve">
<style type="text/css">
	.st0{fill:#62BFEB;}
	.st1{fill:#FFFFFF;}
	.st2{fill:#1D9BF0;}
	.st3{fill:#4676ED;}
	.st4{fill:#7FC56A;}
</style>
<g>
	<path class="st3" d="M40,20C40,9,31,0,20,0S0,9,0,20c0,10,7.3,18.3,16.9,19.8v-14h-5.1V20h5.1v-4.4c0-5,3-7.8,7.6-7.8
		c2.2,0,4.5,0.4,4.5,0.4v4.9h-2.5c-2.5,0-3.3,1.5-3.3,3.1V20h5.5l-0.9,5.8h-4.7v14C32.6,38.3,40,30,40,20z"/>
	<path class="st1" d="M27.7,25.8l0.9-5.8h-5.5v-3.8c0-1.6,0.8-3.1,3.3-3.1h2.5V8.2c0,0-2.3-0.4-4.5-0.4c-4.6,0-7.6,2.8-7.6,7.8V20
		h-5.1v5.8h5.1v14c1,0.2,2.1,0.2,3.1,0.2s2.1-0.1,3.1-0.2v-14H27.7z"/>
</g>
</svg>
