<?xml version="1.0" encoding="utf-8"?>
<!-- Generator: Adobe Illustrator 24.3.0, SVG Export Plug-In . SVG Version: 6.00 Build 0)  -->
<svg version="1.1" id="レイヤー_1" xmlns="http://www.w3.org/2000/svg" xmlns:xlink="http://www.w3.org/1999/xlink" x="0px"
	 y="0px" viewBox="0 0 40 40" style="enable-background:new 0 0 40 40;" xml:space="preserve">
<style type="text/css">
	.st0{fill:#62BFEB;}
	.st1{fill:#FFFFFF;}
	.st2{fill:#1D9BF0;}
	.st3{fill:#4676ED;}
	.st4{fill:#7FC56A;}
</style>
<g>
	<circle class="st4" cx="20" cy="20" r="20"/>
	<g>
		<g>
			<g>
				<path class="st1" d="M33.3,18.8c0-6-6-10.8-13.4-10.8C12.6,8,6.6,12.9,6.6,18.8c0,5.4,4.7,9.8,11.2,10.7c0.4,0.1,1,0.3,1.2,0.7
					c0.1,0.3,0.1,0.9,0,1.2c0,0-0.2,0.9-0.2,1.1c-0.1,0.3-0.3,1.3,1.2,0.7c1.4-0.6,7.7-4.5,10.5-7.8l0,0
					C32.4,23.4,33.3,21.2,33.3,18.8z"/>
			</g>
			<g>
				<path class="st4" d="M28.9,22.3c0.1,0,0.3-0.1,0.3-0.3v-0.9c0-0.1-0.1-0.3-0.3-0.3h-2.5v-1h2.5c0.1,0,0.3-0.1,0.3-0.3v-0.9
					c0-0.1-0.1-0.3-0.3-0.3h-2.5v-1h2.5c0.1,0,0.3-0.1,0.3-0.3v-0.9c0-0.1-0.1-0.3-0.3-0.3h-3.7l0,0c-0.1,0-0.3,0.1-0.3,0.3l0,0l0,0
					V22l0,0l0,0c0,0.1,0.1,0.3,0.3,0.3l0,0H28.9z"/>
				<path class="st4" d="M15,22.3c0.1,0,0.3-0.1,0.3-0.3v-0.9c0-0.1-0.1-0.3-0.3-0.3h-2.5v-4.6c0-0.1-0.1-0.3-0.3-0.3h-0.9
					c-0.1,0-0.3,0.1-0.3,0.3V22l0,0l0,0c0,0.1,0.1,0.3,0.3,0.3l0,0H15z"/>
				<path class="st4" d="M17.3,15.9h-0.9c-0.1,0-0.3,0.1-0.3,0.3V22c0,0.1,0.1,0.3,0.3,0.3h0.9c0.1,0,0.3-0.1,0.3-0.3v-5.8
					C17.5,16.1,17.4,15.9,17.3,15.9z"/>
				<path class="st4" d="M23.7,15.9h-0.9c-0.1,0-0.3,0.1-0.3,0.3v3.5l-2.7-3.6l0,0l0,0l0,0l0,0l0,0l0,0l0,0l0,0l0,0l0,0l0,0l0,0l0,0
					l0,0l0,0l0,0l0,0l0,0l0,0h-0.9c-0.1,0-0.3,0.1-0.3,0.3V22c0,0.1,0.1,0.3,0.3,0.3h0.9c0.1,0,0.3-0.1,0.3-0.3v-3.5l2.7,3.6
					c0,0,0,0,0.1,0.1l0,0l0,0l0,0l0,0l0,0l0,0l0,0l0,0c0,0,0,0,0.1,0h0.9c0.1,0,0.3-0.1,0.3-0.3v-5.8C24,16.1,23.9,15.9,23.7,15.9z"
					/>
			</g>
		</g>
	</g>
</g>
</svg>
