<svg id="Component_6_1" data-name="Component 6 – 1" xmlns="http://www.w3.org/2000/svg" width="50" height="50" viewBox="0 0 50 50">
  <g id="Rectangle_14" data-name="Rectangle 14" fill="rgba(255,255,255,0)" stroke="rgba(255,255,255,0)" stroke-width="1">
    <rect width="50" height="50" stroke="none"/>
    <rect x="0.5" y="0.5" width="49" height="49" fill="none"/>
  </g>
  <g id="top_kesanku_rogo-01" transform="translate(12.006 10.95)">
    <g id="Group_95" data-name="Group 95">
      <path id="Path_22" data-name="Path 22" d="M10.75,21.47A10.71,10.71,0,1,1,21.46,10.76,10.716,10.716,0,0,1,10.75,21.47Zm0-17.71a7,7,0,1,0,7,7A7.008,7.008,0,0,0,10.75,3.76Z" fill="#8c96aa"/>
    </g>
    <g id="Group_96" data-name="Group 96">
      <path id="Path_23" data-name="Path 23" d="M24.1,28.05a1.87,1.87,0,0,1-1.39-.62l-7.66-8.59a1.856,1.856,0,1,1,2.77-2.47l7.66,8.59a1.862,1.862,0,0,1-.15,2.62A1.807,1.807,0,0,1,24.1,28.05Z" fill="#8c96aa"/>
    </g>
  </g>
</svg>
