<?xml version="1.0" encoding="utf-8"?>
<!-- Generator: Adobe Illustrator 24.3.0, SVG Export Plug-In . SVG Version: 6.00 Build 0)  -->
<svg version="1.1" id="レイヤー_1" xmlns="http://www.w3.org/2000/svg" xmlns:xlink="http://www.w3.org/1999/xlink" x="0px"
	 y="0px" viewBox="0 0 40 40" style="enable-background:new 0 0 40 40;" xml:space="preserve">
<style type="text/css">
	.st0{fill:#62BFEB;}
	.st1{fill:#FFFFFF;}
	.st2{fill:#1D9BF0;}
	.st3{fill:#4676ED;}
	.st4{fill:#7FC56A;}
</style>
<g>
	<circle class="st2" cx="20" cy="20" r="20"/>
	<g id="Logo_2_">
		<path id="white_background_1_" class="st1" d="M29.6,15.1c0,0.2,0,0.4,0,0.6c0,6.6-5,14.1-14.1,14.1l0,0c-2.7,0-5.3-0.8-7.6-2.2
			c0.4,0,0.8,0.1,1.2,0.1c2.2,0,4.4-0.7,6.2-2.1c-2.1,0-4-1.4-4.6-3.4c0.7,0.1,1.5,0.1,2.2-0.1c-2.3-0.5-4-2.5-4-4.9c0,0,0,0,0-0.1
			c0.7,0.4,1.5,0.6,2.3,0.6c-2.2-1.5-2.9-4.4-1.5-6.6c2.5,3.1,6.2,5,10.2,5.2c-0.4-1.7,0.1-3.5,1.4-4.7c2-1.9,5.1-1.8,7,0.2
			c1.1-0.2,2.2-0.6,3.2-1.2c-0.4,1.1-1.1,2.1-2.2,2.7c1-0.1,1.9-0.4,2.9-0.8C31.4,13.5,30.6,14.4,29.6,15.1z"/>
	</g>
</g>
</svg>
