<?xml version="1.0" encoding="utf-8"?>
<!-- Generator: Adobe Illustrator 25.0.1, SVG Export Plug-In . SVG Version: 6.00 Build 0)  -->
<svg version="1.1" id="レイヤー_1" xmlns="http://www.w3.org/2000/svg" xmlns:xlink="http://www.w3.org/1999/xlink" x="0px"
	 y="0px" viewBox="0 0 32.48 29" style="enable-background:new 0 0 32.48 29;" xml:space="preserve">
<style type="text/css">
	.st0{fill:#FFFFFF;}
	.st1{fill:#55C4DE;}
	.st2{fill:#4776E1;}
</style>
<g>
	<g>
		<g>
			<g>
				<rect x="6.99" y="20.38" class="st0" width="17.33" height="5.43"/>
			</g>
		</g>
	</g>
	<g>
		<g>
			<g>
				<g>
					<g>
						<g>
							<path class="st0" d="M11.61,6.02c0,0-3.02-6.3-3.78-4.78C7,2.9,6.31,5.5,7.83,7.04c3.68,3.73,2.33,0.85,2.33,0.85L11.61,6.02
								z"/>
						</g>
					</g>
				</g>
			</g>
			<g>
				<g>
					<g>
						<g>
							<path class="st1" d="M10.24,9.45c-0.47,0-1.21-0.49-2.76-2.06C5.47,5.34,6.91,2,7.39,1.02C7.56,0.7,7.83,0.51,8.15,0.51
								c0,0,0,0,0.01,0c1.19,0.01,2.95,3.33,3.9,5.3l0.13,0.28l-1.46,1.88c0.26,0.67,0.22,1.13-0.12,1.37
								C10.5,9.41,10.39,9.45,10.24,9.45z M8.24,1.55C7.41,3.26,6.98,5.47,8.19,6.69c0.73,0.74,1.22,1.17,1.53,1.42
								c0-0.01,0-0.01-0.01-0.02L9.59,7.82l1.45-1.86C9.97,3.8,8.77,1.91,8.24,1.55z"/>
						</g>
					</g>
				</g>
			</g>
			<g>
				<g>
					<g>
						<g>
							<path class="st2" d="M10.24,9.57c-0.57,0-1.38-0.62-2.85-2.1c-2.07-2.1-0.61-5.51-0.11-6.51c0.19-0.37,0.52-0.6,0.88-0.58
								c1.2,0.01,2.84,2.93,4.01,5.37c0.1,0.21,0.07,0.46-0.07,0.65l-1.23,1.58c0.25,0.7,0.19,1.18-0.19,1.45
								C10.55,9.52,10.41,9.57,10.24,9.57z M8.28,1.75c-0.76,1.64-1.14,3.71,0,4.86c0.56,0.57,0.97,0.95,1.27,1.21
								C9.56,7.7,9.61,7.6,9.68,7.51l1.21-1.56C9.93,3.99,8.84,2.24,8.28,1.75z"/>
						</g>
					</g>
				</g>
			</g>
		</g>
		<g>
			<g>
				<g>
					<g>
						<g>
							<path class="st0" d="M20.91,6.02c0,0,3.02-6.3,3.78-4.78c0.83,1.66,1.52,4.26,0,5.8c-3.68,3.73-2.33,0.85-2.33,0.85
								L20.91,6.02z"/>
						</g>
					</g>
				</g>
			</g>
			<g>
				<g>
					<g>
						<g>
							<path class="st1" d="M22.28,9.45c-0.14,0-0.26-0.05-0.37-0.12c-0.34-0.24-0.38-0.7-0.12-1.37l-1.46-1.88l0.13-0.28
								c0.94-1.98,2.71-5.29,3.9-5.3c0.31,0.02,0.6,0.18,0.77,0.51c0.49,0.98,1.93,4.32-0.09,6.37C23.49,8.96,22.75,9.45,22.28,9.45
								z M21.49,5.96l1.45,1.86L22.8,8.1c0,0.01,0,0.01-0.01,0.02c0.32-0.25,0.8-0.68,1.53-1.42c1.21-1.23,0.78-3.44-0.05-5.14
								C23.75,1.9,22.55,3.8,21.49,5.96z"/>
						</g>
					</g>
				</g>
			</g>
			<g>
				<g>
					<g>
						<g>
							<path class="st2" d="M22.28,9.57c-0.16,0-0.31-0.05-0.44-0.14c-0.38-0.27-0.44-0.75-0.19-1.45L20.42,6.4
								c-0.14-0.18-0.17-0.44-0.07-0.65c1.17-2.44,2.81-5.36,4.01-5.37h0.01c0.37,0,0.69,0.21,0.87,0.58c0.5,1,1.96,4.41-0.11,6.51
								C23.66,8.96,22.85,9.57,22.28,9.57z M21.63,5.95l1.21,1.56c0.07,0.09,0.11,0.19,0.12,0.3c0.3-0.26,0.71-0.64,1.27-1.2
								c1.14-1.15,0.76-3.22,0-4.86C23.68,2.24,22.59,3.99,21.63,5.95z"/>
						</g>
					</g>
				</g>
			</g>
		</g>
	</g>
	<g>
		<g>
			<g>
				<path class="st2" d="M22.84,26.53H10.19c-0.36,0-0.66-0.3-0.66-0.66s0.3-0.66,0.66-0.66h12.64c0.36,0,0.66,0.3,0.66,0.66
					C23.5,26.24,23.2,26.53,22.84,26.53z"/>
			</g>
		</g>
	</g>
	<g>
		<g>
			<g>
				<path class="st0" d="M26.95,22.54c0,0,1.12-14.81-6.51-18.78c-0.57-0.3-2.1-0.88-4.11-0.89H16.2c-2.01,0.01-3.54,0.6-4.11,0.89
					C4.45,7.73,5.57,22.54,5.57,22.54"/>
			</g>
		</g>
		<g>
			<g>
				<path class="st2" d="M5.57,23.18c-0.34,0-0.62-0.26-0.64-0.6C4.88,21.96,3.86,7.3,11.78,3.19c0.31-0.16,1.96-0.95,4.41-0.97
					h0.14c2.46,0.01,4.11,0.81,4.41,0.97c7.92,4.11,6.9,18.78,6.85,19.4c-0.03,0.36-0.34,0.62-0.69,0.6
					c-0.36-0.03-0.62-0.34-0.6-0.69c0.01-0.14,1-14.43-6.16-18.15c-0.16-0.08-1.62-0.81-3.82-0.82h-0.13
					c-2.2,0.01-3.66,0.74-3.81,0.82C5.22,8.06,6.21,22.34,6.22,22.49c0.03,0.36-0.24,0.67-0.6,0.69C5.6,23.18,5.59,23.18,5.57,23.18
					z"/>
			</g>
		</g>
	</g>
	<g>
		<g>
			<g>
				<path class="st2" d="M14.7,16.83c0-0.35,0.7-0.38,1.56-0.38c0.86,0,1.56,0.03,1.56,0.38s-0.7,1.34-1.56,1.34
					S14.7,17.18,14.7,16.83z"/>
			</g>
		</g>
	</g>
	<g>
		<g>
			<g>
				<g>
					<path class="st2" d="M16.26,2.92c2.19,0,2.44,0.46,3.33,0.81c0,0,1.11,0.5-1.06,6.97c-1.63,4.86-1.87,6.84-1.87,6.84h-0.8
						c0,0-0.24-1.99-1.87-6.84c-2.18-6.46-1.06-6.97-1.06-6.97C13.82,3.38,14.07,2.92,16.26,2.92"/>
				</g>
			</g>
		</g>
	</g>
	<g>
		<g>
			<g>
				<g>
					<g>
						<g>
							<g>
								<path class="st2" d="M13.31,12.66c-0.07-0.06-0.14-0.12-0.22-0.17c0,0-0.01,0-0.01-0.01c-0.03-0.01-0.14-0.06-0.09-0.04
									c0.06,0.02-0.06-0.03-0.09-0.04l0,0c-0.01,0-0.19-0.03-0.2-0.03c-0.07,0-0.14,0.01-0.2,0.03c-0.06,0.02-0.12,0.05-0.18,0.07
									l0,0c0,0-0.15,0.11-0.15,0.12c-0.02,0.02-0.11,0.13-0.12,0.15c-0.08,0.12-0.09,0.24-0.1,0.38c0,0.02,0,0.04,0,0.06
									c0,0.06,0,0.12,0,0.19c0,0.03,0,0.06,0,0.08c0,0.09,0.01,0.18,0.04,0.26c0.01,0.03,0.04,0.09,0.04,0.09
									c0.01,0.02,0.02,0.07,0.04,0.1c0.02,0.03,0.05,0.07,0.07,0.09c0.02,0.02,0.04,0.06,0.07,0.08c0.02,0.02,0.09,0.07,0.08,0.06
									c0.01,0.01,0.05,0.05,0.08,0.06c0.14,0.08,0.3,0.12,0.45,0.12c0.1,0,0.2-0.02,0.28-0.06c0.09-0.03,0.17-0.08,0.24-0.15
									c0.04-0.05,0.08-0.1,0.11-0.15c0.07-0.11,0.1-0.24,0.1-0.37c-0.01-0.13-0.02-0.27-0.02-0.41c0-0.1-0.02-0.2-0.06-0.28
									C13.44,12.8,13.39,12.73,13.31,12.66c-0.07-0.07-0.15-0.12-0.24-0.15c-0.09-0.05-0.18-0.07-0.28-0.06
									c-0.07,0.01-0.13,0.02-0.2,0.03c-0.12,0.03-0.23,0.1-0.32,0.19c-0.04,0.05-0.08,0.1-0.11,0.15c-0.07,0.11-0.1,0.24-0.1,0.37
									c0,0.14,0,0.27,0.02,0.41c0.24-0.24,0.49-0.49,0.73-0.73c-0.01,0-0.02,0-0.03,0c0.07,0.01,0.13,0.02,0.2,0.03
									c-0.01,0-0.03,0-0.04-0.01c0.06,0.02,0.12,0.05,0.18,0.07c-0.01,0-0.01-0.01-0.02-0.01c0.05,0.04,0.1,0.08,0.15,0.11
									c-0.01,0-0.01-0.01-0.01-0.01c0.04,0.05,0.08,0.1,0.11,0.15c0-0.01-0.01-0.01-0.01-0.02c0.02,0.06,0.05,0.12,0.07,0.18
									c0-0.01-0.01-0.02-0.01-0.03c0.01,0.07,0.02,0.13,0.03,0.2c-0.01-0.06,0-0.13,0.01-0.19c0-0.03,0-0.07,0-0.1
									c0-0.02,0-0.05,0-0.07c-0.01,0.07-0.02,0.13-0.03,0.2v-0.01c-0.02,0.06-0.05,0.12-0.07,0.18l0,0
									c-0.04,0.05-0.08,0.1-0.11,0.15l0,0c-0.05,0.04-0.1,0.08-0.15,0.11l0,0c-0.06,0.02-0.12,0.05-0.18,0.07l0,0
									c-0.07,0.01-0.13,0.02-0.2,0.03l0,0c-0.07-0.01-0.13-0.02-0.2-0.03h0.01c-0.06-0.02-0.12-0.05-0.18-0.07
									c0.01,0,0.02,0.01,0.03,0.02c-0.05-0.04-0.1-0.08-0.15-0.11c0.02,0.02,0.04,0.03,0.06,0.05c0.07,0.07,0.15,0.12,0.24,0.15
									c0.09,0.05,0.18,0.07,0.28,0.06c0.1,0,0.2-0.02,0.28-0.06c0.09-0.03,0.17-0.08,0.24-0.15c0.04-0.05,0.08-0.1,0.11-0.15
									c0.07-0.11,0.1-0.24,0.1-0.37c-0.01-0.07-0.02-0.13-0.03-0.2C13.47,12.86,13.41,12.75,13.31,12.66z"/>
							</g>
						</g>
					</g>
				</g>
			</g>
		</g>
		<g>
			<g>
				<g>
					<g>
						<g>
							<g>
								<path class="st2" d="M20.24,13.7c0.02-0.02,0.04-0.03,0.06-0.05c-0.05,0.04-0.1,0.08-0.15,0.11
									c0.01-0.01,0.02-0.01,0.03-0.02c-0.06,0.02-0.12,0.05-0.18,0.07c0,0,0,0,0.01,0c-0.07,0.01-0.13,0.02-0.2,0.03l0,0
									c-0.07-0.01-0.13-0.02-0.2-0.03l0,0c-0.06-0.02-0.12-0.05-0.18-0.07l0,0c-0.05-0.04-0.1-0.08-0.15-0.11l0,0
									c-0.04-0.05-0.08-0.1-0.11-0.15l0,0c-0.02-0.06-0.05-0.12-0.07-0.18v0.01c-0.01-0.07-0.02-0.13-0.03-0.2
									c0,0.02,0,0.05,0,0.07c0,0.04,0,0.07,0,0.11c0,0.06,0.01,0.13,0.01,0.19c0.01-0.07,0.02-0.13,0.03-0.2
									c0,0.01,0,0.02-0.01,0.03c0.02-0.06,0.05-0.12,0.07-0.18c0,0.01-0.01,0.01-0.01,0.02c0.04-0.05,0.08-0.1,0.11-0.15
									c0,0.01-0.01,0.01-0.01,0.01c0.05-0.04,0.1-0.08,0.15-0.11c-0.01,0-0.01,0.01-0.02,0.01c0.06-0.02,0.12-0.05,0.18-0.07
									c-0.01,0-0.02,0.01-0.04,0.01c0.07-0.01,0.13-0.02,0.2-0.03c-0.01,0-0.02,0-0.03,0c0.24,0.24,0.49,0.49,0.73,0.73
									c0.01-0.13,0.02-0.27,0.02-0.41c0-0.1-0.02-0.2-0.06-0.28c-0.03-0.09-0.08-0.17-0.15-0.24S20.09,12.5,20,12.47
									c-0.09-0.05-0.18-0.07-0.28-0.06c-0.07,0.01-0.13,0.02-0.2,0.03c-0.12,0.03-0.23,0.1-0.32,0.19
									c-0.04,0.05-0.08,0.1-0.11,0.15c-0.07,0.11-0.1,0.24-0.1,0.37c0,0.14,0,0.27-0.02,0.41c0,0.1,0.02,0.2,0.06,0.28
									c0.03,0.09,0.08,0.17,0.15,0.24c0.05,0.04,0.1,0.08,0.15,0.11c0.11,0.07,0.24,0.1,0.37,0.1c0.17,0,0.3-0.04,0.44-0.11
									c0.12-0.06,0.24-0.18,0.3-0.3c0.03-0.06,0.07-0.13,0.08-0.2c0-0.01,0-0.01,0-0.02c0.01-0.05,0.02-0.15,0.03-0.2v-0.01
									c0-0.03,0-0.05,0-0.08c0-0.06-0.01-0.13,0-0.19c0-0.02,0-0.05,0-0.07V13.1c0-0.01-0.02-0.19-0.03-0.2l0,0
									c-0.03-0.12-0.11-0.25-0.19-0.33s-0.21-0.16-0.33-0.19c-0.03-0.01,0.03,0-0.1-0.01c-0.09-0.01-0.07-0.01-0.1-0.01
									c-0.13-0.01-0.28,0.04-0.39,0.11l-0.01,0.01c-0.05,0.04-0.11,0.08-0.16,0.13c-0.02,0.01-0.03,0.03-0.05,0.04
									c-0.07,0.07-0.12,0.15-0.15,0.24c-0.05,0.09-0.07,0.18-0.06,0.28c0,0.1,0.02,0.2,0.06,0.28c0.03,0.09,0.08,0.17,0.15,0.24
									c0.05,0.04,0.1,0.08,0.15,0.11c0.11,0.07,0.24,0.1,0.37,0.1c0.07-0.01,0.13-0.02,0.2-0.03
									C20.04,13.85,20.15,13.79,20.24,13.7z"/>
							</g>
						</g>
					</g>
				</g>
			</g>
		</g>
	</g>
	<g>
		<g>
			<g>
				<rect x="15.97" y="16.98" class="st2" width="0.58" height="2.77"/>
			</g>
		</g>
	</g>
	<g>
		<g>
			<g>
				<g>
					<g>
						<path class="st0" d="M13.12,25.27c-1.24,1.63-3.2,2.68-5.41,2.68c-3.75,0-6.79-3.04-6.79-6.79s3.04-6.79,6.79-6.79"/>
					</g>
				</g>
				<g>
					<g>
						<path class="st2" d="M7.71,28.61c-4.11,0-7.45-3.34-7.45-7.45s3.34-7.45,7.45-7.45c0.36,0,0.66,0.3,0.66,0.66
							s-0.3,0.66-0.66,0.66c-3.38,0-6.13,2.75-6.13,6.13s2.75,6.13,6.13,6.13c1.93,0,3.71-0.88,4.88-2.42
							c0.22-0.29,0.64-0.35,0.93-0.13c0.29,0.22,0.35,0.64,0.13,0.93C12.23,27.54,10.06,28.61,7.71,28.61z"/>
					</g>
				</g>
			</g>
		</g>
		<g>
			<g>
				<g>
					<g>
						<rect x="7.13" y="18.18" class="st2" width="1.17" height="6.09"/>
					</g>
				</g>
			</g>
			<g>
				<g>
					<g>
						<rect x="4.6" y="20.64" class="st2" width="6.22" height="1.17"/>
					</g>
				</g>
			</g>
		</g>
		<g>
			<g>
				<g>
					<g>
						<g>
							<path class="st0" d="M19.4,25.27c1.24,1.63,3.2,2.68,5.41,2.68c3.75,0,6.79-3.04,6.79-6.79s-3.04-6.79-6.79-6.79"/>
						</g>
					</g>
					<g>
						<g>
							<path class="st2" d="M24.81,28.61c-2.35,0-4.51-1.07-5.94-2.95c-0.22-0.29-0.16-0.7,0.13-0.93c0.29-0.22,0.7-0.16,0.93,0.13
								c1.17,1.54,2.95,2.42,4.88,2.42c3.38,0,6.13-2.75,6.13-6.13s-2.75-6.13-6.13-6.13c-0.36,0-0.66-0.3-0.66-0.66
								s0.3-0.66,0.66-0.66c4.11,0,7.45,3.34,7.45,7.45S28.92,28.61,24.81,28.61z"/>
						</g>
					</g>
				</g>
			</g>
			<g>
				<g>
					<g>
						<g>
							<rect x="21.92" y="20.64" class="st2" width="6.22" height="1.17"/>
						</g>
					</g>
				</g>
			</g>
		</g>
	</g>
</g>
</svg>
