<?xml version="1.0" encoding="utf-8"?>
<!-- Generator: Adobe Illustrator 25.0.1, SVG Export Plug-In . SVG Version: 6.00 Build 0)  -->
<svg version="1.1" id="レイヤー_1" xmlns="http://www.w3.org/2000/svg" xmlns:xlink="http://www.w3.org/1999/xlink" x="0px"
	 y="0px" viewBox="0 0 167.44 36.68" style="enable-background:new 0 0 167.44 36.68;" xml:space="preserve">
<style type="text/css">
	.st0{fill:#62BFEB;}
	.st1{fill:#4776E1;}
	.st2{fill:#FFFFFF;}
	.st3{fill:#55C4DE;}
</style>
<g>
	<g>
		<path class="st0" d="M9.6,16.75v-2.4c0-0.36-0.29-0.65-0.65-0.65H0.99c-0.36,0.01-0.65,0.3-0.65,0.66v2.4
			c0,0.36,0.29,0.65,0.65,0.65h7.96C9.31,17.4,9.6,17.11,9.6,16.75z"/>
		<path class="st0" d="M0.99,10.02h7.96c0.36,0,0.65-0.29,0.65-0.65V6.94c0-0.36-0.29-0.65-0.65-0.65H0.99
			c-0.36,0-0.65,0.29-0.65,0.65v2.43C0.34,9.73,0.63,10.02,0.99,10.02z"/>
		<path class="st0" d="M22.51,11.92l-2.06-0.81c-0.18-0.07-0.37-0.06-0.54,0.03c-0.17,0.08-0.29,0.24-0.33,0.42
			c-2.68,10.51-7.77,14.8-17.57,14.8c-0.04,0-0.08,0-0.12,0c-0.2-0.02-0.34,0.07-0.46,0.19C1.31,26.67,1.24,26.83,1.24,27v2.6
			c0,0.36,0.29,0.65,0.65,0.65c11.32,0,17.8-5.42,21.01-17.56C22.98,12.37,22.82,12.04,22.51,11.92z"/>
	</g>
	<path class="st0" d="M44.52,26.18h-5.61l0.68-12c0.01-0.18-0.05-0.35-0.18-0.48c-0.12-0.13-0.29-0.2-0.47-0.2h-9.87
		c-0.36,0-0.65,0.29-0.65,0.65v1.73c0,0.36,0.29,0.65,0.65,0.65h7.23l-0.63,9.66h-9.9c-0.36,0-0.65,0.29-0.65,0.65v1.82
		c0,0.36,0.29,0.65,0.65,0.65h18.76c0.36,0,0.65-0.29,0.65-0.65v-1.82C45.17,26.47,44.88,26.18,44.52,26.18z"/>
	<path class="st1" d="M63.5,18.03h3.84l-0.13-0.39c-0.59-1.71-2.2-2.85-4-2.85c-1.69,0-3.19,0.98-3.87,2.52H47.21v3.43h12.13
		c0.68,1.54,2.18,2.52,3.87,2.52c1.8,0,3.41-1.15,4-2.85l0.13-0.39H63.5V18.03z"/>
	<g>
		<path class="st0" d="M113.12,26.33c-2.91-2.78-5.66-5.31-8.4-7.7c2.22-3.19,4.03-6.65,5.51-10.58c0.08-0.22,0.05-0.47-0.08-0.67
			c-0.13-0.2-0.36-0.31-0.59-0.31H95.07c-0.4,0-0.73,0.32-0.73,0.72v1.85c0,0.4,0.32,0.72,0.72,0.72h10.35
			c-3.23,6.95-7.35,11.76-13.62,15.94c-0.33,0.22-0.42,0.66-0.2,1l1.11,1.71c0.14,0.21,0.37,0.33,0.61,0.33
			c0.13,0,0.27-0.04,0.39-0.11c3.51-2.24,6.52-4.88,8.94-7.84c2.53,2.21,5.17,4.68,8.04,7.53c0.14,0.14,0.33,0.23,0.52,0.21
			c0.2,0,0.38-0.09,0.52-0.23l1.44-1.55C113.42,27.05,113.4,26.6,113.12,26.33z"/>
		<path class="st0" d="M86.84,6.51h-2.6c-0.3,0-0.54,0.24-0.54,0.54c-0.02,1.54-0.01,2.96,0.01,4.29c0.05,4.74,0.08,8.17-1.5,11.2
			c-1.24,2.35-3.4,3.72-7.22,4.6c-0.16,0.04-0.29,0.14-0.36,0.28c-0.07,0.14-0.08,0.31-0.02,0.46l0.85,2.05
			c0.08,0.21,0.29,0.34,0.5,0.34c0.04,0,0.08,0,0.13-0.01c10.46-2.5,11.31-8.97,11.31-16.54V7.05C87.39,6.75,87.14,6.51,86.84,6.51z
			"/>
		<path class="st0" d="M77.04,19.17V7c0-0.2-0.16-0.36-0.36-0.36h-2.73c-0.2,0-0.36,0.16-0.36,0.36v12.17c0,0.2,0.16,0.36,0.36,0.36
			h2.73C76.88,19.53,77.04,19.37,77.04,19.17z"/>
	</g>
</g>
<g>
	<g>
		<g>
			<rect x="135.12" y="25.76" class="st2" width="22.1" height="6.93"/>
		</g>
	</g>
	<g>
		<g>
			<g>
				<g>
					<g>
						<path class="st2" d="M141.01,7.46c0,0-3.85-8.04-4.82-6.1c-1.06,2.11-1.94,5.43,0,7.39c4.69,4.76,2.97,1.08,2.97,1.08
							L141.01,7.46z"/>
					</g>
				</g>
			</g>
			<g>
				<g>
					<g>
						<path class="st3" d="M139.26,11.83c-0.6,0-1.54-0.63-3.52-2.63c-2.57-2.61-0.74-6.87-0.12-8.12c0.21-0.41,0.56-0.65,0.97-0.65
							h0.01c1.52,0.01,3.77,4.24,4.97,6.76l0.17,0.35l-1.86,2.39c0.33,0.86,0.28,1.44-0.15,1.74
							C139.6,11.77,139.44,11.83,139.26,11.83z M136.71,1.76c-1.06,2.18-1.6,4.99-0.06,6.56c0.93,0.95,1.55,1.5,1.96,1.81
							c0-0.01-0.01-0.01-0.01-0.02l-0.16-0.35l1.84-2.37C138.92,4.62,137.39,2.21,136.71,1.76z"/>
					</g>
				</g>
			</g>
			<g>
				<g>
					<g>
						<path class="st1" d="M139.26,11.99c-0.73,0-1.76-0.79-3.63-2.68c-2.64-2.68-0.78-7.03-0.14-8.3c0.24-0.47,0.66-0.76,1.12-0.74
							c1.52,0.01,3.62,3.73,5.11,6.85c0.13,0.27,0.09,0.59-0.09,0.83l-1.57,2.01c0.32,0.89,0.24,1.51-0.24,1.85
							C139.65,11.93,139.47,11.99,139.26,11.99z M136.76,2c-0.98,2.09-1.45,4.73-0.01,6.2c0.71,0.72,1.24,1.21,1.62,1.54
							c0.02-0.14,0.07-0.27,0.16-0.39l1.55-1.99C138.86,4.87,137.47,2.64,136.76,2z"/>
					</g>
				</g>
			</g>
		</g>
		<g>
			<g>
				<g>
					<g>
						<path class="st2" d="M152.86,7.46c0,0,3.85-8.04,4.82-6.1c1.06,2.11,1.94,5.43,0,7.39c-4.69,4.76-2.97,1.08-2.97,1.08
							L152.86,7.46z"/>
					</g>
				</g>
			</g>
			<g>
				<g>
					<g>
						<path class="st3" d="M154.61,11.83c-0.18,0-0.34-0.06-0.48-0.16c-0.43-0.3-0.48-0.89-0.15-1.74l-1.86-2.39l0.17-0.35
							c1.2-2.52,3.45-6.75,4.97-6.76c0.4,0.02,0.77,0.23,0.98,0.65c0.62,1.25,2.46,5.51-0.12,8.12
							C156.15,11.2,155.21,11.83,154.61,11.83z M153.6,7.38l1.84,2.37l-0.16,0.35c0,0.01-0.01,0.01-0.01,0.02
							c0.4-0.32,1.02-0.87,1.95-1.81c1.55-1.57,0.99-4.39-0.06-6.56C156.49,2.21,154.95,4.62,153.6,7.38z"/>
					</g>
				</g>
			</g>
			<g>
				<g>
					<g>
						<path class="st1" d="M154.61,11.99c-0.21,0-0.39-0.06-0.56-0.18c-0.49-0.34-0.57-0.96-0.24-1.85l-1.57-2.01
							c-0.18-0.24-0.22-0.56-0.09-0.83c1.49-3.12,3.59-6.83,5.11-6.85h0.01c0.47,0,0.88,0.27,1.11,0.74c0.63,1.27,2.5,5.62-0.14,8.3
							C156.37,11.2,155.34,11.99,154.61,11.99z M153.79,7.36l1.55,1.99c0.09,0.11,0.14,0.25,0.16,0.38
							c0.38-0.33,0.91-0.81,1.62-1.54c1.45-1.47,0.97-4.11,0-6.2C156.4,2.64,155.01,4.87,153.79,7.36z"/>
					</g>
				</g>
			</g>
		</g>
	</g>
	<g>
		<g>
			<path class="st1" d="M155.32,33.62H139.2c-0.47,0-0.84-0.38-0.84-0.84s0.38-0.84,0.84-0.84h16.12c0.47,0,0.84,0.38,0.84,0.84
				S155.79,33.62,155.32,33.62z"/>
		</g>
	</g>
	<g>
		<g>
			<path class="st2" d="M160.57,28.52c0,0,1.43-18.89-8.3-23.94c-0.73-0.38-2.68-1.13-5.25-1.14h-0.17
				c-2.57,0.02-4.51,0.76-5.25,1.14c-9.73,5.06-8.3,23.94-8.3,23.94"/>
		</g>
		<g>
			<path class="st1" d="M133.3,29.34c-0.43,0-0.79-0.33-0.82-0.76c-0.06-0.79-1.35-19.49,8.74-24.74c0.39-0.2,2.49-1.22,5.62-1.23
				h0.18c3.13,0.02,5.24,1.03,5.63,1.23c10.1,5.25,8.8,23.94,8.74,24.74c-0.03,0.45-0.44,0.79-0.88,0.76
				c-0.45-0.03-0.8-0.43-0.76-0.88c0.01-0.18,1.27-18.4-7.86-23.15c-0.2-0.11-2.06-1.03-4.87-1.05h-0.17
				c-2.8,0.02-4.66,0.94-4.86,1.05c-9.13,4.75-7.87,22.97-7.86,23.15c0.03,0.45-0.31,0.85-0.76,0.88
				C133.35,29.34,133.32,29.34,133.3,29.34z"/>
		</g>
	</g>
	<g>
		<g>
			<path class="st1" d="M144.94,21.24c0-0.45,0.89-0.49,1.99-0.49s1.99,0.04,1.99,0.49s-0.89,1.71-1.99,1.71
				C145.84,22.95,144.94,21.69,144.94,21.24z"/>
		</g>
	</g>
	<g>
		<g>
			<g>
				<path class="st1" d="M146.94,3.5c2.8,0,3.11,0.58,4.25,1.04c0,0,1.42,0.64-1.35,8.88c-2.08,6.19-2.38,8.73-2.38,8.73h-1.01
					c0,0-0.3-2.53-2.38-8.73c-2.77-8.24-1.35-8.88-1.35-8.88C143.83,4.09,144.14,3.5,146.94,3.5"/>
			</g>
		</g>
	</g>
	<g>
		<g>
			<g>
				<g>
					<g>
						<g>
							<path class="st1" d="M143.18,15.92c-0.08-0.08-0.18-0.16-0.28-0.22l-0.01-0.01c-0.03-0.02-0.18-0.08-0.12-0.05
								c0.07,0.03-0.08-0.04-0.12-0.05l0,0c-0.01,0-0.24-0.03-0.25-0.03c-0.09,0-0.17,0.01-0.26,0.03
								c-0.07,0.03-0.15,0.06-0.22,0.09l0,0c0,0-0.19,0.14-0.19,0.15c-0.02,0.02-0.13,0.17-0.15,0.19c-0.1,0.16-0.12,0.31-0.13,0.49
								c0,0.03,0,0.05,0,0.08c0.01,0.08,0.01,0.16,0,0.24c0,0.04-0.01,0.07-0.01,0.11c0,0.11,0.01,0.23,0.05,0.33
								c0.01,0.04,0.05,0.12,0.05,0.12c0.01,0.02,0.03,0.08,0.05,0.12s0.07,0.09,0.08,0.11c0.02,0.03,0.05,0.08,0.09,0.11
								c0.03,0.03,0.12,0.09,0.1,0.08c0.02,0.01,0.07,0.06,0.1,0.08c0.17,0.1,0.38,0.15,0.58,0.15c0.13,0,0.25-0.02,0.36-0.08
								c0.12-0.04,0.22-0.1,0.3-0.19c0.05-0.06,0.1-0.13,0.15-0.19c0.08-0.15,0.13-0.3,0.13-0.47c-0.01-0.17-0.02-0.34-0.02-0.52
								c0-0.13-0.02-0.25-0.08-0.36C143.34,16.11,143.27,16.01,143.18,15.92c-0.08-0.09-0.19-0.16-0.3-0.19
								c-0.11-0.06-0.23-0.09-0.36-0.08c-0.08,0.01-0.17,0.02-0.25,0.03c-0.16,0.04-0.3,0.12-0.41,0.24
								c-0.05,0.06-0.1,0.13-0.15,0.19c-0.08,0.15-0.13,0.3-0.13,0.47s0.01,0.35,0.02,0.52c0.31-0.31,0.62-0.62,0.94-0.94
								c-0.01,0-0.03,0-0.04,0c0.08,0.01,0.17,0.02,0.25,0.03c-0.02,0-0.03-0.01-0.05-0.01c0.07,0.03,0.15,0.06,0.22,0.09
								c-0.01,0-0.02-0.01-0.02-0.01c0.06,0.05,0.13,0.1,0.19,0.15c-0.01-0.01-0.01-0.01-0.02-0.02c0.05,0.06,0.1,0.13,0.15,0.19
								c-0.01-0.01-0.01-0.02-0.01-0.03c0.03,0.07,0.06,0.15,0.09,0.22c-0.01-0.01-0.01-0.03-0.01-0.04
								c0.01,0.08,0.02,0.17,0.03,0.25c-0.01-0.08,0.01-0.16,0.01-0.24c0-0.04,0-0.09,0-0.13c0-0.03-0.01-0.06,0-0.09
								c-0.01,0.08-0.02,0.17-0.03,0.25c0-0.01,0-0.01,0-0.01c-0.03,0.07-0.06,0.15-0.09,0.22c0,0,0,0,0-0.01
								c-0.05,0.06-0.1,0.13-0.15,0.19l0,0c-0.06,0.05-0.13,0.1-0.19,0.15l0,0c-0.07,0.03-0.15,0.06-0.22,0.09l0,0
								c-0.08,0.01-0.17,0.02-0.25,0.03c0,0,0,0,0.01,0c-0.08-0.01-0.17-0.02-0.25-0.03h0.01c-0.07-0.03-0.15-0.06-0.22-0.09
								c0.01,0.01,0.02,0.01,0.03,0.02c-0.06-0.05-0.13-0.1-0.19-0.15c0.03,0.02,0.05,0.04,0.07,0.06c0.08,0.09,0.19,0.16,0.3,0.19
								c0.11,0.06,0.23,0.09,0.36,0.08c0.13,0,0.25-0.02,0.36-0.08c0.12-0.04,0.22-0.1,0.3-0.19c0.05-0.06,0.1-0.13,0.15-0.19
								c0.08-0.15,0.13-0.3,0.13-0.47c-0.01-0.08-0.02-0.17-0.03-0.25C143.38,16.18,143.3,16.04,143.18,15.92z"/>
						</g>
					</g>
				</g>
			</g>
		</g>
		<g>
			<g>
				<g>
					<g>
						<g>
							<path class="st1" d="M152.02,17.25c0.02-0.02,0.05-0.04,0.07-0.06c-0.06,0.05-0.13,0.1-0.19,0.15
								c0.01-0.01,0.02-0.02,0.03-0.02c-0.07,0.03-0.15,0.06-0.22,0.09h0.01c-0.08,0.01-0.17,0.02-0.25,0.03c0,0,0,0,0.01,0
								c-0.08-0.01-0.17-0.02-0.25-0.03l0,0c-0.07-0.03-0.15-0.06-0.22-0.09l0,0c-0.06-0.05-0.13-0.1-0.19-0.15l0,0
								c-0.05-0.06-0.1-0.13-0.15-0.19c0,0,0,0,0,0.01c-0.03-0.07-0.06-0.15-0.09-0.22v0.01c-0.01-0.08-0.02-0.17-0.03-0.25
								c0,0.03,0,0.06,0,0.09c0,0.04-0.01,0.09,0,0.13c0,0.08,0.02,0.16,0.01,0.24c0.01-0.08,0.02-0.17,0.03-0.25
								c0,0.02-0.01,0.03-0.01,0.04c0.03-0.07,0.06-0.15,0.09-0.22c0,0.01-0.01,0.02-0.01,0.03c0.05-0.06,0.1-0.13,0.15-0.19
								c-0.01,0.01-0.01,0.01-0.02,0.02c0.06-0.05,0.13-0.1,0.19-0.15c-0.01,0.01-0.02,0.01-0.02,0.01
								c0.07-0.03,0.15-0.06,0.22-0.09c-0.02,0.01-0.03,0.01-0.05,0.01c0.08-0.01,0.17-0.02,0.25-0.03c-0.01,0-0.03,0-0.04,0
								c0.31,0.31,0.62,0.62,0.94,0.94c0.01-0.17,0.02-0.34,0.02-0.52c0-0.13-0.02-0.25-0.08-0.36c-0.04-0.12-0.1-0.22-0.19-0.3
								c-0.08-0.09-0.19-0.16-0.3-0.19c-0.11-0.06-0.23-0.09-0.36-0.08c-0.08,0.01-0.17,0.02-0.25,0.03
								c-0.16,0.04-0.3,0.12-0.41,0.24c-0.05,0.06-0.1,0.13-0.15,0.19c-0.08,0.15-0.13,0.3-0.13,0.47s-0.01,0.35-0.02,0.52
								c0,0.13,0.02,0.25,0.08,0.36c0.04,0.12,0.1,0.22,0.19,0.3c0.06,0.05,0.13,0.1,0.19,0.15c0.15,0.08,0.3,0.13,0.47,0.13
								c0.21,0,0.38-0.05,0.57-0.14c0.15-0.08,0.3-0.23,0.38-0.38c0.04-0.08,0.08-0.17,0.11-0.25c0-0.01,0-0.01,0-0.02
								c0.01-0.07,0.03-0.19,0.03-0.25c0-0.01,0-0.01,0-0.02c0-0.03,0-0.07,0-0.1c-0.01-0.08-0.01-0.16,0-0.24c0-0.03,0-0.06,0-0.09
								v-0.01c0-0.02-0.03-0.24-0.03-0.25c0,0,0,0,0-0.01c-0.04-0.15-0.14-0.32-0.25-0.43c-0.11-0.11-0.27-0.21-0.42-0.24
								c-0.04-0.01,0.04,0-0.13-0.02c-0.11-0.01-0.08-0.01-0.13-0.02c-0.17-0.01-0.35,0.05-0.49,0.14c-0.01,0-0.01,0.01-0.02,0.01
								c-0.07,0.05-0.14,0.11-0.21,0.16c-0.02,0.02-0.04,0.04-0.06,0.05c-0.09,0.08-0.16,0.19-0.19,0.3
								c-0.06,0.11-0.09,0.23-0.08,0.36c0,0.13,0.02,0.25,0.08,0.36c0.04,0.12,0.1,0.22,0.19,0.3c0.06,0.05,0.13,0.1,0.19,0.15
								c0.15,0.08,0.3,0.13,0.47,0.13c0.08-0.01,0.17-0.02,0.25-0.03C151.76,17.44,151.9,17.36,152.02,17.25z"/>
						</g>
					</g>
				</g>
			</g>
		</g>
	</g>
	<g>
		<g>
			<rect x="146.57" y="21.43" class="st1" width="0.74" height="3.54"/>
		</g>
	</g>
	<g>
		<g>
			<g>
				<g>
					<path class="st2" d="M142.94,32c-1.58,2.08-4.08,3.42-6.9,3.42c-4.78,0-8.66-3.88-8.66-8.66s3.88-8.66,8.66-8.66"/>
				</g>
				<g>
					<path class="st1" d="M136.04,36.27c-5.24,0-9.51-4.26-9.51-9.51s4.26-9.51,9.51-9.51c0.47,0,0.84,0.38,0.84,0.84
						c0,0.47-0.38,0.84-0.84,0.84c-4.31,0-7.82,3.51-7.82,7.82s3.51,7.82,7.82,7.82c2.46,0,4.73-1.13,6.23-3.09
						c0.28-0.37,0.81-0.44,1.18-0.16s0.44,0.81,0.16,1.18C141.79,34.9,139.03,36.27,136.04,36.27z"/>
				</g>
			</g>
		</g>
		<g>
			<g>
				<g>
					<rect x="135.29" y="22.97" class="st1" width="1.49" height="7.77"/>
				</g>
			</g>
			<g>
				<g>
					<rect x="132.07" y="26.1" class="st1" width="7.93" height="1.49"/>
				</g>
			</g>
		</g>
		<g>
			<g>
				<g>
					<g>
						<path class="st2" d="M150.93,32c1.58,2.08,4.08,3.42,6.9,3.42c4.78,0,8.66-3.88,8.66-8.66s-3.88-8.66-8.66-8.66"/>
					</g>
					<g>
						<path class="st1" d="M157.83,36.27c-3,0-5.75-1.37-7.57-3.76c-0.28-0.37-0.21-0.9,0.16-1.18c0.37-0.28,0.9-0.21,1.18,0.16
							c1.49,1.97,3.76,3.09,6.23,3.09c4.31,0,7.82-3.51,7.82-7.82s-3.51-7.82-7.82-7.82c-0.47,0-0.84-0.38-0.84-0.84
							c0-0.47,0.38-0.84,0.84-0.84c5.24,0,9.51,4.26,9.51,9.51S163.08,36.27,157.83,36.27z"/>
					</g>
				</g>
			</g>
			<g>
				<g>
					<g>
						<rect x="154.15" y="26.1" class="st1" width="7.93" height="1.49"/>
					</g>
				</g>
			</g>
		</g>
	</g>
</g>
</svg>
