<svg id="Component_7_1" data-name="Component 7 – 1" xmlns="http://www.w3.org/2000/svg" width="50" height="50" viewBox="0 0 50 50">
  <g id="Rectangle_15" data-name="Rectangle 15" fill="rgba(255,255,255,0)" stroke="rgba(255,255,255,0)" stroke-width="1">
    <rect width="50" height="50" stroke="none"/>
    <rect x="0.5" y="0.5" width="49" height="49" fill="none"/>
  </g>
  <g id="top_kesanku_rogo-02" transform="translate(16 12.5)">
    <path id="Path_24" data-name="Path 24" d="M9.09.19H8.91C4,.22-.43,5.42.03,10.69c.41,7.03,4.12,8.24,8.94,14.12h.06c4.82-5.89,8.53-7.1,8.94-14.12C18.43,5.42,14,.22,9.09.19ZM9,13.35A4.06,4.06,0,0,1,5.07,9.17,4.06,4.06,0,0,1,9,4.99a4.06,4.06,0,0,1,3.93,4.18A4.06,4.06,0,0,1,9,13.35Z" fill="#fff"/>
  </g>
</svg>
