<svg id="Component_2_1" data-name="Component 2 – 1" xmlns="http://www.w3.org/2000/svg" width="40" height="40" viewBox="0 0 40 40">
  <g id="Rectangle_10" data-name="Rectangle 10" fill="rgba(255,255,255,0)" stroke="rgba(112,112,112,0)" stroke-width="1">
    <rect width="40" height="40" stroke="none"/>
    <rect x="0.5" y="0.5" width="39" height="39" fill="none"/>
  </g>
  <g id="menu_case" transform="translate(11.73 4.977)">
    <path id="Path_1" data-name="Path 1" d="M10.49,29.03H5.51a.839.839,0,0,1-.84-.84V14.36A7.735,7.735,0,0,1,5.48.07a.866.866,0,0,1,.76.12.844.844,0,0,1,.35.69V6.55H9.41V.87A.857.857,0,0,1,9.76.18a.844.844,0,0,1,.77-.11,7.735,7.735,0,0,1,.81,14.29V28.19A.854.854,0,0,1,10.49,29.03ZM6.35,27.34H9.64V13.81a.844.844,0,0,1,.54-.79,6,6,0,0,0,3.86-5.63A6.067,6.067,0,0,0,11.09,2.2V7.39a.839.839,0,0,1-.84.84H5.75a.849.849,0,0,1-.85-.85V2.19a6.038,6.038,0,0,0,.91,10.82.859.859,0,0,1,.54.79Z" fill="#fff"/>
  </g>
</svg>
