<svg id="Component_4_1" data-name="Component 4 – 1" xmlns="http://www.w3.org/2000/svg" width="40" height="40" viewBox="0 0 40 40">
  <g id="menu_msg" transform="translate(7 9.69)">
    <g id="Group_7" data-name="Group 7">
      <g id="Group_6" data-name="Group 6">
        <path id="Path_3" data-name="Path 3" d="M24.15,20.57a1.225,1.225,0,0,1-.19-.02,26.316,26.316,0,0,1-4.79-1.66A16.524,16.524,0,0,1,13,20.07c-7.17,0-13-4.41-13-9.82S5.83.43,13,.43s13,4.41,13,9.82a8.4,8.4,0,0,1-2.63,5.93,30.918,30.918,0,0,1,1.57,3.21.838.838,0,0,1-.14.87A.829.829,0,0,1,24.15,20.57ZM19.2,17.1a.891.891,0,0,1,.39.09,19.119,19.119,0,0,0,3.02,1.2c-.29-.59-.65-1.27-1.05-1.93a.832.832,0,0,1,.17-1.08,6.9,6.9,0,0,0,2.57-5.14c0-4.48-5.07-8.12-11.3-8.12S1.7,5.76,1.7,10.24,6.77,18.36,13,18.36a14.52,14.52,0,0,0,5.86-1.2A1.35,1.35,0,0,1,19.2,17.1Z" fill="#4776e1"/>
      </g>
    </g>
    <g id="Group_8" data-name="Group 8">
      <circle id="Ellipse_1" data-name="Ellipse 1" cx="1.51" cy="1.51" r="1.51" transform="translate(5.8 8.8)" fill="#4776e1"/>
      <circle id="Ellipse_2" data-name="Ellipse 2" cx="1.51" cy="1.51" r="1.51" transform="translate(11.34 8.8)" fill="#4776e1"/>
      <circle id="Ellipse_3" data-name="Ellipse 3" cx="1.51" cy="1.51" r="1.51" transform="translate(16.88 8.8)" fill="#4776e1"/>
    </g>
  </g>
  <g id="Rectangle_12" data-name="Rectangle 12" fill="rgba(255,255,255,0)" stroke="rgba(112,112,112,0)" stroke-width="1">
    <rect width="40" height="40" stroke="none"/>
    <rect x="0.5" y="0.5" width="39" height="39" fill="none"/>
  </g>
</svg>
