<svg id="menu_thewlis_m" xmlns="http://www.w3.org/2000/svg" width="40" height="40" viewBox="0 0 40 40">
  <g id="Rectangle_9" data-name="Rectangle 9" fill="rgba(255,255,255,0)" stroke="rgba(112,112,112,0)" stroke-width="1">
    <rect width="40" height="40" stroke="none"/>
    <rect x="0.5" y="0.5" width="39" height="39" fill="none"/>
  </g>
  <g id="menu_thewlis" transform="translate(3.74 5.621)">
    <g id="Group_11" data-name="Group 11">
      <g id="Group_10" data-name="Group 10">
        <g id="Group_9" data-name="Group 9">
          <rect id="Rectangle_4" data-name="Rectangle 4" width="17.33" height="5.43" transform="translate(6.99 20.38)" fill="#4776e1"/>
        </g>
      </g>
    </g>
    <g id="Group_38" data-name="Group 38">
      <g id="Group_24" data-name="Group 24">
        <g id="Group_15" data-name="Group 15">
          <g id="Group_14" data-name="Group 14">
            <g id="Group_13" data-name="Group 13">
              <g id="Group_12" data-name="Group 12">
                <path id="Path_4" data-name="Path 4" d="M11.61,6.02S8.59-.28,7.83,1.24C7,2.9,6.31,5.5,7.83,7.04c3.68,3.73,2.33.85,2.33.85Z" fill="#4776e1"/>
              </g>
            </g>
          </g>
        </g>
        <g id="Group_19" data-name="Group 19">
          <g id="Group_18" data-name="Group 18">
            <g id="Group_17" data-name="Group 17">
              <g id="Group_16" data-name="Group 16">
                <path id="Path_5" data-name="Path 5" d="M10.24,9.45c-.47,0-1.21-.49-2.76-2.06C5.47,5.34,6.91,2,7.39,1.02A.864.864,0,0,1,8.15.51h.01c1.19.01,2.95,3.33,3.9,5.3l.13.28L10.73,7.97c.26.67.22,1.13-.12,1.37a.647.647,0,0,1-.37.11Zm-2-7.9c-.83,1.71-1.26,3.92-.05,5.14A18.743,18.743,0,0,0,9.72,8.11c0-.01,0-.01-.01-.02l-.12-.27,1.45-1.86a16.776,16.776,0,0,0-2.8-4.41Z" fill="#55c4de"/>
              </g>
            </g>
          </g>
        </g>
        <g id="Group_23" data-name="Group 23">
          <g id="Group_22" data-name="Group 22">
            <g id="Group_21" data-name="Group 21">
              <g id="Group_20" data-name="Group 20">
                <path id="Path_6" data-name="Path 6" d="M10.24,9.57c-.57,0-1.38-.62-2.85-2.1C5.32,5.37,6.78,1.96,7.28.96A.96.96,0,0,1,8.16.38C9.36.39,11,3.31,12.17,5.75a.637.637,0,0,1-.07.65L10.87,7.98c.25.7.19,1.18-.19,1.45a.744.744,0,0,1-.44.14ZM8.28,1.75c-.76,1.64-1.14,3.71,0,4.86.56.57.97.95,1.27,1.21a.575.575,0,0,1,.13-.31l1.21-1.56a17.862,17.862,0,0,0-2.61-4.2Z" fill="#fff"/>
              </g>
            </g>
          </g>
        </g>
      </g>
      <g id="Group_37" data-name="Group 37">
        <g id="Group_28" data-name="Group 28">
          <g id="Group_27" data-name="Group 27">
            <g id="Group_26" data-name="Group 26">
              <g id="Group_25" data-name="Group 25">
                <path id="Path_7" data-name="Path 7" d="M20.91,6.02s3.02-6.3,3.78-4.78c.83,1.66,1.52,4.26,0,5.8-3.68,3.73-2.33.85-2.33.85Z" fill="#4776e1"/>
              </g>
            </g>
          </g>
        </g>
        <g id="Group_32" data-name="Group 32">
          <g id="Group_31" data-name="Group 31">
            <g id="Group_30" data-name="Group 30">
              <g id="Group_29" data-name="Group 29">
                <path id="Path_8" data-name="Path 8" d="M22.28,9.45a.679.679,0,0,1-.37-.12c-.34-.24-.38-.7-.12-1.37L20.33,6.08l.13-.28C21.4,3.82,23.17.51,24.36.5a.908.908,0,0,1,.77.51c.49.98,1.93,4.32-.09,6.37C23.49,8.96,22.75,9.45,22.28,9.45Zm-.79-3.49,1.45,1.86-.14.28c0,.01,0,.01-.01.02A17.179,17.179,0,0,0,24.32,6.7c1.21-1.23.78-3.44-.05-5.14a16.409,16.409,0,0,0-2.78,4.4Z" fill="#fff"/>
              </g>
            </g>
          </g>
        </g>
        <g id="Group_36" data-name="Group 36">
          <g id="Group_35" data-name="Group 35">
            <g id="Group_34" data-name="Group 34">
              <g id="Group_33" data-name="Group 33">
                <path id="Path_9" data-name="Path 9" d="M22.28,9.57a.767.767,0,0,1-.44-.14c-.38-.27-.44-.75-.19-1.45L20.42,6.4a.634.634,0,0,1-.07-.65C21.52,3.31,23.16.39,24.36.38h.01a.959.959,0,0,1,.87.58c.5,1,1.96,4.41-.11,6.51C23.66,8.96,22.85,9.57,22.28,9.57Zm-.65-3.62,1.21,1.56a.563.563,0,0,1,.12.3c.3-.26.71-.64,1.27-1.2,1.14-1.15.76-3.22,0-4.86a18.272,18.272,0,0,0-2.6,4.2Z" fill="#fff"/>
              </g>
            </g>
          </g>
        </g>
      </g>
    </g>
    <g id="Group_41" data-name="Group 41">
      <g id="Group_40" data-name="Group 40">
        <g id="Group_39" data-name="Group 39">
          <path id="Path_10" data-name="Path 10" d="M22.84,26.53H10.19a.66.66,0,1,1,0-1.32H22.83a.666.666,0,0,1,.66.66.645.645,0,0,1-.65.66Z" fill="#fff"/>
        </g>
      </g>
    </g>
    <g id="Group_46" data-name="Group 46">
      <g id="Group_43" data-name="Group 43">
        <g id="Group_42" data-name="Group 42">
          <path id="Path_11" data-name="Path 11" d="M26.95,22.54S28.07,7.73,20.44,3.76a9.568,9.568,0,0,0-4.11-.89H16.2a9.724,9.724,0,0,0-4.11.89C4.45,7.73,5.57,22.54,5.57,22.54" fill="#4776e1"/>
        </g>
      </g>
      <g id="Group_45" data-name="Group 45">
        <g id="Group_44" data-name="Group 44">
          <path id="Path_12" data-name="Path 12" d="M5.57,23.18a.637.637,0,0,1-.64-.6C4.88,21.96,3.86,7.3,11.78,3.19a10.2,10.2,0,0,1,4.41-.97h.14a9.952,9.952,0,0,1,4.41.97c7.92,4.11,6.9,18.78,6.85,19.4a.647.647,0,0,1-1.29-.09c.01-.14,1-14.43-6.16-18.15a8.89,8.89,0,0,0-3.82-.82h-.13a8.771,8.771,0,0,0-3.81.82C5.22,8.06,6.21,22.34,6.22,22.49a.636.636,0,0,1-.6.69Z" fill="#fff"/>
        </g>
      </g>
    </g>
    <g id="Group_49" data-name="Group 49">
      <g id="Group_48" data-name="Group 48">
        <g id="Group_47" data-name="Group 47">
          <path id="Path_13" data-name="Path 13" d="M14.7,16.83c0-.35.7-.38,1.56-.38s1.56.03,1.56.38a1.828,1.828,0,0,1-1.56,1.34,1.828,1.828,0,0,1-1.56-1.34Z" fill="#fff"/>
        </g>
      </g>
    </g>
    <g id="Group_53" data-name="Group 53">
      <g id="Group_52" data-name="Group 52">
        <g id="Group_51" data-name="Group 51">
          <g id="Group_50" data-name="Group 50">
            <path id="Path_14" data-name="Path 14" d="M16.26,2.92a5.783,5.783,0,0,1,3.33.81s1.11.5-1.06,6.97a40.87,40.87,0,0,0-1.87,6.84h-.8a40.567,40.567,0,0,0-1.87-6.84c-2.18-6.46-1.06-6.97-1.06-6.97a5.783,5.783,0,0,1,3.33-.81" fill="#fff"/>
          </g>
        </g>
      </g>
    </g>
    <g id="Group_66" data-name="Group 66">
      <g id="Group_59" data-name="Group 59">
        <g id="Group_58" data-name="Group 58">
          <g id="Group_57" data-name="Group 57">
            <g id="Group_56" data-name="Group 56">
              <g id="Group_55" data-name="Group 55">
                <g id="Group_54" data-name="Group 54">
                  <path id="Path_15" data-name="Path 15" d="M13.31,12.66a1.839,1.839,0,0,0-.22-.17.01.01,0,0,1-.01-.01c-.03-.01-.14-.06-.09-.04s-.06-.03-.09-.04h0c-.01,0-.19-.03-.2-.03a.645.645,0,0,0-.2.03c-.06.02-.12.05-.18.07h0a.87.87,0,0,0-.27.27.721.721,0,0,0-.1.38v.33a.746.746,0,0,0,.04.26c.01.03.04.09.04.09a.69.69,0,0,0,.04.1.705.705,0,0,0,.07.09.5.5,0,0,0,.15.14.276.276,0,0,0,.08.06.92.92,0,0,0,.45.12.639.639,0,0,0,.28-.06.608.608,0,0,0,.24-.15,1.431,1.431,0,0,0,.11-.15.686.686,0,0,0,.1-.37c-.01-.13-.02-.27-.02-.41a.639.639,0,0,0-.06-.28.508.508,0,0,0-.16-.23.608.608,0,0,0-.24-.15.461.461,0,0,0-.28-.06l-.2.03a.7.7,0,0,0-.32.19,1.431,1.431,0,0,0-.11.15.686.686,0,0,0-.1.37,2.815,2.815,0,0,0,.02.41l.73-.73h-.03l.2.03a.06.06,0,0,1-.04-.01c.06.02.12.05.18.07-.01,0-.01-.01-.02-.01a1.431,1.431,0,0,0,.15.11.01.01,0,0,1-.01-.01,1.431,1.431,0,0,1,.11.15c0-.01-.01-.01-.01-.02.02.06.05.12.07.18,0-.01-.01-.02-.01-.03.01.07.02.13.03.2a.608.608,0,0,1,.01-.19v-.17c-.01.07-.02.13-.03.2v-.01c-.02.06-.05.12-.07.18h0a1.431,1.431,0,0,0-.11.15h0a1.431,1.431,0,0,1-.15.11h0c-.06.02-.12.05-.18.07h0l-.2.03h0l-.2-.03h.01c-.06-.02-.12-.05-.18-.07.01,0,.02.01.03.02a1.431,1.431,0,0,0-.15-.11c.02.02.04.03.06.05a.608.608,0,0,0,.24.15.461.461,0,0,0,.28.06.639.639,0,0,0,.28-.06.608.608,0,0,0,.24-.15,1.431,1.431,0,0,0,.11-.15.686.686,0,0,0,.1-.37c-.01-.07-.02-.13-.03-.2A.549.549,0,0,0,13.31,12.66Z" fill="#fff"/>
                </g>
              </g>
            </g>
          </g>
        </g>
      </g>
      <g id="Group_65" data-name="Group 65">
        <g id="Group_64" data-name="Group 64">
          <g id="Group_63" data-name="Group 63">
            <g id="Group_62" data-name="Group 62">
              <g id="Group_61" data-name="Group 61">
                <g id="Group_60" data-name="Group 60">
                  <path id="Path_16" data-name="Path 16" d="M20.24,13.7c.02-.02.04-.03.06-.05a1.431,1.431,0,0,1-.15.11c.01-.01.02-.01.03-.02-.06.02-.12.05-.18.07h.01l-.2.03h0l-.2-.03h0c-.06-.02-.12-.05-.18-.07h0a1.431,1.431,0,0,0-.15-.11h0a1.431,1.431,0,0,1-.11-.15h0c-.02-.06-.05-.12-.07-.18v.01c-.01-.07-.02-.13-.03-.2v.18c0,.06.01.13.01.19.01-.07.02-.13.03-.2a.037.037,0,0,1-.01.03c.02-.06.05-.12.07-.18,0,.01-.01.01-.01.02a1.431,1.431,0,0,0,.11-.15.01.01,0,0,1-.01.01,1.431,1.431,0,0,1,.15-.11c-.01,0-.01.01-.02.01.06-.02.12-.05.18-.07-.01,0-.02.01-.04.01l.2-.03H19.7l.73.73c.01-.13.02-.27.02-.41a.639.639,0,0,0-.06-.28.629.629,0,0,0-.39-.39.461.461,0,0,0-.28-.06l-.2.03a.7.7,0,0,0-.32.19,1.431,1.431,0,0,0-.11.15.686.686,0,0,0-.1.37,2.815,2.815,0,0,1-.02.41.639.639,0,0,0,.06.28.608.608,0,0,0,.15.24,1.431,1.431,0,0,0,.15.11.686.686,0,0,0,.37.1.926.926,0,0,0,.44-.11.723.723,0,0,0,.3-.3.7.7,0,0,0,.08-.2v-.02c.01-.05.02-.15.03-.2v-.09a1.205,1.205,0,0,1,0-.19V13.1a1.38,1.38,0,0,0-.03-.2h0a.732.732,0,0,0-.52-.52c-.03-.01.03,0-.1-.01a.683.683,0,0,0-.49.1l-.01.01a1.826,1.826,0,0,0-.16.13c-.02.01-.03.03-.05.04a.608.608,0,0,0-.15.24.461.461,0,0,0-.06.28.639.639,0,0,0,.06.28.608.608,0,0,0,.15.24,1.431,1.431,0,0,0,.15.11.686.686,0,0,0,.37.1l.2-.03a.585.585,0,0,0,.33-.17Z" fill="#fff"/>
                </g>
              </g>
            </g>
          </g>
        </g>
      </g>
    </g>
    <g id="Group_69" data-name="Group 69">
      <g id="Group_68" data-name="Group 68">
        <g id="Group_67" data-name="Group 67">
          <rect id="Rectangle_5" data-name="Rectangle 5" width="0.58" height="2.77" transform="translate(15.97 16.98)" fill="#fff"/>
        </g>
      </g>
    </g>
    <g id="Group_94" data-name="Group 94">
      <g id="Group_75" data-name="Group 75">
        <g id="Group_74" data-name="Group 74">
          <g id="Group_71" data-name="Group 71">
            <g id="Group_70" data-name="Group 70">
              <path id="Path_17" data-name="Path 17" d="M13.12,25.27a6.792,6.792,0,1,1-5.41-10.9" fill="#4776e1"/>
            </g>
          </g>
          <g id="Group_73" data-name="Group 73">
            <g id="Group_72" data-name="Group 72">
              <path id="Path_18" data-name="Path 18" d="M7.71,28.61a7.45,7.45,0,0,1,0-14.9.66.66,0,1,1,0,1.32,6.13,6.13,0,1,0,4.88,9.84.664.664,0,0,1,1.06.8,7.4,7.4,0,0,1-5.94,2.94Z" fill="#fff"/>
            </g>
          </g>
        </g>
      </g>
      <g id="Group_82" data-name="Group 82">
        <g id="Group_78" data-name="Group 78">
          <g id="Group_77" data-name="Group 77">
            <g id="Group_76" data-name="Group 76">
              <rect id="Rectangle_6" data-name="Rectangle 6" width="1.17" height="6.09" transform="translate(7.13 18.18)" fill="#fff"/>
            </g>
          </g>
        </g>
        <g id="Group_81" data-name="Group 81">
          <g id="Group_80" data-name="Group 80">
            <g id="Group_79" data-name="Group 79">
              <rect id="Rectangle_7" data-name="Rectangle 7" width="6.22" height="1.17" transform="translate(4.6 20.64)" fill="#fff"/>
            </g>
          </g>
        </g>
      </g>
      <g id="Group_93" data-name="Group 93">
        <g id="Group_88" data-name="Group 88">
          <g id="Group_87" data-name="Group 87">
            <g id="Group_84" data-name="Group 84">
              <g id="Group_83" data-name="Group 83">
                <path id="Path_19" data-name="Path 19" d="M19.4,25.27a6.792,6.792,0,1,0,5.41-10.9" fill="#4776e1"/>
              </g>
            </g>
            <g id="Group_86" data-name="Group 86">
              <g id="Group_85" data-name="Group 85">
                <path id="Path_20" data-name="Path 20" d="M24.81,28.61a7.4,7.4,0,0,1-5.94-2.95.664.664,0,0,1,1.06-.8,6.13,6.13,0,1,0,4.88-9.84.66.66,0,0,1,0-1.32,7.455,7.455,0,1,1,0,14.91Z" fill="#fff"/>
              </g>
            </g>
          </g>
        </g>
        <g id="Group_92" data-name="Group 92">
          <g id="Group_91" data-name="Group 91">
            <g id="Group_90" data-name="Group 90">
              <g id="Group_89" data-name="Group 89">
                <rect id="Rectangle_8" data-name="Rectangle 8" width="6.22" height="1.17" transform="translate(21.92 20.64)" fill="#fff"/>
              </g>
            </g>
          </g>
        </g>
      </g>
    </g>
  </g>
</svg>
