<svg id="station_icon" xmlns="http://www.w3.org/2000/svg" width="20" height="24" viewBox="0 0 20 24">
  <rect id="Rectangle_17" data-name="Rectangle 17" width="20" height="24" fill="rgba(255,255,255,0)"/>
  <g id="Group_99" data-name="Group 99">
    <path id="Path_27" data-name="Path 27" d="M20,16V5A4.908,4.908,0,0,0,15.1.1H5A4.908,4.908,0,0,0,.1,5V16a4.105,4.105,0,0,0,3.5,4.1L.9,24H3.7l.9-1.1H15.7l.6,1.1h2.8l-2.5-3.9A4.189,4.189,0,0,0,20,16ZM5.7,2.2h8.5V3.6H5.7ZM3.2,6.8A1.11,1.11,0,0,1,4.3,5.7H15.7a1.11,1.11,0,0,1,1.1,1.1v3.5a1.11,1.11,0,0,1-1.1,1.1H4.3a1.11,1.11,0,0,1-1.1-1.1V6.8Zm1,10.4a1.3,1.3,0,0,1,0-2.6,1.3,1.3,0,0,1,0,2.6Zm1.1,4.4,1-1.4h7.6l1,1.4Zm10.5-4.4a1.3,1.3,0,1,1,1.3-1.3A1.324,1.324,0,0,1,15.8,17.2Z" fill="#62bfeb"/>
  </g>
</svg>
