<svg xmlns="http://www.w3.org/2000/svg" viewBox="0 0 165.56 185.48">
  <title>logo_nav_1</title>
  <g id="レイヤー_2" data-name="レイヤー 2">
    <g id="レイヤー_1-2" data-name="レイヤー 1">
      <g>
        <circle cx="91.68" cy="2.48" r="2.48" style="fill: #fff"/>
        <circle cx="145.06" cy="55.86" r="2.5" style="fill: #fff"/>
        <circle cx="73.88" cy="127.03" r="4.57" style="fill: #fff"/>
        <circle cx="91.68" cy="91.45" r="5.51" style="fill: #fff"/>
        <path d="M73.88,115.56a6.31,6.31,0,0,1-4.44-10.8,4.29,4.29,0,0,0-.5-6.52,8.37,8.37,0,0,1-1.55-12.1,4.31,4.31,0,0,0-.27-5.76c-.23-.23-.45-.48-.66-.73a4.31,4.31,0,0,0-2.89-1.58,3.62,3.62,0,0,0-.46,0,4.32,4.32,0,0,0-2.71,1,6.76,6.76,0,0,1-4.31,1.53,6.88,6.88,0,1,1,0-13.75,6.81,6.81,0,0,1,4.32,1.53,4.31,4.31,0,0,0,2.71,1,3.4,3.4,0,0,0,.45,0,4.3,4.3,0,0,0,2.89-1.57A10.06,10.06,0,0,1,68,66.15a4.31,4.31,0,0,0,.68-6.09,6.61,6.61,0,0,1-1.49-4.2,6.69,6.69,0,0,1,12-4,4.31,4.31,0,0,0,3.44,1.72h0a4.29,4.29,0,0,0,3.44-1.76,6.81,6.81,0,0,1,1.78-1.69A4.3,4.3,0,0,0,88.1,43a6.13,6.13,0,1,1,7.16,0,4.31,4.31,0,0,0,.16,7.09,6.84,6.84,0,0,1,.67,11,4.31,4.31,0,0,0,.13,6.69,7.43,7.43,0,0,1-4.54,13.31A7.29,7.29,0,0,1,87,79.43a4.31,4.31,0,0,0-6,.51c-.14.15-.27.3-.41.44a4.32,4.32,0,0,0-.28,5.76,8.37,8.37,0,0,1-1.55,12.1,4.3,4.3,0,0,0-.49,6.52,6.31,6.31,0,0,1-4.45,10.8Zm8.8-57.42a4.31,4.31,0,0,0-3.44,1.72l-.16.21a4.3,4.3,0,0,0,.69,6.09,9.88,9.88,0,0,1,1.29,1.22,4.3,4.3,0,0,0,5.94.5l.12-.09a4.32,4.32,0,0,0,.15-6.7,6.64,6.64,0,0,1-1.12-1.19,4.29,4.29,0,0,0-3.44-1.76Z" style="fill: #fff"/>
        <circle cx="20.5" cy="73.66" r="2.5" style="fill: #fff"/>
        <circle cx="73.88" cy="144.83" r="2.48" style="fill: #fff"/>
        <circle cx="109.47" cy="73.66" r="4.67" style="fill: #fff"/>
        <circle cx="91.68" cy="109.24" r="3.96" style="fill: #fff"/>
        <circle cx="91.68" cy="20.28" r="3.96" style="fill: #fff"/>
        <circle cx="127.26" cy="55.86" r="3.96" style="fill: #fff"/>
        <circle cx="109.47" cy="55.86" r="5.51" style="fill: #fff"/>
        <circle cx="73.88" cy="38.07" r="4.67" style="fill: #fff"/>
        <circle cx="38.3" cy="73.66" r="4.67" style="fill: #fff"/>
        <circle cx="56.09" cy="55.86" r="3.96" style="fill: #fff"/>
      </g>
      <path d="M6.68,183.56c-.15-.17-.5-.61-1-1.29s-.9-1.18-1.24-1.65a5.16,5.16,0,0,0,1.15-1.25,3.32,3.32,0,0,0,.59-1.88,2.82,2.82,0,0,0-1-2.33,4.05,4.05,0,0,0-2.59-.82c-.63,0-1.42,0-2.35.11H0V185.3H1.06V181c.72.05,1.51.08,2.36.08,1.33,1.82,2.15,2.89,2.49,3.25a3.69,3.69,0,0,0,1.13.82,3.69,3.69,0,0,0,1.53.29h.17l0-.82H8.61A3.17,3.17,0,0,1,6.68,183.56Zm-5.62-8.18c.52,0,1,0,1.37,0a3.07,3.07,0,0,1,1.91.55A1.86,1.86,0,0,1,5,177.45a2.77,2.77,0,0,1-.7,1.87,1.84,1.84,0,0,1-1.25.79c-.62,0-1.3,0-2-.06Zm9.5,0h1v9.92h-1Zm11.37,0h1v10h-.59L15.93,178l-.48-.58c0,.22,0,.51,0,.86v7.06h-1v-10H15l6.33,7.29c.22.24.42.48.6.71,0-.22,0-.5,0-.83Zm10.88,9.22H33l0,.8h-.17a3.7,3.7,0,0,1-1.41-.26,3.37,3.37,0,0,1-1-.65c-.27-.26-.83-.88-1.71-1.89s-1.42-1.64-1.85-2.16v4.85h-1v-9.92h1V180l4.06-4.58h1.29l-4.25,4.79a36.48,36.48,0,0,0,3.2,3.58A3.17,3.17,0,0,0,32.81,184.6Zm8.94-9.22h1V181a4.81,4.81,0,0,1-1,3.25,3.85,3.85,0,0,1-3.1,1.2,3.87,3.87,0,0,1-3.1-1.2,4.86,4.86,0,0,1-1-3.25v-5.62h1V181c0,2.35,1,3.49,3.08,3.49s3.08-1.14,3.08-3.49Zm19.79-1.07,1.66,11H62.1l-1.17-8.16c0-.15,0-.3-.07-.44l-.21.5-3.53,7.56h-.63l-3.13-7.57c-.07-.15-.13-.3-.18-.43l-.06.41-1.23,8.13H50.81l1.79-11h.69l3.33,7.93c.09.2.18.4.25.6l.28-.59,3.72-7.94Zm5,10h3.94v1h-5v-9.92h4.82v.94H66.5v3.13h3.42v.93H66.5Zm9.25-9q-1.6,0-2.79.09H72.8v9.87H73c1.05.1,2.09.15,3.08.15a5.39,5.39,0,0,0,3.64-1.22,4.62,4.62,0,0,0,1.42-3.66,5,5,0,0,0-1.54-3.84A5.41,5.41,0,0,0,75.75,175.29Zm.29,9.16a21.31,21.31,0,0,1-2.18-.09V176.3c.47,0,1.1-.05,1.89-.05a4.31,4.31,0,0,1,3,1.16A4.1,4.1,0,0,1,80,180.54,3.73,3.73,0,0,1,79,183.47,4.2,4.2,0,0,1,76,184.45Zm7.51-9.07h1v9.92h-1ZM95.11,184l.37.78-.15.08a6.48,6.48,0,0,1-3.16.64A5.1,5.1,0,0,1,88.58,184,4.84,4.84,0,0,1,87,180.34a5.19,5.19,0,0,1,1.35-3.64,4.55,4.55,0,0,1,3.5-1.47,11,11,0,0,1,3.32.52l.16.06-.28.9-.17-.06a10.86,10.86,0,0,0-3.12-.46,3.37,3.37,0,0,0-2.61,1.19,4.25,4.25,0,0,0-1.07,2.93,4.2,4.2,0,0,0,4.1,4.17A7.18,7.18,0,0,0,95,184Zm6-8.63L97,185.3H98L99.4,182h4l1.39,3.31h1.14l-4.19-10Zm1.92,5.73H99.79l1.37-3.29c.08-.19.16-.4.24-.65.08.18.16.4.27.67Zm5.65,3.28h4.4v1h-5.43v-9.92h1Zm19.18-.44.35.81-.14.08a5,5,0,0,1-1.52.52,9.37,9.37,0,0,1-1.79.18,5.71,5.71,0,0,1-4.08-1.62,5.34,5.34,0,0,1-1.71-4,5.69,5.69,0,0,1,1.5-4,5,5,0,0,1,3.83-1.62,11.71,11.71,0,0,1,3.64.6l.17,0-.3.93-.17-.05a11.6,11.6,0,0,0-3.34-.53,3.85,3.85,0,0,0-3,1.33,4.75,4.75,0,0,0-1.18,3.27,4.48,4.48,0,0,0,1.37,3.29,4.52,4.52,0,0,0,3.29,1.36,7.69,7.69,0,0,0,2.94-.52Zm3.75.44H136v1h-5.43v-9.92h1Zm6.79-9h1v9.92h-1Zm11.37,0h1v10h-.58l-6.46-7.4-.47-.58c0,.22,0,.51,0,.86v7.06h-1v-10h.58l6.34,7.29c.21.24.41.48.59.71v-7.94Zm3.86,0h1v9.92h-1Zm11.93,9.35-.15.08a6.48,6.48,0,0,1-3.16.64,5.1,5.1,0,0,1-3.59-1.46,4.84,4.84,0,0,1-1.55-3.65,5.24,5.24,0,0,1,1.35-3.64,4.57,4.57,0,0,1,3.51-1.47,11,11,0,0,1,3.31.52l.17.06-.29.9-.16-.06a10.91,10.91,0,0,0-3.12-.46,3.37,3.37,0,0,0-2.62,1.19,4.25,4.25,0,0,0-1.07,2.93,4,4,0,0,0,1.24,2.95,4,4,0,0,0,2.86,1.22A7.24,7.24,0,0,0,165,184l.16-.07Z" style="fill: #fff"/>
    </g>
  </g>
</svg>
