<svg xmlns="http://www.w3.org/2000/svg" viewBox="0 0 609.6373 212.4367">
  <defs>
    <style>
      .cls-1 {
        fill: #59d4d8;
      }

      .cls-2 {
        fill: #3eaee6;
      }

      .cls-3 {
        fill: #848484;
      }

      .cls-4 {
        fill: #221714;
      }
    </style>
  </defs>
  <title>logo_top_1</title>
  <g id="レイヤー_2" data-name="レイヤー 2">
    <g id="レイヤー_1-2" data-name="レイヤー 1">
      <g>
        <circle class="cls-1" cx="312.9279" cy="2.2624" r="2.2624"/>
        <circle class="cls-1" cx="361.5838" cy="50.9182" r="2.2818"/>
        <circle class="cls-2" cx="296.7093" cy="115.7927" r="4.1688"/>
        <circle class="cls-2" cx="312.9279" cy="83.3555" r="5.0219"/>
        <path class="cls-2" d="M296.7093,105.3294a5.7508,5.7508,0,0,1-4.0519-9.8361,3.9231,3.9231,0,0,0-.45-5.9511,7.6281,7.6281,0,0,1-1.4148-11.0268,3.9226,3.9226,0,0,0-.25-5.2475,8.8528,8.8528,0,0,1-.6-.67,3.9225,3.9225,0,0,0-2.6383-1.4368,4.0246,4.0246,0,0,0-.4139-.0219,3.9229,3.9229,0,0,0-2.4677.8734,6.1868,6.1868,0,0,1-3.9319,1.3924,6.2681,6.2681,0,1,1,0-12.5361,6.19,6.19,0,0,1,3.9353,1.3945,3.9241,3.9241,0,0,0,2.469.8747,3.8287,3.8287,0,0,0,.4109-.022,3.9232,3.9232,0,0,0,2.64-1.4343,8.7857,8.7857,0,0,1,1.4-1.3814,3.9227,3.9227,0,0,0,.6221-5.5533,6.0192,6.0192,0,0,1-1.3569-3.8288A6.0956,6.0956,0,0,1,301.5923,47.27a3.9229,3.9229,0,0,0,3.1375,1.5681l.0207,0a3.9232,3.9232,0,0,0,3.1413-1.6007,6.297,6.297,0,0,1,1.6256-1.5432,3.9232,3.9232,0,0,0,.1465-6.4587,5.5915,5.5915,0,1,1,6.528,0,3.9231,3.9231,0,0,0,.1466,6.4587,6.232,6.232,0,0,1,.6094,9.9928,3.9228,3.9228,0,0,0,.125,6.0943,6.7722,6.7722,0,1,1-8.4015,10.6226,3.9224,3.9224,0,0,0-5.4236.4645c-.12.1373-.2449.2712-.3733.4008a3.9226,3.9226,0,0,0-.2488,5.2462,7.6281,7.6281,0,0,1-1.4148,11.0268,3.9231,3.9231,0,0,0-.45,5.9511,5.7508,5.7508,0,0,1-4.0518,9.8361ZM304.73,52.9976a3.9231,3.9231,0,0,0-3.1367,1.5673c-.0485.0646-.0988.1288-.15.1917a3.9234,3.9234,0,0,0,.631,5.5444,8.7932,8.7932,0,0,1,1.1724,1.1116,3.9225,3.9225,0,0,0,5.416.4642l.1089-.0862a3.9233,3.9233,0,0,0,.1369-6.1036,6.3681,6.3681,0,0,1-1.017-1.0883,3.9211,3.9211,0,0,0-3.14-1.6007Z"/>
        <circle class="cls-2" cx="248.0535" cy="67.1369" r="2.2818"/>
        <circle class="cls-2" cx="296.7093" cy="132.0113" r="2.2624"/>
        <circle class="cls-2" cx="329.1466" cy="67.1369" r="4.2525"/>
        <circle class="cls-1" cx="312.9279" cy="99.5741" r="3.6058"/>
        <circle class="cls-1" cx="312.9279" cy="18.481" r="3.6058"/>
        <circle class="cls-1" cx="345.3652" cy="50.9182" r="3.6058"/>
        <circle class="cls-1" cx="329.1466" cy="50.9182" r="5.0219"/>
        <circle class="cls-2" cx="296.7093" cy="34.6996" r="4.2525"/>
        <circle class="cls-2" cx="264.2721" cy="67.1369" r="4.2525"/>
        <circle class="cls-1" cx="280.4907" cy="50.9182" r="3.6058"/>
      </g>
      <path class="cls-3" d="M206.7249,167.3087c-.1991-.2238-.6466-.7858-1.33-1.67-.6218-.8042-1.16-1.516-1.601-2.12a6.9044,6.9044,0,0,0,1.4858-1.6128,4.2617,4.2617,0,0,0,.7621-2.43,3.6325,3.6325,0,0,0-1.3416-3.0026,5.215,5.215,0,0,0-3.3368-1.0482c-.8115,0-1.8342.0449-3.04.134l-.2128.0154v13.9791h1.3718v-5.5723c.9186.0622,1.9385.0949,3.0375.0971,1.7175,2.3552,2.7687,3.7255,3.2117,4.1877a4.8178,4.8178,0,0,0,1.4479,1.067,4.9671,4.9671,0,0,0,1.9746.3725l.2262.0037.0325-1.0449-.2094-.0247A4.0128,4.0128,0,0,1,206.7249,167.3087Zm-7.2425-10.5444c.6693-.0408,1.2628-.0618,1.7666-.0618a3.9519,3.9519,0,0,1,2.4551.7033,2.3724,2.3724,0,0,1,.8894,2.0232,3.59,3.59,0,0,1-.8949,2.4071,2.3713,2.3713,0,0,1-1.6132,1.0232c-.8053,0-1.68-.0276-2.603-.0817Zm12.24-.0077h1.3339v12.7976h-1.3339Zm14.6578,0h1.3338V169.63h-.7525l-8.32-9.5466-.6131-.7471c.0057.2922.0084.661.0084,1.11v9.1079h-1.3338V156.68h.7527l8.1675,9.395c.2738.3095.5314.62.7653.9227-.0059-.2912-.0086-.6489-.0086-1.0766ZM240.4011,168.64l.21.0247-.0329,1.0265-.2266-.0041a4.7643,4.7643,0,0,1-1.8187-.3331,4.29,4.29,0,0,1-1.2451-.834c-.3506-.3371-1.0734-1.1347-2.21-2.4383-1.0269-1.1778-1.8272-2.1145-2.3824-2.7891v6.2613h-1.3339V156.7566h1.3339v5.9128l5.2372-5.9128h1.659l-5.4741,6.1851a49.3173,49.3173,0,0,0,4.1174,4.6129A4.0726,4.0726,0,0,0,240.4011,168.64Zm11.5306-11.8837h1.334v7.2448a6.27,6.27,0,0,1-1.31,4.1987,5.9412,5.9412,0,0,1-7.9915,0,6.271,6.271,0,0,1-1.31-4.1987v-7.2448h1.3338v7.2448c0,3.0309,1.2992,4.5042,3.9718,4.5042s3.9719-1.4733,3.9719-4.5042Zm25.503-1.3688,2.1417,14.1664H278.16l-1.5111-10.52q-.0483-.3064-.0815-.569-.1361.313-.2784.6459l-4.5517,9.74h-.8133l-4.032-9.7618q-.1236-.2883-.2309-.5547l-.0705.5348-1.5891,10.4851h-1.3993l2.3185-14.1664h.88l4.2985,10.2164c.12.2621.2286.52.3234.7719.0859-.1878.2024-.4355.3608-.7634l4.7949-10.2249Zm6.4006,12.9088h5.076v1.2576h-6.41V156.7566h6.22v1.22h-4.8859v4.0273h4.4108v1.2009h-4.4108Zm11.9185-11.6541c-1.37,0-2.5782.0386-3.5914.1148l-.2124.0159V169.496l.2083.0192c1.3568.127,2.6945.191,3.9757.191a6.9326,6.9326,0,0,0,4.6844-1.5767,5.9218,5.9218,0,0,0,1.8381-4.7174,6.4241,6.4241,0,0,0-1.9847-4.95A7.018,7.018,0,0,0,295.7538,156.6425Zm.38,11.8061c-1.1442,0-2.0889-.0368-2.8121-.11V157.941c.6-.0394,1.4161-.06,2.4319-.06a5.57,5.57,0,0,1,3.94,1.4965,5.2859,5.2859,0,0,1,1.5909,4.0342,4.8288,4.8288,0,0,1-1.3964,3.7829A5.4617,5.4617,0,0,1,296.134,168.4486Zm9.6753-11.692h1.3338v12.7976h-1.3338ZM320.716,167.81l.47,1.0018-.1864.1042a8.4281,8.4281,0,0,1-4.0762.8281,6.5556,6.5556,0,0,1-4.6257-1.8881,6.2339,6.2339,0,0,1-2.0013-4.7008,6.688,6.688,0,0,1,1.7431-4.69,5.8858,5.8858,0,0,1,4.5131-1.8992,13.8414,13.8414,0,0,1,4.2724.6765l.2167.07-.3653,1.1575-.2178-.0673a13.6625,13.6625,0,0,0-4.02-.5981,4.3647,4.3647,0,0,0-3.3741,1.53,5.4949,5.4949,0,0,0-1.3771,3.7821,5.4033,5.4033,0,0,0,5.2836,5.3692,9.2205,9.2205,0,0,0,3.5419-.59Zm7.7363-11.13L323.09,169.5542h1.3917l1.7681-4.2775h5.1688l1.787,4.2775h1.4678L329.2714,156.68Zm2.4709,7.3957h-4.1787l1.77-4.2477c.0957-.24.2-.519.3112-.8351.0925.2333.2077.5178.3469.8564Zm7.284,4.2205h5.6654v1.2576h-6.9992V156.7566h1.3338Zm24.7181-.5635.459,1.0408-.1782.1031a6.401,6.401,0,0,1-1.9626.6731,12.141,12.141,0,0,1-2.3158.2323,7.3889,7.3889,0,0,1-5.2534-2.088,6.8742,6.8742,0,0,1-2.2006-5.1664,7.36,7.36,0,0,1,1.9238-5.1556,6.4425,6.4425,0,0,1,4.9408-2.0987,15.1707,15.1707,0,0,1,4.6908.7718l.2184.0707-.3875,1.1925-.2151-.0644a15.0452,15.0452,0,0,0-4.3066-.6747,4.9805,4.9805,0,0,0-3.8963,1.7093,6.1762,6.1762,0,0,0-1.52,4.22,5.764,5.764,0,0,0,1.7665,4.2378,5.8365,5.8365,0,0,0,4.24,1.7494,9.83,9.83,0,0,0,3.79-.6666Zm4.8442.5635h5.6654v1.2576h-6.9993V156.7566H367.77Zm8.742-11.54h1.3338v12.7976h-1.3338Zm14.6579,0h1.3338V169.63h-.7525l-8.32-9.5466-.6132-.7471c.0057.2922.0085.661.0085,1.11v9.1079h-1.3339V156.68h.7527l8.1675,9.395c.2738.3095.5314.62.7653.9227-.0058-.2912-.0086-.6489-.0086-1.0766Zm4.9809,0h1.3338v12.7976H396.15Zm15.3763,12.0556-.1864.1042a8.4281,8.4281,0,0,1-4.0762.8281,6.5558,6.5558,0,0,1-4.6257-1.8881,6.2339,6.2339,0,0,1-2.0013-4.7008,6.688,6.688,0,0,1,1.7431-4.69,5.8858,5.8858,0,0,1,4.5131-1.8992,13.8409,13.8409,0,0,1,4.2724.6765l.2168.07-.3653,1.1575-.2179-.0673a13.6625,13.6625,0,0,0-4.02-.5981,4.3648,4.3648,0,0,0-3.3741,1.53,5.4949,5.4949,0,0,0-1.3771,3.7821,5.4033,5.4033,0,0,0,5.2836,5.3692,9.2214,9.2214,0,0,0,3.542-.59l.2035-.0857Z"/>
      <g>
        <g>
          <path d="M58.045,210a10.99,10.99,0,0,0,5.2385-3.4592c1.2945-1.6908,1.7532-3.7649,1.7532-7.9276,0-2.7581-.1137-5.1423-.38-7.9536h2.1446c.2191,2.3886.33,5.0469.33,7.9015,0,4.8094-.5788,7.2585-2.2119,9.3582a11.8489,11.8489,0,0,1-5.4585,3.7127Zm-2.47-5.7918c-1.3519,0-2.0966-2.1435-2.0966-6.0354a58.1085,58.1085,0,0,1,.5342-7.1155l2.042.24a54.0524,54.0524,0,0,0-.6119,7.1082c0,2.169.2274,3.2685.6765,3.2685.57,0,1.7243-1.7618,2.4111-3.3827l1.3535,1.4251C58.5872,202.364,56.82,204.2085,55.5748,204.2085Z"/>
          <path d="M89.4213,211.2318c-2.4125,0-3.5225-1.6142-3.6-5.2338-.0793-3.1575-.4579-4.07-1.6872-4.07-2.33,0-4.7318,2.9483-7.5562,9.2772l-1.8231-.84c2.5637-5.7563,6.0848-12.9383,9.6736-19.7321l1.95.9142c-2.123,3.5774-4.001,7.0589-5.582,10.3484l.1274.0943a5.5722,5.5722,0,0,1,3.7807-1.7929c2.0916,0,2.9264,1.4384,2.9777,5.13.053,3.1259.4044,3.8892,1.791,3.8892,1.5757,0,3.2745-1.9327,4.6694-5.3076l1.6073,1.4872C93.8405,209.3225,91.77,211.2318,89.4213,211.2318Z"/>
          <path d="M112.5231,211.6839a62.9627,62.9627,0,0,0-8.95-9.7093,2.49,2.49,0,0,1-1.0354-1.6509c0-.5708.1126-.7561,1.6553-2.0369a36.4609,36.4609,0,0,0,7.5137-8.29l1.7313,1.2747a45.8485,45.8485,0,0,1-8.2072,8.368c-.302.2741-.444.4455-.444.684,0,.28.0643.355.9868,1.15a76.21,76.21,0,0,1,8.4427,8.6137Z"/>
          <path d="M128.4883,210.12c5.4033-1.2148,8.2585-4.3041,8.2585-8.94,0-2.2577-1.0962-3.5014-3.0865-3.5014-1.7826,0-4.8949.8931-8.77,2.5157l-.8657-1.9721c5.14-1.7191,7.61-2.3,9.7648-2.3,3.13,0,4.9992,1.9754,4.9992,5.2843,0,5.3608-3.0144,8.9482-8.96,10.6623Zm6.4415-15.7131a28.8244,28.8244,0,0,0-6.9563-3.046l.932-1.6969A33.6663,33.6663,0,0,1,136.01,192.63Z"/>
          <path d="M146.5959,209.67a28.3462,28.3462,0,0,0,8.9782-8.5494l.0427-.0627-.06-.0461a40.195,40.195,0,0,0-5.545-3.6905l1.3394-1.4828a43.4,43.4,0,0,1,5.2735,3.5125l.0718.0549.0463-.0777a39.9338,39.9338,0,0,0,3.6357-8.226l2.0264.8443a42.5519,42.5519,0,0,1-4.141,8.6715l-.0375.061.0558.0444c1.14.9125,2.5337,2.1751,4.6533,4.2153l-1.518,1.591a52.998,52.998,0,0,0-4.2248-4.1161l-.0674-.0582-.0513.0732a32.0686,32.0686,0,0,1-8.9422,8.73Z"/>
          <path d="M174.098,209.896c4.9468-1.8383,6.7591-4.4366,6.9138-9.8807l.0025-.0827h-9.98v-1.8089h20.8052v1.8089h-8.7061l-.0017.0788c-.1278,5.9644-2.4077,9.4037-7.6194,11.49ZM189.86,194.3027a15.9278,15.9278,0,0,0-1.9631-3.4365l1.36-.6795a16.4879,16.4879,0,0,1,2.1149,3.3134ZM174.455,193.79v-1.8084h13.1861V193.79Zm18.0441-.9913a17.46,17.46,0,0,0-2.0129-3.2585L191.8,188.79a15.9819,15.9819,0,0,1,2.1379,3.1836Z"/>
          <path d="M205.1656,211.4132v-9.8768l-.1287.0965a29.5364,29.5364,0,0,1-6.0711,3.57l-1.2875-1.4784a29.4039,29.4039,0,0,0,11.9054-9.0176l1.5294,1.1234a27.893,27.893,0,0,1-3.9543,4.0949l-.0289.0239v11.4639Z"/>
          <path d="M218.9553,209.4439c4.5276-2.2654,7.2053-6.3454,7.7464-11.8073l.0086-.0882h-7.187V195.74h7.3082v-5.261h2.0162V195.61h8.1117a82.7782,82.7782,0,0,1-.5178,10.7417c-.4613,3.3583-1.2848,4.4916-3.2635,4.4916a11.1028,11.1028,0,0,1-4.2231-1.0335l-.0716-2.1789a9.9756,9.9756,0,0,0,3.8543,1.1188c1.151,0,1.3948-.4565,1.7385-3.2584a77.9746,77.9746,0,0,0,.467-7.99l.002-.0821h-6.2468l-.0061.0738c-.512,6.1436-3.4318,10.94-8.2232,13.5125Z"/>
          <path d="M243.7739,209.1438c4.488-3.2817,5.3925-6.0742,5.32-16.3327h2.0674c.0463,10.9142-1.0007,14.1077-5.8487,17.8Zm11.2287-.0743V191.7227H257.07v15.7636l.12-.0693a25.1778,25.1778,0,0,0,8.0771-7.8555l1.2956,1.8a30.721,30.721,0,0,1-10.0017,8.8961Z"/>
          <path d="M275.8431,209.7884a19.6415,19.6415,0,0,0,11.8125-14.2708l.0167-.0943h-7.425l-.0233.04a25.9924,25.9924,0,0,1-5.912,7.06l-1.4625-1.3907a21.8653,21.8653,0,0,0,7.5481-10.8687l1.9443.5758c-.2468.7172-.6981,1.744-1.1108,2.66l-.051.1137h7.4588l1.3377,1.0163a21.9865,21.9865,0,0,1-12.6949,16.7649Z"/>
          <path d="M301.7027,210.1756c4.9475-2.2322,6.7906-5.1373,6.7906-10.6812v-8.7569h2.1718v8.6277c0,6.2489-2.1718,9.8813-7.493,12.5212Zm-2.9537-7.3922V191.23h2.1715v11.5533Z"/>
          <path d="M319.56,207.8369V205.821h20.4164v2.0159Zm2.7731-11.17v-1.9643h14.87v1.9643Z"/>
          <path d="M349.0855,208.9186c6.0912-1.8372,9.3979-5.834,10.3972-12.565l2.0178.4809c-1.2556,7.1626-4.7695,11.5294-11.0509,13.7355Zm-.5563-6.5291a23.2711,23.2711,0,0,0-1.9835-4.648l1.8007-.8648a21.7457,21.7457,0,0,1,2.1079,4.6219Zm5.0307-1.2975a19.8786,19.8786,0,0,0-1.8824-4.5421l1.8-.84a20.3337,20.3337,0,0,1,2.005,4.4927Z"/>
          <path d="M371.4737,209.7884a19.6415,19.6415,0,0,0,11.8125-14.2708l.0167-.0943h-7.425l-.0233.04a25.9942,25.9942,0,0,1-5.912,7.06l-1.4625-1.3907a21.8653,21.8653,0,0,0,7.5481-10.8687l1.9443.5758c-.2468.7172-.6981,1.744-1.1108,2.66l-.051.1137H384.27l1.3377,1.0163a21.9865,21.9865,0,0,1-12.6949,16.7649Z"/>
          <path d="M400.8232,210.8319c5.1748-1.8151,6.812-3.9513,6.9934-9.08l.0031-.0832h-7.1818v-1.6015h10.2885v-4.4888H405.61l-.021.0488a18.3875,18.3875,0,0,1-2.192,3.7261l-1.4567-1.242a17.6818,17.6818,0,0,0,3.4473-7.6425l1.8347.4288c-.2435.9092-.5918,2.1341-.9089,2.9706l-.0416.1087h4.6547v-4.846h1.9124v4.846H421.08v1.6015h-8.2413v4.4888h9.926v1.6015h-7.2306V208.98c0,.9564.4,1.04,2.4389,1.04,2.9112,0,3.0562-.1509,3.2118-4.0112l1.8359.6435c-.2563,4.9337-.5228,5.1767-5.3328,5.1767-3.2216,0-3.9624-.3628-3.9624-1.941v-8.2183h-4.0981l-.0022.0782c-.1542,5.651-2.192,8.5384-7.5143,10.6352Z"/>
          <path d="M429.6425,210.4352a20.733,20.733,0,0,0,3.5453-2.5617l.0266-.0238V201.15h-3.55v-1.6531h5.2555v8.0574a5.6228,5.6228,0,0,0,2.6693,1.9931c1.3793.4942,2.9223.6529,6.3521.6529,2.3321,0,4.8381-.0921,8.9045-.3284a5.6725,5.6725,0,0,0-.6269,1.855c-3.193.1287-4.7032.1525-6.5152.1525-7.2586,0-9.8189-.6551-11.4151-2.9206l-.06-.0849-.0674.0794a27.1715,27.1715,0,0,1-3.4149,3.3522Zm8.2885-1.51V196.4667l-.1465.2086a17.7172,17.7172,0,0,1-1.873,2.3143l-1.1383-1.28a22.8676,22.8676,0,0,0,5.1245-8.454l1.7077.5453a27.839,27.839,0,0,1-1.6741,3.5125l-.0666.12h3.9427l.023-.0421a24.96,24.96,0,0,0,1.7438-4.0345l1.832.5236a30.2624,30.2624,0,0,1-1.797,3.43l-.0771.1231h5.9735v1.3941h-6.0384v2.8041h4.9758v1.3424h-4.9758v2.8042h4.9758V203.12h-4.9758v2.9079h6.4791V207.5H439.5324v1.4251Zm1.6014-2.8973h4.3851V203.12h-4.3851Zm0-4.25h4.3851v-2.8042h-4.3851Zm0-4.1466h4.3851V194.827h-4.3851Zm-5.2784-2.4563a24.4114,24.4114,0,0,0-3.8243-3.7494l1.2093-1.2565A26.7216,26.7216,0,0,1,435.59,193.79Z"/>
          <path d="M459.4934,212.2947V190.6859h20.39v1.5494h-18.53v17.2136h19.1779v1.55H461.3539v1.2959Zm3.7027-5.0086c4.004-1.3131,6.04-3.2108,6.4038-5.9666l.0119-.091h-7.0863v-1.4462H469.73V196.46h-3.0041l-.023.0405a12.8281,12.8281,0,0,1-2.0583,2.7542l-1.2032-1.0856a13.16,13.16,0,0,0,3.0227-5.3908l1.6572.4737-.0363.1093a13.4894,13.4894,0,0,1-.5819,1.5394l-.0521.1137h9.5041V196.46h-5.4682v3.3228h7.8008v1.4462h-7.919l-.01.0682c-.0452.2929-.09.4871-.1526.7561l-.0421.1814.0576.0283a58.0572,58.0572,0,0,1,7.3535,4.2708L477.234,208.09a43.2255,43.2255,0,0,0-6.4822-4.4151l-.0774-.0438-.0358.081c-.9461,2.1484-3.0321,3.8065-6.3757,5.0674Z"/>
          <path d="M486.9151,211.1974a12.8666,12.8666,0,0,0,2.7705-7.9664l.01-.1808-.1409.1137a22.8556,22.8556,0,0,1-2.95,2l-.8251-1.5094a24.1592,24.1592,0,0,0,3.9235-2.2539l.0347-.0238v-9.8613h8.682v-2.3842h1.8087v2.3842h9.1743v1.394H491.3908v7.0777c0,.7894,0,1.6054-.026,2.2256l-.0061.1475.1273-.0749a15.2849,15.2849,0,0,0,2.9187-2.3448l.061-.061-.0649-.0566a16.5835,16.5835,0,0,0-2.1263-1.6381l1.0457-1.0223a15.89,15.89,0,0,1,1.9815,1.69l.06.06.0565-.0633a15.0168,15.0168,0,0,0,1.8237-2.4741l.0732-.122H491.94V194.91h6.0864l.0219-.0455a11.2879,11.2879,0,0,0,.6532-1.5921l1.5746.5176c-.1833.4127-.2851.64-.4554,1.0057l-.0535.1143h8.987v1.3424h-5.8828l.0929.1276a14.995,14.995,0,0,0,2.1892,2.3981l.0472.0405.0513-.0355a9.5407,9.5407,0,0,0,2.0425-1.9227l1.3388,1.034a14.4336,14.4336,0,0,1-2.2516,1.739l-.1007.0627.0957.07a21.293,21.293,0,0,0,3.3242,1.9382l-.9683,1.4634a24.2,24.2,0,0,1-2.9564-2.0769l-.132-.11v5.2233h-4.6131v4.5121c0,1.2243-.4005,1.5782-1.7854,1.5782a13.928,13.928,0,0,1-2.3956-.1958l-.3733-1.586a10.6549,10.6549,0,0,0,2.1987.284c.5852,0,.7544-.1808.7544-.8065v-3.786h-4.8464v-4.4855l-.1356.127a16.2444,16.2444,0,0,1-2.1576,1.739l-.9427-1.1721-.0089.2141c-.1786,4.3141-.97,6.893-3.0177,9.81Zm9.1665-6.2839h8.0651v-1.7157h-8.0651Zm0-2.9544h8.0651v-1.6637h-8.0651Zm2.9137-5.6671a18.7612,18.7612,0,0,1-1.8073,2.5822l-.1065.1309h6.4229l-.1315-.1364a24.7409,24.7409,0,0,1-2.1179-2.5828l-.0242-.0333h-2.2122Zm-7.9928,14.333a17.0419,17.0419,0,0,0,4.0393-3.7661l1.3424.8477a17.9631,17.9631,0,0,1-4.1277,4.1482Zm16.9743.78a28.3321,28.3321,0,0,0-4.9087-3.7034l1.2392-.9586A37.6384,37.6384,0,0,1,509.3112,210Zm-20.41-11.6592a31.4919,31.4919,0,0,0-1.3056-4.8178l1.4856-.5658a28.9307,28.9307,0,0,1,1.4281,4.7456Z"/>
          <path d="M528.8941,210.0913c-5.9042,0-7.0985-.5053-7.0985-3.0033V198.91l-5.7112.7533-.215-1.8611,5.9262-.725v-6.1841h2.068v5.9189l10.9633-1.3541,1.2442,1.1716a40.7176,40.7176,0,0,1-6.4048,7.5293l-1.7039-1.2725a28.63,28.63,0,0,0,5.0139-5.3143l.109-.1514-9.2217,1.2259v7.897c0,1.4129.64,1.6614,4.2788,1.6614a62.4941,62.4941,0,0,0,7.179-.457l.0721,2.0652C533.1033,209.9976,530.9169,210.0913,528.8941,210.0913Z"/>
          <path d="M543.5968,208.1065a21.5787,21.5787,0,0,0,16.6339-12.99l1.634,1.394c-3.2513,7.19-8.943,11.7552-16.9191,13.5708Zm5.3461-10.1032a32.61,32.61,0,0,0-5.4948-4.0007l1.3056-1.7412a27.5162,27.5162,0,0,1,5.6695,3.8486Z"/>
          <path d="M569.744,210.0758a20.8429,20.8429,0,0,0,8.2962-5.9672l.0452-.0516-.0441-.0527a35,35,0,0,0-5.4294-5.1695l-.0649-.05-.0488.066a19.6438,19.6438,0,0,1-4.02,4.0357l-1.3382-1.41a21.4432,21.4432,0,0,0,7.5007-11.2376l1.9174.5509a21.131,21.131,0,0,1-.8549,2.4263l-.05.1132H583.37l1.338,1.1178a23.6872,23.6872,0,0,1-13.5489,17.26Zm5.0782-14.9426a18.4636,18.4636,0,0,1-1.2126,2.1151l-.0416.0644.0627.0444a35.677,35.677,0,0,1,5.5847,5.0163l.069.0766.0574-.0854a21.3354,21.3354,0,0,0,3.1217-7.18l.0222-.0982h-7.6419Z"/>
          <rect x="591.7313" y="199.7047" width="17.9059" height="2.0159"/>
        </g>
        <g>
          <g>
            <path class="cls-4" d="M1.1945,198.22H9.1514v.71H1.1945v.5373H.3564v-9.0315H8.8828v.7093H1.1945ZM3.41,192.8976a5.2807,5.2807,0,0,1-.8822,1.172l-.5483-.4949a5.4156,5.4156,0,0,0,1.28-2.2788l.7525.2144a6.1247,6.1247,0,0,1-.2686.72H7.6675v.667H5.3988V194.21H8.6353v.6669h-3.29c-.022.14-.0432.2255-.0754.3653a24.0155,24.0155,0,0,1,3.0857,1.7958l-.6017.6983a17.8269,17.8269,0,0,0-2.71-1.8492,4.36,4.36,0,0,1-2.6881,2.1289l-.4831-.6772c1.6661-.5373,2.5263-1.3229,2.6772-2.4619H1.614V194.21H4.6031v-1.3119Z"/>
            <path class="cls-4" d="M13.6448,195.123a6.8466,6.8466,0,0,1-.9246.7424l-.3551-.4407a6.8307,6.8307,0,0,1-1.28,4.1179l-.6339-.5593a5.3236,5.3236,0,0,0,1.161-3.3119,9.6216,9.6216,0,0,1-1.2585.85l-.3763-.6882a9.86,9.86,0,0,0,1.656-.9466V190.78h3.6018v-.99h.8178v.99h3.806v.645h-7.473v2.9034c0,.3331,0,.6661-.01.9246a6.3306,6.3306,0,0,0,1.2043-.9678,6.69,6.69,0,0,0-.9145-.6992l.4839-.4729a6.391,6.391,0,0,1,.8492.72,6.2348,6.2348,0,0,0,.7534-1.0212H12.5481v-.6238h2.5374a4.6874,4.6874,0,0,0,.28-.6881l.72.2364c-.0865.1933-.1288.29-.2043.4517h3.7094v.6238H17.1821a6.1444,6.1444,0,0,0,.9034.989,3.8994,3.8994,0,0,0,.86-.817l.6127.4729a6.003,6.003,0,0,1-.9678.7526,8.8677,8.8677,0,0,0,1.4085.8169l-.4407.667a10.0423,10.0423,0,0,1-1.2585-.8822v2.13H16.3863v1.8381c0,.5272-.183.6882-.7737.6882a5.702,5.702,0,0,1-1.0221-.0856l-.172-.7314a4.477,4.477,0,0,0,.9568.1288c.2263,0,.28-.0644.28-.3008v-1.5373h-2.01Zm-2.9035-.8491a12.8446,12.8446,0,0,0-.5593-2.0645l.678-.2576a11.9784,11.9784,0,0,1,.6127,2.0322Zm1.3975,4.4619a7.008,7.008,0,0,0,1.72-1.6017l.6135.3873a7.47,7.47,0,0,1-1.7635,1.7738Zm2.1941-3.6229h3.2789v-.6238H14.3329Zm3.2789.5805H14.3329v.6449h3.2789ZM17.3,193.8866a10.3807,10.3807,0,0,1-.8814-1.0746h-.8813a7.8489,7.8489,0,0,1-.7526,1.0746Zm1.9356,5.2255a11.7845,11.7845,0,0,0-2.0966-1.5805l.57-.4407a15.6469,15.6469,0,0,1,2.1288,1.3873Z"/>
            <path class="cls-4" d="M20.9229,198.6612a14.7511,14.7511,0,0,0,1.8712-3.2153l.5805.645a18.31,18.31,0,0,1-1.7847,3.2907Zm1.7958-3.9678a7.4728,7.4728,0,0,0-1.5695-1.4195l.5483-.645a8.8276,8.8276,0,0,1,1.6229,1.3975Zm.3229-2.4407a9.938,9.938,0,0,0-1.5272-1.4518l.5373-.6127a8.0609,8.0609,0,0,1,1.5594,1.3763Zm.3974,2.8059v-.7093h2.9891v-1.9034H24.0407v-.7094h2.3874v-1.7847h.8169v1.7847h2.6026v.7094H27.245v1.9034h3.2043v.7093H26.8264a21.3084,21.3084,0,0,1-1.27,3.0645.6421.6421,0,0,0,.14-.01c.6882-.0542,1.13-.0974,1.9467-.194.3652-.0433.7313-.0856,1.0966-.14a17.1453,17.1453,0,0,0-1.14-1.5483l.667-.3653a18.8782,18.8782,0,0,1,2.14,2.9569l-.6992.5483c-.3331-.5805-.4195-.7314-.57-.9678-1.494.28-3.3432.5051-5.4187.6771l-.2364-.828c.4728-.0212.5483-.0212,1.2042-.0644a20.27,20.27,0,0,0,1.28-3.1289Z"/>
            <path class="cls-4" d="M39.9706,199.0587a8.6768,8.6768,0,0,1-4.0535-5.4187,7.6192,7.6192,0,0,1-4.0425,5.634l-.6559-.7526a6.5658,6.5658,0,0,0,3.6018-3.7636,11.4149,11.4149,0,0,0,.5483-3.8281v-.7635h.9246v.7212a7.5316,7.5316,0,0,0,4.3441,7.3221Z"/>
          </g>
          <path class="cls-4" d="M3.0645,202.9193a13.1607,13.1607,0,0,1-1.4407,2.1178c.1618.1941.4406.5483.6025.7958a20.0973,20.0973,0,0,0,1.3009-2l.7093.3983a24.43,24.43,0,0,1-2.2043,2.8924l-.0423.0534c.344-.01.4618-.0212,1.7847-.1288a9.144,9.144,0,0,0-.4627-.8492l.645-.3229a11.67,11.67,0,0,1,1.0864,2.1721l-.72.4085c-.1077-.3441-.1721-.5271-.3009-.8492-.3983.0644-.7746.1288-1.2263.1822v4.484H2.0433v-4.3975c-.86.0856-.989.0966-1.7958.1508L0,207.2634c.3551-.011.3873-.011.6026-.022l.5483-.0212a.8141.8141,0,0,1,.0966-.1186c.172-.2043.2907-.3543.5381-.6772a10.3268,10.3268,0,0,0-1.5483-1.7415l.5263-.5805c.0644.0644.14.1288.2042.2042l.13.1288.0966.1178a12.879,12.879,0,0,0,1.1288-1.967ZM.172,211.1559a10.6965,10.6965,0,0,0,.57-2.5916l.7415.1076a11.972,11.972,0,0,1-.5585,2.86Zm3.6781-.13a10.1832,10.1832,0,0,0-.6882-2.43l.6661-.2152a10.1814,10.1814,0,0,1,.828,2.3331Zm4.4729-4.4085v-2.645H4.9035v-.7093H9.0756v4.656H8.323v-.5915h-2.27v3.3865c0,.4517.1509.5161,1.1831.5161,1.57,0,1.57,0,1.6127-1.8924l.8068.194a4.9845,4.9845,0,0,1-.333,2.0967c-.2373.3119-.6348.3873-2.0865.3873-1.6882,0-1.9568-.1187-1.9568-.8822v-4.5162Z"/>
          <path class="cls-4" d="M18.4637,203.1346l.3873.344a22.5359,22.5359,0,0,1-1.0221,2.87,4.4623,4.4623,0,0,1,.828,2.6026c0,.9026-.2687,1.2255-1.01,1.2255a4.973,4.973,0,0,1-.8712-.0967l-.1186-.7525a3.0623,3.0623,0,0,0,.8178.1178c.3118,0,.4186-.14.4186-.5585a4.0057,4.0057,0,0,0-.8593-2.4839,14.8868,14.8868,0,0,0,.9136-2.5594H16.5391v8.43h-.7526v-9.1391Zm5.1933.1076.4517.3652a8.6966,8.6966,0,0,1-1.6026,1.9458,10.3132,10.3132,0,0,0,2.7314,1.0975l-.4839.6983a10.3772,10.3772,0,0,1-2.7848-1.333,8.52,8.52,0,0,1-2.011,1.172l.7534.1721c-.1077.2686-.1509.3762-.2365.5805h1.1178v-1.0645h.7526v1.0645h2.2475v.6449H22.3451v.9788h2.0534v.645H22.3451v1.1288h2.7526v.667H18.6789v-.667h2.9136v-1.1288H19.6789v-.645h1.9136v-.9788h-1.43a6.26,6.26,0,0,1-.7745,1.1831l-.5594-.4729a6.1393,6.1393,0,0,0,1.1077-2.0865,9.3818,9.3818,0,0,1-.9568.3339l-.4407-.6347a8.1332,8.1332,0,0,0,2.87-1.323l-.0424-.0322-.022-.0211a6.2174,6.2174,0,0,1-.8924-.8712,6.3445,6.3445,0,0,1-1.2475,1.2262l-.5263-.5059a6.0323,6.0323,0,0,0,2.14-2.87l.7526.1932c-.1187.2687-.1619.3763-.2373.5382Zm-2.6882.6661c-.0754.1076-.0754.13-.14.2153a6.9285,6.9285,0,0,0,1.0966,1.0432,6.1692,6.1692,0,0,0,1.0966-1.2585Z"/>
          <path class="cls-4" d="M33.2721,206.1668a12.881,12.881,0,0,1-1.9568,1.1611l-.5271-.645a8.8035,8.8035,0,0,0,4.3653-3.817h.9577a9.01,9.01,0,0,0,4.5263,3.4831l-.5271.7424a11.2009,11.2009,0,0,1-4.462-3.495,8.6225,8.6225,0,0,1-2.172,2.4085H38.11v.71H33.2721Zm-1.8814,2.4941V207.93h8.6019v.7313H35.0789a15.57,15.57,0,0,1-1.183,2.2907c1.978-.14,2.4517-.183,4.1611-.3661a17.7875,17.7875,0,0,0-1.28-1.2474l.6237-.43a21.8465,21.8465,0,0,1,2.6348,2.645l-.6881.5695c-.3119-.3975-.3551-.4509-.7856-.967l-.1178.01-.1077.022c-1.8068.2686-4.4729.57-6.5916.7415l-.2788-.8169q.4347-.0332,1.5805-.0966a16.02,16.02,0,0,0,1.14-2.3552Z"/>
        </g>
      </g>
    </g>
  </g>
</svg>
