<svg xmlns="http://www.w3.org/2000/svg" viewBox="0 0 166.62 223.44">
  <title>logo_first</title>
  <g id="レイヤー_2" data-name="レイヤー 2">
    <g id="レイヤー_1-2" data-name="レイヤー 1">
      <g>
        <circle cx="94.75" cy="3.19" r="3.19" style="fill: #59d4d8"/>
        <circle cx="163.4" cy="71.84" r="3.22" style="fill: #59d4d8"/>
        <circle cx="71.87" cy="163.38" r="5.88" style="fill: #3eaee6"/>
        <circle cx="94.75" cy="117.61" r="7.09" style="fill: #3eaee6"/>
        <path d="M71.87,148.61a8.13,8.13,0,0,1-8.12-8.12,8,8,0,0,1,2.4-5.75,5.56,5.56,0,0,0,1.62-4.35,5.5,5.5,0,0,0-2.25-4,10.77,10.77,0,0,1-2-15.56,5.52,5.52,0,0,0-.35-7.4c-.3-.3-.58-.62-.85-.95a5.56,5.56,0,0,0-3.72-2,5.63,5.63,0,0,0-.58,0,5.54,5.54,0,0,0-3.49,1.23,8.67,8.67,0,0,1-5.54,2,8.85,8.85,0,1,1,0-17.69,8.72,8.72,0,0,1,5.55,2A5.55,5.55,0,0,0,62.33,87a12.11,12.11,0,0,1,2-2,5.54,5.54,0,0,0,.88-7.84,8.48,8.48,0,0,1-1.91-5.4A8.6,8.6,0,0,1,78.76,66.7a5.56,5.56,0,0,0,4.43,2.21h0a5.55,5.55,0,0,0,4.43-2.26,9,9,0,0,1,2.29-2.18,5.53,5.53,0,0,0,.21-9.11,7.89,7.89,0,1,1,9.21,0,5.53,5.53,0,0,0,.21,9.11,8.8,8.8,0,0,1,.86,14.1,5.53,5.53,0,0,0,.17,8.6,9.55,9.55,0,1,1-11.85,15,5.53,5.53,0,0,0-7.65.65c-.17.2-.35.39-.53.57a5.52,5.52,0,0,0-.35,7.4,10.77,10.77,0,0,1-2,15.56,5.5,5.5,0,0,0-2.25,4,5.56,5.56,0,0,0,1.62,4.35,8,8,0,0,1,2.4,5.75A8.13,8.13,0,0,1,71.87,148.61ZM83.19,74.78A5.56,5.56,0,0,0,78.76,77l-.21.27a5.53,5.53,0,0,0,.89,7.82,12.26,12.26,0,0,1,1.65,1.57,5.53,5.53,0,0,0,7.65.65l.15-.12a5.54,5.54,0,0,0,.19-8.61A9,9,0,0,1,87.65,77a5.52,5.52,0,0,0-4.43-2.26Z" style="fill: #3eaee6"/>
        <circle cx="3.22" cy="94.73" r="3.22" style="fill: #3eaee6"/>
        <circle cx="71.87" cy="186.26" r="3.19" style="fill: #3eaee6"/>
        <circle cx="117.64" cy="94.73" r="6" style="fill: #3eaee6"/>
        <circle cx="94.75" cy="140.49" r="5.09" style="fill: #59d4d8"/>
        <circle cx="94.75" cy="26.08" r="5.09" style="fill: #59d4d8"/>
        <circle cx="140.52" cy="71.84" r="5.09" style="fill: #59d4d8"/>
        <circle cx="117.64" cy="71.84" r="7.09" style="fill: #59d4d8"/>
        <circle cx="71.87" cy="48.96" r="6" style="fill: #3eaee6"/>
        <circle cx="26.1" cy="94.73" r="6" style="fill: #3eaee6"/>
        <circle cx="48.99" cy="71.84" r="5.09" style="fill: #59d4d8"/>
      </g>
      <path d="M17.31,221.78c-.13-.15-.43-.53-.89-1.13s-.78-1-1.08-1.42a4.59,4.59,0,0,0,1-1.09,2.86,2.86,0,0,0,.51-1.63,2.42,2.42,0,0,0-.9-2,3.5,3.5,0,0,0-2.25-.71c-.54,0-1.23,0-2,.09h-.14v9.41h.92v-3.75q.93.06,2,.06c1.16,1.59,1.87,2.51,2.16,2.82a3.38,3.38,0,0,0,1,.72,3.32,3.32,0,0,0,1.33.25h.15l0-.7-.14,0A2.69,2.69,0,0,1,17.31,221.78Zm-4.87-7.1c.45,0,.85,0,1.19,0a2.69,2.69,0,0,1,1.65.47,1.62,1.62,0,0,1,.6,1.37,2.43,2.43,0,0,1-.6,1.62,1.62,1.62,0,0,1-1.09.68c-.54,0-1.13,0-1.75-.05Zm8.23,0h.9v8.61h-.9Zm9.87,0h.89v8.66h-.5l-5.6-6.42-.41-.51v6.88H24v-8.66h.5L30,221c.18.21.36.42.51.62v-6.89Zm9.43,8,.14,0,0,.69h-.15a3.25,3.25,0,0,1-1.23-.23,2.76,2.76,0,0,1-.83-.56c-.24-.22-.73-.76-1.49-1.64s-1.23-1.42-1.6-1.87v4.21h-.9v-8.61h.9v4l3.52-4h1.12l-3.69,4.16a33.76,33.76,0,0,0,2.77,3.1A2.69,2.69,0,0,0,40,222.67Zm7.76-8h.9v4.87a4.21,4.21,0,0,1-.89,2.83,3.34,3.34,0,0,1-2.68,1,3.35,3.35,0,0,1-2.69-1,4.21,4.21,0,0,1-.88-2.83v-4.87h.89v4.87c0,2,.88,3,2.68,3s2.67-1,2.67-3Zm17.16-.92,1.44,9.53h-1l-1-7.08c0-.14,0-.26-.06-.38l-.18.43-3.07,6.56h-.54l-2.72-6.57-.15-.38,0,.36-1.07,7.06h-.94l1.56-9.53h.59l2.89,6.87a4.48,4.48,0,0,1,.22.52l.24-.51,3.23-6.88Zm4.3,8.68h3.42v.85H68.3v-8.61h4.18v.82H69.19v2.71h3V219h-3Zm8-7.84c-.92,0-1.73,0-2.41.08h-.15v8.56h.14c.92.09,1.82.13,2.68.13a4.67,4.67,0,0,0,3.15-1.06,4,4,0,0,0,1.24-3.17,4.29,4.29,0,0,0-1.34-3.33A4.68,4.68,0,0,0,77.21,214.6Zm.26,7.94c-.77,0-1.41,0-1.89-.07v-7c.4,0,1,0,1.63,0a3.73,3.73,0,0,1,2.65,1,3.57,3.57,0,0,1,1.07,2.72A3.21,3.21,0,0,1,80,221.7,3.64,3.64,0,0,1,77.47,222.54ZM84,214.68h.9v8.61H84Zm10,7.44.31.67-.12.07a5.65,5.65,0,0,1-2.74.56,4.43,4.43,0,0,1-3.12-1.27A4.21,4.21,0,0,1,87,219a4.47,4.47,0,0,1,1.17-3.15,4,4,0,0,1,3-1.28,9.07,9.07,0,0,1,2.87.46l.15,0-.25.78-.15,0a9,9,0,0,0-2.7-.41,2.94,2.94,0,0,0-2.27,1,3.69,3.69,0,0,0-.93,2.55,3.66,3.66,0,0,0,3.56,3.61,6.06,6.06,0,0,0,2.38-.4Zm5.2-7.49-3.61,8.66h.94l1.19-2.88h3.48l1.2,2.88h1l-3.64-8.66Zm1.67,5H98.06l1.19-2.86a5.64,5.64,0,0,0,.21-.56c.07.16.14.35.24.58Zm4.9,2.84h3.81v.85h-4.71v-8.61h.9Zm16.63-.38.31.7-.12.07a4.41,4.41,0,0,1-1.32.46,8.57,8.57,0,0,1-1.56.15,5,5,0,0,1-3.54-1.4,4.66,4.66,0,0,1-1.48-3.48,5,5,0,0,1,1.3-3.47,4.35,4.35,0,0,1,3.32-1.41,10.05,10.05,0,0,1,3.16.52l.14.05-.26.8-.14,0a10.22,10.22,0,0,0-2.9-.46,3.36,3.36,0,0,0-2.62,1.15,4.16,4.16,0,0,0-1,2.84,4,4,0,0,0,4,4,6.57,6.57,0,0,0,2.55-.45Zm3.26.38h3.81v.85h-4.71v-8.61h.9Zm5.88-7.76h.9v8.61h-.9Zm9.86,0h.9v8.66h-.51l-5.6-6.42-.41-.51c0,.2,0,.45,0,.75v6.13h-.9v-8.66h.51L140.9,221c.19.21.36.42.52.62,0-.2,0-.44,0-.73Zm3.35,0h.9v8.61h-.9Zm10.35,8.11-.13.07a5.65,5.65,0,0,1-2.74.56,4.41,4.41,0,0,1-3.11-1.27,4.19,4.19,0,0,1-1.35-3.17,4.47,4.47,0,0,1,1.17-3.15,4,4,0,0,1,3-1.28,9.07,9.07,0,0,1,2.87.46l.15,0-.25.78-.14,0a9.13,9.13,0,0,0-2.71-.41,3,3,0,0,0-2.27,1,3.73,3.73,0,0,0-.92,2.55,3.64,3.64,0,0,0,3.55,3.61,6,6,0,0,0,2.38-.4l.14,0Z" style="fill: #3eaee6"/>
    </g>
  </g>
</svg>
