<?xml version="1.0" encoding="UTF-8"?><svg xmlns="http://www.w3.org/2000/svg" xmlns:xlink="http://www.w3.org/1999/xlink" viewBox="0 0 278.64 54.86"><defs><style>.e{fill:#fff;}.f{isolation:isolate;}.g{fill:#65bce3;}.h{fill:#304f74;}.i{fill:#d10000;mix-blend-mode:color;}.j{fill:url(#d);}.k{fill:red;}</style><linearGradient id="d" x1="139.32" y1="37.01" x2="139.32" y2="3.88" gradientTransform="matrix(1, 0, 0, 1, 0, 0)" gradientUnits="userSpaceOnUse"><stop offset="0" stop-color="#6e7fb5"/><stop offset="1" stop-color="#77b2db"/></linearGradient></defs><g class="f"><g id="a"/><g id="b"><g id="c"><g><g><rect class="h" width="278.64" height="54.86" rx="8.32" ry="8.32"/><path class="g" d="M8.32,1.11H270.31c3.98,0,7.21,3.23,7.21,7.21V46.54c0,3.98-3.23,7.21-7.21,7.21H8.32c-3.98,0-7.21-3.23-7.21-7.21V8.32C1.11,4.34,4.34,1.11,8.32,1.11Z"/><path class="k" d="M8.32,1.11H270.31c3.98,0,7.21,3.23,7.21,7.21V46.54c0,3.98-3.23,7.21-7.21,7.21H8.32c-3.98,0-7.21-3.23-7.21-7.21V8.32C1.11,4.34,4.34,1.11,8.32,1.11Z"/><path class="j" d="M19.57,37.01c17.62,0,235.57-10.42,253.68-10.42,.51,0,1.01,.01,1.5,.03V8.32c0-2.45-1.99-4.44-4.44-4.44H8.32c-2.45,0-4.44,1.99-4.44,4.44v26.49c5.06,1.28,10.48,2.2,15.69,2.2Z"/><path class="e" d="M270.31,3.88H8.32c-2.45,0-4.44,1.99-4.44,4.44v1.96c0-2.45,1.99-4.44,4.44-4.44H270.31c2.45,0,4.44,1.99,4.44,4.44v-1.96c0-2.45-1.99-4.44-4.44-4.44Z"/><rect class="i" width="278.64" height="54.86" rx="8.32" ry="8.32"/></g><g><path class="e" d="M42.17,31.56c-.84,.72-2.34,2.28-2.34,3.27,0,2.16,4.11,2.16,5.37,2.16,4.08,0,8.13-.63,12.03-1.8,.03,.75,.09,2.4,.78,5.1-2.31,.66-6.54,1.38-11.73,1.38-4.68,0-6.54-.51-8.01-1.11-.96-.39-3.81-1.8-3.81-4.83s3.12-5.91,4.35-7.02l3.36,2.85Zm12.6-9.87c-2.79,1.11-5.91,2.97-7.56,4.89-1.08-.93-2.22-1.89-3.15-2.58,1.11-1.02,1.38-1.23,2.25-1.95-1.86,.15-6.9,.42-9.45,.36l-.24-5.01c1.8,.3,5.49,.39,7.47,.39,3.78,0,7.08-.51,8.37-.69l2.31,4.59Zm1.32-4.68c.81,.75,2.07,2.16,2.73,3.15-.45,.45-.84,.81-1.77,2.16-1.26-1.62-1.44-1.8-2.88-3.33l1.92-1.98Zm2.31-2.55c.45,.42,1.32,1.2,2.82,2.94-.78,.66-1.44,1.38-1.92,2.04-.63-.87-1.92-2.31-2.61-2.94l1.71-2.04Z"/><path class="e" d="M74.37,35.94h-1.2c.6,2.19,1.62,3.96,2.04,4.65-.84,.42-2.01,1.14-3.06,1.89-.93-1.68-1.68-3.93-1.86-4.77h-.27c-.33,.9-1.38,3.57-2.22,5.04-1.65-.78-2.37-1.02-3.78-1.26,1.02-1.5,1.98-3.09,2.73-5.55h-.99V16.33h8.73v19.29h1.41v-6.81h5.64v-.9h-6.57v-2.97h3.45v-1.11h-2.55v-2.52h2.55v-1.02h-3.27v-3.03h3.27v-1.62l4.11,.27c.21,0,.39,.15,.39,.3,0,.33-.45,.48-.66,.57v.48h2.01v-1.59l4.11,.18c.33,0,.48,.24,.48,.36,0,.36-.42,.48-.75,.51v.54h3.48v3.03h-3.48v1.02h2.25v2.52h-2.25v1.11h4.02v2.97h-6.99v.9h5.7v6.81h1.62v2.91h-1.62v1.56c0,1.35,0,3.21-5.34,2.88-.09-1.35-.27-2.1-.81-3.48,.36,.06,1.29,.18,1.59,.18,.63,0,.66-.27,.66-1.14h-7.14v4.44h-3.9v-4.56h-1.53v-2.46Zm-1.44,0h-4.71l2.13,.96c.15,.06,.21,.12,.33,.18l2.25-1.14Zm-1.98-13.92v-2.13h-1.65v2.13h1.65Zm-1.65,3.03v2.13h1.65v-2.13h-1.65Zm0,5.19v2.25h1.65v-2.25h-1.65Zm12.24,2.25v-1.11h-1.74v1.11h1.74Zm0,3.12v-1.14h-1.74v1.14h1.74Zm.72-15.33v1.02h2.01v-1.02h-2.01Zm0,3.54v1.11h2.01v-1.11h-2.01Zm4.68,8.67v-1.11h-1.8v1.11h1.8Zm0,3.12v-1.14h-1.8v1.14h1.8Z"/><path class="e" d="M110.21,22.15c-.03-1.02-.03-1.29-.06-1.98h-6.57v-4.41h11.46c-.03,.78-.21,4.23-.21,4.92,0,9.12,4.86,15.48,11.01,19.26-1.77,1.02-2.88,1.89-3.93,3.27-3.72-2.58-9.15-8.22-10.86-15.12-.99,3.36-3.33,9.57-11.34,15.15-1.32-1.62-2.1-2.37-3.69-3.36,9.21-5.91,10.8-12.27,11.61-18.21l2.58,.48Z"/><path class="e" d="M137.43,17.8c.24,.09,.39,.21,.39,.42,0,.36-.57,.42-.84,.45-1.8,6.18-1.8,10.62-1.8,11.55,0,1.5,.12,2.19,.21,3,.39-.57,1.02-1.53,1.41-2.13,.6,1.14,1.29,2.07,2.16,2.97-.6,.87-2.52,3.78-2.49,7.35l-4.02,.75c-.42-1.44-1.62-5.7-1.62-12.09,0-3.06,.33-8.46,1.8-13.74l4.8,1.47Zm14.25-.66c.15,.03,.39,.06,.39,.33,0,.36-.42,.45-.69,.48-.09,.66-.21,1.5-.3,3.6,2.34-.42,3.36-.75,4.44-1.11v4.53c-.69,.18-2.07,.51-4.56,.96,0,2.97,.3,5.88,.48,6.9,2.31,.78,4.59,2.01,5.7,3.09-.48,.87-1.38,2.82-2.04,4.23-.96-.93-1.95-1.74-3.21-2.28-.12,3.84-3.96,4.29-5.85,4.29-4.5,0-6.75-2.46-6.75-5.25,0-3.57,3.54-4.92,7.44-4.83-.24-3.42-.27-3.81-.33-5.55-1.71,.15-2.94,.15-3.45,.15-.96,0-1.59-.03-2.22-.09v-4.71c1.08,.12,2.61,.33,5.64,.21,0-1.26,0-3.9,.03-5.85l5.28,.9Zm-6.21,18.6c-.66,0-2.1,.21-2.1,1.14,0,.78,.99,1.11,1.95,1.11,.24,0,2.04,0,2.04-1.47,0-.15,0-.27-.06-.39-.36-.15-.9-.39-1.83-.39Z"/><path class="e" d="M171.8,31.27c-1.62,1.44-2.7,3.09-2.7,3.78,0,.51,.39,.84,.6,.96,1.11,.6,4.56,.66,5.97,.66,6.33,0,10.14-1.08,11.58-1.5,.12,1.62,.57,3.78,.87,4.98-4.11,1.02-10.38,1.2-12.72,1.2-6.87,0-11.28-1.26-11.28-5.82,0-2.58,2.1-4.86,4.47-6.87l3.21,2.61Zm14.34-10.47c-3.72,1.47-6.45,3.21-9.45,5.94-.06-.06-.33-.36-2.67-3,.81-.54,1.47-1.11,2.13-1.8-.75,.06-2.61,.18-5.34,.18-2.37,0-3.33-.12-4.05-.18l-.24-4.95c2.43,.51,6.48,.66,9.06,.66,4.74,0,7.26-.48,8.13-.66l2.43,3.81Z"/><path class="e" d="M208.97,16.39c.24,.06,.57,.18,.57,.48,0,.18-.15,.39-.66,.42-.66,2.04-.72,2.25-.87,2.7,3.33-.51,6.63-1.14,9.78-2.37,.15,.99,.54,3.27,.84,4.47-3.69,1.29-8.37,2.25-12.27,2.55-.72,1.98-.96,2.58-1.56,4.05,2.43-1.2,5.07-2.04,7.8-2.04,8.01,0,8.43,5.64,8.43,7.14,0,2.67-1.44,4.83-3.21,6.06-1.59,1.08-4.59,2.88-12.9,2.88-1.26,0-2.13-.09-2.79-.15-.21-1.56-.57-2.97-1.11-4.47,.87,.09,2.64,.27,4.47,.27,.69,0,5.82,0,8.91-1.83,1.59-.96,1.62-2.28,1.62-2.82,0-1.74-.9-3.21-3.66-3.21s-6.87,1.35-10.38,5.01l-4.32-2.16c2.16-3.24,3.78-7.8,3.99-8.43-2.61,.03-4.68-.09-5.82-.18l-.06-4.92c1.95,.48,3.66,.66,7.26,.66,.51-1.86,.9-3.54,1.14-5.31l4.8,1.2Z"/><path class="e" d="M238.23,22.27c.21,.06,.45,.12,.45,.39,0,.36-.36,.39-.69,.42-.72,1.35-1.53,3.12-1.98,5.19,2.67-1.83,6.15-2.79,8.76-2.79,5.16,0,7.68,3.81,7.68,7.38,0,5.73-5.4,9.66-15.33,9.66-.87,0-1.62-.03-2.19-.06-.18-1.65-.42-2.46-1.41-5.04,1.02,.24,2.07,.45,4.44,.45,6.81,0,9.51-2.55,9.51-5.07,0-.87-.42-3.06-3.51-3.06-4.29,0-7.41,2.76-9.57,4.92l-4.29-1.56c.87-5.13,1.77-8.4,3.15-12.42l4.98,1.59Zm-1.65-7.02c1.05,.15,5.67,.84,10.08,3.33-1.14,1.59-1.89,2.88-2.7,4.38-2.52-1.77-6.18-3.09-8.94-3.69l1.56-4.02Z"/></g></g></g></g></g></svg>