<?xml version="1.0" encoding="UTF-8"?><svg xmlns="http://www.w3.org/2000/svg" xmlns:xlink="http://www.w3.org/1999/xlink" viewBox="0 0 278.64 54.86"><defs><style>.e{fill:#fff;}.f{isolation:isolate;}.g{fill:#65bce3;}.h{fill:#304f74;}.i{fill:#d10000;mix-blend-mode:color;}.j{fill:url(#d);}.k{fill:red;}</style><linearGradient id="d" x1="139.32" y1="37.01" x2="139.32" y2="3.88" gradientTransform="matrix(1, 0, 0, 1, 0, 0)" gradientUnits="userSpaceOnUse"><stop offset="0" stop-color="#6e7fb5"/><stop offset="1" stop-color="#77b2db"/></linearGradient></defs><g class="f"><g id="a"/><g id="b"><g id="c"><g><g><rect class="h" width="278.64" height="54.86" rx="8.32" ry="8.32"/><path class="g" d="M8.32,1.11H270.31c3.98,0,7.21,3.23,7.21,7.21V46.54c0,3.98-3.23,7.21-7.21,7.21H8.32c-3.98,0-7.21-3.23-7.21-7.21V8.32C1.11,4.34,4.34,1.11,8.32,1.11Z"/><path class="k" d="M8.32,1.11H270.31c3.98,0,7.21,3.23,7.21,7.21V46.54c0,3.98-3.23,7.21-7.21,7.21H8.32c-3.98,0-7.21-3.23-7.21-7.21V8.32C1.11,4.34,4.34,1.11,8.32,1.11Z"/><path class="j" d="M19.57,37.01c17.62,0,235.57-10.42,253.68-10.42,.51,0,1.01,.01,1.5,.03V8.32c0-2.45-1.99-4.44-4.44-4.44H8.32c-2.45,0-4.44,1.99-4.44,4.44v26.49c5.06,1.28,10.48,2.2,15.69,2.2Z"/><path class="e" d="M270.31,3.88H8.32c-2.45,0-4.44,1.99-4.44,4.44v1.96c0-2.45,1.99-4.44,4.44-4.44H270.31c2.45,0,4.44,1.99,4.44,4.44v-1.96c0-2.45-1.99-4.44-4.44-4.44Z"/><rect class="i" width="278.64" height="54.86" rx="8.32" ry="8.32"/></g><g><path class="e" d="M53.9,27.72h-14.67v-2.31c-.99,.66-1.41,.93-4.26,2.4-.27-.54-.75-1.5-3.39-3.18,2.76-1.17,8.85-3.78,12.72-9.69l4.71,.66c.27,.03,.57,.15,.57,.51,0,.24-.24,.36-.45,.48,1.65,2.55,8.07,5.67,11.7,6.36-1.35,1.29-2.22,3.12-2.49,3.9-1.44-.42-2.34-.84-4.44-1.86v2.73Zm-18.27,6.27v-4.14h19.29l1.89,1.71c-2.28,5.16-4.71,8.7-7.26,11.91-2.46-1.71-3.81-2.04-4.5-2.19,1.8-1.83,3.9-4.23,5.4-7.29h-14.82Zm15.9-10.26c-1.95-1.14-3.78-2.52-5.28-4.23-1.44,1.53-3.6,3.39-4.68,4.23h9.96Z"/><path class="e" d="M81.81,15.97c.48,.06,.75,.09,.75,.33,0,.33-.36,.45-.6,.51-.06,.54-.09,.9-.15,2.1,8.46-.36,9.39-.39,9.96-.45-.03,.63-.09,3.6,.03,4.83-5.43-.27-7.71-.27-9.9-.24-.06,2.16-.03,2.7,.03,3.33,1.74,2.13,1.74,5.34,1.74,5.76,0,4.26-2.79,9.24-6.96,11.58-1.29-1.23-2.94-2.34-4.38-3.09,.9-.36,4.44-1.86,5.52-4.32-.3,.24-.9,.72-2.37,.72-.48,0-2.19,0-3.24-1.35-1.08-1.38-1.29-3.33-1.29-4.44,0-6.6,5.64-6.39,6.27-6.3,.03-.96,.03-1.23,.03-1.68-6.27,.39-10.2,1.2-11.97,1.56l-.33-5.07c.69,.03,1.83-.03,12.18-.63-.21-2.52-.21-2.61-.42-3.81l5.1,.66Zm-6.93,15c0,1.98,.99,2.52,1.53,2.52,.93,0,1.47-1.38,1.47-2.88,0-.69-.15-1.86-1.35-1.86-.99,0-1.65,.99-1.65,2.22Z"/><path class="e" d="M119.12,17.95c.21,.15,.33,.27,.33,.48,0,.24-.24,.3-.39,.3-.12,0-.3-.06-.48-.09-.63,.54-5.52,4.38-6.51,5.22-1.41,1.2-3.09,2.61-4.17,3.63-.96,.87-1.08,.96-1.08,1.2,0,.3,.12,.39,1.29,1.08,.12,.06,2.85,1.86,5.55,3.93,3.42,2.61,4.86,4.17,6.24,5.91-1.23,1.05-2.16,2.1-3.48,4.02-1.32-1.95-6.24-7.17-15.12-12.9-.27-.18-1.02-.72-1.02-1.77,0-.75,.12-1.11,3.18-3.51,4.11-3.24,8.01-6.81,11.43-10.8l4.23,3.3Zm.12,3.12c1.02,.93,1.95,1.8,3.27,3.45-1.23,.99-1.92,1.77-2.25,2.19-.66-.9-1.59-2.07-3.24-3.51l2.22-2.13Zm3.12-2.88c1.05,.93,1.95,1.8,3.27,3.45-1.23,.99-1.89,1.8-2.25,2.19-.66-.9-1.59-2.07-3.24-3.51l2.22-2.13Z"/><path class="e" d="M139.17,35.94h-1.2c.6,2.19,1.62,3.96,2.04,4.65-.84,.42-2.01,1.14-3.06,1.89-.93-1.68-1.68-3.93-1.86-4.77h-.27c-.33,.9-1.38,3.57-2.22,5.04-1.65-.78-2.37-1.02-3.78-1.26,1.02-1.5,1.98-3.09,2.73-5.55h-.99V16.33h8.73v19.29h1.41v-6.81h5.64v-.9h-6.57v-2.97h3.45v-1.11h-2.55v-2.52h2.55v-1.02h-3.27v-3.03h3.27v-1.62l4.11,.27c.21,0,.39,.15,.39,.3,0,.33-.45,.48-.66,.57v.48h2.01v-1.59l4.11,.18c.33,0,.48,.24,.48,.36,0,.36-.42,.48-.75,.51v.54h3.48v3.03h-3.48v1.02h2.25v2.52h-2.25v1.11h4.02v2.97h-6.99v.9h5.7v6.81h1.62v2.91h-1.62v1.56c0,1.35,0,3.21-5.34,2.88-.09-1.35-.27-2.1-.81-3.48,.36,.06,1.29,.18,1.59,.18,.63,0,.66-.27,.66-1.14h-7.14v4.44h-3.9v-4.56h-1.53v-2.46Zm-1.44,0h-4.71l2.13,.96c.15,.06,.21,.12,.33,.18l2.25-1.14Zm-1.98-13.92v-2.13h-1.65v2.13h1.65Zm-1.65,3.03v2.13h1.65v-2.13h-1.65Zm0,5.19v2.25h1.65v-2.25h-1.65Zm12.24,2.25v-1.11h-1.74v1.11h1.74Zm0,3.12v-1.14h-1.74v1.14h1.74Zm.72-15.33v1.02h2.01v-1.02h-2.01Zm0,3.54v1.11h2.01v-1.11h-2.01Zm4.68,8.67v-1.11h-1.8v1.11h1.8Zm0,3.12v-1.14h-1.8v1.14h1.8Z"/><path class="e" d="M175.01,22.15c-.03-1.02-.03-1.29-.06-1.98h-6.57v-4.41h11.46c-.03,.78-.21,4.23-.21,4.92,0,9.12,4.86,15.48,11.01,19.26-1.77,1.02-2.88,1.89-3.93,3.27-3.72-2.58-9.15-8.22-10.86-15.12-.99,3.36-3.33,9.57-11.34,15.15-1.32-1.62-2.1-2.37-3.69-3.36,9.21-5.91,10.8-12.27,11.61-18.21l2.58,.48Z"/><path class="e" d="M211.41,15.97c.48,.06,.75,.09,.75,.33,0,.33-.36,.45-.6,.51-.06,.54-.09,.9-.15,2.1,8.46-.36,9.39-.39,9.96-.45-.03,.63-.09,3.6,.03,4.83-5.43-.27-7.71-.27-9.9-.24-.06,2.16-.03,2.7,.03,3.33,1.74,2.13,1.74,5.34,1.74,5.76,0,4.26-2.79,9.24-6.96,11.58-1.29-1.23-2.94-2.34-4.38-3.09,.9-.36,4.44-1.86,5.52-4.32-.3,.24-.9,.72-2.37,.72-.48,0-2.19,0-3.24-1.35-1.08-1.38-1.29-3.33-1.29-4.44,0-6.6,5.64-6.39,6.27-6.3,.03-.96,.03-1.23,.03-1.68-6.27,.39-10.2,1.2-11.97,1.56l-.33-5.07c.69,.03,1.83-.03,12.18-.63-.21-2.52-.21-2.61-.42-3.81l5.1,.66Zm-6.93,15c0,1.98,.99,2.52,1.53,2.52,.93,0,1.47-1.38,1.47-2.88,0-.69-.15-1.86-1.35-1.86-.99,0-1.65,.99-1.65,2.22Z"/><path class="e" d="M248.25,19.03c-2.04,1.35-6.69,6-7.35,6.69,.51-.12,1.98-.45,3.6-.45,4.08,0,8.28,2.58,8.28,7.89,0,6.6-6.27,9.48-11.46,9.48-3.87,0-7.62-1.53-7.62-5.16,0-2.97,2.76-4.8,5.88-4.8,2.82,0,5.76,1.59,6.45,4.41,1.98-.99,1.98-3.3,1.98-3.54,0-.72-.24-4.38-4.89-4.38-5.07,0-7.95,2.97-12.12,7.32l-3.6-3.51c3.45-2.4,10.14-9,12.15-11.67-.96,.21-1.98,.45-7.98,1.05l-.72-4.71c1.17,.03,9.84,.12,15-1.89l2.4,3.27Zm-9.03,17.4c-1.02,0-1.26,.57-1.26,1.08,0,1.14,1.68,1.59,2.7,1.59,.69,0,1.2-.15,1.5-.24-.48-2.04-2.1-2.43-2.94-2.43Z"/></g></g></g></g></g></svg>