<?xml version="1.0" encoding="UTF-8"?><svg xmlns="http://www.w3.org/2000/svg" xmlns:xlink="http://www.w3.org/1999/xlink" viewBox="0 0 320.59 63.12"><defs><style>.e{fill:#fff;}.f{isolation:isolate;}.g{mix-blend-mode:color;}.g,.h{fill:#ffe200;}.i{fill:url(#d);}.j{fill:#fffcdb;}.k{fill:#d10000;}</style><linearGradient id="d" x1="160.29" y1="42.59" x2="160.29" y2="4.47" gradientTransform="matrix(1, 0, 0, 1, 0, 0)" gradientUnits="userSpaceOnUse"><stop offset="0" stop-color="#d0cb00"/><stop offset="1" stop-color="#fff67f"/></linearGradient></defs><g class="f"><g id="a"/><g id="b"><g id="c"><g><g><rect class="j" width="320.59" height="63.12" rx="9.58" ry="9.58"/><path class="j" d="M9.58,1.28H311.01c4.58,0,8.3,3.72,8.3,8.3V53.55c0,4.58-3.72,8.3-8.3,8.3H9.58c-4.58,0-8.3-3.72-8.3-8.3V9.58C1.28,5,5,1.28,9.58,1.28Z"/><path class="h" d="M9.58,1.28H311.01c4.58,0,8.3,3.72,8.3,8.3V53.55c0,4.58-3.72,8.3-8.3,8.3H9.58c-4.58,0-8.3-3.72-8.3-8.3V9.58C1.28,5,5,1.28,9.58,1.28Z"/><path class="i" d="M22.52,42.59c20.27,0,271.04-11.99,291.87-11.99,.59,0,1.16,.01,1.72,.03V9.58c0-2.82-2.29-5.11-5.11-5.11H9.58c-2.82,0-5.11,2.29-5.11,5.11v30.48c5.82,1.48,12.06,2.53,18.05,2.53Z"/><path class="e" d="M311.01,4.47H9.58c-2.82,0-5.11,2.29-5.11,5.11v2.25c0-2.82,2.29-5.11,5.11-5.11H311.01c2.82,0,5.11,2.29,5.11,5.11v-2.25c0-2.82-2.29-5.11-5.11-5.11Z"/><rect class="g" width="320.59" height="63.12" rx="9.58" ry="9.58"/></g><g><path class="k" d="M42.1,35.57c-1.01,.86-2.81,2.74-2.81,3.92,0,2.59,4.93,2.59,6.44,2.59,4.9,0,9.75-.76,14.43-2.16,.04,.9,.11,2.88,.94,6.12-2.77,.79-7.85,1.66-14.07,1.66-5.62,0-7.85-.61-9.61-1.33-1.15-.47-4.57-2.16-4.57-5.8s3.74-7.09,5.22-8.42l4.03,3.42Zm15.12-11.84c-3.35,1.33-7.09,3.56-9.07,5.87-1.3-1.12-2.66-2.27-3.78-3.1,1.33-1.22,1.66-1.48,2.7-2.34-2.23,.18-8.28,.5-11.34,.43l-.29-6.01c2.16,.36,6.59,.47,8.96,.47,4.54,0,8.5-.61,10.04-.83l2.77,5.51Zm1.58-5.62c.97,.9,2.48,2.59,3.28,3.78-.54,.54-1.01,.97-2.12,2.59-1.51-1.94-1.73-2.16-3.46-4l2.3-2.38Zm2.77-3.06c.54,.5,1.58,1.44,3.38,3.53-.94,.79-1.73,1.66-2.3,2.45-.76-1.04-2.3-2.77-3.13-3.53l2.05-2.45Z"/><path class="k" d="M80.73,40.83h-1.44c.72,2.63,1.94,4.75,2.45,5.58-1.01,.5-2.41,1.37-3.67,2.27-1.12-2.02-2.02-4.72-2.23-5.72h-.32c-.4,1.08-1.66,4.28-2.66,6.05-1.98-.94-2.84-1.22-4.54-1.51,1.22-1.8,2.38-3.71,3.28-6.66h-1.19V17.28h10.47v23.15h1.69v-8.17h6.77v-1.08h-7.88v-3.56h4.14v-1.33h-3.06v-3.02h3.06v-1.22h-3.92v-3.64h3.92v-1.94l4.93,.32c.25,0,.47,.18,.47,.36,0,.4-.54,.58-.79,.68v.58h2.41v-1.91l4.93,.22c.4,0,.58,.29,.58,.43,0,.43-.5,.58-.9,.61v.65h4.18v3.64h-4.18v1.22h2.7v3.02h-2.7v1.33h4.82v3.56h-8.39v1.08h6.84v8.17h1.94v3.49h-1.94v1.87c0,1.62,0,3.85-6.41,3.46-.11-1.62-.32-2.52-.97-4.17,.43,.07,1.55,.22,1.91,.22,.76,0,.79-.32,.79-1.37h-8.57v5.33h-4.68v-5.47h-1.84v-2.95Zm-1.73,0h-5.65l2.56,1.15c.18,.07,.25,.14,.4,.22l2.7-1.37Zm-2.38-16.7v-2.56h-1.98v2.56h1.98Zm-1.98,3.64v2.56h1.98v-2.56h-1.98Zm0,6.23v2.7h1.98v-2.7h-1.98Zm14.69,2.7v-1.33h-2.09v1.33h2.09Zm0,3.74v-1.37h-2.09v1.37h2.09Zm.86-18.39v1.22h2.41v-1.22h-2.41Zm0,4.25v1.33h2.41v-1.33h-2.41Zm5.62,10.4v-1.33h-2.16v1.33h2.16Zm0,3.74v-1.37h-2.16v1.37h2.16Z"/><path class="k" d="M123.75,24.27c-.04-1.22-.04-1.55-.07-2.38h-7.88v-5.29h13.75c-.04,.94-.25,5.08-.25,5.9,0,10.94,5.83,18.57,13.21,23.11-2.12,1.22-3.46,2.27-4.72,3.92-4.46-3.1-10.98-9.86-13.03-18.14-1.19,4.03-4,11.48-13.61,18.18-1.58-1.94-2.52-2.84-4.43-4.03,11.05-7.09,12.96-14.72,13.93-21.85l3.1,.58Z"/><path class="k" d="M156.4,19.05c.29,.11,.47,.25,.47,.5,0,.43-.68,.5-1.01,.54-2.16,7.42-2.16,12.74-2.16,13.86,0,1.8,.14,2.63,.25,3.6,.47-.68,1.22-1.84,1.69-2.56,.72,1.37,1.55,2.48,2.59,3.56-.72,1.04-3.02,4.54-2.99,8.82l-4.82,.9c-.5-1.73-1.94-6.84-1.94-14.51,0-3.67,.4-10.15,2.16-16.49l5.76,1.76Zm17.1-.79c.18,.04,.47,.07,.47,.4,0,.43-.5,.54-.83,.58-.11,.79-.25,1.8-.36,4.32,2.81-.5,4.03-.9,5.33-1.33v5.44c-.83,.22-2.48,.61-5.47,1.15,0,3.56,.36,7.06,.58,8.28,2.77,.94,5.51,2.41,6.84,3.71-.58,1.04-1.66,3.38-2.45,5.08-1.15-1.12-2.34-2.09-3.85-2.74-.14,4.61-4.75,5.15-7.02,5.15-5.4,0-8.1-2.95-8.1-6.3,0-4.28,4.25-5.9,8.93-5.8-.29-4.1-.32-4.57-.4-6.66-2.05,.18-3.53,.18-4.14,.18-1.15,0-1.91-.04-2.66-.11v-5.65c1.3,.14,3.13,.4,6.77,.25,0-1.51,0-4.68,.04-7.02l6.33,1.08Zm-7.45,22.32c-.79,0-2.52,.25-2.52,1.37,0,.94,1.19,1.33,2.34,1.33,.29,0,2.45,0,2.45-1.76,0-.18,0-.32-.07-.47-.43-.18-1.08-.47-2.2-.47Z"/><path class="k" d="M197.66,35.21c-1.94,1.73-3.24,3.71-3.24,4.54,0,.61,.47,1.01,.72,1.15,1.33,.72,5.47,.79,7.16,.79,7.6,0,12.17-1.3,13.89-1.8,.14,1.94,.68,4.54,1.04,5.98-4.93,1.22-12.45,1.44-15.26,1.44-8.24,0-13.53-1.51-13.53-6.98,0-3.1,2.52-5.83,5.36-8.24l3.85,3.13Zm17.21-12.56c-4.46,1.76-7.74,3.85-11.34,7.13-.07-.07-.4-.43-3.2-3.6,.97-.65,1.76-1.33,2.56-2.16-.9,.07-3.13,.22-6.41,.22-2.84,0-4-.14-4.86-.22l-.29-5.94c2.92,.61,7.78,.79,10.87,.79,5.69,0,8.71-.58,9.75-.79l2.92,4.57Z"/><path class="k" d="M242.26,17.36c.29,.07,.68,.22,.68,.58,0,.22-.18,.47-.79,.5-.79,2.45-.86,2.7-1.04,3.24,4-.61,7.96-1.37,11.73-2.84,.18,1.19,.65,3.92,1.01,5.36-4.43,1.55-10.04,2.7-14.72,3.06-.86,2.38-1.15,3.1-1.87,4.86,2.92-1.44,6.08-2.45,9.36-2.45,9.61,0,10.12,6.77,10.12,8.57,0,3.2-1.73,5.8-3.85,7.27-1.91,1.3-5.51,3.46-15.48,3.46-1.51,0-2.56-.11-3.35-.18-.25-1.87-.68-3.56-1.33-5.36,1.04,.11,3.17,.32,5.36,.32,.83,0,6.98,0,10.69-2.2,1.91-1.15,1.94-2.74,1.94-3.38,0-2.09-1.08-3.85-4.39-3.85s-8.24,1.62-12.45,6.01l-5.18-2.59c2.59-3.89,4.54-9.36,4.79-10.11-3.13,.04-5.62-.11-6.98-.22l-.07-5.9c2.34,.58,4.39,.79,8.71,.79,.61-2.23,1.08-4.25,1.37-6.37l5.76,1.44Z"/><path class="k" d="M277.36,24.41c.25,.07,.54,.14,.54,.47,0,.43-.43,.47-.83,.5-.86,1.62-1.84,3.74-2.38,6.23,3.2-2.2,7.38-3.35,10.51-3.35,6.19,0,9.21,4.57,9.21,8.86,0,6.88-6.48,11.59-18.39,11.59-1.04,0-1.94-.04-2.63-.07-.22-1.98-.5-2.95-1.69-6.05,1.22,.29,2.48,.54,5.33,.54,8.17,0,11.41-3.06,11.41-6.08,0-1.04-.5-3.67-4.21-3.67-5.15,0-8.89,3.31-11.48,5.9l-5.15-1.87c1.04-6.16,2.12-10.08,3.78-14.9l5.98,1.91Zm-1.98-8.42c1.26,.18,6.8,1.01,12.09,4-1.37,1.91-2.27,3.46-3.24,5.25-3.02-2.12-7.42-3.71-10.73-4.43l1.87-4.82Z"/></g></g></g></g></g></svg>