<svg id="Layer_1" data-name="Layer 1" xmlns="http://www.w3.org/2000/svg" viewBox="0 0 953.84 33.67"><defs><style>.cls-1{fill:#d02027;}</style></defs><path class="cls-1" d="M7,12.19c-.49.2-2.89,1.25-3.42,1.5A20.5,20.5,0,0,0,0,9.34C9.59,5.81,14.18,1.75,16.25-1.18l5.52.69c.65.08.85.37.85.77a.91.91,0,0,1-.12.37c2.16,2.31,9.06,6.38,16,8a13.36,13.36,0,0,0-3.62,4.67,46.12,46.12,0,0,1-4.34-1.7V23.15a18.62,18.62,0,0,0,1.86-2.07l4.39,3.37a.9.9,0,0,1,.33.69c0,.53-.61.57-1.22.65a61.25,61.25,0,0,1-5.32,4.63,31.18,31.18,0,0,0,8.12,1.67,13.13,13.13,0,0,0-3.53,4.75A26.6,26.6,0,0,1,28.88,35c-5.2-2-6.78-3.33-8.81-5a20.68,20.68,0,0,0-.45,3.37c-7,1.78-13.41,3.13-15.52,3.49-.44.65-.53.77-.81.77-.49,0-.57-.4-.69-.77L1.18,32.21c1.7-.16,4-.61,5.81-1Zm9-2.08V6.7a44.51,44.51,0,0,1-5.07,3.41Zm-3,5.77H24.57V14.3H13Zm11.61,3.29H13v1.59H24.57ZM13,24.82v5.24c.89-.21,5-1,5.81-1.22a22.45,22.45,0,0,1-3.7-4ZM22.1,6.91a36.86,36.86,0,0,1-3.25-2.69,25.27,25.27,0,0,1-2.77,2.44Zm-.57,17.91a20.46,20.46,0,0,0,3.57,2.92c.61-.44,1.75-1.26,3.7-2.92ZM27.3,10.11a29.88,29.88,0,0,1-4.63-2.76c.08.57-.61,1.06-.9,1.26v1.5Z"/><path class="cls-1" d="M40.25,20.63c3.66-3,5.53-5.48,10.36-11.73C52.68,6.21,54.31,5,56.05,5c2,0,3.21,1,6.91,5.32,4.83,5.56,10.64,12.26,16.77,16.41a41.31,41.31,0,0,0-4.59,6.13C69.7,28.76,62,19.5,60.6,17.71a57.82,57.82,0,0,0-3.94-4.59,1.43,1.43,0,0,0-.89-.37c-.61,0-.94.29-2.24,2.4a68.82,68.82,0,0,1-7.92,10.64ZM70,5.08a45.93,45.93,0,0,1,4.68,4,32,32,0,0,0-2.85,3,58.87,58.87,0,0,0-4.59-4.14Zm3.62-3.62a29.74,29.74,0,0,1,4.55,3.78,23.2,23.2,0,0,0-2.68,2.84,47.18,47.18,0,0,0-4.59-3.94Z"/><path class="cls-1" d="M110.6,4.35c-2.76,1.82-9.06,8.12-9.95,9.05a22.16,22.16,0,0,1,4.87-.61c5.53,0,11.21,3.5,11.21,10.69,0,8.93-8.48,12.83-15.51,12.83-5.24,0-10.32-2.07-10.32-7,0-4,3.74-6.5,8-6.5,3.82,0,7.8,2.15,8.73,6,2.69-1.34,2.69-4.47,2.69-4.79,0-1-.33-5.93-6.63-5.93-6.86,0-10.76,4-16.4,9.91l-4.88-4.76C87,20,96.1,11.05,98.82,7.43c-1.3.29-2.68.61-10.8,1.42L87,2.48c1.59,0,13.32.16,20.31-2.56ZM98.37,27.91c-1.38,0-1.7.77-1.7,1.46,0,1.54,2.27,2.15,3.65,2.15a6.74,6.74,0,0,0,2-.32A4,4,0,0,0,98.37,27.91Z"/><path class="cls-1" d="M128.39,8.16a41.54,41.54,0,0,1,9.5,5.57,39.94,39.94,0,0,0-3.94,5.4,34.47,34.47,0,0,0-9.22-5.52ZM127.09,30c12.75-4.39,23.27-13.57,28.6-21.53A21,21,0,0,0,159.87,14c-5.12,7.64-17.14,17.63-28,21.65,0,.25-.08.94-.69.94-.28,0-.53-.41-.61-.53Zm5.4-30.87a62,62,0,0,1,10.2,4.79c-.86,1-3.29,4.43-3.86,5.28A43.24,43.24,0,0,0,129,4.1Z"/><path class="cls-1" d="M175.42,1c.49,0,.78.05.78.41s-.49.65-.78.77V22h-6.78V.77ZM194,.24c.4,0,.77.09.77.41,0,.49-.49.69-.77.81V14.7c0,4.43-.77,8.9-3.25,12.55-2.24,3.29-6.74,7.68-12.31,9.39a11.62,11.62,0,0,0-4.22-5.2C187,27,187.2,18.89,187.2,14.74V0Z"/><path class="cls-1" d="M225.46.57c.53,0,.82.08.82.45s-.49.6-.82.73c0,1.26,0,2.92-.08,5.68H238.3c-.37,17.27-1.14,20.07-2.11,22.34-1.06,2.48-3.21,6.38-11.62,5.89a23.48,23.48,0,0,0-1.66-6.74,10.22,10.22,0,0,0,2.88.37c3.53,0,5.4,0,5.73-15.72h-6.75c-2,12.06-7.39,17.79-15.59,22.5a16.29,16.29,0,0,0-4.72-4.87c9.39-5,12.31-9.92,13.73-17.63h-12.3V7.43H218.8a48.83,48.83,0,0,0-.32-7.31Z"/><path class="cls-1" d="M246.1,6a29.21,29.21,0,0,0,4.51.33c1.17,0,2.39-.09,4.14-.21a62.63,62.63,0,0,0,1.5-6.9l6.38,2c.57.16.77.32.77.65,0,.49-.65.49-.85.49-.12.28-.65,2.15-.82,2.68a36.07,36.07,0,0,0,4.39-1.34,43.56,43.56,0,0,0,.12,6.05,53.39,53.39,0,0,1-6.5,1.42c-.56,1.66-1.95,5.4-4.14,10.4a53.5,53.5,0,0,1-4.75,8.93,32.77,32.77,0,0,0-6.09-2.43A72.66,72.66,0,0,0,253,12c-.93.08-4.83.21-6.09.21ZM272.38,17.1a6,6,0,0,0-1.47,4,29,29,0,0,0,.41,4,43.3,43.3,0,0,1,8.61,5,39.67,39.67,0,0,0-3.73,4.87,35.63,35.63,0,0,0-4.68-3.41c-.77,3.82-3.45,4.95-8.12,4.95-6.46,0-9.67-2.88-9.67-6.7,0-.77.17-6.41,8.37-6.41,1.14,0,1.95.08,2.68.12,0-.29-.2-3.21-.2-3.54a7.9,7.9,0,0,1,2.84-5.64Zm-10.08,11c-1.13,0-2.6.57-2.6,1.66s1.18,1.51,2.89,1.51c2.76,0,2.92-1.34,3-2.36A7.82,7.82,0,0,0,262.3,28.15ZM270.18,6.5c6.46,2.11,8.86,3.82,10.69,5.28a51.58,51.58,0,0,0-3.7,5.24A29.07,29.07,0,0,0,267,11.78Z"/><path class="cls-1" d="M300.12,8.73c.28.08.61.17.61.53s-.49.53-.94.57a27.49,27.49,0,0,0-2.68,7A22.5,22.5,0,0,1,309,13.08c7,0,10.4,5.16,10.4,10,0,7.76-7.31,13.08-20.76,13.08-1.17,0-2.19,0-3-.08-.24-2.24-.57-3.33-1.91-6.82a23.21,23.21,0,0,0,6,.6c9.22,0,12.88-3.45,12.88-6.86,0-1.18-.57-4.14-4.75-4.14-5.81,0-10,3.73-13,6.66l-5.81-2.11a96.38,96.38,0,0,1,4.27-16.82Zm-2.24-9.5a40.46,40.46,0,0,1,13.65,4.51,50.45,50.45,0,0,0-3.65,5.93,36.23,36.23,0,0,0-12.11-5Z"/><path class="cls-1" d="M343.58,8.41a7.83,7.83,0,0,0-1.38,2A15,15,0,0,1,350.36,8c5.73,0,11.54,3.7,11.54,11.86,0,12.6-12.47,14.42-15.28,14.83-1.3-3.29-1.82-4.27-3.2-5.89,4.42-.29,12.18-1.67,12.18-8.57a6,6,0,0,0-6.13-6.3c-3.46,0-7.23,2.16-10,4.43V35.87l-6.62.48c.44-5.07.56-10,.6-11.25-1.17,1.67-3.29,4.63-3.57,5l-4.63-4.55a57.7,57.7,0,0,0,8.29-10.64V13.69a46.13,46.13,0,0,1-6.18,2.15l-1.06-6.78a40.91,40.91,0,0,0,7.44-1.26c0-1.3-.2-7-.2-8.17l6.17.37c.77,0,1.22.08,1.22.61s-.37.49-.9.57c-.28,2.44-.32,3.45-.36,4.43a6.26,6.26,0,0,1,.85-.41Z"/><path class="cls-1" d="M366.73,6.66c1,0,1.18.08,2,.08,1.79,0,2.6-.08,13.61-.89a35.58,35.58,0,0,0-.69-6.58l6.78.61c1.1.08,1.18.28,1.18.53s-.33.52-.77.69c-.05,1.78-.05,3.49-.05,4.34,10.93-.69,11-.69,12.76-1-.08,2.76,0,3.13,0,6.29-1.71-.12-4.59-.36-7.92-.36-1,0-2.07,0-4.83.12v4.06c2,2.2,2,5.77,2,7,0,3-.57,9.34-9.14,15.88a16.9,16.9,0,0,0-5.57-3.49,14.14,14.14,0,0,0,6.3-6,6.1,6.1,0,0,1-2.36.44c-4.18,0-6-3.37-6-7.23,0-5.68,3.66-9,8.33-8.73,0-.85,0-1.06,0-1.42a91.1,91.1,0,0,0-15.28,2.23ZM379.4,20.59c0,.53,0,3.42,2.11,3.42,1.71,0,2.32-2.16,2.32-3.82,0-1.14-.49-3.13-2-3.13C380.86,17.06,379.4,17.87,379.4,20.59ZM396-1.71a36.67,36.67,0,0,1,3.13,4.19,16.33,16.33,0,0,0-3.25,2.15,24.34,24.34,0,0,0-3-4.26ZM401.38-2a34.57,34.57,0,0,1,3,4,14.73,14.73,0,0,0-2.88,2,20.75,20.75,0,0,0-3-4.06Z"/><path class="cls-1" d="M426.15,1.71c.45.12.81.24.81.61,0,.56-.85.64-1.09.64-.61,2.77-.86,3.82-1.14,4.88,3.49,0,9.3.12,9.3,10,0,6.7-2.11,12.43-4.06,15a7,7,0,0,1-6,2.84,22.19,22.19,0,0,1-4.31-.44,12.82,12.82,0,0,0,.12-1.51,31.28,31.28,0,0,0-.6-5.44,6.73,6.73,0,0,0,3.53.89,3.07,3.07,0,0,0,2.4-.77c1.38-1.22,2.68-5.77,2.68-10.8,0-4.19-2.93-3.94-4.68-3.82-3.2,11-7,17.18-10.31,21.45a29,29,0,0,0-6-3.21,48.75,48.75,0,0,0,9.66-17A43.47,43.47,0,0,0,410,17.06l-2.24-6.54c1.67-.32,8.9-1.83,10.4-2.07a62.36,62.36,0,0,0,1.26-8.9Zm11,2.11c4.47,5,7.31,11.78,7.31,15,0,2.11-.69,3.25-2.88,4.3a15.73,15.73,0,0,1-4.07,1.26,32.76,32.76,0,0,0-2.35-5.44c1.1-.25,2.6-.57,2.6-1.87a16.13,16.13,0,0,0-2.11-5.56A29.26,29.26,0,0,0,432.16,7Z"/><path class="cls-1" d="M458.93,33.67V12.88H452V7.55c4.11-.12,7-.81,8.53-5.88h6v32Z"/><path class="cls-1" d="M482,1.79a31.46,31.46,0,0,1,1.38,7.8,30.56,30.56,0,0,0-4.35,1,49.12,49.12,0,0,0-1.7-7.88Zm7.39,34.85h-5.81V28.11a24,24,0,0,1-2.07,3.57,25.33,25.33,0,0,0-4.1-4.22,27.14,27.14,0,0,0,5.64-11h-5v-5h5.52V-.37l5.81.29c.2,0,.69,0,.69.41s-.36.48-.69.69V8a38.25,38.25,0,0,0,1.83-6.86l4.83,1.87c.41.16.73.28.73.57s-.44.4-.81.4c-.2.49-.73,1.91-1.1,2.84h6.26V-.24l6,.32c.69,0,1.3.08,1.3.45s-.49.61-1,.81V6.86h7.39v4.92H494.55V7.68A27,27,0,0,1,493.09,11a14.42,14.42,0,0,0-3.7-1.67v2.11H494v5h-4.59a40.8,40.8,0,0,0,5.24,8.33,17.57,17.57,0,0,0-3.7,3.45c-.73-1.14-1.09-1.71-1.58-2.56ZM515.1,31v5.24H492.92V31h10.73c2.19-6,3.65-18.07,3.65-18.4l6.18,1.1c.65.12,1.18.24,1.18.69s-.74.65-1.39.77c-.08.53-2.55,11.58-3.81,15.84ZM500.93,12.83A155.41,155.41,0,0,1,503,29.29a28.64,28.64,0,0,0-6,1.25,95.34,95.34,0,0,0-2-16.77Z"/><path class="cls-1" d="M555.07,7c-10-.17-18.73,8.85-18.73,15.43,0,4.71,6,7,11.5,7.15A55.58,55.58,0,0,0,544.79,37c-3.29-.89-14.95-4.14-14.95-13.85,0-7.51,5.81-12.91,7.48-14A110,110,0,0,0,520.5,11.7l-.93-7.64a132.13,132.13,0,0,0,18.07-.93,97.48,97.48,0,0,0,16.29-3Zm-6.74,5.76a25.57,25.57,0,0,1,3.77,4.35c-1.13.81-1.7,1.26-3.12,2.44A32.75,32.75,0,0,0,545.36,15Zm4.26-2.88a26.59,26.59,0,0,1,3.62,4.26c-1,.78-1.71,1.39-3,2.52a30.52,30.52,0,0,0-3.61-4.59Z"/><path class="cls-1" d="M571,33.67V12.88h-7V7.55c4.11-.12,7-.81,8.53-5.88h6v32Z"/><path class="cls-1" d="M600.56,32.86v2.23h-6.38V2H623.3V35.09h-6.37V32.86Zm16.37-18.48V7.6H600.56v6.78Zm0,12.67V19.86H600.56v7.19Z"/><path class="cls-1" d="M638.94,18.81V15a33.49,33.49,0,0,1-5.24,4.51,11.4,11.4,0,0,0-4.63-4.71c3.21-2.08,8.24-5.77,12.43-14.26l5.36,3.53a.76.76,0,0,1,.41.65c0,.33-.57.41-1.06.45-3,4.63-3.45,5.48-5.44,7.72h17.54a26.19,26.19,0,0,1-4.38-7.27h-5.16V0H659c.33,3.45,2.32,9.75,10.69,14.09a13,13,0,0,0-3.78,5.29,18.91,18.91,0,0,1-4.35-3.25c-.4,18.6-1.46,20.43-10.8,20.43a13.42,13.42,0,0,1-1.34-.08,14.26,14.26,0,0,0-1.71-6.34,30.45,30.45,0,0,0,3.86.36c1.42,0,2.32,0,2.8-1.25.17-.41,1-3.09,1-10.44h-5.69c-1,12.75-11.29,16.85-14.3,18-.52-1.38-1.42-2.8-4.22-5.24,10.44-3.09,12-8.2,12.51-12.79Z"/><path class="cls-1" d="M690.48,29.77c8.82-1.62,11.42-8.44,11.42-12.67,0-3.29-1.75-9.34-9.39-10-1.26,14.87-7.39,26-11.7,26-3.16,0-9-5.36-9-12.87,0-8.73,8-18.93,19.9-18.93,8.9,0,16.65,6.05,16.65,15.76a18.9,18.9,0,0,1-4.79,12.55C701,32.5,698.16,34,694.71,35.5A26.45,26.45,0,0,0,690.48,29.77Zm-12.71-10c0,3.13,1.74,5.48,2.6,5.48s1.74-1.82,2.19-2.88a35.44,35.44,0,0,0,3.13-14C681,10.11,677.77,16.08,677.77,19.74Z"/><path class="cls-1" d="M718.06,8.16a41.54,41.54,0,0,1,9.5,5.57,39.94,39.94,0,0,0-3.94,5.4,34.47,34.47,0,0,0-9.22-5.52ZM716.76,30c12.75-4.39,23.27-13.57,28.6-21.53A21,21,0,0,0,749.54,14c-5.12,7.64-17.14,17.63-28,21.65,0,.25-.08.94-.69.94-.28,0-.53-.41-.61-.53Zm5.4-30.87a62,62,0,0,1,10.2,4.79c-.86,1-3.29,4.43-3.86,5.28a43.24,43.24,0,0,0-9.87-5.12Z"/><path class="cls-1" d="M765.09,1c.49,0,.78.05.78.41s-.49.65-.78.77V22h-6.78V.77ZM783.7.24c.4,0,.77.09.77.41,0,.49-.49.69-.77.81V14.7c0,4.43-.78,8.9-3.25,12.55-2.24,3.29-6.74,7.68-12.31,9.39a11.62,11.62,0,0,0-4.22-5.2c12.71-4.43,13-12.55,13-16.7V0Z"/><path class="cls-1" d="M815.13.57c.53,0,.82.08.82.45s-.49.6-.82.73c0,1.26,0,2.92-.08,5.68H828c-.37,17.27-1.14,20.07-2.11,22.34-1.06,2.48-3.21,6.38-11.62,5.89a23.23,23.23,0,0,0-1.67-6.74,10.36,10.36,0,0,0,2.89.37c3.53,0,5.4,0,5.73-15.72h-6.75c-2,12.06-7.39,17.79-15.6,22.5a16.11,16.11,0,0,0-4.71-4.87c9.39-5,12.31-9.92,13.73-17.63H795.55V7.43h12.92a48.83,48.83,0,0,0-.32-7.31Z"/><path class="cls-1" d="M855,.2c.24,0,.81.17.81.73s-.73.61-1,.61l-.94,2a43.38,43.38,0,0,0,8.41-1.91v6c-6,1-6.78,1.17-11.58,1.74l-1.58,2.81a7.63,7.63,0,0,1,3.53-.82,7.13,7.13,0,0,1,5.93,3.46c6-2.89,6.7-3.17,8.21-4l2.39,6.5c-4.5,1.43-6.86,2.28-9.26,3.29.08,1.18.13,2.44.13,3.66,0,1.83-.09,3-.13,4.06-1.3-.08-2.76-.08-4.06-.08a18.3,18.3,0,0,0-2.35.08,35.7,35.7,0,0,0,.28-4.63c-2.52,1.54-5.08,3.25-5.08,4.92s4.15,1.94,6.22,1.94a45.64,45.64,0,0,0,13-2,25.52,25.52,0,0,0-.78,6.46,50,50,0,0,1-11.33,1.18c-2.72,0-13.28,0-13.28-7.19,0-4.79,6.46-8.81,10.88-11.13a2.94,2.94,0,0,0-3-2c-4.23,0-7.07,4.55-9.3,8.17l-5.65-3.21a87.8,87.8,0,0,0,8.25-10.93c-2.2.08-4,.08-5.73,0L838,4c1.26.12,3.61.33,6.38.33,1.17,0,1.66,0,2.31,0A29.93,29.93,0,0,0,848.84-1Z"/><path class="cls-1" d="M907.09-1a21.12,21.12,0,0,1,3.57,3.85c-.44.29-.85.57-1.62,1.18h2.8V8.94h-8.41v1.78h7.44V32.37c0,4.11-3,4.47-5.81,4.31a13.58,13.58,0,0,0-1.63-4.75V36h-5.32V27.7h-2.44v9h-5V22.79a13.82,13.82,0,0,0-2.89,3.61,19.11,19.11,0,0,1-2.47-1.74v12h-5.61V24.53c-1.26,1.22-1.79,1.71-2.44,2.28A13.63,13.63,0,0,0,872.93,23c3.49-2.6,7.19-6,9.42-11.13h-7.84V6.7h5.2V-.69l5.61.2c.61,0,.93,0,.93.41s-.49.73-.93,1V6.7h1.83L889.05,8V4.06h9.06V-.77l5.32.08c.33,0,.74.16.74.61s-.29.61-.74.89V4.06H906a22.65,22.65,0,0,0-2.27-2.44ZM889.83,8.94a37.76,37.76,0,0,1-4.43,8.73,18.23,18.23,0,0,0,5.28,4.3V18.89c-.37.53-.65.85-1.14,1.46a14.31,14.31,0,0,0-3.41-2.76,16.66,16.66,0,0,0,2.72-4.31l1.83,1.06V10.72h7.43V8.94Zm8.28,6.17h-2.44v2.31h2.44Zm0,6.13h-2.44v2.44h2.44Zm5.32-3.82h2.44V15.11h-2.44Zm0,6.26h2.44V21.24h-2.44Zm0,7.47a9,9,0,0,0,1.55.21c.89,0,.89-.41.89-1.3V27.7h-2.44Z"/><path class="cls-1" d="M930.73,5.48c.32.17.69.33.69.77s-.57.57-1.18.53c-1,1.43-3.29,4.67-4.63,6.3L929.14,12a2.9,2.9,0,0,1-.36-.2A22.58,22.58,0,0,0,938.57-.93L944.21.16c.25,0,.86.17.86.73a.9.9,0,0,1-.65.82c1.34,3.81,6.45,8.2,9.42,9.83a11.26,11.26,0,0,0-4.18,4.14c-.66-.49-.9-.65-1.35-1v3.17H934.63V14.46c-.61.53-.69.61-1.18,1a14.79,14.79,0,0,0-3.41-3,51.79,51.79,0,0,1,2.43,7c-1.78.61-3.33,1.17-4.87,1.82-.08-.61-.12-.85-.2-1.34-.29,0-1.51.17-1.79.17V36.88h-5.36v-13a1.42,1.42,0,0,1-.53.17,57.47,57.47,0,0,1-1.63,9.3,18.26,18.26,0,0,0-4.55-1.42,30.6,30.6,0,0,0,2-9.75l3.94.69c.36.08.56.08.73.12V20.72c-.57.08-2.72.28-3.21.32-.33.49-.61.85-.94.85-.48,0-.65-.44-.73-.85l-1.22-5c.41,0,2.44-.12,3-.16.45-.44,1.3-1.42,2.68-3.13a57.39,57.39,0,0,0-5.65-4.67l3.34-4.5c.4.28.52.4.89.69A35.28,35.28,0,0,0,921.1-.93l4.75,2.23c.33.16.61.32.61.69a.55.55,0,0,1-.57.57,2.9,2.9,0,0,1-.57-.08c-1.3,2-2.76,4.26-3.29,5,.17.17.9.82,1,.94a30,30,0,0,0,3.05-5.12ZM923.09,16c1-.08,2.4-.16,3.37-.24a11.8,11.8,0,0,0-1-2.52C924.71,14.18,923.86,15.19,923.09,16Zm7.31,5.41a45.89,45.89,0,0,0,1.83,8.77,16.28,16.28,0,0,0-5,1.38,55.72,55.72,0,0,1-1.38-9.22Zm8.17,14.09v1.38h-5.89V20.23h18.07V36.88h-6V35.5Zm7.67-22.62a37.92,37.92,0,0,1-5.12-6.14,43,43,0,0,1-4.87,6.14Zm-1.5,17.79V25.43h-6.17v5.24Z"/></svg>