<?xml version="1.0" encoding="UTF-8"?><svg xmlns="http://www.w3.org/2000/svg" xmlns:xlink="http://www.w3.org/1999/xlink" viewBox="0 0 222.91 43.89"><defs><style>.e{fill:#fff;}.f{isolation:isolate;}.g{fill:#65bce3;}.h{fill:#304f74;}.i{fill:#d10000;mix-blend-mode:color;}.j{fill:url(#d);}.k{fill:red;}</style><linearGradient id="d" x1="111.45" y1="29.61" x2="111.45" y2="3.11" gradientTransform="matrix(1, 0, 0, 1, 0, 0)" gradientUnits="userSpaceOnUse"><stop offset="0" stop-color="#6e7fb5"/><stop offset="1" stop-color="#77b2db"/></linearGradient></defs><g class="f"><g id="a"/><g id="b"><g id="c"><g><g><rect class="h" y="0" width="222.91" height="43.89" rx="6.66" ry="6.66"/><path class="g" d="M6.66,.89H216.25c3.19,0,5.77,2.59,5.77,5.77v30.57c0,3.19-2.59,5.77-5.77,5.77H6.66c-3.18,0-5.77-2.59-5.77-5.77V6.66C.89,3.47,3.47,.89,6.66,.89Z"/><path class="k" d="M6.66,.89H216.25c3.19,0,5.77,2.59,5.77,5.77v30.57c0,3.19-2.59,5.77-5.77,5.77H6.66c-3.18,0-5.77-2.59-5.77-5.77V6.66C.89,3.47,3.47,.89,6.66,.89Z"/><path class="j" d="M15.66,29.61c14.09,0,188.46-8.34,202.94-8.34,.41,0,.81,0,1.2,.02V6.66c0-1.96-1.59-3.55-3.55-3.55H6.66c-1.96,0-3.55,1.59-3.55,3.55V27.85c4.04,1.03,8.38,1.76,12.55,1.76Z"/><path class="e" d="M216.25,3.11H6.66c-1.96,0-3.55,1.59-3.55,3.55v1.57c0-1.96,1.59-3.55,3.55-3.55H216.25c1.96,0,3.55,1.59,3.55,3.55v-1.57c0-1.96-1.59-3.55-3.55-3.55Z"/><rect class="i" y="0" width="222.91" height="43.89" rx="6.66" ry="6.66"/></g><g><path class="e" d="M43.13,22.18h-11.74v-1.85c-.79,.53-1.13,.74-3.41,1.92-.22-.43-.6-1.2-2.71-2.54,2.21-.94,7.08-3.02,10.18-7.75l3.77,.53c.22,.02,.46,.12,.46,.41,0,.19-.19,.29-.36,.38,1.32,2.04,6.46,4.54,9.36,5.09-1.08,1.03-1.78,2.5-1.99,3.12-1.15-.34-1.87-.67-3.55-1.49v2.18Zm-14.62,5.02v-3.31h15.43l1.51,1.37c-1.82,4.13-3.77,6.96-5.81,9.53-1.97-1.37-3.05-1.63-3.6-1.75,1.44-1.46,3.12-3.38,4.32-5.83h-11.86Zm12.72-8.21c-1.56-.91-3.02-2.02-4.22-3.38-1.15,1.22-2.88,2.71-3.75,3.38h7.97Z"/><path class="e" d="M65.44,12.77c.38,.05,.6,.07,.6,.26,0,.26-.29,.36-.48,.41-.05,.43-.07,.72-.12,1.68,6.77-.29,7.51-.31,7.97-.36-.02,.5-.07,2.88,.02,3.86-4.34-.22-6.17-.22-7.92-.19-.05,1.73-.02,2.16,.02,2.66,1.39,1.7,1.39,4.27,1.39,4.61,0,3.41-2.23,7.39-5.57,9.26-1.03-.98-2.35-1.87-3.5-2.47,.72-.29,3.55-1.49,4.42-3.46-.24,.19-.72,.58-1.9,.58-.38,0-1.75,0-2.59-1.08-.86-1.1-1.03-2.66-1.03-3.55,0-5.28,4.51-5.11,5.02-5.04,.02-.77,.02-.98,.02-1.34-5.02,.31-8.16,.96-9.58,1.25l-.26-4.06c.55,.02,1.46-.02,9.75-.5-.17-2.02-.17-2.09-.34-3.05l4.08,.53Zm-5.54,12c0,1.58,.79,2.02,1.22,2.02,.74,0,1.18-1.1,1.18-2.3,0-.55-.12-1.49-1.08-1.49-.79,0-1.32,.79-1.32,1.78Z"/><path class="e" d="M95.3,14.36c.17,.12,.26,.22,.26,.38,0,.19-.19,.24-.31,.24-.1,0-.24-.05-.38-.07-.5,.43-4.42,3.5-5.21,4.18-1.13,.96-2.47,2.09-3.34,2.9-.77,.7-.86,.77-.86,.96,0,.24,.1,.31,1.03,.86,.1,.05,2.28,1.49,4.44,3.14,2.74,2.09,3.89,3.34,4.99,4.73-.98,.84-1.73,1.68-2.78,3.22-1.06-1.56-4.99-5.74-12.1-10.32-.22-.14-.82-.58-.82-1.42,0-.6,.1-.89,2.54-2.81,3.29-2.59,6.41-5.45,9.15-8.64l3.38,2.64Zm.1,2.5c.82,.74,1.56,1.44,2.62,2.76-.98,.79-1.54,1.42-1.8,1.75-.53-.72-1.27-1.66-2.59-2.81l1.78-1.7Zm2.5-2.3c.84,.74,1.56,1.44,2.62,2.76-.98,.79-1.51,1.44-1.8,1.75-.53-.72-1.27-1.66-2.59-2.81l1.78-1.7Z"/><path class="e" d="M111.33,28.76h-.96c.48,1.75,1.3,3.17,1.63,3.72-.67,.34-1.61,.91-2.45,1.51-.74-1.34-1.34-3.14-1.49-3.82h-.22c-.26,.72-1.1,2.86-1.78,4.03-1.32-.62-1.9-.82-3.02-1.01,.82-1.2,1.58-2.47,2.18-4.44h-.79V13.06h6.98v15.43h1.13v-5.45h4.51v-.72h-5.26v-2.38h2.76v-.89h-2.04v-2.02h2.04v-.82h-2.62v-2.42h2.62v-1.3l3.29,.22c.17,0,.31,.12,.31,.24,0,.26-.36,.38-.53,.46v.38h1.61v-1.27l3.29,.14c.26,0,.38,.19,.38,.29,0,.29-.34,.38-.6,.41v.43h2.78v2.42h-2.78v.82h1.8v2.02h-1.8v.89h3.22v2.38h-5.59v.72h4.56v5.45h1.3v2.33h-1.3v1.25c0,1.08,0,2.57-4.27,2.3-.07-1.08-.22-1.68-.65-2.78,.29,.05,1.03,.14,1.27,.14,.5,0,.53-.22,.53-.91h-5.71v3.55h-3.12v-3.65h-1.22v-1.97Zm-1.15,0h-3.77l1.7,.77c.12,.05,.17,.1,.26,.14l1.8-.91Zm-1.58-11.14v-1.7h-1.32v1.7h1.32Zm-1.32,2.42v1.7h1.32v-1.7h-1.32Zm0,4.15v1.8h1.32v-1.8h-1.32Zm9.79,1.8v-.89h-1.39v.89h1.39Zm0,2.5v-.91h-1.39v.91h1.39Zm.58-12.26v.82h1.61v-.82h-1.61Zm0,2.83v.89h1.61v-.89h-1.61Zm3.74,6.94v-.89h-1.44v.89h1.44Zm0,2.5v-.91h-1.44v.91h1.44Z"/><path class="e" d="M140.01,17.72c-.02-.82-.02-1.03-.05-1.58h-5.26v-3.53h9.17c-.02,.62-.17,3.38-.17,3.94,0,7.3,3.89,12.39,8.81,15.41-1.42,.82-2.3,1.51-3.14,2.62-2.98-2.06-7.32-6.58-8.69-12.1-.79,2.69-2.67,7.66-9.07,12.12-1.06-1.3-1.68-1.9-2.95-2.69,7.37-4.73,8.64-9.82,9.29-14.57l2.06,.38Z"/><path class="e" d="M169.12,12.77c.38,.05,.6,.07,.6,.26,0,.26-.29,.36-.48,.41-.05,.43-.07,.72-.12,1.68,6.77-.29,7.51-.31,7.97-.36-.02,.5-.07,2.88,.02,3.86-4.34-.22-6.17-.22-7.92-.19-.05,1.73-.02,2.16,.02,2.66,1.39,1.7,1.39,4.27,1.39,4.61,0,3.41-2.23,7.39-5.57,9.26-1.03-.98-2.35-1.87-3.5-2.47,.72-.29,3.55-1.49,4.42-3.46-.24,.19-.72,.58-1.9,.58-.38,0-1.75,0-2.59-1.08-.86-1.1-1.03-2.66-1.03-3.55,0-5.28,4.51-5.11,5.02-5.04,.02-.77,.02-.98,.02-1.34-5.02,.31-8.16,.96-9.58,1.25l-.26-4.06c.55,.02,1.46-.02,9.75-.5-.17-2.02-.17-2.09-.34-3.05l4.08,.53Zm-5.54,12c0,1.58,.79,2.02,1.22,2.02,.74,0,1.18-1.1,1.18-2.3,0-.55-.12-1.49-1.08-1.49-.79,0-1.32,.79-1.32,1.78Z"/><path class="e" d="M198.6,15.22c-1.63,1.08-5.35,4.8-5.88,5.35,.41-.1,1.58-.36,2.88-.36,3.26,0,6.62,2.06,6.62,6.31,0,5.28-5.02,7.58-9.17,7.58-3.1,0-6.1-1.22-6.1-4.13,0-2.38,2.21-3.84,4.7-3.84,2.26,0,4.61,1.27,5.16,3.53,1.58-.79,1.58-2.64,1.58-2.83,0-.58-.19-3.5-3.91-3.5-4.06,0-6.36,2.38-9.7,5.86l-2.88-2.81c2.76-1.92,8.11-7.2,9.72-9.34-.77,.17-1.58,.36-6.38,.84l-.58-3.77c.94,.02,7.87,.1,12-1.51l1.92,2.62Zm-7.22,13.92c-.82,0-1.01,.46-1.01,.86,0,.91,1.34,1.27,2.16,1.27,.55,0,.96-.12,1.2-.19-.38-1.63-1.68-1.94-2.35-1.94Z"/></g></g></g></g></g></svg>