<?xml version="1.0" encoding="UTF-8"?><svg xmlns="http://www.w3.org/2000/svg" xmlns:xlink="http://www.w3.org/1999/xlink" viewBox="0 0 142.66 28.09"><defs><style>.e{fill:#fff;}.f{isolation:isolate;}.g{fill:#65bce3;}.h{fill:#304f74;}.i{fill:#d10000;mix-blend-mode:color;}.j{fill:url(#d);}.k{fill:red;}</style><linearGradient id="d" x1="71.33" y1="18.95" x2="71.33" y2="1.99" gradientTransform="matrix(1, 0, 0, 1, 0, 0)" gradientUnits="userSpaceOnUse"><stop offset="0" stop-color="#6e7fb5"/><stop offset="1" stop-color="#77b2db"/></linearGradient></defs><g class="f"><g id="a"/><g id="b"><g id="c"><g><g><rect class="h" width="142.66" height="28.09" rx="4.26" ry="4.26"/><path class="g" d="M4.26,.57H138.4c2.04,0,3.69,1.66,3.69,3.69V23.83c0,2.04-1.66,3.69-3.69,3.69H4.26c-2.04,0-3.69-1.65-3.69-3.69V4.26C.57,2.22,2.22,.57,4.26,.57Z"/><path class="k" d="M4.26,.57H138.4c2.04,0,3.69,1.66,3.69,3.69V23.83c0,2.04-1.66,3.69-3.69,3.69H4.26c-2.04,0-3.69-1.65-3.69-3.69V4.26C.57,2.22,2.22,.57,4.26,.57Z"/><path class="j" d="M10.02,18.95c9.02,0,120.61-5.34,129.88-5.34,.26,0,.52,0,.77,.01V4.26c0-1.25-1.02-2.27-2.27-2.27H4.26c-1.25,0-2.27,1.02-2.27,2.27v13.56c2.59,.66,5.37,1.13,8.03,1.13Z"/><path class="e" d="M138.4,1.99H4.26c-1.25,0-2.27,1.02-2.27,2.27v1c0-1.25,1.02-2.27,2.27-2.27H138.4c1.25,0,2.27,1.02,2.27,2.27v-1c0-1.25-1.02-2.27-2.27-2.27Z"/><rect class="i" width="142.66" height="28.09" rx="4.26" ry="4.26"/></g><g><path class="e" d="M21.6,16.16c-.43,.37-1.2,1.17-1.2,1.67,0,1.11,2.1,1.11,2.75,1.11,2.09,0,4.16-.32,6.16-.92,.01,.38,.05,1.23,.4,2.61-1.18,.34-3.35,.71-6.01,.71-2.4,0-3.35-.26-4.1-.57-.49-.2-1.95-.92-1.95-2.47s1.6-3.03,2.23-3.6l1.72,1.46Zm6.45-5.06c-1.43,.57-3.03,1.52-3.87,2.5-.55-.48-1.14-.97-1.61-1.32,.57-.52,.71-.63,1.15-1-.95,.08-3.53,.21-4.84,.18l-.12-2.57c.92,.15,2.81,.2,3.83,.2,1.94,0,3.63-.26,4.29-.35l1.18,2.35Zm.68-2.4c.42,.38,1.06,1.11,1.4,1.61-.23,.23-.43,.42-.91,1.11-.65-.83-.74-.92-1.47-1.71l.98-1.01Zm1.18-1.31c.23,.21,.68,.62,1.44,1.51-.4,.34-.74,.71-.98,1.04-.32-.45-.98-1.18-1.34-1.51l.88-1.04Z"/><path class="e" d="M38.08,18.4h-.61c.31,1.12,.83,2.03,1.04,2.38-.43,.21-1.03,.58-1.57,.97-.48-.86-.86-2.01-.95-2.44h-.14c-.17,.46-.71,1.83-1.14,2.58-.84-.4-1.21-.52-1.94-.65,.52-.77,1.01-1.58,1.4-2.84h-.51V8.36h4.47v9.88h.72v-3.49h2.89v-.46h-3.36v-1.52h1.77v-.57h-1.31v-1.29h1.31v-.52h-1.67v-1.55h1.67v-.83l2.11,.14c.11,0,.2,.08,.2,.15,0,.17-.23,.25-.34,.29v.25h1.03v-.81l2.11,.09c.17,0,.25,.12,.25,.18,0,.18-.22,.25-.38,.26v.28h1.78v1.55h-1.78v.52h1.15v1.29h-1.15v.57h2.06v1.52h-3.58v.46h2.92v3.49h.83v1.49h-.83v.8c0,.69,0,1.64-2.74,1.48-.05-.69-.14-1.08-.41-1.78,.18,.03,.66,.09,.81,.09,.32,0,.34-.14,.34-.58h-3.66v2.27h-2v-2.34h-.78v-1.26Zm-.74,0h-2.41l1.09,.49c.08,.03,.11,.06,.17,.09l1.15-.58Zm-1.01-7.13v-1.09h-.84v1.09h.84Zm-.84,1.55v1.09h.84v-1.09h-.84Zm0,2.66v1.15h.84v-1.15h-.84Zm6.27,1.15v-.57h-.89v.57h.89Zm0,1.6v-.58h-.89v.58h.89Zm.37-7.85v.52h1.03v-.52h-1.03Zm0,1.81v.57h1.03v-.57h-1.03Zm2.4,4.44v-.57h-.92v.57h.92Zm0,1.6v-.58h-.92v.58h.92Z"/><path class="e" d="M56.43,11.34c-.01-.52-.01-.66-.03-1.01h-3.37v-2.26h5.87c-.02,.4-.11,2.17-.11,2.52,0,4.67,2.49,7.93,5.64,9.87-.91,.52-1.48,.97-2.01,1.67-1.91-1.32-4.69-4.21-5.56-7.74-.51,1.72-1.71,4.9-5.81,7.76-.68-.83-1.08-1.21-1.89-1.72,4.72-3.03,5.53-6.28,5.95-9.33l1.32,.25Z"/><path class="e" d="M70.36,9.11c.12,.05,.2,.11,.2,.21,0,.18-.29,.21-.43,.23-.92,3.17-.92,5.44-.92,5.92,0,.77,.06,1.12,.11,1.54,.2-.29,.52-.78,.72-1.09,.31,.58,.66,1.06,1.11,1.52-.31,.45-1.29,1.94-1.28,3.76l-2.06,.38c-.21-.74-.83-2.92-.83-6.19,0-1.57,.17-4.33,.92-7.04l2.46,.75Zm7.3-.34c.08,.01,.2,.03,.2,.17,0,.18-.22,.23-.35,.25-.05,.34-.11,.77-.15,1.84,1.2-.21,1.72-.38,2.27-.57v2.32c-.35,.09-1.06,.26-2.33,.49,0,1.52,.15,3.01,.25,3.53,1.18,.4,2.35,1.03,2.92,1.58-.25,.45-.71,1.44-1.04,2.17-.49-.48-1-.89-1.64-1.17-.06,1.97-2.03,2.2-3,2.2-2.3,0-3.46-1.26-3.46-2.69,0-1.83,1.81-2.52,3.81-2.47-.12-1.75-.14-1.95-.17-2.84-.88,.08-1.51,.08-1.77,.08-.49,0-.81-.02-1.14-.05v-2.41c.55,.06,1.34,.17,2.89,.11,0-.65,0-2,.02-3l2.7,.46Zm-3.18,9.53c-.34,0-1.08,.11-1.08,.58,0,.4,.51,.57,1,.57,.12,0,1.04,0,1.04-.75,0-.08,0-.14-.03-.2-.18-.08-.46-.2-.94-.2Z"/><path class="e" d="M87.97,16.01c-.83,.74-1.38,1.58-1.38,1.94,0,.26,.2,.43,.31,.49,.57,.31,2.34,.34,3.06,.34,3.24,0,5.19-.55,5.93-.77,.06,.83,.29,1.94,.45,2.55-2.1,.52-5.32,.61-6.51,.61-3.52,0-5.78-.65-5.78-2.98,0-1.32,1.08-2.49,2.29-3.52l1.64,1.34Zm7.34-5.36c-1.91,.75-3.3,1.64-4.84,3.04-.03-.03-.17-.18-1.37-1.54,.42-.28,.75-.57,1.09-.92-.38,.03-1.34,.09-2.73,.09-1.21,0-1.71-.06-2.08-.09l-.12-2.54c1.24,.26,3.32,.34,4.64,.34,2.43,0,3.72-.25,4.16-.34l1.25,1.95Z"/><path class="e" d="M107,8.39c.12,.03,.29,.09,.29,.25,0,.09-.08,.2-.34,.21-.34,1.04-.37,1.15-.45,1.38,1.71-.26,3.4-.58,5.01-1.21,.08,.51,.28,1.67,.43,2.29-1.89,.66-4.29,1.15-6.28,1.31-.37,1.01-.49,1.32-.8,2.07,1.25-.61,2.6-1.04,4-1.04,4.1,0,4.32,2.89,4.32,3.66,0,1.37-.74,2.47-1.64,3.1-.81,.55-2.35,1.48-6.61,1.48-.64,0-1.09-.05-1.43-.08-.11-.8-.29-1.52-.57-2.29,.45,.05,1.35,.14,2.29,.14,.35,0,2.98,0,4.56-.94,.81-.49,.83-1.17,.83-1.44,0-.89-.46-1.64-1.87-1.64s-3.52,.69-5.32,2.57l-2.21-1.11c1.11-1.66,1.94-4,2.04-4.32-1.34,.02-2.4-.05-2.98-.09l-.03-2.52c1,.25,1.88,.34,3.72,.34,.26-.95,.46-1.81,.58-2.72l2.46,.61Z"/><path class="e" d="M121.98,11.4c.11,.03,.23,.06,.23,.2,0,.18-.18,.2-.35,.21-.37,.69-.78,1.6-1.01,2.66,1.37-.94,3.15-1.43,4.49-1.43,2.64,0,3.93,1.95,3.93,3.78,0,2.94-2.77,4.95-7.85,4.95-.45,0-.83-.02-1.12-.03-.09-.84-.22-1.26-.72-2.58,.52,.12,1.06,.23,2.27,.23,3.49,0,4.87-1.31,4.87-2.6,0-.45-.22-1.57-1.8-1.57-2.2,0-3.8,1.41-4.9,2.52l-2.2-.8c.45-2.63,.91-4.3,1.61-6.36l2.55,.81Zm-.84-3.6c.54,.08,2.9,.43,5.16,1.71-.58,.81-.97,1.47-1.38,2.24-1.29-.91-3.17-1.58-4.58-1.89l.8-2.06Z"/></g></g></g></g></g></svg>