<?xml version="1.0" encoding="UTF-8"?><svg xmlns="http://www.w3.org/2000/svg" xmlns:xlink="http://www.w3.org/1999/xlink" viewBox="0 0 213.72 42.08"><defs><style>.e{fill:#fff;}.f{isolation:isolate;}.g{mix-blend-mode:color;}.g,.h{fill:#ffe200;}.i{fill:url(#d);}.j{fill:#fffcdb;}.k{fill:#d10000;}</style><linearGradient id="d" x1="106.86" y1="28.39" x2="106.86" y2="2.98" gradientTransform="matrix(1, 0, 0, 1, 0, 0)" gradientUnits="userSpaceOnUse"><stop offset="0" stop-color="#d0cb00"/><stop offset="1" stop-color="#fff67f"/></linearGradient></defs><g class="f"><g id="a"/><g id="b"><g id="c"><g><g><rect class="j" width="213.72" height="42.08" rx="6.38" ry="6.38"/><path class="j" d="M6.38,.85H207.34c3.05,0,5.53,2.48,5.53,5.53v29.31c0,3.05-2.48,5.53-5.53,5.53H6.38c-3.05,0-5.53-2.48-5.53-5.53V6.38C.85,3.33,3.33,.85,6.38,.85Z"/><path class="h" d="M6.38,.85H207.34c3.05,0,5.53,2.48,5.53,5.53v29.31c0,3.05-2.48,5.53-5.53,5.53H6.38c-3.05,0-5.53-2.48-5.53-5.53V6.38C.85,3.33,3.33,.85,6.38,.85Z"/><path class="i" d="M15.01,28.39c13.51,0,180.69-8,194.58-8,.39,0,.77,0,1.15,.02V6.38c0-1.88-1.53-3.4-3.4-3.4H6.38c-1.88,0-3.4,1.53-3.4,3.4V26.7c3.88,.99,8.04,1.69,12.04,1.69Z"/><path class="e" d="M207.34,2.98H6.38c-1.88,0-3.4,1.53-3.4,3.4v1.5c0-1.88,1.53-3.4,3.4-3.4H207.34c1.88,0,3.4,1.53,3.4,3.4v-1.5c0-1.88-1.53-3.4-3.4-3.4Z"/><rect class="g" width="213.72" height="42.08" rx="6.38" ry="6.38"/></g><g><path class="k" d="M28.07,23.71c-.67,.58-1.87,1.82-1.87,2.62,0,1.73,3.29,1.73,4.3,1.73,3.26,0,6.5-.5,9.62-1.44,.02,.6,.07,1.92,.62,4.08-1.85,.53-5.23,1.1-9.38,1.1-3.74,0-5.23-.41-6.41-.89-.77-.31-3.05-1.44-3.05-3.86s2.5-4.73,3.48-5.62l2.69,2.28Zm10.08-7.9c-2.23,.89-4.73,2.38-6.05,3.91-.86-.74-1.78-1.51-2.52-2.06,.89-.82,1.1-.98,1.8-1.56-1.49,.12-5.52,.34-7.56,.29l-.19-4.01c1.44,.24,4.39,.31,5.98,.31,3.02,0,5.66-.41,6.7-.55l1.85,3.67Zm1.06-3.74c.65,.6,1.66,1.73,2.18,2.52-.36,.36-.67,.65-1.42,1.73-1.01-1.3-1.15-1.44-2.3-2.66l1.54-1.58Zm1.85-2.04c.36,.34,1.06,.96,2.26,2.35-.62,.53-1.15,1.1-1.54,1.63-.5-.7-1.54-1.85-2.09-2.35l1.37-1.63Z"/><path class="k" d="M53.82,27.22h-.96c.48,1.75,1.3,3.17,1.63,3.72-.67,.34-1.61,.91-2.45,1.51-.74-1.34-1.34-3.14-1.49-3.82h-.22c-.26,.72-1.1,2.86-1.78,4.03-1.32-.62-1.9-.82-3.02-1.01,.82-1.2,1.58-2.47,2.18-4.44h-.79V11.52h6.98v15.43h1.13v-5.45h4.51v-.72h-5.26v-2.38h2.76v-.89h-2.04v-2.02h2.04v-.82h-2.62v-2.42h2.62v-1.3l3.29,.22c.17,0,.31,.12,.31,.24,0,.26-.36,.38-.53,.46v.38h1.61v-1.27l3.29,.14c.26,0,.38,.19,.38,.29,0,.29-.34,.38-.6,.41v.43h2.78v2.42h-2.78v.82h1.8v2.02h-1.8v.89h3.22v2.38h-5.59v.72h4.56v5.45h1.3v2.33h-1.3v1.25c0,1.08,0,2.57-4.27,2.3-.07-1.08-.22-1.68-.65-2.78,.29,.05,1.03,.14,1.27,.14,.5,0,.53-.22,.53-.91h-5.71v3.55h-3.12v-3.65h-1.22v-1.97Zm-1.15,0h-3.77l1.71,.77c.12,.05,.17,.1,.26,.14l1.8-.91Zm-1.58-11.14v-1.7h-1.32v1.7h1.32Zm-1.32,2.42v1.7h1.32v-1.7h-1.32Zm0,4.15v1.8h1.32v-1.8h-1.32Zm9.79,1.8v-.89h-1.39v.89h1.39Zm0,2.5v-.91h-1.39v.91h1.39Zm.58-12.26v.82h1.61v-.82h-1.61Zm0,2.83v.89h1.61v-.89h-1.61Zm3.74,6.94v-.89h-1.44v.89h1.44Zm0,2.5v-.91h-1.44v.91h1.44Z"/><path class="k" d="M82.5,16.18c-.02-.82-.02-1.03-.05-1.58h-5.26v-3.53h9.17c-.02,.62-.17,3.38-.17,3.94,0,7.3,3.89,12.39,8.81,15.41-1.42,.82-2.3,1.51-3.14,2.62-2.98-2.06-7.32-6.58-8.69-12.1-.79,2.69-2.67,7.66-9.07,12.12-1.06-1.3-1.68-1.9-2.95-2.69,7.37-4.73,8.64-9.82,9.29-14.57l2.06,.38Z"/><path class="k" d="M104.27,12.7c.19,.07,.31,.17,.31,.34,0,.29-.46,.34-.67,.36-1.44,4.94-1.44,8.5-1.44,9.24,0,1.2,.1,1.75,.17,2.4,.31-.46,.82-1.22,1.13-1.7,.48,.91,1.03,1.66,1.73,2.38-.48,.7-2.02,3.02-1.99,5.88l-3.22,.6c-.34-1.15-1.3-4.56-1.3-9.67,0-2.45,.26-6.77,1.44-10.99l3.84,1.18Zm11.4-.53c.12,.02,.31,.05,.31,.26,0,.29-.34,.36-.55,.38-.07,.53-.17,1.2-.24,2.88,1.87-.34,2.69-.6,3.55-.89v3.62c-.55,.14-1.66,.41-3.65,.77,0,2.38,.24,4.7,.38,5.52,1.85,.62,3.67,1.61,4.56,2.47-.38,.7-1.1,2.26-1.63,3.38-.77-.74-1.56-1.39-2.57-1.82-.1,3.07-3.17,3.43-4.68,3.43-3.6,0-5.4-1.97-5.4-4.2,0-2.86,2.83-3.94,5.95-3.86-.19-2.74-.22-3.05-.26-4.44-1.37,.12-2.35,.12-2.76,.12-.77,0-1.27-.02-1.78-.07v-3.77c.86,.1,2.09,.26,4.51,.17,0-1.01,0-3.12,.02-4.68l4.22,.72Zm-4.97,14.88c-.53,0-1.68,.17-1.68,.91,0,.62,.79,.89,1.56,.89,.19,0,1.63,0,1.63-1.18,0-.12,0-.22-.05-.31-.29-.12-.72-.31-1.46-.31Z"/><path class="k" d="M131.77,23.47c-1.3,1.15-2.16,2.47-2.16,3.02,0,.41,.31,.67,.48,.77,.89,.48,3.65,.53,4.78,.53,5.06,0,8.11-.86,9.26-1.2,.1,1.3,.46,3.02,.7,3.98-3.29,.82-8.3,.96-10.18,.96-5.5,0-9.02-1.01-9.02-4.66,0-2.06,1.68-3.89,3.58-5.5l2.57,2.09Zm11.47-8.38c-2.98,1.18-5.16,2.57-7.56,4.75-.05-.05-.26-.29-2.14-2.4,.65-.43,1.18-.89,1.7-1.44-.6,.05-2.09,.14-4.27,.14-1.9,0-2.67-.1-3.24-.14l-.19-3.96c1.94,.41,5.18,.53,7.25,.53,3.79,0,5.81-.38,6.5-.53l1.94,3.05Z"/><path class="k" d="M161.51,11.57c.19,.05,.46,.14,.46,.38,0,.14-.12,.31-.53,.34-.53,1.63-.58,1.8-.7,2.16,2.66-.41,5.3-.91,7.82-1.9,.12,.79,.43,2.62,.67,3.58-2.95,1.03-6.7,1.8-9.82,2.04-.58,1.58-.77,2.06-1.25,3.24,1.94-.96,4.06-1.63,6.24-1.63,6.41,0,6.75,4.51,6.75,5.71,0,2.14-1.15,3.86-2.57,4.85-1.27,.86-3.67,2.3-10.32,2.3-1.01,0-1.7-.07-2.23-.12-.17-1.25-.46-2.38-.89-3.58,.7,.07,2.11,.22,3.58,.22,.55,0,4.66,0,7.13-1.46,1.27-.77,1.3-1.82,1.3-2.26,0-1.39-.72-2.57-2.93-2.57s-5.5,1.08-8.3,4.01l-3.46-1.73c1.73-2.59,3.02-6.24,3.19-6.75-2.09,.02-3.74-.07-4.66-.14l-.05-3.94c1.56,.38,2.93,.53,5.81,.53,.41-1.49,.72-2.83,.91-4.25l3.84,.96Z"/><path class="k" d="M184.91,16.27c.17,.05,.36,.1,.36,.31,0,.29-.29,.31-.55,.34-.58,1.08-1.22,2.5-1.58,4.15,2.14-1.46,4.92-2.23,7.01-2.23,4.13,0,6.14,3.05,6.14,5.9,0,4.58-4.32,7.73-12.27,7.73-.7,0-1.3-.02-1.75-.05-.14-1.32-.34-1.97-1.13-4.03,.82,.19,1.66,.36,3.55,.36,5.45,0,7.61-2.04,7.61-4.06,0-.7-.34-2.45-2.81-2.45-3.43,0-5.93,2.21-7.66,3.94l-3.43-1.25c.7-4.1,1.42-6.72,2.52-9.94l3.98,1.27Zm-1.32-5.62c.84,.12,4.54,.67,8.06,2.66-.91,1.27-1.51,2.3-2.16,3.5-2.02-1.42-4.94-2.47-7.15-2.95l1.25-3.22Z"/></g></g></g></g></g></svg>