<?xml version="1.0" encoding="UTF-8"?><svg xmlns="http://www.w3.org/2000/svg" viewBox="0 0 326 427"><defs><style>.e{stroke:#d10000;stroke-miterlimit:10;stroke-width:3.94px;}.e,.f{fill:#d10000;}.g{fill:#fff;}</style></defs><g id="a"/><g id="b"/><g id="c"><g><g><g><path class="f" d="M248.15,19.16c3.34-.22,9.77,.43,15.32,7.33,5.37,6.68,6.79,11.89,7.35,18.13,.7,7.81,.11,13.14-1.98,17.85-.8,1.81-1.81,3.39-2.78,4.92-1.57,2.47-3.05,4.81-3.5,7.77-.26,1.71-.38,3.3-.48,4.84-.18,2.5-.34,4.86-1.15,7.28-1.5,4.51-4.37,7.03-8.77,7.71-.67,.1-1.13,.73-1.02,1.4,.09,.61,.61,1.04,1.21,1.04,.06,0,.12,0,.19-.01,5.33-.82,8.94-3.97,10.72-9.36,.9-2.72,1.08-5.23,1.27-7.88,.1-1.49,.21-3.03,.46-4.64,.38-2.45,1.66-4.48,3.15-6.83,1.02-1.61,2.07-3.26,2.95-5.24,2.27-5.12,2.92-10.82,2.18-19.07-.6-6.69-2.13-12.28-7.88-19.45-4.56-5.67-10.89-8.68-17.39-8.24-.67,.04-1.19,.63-1.14,1.3,.04,.67,.63,1.19,1.3,1.14Z"/><path class="f" d="M253.45,33.07c-.56-.38-1.32-.24-1.7,.32-4.1,5.99-15.71,11.9-23.9,12.17-.68,.02-1.21,.59-1.18,1.26,.02,.66,.57,1.18,1.22,1.18h.04c1.32-.04,2.72-.22,4.15-.51,.12,.09,.26,.16,.42,.19,1.21,.2,2.34,.53,3.19,.94,.13,.06,.26,.09,.4,.09,.34,0,.67-.19,.83-.52,.22-.46,.03-1.01-.43-1.23-.27-.13-.57-.25-.89-.37,7.32-2.27,14.84-6.96,18.17-11.82,.38-.56,.24-1.32-.32-1.7Z"/><path class="f" d="M213.55,97.56c.27,0,.54-.09,.77-.27,.53-.42,.61-1.2,.18-1.72-6.2-7.67-8.52-15.58-7.3-24.87,.71-5.39,3.23-10.43,5.26-14.49l.13-.26c1.59-3.18,2.39-7.28,3.24-11.63,.31-1.56,.62-3.18,.98-4.81,1.24-5.6,6.57-12.57,10.99-16.07,3.48-2.76,10.85-6.56,15.77-5.02,.65,.2,1.33-.16,1.53-.8,.2-.65-.16-1.33-.8-1.53-5.87-1.83-13.99,2.24-18.02,5.43-4.7,3.72-10.45,11.1-11.87,17.46-.37,1.66-.69,3.3-1,4.87-.82,4.18-1.59,8.13-3.03,11.01l-.13,.26c-2.11,4.22-4.73,9.46-5.49,15.27-1.31,10,1.18,18.49,7.83,26.72,.24,.3,.6,.45,.95,.45Z"/><path class="f" d="M288.07,126c.31,0,.61-.16,.78-.44,2.4-3.91,3.51-8.38,3.55-11.07,0-.51-.4-.92-.9-.93h-.01c-.5,0-.91,.4-.92,.9-.04,2.44-1.07,6.52-3.28,10.14-.27,.43-.13,1,.3,1.26,.15,.09,.32,.14,.48,.14Z"/><path class="f" d="M246.69,96.78c2.11,3.18,6.57,5.28,10.88,7.32l.54,.25c.17,.08,.35,.12,.52,.12,.46,0,.9-.26,1.11-.7,.29-.61,.03-1.34-.58-1.63l-.54-.25c-4.01-1.89-8.15-3.85-9.88-6.46-1.48-2.22-1.69-4.6-.61-6.89,.02-.03,.02-.07,.04-.11,2.22-1.23,4.19-2.67,5.34-4.03,2.99-3.52,4.14-5.67,5.89-9.97,1.19-2.94,2.55-8.32,3.2-11.57,.34,.34,.68,.68,1.03,1,.24,.22,.53,.32,.83,.32,.33,0,.66-.13,.9-.39,.46-.5,.43-1.27-.07-1.73-4.62-4.26-7.84-10.18-9.31-14.3-1.65-4.61-1.65-5.84-1.65-8.53,0-.68-.55-1.22-1.22-1.22s-1.22,.55-1.22,1.22c0,2.8,0,4.34,1.79,9.35,1.22,3.41,3.56,7.97,6.86,11.98-.02,.05-.03,.11-.04,.16-.34,2.38-1.99,9.42-3.36,12.78-1.67,4.1-2.69,6.02-5.49,9.3-2.08,2.44-7.72,5.43-11.61,6.14-3.97,.73-7.31,1.01-10.65,0-3.56-1.06-5.29-2.12-7.4-4.54-1.98-2.26-3.87-5.96-5.19-10.14-1.11-3.53-1.29-10.06-.37-13.45,.95-3.47,1.92-6.45,5-10.55,2.26-3.01,6.01-6.31,10.76-10.5,1.23-1.08,2.52-2.22,3.87-3.42,.5-.45,.55-1.22,.1-1.73-.45-.5-1.23-.55-1.73-.1-1.34,1.2-2.63,2.33-3.85,3.41-4.86,4.28-8.69,7.66-11.1,10.87-3.34,4.44-4.42,7.78-5.4,11.38-1.14,4.17-.73,11.27,.4,14.83,.83,2.64,2.68,7.58,5.68,11.01,.25,.29,.5,.56,.75,.82-1.08,4.48-2.02,7.81-4.17,9.82-1.96,1.84-5.13,4.43-9.99,5.7-.65,.17-1.05,.84-.87,1.5,.14,.55,.64,.91,1.18,.91,.1,0,.21-.01,.31-.04,5.39-1.41,8.88-4.26,11.04-6.28,2.41-2.26,3.5-5.51,4.57-9.78,1.69,1.24,3.45,1.94,5.72,2.62,1.81,.54,3.61,.74,5.38,.74,2.19,0,4.34-.31,6.41-.69,1.45-.27,3.06-.79,4.67-1.46-.41,2.33,.11,4.7,1.56,6.87Z"/><circle class="f" cx="228.91" cy="54.83" r="2.29"/><path class="f" d="M245.78,60.25c0,1.26,1.02,2.29,2.29,2.29s2.29-1.02,2.29-2.29-1.02-2.29-2.29-2.29-2.29,1.02-2.29,2.29Z"/><path class="f" d="M223.91,72.04c-.27,.43-.14,1,.29,1.27,.47,.29,.98,.58,1.53,.86,.52,2.36,2.07,5.37,6.54,6.4,1.15,.27,2.15,.4,3.04,.4,2.3,0,3.99-.85,6.19-2.4,.04-.03,.08-.06,.11-.1,.48,.06,.97,.12,1.49,.18,.04,0,.07,0,.11,0,.46,0,.86-.34,.91-.81,.06-.5-.3-.96-.81-1.02-3.93-.46-6.69-.88-10.01-1.8-3.46-.96-6.19-2.06-8.14-3.27-.43-.27-1-.14-1.27,.29Zm14.97,6.04c-1.8,1.05-3.35,1.35-6.19,.69-2.29-.53-3.85-1.74-4.68-3.59,1.42,.57,3.03,1.11,4.81,1.6,2.11,.58,3.99,.97,6.06,1.29Z"/><path class="f" d="M233.95,68.01c.3,0,.59-.14,.76-.41,.92-1.38,2.46-5.87,2.77-7.33,.11-.5-.21-.98-.71-1.09-.49-.1-.98,.21-1.09,.71-.31,1.43-1.8,5.62-2.51,6.69-.28,.42-.17,.99,.25,1.27,.16,.1,.33,.15,.51,.15Z"/><path class="f" d="M253.9,56.68c.18,.24,.45,.36,.73,.36,.19,0,.39-.06,.55-.19,.4-.31,.48-.88,.18-1.29-1.87-2.47-5.61-4.46-8.14-4.95-.5-.1-.98,.23-1.08,.73-.1,.5,.23,.98,.73,1.08,2.14,.42,5.44,2.16,7.03,4.26Z"/><path class="f" d="M209.33,70.82c-.51-.03-.94,.35-.97,.86-.21,3.37,2.36,14.07,7.38,19.09,.18,.18,.41,.27,.65,.27s.47-.09,.65-.27c.36-.36,.36-.94,0-1.3-4.58-4.58-7.03-14.65-6.84-17.68,.03-.51-.35-.94-.86-.97Z"/><path class="f" d="M268.38,54.07s.06,0,.1,0c.5-.05,.87-.5,.82-1.01-.99-9.63-4.48-17.88-7.5-21.8-.31-.4-.89-.48-1.29-.17-.4,.31-.48,.89-.17,1.29,2.86,3.71,6.17,11.59,7.13,20.86,.05,.47,.45,.82,.91,.82Z"/></g><path class="f" d="M277.01,152l.16-.33c2.2-4.57,3.25-10.24,4.19-15.24,.14-.77,.28-1.52,.43-2.25,.5-2.6,.84-7.04,.47-10.14-.18-1.49-.55-3.49-.92-5.42-.33-1.74-.64-3.38-.73-4.32-.22-2.15,.18-3.98,.96-4.46,1.4-.85,2.77-1.8,4.2-2.89,1.14-.88,1.98-1.2,2.88-1.11,.04,.01,.07,.03,.11,.04,1.33,.3,4.48,1.23,5.62,1.62,.32,.11,.5,.36,.59,.55,.15,.33,.17,.72,.05,1.05-.5,1.34-1.37,2.07-2.65,2.23-2.67,.35-4.64,.04-5.84-.92-.4-.32-.97-.25-1.29,.14-.32,.4-.25,.97,.14,1.29,.53,.42,1.14,.75,1.83,.99-.6,.77-.99,1.18-1.62,1.38-.48,.15-.75,.67-.6,1.15,.12,.39,.49,.64,.87,.64,.09,0,.19-.01,.28-.04,1.31-.42,2.01-1.34,2.82-2.41l.23-.3c.37,.04,.75,.06,1.16,.06,.7,0,1.44-.05,2.24-.16,1.19-.16,2.18-.65,2.94-1.45,.13,.12,.28,.23,.44,.34-.14,.13-.28,.25-.41,.37-.27,.25-.5,.46-.68,.61-.73,.64-2.45,2.13-1.26,3.96,.54,.83,1.52,1.28,2.66,1.28,.55,0,1.13-.1,1.72-.32,1.35-.49,2.43-1.11,3.92-2.26,1.29-.25,2.31-.6,3.3-1.11,.45-.23,.62-.79,.39-1.24-.23-.45-.79-.63-1.24-.39-.87,.45-1.8,.75-3,.97-.15,.03-.28,.09-.4,.18-1.44,1.13-2.38,1.68-3.59,2.12-.95,.34-1.91,.24-2.22-.23-.13-.21-.32-.49,.92-1.57,.18-.16,.43-.38,.71-.64,.87-.79,2.17-1.98,3.12-2.59,1.47-.94,3.67-2.09,4.49-2.24,.1-.02,.27,.01,.47,.1,.08,.23,.22,.44,.43,.6,.47,.35,.77,.76,.86,1,.29,.81,.63,2.48,.66,4.48,.02,1.66-.51,3.06-1.62,4.29-1.32,1.45-2.49,3.01-3.85,4.82l-.79,1.05c-1.18,1.56-2.66,3.68-3.67,6.29-.97,2.5-1.92,5.55-2.72,8.21-.42,1.38-1.78,7.68-3.27,14.61h2.5c1.4-6.51,2.73-12.65,3.11-13.9,.79-2.62,1.72-5.62,2.66-8.04,.7-1.81,1.73-3.57,3.34-5.7l.8-1.06c1.32-1.76,2.46-3.28,3.7-4.64,1.53-1.68,2.29-3.69,2.26-5.97-.03-1.92-.33-3.94-.8-5.26-.16-.45-.45-.91-.83-1.33,.13-.28,.26-.57,.39-.86,.53-1.17,1.13-2.5,1.55-3.19,.39-.64,1.58-2.58,.39-5.01-.19-.38-.45-.75-.75-1.08,.76-1.03,1.84-2.14,2.66-2.98,.23-.23,.44-.45,.62-.64,.96-1.01,1.59-1.64,2.26-2.31,.41-.41,.83-.83,1.36-1.37,.46-.47,1.94-2.14,1.87-4.09-.03-.92-.41-1.73-1.1-2.34-.96-.85-3.1-1.82-6.73,1.33-1.5,1.3-2.9,2.72-4.53,4.59-.89,1.02-2.69,2.96-4.27,4.68-1.1,1.18-2.09,2.26-2.61,2.84-1.16,1.29-1.5,1.15-1.62,1.13-.11-.26,.11-1.34,.18-1.69l.09-.42c.35-1.71,.84-4.06,1.16-5.72,.09-.49,.19-1.02,.29-1.59,.28-1.58,.61-3.36,1.09-5.36,.44-1.82,.34-3.25-.32-4.24-.48-.72-1.22-1.18-2.15-1.32-2.05-.32-3.58,.9-4.55,3.65-.6,1.71-1.28,4.11-1.91,6.75-.34,1.42-.67,3.5-.99,5.52-.26,1.63-.5,3.18-.71,4.04-.35,1.51-.8,2.72-1.24,3.9-.09,.25-.18,.49-.27,.73-1.46,.16-2.64,.9-3.54,1.6-1.35,1.04-2.65,1.94-3.98,2.74-2.4,1.46-2.29,5.24-2.13,6.8,.11,1.04,.43,2.73,.76,4.52,.36,1.89,.73,3.84,.89,5.25,.34,2.85,.02,6.97-.45,9.38-.14,.73-.28,1.49-.43,2.27-.91,4.85-1.93,10.35-3.99,14.63l-.16,.33c-.55,1.14-1.1,2.29-1.67,3.44h2.72c.39-.8,.77-1.59,1.15-2.38Zm28.81-45.39c-.11,.24-.21,.46-.31,.69-.28-.11-.59-.18-.91-.2,.41-.35,.87-.71,1.52-1.21,.02-.01,.03-.03,.05-.04-.12,.25-.23,.51-.35,.76Zm1.7-3.46c-.32,.52-.67,1.24-1.04,2.03,0-.2-.05-.41-.19-.58-.31-.4-.89-.48-1.29-.17-1.3,1-1.89,1.5-2.77,2.33-.3,.29-.65,.65-1.02,1.03-.36,.37-.73,.75-1.09,1.1-.01,.01-.02,.03-.03,.04-.49,.28-.9,.53-1.15,.69-.41,.26-.85,.6-1.29,.96-.44,.1-.68-.01-1.09-.45,.06-.13,.12-.25,.17-.39,.22-.58,.25-1.22,.11-1.82,0-.01,.02-.03,.03-.04,.56-1.03,1.9-2.77,3.76-4.9,1.06-1.21,2.24-2.32,3.53-3.31,.51-.39,1.85-.49,2.88-.03,.02,0,.03,0,.05,.02,.31,.24,.57,.54,.71,.83,.43,.88,.35,1.63-.28,2.66Zm-17.14,.39c.44-1.19,.95-2.53,1.33-4.2,.22-.95,.47-2.54,.74-4.21,.3-1.88,.64-4.01,.95-5.34,.61-2.57,1.26-4.88,1.84-6.5,.78-2.22,1.5-2.1,1.85-2.05,.36,.06,.45,.2,.49,.26,.09,.14,.37,.72-.02,2.31-.5,2.07-.85,3.97-1.12,5.5-.1,.56-.2,1.09-.29,1.56-.32,1.65-.8,3.99-1.15,5.69l-.09,.42c-.29,1.43-.74,3.59,1.29,4.43,1.83,.75,3.3-.53,4.37-1.74,.52-.58,1.5-1.64,2.58-2.81,1.6-1.73,3.41-3.69,4.32-4.73,1.58-1.81,2.86-3.11,4.29-4.35,1.23-1.07,2.8-1.98,3.5-1.35,.19,.17,.27,.35,.28,.6,.02,.63-.45,1.56-1.18,2.3-.52,.53-.94,.95-1.34,1.35-.68,.68-1.32,1.32-2.3,2.36-.17,.18-.38,.39-.6,.62-1.03,1.06-2.44,2.51-3.33,3.88-.02,.04-.04,.07-.06,.11-1.27-.27-2.77-.16-3.72,.57-1.38,1.06-2.66,2.26-3.79,3.55-1.15,1.31-2.58,3.03-3.5,4.43-.24-.18-.49-.34-.78-.44-.97-.33-3.28-1.03-4.88-1.44,.09-.25,.19-.51,.29-.78Z"/><path class="f" d="M181.96,137.41c1.87-8.51,2.93-11.39,5.49-17.47,1.66-3.94,3.84-7.66,5.69-9.72,1.32-1.47,5.1-4.24,9.27-6.49v.02c-.85,2.78-.49,6.14,.91,8.56,2.24,3.85,7.02,5.94,14.61,6.38,.86,.05,1.72,.07,2.58,.07,8.35,0,16.55-2.21,20.93-3.61,5.81-1.87,18.94-6.81,23-10.22l.54,.28c3.83,2,8.17,4.27,10.9,6.3,.22,.16,.47,.24,.73,.24,.37,0,.74-.17,.98-.49,.4-.54,.29-1.31-.25-1.71-2.89-2.15-7.32-4.46-11.23-6.5l-1.32-.69s-.06-.02-.09-.04c-.04-.02-.08-.04-.13-.05-.04-.01-.09-.02-.13-.03-.03,0-.07-.02-.1-.02-.05,0-.09,0-.14,0-.03,0-.07,0-.1,0-.04,0-.08,.01-.12,.02-.04,0-.07,.01-.11,.02-.04,.01-.07,.03-.11,.04-.04,.02-.08,.03-.11,.05-.04,.02-.07,.04-.1,.07-.03,.02-.07,.04-.1,.06-.04,.03-.07,.07-.1,.1-.02,.02-.04,.04-.06,.06-2.1,2.48-14.58,7.6-22.6,10.17-4.67,1.5-13.82,3.94-22.61,3.43-6.71-.39-10.85-2.08-12.64-5.17-1.08-1.86-1.35-4.45-.69-6.62,.42-1.37,1.17-2.38,2.11-2.84,.02-.01,.04-.03,.07-.04,.04-.02,.07-.04,.11-.07,.03-.02,.06-.05,.09-.07,.03-.03,.06-.05,.09-.08,.03-.03,.05-.06,.08-.09,.02-.03,.05-.06,.07-.1,.02-.03,.04-.07,.06-.1,.02-.04,.03-.07,.05-.11,.01-.04,.02-.07,.04-.11,.01-.04,.02-.08,.03-.12,0-.04,.01-.08,.01-.12,0-.04,0-.08,0-.12,0-.04,0-.08,0-.12,0-.04,0-.08-.02-.12,0-.04-.02-.08-.03-.12,0-.02-.01-.05-.02-.08,0-.01-.01-.03-.02-.04,0-.01,0-.03-.02-.04-.01-.02-.03-.04-.04-.07-.02-.04-.04-.07-.07-.11-.02-.03-.05-.06-.08-.1-.03-.03-.05-.06-.08-.08-.03-.03-.06-.06-.1-.08-.03-.02-.06-.04-.09-.06-.04-.02-.08-.04-.11-.06-.03-.02-.06-.03-.09-.04-.04-.02-.08-.03-.12-.04-.03,0-.07-.02-.1-.02-.04,0-.08-.01-.13-.01-.04,0-.07,0-.11,0-.04,0-.08,0-.13,0-.04,0-.08,0-.11,.02-.04,0-.08,.02-.12,.04-.02,0-.05,.01-.07,.02-5.61,2.25-12.31,6.71-14.55,9.2-2.02,2.25-4.37,6.24-6.13,10.41-2.62,6.23-3.71,9.18-5.62,17.89-.1,.47-2.22,10.21-2.57,17.49h2.46c.28-5.63,1.68-13.24,2.5-16.97Z"/><path class="f" d="M185.57,148.92c.98-3.76,2.35-7.42,3.68-10.95,.84-2.24,1.63-4.35,2.27-6.34,.15-.48-.11-1-.6-1.15-.48-.15-1,.11-1.15,.6-.62,1.94-1.4,4.03-2.24,6.25-1.34,3.58-2.73,7.28-3.74,11.13-.44,1.7-.56,3.75-.51,5.92h1.84c-.05-2.03,.06-3.93,.45-5.46Z"/><path class="f" d="M261.45,129.8c.15-.66-.26-1.32-.92-1.47-.66-.15-1.32,.26-1.47,.92-.9,3.94-1.83,15.67-2.18,25.13h2.44c.35-9.26,1.25-20.73,2.13-24.58Z"/></g><path class="f" d="M302.8,43.37c-.32,0-.63-.15-.82-.42-1.69-2.31-3.57-4.67-6.38-5.87-2.7-1.16-7.33,.86-10.1,2.06-.48,.21-1.03,.02-1.29-.42-.26-.45-.14-1.02,.27-1.33,3.71-2.75,5.9-5.63,6.17-8.1h0c.24-2.18-1.22-5.27-2.51-8l-.48-1.03c-.21-.46-.06-1.01,.37-1.28,.42-.28,.99-.2,1.32,.18,2.37,2.69,4.41,5.01,6.62,6.32,.79,.46,1.7,.97,2.64,1.17,1.07,.23,2.25,.07,3.29-.09,2.92-.46,6.36-1.44,10.2-2.91,.5-.19,1.05,.03,1.28,.5,.23,.47,.07,1.04-.38,1.32-3.63,2.25-6.14,4.22-8.22,7.64-.39,.64-1.08,1.98-1.36,3.76-.19,1.2,0,2.5,.24,4.3l.14,1.04c.06,.46-.2,.91-.63,1.08-.12,.05-.25,.07-.38,.07Zm-9.14-8.68c.97,0,1.89,.15,2.73,.52,2.03,.87,3.61,2.2,4.95,3.69-.06-.81-.05-1.57,.07-2.33,.32-2.03,1.06-3.57,1.63-4.51,1.07-1.77,2.26-3.19,3.61-4.45-1.58,.43-3.06,.76-4.44,.97-1.21,.19-2.62,.37-4.03,.07-1.24-.26-2.33-.87-3.26-1.41-1.04-.61-2.04-1.42-3.03-2.35,.57,1.61,.92,3.2,.76,4.62h0c-.23,2.14-1.46,4.14-2.92,5.83,1.36-.4,2.67-.65,3.91-.65Z"/></g><g><path class="f" d="M64.34,41.93l-33.46,6.3-.93-4.94c-2.73,2.61-6.77,5.69-8.55,7-2.09-3.32-7.41-7-8.99-7.97,16.3-10.07,21.98-21.15,23.57-25.02l12.45-1.16c.49-.02,1.46-.06,1.62,.81,.06,.34,.02,.49-.59,1.3,5.6,4.47,20.25,8.65,28.32,9.15-1.8,3.42-3.64,9.29-3.68,11.68-4.71-.86-6.18-1.22-10.8-2.73l1.04,5.54Zm-40.03,22.73l-2.01-10.68,46.24-8.71,5.69,2.36c-2.77,10.95-9.4,23.68-15.99,32.55-2.59-1.47-7.01-3.79-12-4.6,4.04-4.19,5.88-7.06,7.69-10.06,1.5-2.45,2.86-5.65,3.29-7.06l-32.92,6.2Zm30.35-31.34c-5.98-2.37-8.88-4.42-10.92-5.92-1.93,2.74-3.88,5.42-7.54,9.4l18.45-3.48Z"/><path class="f" d="M102.05,27.11c.47,0,.9,.06,.99,.56,.11,.58-.49,.84-.76,.89-.06,2.15-.11,3.37-.21,5.53,5.75-1.08,10.73,.17,12.8,11.17,.1,.54,1.99,10.56-.92,16.36-.91,1.85-2.47,3.44-6.65,4.23-2.74,.52-3.64,.41-4.35,.35-.5-2.88-1.38-5.6-2.42-8.15,2.77,.13,3.55,.08,4.27-.06,.45-.08,1.66-.31,2.12-1.61,1.15-3.29,.18-9.15,.04-9.92-.93-4.94-2.24-5.21-5.46-4.55-.72,9.02-2.58,17.93-5.98,26.29-3.11-1.7-7.23-2.59-8.11-2.8,2.5-5.03,5.25-13.6,6.23-20.53-3.48,1.77-5.29,3.04-6.1,3.66l-3.87-7.69c2.87-1.05,3.22-1.17,3.95-1.49,.86-.35,5.56-2.35,6.55-2.77,.08-2.06-.05-6.18-.68-9.78l8.57,.29Zm14.65,3.71c-.48-.56-2.88-2.71-4.45-3.86l3.16-2.97c2.78,1.94,4.25,3.53,4.94,4.23-1.23,1.12-1.75,1.59-3.11,3,2.05,1.52,9.31,8.16,10.2,12.92,.54,2.88-.32,5.73-6.68,8.24-.7-1.5-2.52-4.5-4.16-6.29,1.24-.33,2.48-.89,2.24-2.19-.32-1.71-2.8-5.24-7.34-9.08l5.2-4Zm3.14-10.22c1.49,.98,3.52,2.64,4.88,4.2-.27,.28-.39,.4-1.61,1.61-.28,.24-1.11,1.04-1.6,1.6-2.34-2.77-4.1-3.97-4.91-4.57l3.23-2.84Z"/><path class="f" d="M52.5,102.33l13.57-2.56,1.45,7.68-14.24,2.68c.13,3.42,.56,13.57-12.08,21.58-1.43-1.41-4.66-4.01-7.41-5.49,3.24-1.59,10.95-5.83,10.86-14.47l-16.53,3.11-1.45-7.68,17.12-3.22-.75-3.95c-1.31,.43-5.92,2.14-10.49,3.09-1.34-2.4-3.38-5.09-4.79-6.68,.59-.07,1.32-.16,2.4-.36,7.95-1.5,17.96-5.66,22.56-9.65l7.02,4.45c.31,.17,.43,.29,.47,.52,.11,.58-.46,.78-.68,.83s-.51,0-.98,0c-1.44,1.01-3,2.1-7.16,4.23l1.11,5.88Z"/><path class="f" d="M77,90.88l6.88-2.27c.52-.19,1.05-.34,1.16,.25,.08,.4-.35,.86-.58,1.13l2.36,5.88,11.25-4.49c1.13-.44,1.47-1.07,1.66-1.33l5.1,2.16c-.97,2.51-1.73,4.65-4.78,14.86-2.26-.88-5.66-1.63-6.87-1.87,.47-.97,1.31-2.67,2.24-5.91l-6.16,2.6,7.02,17.24-6.49,2.62-7.08-17.09-8.14,3.44-2.84-6.21,8.44-3.36-3.16-7.64Z"/><path class="f" d="M111.65,77.24c4.42,1.26,9.62,3.17,12.83,5.17-1.63,2.73-2.98,6.14-3.56,7.79-3.85-2.39-8.43-4.23-12.77-5.32l3.49-7.63Zm1.79,31.25c12.79-5.2,24.33-18.03,28.73-30.72,3.06,3.42,4.43,4.75,6.3,6.26-4.51,11.6-14.74,23.48-27.6,31.02,.05,.5,.08,1.19-.59,1.32-.45,.08-.7-.24-.94-.57l-5.89-7.31Z"/><path class="f" d="M154.28,78.79l-1.46-7.77,22.78-4.29c.36-.07,2.25-.42,3.28-1.13l4.64,2.89c-.5,1.03-.8,2.15-1.04,3.36-1.09,5.09-1.72,8.14-3.49,12.61,2.59,1.14,11.67,5.9,15.66,9.05-1.24,1.81-3.7,6.05-4.68,8-4.64-4.38-11.02-8.39-14.39-9.99-2.29,3.92-7.53,11.37-14.43,16.02-3.25-3.43-5.27-4.78-7.11-5.87,5.81-3.24,17.25-12.14,18.98-26.42l-18.73,3.53Z"/></g></g><g id="d"><g><path class="f" d="M19.69,348.7v-13.96h-4.66v-3.57c2.75-.08,4.72-.54,5.73-3.95h4.01v21.49h-5.07Z"/><path class="f" d="M38.96,337.52h-3.84v-3.57c-.22,.25-.38,.41-.71,.74-.79-.87-1.88-1.77-2.84-2.29,1.42-1.12,4.12-3.98,5.62-7.36l3.14,1.64c.14,.05,.41,.22,.41,.46,0,.33-.46,.38-.76,.35-.19,.35-.38,.71-1.09,1.77,.22,.08,.44,.16,.44,.3,0,.19-.16,.3-.35,.44v7.53Zm2.92,9.16c3.79-.65,4.09-.71,5.26-1.01-.27,.93-.41,2.48-.41,3.33-3.57,.95-8.89,1.75-10.63,1.99-.05,.3-.25,.66-.49,.66-.27,0-.35-.33-.44-.66l-.84-3.27c1.17-.08,1.36-.11,3.95-.46v-1.75c-2.43,1.06-3.52,1.36-4.17,1.53-.35-.95-1.14-2.4-2.43-3.27,2.89-.35,5.24-1.42,6.82-2.32h-6.35v-3.05h10.58v-3.33l4.23,.25c.11,0,.44,.05,.44,.35,0,.27-.27,.41-.57,.55v2.18h10.58v3.05h-2.59l1.36,1.01c.14,.08,.27,.22,.27,.44,0,.19-.19,.35-.38,.35-.14,0-.25,0-.44-.03-1.25,.95-1.96,1.47-2.97,2.13,.44,.25,2.4,1.39,4.69,1.99-.57,.76-1.34,1.85-2.02,3.3-1.36-.54-7.25-2.86-10.77-8.7-1.15,.87-2.21,1.5-2.67,1.77v2.97Zm8.83-18.32c-.98-.87-1.31-1.12-1.88-1.53l2.56-1.94c.82,.49,2.13,1.53,2.86,2.32-.63,.41-.98,.68-1.36,1.01l3.6-.22,.22,3.14-6.74,.41c1.55,2.78,3.44,2.84,3.68,2.84,.55,0,.93-.27,1.15-2.45,1.01,.93,2.13,1.55,2.95,1.66-.38,2.29-.74,4.34-3.65,4.34-2.59,0-6.33-2.24-8.23-6.11l-6,.35-.22-3.14,5.02-.3c-.49-1.64-.63-2.48-.74-3.25l3.93,.14c.25,0,.55,.03,.55,.33,0,.19-.14,.33-.35,.55,.08,.54,.11,.82,.52,1.99l2.15-.14Zm-2.45,13.09c.44,.52,.95,1.12,1.69,1.85,.95-.76,1.88-1.61,2.13-1.85h-3.82Z"/><path class="f" d="M69.2,339.07v-3.33h1.36c.52,0,3.76-.3,3.76-2.67s-2.43-2.26-3.25-2.26c-2.1,0-3.57,.33-3.63,2.7h-5.1c.6-5.13,4.2-6.9,8.92-6.9,5.1,0,8.02,2.35,8.02,5.84,0,3.3-2.26,4.2-3.33,4.63,1.25,.46,3.87,1.47,3.87,5.13,0,4.85-4.31,7.09-9.22,7.09s-8.59-2.18-8.97-7.77h5.13c.05,1.04,.25,3.68,3.9,3.68,.52,0,4.04-.08,4.04-3.05,0-1.75-1.23-3.08-3.9-3.08h-1.61Z"/><path class="f" d="M102.38,338.31c0,2.62-.63,10.99-9.08,10.99-3.95,0-6.08-1.91-7.2-3.52-1.42-2.07-1.91-5.81-1.91-8.18,0-2.62,.63-10.99,9.11-10.99,7.96,0,9.08,7.25,9.08,11.7Zm-13.12-.35c0,.9,0,7.23,4.04,7.23s4.01-6.3,4.01-7.23c0-1.01,0-7.23-4.01-7.23s-4.04,6.25-4.04,7.23Z"/><path class="f" d="M109.44,327.29c.52,1.45,.87,3.84,.93,5.24-.76,.08-2.1,.41-2.92,.65-.38-2.45-.49-3-1.15-5.29l3.14-.6Zm4.96,23.4h-3.9v-5.73c-.63,1.28-1.04,1.88-1.39,2.4-.74-1.04-1.66-1.88-2.75-2.84,1.83-2.1,3.05-4.61,3.79-7.36h-3.35v-3.38h3.71v-7.94l3.9,.19c.14,0,.46,.03,.46,.27,0,.19-.25,.33-.46,.46v4.72c.44-1.25,1.12-3.44,1.23-4.61l3.25,1.25c.27,.11,.49,.19,.49,.38,0,.27-.3,.27-.55,.27-.14,.33-.49,1.28-.74,1.91h4.2v-4.77l4.04,.22c.46,.03,.87,.05,.87,.3,0,.27-.33,.41-.68,.54v3.71h4.96v3.3h-13.61v-2.75c-.46,1.23-.68,1.66-.98,2.24-1.17-.66-1.47-.82-2.48-1.12v1.42h3.11v3.38h-3.08c.57,1.2,1.72,3.41,3.52,5.59-1.39,.98-2.15,1.91-2.48,2.32-.49-.76-.74-1.14-1.06-1.72v7.33Zm17.26-3.79v3.52h-14.89v-3.52h7.2c1.47-4.04,2.45-12.13,2.45-12.35l4.15,.74c.44,.08,.79,.16,.79,.46,0,.33-.49,.44-.93,.52-.05,.35-1.72,7.77-2.56,10.63h3.79Zm-9.52-12.19c.98,6.19,1.09,6.87,1.42,11.04-1.06,.08-2.86,.44-4.04,.85-.08-2.45-.3-6.3-1.34-11.26l3.95-.63Z"/><path class="f" d="M148.32,331.85c-.03-.93-.03-1.17-.05-1.8h-5.97v-4.01h10.42c-.03,.71-.19,3.84-.19,4.47,0,8.29,4.42,14.07,10.01,17.51-1.61,.93-2.62,1.72-3.57,2.97-3.38-2.34-8.32-7.47-9.87-13.74-.9,3.05-3.03,8.7-10.31,13.77-1.2-1.47-1.91-2.15-3.35-3.05,8.37-5.37,9.82-11.15,10.55-16.55l2.34,.44Z"/><path class="f" d="M168.99,347.06l-2.7-2.7,6.41-6.41-6.41-6.41,2.7-2.7,6.41,6.41,6.41-6.41,2.7,2.7-6.41,6.41,6.41,6.41-2.7,2.7-6.41-6.41-6.41,6.41Z"/><path class="f" d="M196.61,348.7v-13.96h-4.66v-3.57c2.75-.08,4.72-.54,5.73-3.95h4.01v21.49h-5.07Z"/><path class="f" d="M215.39,326.53l4.44,.22c.27,0,.54,.03,.54,.3s-.33,.41-.54,.46v6l8.43-.98c.63-.08,1.34-.25,1.96-.52l2.84,2.59c-.35,.41-.98,1.2-1.23,1.5-.85,1.09-4.36,6.19-5.13,7.17-1.42-1.04-3.19-1.96-3.71-2.24,.65-.68,2.15-2.26,3.27-4.09l-6.43,.79v5.89c0,1.66,.52,2.07,2.7,2.07s6.84-.16,8.83-.49c-.25,.95-.52,3.05-.52,4.42-2.07,.05-7.47,.08-9.38,.08-5.32,0-6.08-2.1-6.08-5.56v-5.86l-5.92,.71-.38-4.2,6.3-.76v-7.5Z"/><path class="f" d="M242.15,332.53c.84,1.36,1.99,3.74,2.51,4.99-.68,.25-2.24,.87-3.46,1.69-.74-1.77-1.66-3.54-2.56-5.21l3.52-1.47Zm15.43,.44c.3,.08,.52,.16,.52,.41,0,.27-.38,.3-.52,.3-2.29,9.68-6.68,13.5-13.01,16.22-.33-.57-1.15-1.91-2.59-3.08,6.98-2.7,10.47-6.41,11.64-15.08l3.95,1.23Zm-9.87-1.69c.93,1.53,1.58,2.92,2.24,5.13-1.99,.74-2.64,1.01-3.44,1.42-.52-1.39-1.64-3.82-2.37-5.1l3.57-1.45Z"/><path class="f" d="M273.44,333.32c4.04,2.04,7.5,4.39,9.52,6.41-1.23,1.77-1.36,1.96-2.56,3.82-.9-.85-3.63-3.38-8.51-6.05v12.79h-4.61v-24.08l4.61,.22c.19,0,.52,.03,.52,.3s-.3,.38-.52,.44v8.34l1.55-2.18Z"/><path class="f" d="M298.8,326.94c.49,.11,.65,.16,.65,.46,0,.35-.35,.35-.71,.38-.14,.54-.76,2.84-.9,3.44,4.83-.19,6.46,2.81,6.46,8.1,0,.44,0,6.27-2.26,9.13-.6,.76-1.75,1.8-4.39,1.8-1.2,0-1.75-.16-2.32-.33,0-1.99-.03-2.34-.57-4.44,1.72,.46,2.29,.55,2.86,.55,2.24,0,2.54-4.91,2.54-7.63,0-1.09-.08-3.08-2.56-3.08-.27,0-.54,.03-.82,.05-1.39,5.18-3.44,10.17-6.22,14.75-.82-.68-1.77-1.31-3.93-2.18,2.24-3.38,4.44-7.5,5.75-11.62-1.69,.49-2.56,.85-3.87,1.47l-1.28-4.61c1.09-.11,2.29-.38,6.3-1.28,.49-2.4,.79-3.87,.82-6.08l4.44,1.12Zm7.01,3.3c1.72,1.72,3.35,3.6,4.42,5.26,1.01,1.55,1.31,2.45,1.31,3.41,0,2.04-2.37,2.92-4.01,3.54-.6-1.34-1.64-2.97-2.07-3.63,1.04-.33,1.39-.44,1.39-1.04,0-1.31-2.67-4.74-3.84-6l2.81-1.55Zm1.53-3.38c1.2,1.23,1.69,1.91,2.24,2.7-.63,.44-.76,.54-1.99,1.45-.27-.35-1.64-2.15-2.24-2.78l1.99-1.36Zm2.73-1.69c1.5,1.53,2.02,2.35,2.29,2.78-.6,.44-1.58,1.12-2.21,1.55-.76-1.36-1.23-2.02-2.18-3l2.1-1.34Z"/></g><g><path class="f" d="M33.44,308.35h-5.18v-9.75c-2.2,3.1-5.15,6.41-8.17,8.5-1.44-1.76-3.24-2.81-4-3.24,1.12-.65,2.74-1.58,4.82-3.53h-3.78v-.97h-1.84v4.18h-4.57v-25.27h10.94v10.29h6.59v-3.85h-5.69v-4.61h5.69v-4.97l5.54,.18c.29,0,.5,.22,.5,.4,0,.5-.65,.83-.86,.94v3.46h7.52v4.61h-7.52v3.85h9.58v4.75h-8.28c2.92,4.71,7.7,7.92,9.72,9.14-1.01,.72-2.12,1.51-3.89,3.78-2.34-1.87-5.4-5-7.13-7.63v9.75Zm-18.14-25.34v11.7h1.84v-11.7h-1.84Zm6.37,16.56c2.16-2.2,3.35-4.25,4.46-6.26h-4.46v6.26Z"/><path class="f" d="M63.76,280.78c-.86-1.69-1.73-2.84-2.84-4.21l4.57-2.16c1.69,2.05,2.45,2.99,3.53,5.4-.79,.29-1.26,.47-2.27,.97h3.2c1.19-2.16,1.87-4.32,2.45-6.05l5.62,1.94c.22,.07,.43,.25,.43,.5,0,.5-.47,.58-1.19,.61-.58,1.44-.86,2.16-1.3,2.99h5.83v8.03h-5v-4.1h-22.53v4.1h-5v-8.03h5.69c-.9-1.44-1.22-1.91-2.23-3.06l4.25-2.52c2.05,2.27,2.84,3.53,3.6,4.97-.58,.32-.76,.43-1.08,.61h4.28Zm7.27,21.92c0,.65,.11,.97,1.04,.97h3.6c.86,0,1.33-.22,1.73-4.17,1.4,1.12,2.59,1.83,4.93,2.27-.94,5.15-2.02,6.16-4.18,6.16h-7.63c-2.12,0-4.54,0-4.54-3.53v-3.56h-4.46l1.51,.97c.5,.32,.9,.58,.9,.94,0,.5-.68,.5-1.15,.5-3.67,3.78-7.31,5-10.48,5.69-1.04-2.63-2.41-3.89-3.06-4.46,2.74-.47,5.94-1.19,8.78-3.64h-2.81v-14.76h20.66v14.76h-4.86v1.87Zm0-12.27v-1.08h-10.73v1.08h10.73Zm-10.73,2.38v1.15h10.73v-1.15h-10.73Zm0,3.53v1.22h10.73v-1.22h-10.73Z"/><path class="f" d="M104.9,302.09c7.81-1.44,10.11-7.49,10.11-11.23,0-2.92-1.55-8.28-8.31-8.82-1.12,13.17-6.55,23-10.37,23-2.81,0-8.03-4.75-8.03-11.41,0-7.74,7.05-16.77,17.64-16.77,7.88,0,14.76,5.36,14.76,13.97,0,1.66-.14,6.26-4.25,11.12-2.2,2.56-4.75,3.89-7.81,5.22-1.19-2.09-1.98-3.17-3.74-5.08Zm-11.27-8.89c0,2.77,1.55,4.86,2.3,4.86,.86,0,1.55-1.62,1.94-2.56,1.55-3.56,2.74-7.7,2.77-12.38-4.17,1.55-7.02,6.84-7.02,10.08Z"/><path class="f" d="M141.95,276.14c.47,.07,.76,.14,.76,.47,0,.4-.4,.5-.61,.58-.11,1.08-.18,2.34-.25,3.82,2.05-.43,3.85-.97,5.65-1.8-.04,1.33-.07,2.99-.07,3.82,0,.97,0,1.22,.07,1.94-.86,.36-2.74,1.08-5.9,1.62,0,.4-.07,2.12-.07,2.45,.94-.32,3.13-1.08,6.12-1.08,5.44,0,9.97,3.78,9.97,9.75,0,6.69-4.97,8.96-8.53,8.96-5.44,0-5.62-4.82-5.65-6.34,.76-.25,4-1.33,4.46-1.51,0,.72,0,2.41,1.69,2.41,1.37,0,2.27-1.37,2.27-3.17,0-2.23-1.37-4.75-4.79-4.75-2.2,0-4.39,.83-5.58,1.26,.14,7.2,.18,8.03,.47,10.83l-4.93,2.23c-1.91-1.87-3.42-3.06-6.3-5.15-.9,.97-1.33,1.48-1.84,2.09l-2.59-6.19c1.66-.9,8.21-5.87,9.65-6.77,0-1.26,0-1.55-.04-4.32-2.12,.11-4.64,.14-6.7,.14v-5.72c.72,.11,1.3,.22,2.84,.22,1.4,0,3.42-.14,3.85-.14,0-2.7-.04-3.1-.14-6.7l6.19,1.04Zm-8.06,23.22c.68,.58,1.37,.94,1.62,.94,.54,0,.5-1.26,.47-2.63-.43,.36-1.19,.9-2.09,1.69Zm18.79-19.15c2.52,1.3,5.9,3.6,7.85,5.76-1.91,2.02-2.7,3.1-3.49,4.36-2.05-2.41-4.64-4.36-7.63-5.65l3.28-4.46Z"/><path class="f" d="M177.62,280.96v3.74h-12.06v-3.74h12.06Zm-6.73,25.48v2.02h-4.46v-13.14h11.2v12.49h-4.25v-1.37h-2.48Zm5.9-30.24v3.78h-9.68v-3.78h9.68Zm0,9.54v3.64h-9.68v-3.64h9.68Zm0,4.68v3.78h-9.68v-3.78h9.68Zm-3.42,11.81v-2.66h-2.48v2.66h2.48Zm11.84-7.81v6.41c1.37-.4,2.23-.72,3.38-1.15-.11,.61-.18,1.08-.18,2.23,0,1.26,.11,1.76,.18,2.3-2.3,.76-6.01,1.84-8.32,2.63-.14,.79-.22,1.26-.61,1.26-.43,0-.65-.5-.72-.79l-1.3-4.64c.83-.18,1.33-.29,2.88-.61v-7.63h-1.98v-4.39h8.5v4.39h-1.84Zm9.5-12.42c-1.19-2.05-1.33-2.27-2.7-4.07l3.49-2.12c1.15,1.26,2.48,3.42,2.88,4.25-.65,.36-2.2,1.26-3.17,1.94h3.17v4.32h-6.41c.29,4.93,.9,8.17,1.76,10.87,.14,.43,.79,2.48,1.04,2.48,.32,0,.65-2.05,.72-2.45,.83,.9,2.12,2.27,3.92,3.1-.25,1.8-1.01,7.67-4.14,7.67-1.98,0-6.66-4.57-8.03-21.67h-8.82v-4.32h8.57c-.04-.54-.07-1.55-.07-3.02,0-1.55,.04-2.56,.11-3.67l5.22,.32c.4,.04,.79,.04,.79,.43,0,.29-.18,.36-1.01,.86-.18,3.06-.18,4.32-.18,5.08h2.84Z"/><path class="f" d="M217.3,276.71c.54,.07,.83,.11,.83,.5,0,.32-.25,.43-.68,.61-.86,4.25-1.15,9.93-1.15,14.29,0,8.17,.79,9.68,3.56,9.68,6.16,0,11.59-8.32,12.56-10.33,.9,1.19,2.48,3.17,4.18,4.72-4.1,6.66-10.22,11.66-17.49,11.66-7.99,0-8.64-6.77-8.64-15.77,0-2.09,.36-11.2,.36-13.03,0-1.04,0-2.27-.07-3.31l6.55,.97Z"/><path class="f" d="M269.42,285.32h6.48v23.04h-4.79v-1.4h-12.63v1.4h-4.79v-23.04h6.44v-3.82h-6.73v-3.31c-.22,.07-.29,.07-.5,.11-.94,2.38-1.22,3.17-1.69,4.14l.68,.29c.22,.11,.47,.25,.47,.5,0,.29-.18,.4-.68,.65v24.48h-5.11v-17.67c-.5,.76-.94,1.26-1.4,1.87-1.04-2.09-2.05-3.2-3.2-4.28,4.1-5.26,5.9-11.2,6.41-13.14l5.04,1.69v-.18h23.33v4.86h-7.31v3.82Zm-10.94,16.74h1.66v-11.55h-1.66v11.55Zm7.13-20.55h-1.66v3.82h1.66v-3.82Zm-1.66,9v11.55h1.69v-11.55h-1.69Zm5.51,0v11.55h1.66v-11.55h-1.66Z"/><path class="f" d="M310.89,278.62l2.34,1.73c-2.27,4.25-3.28,6.01-5.15,8.42,3.82,2.77,6.8,3.96,7.92,4.39-1.01,1.01-1.58,1.73-2.45,3.13v11.84h-5.18v-1.19h-6.88v1.19h-5.11v-10.04c-.47,.22-.79,.4-1.48,.65-.58-1.4-1.51-2.84-2.63-4.07,2.34-.9,5.69-2.41,9.11-5.62-1.01-1.12-1.76-2.12-1.91-2.3-.83,1.08-1.62,1.94-2.38,2.77-.5-.43-1.69-1.37-3.49-2.23,.14-.18,.43-.5,.65-.76h-1.98c1.44,2.59,2.77,3.92,4.07,5.08-1.19,.68-1.73,1.12-3.46,2.77-.4-.65-.72-1.19-1.08-1.8v15.55h-4.93v-10.73c-.83,2.27-1.22,3.17-1.66,4.14-1.26-1.12-2.84-2.09-4.1-2.77,2.7-3.6,4.28-7.88,5.47-12.24h-4.14v-4.75h4.43v-6.41l5.11,.29c.43,.04,.68,.11,.68,.4s-.18,.4-.86,.83v4.9h3.6v3.13c2.16-3.24,3.71-5.62,5.18-9.75l4.79,1.3c.25,.07,.65,.22,.65,.5s-.25,.36-.94,.47c-.22,.4-.43,.83-.65,1.19h6.44Zm-9.4,23.94h6.88v-4.18h-6.88v4.18Zm.68-19.91l-.07,.14c.68,.97,1.37,1.87,2.41,2.92,1.58-1.91,1.8-2.48,2.05-3.06h-4.39Zm6.08,11.77c-.72-.5-1.48-1.04-3.13-2.45-.58,.58-1.37,1.3-2.88,2.45h6.01Z"/></g><g><path class="f" d="M93.42,359.12l-.18,52.85-13.19-.04,.09-28.34c.01-4.09-.08-6.55-.27-7.38-.19-.83-.73-1.46-1.61-1.88-.88-.43-2.84-.65-5.89-.66h-1.31l.02-6.17c6.38-1.35,11.23-4.16,14.56-8.41l7.77,.03Z"/><path class="f" d="M106.08,397.91l-.02,4.73c0,2.48-.31,4.52-.9,6.1-.59,1.59-1.62,2.93-3.06,4.04-1.45,1.1-3.09,1.84-4.92,2.2v-3.79c1.32-.74,2.06-1.72,2.24-2.96h-2.22l.03-10.36,8.85,.03Z"/><path class="f" d="M140.82,377.16l-.06,17.63c-.01,4-.24,6.92-.68,8.75-.44,1.83-1.35,3.53-2.73,5.12-1.38,1.58-3.03,2.72-4.97,3.41-1.94,.69-4.11,1.03-6.5,1.02-3.16-.01-5.78-.38-7.86-1.12-2.09-.74-3.75-1.88-4.98-3.43-1.24-1.55-2.11-3.18-2.63-4.89-.52-1.71-.77-4.43-.76-8.15l.06-18.45c.02-4.85,.45-8.49,1.29-10.9s2.52-4.34,5.01-5.79c2.5-1.45,5.52-2.17,9.07-2.16,2.89,0,5.48,.53,7.77,1.54,2.28,1.02,3.99,2.26,5.11,3.72s1.89,3.11,2.29,4.94c.4,1.83,.59,4.75,.57,8.75Zm-13.17-4.48c0-2.81-.12-4.57-.39-5.27s-.91-1.06-1.91-1.07c-.98,0-1.63,.37-1.95,1.12s-.48,2.48-.49,5.21l-.08,25.79c-.01,3.07,.13,4.92,.42,5.55,.29,.63,.93,.95,1.91,.95s1.62-.36,1.93-1.1,.46-2.4,.47-4.99l.09-26.18Z"/><path class="f" d="M170.71,382.24c1.93,.79,3.42,1.97,4.46,3.53,1.04,1.56,1.55,5.27,1.53,11.13-.01,4.27-.44,7.41-1.27,9.44-.83,2.02-2.45,3.68-4.85,4.96-2.4,1.29-5.61,1.92-9.64,1.91-3.92-.01-7.02-.64-9.3-1.89-2.28-1.25-3.91-2.9-4.9-4.95-.98-2.05-1.47-5.46-1.45-10.23,.01-3.2,.26-5.98,.76-8.33,.5-2.35,2.04-4.23,4.64-5.63-1.63-.79-2.85-2.04-3.66-3.75-.81-1.71-1.21-3.88-1.2-6.51,.02-4.54,1.29-7.95,3.82-10.21,2.53-2.27,6.31-3.39,11.34-3.37,5.81,.02,9.82,1.24,12.03,3.66,2.21,2.42,3.31,5.87,3.29,10.35,0,2.85-.38,4.9-1.11,6.16-.73,1.26-2.23,2.5-4.5,3.74Zm-7.18,10.6c0-2.02-.2-3.37-.61-4.03-.41-.67-1.06-1-1.96-1-.87,0-1.5,.32-1.88,.96-.38,.64-.58,2-.58,4.06l-.02,6.86c0,2.29,.2,3.75,.62,4.41,.42,.66,1.09,.98,2,.99,.94,0,1.57-.33,1.9-.99,.33-.66,.5-2.16,.5-4.49l.02-6.76Zm-.19-21.97c0-1.78-.15-2.96-.46-3.54-.31-.58-.92-.87-1.81-.87-.87,0-1.46,.31-1.77,.92s-.46,1.78-.47,3.47v4.02c-.02,1.59,.15,2.69,.5,3.3,.35,.61,.93,.92,1.76,.92,.87,0,1.46-.29,1.77-.89,.31-.6,.46-1.83,.47-3.7v-3.62Z"/><path class="f" d="M212.42,377.4l-.06,17.63c-.01,4-.24,6.92-.68,8.75-.44,1.83-1.35,3.53-2.73,5.12-1.38,1.58-3.03,2.72-4.97,3.41s-4.11,1.03-6.5,1.02c-3.16-.01-5.78-.38-7.86-1.12-2.09-.74-3.75-1.88-4.98-3.43-1.24-1.55-2.11-3.18-2.63-4.89-.52-1.71-.77-4.42-.76-8.15l.06-18.45c.02-4.85,.45-8.49,1.29-10.9,.85-2.41,2.52-4.34,5.01-5.79,2.5-1.45,5.52-2.17,9.07-2.16,2.89,0,5.48,.52,7.77,1.54s3.99,2.26,5.11,3.72c1.13,1.46,1.89,3.11,2.29,4.94,.4,1.83,.59,4.75,.57,8.75Zm-13.17-4.48c0-2.81-.12-4.57-.39-5.27s-.91-1.06-1.91-1.07c-.98,0-1.63,.37-1.95,1.12s-.48,2.48-.49,5.21l-.08,25.79c-.01,3.07,.13,4.92,.42,5.55,.29,.63,.93,.95,1.91,.95,.98,0,1.62-.36,1.93-1.1s.46-2.4,.47-4.99l.09-26.18Z"/><path class="f" d="M220.24,405.29l-.03,8.89h-3.69l.07-20.67,19.63,.07-.06,17.49c0,2.22-1.37,3.12-4.59,3.11-.44,0-.63-.05-.98-.1-.2-2.24-.81-3.29-1.13-3.86,.51,.14,1.21,.33,2.19,.33,.91,0,.91-.25,.91-1.05v-4.18l-12.34-.04Zm4.39-8.37h-4.37l-.02,5.05h4.37l.02-5.05Zm3.53,5.08h4.44l.02-5.05h-4.44l-.02,5.05Z"/><path class="f" d="M248.53,394.25c-1.17,1.4-3.58,4.33-3.6,9.35-.02,5.02,2.38,7.97,3.54,9.37l-2.08,1.79c-1.4-1.68-4.28-5.22-4.26-11.17,.02-5.95,2.93-9.47,4.33-11.15l2.07,1.8Z"/><path class="f" d="M259.86,397.7h2.08c-.05-.09-1.09-2.08-2.07-3.27l2.85-1.51c.95,1.03,2.21,3.23,2.53,3.84-.47,.16-.98,.35-2.1,.95h2.08c1.57-2.07,2.3-4.05,2.56-4.79l3.59,1.25c.07,.02,.26,.12,.26,.3,0,.35-.47,.35-.79,.35-.45,.93-.87,1.75-1.67,2.91h2.31l-.03,8.2h-2.59l-.02,4.57c0,.4,.02,.61,.4,.61,.49,0,.7-.09,.94-2.4,.7,.61,1.77,1.38,2.73,1.81-.17,1.42-.71,2.33-.97,2.71-.45,.65-.89,.81-1.8,.81h-2.62c-1.61-.01-2.05-.97-2.05-2.23l.02-5.88h-2.57l1.98,.6c.09,.02,.23,.09,.23,.28,0,.3-.3,.35-.51,.37-.52,2.94-1.61,5.48-5.14,7.41-.7-1.01-2-2.04-2.26-2.2v1.91h-3.42l.02-5.89c-.61,1.4-.87,1.84-1.2,2.47-.46-.54-.91-1.05-2.75-2.37,1.81-2.28,2.91-3.96,3.85-6.92h-3.06v-3h3.19v-1.58c-.95,.21-1.44,.25-1.96,.3-.51-1.17-1.25-2.25-1.69-2.85,2.71-.06,6.42-1.05,7.71-1.7l1.77,2.57c.05,.07,.07,.21,.07,.28,0,.23-.23,.28-.35,.28-.12,0-.23-.02-.49-.21-.51,.21-.82,.32-1.64,.55v2.38h1.84v2.99h-1.85v.51c.69,1.31,1.44,2.22,2.55,3.32l.03-7.73Zm0,8.19c-1.19,1.05-1.4,1.26-1.99,2-.26-.38-.39-.58-.6-.94l-.02,5.11c.75-.23,1.75-.86,2.6-1.88,1.38-1.7,1.48-3.43,1.53-4.29h-1.52Zm3.21-5.25v2.31l5.2,.02v-2.31l-5.2-.02Z"/><path class="f" d="M286.78,398.28c-.04-.61-.04-1.03-.04-1.54h-3.48v-3.37l6.99,.02c-.19,.96-.22,1.8-.22,2.59-.02,5.65,1.44,8.71,5.45,12.04-1.33,1.07-1.73,1.44-2.48,2.47-2.47-1.62-4.84-5.39-5.51-7.91-1.93,4.94-4.06,6.78-4.83,7.29-.81-1.4-2.24-1.92-2.45-1.99v1.12c.29,1.96,1.37,1.97,5.85,1.98,4.86,.02,8.17-.25,9.99-.39-.63,1.05-1.15,2.47-1.25,3.54l-10.72-.04c-4.11-.01-5.27-1.28-5.83-2.28-.4,.28-1.08,.74-1.57,1.02-1.26,.72-1.4,.79-1.57,.91-.09,.54-.14,.79-.38,.79-.21,0-.33-.26-.4-.47l-1.18-3.2c1.35-.37,2.64-1.07,3.48-1.67v-4.27h-2.44v-3.25l6.01,.02-.02,5.91c2.41-1.79,4.76-5.38,5.29-9.58l1.28,.26Zm-10.33-5.15c1.42,.92,3.1,2.32,3.98,3.26-1.19,.91-1.83,1.58-2.41,2.26-1.79-1.85-3.33-2.86-3.96-3.26l2.39-2.26Z"/><path class="f" d="M299.78,392.62c1.4,1.69,4.28,5.22,4.26,11.17-.02,5.95-2.93,9.47-4.33,11.15l-2.05-1.8c1.15-1.4,3.56-4.33,3.6-9.35,.02-5.02-2.4-7.97-3.54-9.37l2.06-1.79Z"/></g><g><circle class="e" cx="40.73" cy="386.51" r="26.96"/><g><path class="g" d="M28.44,374.75l-.02,6.09c0,.51,.34,.97,.8,1.26,.53,.33,1.02,.55,4.06,.56,5.54,.02,6.78-.12,8.26-.35-.72,1.29-.86,1.75-.87,2.6l-8.37-.03c-1.53,0-3.74-.01-5.1-1.73-.27,.22-1.57,1.14-1.83,1.34,0,.29,0,.56-.26,.56-.15,0-.22-.11-.25-.2l-1.25-2.43c.38-.16,1.17-.51,2.08-1.18v-4.1h-1.61v-2.41h4.35Zm-2.55-6.69c.8,.68,2.18,1.83,2.94,2.82-.07,.07-1.33,1.13-1.99,1.71-.38-.44-1.62-1.9-2.84-2.89l1.88-1.63Zm3.43,9.11v-2.41h4.06v-1.08h-3.44v-2.25h1.59c-.49-.82-.76-1.18-1.58-2.12l1.9-1.47c.76,.75,1.56,1.72,2.16,2.67-.17,.16-.95,.78-1.1,.93h1.88c.51-.63,1.28-1.74,2.05-3.54l2.42,.81c.16,.05,.29,.09,.29,.24,0,.26-.27,.29-.58,.34-.17,.4-.39,.91-1.23,2.17h2.02v2.25h-3.73v1.08l4.66,.02v2.41h-4.2c1.32,1.9,2.91,2.66,4.2,3.1-.44,.33-1.46,1.11-1.78,1.98-2.15-.86-3.75-3.06-4.02-3.46-.95,1.49-2.2,2.46-4.1,3.38-.76-1.08-.98-1.35-1.85-1.81,1.97-.83,3.2-1.52,3.93-3.21h-3.57Z"/><path class="g" d="M48.01,385.01h-2.53v-3.97c-.67,1.02-1.05,1.44-1.42,1.82-1.11-1.04-1.67-1.3-2.15-1.52,1.32-1.2,2.63-2.73,3.37-5.06h-2.77v-2.36h3v-1.32c-1.09,.38-1.66,.71-2.08,.94-.14-.8-.43-1.97-1.05-3.23l2.03-.72c.42,.82,.9,2.04,1.1,2.79v-4.16l2.49,.15c.24,.02,.51,.04,.51,.29,0,.22-.29,.34-.46,.4l-.02,4.87h2.5v2.36h-2.25c.94,1.44,1.83,2.17,2.34,2.59-.53,.49-.84,.86-1.34,1.75-.56-.48-.84-.73-1.27-1.19l-.02,5.56Zm3.28-14.94c.16,.04,.37,.11,.36,.24,0,.15-.24,.27-.4,.36-.15,.53-.48,1.6-1.01,2.84-.71-.4-1.18-.57-2-.72,.22-.62,.66-1.99,.94-3.3l2.11,.57Zm7.69,7.34l.43,2.23-1.83,.47-.02,4.9h-2.59v-4.22l-4.35,1.15-.41-2.33,4.78-1.21,.02-6.38c-.62,.51-.97,.91-1.45,1.51-.49-.68-1.69-1.77-2.25-2.23l1.52-1.73c.89,.71,1.69,1.46,2.18,2.09v-3.34l2.58,.23c.15,.02,.4,.04,.4,.24,0,.15-.2,.27-.38,.38l-.03,8.59,1.39-.34Zm-6.39-3.47c.96,.88,1.62,1.56,2.33,2.54-.46,.45-.95,.98-1.59,1.67-.58-.86-1.42-1.81-2.24-2.52l1.5-1.69Z"/><path class="g" d="M38.2,399.73l-13.31-.04v-2.1h1.76v-2.24h-2.49v-2.1h2.5v-1.25c-.38,.36-.58,.53-.84,.75-.89-.71-1.84-1.1-2.31-1.27,1.12-.89,2.67-2.22,3.7-4.16l2.6,.87c.09,.04,.18,.09,.18,.2,0,.24-.29,.29-.42,.33-.06,.09-.13,.16-.18,.24l10.72,.04v2.26h-1.67v2.05h2.45v2.1h-2.47v2.23h1.89v2.1h-2.1c.62,.58,1.6,1.49,2.89,3.36-.79,.36-2.08,1.31-2.28,1.45-.62-1.08-1.36-2.23-2.6-3.44l1.97-1.38Zm-9.5,1.1c.16,.09,.31,.17,.31,.33,0,.2-.13,.22-.46,.27-.55,1-1.63,2.47-2.38,3.24-.64-.7-1.38-1.12-2.24-1.47,1.08-.82,2.23-2.25,2.73-3.4l2.04,1.03Zm.1-3.23h1.06v-2.24h-1.05v2.24Zm0-4.34h1.06v-2.06h-1.05v2.06Zm2.6,6.96c.61,1.21,.9,2.23,1.15,3.58-1.02,.18-1.83,.41-2.66,.7-.07-.56-.23-2.12-.85-3.67l2.36-.61Zm.57-2.61h1.06v-2.24h-1.05v2.24Zm0-4.34h1.06v-2.06h-1.05v2.06Zm3.14,6.81c.83,1.22,1.3,2.92,1.45,3.4-1.42,.42-1.68,.49-2.48,.83-.45-1.59-.81-2.5-1.32-3.58l2.35-.65Zm.03-4.7v2.24h1.05v-2.24h-1.05Zm.01-4.16v2.06h1.05v-2.06h-1.05Z"/><path class="g" d="M47.95,404.32h-2.53v-3.97c-.67,1.02-1.05,1.44-1.42,1.82-1.11-1.04-1.67-1.3-2.15-1.52,1.32-1.2,2.64-2.73,3.37-5.06h-2.77v-2.36h3v-1.32c-1.09,.38-1.66,.71-2.08,.94-.14-.8-.43-1.97-1.05-3.23l2.03-.72c.42,.82,.9,2.04,1.1,2.79v-4.16l2.49,.15c.24,.02,.51,.04,.51,.29,0,.22-.29,.34-.46,.4l-.02,4.87h2.5v2.36h-2.25c.94,1.44,1.83,2.17,2.34,2.59-.53,.49-.84,.86-1.34,1.75-.56-.48-.84-.73-1.27-1.19l-.02,5.56Zm3.28-14.94c.16,.04,.36,.11,.36,.24,0,.15-.24,.27-.4,.36-.15,.53-.48,1.6-1.01,2.84-.71-.4-1.18-.57-2-.72,.22-.62,.66-1.99,.94-3.3l2.11,.57Zm7.69,7.34l.43,2.23-1.82,.47-.02,4.9h-2.59v-4.22l-4.35,1.15-.41-2.33,4.78-1.21,.02-6.38c-.62,.51-.97,.91-1.45,1.51-.49-.68-1.69-1.77-2.25-2.23l1.52-1.73c.89,.71,1.69,1.46,2.18,2.09v-3.34l2.58,.23c.15,.02,.4,.04,.4,.24,0,.15-.2,.27-.38,.38l-.03,8.59,1.39-.34Zm-6.39-3.47c.96,.88,1.62,1.56,2.33,2.54-.46,.45-.95,.98-1.59,1.67-.58-.86-1.42-1.81-2.23-2.52l1.5-1.69Z"/></g></g><g><rect class="f" x="11.68" y="161.58" width="301.72" height="64.79"/><g><path class="g" d="M61.86,202.13h-1.75c.05,.36,0,.67-1.03,.93-.41,.88-1.6,3.66-3.82,6.3,1.44,1.19,2.37,2.01,3.2,2.79-1.65,1.65-3.35,4.03-4.08,5.11-2.01-2.12-3.41-3.3-3.61-3.51-4.03,3.1-7.59,4.18-9.44,4.7-1.14-2.32-2.12-3.46-3.72-4.95,4.54-1.19,7.12-2.74,8.31-3.56-.57-.36-1.55-.98-2.12-1.34-.26,.26-.62,.72-.98,1.19-1.96-1.5-3.25-2.12-5.57-2.68,1.96-2.63,2.84-3.87,3.56-4.95h-4.59v-5.99h8.26c1.08-2.12,1.19-2.37,1.6-3.15h-.21v-3.72c-2.79,3.41-5.01,5.01-6.04,5.73-1.13-1.39-3.46-3.3-4.85-4.08,2.27-1.29,4.59-3.51,6.66-5.93h-5.42v-5.78h2.74c-1.29-2.79-2.37-4.33-3.3-5.62l5.37-2.94c2.01,2.48,2.99,4.39,3.92,6.5-2.48,.88-4.08,1.75-4.7,2.06h5.83v-8.46l6.92,.46c.31,0,.57,.31,.57,.57,0,.46-.26,.62-1.24,1.08v6.35h5.26c-.77-.52-1.29-.77-4.23-2.01,1.29-2.01,2.27-3.92,3.2-6.25l5.47,2.06c.57,.21,.83,.46,.83,.77,0,.62-.62,.77-1.45,.88-.88,1.55-2.12,3.72-2.68,4.54h2.68v5.78h-5.16c1.08,1.39,1.96,2.53,4.02,4.59-.62,.52-1.34,1.08-4.28,4.23-1.65-1.55-2.58-2.58-3.66-4.03v3.2h-2.48l2.79,1.08c.26,.1,.77,.31,.77,.72,0,.46-.46,.46-1.44,.57l-.36,.77h10.17c-1.45-.98-3.04-1.6-3.92-1.96,2.01-2.68,3.77-5.21,5.01-9.86,.72-2.68,2.06-8.57,2.42-13.21l7.22,.88c.41,.05,.67,.26,.67,.62,0,.41-.15,.52-1.29,1.14-.15,1.29-.36,2.53-.93,5.47h13v6.97h-2.01c-.41,5.62-1.6,12.13-5.26,19.2,1.5,2.17,3.92,4.95,7.9,7.74-1.86,1.55-3.25,2.94-4.8,5.52-1.29-.93-3.66-2.68-7.33-7.17-2.27,2.63-5.68,5.57-8.98,7.12-1.6-2.37-2.99-3.72-5.32-5.21,5.26-2.01,9.39-6.97,10.32-8.05-1.86-3.61-2.74-7.12-3.3-9.96-.83,1.34-1.19,1.65-1.7,2.27-.77-.77-1.08-1.03-1.6-1.45v5.93Zm-13.62,0c-.41,.67-1.03,1.65-1.24,1.96,1.19,.62,2.27,1.19,3.35,1.81,.98-1.19,1.75-2.43,2.43-3.77h-4.54Zm21.67-15.95c.41,4.28,1.14,7.9,2.74,11.87,1.29-3.51,2.12-7.12,2.37-11.87h-5.11Z"/><path class="g" d="M156,186.39v4.54h-47.06v-4.54h47.06Zm-19.92,20.9h15.79v3.97h-15.79v1.6h19.92v4.8h-47.06v-4.8h19.66v-1.6h-15.64v-3.97h15.64v-1.39h-14.24v-13.68h36.33v13.68h-14.6v1.39Zm14.66-35.81v13.67h-36.33v-13.67h36.33Zm-22.14,26.11v-1.6h-7.28v1.6h7.28Zm-7.28,2.84v1.65h7.28v-1.65h-7.28Zm21.98-23.58v-1.6h-21.93v1.6h21.93Zm-21.93,2.94v1.6h21.93v-1.6h-21.93Zm21.88,17.8v-1.6h-7.17v1.6h7.17Zm-7.17,2.84v1.65h7.17v-1.65h-7.17Z"/><path class="g" d="M228.61,198.62c.16,.15,.31,.31,.31,.67,0,.41-.36,.52-.67,.52h-.93c-2.22,2.58-4.54,4.33-6.71,5.78,3.3,3.41,7.69,5.93,9.55,7.02-3.56,2.53-4.54,3.97-5.42,5.57-2.32-1.5-7.22-4.8-11.2-10.42-.05,2.01,.1,3.46,.26,4.54-5.93,2.12-15.22,4.75-16.51,5.06-.1,.98-.26,1.45-.77,1.45-.41,0-.57-.36-.72-.77l-2.22-7.02c.88-.15,4.64-1.19,6.97-1.81v-33.8c-1.7,6.4-4.33,10.99-5.21,12.49,3.04,4.85,4.64,7.64,4.64,11.87,0,7.59-6.3,8.62-9.6,8.67-.1-.88-.36-2.32-1.45-4.13v14.09h-7.17v-46.14h16.15l2.63,2.32v-2.32h26.37v22.71h-2.73l4.44,3.66Zm-39.68-19.92v7.74c1.81-3.72,2.63-6.55,2.99-7.74h-2.99Zm0,22.45c.31,.05,.77,.1,1.19,.1,2.42,0,2.53-1.6,2.53-2.27,0-.57-.21-4.85-3.72-8.62v10.79Zm30.5-19.97v-2.63h-11.51v2.63h11.51Zm-11.51,5.01v2.68h11.51v-2.68h-11.51Zm0,20.95c2.12-.57,2.37-.67,4.44-1.24-1.39-2.37-3.25-6.04-4.23-10.94h-.21v12.18Zm6.92-12.18c.52,2.32,1.19,3.66,2.01,5.32,2.37-2.06,4.18-4.39,4.9-5.32h-6.92Z"/><path class="g" d="M281,196.09h13.57v6.76h-13.57v7.69c1.29,.05,2.79,.1,4.8,.1,4.85,0,5.68-.05,15.89-.88-1.81,4.28-1.91,6.24-1.86,8.05h-20.18c-9.44,0-13.73-5.16-15.22-7.23-1.91,4.33-3.97,6.97-4.85,8.15-2.68-1.96-3.25-2.17-7.38-3.2,1.91-2.22,7.64-8.82,8.77-21.36l7.95,1.39c.46,.1,1.03,.21,1.03,.83,0,.52-.31,.62-1.45,1.03-.26,1.29-.52,2.58-1.19,5.06,.93,2.22,2.12,5.01,5.78,6.71v-17.86h-13.37v-3.92h-6.45v-11.97h19.56v-4.85l7.9,.52c.72,.05,1.39,.1,1.39,.62,0,.41-.26,.62-1.39,1.14v2.58h19.82v11.77h-5.99v4.13h-13.57v4.75Zm11.92-11.4v-2.99h-32.15v2.99h32.15Z"/></g></g><g><path class="f" d="M66.71,253.45l-.7-.7,7.15-7.13-7.15-7.13,.7-.7,7.13,7.15,7.13-7.15,.7,.7-7.15,7.13,7.15,7.13-.7,.7-7.13-7.15-7.13,7.15Zm2.97-7.83c0,.99-.81,1.83-1.83,1.83s-1.85-.81-1.85-1.83,.84-1.83,1.85-1.83,1.83,.84,1.83,1.83Zm5.99-5.98c0,.97-.79,1.83-1.83,1.83s-1.83-.84-1.83-1.83,.84-1.85,1.83-1.85,1.83,.84,1.83,1.85Zm0,11.97c0,.99-.79,1.85-1.83,1.85s-1.83-.84-1.83-1.85,.84-1.83,1.83-1.83,1.83,.84,1.83,1.83Zm6.01-5.99c0,.99-.81,1.83-1.85,1.83s-1.83-.81-1.83-1.83,.84-1.83,1.83-1.83,1.85,.84,1.85,1.83Z"/><path class="f" d="M95.06,236c.29,.04,.46,.09,.46,.29,0,.24-.24,.31-.37,.35-.07,.66-.11,1.43-.15,2.33,1.25-.26,2.35-.59,3.45-1.1-.02,.81-.04,1.83-.04,2.33,0,.59,0,.75,.04,1.19-.53,.22-1.67,.66-3.61,.99,0,.24-.04,1.3-.04,1.5,.57-.2,1.91-.66,3.74-.66,3.32,0,6.1,2.31,6.1,5.96,0,4.09-3.04,5.48-5.21,5.48-3.32,0-3.43-2.95-3.46-3.87,.46-.15,2.44-.81,2.73-.92,0,.44,0,1.47,1.03,1.47,.84,0,1.39-.84,1.39-1.94,0-1.36-.84-2.91-2.93-2.91-1.34,0-2.68,.51-3.41,.77,.09,4.4,.11,4.91,.29,6.62l-3.01,1.36c-1.17-1.14-2.09-1.87-3.85-3.15-.55,.59-.81,.9-1.12,1.28l-1.58-3.79c1.01-.55,5.02-3.59,5.9-4.14,0-.77,0-.95-.02-2.64-1.3,.07-2.84,.09-4.09,.09v-3.5c.44,.07,.79,.13,1.74,.13,.86,0,2.09-.09,2.35-.09,0-1.65-.02-1.89-.09-4.09l3.78,.64Zm-4.93,14.19c.42,.35,.84,.57,.99,.57,.33,0,.31-.77,.29-1.61-.26,.22-.73,.55-1.28,1.03Zm11.49-11.71c1.54,.79,3.61,2.2,4.8,3.52-1.17,1.23-1.65,1.89-2.13,2.66-1.25-1.47-2.84-2.66-4.67-3.45l2-2.73Z"/><path class="f" d="M129.16,243.83v3.7h-19.87v-3.7h19.87Z"/><path class="f" d="M141.64,235.71c.48,.04,.53,.26,.53,.33,0,.15-.07,.24-.53,.46-.15,6.93-.26,12.01,8.65,16.37-1.14,.88-1.69,1.47-2.33,2.73-1.72-.81-2.97-1.74-4.47-3.17-1.56-1.5-2.18-2.46-3.5-4.53-.29,.75-.81,2.11-3.28,4.51-1.58,1.52-2.75,2.24-4.55,3.17-1.19-1.56-1.78-2.05-2.77-2.64,4.58-1.47,6.75-4.69,7.57-6.71,1.01-2.57,1.3-5,1.17-10.76l3.52,.24Z"/><path class="f" d="M158.6,251.33c.88-.31,2.71-.95,5.7-2.95v-2.53h-2.29c.33,.35,1.12,1.3,1.69,2.2-.9,.59-1.43,1.03-2.02,1.56-.31-.51-1.56-2.02-2-2.51l1.72-1.25h-1.87c.18,.22,.24,.31,.46,.53-.73,.68-1.08,1.47-1.34,2.35-.42-.55-.66-.88-.99-1.41v8.4h-2.88v-7.13c-.59,1.43-.92,1.98-1.1,2.25-.81-1.03-1.08-1.28-2.07-2,.97-1.5,2.11-3.59,2.82-6.93h-2.2v-2.66h2.4v-3.67l3.04,.15c.24,.02,.51,.09,.51,.33,0,.26-.31,.33-.51,.37v2.82h1.61v2.66h-1.61v.7c.35,.88,.86,2,1.72,3.08v-2.22h4.93v-.81h-3.72v-2.07h3.72v-.81h-4.73v-2.22h2.16c-.4-.7-.73-1.12-.97-1.41l2.57-1.21c.7,.99,1.08,1.58,1.43,2.25l-.73,.37h2.42c.4-.75,.64-1.23,1.08-2.44l2.82,.84c.26,.09,.44,.18,.44,.33,0,.29-.29,.31-.66,.31-.15,.29-.18,.35-.53,.97h2.55v2.22h-4.77v.81h3.67v2.07h-3.67v.81h5.24v2.38h-1.63l1.56,1.28c.15,.11,.22,.22,.22,.33,0,.33-.37,.29-.62,.29-.66,.92-1.23,1.52-2.24,2.4,.66,.53,1.65,1.3,3.3,1.89-.29,.24-1.17,1.01-1.67,2.29-.99-.57-2.51-1.47-4.16-3.43v1.72c0,2.42-.77,3.12-4.22,3.26-.22-1.12-.55-2.16-1.21-3.08,.33,.04,.73,.11,1.39,.11,.95,0,.97-.24,.97-.79v-.81c-.44,.26-1.89,1.14-3.96,2.2,.02,.13,.07,.7-.24,.7-.24,0-.4-.29-.53-.59l-.97-2.27Zm8.78-4.22c.13,.26,.37,.7,.9,1.36,.55-.57,1.41-1.54,2.02-2.62h-2.93v1.25Z"/><path class="f" d="M180.88,253.97v-11.27h-3.76v-2.88c2.22-.07,3.81-.44,4.62-3.19h3.23v17.34h-4.09Z"/><path class="f" d="M194.75,254.68v1.01h-3.21v-19.69h19.14v19.69h-3.19v-1.01h-12.74Zm12.74-2.75v-13.14h-12.74v13.14h12.74Zm-8.05-2.27v.81h-3.28v-10.01h9.9v10.01h-3.26v-.81h-3.37Zm3.37-2.84v-3.48h-3.37v3.48h3.37Z"/><path class="f" d="M235.2,247.26c.07,.07,.13,.13,.13,.29,0,.18-.15,.22-.29,.22h-.4c-.95,1.1-1.94,1.85-2.86,2.46,1.41,1.45,3.28,2.53,4.07,2.99-1.52,1.08-1.94,1.69-2.31,2.38-.99-.64-3.08-2.05-4.77-4.44-.02,.86,.04,1.47,.11,1.94-2.53,.9-6.49,2.02-7.04,2.16-.04,.42-.11,.62-.33,.62-.18,0-.24-.15-.31-.33l-.95-2.99c.37-.07,1.98-.51,2.97-.77v-14.41c-.73,2.73-1.85,4.69-2.22,5.32,1.3,2.07,1.98,3.26,1.98,5.06,0,3.23-2.68,3.67-4.09,3.7-.04-.37-.15-.99-.62-1.76v6.01h-3.06v-19.67h6.89l1.12,.99v-.99h11.24v9.68h-1.17l1.89,1.56Zm-16.92-8.49v3.3c.77-1.58,1.12-2.79,1.28-3.3h-1.28Zm0,9.57c.13,.02,.33,.04,.51,.04,1.03,0,1.08-.68,1.08-.97,0-.24-.09-2.07-1.58-3.67v4.6Zm13-8.52v-1.12h-4.91v1.12h4.91Zm-4.91,2.13v1.14h4.91v-1.14h-4.91Zm0,8.93c.9-.24,1.01-.29,1.89-.53-.59-1.01-1.39-2.57-1.8-4.67h-.09v5.19Zm2.95-5.19c.22,.99,.51,1.56,.86,2.27,1.01-.88,1.78-1.87,2.09-2.27h-2.95Z"/><path class="f" d="M243.95,236.48c.4,.09,.62,.15,.62,.4,0,.29-.37,.35-.53,.37-.64,1.8-.97,3.7-.97,5.61,0,.97,.09,1.41,.2,1.96,.18-.35,.24-.53,.51-1.17,.33-.79,.55-1.08,.68-1.25,.97,.9,1.12,1.06,2.2,1.83-.35,.57-1.8,2.95-2.27,5.57l-3.15,.37c-1.47-3.74-1.56-6.87-1.56-8.16,0-1.76,.2-3.1,.73-5.43,.11-.48,.11-.59,.15-.86l3.39,.77Zm10.06-.81c.22,0,.51,.02,.51,.31,0,.24-.2,.29-.35,.33,.02,.77,.31,4.12,.35,4.8,.07,.79,.11,1.72,.11,2.57,0,2.77-.22,8.43-6.62,12.1-1.34-1.78-2.38-2.31-2.86-2.58,5.28-2.55,5.79-6.36,5.79-9.59,0-2.71-.13-5.43-.84-8.05l3.92,.11Z"/><path class="f" d="M261.12,253.45l-.71-.7,7.15-7.13-7.15-7.13,.71-.7,7.13,7.15,7.13-7.15,.7,.7-7.15,7.13,7.15,7.13-.7,.7-7.13-7.15-7.13,7.15Zm2.97-7.83c0,.99-.81,1.83-1.83,1.83s-1.85-.81-1.85-1.83,.84-1.83,1.85-1.83,1.83,.84,1.83,1.83Zm5.99-5.98c0,.97-.79,1.83-1.83,1.83s-1.83-.84-1.83-1.83,.84-1.85,1.83-1.85,1.83,.84,1.83,1.85Zm0,11.97c0,.99-.79,1.85-1.83,1.85s-1.83-.84-1.83-1.85,.84-1.83,1.83-1.83,1.83,.84,1.83,1.83Zm6.01-5.99c0,.99-.81,1.83-1.85,1.83s-1.83-.81-1.83-1.83,.84-1.83,1.83-1.83,1.85,.84,1.85,1.83Z"/></g></g></svg>