<svg xmlns="http://www.w3.org/2000/svg" viewBox="0 0 114.26 37.35"><defs><style>.cls-1{fill:#6875b8;}.cls-2{fill:#75cedc;}.cls-3{fill:#74cddd;stroke:#74cddd;stroke-miterlimit:10;stroke-width:0.25px;}</style></defs><title>Asset 1</title><g id="Layer_2" data-name="Layer 2"><g id="Layer_1-2" data-name="Layer 1"><path class="cls-1" d="M.4,19.11H0A18.24,18.24,0,1,0,18.24.87,18.24,18.24,0,0,0,0,19.11H.79A17.45,17.45,0,1,1,5.9,31.44,17.39,17.39,0,0,1,.79,19.11Z"/><path class="cls-1" d="M18.24,5A14.13,14.13,0,1,1,4.11,19.11,14.13,14.13,0,0,1,18.24,5M2,19.11A16.29,16.29,0,1,0,18.24,2.82,16.28,16.28,0,0,0,2,19.11"/><path class="cls-1" d="M31.3,13.59a6.65,6.65,0,0,0-.74.35,1.66,1.66,0,0,0-.73.72c-.1.19-.22.44-.35.75h-.11a6.93,6.93,0,0,0-.35-.75,1.9,1.9,0,0,0-.3-.42,1.77,1.77,0,0,0-.43-.3,5.88,5.88,0,0,0-.74-.35v-.1a7.74,7.74,0,0,0,.74-.35,1.77,1.77,0,0,0,.43-.3,2,2,0,0,0,.3-.43,5.48,5.48,0,0,0,.35-.75h.11a7,7,0,0,0,.35.75,2,2,0,0,0,.31.43,1.9,1.9,0,0,0,.42.3,7.74,7.74,0,0,0,.74.35Z"/><path class="cls-1" d="M28.65,15.7l-.4.18a1.14,1.14,0,0,0-.23.17,1,1,0,0,0-.16.22,3.3,3.3,0,0,0-.19.41h-.06a3.3,3.3,0,0,0-.19-.41,1,1,0,0,0-.16-.22.91.91,0,0,0-.23-.17l-.4-.18v-.06a3.08,3.08,0,0,0,.4-.19.71.71,0,0,0,.23-.16.91.91,0,0,0,.16-.23,3.08,3.08,0,0,0,.19-.4h.06a3.08,3.08,0,0,0,.19.4.91.91,0,0,0,.16.23.71.71,0,0,0,.23.16,3.08,3.08,0,0,0,.4.19Z"/><path class="cls-1" d="M31.57,17.48c-.24.1-.44.19-.59.27a1.66,1.66,0,0,0-.34.24,2,2,0,0,0-.24.34c-.08.15-.17.34-.28.6H30c-.11-.26-.2-.45-.28-.6a2.78,2.78,0,0,0-.24-.34,2,2,0,0,0-.34-.24c-.15-.08-.35-.17-.59-.27v-.09c.24-.1.44-.19.59-.27a1.66,1.66,0,0,0,.34-.24,2.17,2.17,0,0,0,.24-.34c.08-.15.17-.34.28-.6h.08c.11.26.2.45.28.6a1.66,1.66,0,0,0,.24.34,1.42,1.42,0,0,0,.34.24,5,5,0,0,0,.59.27Z"/><polygon class="cls-2" points="9.84 31.06 9.3 31.8 9.41 31.88 9.33 32.01 8.93 31.72 9.02 31.6 9.13 31.68 9.66 30.93 9.84 31.06"/><path class="cls-2" d="M9.37,30.72l-.8.73-.22-.17.57-.92.17.14-.16.23L9,30.8l.2-.21Zm-.47.19-.06-.05-.18.27-.06.08,0,0h0l.06-.08,0,0Z"/><polygon class="cls-2" points="8.72 30.19 8.02 31 7.86 30.86 8.56 30.05 8.72 30.19"/><polygon class="cls-2" points="7.98 29.51 7.21 30.26 7.07 30.11 7.35 29.83 7.3 29.78 7.02 30.06 6.87 29.91 7.63 29.16 7.78 29.31 7.42 29.67 7.46 29.72 7.83 29.36 7.98 29.51"/><polygon class="cls-2" points="7.44 28.95 6.64 29.66 6.38 29.36 6.49 29.26 6.61 29.4 6.79 29.24 6.67 29.1 6.79 29 6.91 29.14 7.18 28.9 7.05 28.76 7.18 28.65 7.44 28.95"/><polygon class="cls-2" points="7 28.45 6.16 29.11 5.98 28.88 6.29 28.54 6.38 28.45 6.51 28.32 6.5 28.32 6.35 28.45 6.26 28.53 5.92 28.8 5.81 28.67 6.65 28 6.8 28.2 6.42 28.65 6.35 28.73 6.24 28.84 6.25 28.84 6.33 28.76 6.4 28.71 6.89 28.31 7 28.45"/><polygon class="cls-2" points="6.42 27.69 5.67 28.23 5.75 28.34 5.63 28.42 5.34 28.03 5.47 27.94 5.55 28.05 6.29 27.52 6.42 27.69"/><path class="cls-2" d="M6.08,27.22l-1,.43-.15-.23.84-.68.12.19-.23.17,0,.08L6,27.06Zm-.5,0,0-.07-.26.2-.08.05,0,0h0l.09,0,0,0Z"/><polygon class="cls-2" points="5.64 26.51 4.72 27.05 4.61 26.86 5.54 26.33 5.64 26.51"/><polygon class="cls-2" points="5.16 25.63 4.2 26.09 4.11 25.89 4.46 25.73 4.43 25.66 4.08 25.84 3.98 25.64 4.95 25.18 5.04 25.38 4.58 25.6 4.61 25.66 5.07 25.44 5.16 25.63"/><polygon class="cls-2" points="4.84 24.92 3.85 25.33 3.69 24.96 3.83 24.91 3.9 25.08 4.13 24.98 4.06 24.82 4.2 24.76 4.27 24.93 4.6 24.79 4.53 24.62 4.68 24.55 4.84 24.92"/><polygon class="cls-2" points="4.58 24.3 3.58 24.66 3.48 24.38 3.88 24.16 4 24.1 4.16 24.03 4.16 24.02 3.97 24.1 3.86 24.14 3.44 24.29 3.39 24.13 4.39 23.77 4.48 24.01 3.97 24.3 3.88 24.36 3.74 24.43 3.74 24.43 3.85 24.38 3.93 24.36 4.53 24.14 4.58 24.3"/><polygon class="cls-2" points="4.28 23.4 3.4 23.66 3.44 23.79 3.29 23.84 3.15 23.38 3.3 23.33 3.34 23.46 4.21 23.2 4.28 23.4"/><path class="cls-2" d="M4.11,22.84,3,22.93,3,22.66l1-.37L4,22.5l-.27.09,0,.1.29,0Zm-.48-.12,0-.08-.31.1-.1,0h.1Z"/><polygon class="cls-2" points="3.93 22.04 2.88 22.24 2.84 22.03 3.88 21.82 3.93 22.04"/><polygon class="cls-2" points="3.76 21.04 2.69 21.16 2.67 20.95 3.06 20.91 3.06 20.84 2.66 20.88 2.64 20.67 3.7 20.55 3.73 20.76 3.21 20.82 3.22 20.89 3.73 20.83 3.76 21.04"/><polygon class="cls-2" points="3.67 20.27 2.61 20.34 2.58 19.94 2.73 19.93 2.74 20.11 2.99 20.1 2.98 19.92 3.13 19.91 3.14 20.09 3.5 20.06 3.49 19.88 3.65 19.87 3.67 20.27"/><polygon class="cls-2" points="3.63 19.6 2.57 19.61 2.56 19.32 3.01 19.24 3.15 19.22 3.32 19.2 3.32 19.19 3.12 19.2 3 19.21 2.56 19.22 2.56 19.05 3.63 19.03 3.63 19.28 3.05 19.4 2.95 19.42 2.8 19.44 2.8 19.45 2.92 19.44 3 19.43 3.63 19.43 3.63 19.6"/><polygon class="cls-2" points="3.64 18.65 2.72 18.61 2.71 18.75 2.56 18.74 2.58 18.26 2.73 18.27 2.73 18.4 3.64 18.44 3.64 18.65"/><path class="cls-2" d="M3.66,18.07,2.61,17.8l0-.27,1.07,0,0,.22H3.41v.11l.28.05Zm-.42-.28v-.08H2.78l.09,0h0Z"/><polygon class="cls-2" points="3.75 17.24 2.69 17.09 2.72 16.88 3.78 17.02 3.75 17.24"/><polygon class="cls-2" points="3.91 16.24 2.86 16.02 2.91 15.81 3.3 15.89 3.31 15.83 2.92 15.74 2.97 15.54 4.01 15.76 3.97 15.97 3.46 15.86 3.45 15.93 3.95 16.04 3.91 16.24"/><polygon class="cls-2" points="4.08 15.49 3.05 15.21 3.15 14.82 3.3 14.86 3.25 15.04 3.48 15.11 3.53 14.93 3.68 14.97 3.63 15.14 3.98 15.24 4.03 15.06 4.19 15.1 4.08 15.49"/><polygon class="cls-2" points="4.26 14.84 3.24 14.51 3.33 14.23 3.79 14.3 3.92 14.32 4.09 14.37 4.1 14.36 3.91 14.3 3.79 14.27 3.37 14.13 3.42 13.97 4.43 14.31 4.36 14.54 3.77 14.47 3.67 14.45 3.52 14.42 3.52 14.43 3.63 14.46 3.71 14.48 4.31 14.68 4.26 14.84"/><polygon class="cls-2" points="4.57 13.94 3.71 13.61 3.67 13.74 3.52 13.69 3.7 13.23 3.84 13.29 3.79 13.41 4.65 13.74 4.57 13.94"/><path class="cls-2" d="M4.78,13.4l-.9-.59L4,12.56l1,.32-.09.21L4.66,13l0,.09.24.15Zm-.3-.4,0-.07-.31-.11-.09,0,0,0h0l.08.05,0,0Z"/><rect class="cls-2" x="4.6" y="11.78" width="0.21" height="1.07" transform="translate(-8.41 10.95) rotate(-63.17)"/><polygon class="cls-2" points="5.61 11.76 4.7 11.21 4.8 11.03 5.14 11.23 5.18 11.17 4.84 10.97 4.95 10.78 5.87 11.34 5.75 11.52 5.31 11.25 5.28 11.31 5.72 11.58 5.61 11.76"/><polygon class="cls-2" points="6.02 11.1 5.13 10.5 5.36 10.17 5.48 10.26 5.38 10.41 5.58 10.55 5.68 10.4 5.81 10.48 5.71 10.63 6 10.83 6.11 10.68 6.24 10.77 6.02 11.1"/><polygon class="cls-2" points="6.4 10.55 5.54 9.9 5.72 9.67 6.13 9.88 6.25 9.95 6.39 10.04 6.4 10.04 6.24 9.92 6.13 9.85 5.78 9.59 5.88 9.45 6.74 10.1 6.59 10.3 6.06 10.04 5.96 9.99 5.83 9.91 5.83 9.92 5.92 9.98 5.99 10.03 6.5 10.41 6.4 10.55"/><polygon class="cls-2" points="6.99 9.79 6.28 9.2 6.19 9.31 6.08 9.21 6.39 8.84 6.5 8.94 6.42 9.04 7.12 9.63 6.99 9.79"/><path class="cls-2" d="M7.36,9.35,6.69,8.5l.19-.2.87.64-.16.16-.22-.18L7.3,9l.19.21ZM7.2,8.88l0-.06L7,8.62l-.08-.07,0,0h0L7,8.59l0,0Z"/><path class="cls-2" d="M28.82,9l.9-.6.18.2-.7.82-.15-.16.2-.21L29.18,9,29,9.16Zm.48-.12.06.06.22-.24.07-.07,0,0h0l-.08.06,0,0Z"/><polygon class="cls-2" points="29.37 9.64 30.19 8.95 30.33 9.12 29.51 9.8 29.37 9.64"/><polygon class="cls-2" points="30 10.43 30.87 9.81 30.99 9.98 30.67 10.21 30.71 10.27 31.03 10.04 31.16 10.21 30.29 10.83 30.16 10.66 30.58 10.36 30.54 10.3 30.12 10.6 30 10.43"/><polygon class="cls-2" points="30.44 11.07 31.34 10.49 31.56 10.82 31.43 10.9 31.33 10.75 31.13 10.88 31.22 11.04 31.09 11.12 31 10.96 30.69 11.16 30.79 11.31 30.66 11.4 30.44 11.07"/><polygon class="cls-2" points="30.8 11.63 31.73 11.1 31.87 11.36 31.52 11.65 31.4 11.73 31.26 11.83 31.27 11.84 31.43 11.73 31.54 11.67 31.92 11.45 32.01 11.59 31.07 12.12 30.95 11.9 31.4 11.52 31.48 11.46 31.6 11.36 31.6 11.36 31.5 11.43 31.43 11.46 30.88 11.78 30.8 11.63"/><polygon class="cls-2" points="31.25 12.47 32.08 12.06 32.02 11.94 32.15 11.87 32.37 12.3 32.23 12.37 32.17 12.24 31.35 12.66 31.25 12.47"/><path class="cls-2" d="M31.51,13l1.05-.27.11.25-.93.54-.09-.2.25-.14,0-.09-.27.08Zm.5,0,0,.07.29-.15.09,0,0,0h0l-.09,0,0,0Z"/><polygon class="cls-2" points="31.83 13.75 32.83 13.37 32.91 13.57 31.91 13.95 31.83 13.75"/><polygon class="cls-2" points="32.17 14.71 33.2 14.4 33.26 14.6 32.88 14.72 32.9 14.78 33.27 14.67 33.34 14.87 32.31 15.18 32.25 14.97 32.74 14.83 32.73 14.76 32.23 14.91 32.17 14.71"/><polygon class="cls-2" points="32.38 15.45 33.42 15.2 33.52 15.59 33.37 15.62 33.33 15.44 33.09 15.5 33.13 15.67 32.98 15.71 32.94 15.53 32.59 15.62 32.63 15.8 32.48 15.84 32.38 15.45"/><polygon class="cls-2" points="32.54 16.1 33.59 15.9 33.64 16.19 33.21 16.35 33.08 16.39 32.92 16.44 32.92 16.45 33.11 16.4 33.23 16.38 33.66 16.29 33.69 16.46 32.64 16.66 32.6 16.41 33.15 16.2 33.24 16.16 33.39 16.11 33.39 16.11 33.27 16.13 33.2 16.15 32.57 16.27 32.54 16.1"/><polygon class="cls-2" points="32.7 17.04 33.61 16.92 33.59 16.78 33.74 16.76 33.81 17.24 33.66 17.26 33.64 17.13 32.73 17.25 32.7 17.04"/><path class="cls-2" d="M32.77,17.62l1.08.08,0,.27-1.06.22,0-.23.29,0v-.1h-.29Zm.46.2v.08l.32,0h-.33Z"/><rect class="cls-2" x="32.84" y="18.42" width="1.07" height="0.21" transform="translate(-0.69 1.29) rotate(-2.2)"/><polygon class="cls-2" points="32.85 19.45 33.92 19.5 33.91 19.71 33.51 19.69 33.51 19.76 33.9 19.78 33.9 19.99 32.83 19.95 32.84 19.73 33.35 19.75 33.36 19.69 32.84 19.67 32.85 19.45"/><polygon class="cls-2" points="32.81 20.23 33.87 20.32 33.84 20.72 33.69 20.71 33.7 20.52 33.46 20.5 33.45 20.68 33.29 20.67 33.31 20.49 32.95 20.46 32.93 20.64 32.77 20.63 32.81 20.23"/><polygon class="cls-2" points="32.74 20.9 33.8 21.05 33.76 21.34 33.3 21.35 33.16 21.34 32.99 21.33 32.99 21.34 33.19 21.36 33.31 21.38 33.75 21.44 33.72 21.6 32.67 21.45 32.7 21.2 33.29 21.18 33.4 21.18 33.55 21.18 33.55 21.17 33.43 21.16 33.35 21.15 32.72 21.06 32.74 20.9"/><polygon class="cls-2" points="32.6 21.84 33.49 22.01 33.52 21.88 33.67 21.91 33.58 22.39 33.43 22.36 33.45 22.22 32.55 22.04 32.6 21.84"/><path class="cls-2" d="M32.48,22.4l1,.43-.06.27L32.34,23l0-.21.28,0,0-.1-.27-.1Zm.37.35,0,.07.32.06.1,0h0l-.1,0h0Z"/><rect class="cls-2" x="32.64" y="22.93" width="0.21" height="1.07" transform="translate(0.81 48.01) rotate(-73.17)"/><polygon class="cls-2" points="31.95 24.17 32.95 24.55 32.87 24.75 32.5 24.61 32.47 24.67 32.84 24.82 32.77 25.01 31.77 24.63 31.85 24.43 32.33 24.62 32.35 24.55 31.87 24.36 31.95 24.17"/><polygon class="cls-2" points="31.66 24.89 32.63 25.32 32.47 25.69 32.34 25.63 32.41 25.46 32.19 25.36 32.11 25.52 31.97 25.46 32.05 25.3 31.72 25.15 31.64 25.32 31.5 25.25 31.66 24.89"/><polygon class="cls-2" points="31.38 25.5 32.33 25.98 32.2 26.25 31.76 26.1 31.63 26.06 31.47 25.99 31.47 26 31.65 26.08 31.76 26.13 32.15 26.33 32.08 26.48 31.12 26 31.24 25.77 31.81 25.94 31.9 25.97 32.05 26.02 32.05 26.02 31.94 25.97 31.87 25.94 31.3 25.65 31.38 25.5"/><polygon class="cls-2" points="30.93 26.34 31.73 26.8 31.8 26.68 31.93 26.76 31.68 27.17 31.55 27.1 31.62 26.98 30.83 26.52 30.93 26.34"/><path class="cls-2" d="M30.63,26.84l.81.72-.14.23-1-.47.12-.18.26.13.05-.09L30.53,27Zm.25.44-.05.07.29.15.09.05,0,0h0l-.08-.06,0,0Z"/><rect class="cls-2" x="30.44" y="27.39" width="0.21" height="1.07" transform="translate(-9.95 36.45) rotate(-54.32)"/><polygon class="cls-2" points="29.57 28.33 30.39 29.02 30.25 29.18 29.95 28.93 29.91 28.98 30.21 29.23 30.07 29.4 29.25 28.71 29.39 28.55 29.79 28.88 29.83 28.83 29.43 28.5 29.57 28.33"/><polygon class="cls-2" points="29.06 28.92 29.84 29.65 29.57 29.94 29.46 29.84 29.59 29.71 29.41 29.54 29.29 29.67 29.18 29.57 29.3 29.43 29.03 29.19 28.91 29.32 28.79 29.21 29.06 28.92"/><polygon class="cls-2" points="28.6 29.41 29.35 30.18 29.14 30.38 28.77 30.11 28.66 30.02 28.53 29.91 28.53 29.91 28.67 30.05 28.75 30.13 29.06 30.45 28.95 30.57 28.2 29.8 28.38 29.63 28.86 29.96 28.95 30.03 29.07 30.12 29.07 30.12 28.98 30.04 28.93 29.98 28.48 29.53 28.6 29.41"/><polygon class="cls-2" points="27.91 30.06 28.51 30.75 28.61 30.67 28.71 30.78 28.35 31.1 28.25 30.98 28.35 30.89 27.75 30.2 27.91 30.06"/><path class="cls-2" d="M27.47,30.44l.52.95-.21.17L27,30.79l.17-.14.19.21.09-.06-.16-.24Zm.08.5-.06,0,.22.25.06.07,0,0h0l0-.08,0,0Z"/><polygon class="cls-2" points="26.81 30.94 27.43 31.81 27.25 31.94 26.63 31.07 26.81 30.94"/><path class="cls-2" d="M31.81,22.62a9.92,9.92,0,0,0-1.71-1.73,17.73,17.73,0,0,1-5-4.94c-.41-.65-2.28-4.89-2.71-5.32,2.22.26,3.44-2,3.55-3.53-.93.46-2.57-.35-3.56,0-.34.12-1.1,1.14-1.65,1.3-.28.09.09-.7.18-1,.4-1.27.67-2.6,1-3.89A10.93,10.93,0,0,0,22.44,0c-.83-.06-1.74.85-2.37,1.35a7.86,7.86,0,0,0-2.61,3.16c-.22.6.22,2.05-.21,2.45s-1.88.22-2.38.34a16,16,0,0,0-2.27.56,2.5,2.5,0,0,0-1.37,1.21c-.29.54-.21,1.09-.67,1.54a5,5,0,0,1-2.17,1,16.55,16.55,0,0,1-2.62.13l-.94-.18c-.92,0-.75,1-.57,1.45A15.09,15.09,0,0,0,4.9,14.7a4.25,4.25,0,0,0,2.82,2c2.48.54,5.77-.76,7.43,1.83a23.84,23.84,0,0,1,2,4A27.56,27.56,0,0,1,18,25.83c.25,1,.15,6.12.23,7.4,10.53-.15,13.69-9.77,13.57-10.61"/><path class="cls-1" d="M31.63,22.34a16.61,16.61,0,0,0-8,2.27,9.42,9.42,0,0,0-5.42,6.6c-1.95-9.57,11.33-10.69,11.33-10.69a5.53,5.53,0,0,1,2.14,1.82"/><path class="cls-2" d="M42.54,9.2H41.41V8.84H43a.07.07,0,0,0,0,0V7.69s0-.05,0-.05H39.27s0,0,0,.05V8s0,0,0,0h1.62v.36H39.51a.05.05,0,0,0-.06.06c0,.08,0,.18-.06.32a7.21,7.21,0,0,1-.3.93v0s.08,0,.26.07h.2a.08.08,0,0,0,.08-.05l0-.15h.89a4.06,4.06,0,0,1-1.77.85,1.54,1.54,0,0,1,.23.32c0,.08.07.12.1.12l.13,0a3.91,3.91,0,0,0,1.64-1V11a.43.43,0,0,0,0,0h.53s0,0,0,0,0-.09,0-.25,0-.4,0-.61V9.62h1.34a1.65,1.65,0,0,1-.08.49c0,.07-.13.1-.27.1a2.56,2.56,0,0,1-.51-.05,1.62,1.62,0,0,1,.12.35.34.34,0,0,0,.05.14s.06,0,.14,0h.3a.62.62,0,0,0,.6-.27,1.63,1.63,0,0,0,.17-.72c0-.27,0-.42,0-.46h0s0-.05-.06-.05Zm-2.72,0,.09-.36h1V9.2Zm1.57-1.14h1.08v.36H41.4Zm2-1.36h-1.5l0-.09c0-.07,0-.11.08-.12a.2.2,0,0,0,0-.08s0,0-.08-.07l-.44-.07a1.48,1.48,0,0,1-.08.25,2.61,2.61,0,0,1-.31.53V6.75a.1.1,0,0,0,0,0H39.89l0-.09A.3.3,0,0,1,40,6.49s0,0,0-.07,0-.06-.08-.07l-.45-.07a1.33,1.33,0,0,1-.1.24,2.48,2.48,0,0,1-.65.82,1,1,0,0,1,.25.21.38.38,0,0,0,.11.09s.06,0,.12-.08a3.47,3.47,0,0,0,.38-.44H40a3.28,3.28,0,0,1,.15.36s0,.06,0,.06h.05l.35-.08.06,0s0,0,0,0l-.14-.26h.56l-.17.19a1,1,0,0,1,.26.16c.06.07.1.1.12.1s.06,0,.11-.09a4,4,0,0,0,.29-.37h.38a2.16,2.16,0,0,1,.16.37s0,0,0,0h.06l.33-.08s.06,0,.06,0a.08.08,0,0,0,0,0l-.14-.26h.82s.05,0,.05-.06V6.75S43.44,6.7,43.41,6.7ZM41,11.62l-1.35,2.61v.46h1.6v.89h.62v-.89h.52V14.2h-.52V11.62Zm.25,1.72v.86h-1l.52-1,.23-.48c.14-.32.23-.51.25-.55h.07C41.28,12.66,41.27,13.06,41.27,13.34Zm2,3a.1.1,0,0,0,0,0H39.05a.07.07,0,0,0,0,0v4.41s0,0,0,.05h.54a.2.2,0,0,0,0-.05v-.25h3.16v.24s0,.05,0,.05h.54a.12.12,0,0,0,0-.05v-4.4ZM42.76,20H39.6V16.78h3.16Zm-2.56-.58v0h.5a.07.07,0,0,0,0,0v-.13h.91v.13s0,0,0,0h.5v-2H40.21s0,0,0,.05v1.92Zm.51-1.51h.91v.92h-.91Z"/><path class="cls-1" d="M42.56,27.78h0l-1.46-4.61H39.59l2.13,6.55h1.63l2.17-6.55H44Zm5-.87h3.17V25.79H47.52V24.38H51V23.17H46.08v6.55h5V28.51H47.52Zm4-2.53h2v5.34h1.44V24.38h2V23.17H51.5Zm9.27,1.49c-1.64-.41-2-.49-2-1s.53-.74,1-.74c.7,0,1.25.21,1.3,1H62.5c0-1.52-1.26-2.11-2.62-2.11-1.19,0-2.45.63-2.45,2s1,1.62,2,1.86,1.95.37,1.95,1.08-.78.82-1.28.82c-.77,0-1.45-.34-1.45-1.21H57.21c0,1.61,1.34,2.33,2.79,2.33,1.78,0,2.72-.9,2.72-2.1C62.72,26.3,61.26,26,60.77,25.87Zm6.79,1h3.17V25.79H67.56V24.38H71V23.17h-4.9v6.55h5V28.51H67.56Zm9.86-3.74H75.84l-1.33,2.09-1.29-2.09H71.56l2.1,3.12-2.29,3.43H73l1.45-2.26,1.43,2.26H77.6L75.32,26.3Zm3.71,0h-3v6.55h1.44V27.37h1.52a2.11,2.11,0,1,0,0-4.2Zm-.4,3.09H79.61v-2h1.12c.66,0,1.27.15,1.27,1S81.39,26.26,80.73,26.26ZM87.22,23A3.18,3.18,0,0,0,84,26.48a3.22,3.22,0,1,0,6.43,0A3.18,3.18,0,0,0,87.22,23Zm0,5.65c-1.29,0-1.77-1.1-1.77-2.19s.48-2.25,1.77-2.25S89,25.33,89,26.48,88.52,28.67,87.22,28.67Zm11-3.49a2,2,0,0,0-2.2-2,2.28,2.28,0,0,0-2.33,2.6h1.25c0-.68.24-1.48,1-1.48a.93.93,0,0,1,1,1c0,.79-.79,1.18-1.35,1.57-1.11.76-2,1.38-2,2.87h4.72V28.6h-3C96.15,27.28,98.21,27.13,98.21,25.18Zm2.77-2c-1.28,0-2.35.81-2.35,3.31s1.07,3.37,2.35,3.37,2.36-.81,2.36-3.37S102.26,23.17,101,23.17Zm0,5.61c-1,0-1-1.57-1-2.3s0-2.23,1-2.23S102,25.82,102,26.48,102,28.78,101,28.78Zm7.42-3.6a2,2,0,0,0-2.2-2,2.29,2.29,0,0,0-2.33,2.6h1.25c0-.68.25-1.48,1-1.48a.92.92,0,0,1,1,1c0,.79-.79,1.18-1.35,1.57-1.11.76-2,1.38-2,2.87h4.71V28.6h-3C106.34,27.28,108.4,27.13,108.4,25.18Zm2.79-1.88c-.15,1-1,1.3-1.88,1.28v1h1.61v4.16h1.31V23.3Z"/><path class="cls-3" d="M46.44,11.88l-1.95,0c-.08,0-.13,0-.15,0a.4.4,0,0,1,0-.15V10.46c0-.08,0-.12,0-.14l.14,0,1.95,0h3.5c0-.42.06-1.12.08-2.07V7.9a12.25,12.25,0,0,0-.08-1.42c.81,0,1.4.07,1.76.12.19,0,.28.12.28.22a.74.74,0,0,1-.09.32,2.87,2.87,0,0,0-.14,1.07c0,1,0,1.67-.09,2.12h4l2,0c.08,0,.13,0,.14,0s0,.06,0,.13v1.26c0,.09,0,.15,0,.16a.19.19,0,0,1-.13,0l-2,0H52a10.79,10.79,0,0,0,2.46,4.25,9.83,9.83,0,0,0,3.67,2.43,4.49,4.49,0,0,0-.89,1.15c-.14.25-.25.38-.33.38a1.15,1.15,0,0,1-.35-.16,11.49,11.49,0,0,1-5.45-6.18,10,10,0,0,1-.58,1.47A10.34,10.34,0,0,1,45.58,20a1.52,1.52,0,0,1-.37.12c-.09,0-.2-.12-.35-.35a4.86,4.86,0,0,0-.88-1,8.83,8.83,0,0,0,5-4.21,9.48,9.48,0,0,0,.82-2.71Z"/><path class="cls-3" d="M60.2,15.59l-2,0c-.12,0-.17,0-.17-.15v-1q0-.13,0-.15s.06,0,.14,0l2,0h3.86l2,0c.09,0,.15,0,.16,0s0,.06,0,.14v1c0,.07,0,.11,0,.13a.4.4,0,0,1-.15,0l-2,0ZM59.73,6.5a10.63,10.63,0,0,1,1,1.59.58.58,0,0,1,.05.13s-.07.08-.19.13l-.93.42-.19.06s-.08,0-.12-.14a9,9,0,0,0-.91-1.58A.22.22,0,0,1,58.37,7s.06-.1.18-.15l.86-.39.18,0S59.68,6.44,59.73,6.5Zm3.53,2.21a9.75,9.75,0,0,0,.83-1.58,7.63,7.63,0,0,0,.26-.81,9.06,9.06,0,0,1,1.41.38q.18.08.18.21a.31.31,0,0,1-.14.25,1.52,1.52,0,0,0-.3.42,12.62,12.62,0,0,1-.71,1.28l-.1.17c.21,0,.43,0,.64,0h.22q.14,0,.15,0a.19.19,0,0,1,0,.13l0,1.31v1.74l0,1.31c0,.09,0,.14,0,.16s-.07,0-.15,0l-1.89,0H60.73l-1.9,0c-.08,0-.13,0-.14,0s0-.07,0-.15l0-1.31V10.47l0-1.31c0-.08,0-.13,0-.14s.06,0,.13,0l1.9,0h3.45l-.05,0A3.39,3.39,0,0,0,63.26,8.71Zm4.49-2.36c.57,0,1.1.05,1.58.1.16,0,.24.08.24.16a1,1,0,0,1-.1.35,5.18,5.18,0,0,0-.11,1.46c0,.81,0,1.49-.06,2.05h.79l1.66,0c.08,0,.13,0,.14,0s0,.07,0,.14v1.13a.24.24,0,0,1,0,.15s-.06,0-.13,0l-1.66,0h-.68a12.51,12.51,0,0,0,2.9,6.92,4.33,4.33,0,0,0-.82,1.13c-.09.16-.18.24-.25.24s-.16-.06-.26-.2a12.35,12.35,0,0,1-2.25-5.84A12.91,12.91,0,0,1,66.48,20c-.13.15-.22.23-.28.23s-.16-.1-.28-.29A3.26,3.26,0,0,0,65.2,19l0,1a.24.24,0,0,1,0,.15.31.31,0,0,1-.13,0H64c-.08,0-.13,0-.15,0a.27.27,0,0,1,0-.13v-.37H60.54v.49a.24.24,0,0,1,0,.15.4.4,0,0,1-.15,0h-1.1a.24.24,0,0,1-.15,0,.37.37,0,0,1,0-.14l0-1.92v-.69l0-1.08q0-.14,0-.15s.07,0,.14,0l1.73,0h2.34l1.73,0q.14,0,.15,0s0,.06,0,.14l0,.92v1.54a8.28,8.28,0,0,0,1.76-3,16.68,16.68,0,0,0,.77-4l-1.46,0a.24.24,0,0,1-.15,0s0-.06,0-.14V10.61a.24.24,0,0,1,0-.15.4.4,0,0,1,.15,0l1.55,0c0-.67.05-1.39.05-2.16A16.11,16.11,0,0,0,67.75,6.35Zm-7.69,4.5h1.47V10H60.06Zm0,1.8h1.47v-.82H60.06Zm.48,4.81v1h3.27v-1Zm1.62-11.1A7.4,7.4,0,0,1,63,8a.29.29,0,0,1,0,.09s-.06.09-.18.14L62,8.56a.62.62,0,0,1-.18,0c-.05,0-.1,0-.15-.16a10.77,10.77,0,0,0-.79-1.56.24.24,0,0,1,0-.12s.05-.09.15-.13l.87-.34.17,0S62.11,6.29,62.16,6.36ZM64.35,10h-1.5v.81h1.5Zm0,2.61v-.82h-1.5v.82Zm6.34-5.46a10.18,10.18,0,0,1,1.1,2,.31.31,0,0,1,0,.12s-.06.1-.17.16l-.79.38a.38.38,0,0,1-.18.07s-.07,0-.11-.13a9.31,9.31,0,0,0-1-2,.28.28,0,0,1,0-.12s.06-.09.19-.16l.69-.35a.26.26,0,0,1,.14-.05S70.64,7.13,70.69,7.19Z"/><path class="cls-3" d="M74.39,8.39v9.79h9l2.11,0c.08,0,.12,0,.14,0a.33.33,0,0,1,0,.14v1.21c0,.08,0,.13,0,.14s-.06,0-.13,0l-2.11,0h-9v.5c0,.08,0,.13,0,.14a.32.32,0,0,1-.16,0H72.9a.33.33,0,0,1-.14,0,.22.22,0,0,1,0-.14l0-3.26V10.28l0-3.24c0-.08,0-.13,0-.14a.24.24,0,0,1,.15,0l2,0h8.42l2,0a.24.24,0,0,1,.15,0,.37.37,0,0,1,0,.14V8.26c0,.08,0,.12,0,.14l-.14,0-2,0Zm3,5.65-2.1,0a.24.24,0,0,1-.15,0s0-.07,0-.14v-1c0-.1,0-.15.17-.15l2.1,0h1.67a11.69,11.69,0,0,0,.13-1.56H77.5a8.91,8.91,0,0,1-.8,1c-.15.17-.26.25-.34.25s-.19-.09-.38-.26a3.34,3.34,0,0,0-.82-.55,8.66,8.66,0,0,0,1.73-2.14,4,4,0,0,0,.36-1,8.82,8.82,0,0,1,1.35.35c.13.05.2.11.2.19a.31.31,0,0,1-.13.22,1,1,0,0,0-.26.43,1.76,1.76,0,0,1-.12.2h3.77l1.93,0a.24.24,0,0,1,.15,0,.19.19,0,0,1,0,.13v1a.28.28,0,0,1,0,.16.4.4,0,0,1-.15,0l-1.93,0H80.72a12.56,12.56,0,0,1-.14,1.56h2.19l2.1,0c.09,0,.14,0,.16,0a.17.17,0,0,1,0,.12v1a.22.22,0,0,1,0,.15.4.4,0,0,1-.15,0l-2.1,0H81.08a7,7,0,0,0,4.23,2.37,6.1,6.1,0,0,0-.64,1.06c-.09.23-.18.34-.27.34a2.24,2.24,0,0,1-.36-.08A7.14,7.14,0,0,1,80,14.82a6.25,6.25,0,0,1-3.79,2.91l-.36.11c-.09,0-.19-.11-.29-.34a3.29,3.29,0,0,0-.73-.92,8.92,8.92,0,0,0,2.65-1.13A3.58,3.58,0,0,0,78.67,14Z"/><path class="cls-3" d="M98.18,11.1a9.87,9.87,0,0,1,.9.6.29.29,0,0,1,.14.21c0,.09,0,.15-.16.18a1.86,1.86,0,0,0-.45.33l-.4.33a8.78,8.78,0,0,0,2,.81,3.34,3.34,0,0,0-.51.84c-.11.25-.2.38-.28.38a1.37,1.37,0,0,1-.38-.13A10,10,0,0,1,97.85,14v1.49l0,1.24a.22.22,0,0,1,0,.14s-.08,0-.16,0l-2,0h-.49v.66l0,1.46a1,1,0,0,1-.52,1,3.16,3.16,0,0,1-1.45.23h-.41c-.15,0-.24,0-.28-.09a1.38,1.38,0,0,1-.11-.37,3.19,3.19,0,0,0-.32-.91,8.5,8.5,0,0,0,1,.06.63.63,0,0,0,.46-.12.47.47,0,0,0,.09-.33V16.9H93.1l-2,0c-.08,0-.13,0-.14,0s0-.06,0-.13l0-1.41v-1.1l-.79.52a.67.67,0,0,1-.27.12s-.12-.07-.21-.22l-.37-.48A14.87,14.87,0,0,1,89,16.32a9.84,9.84,0,0,1-1.53,3.55c-.13.18-.23.27-.29.27s-.17-.09-.3-.27a3.36,3.36,0,0,0-.87-.83,7.26,7.26,0,0,0,1.61-3.33c.07-.33.13-.69.18-1.09q-.28.18-.87.48a1.42,1.42,0,0,0-.47.31.31.31,0,0,1-.23.12c-.1,0-.16-.06-.19-.17-.13-.36-.26-.82-.4-1.38a8.41,8.41,0,0,0,1.23-.39,9.15,9.15,0,0,0,1-.49c0-.77,0-1.44,0-2l0-3.47a.29.29,0,0,1,0-.17.31.31,0,0,1,.13,0l2.12,0H93V7.34a5.81,5.81,0,0,0-.12-1.17c.48,0,1,0,1.64.07.17,0,.25.07.25.17a.84.84,0,0,1-.1.28,1.63,1.63,0,0,0-.07.59v.17h2.94l2.08,0c.08,0,.13,0,.15,0a.42.42,0,0,1,0,.15v1a.3.3,0,0,1,0,.14.22.22,0,0,1-.14,0l-2.08,0H93.63c.44.06.85.13,1.22.21.17,0,.25.09.25.18a.4.4,0,0,1-.14.28,1.62,1.62,0,0,0-.34.51h2.66l2.11,0a.24.24,0,0,1,.15,0,.31.31,0,0,1,0,.13V11c0,.1-.06.15-.17.15l-2.11,0h-1a5,5,0,0,0,1,1,7.44,7.44,0,0,0,.58-.53A2.53,2.53,0,0,0,98.18,11.1ZM87,9a16.93,16.93,0,0,1,.88,2.24.89.89,0,0,1,0,.11c0,.06-.06.13-.18.2l-.67.39a.53.53,0,0,1-.2.08s-.08,0-.11-.12a17,17,0,0,0-.86-2.33.31.31,0,0,1,0-.12s.05-.08.17-.14l.69-.35a.38.38,0,0,1,.18-.07S87,8.88,87,9ZM91.53,17l1,.54c.13.08.19.16.19.25s-.07.15-.2.23a1.67,1.67,0,0,0-.34.29,7.93,7.93,0,0,1-1.86,1.42.89.89,0,0,1-.36.15c-.07,0-.19-.1-.37-.3a3.58,3.58,0,0,0-.73-.69,7.7,7.7,0,0,0,2-1.19A2.47,2.47,0,0,0,91.53,17Zm.62-5.94-2.12,0c-.11,0-.17,0-.17-.15v-.91c0-.08,0-.13,0-.14s.07,0,.14,0l2.12,0h1a4.47,4.47,0,0,0,.35-1.18H89.41v2.62c0,1,0,1.73-.07,2.34a11.76,11.76,0,0,0,1.35-.83,8.09,8.09,0,0,0-.86-.91.22.22,0,0,1-.06-.12s0-.09.12-.16l.53-.45a.25.25,0,0,1,.15-.07.17.17,0,0,1,.14.07,10.76,10.76,0,0,1,.9.88,5.72,5.72,0,0,0,.89-1Zm4.3,2.41H92.29v.69h4.16Zm0,2.36v-.64H92.29v.64Zm-.63-3.46a6.3,6.3,0,0,1-.95-1.31H94a8.53,8.53,0,0,1-.93,1.31Zm1.27,4.82a7.62,7.62,0,0,0,2.51,1.47,4.16,4.16,0,0,0-.65.84c-.15.24-.27.35-.34.35a1.6,1.6,0,0,1-.37-.15A10.14,10.14,0,0,1,96,18a.19.19,0,0,1-.07-.13c0-.05,0-.1.14-.16l.69-.48a.68.68,0,0,1,.19-.1A.24.24,0,0,1,97.09,17.21Z"/><path class="cls-3" d="M102.61,15.92a11,11,0,0,1-1.38,3.91c-.12.2-.21.31-.26.31s-.12-.09-.26-.27a4,4,0,0,0-1-.89,8.26,8.26,0,0,0,1.4-3.6,34.15,34.15,0,0,0,.29-5.12l0-3.23c0-.09,0-.14,0-.16s.06,0,.14,0l2.08,0h7.08l2.1,0a.22.22,0,0,1,.15,0A.4.4,0,0,1,113,7l0,1.08V9.26l0,1.08q0,.13,0,.15a.22.22,0,0,1-.14,0l-2.1,0H103v.87A27.56,27.56,0,0,1,102.61,15.92Zm2.59-1.42h.32V13.28l-1.84,0c-.08,0-.13,0-.14,0a.22.22,0,0,1,0-.14v-1c0-.08,0-.13,0-.14a.22.22,0,0,1,.14,0l1.84,0a7.21,7.21,0,0,0-.09-1.25c.47,0,.95.05,1.44.1.17,0,.26.08.26.19a.61.61,0,0,1-.09.26,1.93,1.93,0,0,0-.09.7H109a6.18,6.18,0,0,0-.09-1.25c.46,0,.94.05,1.43.1.18,0,.27.08.27.17a.6.6,0,0,1-.09.28,1.75,1.75,0,0,0-.09.7l1.91,0c.08,0,.13,0,.14,0a.22.22,0,0,1,0,.14v1a.24.24,0,0,1,0,.15.22.22,0,0,1-.14,0l-1.91,0V14.5h.9l2.1,0a.24.24,0,0,1,.15,0,.37.37,0,0,1,0,.14v1a.22.22,0,0,1,0,.14s-.06,0-.14,0l-1.9,0a5.65,5.65,0,0,1,.87.54q.15.11.15.21c0,.07,0,.13-.16.19a1.48,1.48,0,0,0-.45.34c-.31.28-.64.55-1,.81a9.56,9.56,0,0,0,3,.91,3.62,3.62,0,0,0-.61,1,2.36,2.36,0,0,1-.16.36.2.2,0,0,1-.17.08l-.33-.06a8,8,0,0,1-5.39-4.38h-1.27v2.55c1-.17,1.85-.33,2.54-.5a8.19,8.19,0,0,0-.13.89.88.88,0,0,1-.12.48,1.1,1.1,0,0,1-.39.12c-1.31.3-2.61.55-3.88.77a1.34,1.34,0,0,0-.49.12.78.78,0,0,1-.28.09q-.15,0-.21-.21l-.33-1.43a14.35,14.35,0,0,0,1.48-.09l.32,0V15.8l-1.06,0h-.33a.14.14,0,0,1-.16-.16v-1c0-.11,0-.17.16-.17Zm6.15-5.27v-1H103v1ZM107,14.5H109V13.28H107Zm3,2.64a8.07,8.07,0,0,0,1-.91,5.36,5.36,0,0,0,.33-.43h-2.37A5.37,5.37,0,0,0,109.92,17.14Z"/><path class="cls-1" d="M9.86,21.09a.37.37,0,0,0-.19.25l-.54,1.71H9l-.52-1.66c-.08-.26-.14-.32-.3-.32V21h.88v.08c-.08,0-.23,0-.23.13a1,1,0,0,0,0,.12l.37,1.19.36-1.17a.52.52,0,0,0,0-.14c0-.13-.15-.13-.28-.13V21H10v.08A.24.24,0,0,0,9.86,21.09Z"/><path class="cls-1" d="M11.74,23.05H10.12V23c.19,0,.25,0,.25-.22V21.29c0-.2,0-.22-.25-.22V21h1.57l.05.69h-.07a.87.87,0,0,0-.25-.47.62.62,0,0,0-.42-.14c-.21,0-.26.08-.26.22V22h.15c.08,0,.29,0,.31-.39h.07v.91H11.2c0-.37-.2-.44-.31-.44h-.15v.73c0,.14.06.22.26.22a.63.63,0,0,0,.51-.24.9.9,0,0,0,.18-.43h.07Z"/><path class="cls-1" d="M13.4,21.74a1,1,0,0,0-.15-.42.42.42,0,0,0-.39-.25v1.69c0,.19.09.22.3.22v.07h-1V23c.21,0,.3,0,.3-.22V21.07a.42.42,0,0,0-.38.24.82.82,0,0,0-.14.43h-.08l0-.75h1.5l0,.75Z"/><path class="cls-1" d="M14.43,23.08a.56.56,0,0,1-.37-.13.39.39,0,0,0-.14-.05.18.18,0,0,0-.17.15h-.07v-.77h.07a1,1,0,0,0,.32.57.56.56,0,0,0,.38.15.38.38,0,0,0,.4-.38.34.34,0,0,0-.27-.33l-.39-.13a.64.64,0,0,1-.51-.61.56.56,0,0,1,.58-.58.57.57,0,0,1,.35.12.47.47,0,0,0,.15.06c.07,0,.11-.1.12-.16H15v.74h-.07a1.07,1.07,0,0,0-.21-.46.52.52,0,0,0-.41-.22.37.37,0,0,0-.39.35c0,.21.16.28.54.39s.66.21.66.66A.61.61,0,0,1,14.43,23.08Z"/><path class="cls-1" d="M9.81,25.58H8.18v-.07c.19,0,.25,0,.25-.22V23.81c0-.19,0-.21-.25-.22v-.07H9.75l.05.68H9.73a.78.78,0,0,0-.25-.46.59.59,0,0,0-.41-.15c-.22,0-.27.09-.27.22v.67H9c.08,0,.29,0,.31-.39h.07V25H9.26c0-.37-.2-.45-.31-.45H8.8v.74c0,.13.06.22.26.22a.63.63,0,0,0,.51-.24.84.84,0,0,0,.18-.43h.07Z"/><path class="cls-1" d="M11.05,25.58v-.07c.06,0,.18,0,.18-.1a.19.19,0,0,0,0-.09l-.33-.6-.37.51a.3.3,0,0,0,0,.14c0,.13.19.14.27.14v.07H10v-.07c.18,0,.24,0,.39-.22l.45-.64-.47-.86a.36.36,0,0,0-.32-.2v-.07h.88v.07c-.06,0-.18,0-.18.09a.45.45,0,0,0,0,.08l.31.55.35-.49a.21.21,0,0,0,0-.11c0-.11-.16-.11-.24-.12v-.07h.67v.07a.37.37,0,0,0-.36.2l-.42.59.52.94a.32.32,0,0,0,.31.19v.07Z"/><path class="cls-1" d="M13.59,24.42a.77.77,0,0,1-.6.19h-.31v.67c0,.2.07.23.29.23v.07h-.91v-.07c.17,0,.25,0,.25-.23V23.82c0-.2-.05-.22-.25-.23v-.07h1a.57.57,0,0,1,.64.53A.52.52,0,0,1,13.59,24.42Zm-.66-.83c-.21,0-.25.06-.25.23v.72H13c.3,0,.35-.28.35-.47S13.24,23.59,12.93,23.59Z"/><path class="cls-1" d="M14.81,25.61a1,1,0,0,1-.89-1.06,1,1,0,0,1,.89-1.05,1,1,0,0,1,.87,1.05A1,1,0,0,1,14.81,25.61Zm0-2c-.38,0-.47.48-.47,1s.08,1,.47,1,.46-.53.46-1S15.19,23.57,14.81,23.57Z"/><path class="cls-1" d="M9.06,27.15c-.29.32-.3.32-.56.63H9a.29.29,0,0,0,.32-.19h.07l-.08.52H8.26v-.18l.46-.66A1.28,1.28,0,0,0,9,26.6a.27.27,0,0,0-.29-.28.43.43,0,0,0-.4.34l-.07,0a1.11,1.11,0,0,1,.1-.31.56.56,0,0,1,.49-.3.52.52,0,0,1,.55.51C9.41,26.68,9.37,26.81,9.06,27.15Z"/><path class="cls-1" d="M10.87,28.14c-.33,0-.58-.37-.58-1.06s.26-1.06.58-1.06.57.36.57,1.06S11.18,28.14,10.87,28.14Zm.07-2s0,0-.07,0-.12.12-.12.15a5.41,5.41,0,0,0-.07.93c0,.16,0,.88.19.88s.11-.12.12-.15a4.24,4.24,0,0,0,.07-.83A2.53,2.53,0,0,0,10.94,26.15Z"/><path class="cls-1" d="M13.13,27.15l-.56.63h.52c.11,0,.26,0,.32-.19h.07l-.08.52H12.33v-.18c.11-.16.24-.33.46-.66a1.28,1.28,0,0,0,.31-.67.27.27,0,0,0-.29-.28.43.43,0,0,0-.4.34l-.06,0a.82.82,0,0,1,.09-.31.57.57,0,0,1,.5-.3.51.51,0,0,1,.54.51C13.48,26.68,13.44,26.81,13.13,27.15Z"/><path class="cls-1" d="M14.48,28.11V28c.18,0,.28,0,.28-.22V26.39c0-.18-.06-.21-.19-.21h-.06v-.07l.61-.09v1.8c0,.18.1.22.28.22v.07Z"/></g></g></svg>