<svg xmlns="http://www.w3.org/2000/svg" viewBox="0 0 177.05 183.1"><defs><style>.cls-1{fill:#6d5231;}.cls-2{fill:#fb0;}.cls-3,.cls-5{fill:none;stroke-linecap:round;stroke-linejoin:round;}.cls-3{stroke:#fff;stroke-width:2.53px;}.cls-4{fill:#b0bf1e;}.cls-5{stroke:#fb0;stroke-width:3.17px;}</style></defs><title>Asset 1</title><g id="Layer_2" data-name="Layer 2"><g id="Layer_2-2" data-name="Layer 2"><path class="cls-1" d="M22.69,183l-3.56-1.42L17.71,180a5.26,5.26,0,0,1-.95-2,10.21,10.21,0,0,1-.24-2.25,7.18,7.18,0,0,1,1.19-4.12,25.87,25.87,0,0,1,3.55-4,10.06,10.06,0,0,1,4.42-2.25,22.07,22.07,0,0,1,5.13-.6q.77-8.06-.48-22.58l1.42-2.66a3.66,3.66,0,0,1,1.43-.6,11.33,11.33,0,0,1,1.66-.11,4.18,4.18,0,0,1,2.37,2.43v5.69l6.66.94a20.09,20.09,0,0,1,6.2,1.9,3.74,3.74,0,0,1,.59,1.42,10.16,10.16,0,0,1,.12,1.66,3.73,3.73,0,0,1-1,1.42,3.58,3.58,0,0,1-1.42.95l-3.32.24-7.88-1.66a74.52,74.52,0,0,1,.71,11.44c1.74.16,3.44.35,5.12.59a6.52,6.52,0,0,1,4.18,2.31,3.68,3.68,0,0,1,.6,1.42,11.53,11.53,0,0,1,.11,1.66,4.23,4.23,0,0,1-2.37,2.37H43.19a15.73,15.73,0,0,0-2.9-1.06,12.57,12.57,0,0,0-3.08-.36,21.36,21.36,0,0,1-1.43,4.51,11,11,0,0,1-2.84,3.79,38.79,38.79,0,0,1-4.89,2A12.44,12.44,0,0,1,22.69,183Zm7.17-11.14A2.1,2.1,0,0,0,27,170.52q-3.5,1.24-3.37,5.63a2,2,0,0,0,2.19,1C28.24,176.88,29.58,175.13,29.86,171.89Z"/><path class="cls-1" d="M72.5,183l-3.56-1.42L67.52,180a5.41,5.41,0,0,1-1-2,10.86,10.86,0,0,1-.23-2.25,7.18,7.18,0,0,1,1.18-4.12,26,26,0,0,1,3.56-4,10,10,0,0,1,4.41-2.25,22.07,22.07,0,0,1,5.13-.6q.76-8.06-.47-22.58l1.42-2.66a3.62,3.62,0,0,1,1.42-.6,11.43,11.43,0,0,1,1.66-.11A4.18,4.18,0,0,1,87,141.19v5.69l6.67.94a20.12,20.12,0,0,1,6.19,1.9,3.59,3.59,0,0,1,.59,1.42,10.16,10.16,0,0,1,.12,1.66,3.61,3.61,0,0,1-1,1.42,3.51,3.51,0,0,1-1.42.95l-3.32.24L87,153.75a74.52,74.52,0,0,1,.71,11.44c1.74.16,3.45.35,5.13.59A6.54,6.54,0,0,1,97,168.09a3.81,3.81,0,0,1,.59,1.42,10.16,10.16,0,0,1,.12,1.66,3.83,3.83,0,0,1-1,1.43,3.65,3.65,0,0,1-1.42.94H93a15.82,15.82,0,0,0-2.91-1.06,12.51,12.51,0,0,0-3.08-.36,21.93,21.93,0,0,1-1.42,4.51,10.87,10.87,0,0,1-2.85,3.79,38.79,38.79,0,0,1-4.89,2A12.42,12.42,0,0,1,72.5,183Zm7.17-11.14a2.09,2.09,0,0,0-2.84-1.37q-3.49,1.24-3.38,5.63a2,2,0,0,0,2.19,1C78.05,176.88,79.39,175.13,79.67,171.89Z"/><path class="cls-1" d="M132.1,182.61a17.86,17.86,0,0,1-6.9-2.28,43.29,43.29,0,0,1-6-4.18,10.18,10.18,0,0,1-1.18-2,3.6,3.6,0,0,1-.24-2.25,4.37,4.37,0,0,1,2.37-2.38h2.14a16.54,16.54,0,0,1,2.75,2.38,9.14,9.14,0,0,0,3,2.13,7.17,7.17,0,0,0,4.86,1.54,8,8,0,0,1,4.86,1.3,3.66,3.66,0,0,1,.6,1.43,10.55,10.55,0,0,1,.11,1.72,3.72,3.72,0,0,1-.94,1.42,3.83,3.83,0,0,1-1.43.95Zm8.83-10.49-2.66-1.48a3.45,3.45,0,0,1-.59-1.42,10.16,10.16,0,0,1-.12-1.66l.23-3.08H135l-5.22,1a3.88,3.88,0,0,1-1.42-1,3.83,3.83,0,0,1-1-1.43v-2.13a6,6,0,0,1,1.07-1.54,6,6,0,0,1,1.54-1.07l6.87-.94.24-1-1.42-4.57h-1.42l-10.73,1.66-2.61-1.42a2.16,2.16,0,0,1-.71-1.54v-1.78a4.39,4.39,0,0,1,2.37-2.37l7.41-1,.24-.95-.48-1.65,1.43-2.67a3.53,3.53,0,0,1,1.42-.59,10.08,10.08,0,0,1,1.66-.12,3.57,3.57,0,0,1,1.42,1,4,4,0,0,1,1,1.45l.95,1.42a23.93,23.93,0,0,0,2.4.36,2.6,2.6,0,0,1,1.92,1.06,3.68,3.68,0,0,1,.6,1.42,11.53,11.53,0,0,1,.11,1.66l-.47,1.9,1.66,4.5a23.51,23.51,0,0,1,2.37.12,2.63,2.63,0,0,1,1.9,1.07,2.37,2.37,0,0,1,.71,1.6v1.78a5.35,5.35,0,0,1-1.31,1.66,8.53,8.53,0,0,1-1.77,1.18l-.72.24a17.45,17.45,0,0,0-.23,5,5.23,5.23,0,0,1-1.42,4.32Zm4.39-25.19-1.13-.77-.77-6.81.77-1.13a3.5,3.5,0,0,1,4.21-.77c1,.52,1.67,1.65,1.93,3.41a11,11,0,0,1,0,4.18,3.45,3.45,0,0,1-2.1,1.86A5.6,5.6,0,0,1,145.32,146.93Zm10,0-1.13-.77-.77-6.81.77-1.13a3.5,3.5,0,0,1,4.21-.77c1,.52,1.67,1.65,1.92,3.41a10.83,10.83,0,0,1,0,4.18,3.44,3.44,0,0,1-2.11,1.86A5.57,5.57,0,0,1,155.28,146.93Z"/><path class="cls-2" d="M98.64,74.31c2.53,0,3.16-.64,3.16-2.54s-.63-5.06,3.17-8.86S116.36,54.68,117,42,109.23,12.9,90.76,12.9,63,26.73,63.27,38.85s4.42,17.2,9.12,21.63,5.64,5,6,8.51-.11,5.54,2.1,5.59S98.64,74.31,98.64,74.31Z"/><path class="cls-3" d="M88.14,74.5s2-14.13-14-28.79c0,0,14,9.23,29-8.36,0,0-11.18,12.89-7,37.84"/><circle class="cls-3" cx="86.12" cy="38.34" r="5.63"/><path class="cls-4" d="M92,93h-1.6c-4.18,0-7.75-2.72-8.43-6.42l-1.1-5.94a3.06,3.06,0,0,1,3.24-3.42H98.26a3.06,3.06,0,0,1,3.24,3.42l-1.1,5.94C99.72,90.32,96.15,93,92,93Z"/><line class="cls-5" x1="47.53" y1="46.77" x2="59.02" y2="46.77"/><line class="cls-5" x1="54.97" y1="19.14" x2="61.9" y2="24.08"/><line class="cls-5" x1="76.58" y1="1.58" x2="80.5" y2="9.92"/><line class="cls-5" x1="104.68" y1="2.62" x2="100.25" y2="10.8"/><line class="cls-5" x1="126.22" y1="20.69" x2="116.37" y2="25.04"/><line class="cls-5" x1="119.8" y1="45.47" x2="129.46" y2="46.77"/><path class="cls-4" d="M5.27,107.33a1.48,1.48,0,0,1,1.06.3,1.24,1.24,0,0,1,.44,1v1.12H8.41a1.33,1.33,0,0,1,.87.24,1.25,1.25,0,0,1,.31,1,1.57,1.57,0,0,1-.18.87,1.24,1.24,0,0,1-1,.37H5c0,.52,0,1,0,1.49H7.29a3.18,3.18,0,0,1,1.26.2,1.83,1.83,0,0,1,.36-.89,24.28,24.28,0,0,0,1.87-4.73,1,1,0,0,1,1.1-.82,1.76,1.76,0,0,1,1,.34,1,1,0,0,1,.43.94,5.48,5.48,0,0,1-.22,1.1h3.73a1.27,1.27,0,0,1,1,.29,1.49,1.49,0,0,1,.26,1,1.78,1.78,0,0,1-.2,1,1.22,1.22,0,0,1-.88.36,19.08,19.08,0,0,1-1.39,6.27c-.15.37-.31.73-.48,1.07a18.07,18.07,0,0,0,2.6,2.54,1.18,1.18,0,0,1,.42,1,1,1,0,0,1-.35.74,1.42,1.42,0,0,1-1.2.52,1.49,1.49,0,0,1-1-.39,13.87,13.87,0,0,1-2.11-2,11.53,11.53,0,0,1-2,1.86,1.77,1.77,0,0,1-1.3.48,1.53,1.53,0,0,1-1.54-1.09,1.52,1.52,0,0,1-.34.33,3.51,3.51,0,0,1-2.06.52H5.47a2,2,0,0,1-1-.22,1,1,0,0,1-.65-.67,2.58,2.58,0,0,1-.18-1,8.17,8.17,0,0,1-.6,1.36,1.51,1.51,0,0,1-1.39.74,1.51,1.51,0,0,1-1.3-.52,1.39,1.39,0,0,1-.35-.89,1.76,1.76,0,0,1,.24-.82A13,13,0,0,0,2,118a35.06,35.06,0,0,0,.31-5.64v-.08H1.8A1.21,1.21,0,0,1,1,112a1.1,1.1,0,0,1-.36-1A1.25,1.25,0,0,1,1,110a1.24,1.24,0,0,1,.85-.22H3.86v-1.12a1.52,1.52,0,0,1,.41-1A1.47,1.47,0,0,1,5.27,107.33ZM3.9,121.68a2.35,2.35,0,0,1,.57-.23H5a1.77,1.77,0,0,1,.3,0,3.2,3.2,0,0,0,.74.11.8.8,0,0,0,.5-.15,1,1,0,0,0,.3-.59c0-.75.07-2.19.07-4.3q0-.45-.42-.45H4.92a12.31,12.31,0,0,1-.3,2.21A24.45,24.45,0,0,1,3.9,121.68Zm5.27.61a16,16,0,0,0,2.67-2.49,19,19,0,0,1-1.54-3.45c-.05-.22-.09-.45-.13-.68a1.7,1.7,0,0,1,.05-.41,2.5,2.5,0,0,1-.4,0,1.13,1.13,0,0,1-.58-.16,23.46,23.46,0,0,1,.11,2.61,41.35,41.35,0,0,1-.17,4.4A.76.76,0,0,1,9.17,122.29Zm2-7.89a1.51,1.51,0,0,1,.46-.07.89.89,0,0,1,1,.74c.31.74.61,1.42.91,2a15.19,15.19,0,0,0,.85-4.63H12.13A21,21,0,0,1,11.19,114.4Z"/><path class="cls-4" d="M20.65,110.6h4.51a1.33,1.33,0,0,1,.93.26,1.1,1.1,0,0,1,.28.87,1.29,1.29,0,0,1-.23.82,1.2,1.2,0,0,1-1,.37H20.65a1.32,1.32,0,0,1-.91-.28,1.14,1.14,0,0,1-.29-.91,1.09,1.09,0,0,1,.29-.89A1.43,1.43,0,0,1,20.65,110.6Zm7.63-3H34.9a1.44,1.44,0,0,1,1.63,1.63v5.14A1.45,1.45,0,0,1,34.9,116H32.82v.81h2.9a1.33,1.33,0,0,1,.87.24,1.18,1.18,0,0,1,.24.86,1.21,1.21,0,0,1-.2.76,1.09,1.09,0,0,1-.91.37H33.45a27.09,27.09,0,0,0,3,2.6,1.91,1.91,0,0,1,.49.52.87.87,0,0,1,.27.66,1.13,1.13,0,0,1-.27.82,1.58,1.58,0,0,1-1.28.65,1,1,0,0,1-.71-.32,17,17,0,0,1-2.1-2.57v2a1,1,0,0,1-.33.89,1.25,1.25,0,0,1-1,.32,1.18,1.18,0,0,1-.87-.32,1.12,1.12,0,0,1-.3-.89V121a20.35,20.35,0,0,1-1.7,2.32,4.74,4.74,0,0,1-1,.86.89.89,0,0,1-.56.2,1.27,1.27,0,0,1-1.06-.67.35.35,0,0,0-.07-.09,1.07,1.07,0,0,1-1.17.69H21A1.12,1.12,0,0,1,19.74,123v-3.26A1.12,1.12,0,0,1,21,118.49h3.79a1.1,1.1,0,0,1,1.24,1.26V122a1.07,1.07,0,0,1,.39-.22,10.9,10.9,0,0,0,1.89-2c.24-.28.44-.54.6-.76H27.41a1.24,1.24,0,0,1-.86-.26,1.57,1.57,0,0,1,0-1.73,1.25,1.25,0,0,1,.86-.24h3V116H28.28a1.45,1.45,0,0,1-1.64-1.64v-5.14A1.45,1.45,0,0,1,28.28,107.63Zm-7.41.24H25a1,1,0,0,1,.7.21c.16.12.24.4.24.83a1.32,1.32,0,0,1-.13.71,1,1,0,0,1-.81.31H20.87a.86.86,0,0,1-1-1,1.1,1.1,0,0,1,.26-.85A1,1,0,0,1,20.87,107.87Zm.08,5.49H25a1.16,1.16,0,0,1,.8.23,1.09,1.09,0,0,1,.22.81,1.12,1.12,0,0,1-.18.71,1,1,0,0,1-.84.31H21a1.19,1.19,0,0,1-.8-.22,1.06,1.06,0,0,1-.24-.8,1,1,0,0,1,.24-.81A1.16,1.16,0,0,1,21,113.36Zm0,2.53H25a1.16,1.16,0,0,1,.8.22,1.55,1.55,0,0,1,0,1.52A1,1,0,0,1,25,118H21a1.19,1.19,0,0,1-.8-.23,1,1,0,0,1-.24-.79,1.07,1.07,0,0,1,.24-.82A1.16,1.16,0,0,1,21,115.89Zm2.45,6.31c.23,0,.35-.13.35-.39v-.89a.32.32,0,0,0-.35-.36h-1q-.39,0-.39.36v.89a.34.34,0,0,0,.39.39Zm5.49-11.38h1.48v-1H29.24c-.23,0-.35.13-.35.39Zm1.48,3.05v-1H28.89v.67a.32.32,0,0,0,.35.36Zm2.45-4.09v1h1.49v-.65a.34.34,0,0,0-.39-.39Zm1.1,4.09q.39,0,.39-.36v-.67H32.82v1Z"/><path class="cls-4" d="M42.6,107.56a1.77,1.77,0,0,1,1,.4,1.13,1.13,0,0,1,.54,1,1.69,1.69,0,0,1-.2.82,14.3,14.3,0,0,1-3.18,3.6,1.37,1.37,0,0,1-1,.39,1.66,1.66,0,0,1-1.19-.52,1.58,1.58,0,0,1-.37-1,1.13,1.13,0,0,1,.35-.6,5.87,5.87,0,0,0,.89-.79A27,27,0,0,0,42,108,1.07,1.07,0,0,1,42.6,107.56Zm6.31-.36a1.24,1.24,0,0,1,.8.26,1.22,1.22,0,0,1,.55,1.08,1.77,1.77,0,0,1-.22.82,8.47,8.47,0,0,1-1.63,1.74c.2.19.39.39.59.61a21.5,21.5,0,0,0,2.75-3.1,1.44,1.44,0,0,1,1-.46,1.19,1.19,0,0,1,.88.35,1,1,0,0,1,.53.86,1.51,1.51,0,0,1-.39,1c-.29.35-.61.7-.94,1l.17-.09a1.87,1.87,0,0,1,.64-.13,1.36,1.36,0,0,1,1.12.43,8.66,8.66,0,0,1,1,2.08,5.5,5.5,0,0,1,.34,1.63,1,1,0,0,1-.32.83,1.44,1.44,0,0,1-1.09.45,1.47,1.47,0,0,1-.91-.24.62.62,0,0,1-.26-.43l-.17-.48q-1,.09-2.19.15c-.73.06-1.48.1-2.26.13-.14.27-.28.56-.41.87h4.49c1.35,0,2,.59,2,1.78,0,.89-.7,1.91-2.11,3l-.17.1a17.38,17.38,0,0,0,2.21.57c.69.09,1,.41,1,1a1.7,1.7,0,0,1-.32,1c-.17.39-.56.58-1.17.58a8.37,8.37,0,0,1-2.47-.59,12.65,12.65,0,0,1-2.17-1,20.16,20.16,0,0,1-2.47,1,7.19,7.19,0,0,1-1.87.51,1.18,1.18,0,0,1-1-.54,1.12,1.12,0,0,1-.28-.74,1,1,0,0,1,.46-1c1-.34,1.9-.64,2.69-.93A17.81,17.81,0,0,1,46,120.3l-.11.12a2,2,0,0,1-1.17.37,1.27,1.27,0,0,1-.93-.41,1.12,1.12,0,0,1-.35-.95,1.92,1.92,0,0,1,.35-1,14.63,14.63,0,0,0,2.41-2.6h-.54a1.29,1.29,0,0,1-.9-.27,1.14,1.14,0,0,1-.32-.77A14,14,0,0,1,43,116.61v6.83a1.14,1.14,0,0,1-1.28,1.28,1.17,1.17,0,0,1-.89-.3,1.2,1.2,0,0,1-.35-1v-4.6a2,2,0,0,1-.6.09,1.51,1.51,0,0,1-1.55-1.56,1,1,0,0,1,.35-.59c.42-.31.8-.61,1.13-.89a31.1,31.1,0,0,0,3.1-3.14,1.43,1.43,0,0,1,.83-.44,1.51,1.51,0,0,1,.86.35,1,1,0,0,1,.46.78v.09a3.1,3.1,0,0,1,.67-.09h1.35a23.18,23.18,0,0,0-2.37-1.8,1.45,1.45,0,0,1-.54-1.11,1.25,1.25,0,0,1,.35-.9,1.37,1.37,0,0,1,.93-.37,1.83,1.83,0,0,1,1,.32A16,16,0,0,0,47.8,108l.29-.39A1.27,1.27,0,0,1,48.91,107.2ZM48,118.69a11.94,11.94,0,0,0,2,1.61l.13-.07c1-.54,1.54-1,1.54-1.3,0-.16-.13-.24-.38-.24Zm4.46-5.4c-.07-.17-.14-.35-.23-.52a1.42,1.42,0,0,1,0-.31,1.35,1.35,0,0,1,.13-.52,20.64,20.64,0,0,1-1.64,1.42C51.32,113.35,51.9,113.33,52.44,113.29Z"/><path class="cls-4" d="M59.3,112.92h5.34a1.34,1.34,0,0,1,.36-1,1.1,1.1,0,0,1,.79-.34.94.94,0,0,1-.25-.66.83.83,0,0,1,.09-.36,1.61,1.61,0,0,1-.37,0H63.74a2.14,2.14,0,0,1,.48,1,.73.73,0,0,1-.39.72,1.33,1.33,0,0,1-1,.34.94.94,0,0,1-.89-.6c-.3-.49-.59-.95-.88-1.37a7.5,7.5,0,0,1-.85,1.3,1.07,1.07,0,0,1-1,.59,1.48,1.48,0,0,1-1-.37,1,1,0,0,1-.5-.91,1.28,1.28,0,0,1,.2-.59,11.48,11.48,0,0,0,1.51-2.6c.19-.54.5-.82.9-.82a1.81,1.81,0,0,1,1.14.36.91.91,0,0,1,.42.85h3.42a1,1,0,0,1,.76.22,1.27,1.27,0,0,1,.2.82.39.39,0,0,1,0,.15,8.88,8.88,0,0,0,.89-1.58c.21-.54.51-.82.89-.82a1.76,1.76,0,0,1,1.15.36.93.93,0,0,1,.41.85h4a1,1,0,0,1,.76.22,1.15,1.15,0,0,1,.22.82,1.24,1.24,0,0,1-.18.74,1,1,0,0,1-.8.28H72a2.18,2.18,0,0,1,.49,1,.73.73,0,0,1-.39.72,1.37,1.37,0,0,1-1,.34.9.9,0,0,1-.87-.6c-.34-.54-.66-1-1-1.5h-.44a4.94,4.94,0,0,1-.69,1,.94.94,0,0,1-.67.56,2.07,2.07,0,0,1,.17.8H73a1.21,1.21,0,0,1,.76.2,1.1,1.1,0,0,1,.2.75,1,1,0,0,1-.17.66,1,1,0,0,1-.79.3H67.56v.84h6.07a1.17,1.17,0,0,1,.81.22c.16.11.24.36.24.74a1.15,1.15,0,0,1-.18.7,1.06,1.06,0,0,1-.87.34H71.81a2.05,2.05,0,0,1,0,.37v.37h1.58a1.22,1.22,0,0,1,.8.21,1,1,0,0,1,.22.74,1.15,1.15,0,0,1-.18.72,1,1,0,0,1-.84.34H71.84v2.07a2.09,2.09,0,0,1-.72,1.65,2.87,2.87,0,0,1-2.08.73,8.58,8.58,0,0,1-2.3-.3,1.29,1.29,0,0,1-.67-1.2c0-.85.32-1.32,1-1.41a.35.35,0,0,1,.18.05,4.45,4.45,0,0,0,1,.19c.43,0,.65-.2.65-.6v-1.18H62.27a12.48,12.48,0,0,1,2.37,1.46,1.06,1.06,0,0,1,.47.82,1.51,1.51,0,0,1-.26.87,1.11,1.11,0,0,1-.95.56,1.28,1.28,0,0,1-.61-.15,1.92,1.92,0,0,1-.5-.28c-.74-.55-1.55-1.08-2.41-1.62a.35.35,0,0,1-.26-.2.8.8,0,0,1-.36-.74,1.12,1.12,0,0,1,.26-.72H58.87a1.09,1.09,0,0,1-.79-.26,1,1,0,0,1-.26-.8.86.86,0,0,1,.26-.74,1.19,1.19,0,0,1,.79-.21h10V118a.82.82,0,0,1,.07-.37H58.65a1.19,1.19,0,0,1-.8-.24,1.07,1.07,0,0,1-.26-.8.94.94,0,0,1,.26-.76,1.22,1.22,0,0,1,.8-.2h6v-.84H59.3a1.05,1.05,0,0,1-.72-.22.91.91,0,0,1-.24-.74,1,1,0,0,1,.24-.75A1.12,1.12,0,0,1,59.3,112.92Z"/><path class="cls-4" d="M92.12,114.72a1.35,1.35,0,0,1-.35,1,1.42,1.42,0,0,1-1,.37H86.24a8.83,8.83,0,0,1-1.87,5.25,9,9,0,0,1-4.12,2.45,1.36,1.36,0,0,1-.58.09,1.4,1.4,0,0,1-.26-2.71,6.52,6.52,0,0,0,2.81-1.6A5.51,5.51,0,0,0,83.46,116h-6a1.4,1.4,0,0,1-1.08-.45,1.2,1.2,0,0,1-.31-.87,1.36,1.36,0,0,1,.35-.93,1.39,1.39,0,0,1,1-.37H90.75a1.45,1.45,0,0,1,1.06.41A1.19,1.19,0,0,1,92.12,114.72Zm-3.22-4.9a1.26,1.26,0,0,1-.36.91,1.3,1.3,0,0,1-1,.41H80a1.3,1.3,0,0,1-1-.43,1.3,1.3,0,0,1,0-1.8,1.34,1.34,0,0,1,1-.37h7.48a1.46,1.46,0,0,1,1.06.39A1.29,1.29,0,0,1,88.9,109.82Zm2.31.13a.6.6,0,0,1-.24.48.86.86,0,0,1-.53.19.79.79,0,0,1-.71-.39c-.16-.27-.44-.71-.85-1.32a1.77,1.77,0,0,1-.32-.85c0-.46.29-.69.86-.69a1,1,0,0,1,.72.39,7.16,7.16,0,0,1,.94,1.49A1.75,1.75,0,0,1,91.21,110Zm2.31-.74c0,.44-.26.67-.77.67a.79.79,0,0,1-.72-.39c-.16-.28-.44-.72-.85-1.34a1.52,1.52,0,0,1-.35-.82c0-.47.29-.7.89-.7a.85.85,0,0,1,.68.39,6.83,6.83,0,0,1,1,1.52A1.7,1.7,0,0,1,93.52,109.21Z"/><path class="cls-4" d="M108.34,109.34a1.41,1.41,0,0,1-.39,1,40.79,40.79,0,0,1-4,3.66v8.59a1.28,1.28,0,0,1-.45,1,1.36,1.36,0,0,1-1,.31,1.43,1.43,0,0,1-.95-.33,1.35,1.35,0,0,1-.39-1V116a43,43,0,0,1-5.1,2.87,1.28,1.28,0,0,1-1.59-.31,1.4,1.4,0,0,1-.39-1,1.24,1.24,0,0,1,.79-1.23,35.72,35.72,0,0,0,11-7.94,1.41,1.41,0,0,1,.93-.45,1.36,1.36,0,0,1,1,.39A1.38,1.38,0,0,1,108.34,109.34Z"/><path class="cls-4" d="M125.65,113.12a1.39,1.39,0,0,1-.35.95,1.42,1.42,0,0,1-1,.35h-1.63v1.47a7.45,7.45,0,0,1-2.34,5.4,9.81,9.81,0,0,1-3.79,2.45,1.22,1.22,0,0,1-.5.11,1.19,1.19,0,0,1-1-.5,1.41,1.41,0,0,1-.37-1,1.3,1.3,0,0,1,.94-1.21,6.39,6.39,0,0,0,2.67-1.76,4.9,4.9,0,0,0,1.56-3.47v-1.47h-5v2.84a1.24,1.24,0,0,1-.5,1,1.54,1.54,0,0,1-1,.32,1.26,1.26,0,0,1-.89-.38,1.27,1.27,0,0,1-.39-1v-2.84h-1.63a1.37,1.37,0,0,1-1.06-.42,1.25,1.25,0,0,1-.32-.88,1.29,1.29,0,0,1,1.38-1.3h1.63v-2.09a1.22,1.22,0,0,1,.43-1,1.3,1.3,0,0,1,.94-.37,1.28,1.28,0,0,1,1,.33,1.35,1.35,0,0,1,.44,1.06v2.09h5v-2.07a1.25,1.25,0,0,1,.43-1,1.34,1.34,0,0,1,1-.36,1.38,1.38,0,0,1,1,.37,1.32,1.32,0,0,1,.41,1v2.07h1.63a1.42,1.42,0,0,1,1.06.41A1.34,1.34,0,0,1,125.65,113.12Z"/><path class="cls-4" d="M144.28,116a1.53,1.53,0,0,1-.33,1,1.23,1.23,0,0,1-1,.52h-14.7a1.27,1.27,0,0,1-1.05-.5,1.4,1.4,0,0,1-.34-.94,1.69,1.69,0,0,1,.35-1,1.27,1.27,0,0,1,1-.47h14.7a1.34,1.34,0,0,1,1,.47A1.47,1.47,0,0,1,144.28,116Z"/><path class="cls-4" d="M158.83,121.45a1.23,1.23,0,0,1-.28.88,1.28,1.28,0,0,1-.91.46,44.54,44.54,0,0,1-6.62.52,6.89,6.89,0,0,1-4.1-1,4.21,4.21,0,0,1-1.54-3.71v-8.84a1.29,1.29,0,0,1,.39-1,1.33,1.33,0,0,1,.94-.37,1.35,1.35,0,0,1,1,.33,1.26,1.26,0,0,1,.46,1v3a51.28,51.28,0,0,0,7.78-2.06,1.49,1.49,0,0,1,.76-.16,1.22,1.22,0,0,1,.89.5,1.42,1.42,0,0,1,.33,1,1.2,1.2,0,0,1-.78,1.13q-2,1-9,2.41v3.07c0,.87.24,1.44.71,1.68a6.4,6.4,0,0,0,2.17.23,43.72,43.72,0,0,0,6.19-.47,1.43,1.43,0,0,1,1.14.37A1.58,1.58,0,0,1,158.83,121.45Zm0-11.43a.59.59,0,0,1-.26.49.82.82,0,0,1-.51.2.77.77,0,0,1-.72-.39c-.16-.27-.44-.72-.85-1.35a1.6,1.6,0,0,1-.36-.84c0-.46.3-.68.9-.68a.91.91,0,0,1,.7.38,7.56,7.56,0,0,1,1,1.51A1.79,1.79,0,0,1,158.87,110Zm2.3-.7c0,.42-.26.63-.76.63a.8.8,0,0,1-.73-.39c-.16-.27-.44-.72-.85-1.34a1.58,1.58,0,0,1-.34-.83c0-.46.29-.69.86-.69a.91.91,0,0,1,.72.39,7.56,7.56,0,0,1,1,1.51A2,2,0,0,1,161.17,109.32Z"/><path class="cls-4" d="M177.05,122.07a1.24,1.24,0,0,1-.43.94,1.62,1.62,0,0,1-.94.43,1.3,1.3,0,0,1-1.19-.61,28.51,28.51,0,0,0-4-4.29,45.3,45.3,0,0,1-6.59,4.71,1.35,1.35,0,0,1-.74.21,1.22,1.22,0,0,1-1-.45,1.37,1.37,0,0,1-.41-1,1.35,1.35,0,0,1,.7-1.15,49.92,49.92,0,0,0,5.09-3.53,18.24,18.24,0,0,0,4.6-4.67,1,1,0,0,0,.13-.37c0-.13-.16-.19-.48-.19h-8.37a1.33,1.33,0,0,1-1-.39,1.56,1.56,0,0,1,0-2,1.3,1.3,0,0,1,1-.39h9c1.89,0,2.83.79,2.83,2.36,0,1.36-.92,3-2.78,5a27.19,27.19,0,0,1,4.25,4.6A1.45,1.45,0,0,1,177.05,122.07Z"/></g></g></svg>