<svg xmlns="http://www.w3.org/2000/svg" viewBox="0 0 268.8 93.04"><defs><style>.cls-1{fill:#6d5231;}.cls-2{fill:#fb0;}.cls-3,.cls-5{fill:none;stroke-linecap:round;stroke-linejoin:round;}.cls-3{stroke:#fff;stroke-width:2.53px;}.cls-4{fill:#b0bf1e;}.cls-5{stroke:#fb0;stroke-width:3.17px;}</style></defs><title>Asset 2</title><g id="Layer_2" data-name="Layer 2"><g id="Layer_2-2" data-name="Layer 2"><path class="cls-1" d="M114.26,61.54,110.41,60l-1.54-1.8a5.63,5.63,0,0,1-1-2.19,11.27,11.27,0,0,1-.26-2.44,7.78,7.78,0,0,1,1.29-4.47,27.94,27.94,0,0,1,3.85-4.34,11,11,0,0,1,4.79-2.44,24.07,24.07,0,0,1,5.56-.64q.84-8.74-.51-24.49l1.54-2.89a3.9,3.9,0,0,1,1.54-.64,10.53,10.53,0,0,1,1.8-.13,4,4,0,0,1,1.54,1,3.87,3.87,0,0,1,1,1.6v6.17l7.23,1A21.66,21.66,0,0,1,144,25.42,4.05,4.05,0,0,1,144.6,27a10.53,10.53,0,0,1,.13,1.8,4.08,4.08,0,0,1-1,1.54,4,4,0,0,1-1.54,1l-3.6.26L130,29.79a79.91,79.91,0,0,1,.77,12.4c1.89.17,3.74.39,5.56.64a7.09,7.09,0,0,1,4.53,2.51,4.15,4.15,0,0,1,.65,1.54,12,12,0,0,1,.12,1.8,4.59,4.59,0,0,1-2.57,2.57H136.5a16.29,16.29,0,0,0-3.15-1.15,13.6,13.6,0,0,0-3.34-.39,23.41,23.41,0,0,1-1.54,4.89,11.92,11.92,0,0,1-3.09,4.11,41.76,41.76,0,0,1-5.3,2.22A13.58,13.58,0,0,1,114.26,61.54ZM122,49.45A2.27,2.27,0,0,0,119,48q-3.79,1.35-3.67,6.1a2.21,2.21,0,0,0,2.38,1.09Q121.59,54.74,122,49.45Z"/><path class="cls-1" d="M168.29,61.54,164.43,60l-1.54-1.8a5.63,5.63,0,0,1-1-2.19,11.27,11.27,0,0,1-.26-2.44,7.78,7.78,0,0,1,1.29-4.47,27.94,27.94,0,0,1,3.85-4.34,11,11,0,0,1,4.79-2.44,24.07,24.07,0,0,1,5.56-.64q.84-8.74-.51-24.49l1.54-2.89a3.9,3.9,0,0,1,1.54-.64,10.53,10.53,0,0,1,1.8-.13,4,4,0,0,1,1.54,1,3.87,3.87,0,0,1,1,1.6v6.17l7.23,1A21.66,21.66,0,0,1,198,25.42a4.05,4.05,0,0,1,.64,1.54,10.53,10.53,0,0,1,.13,1.8,4.08,4.08,0,0,1-1,1.54,4,4,0,0,1-1.54,1l-3.6.26L184,29.79a79.91,79.91,0,0,1,.77,12.4c1.89.17,3.74.39,5.56.64a7.09,7.09,0,0,1,4.53,2.51,4,4,0,0,1,.65,1.54,12,12,0,0,1,.12,1.8,4.59,4.59,0,0,1-2.57,2.57h-2.57a16.29,16.29,0,0,0-3.15-1.15,13.6,13.6,0,0,0-3.34-.39,23.41,23.41,0,0,1-1.54,4.89,11.92,11.92,0,0,1-3.09,4.11,41.76,41.76,0,0,1-5.3,2.22A13.55,13.55,0,0,1,168.29,61.54Zm7.77-12.09A2.27,2.27,0,0,0,173,48q-3.79,1.35-3.67,6.1a2.22,2.22,0,0,0,2.38,1.09Q175.61,54.74,176.06,49.45Z"/><path class="cls-1" d="M232.92,61.09a19.5,19.5,0,0,1-7.49-2.48A45.23,45.23,0,0,1,219,54.08a10.69,10.69,0,0,1-1.29-2.18,4,4,0,0,1-.26-2.45,4.16,4.16,0,0,1,1-1.54,4.28,4.28,0,0,1,1.54-1h2.32a17.94,17.94,0,0,1,3,2.57,9.65,9.65,0,0,0,3.24,2.32,7.75,7.75,0,0,0,5.27,1.67,8.6,8.6,0,0,1,5.27,1.41,3.94,3.94,0,0,1,.64,1.55,11,11,0,0,1,.13,1.86,4,4,0,0,1-1,1.54,3.89,3.89,0,0,1-1.54,1Zm9.58-11.38-2.89-1.6a4,4,0,0,1-.65-1.55,11.66,11.66,0,0,1-.13-1.8l.26-3.34H236l-5.66,1a4.76,4.76,0,0,1-2.57-2.57V37.56a6.38,6.38,0,0,1,1.16-1.67,6.27,6.27,0,0,1,1.67-1.15l7.45-1,.26-1-1.54-4.95h-1.54l-11.64,1.8L220.77,28a2.36,2.36,0,0,1-.77-1.67V24.39a4.08,4.08,0,0,1,1-1.54,4,4,0,0,1,1.54-1l8-1,.26-1-.52-1.8,1.54-2.89a3.94,3.94,0,0,1,1.55-.64,10.53,10.53,0,0,1,1.8-.13,3.92,3.92,0,0,1,1.54,1.06,4.55,4.55,0,0,1,1,1.57l1,1.55a25.24,25.24,0,0,0,2.61.38A2.85,2.85,0,0,1,243.53,20a4.05,4.05,0,0,1,.64,1.54,11.86,11.86,0,0,1,.13,1.8l-.52,2.06,1.8,4.88c.86,0,1.72.05,2.57.13a2.81,2.81,0,0,1,2.06,1.16,2.54,2.54,0,0,1,.77,1.73v1.93a5.58,5.58,0,0,1-1.41,1.8,10.15,10.15,0,0,1-1.93,1.29l-.77.25a18.58,18.58,0,0,0-.26,5.4,5.68,5.68,0,0,1-1.54,4.69Zm4.75-27.31L246,21.56l-.83-7.39L246,13a3.79,3.79,0,0,1,4.57-.84c1.11.56,1.81,1.79,2.09,3.7a11.76,11.76,0,0,1,0,4.53,3.68,3.68,0,0,1-2.28,2A6.19,6.19,0,0,1,247.25,22.4Zm10.8,0-1.22-.84L256,14.17l.84-1.22a3.78,3.78,0,0,1,4.56-.84c1.12.56,1.81,1.79,2.09,3.7a11.6,11.6,0,0,1,0,4.53,3.73,3.73,0,0,1-2.28,2A6.2,6.2,0,0,1,258.05,22.4Z"/><path class="cls-2" d="M52.69,74.31c2.53,0,3.16-.64,3.16-2.54s-.63-5.06,3.17-8.86,11.39-8.23,12-20.89S63.28,12.9,44.81,12.9s-27.72,13.83-27.5,26,4.43,17.2,9.13,21.63,5.64,5,6,8.51-.11,5.54,2.1,5.59S52.69,74.31,52.69,74.31Z"/><path class="cls-3" d="M42.19,74.5s2-14.13-14-28.79c0,0,14,9.23,29-8.36,0,0-11.18,12.89-7,37.84"/><circle class="cls-3" cx="40.17" cy="38.34" r="5.63"/><path class="cls-4" d="M46,93h-1.6c-4.18,0-7.75-2.72-8.43-6.42l-1.1-5.94a3.06,3.06,0,0,1,3.24-3.42H52.31a3.06,3.06,0,0,1,3.24,3.42l-1.1,5.94C53.77,90.32,50.2,93,46,93Z"/><line class="cls-5" x1="1.58" y1="46.77" x2="13.07" y2="46.77"/><line class="cls-5" x1="9.02" y1="19.14" x2="15.95" y2="24.08"/><line class="cls-5" x1="30.63" y1="1.58" x2="34.55" y2="9.92"/><line class="cls-5" x1="58.73" y1="2.62" x2="54.3" y2="10.8"/><line class="cls-5" x1="80.26" y1="20.69" x2="70.42" y2="25.04"/><line class="cls-5" x1="73.85" y1="45.47" x2="83.51" y2="46.77"/><path class="cls-4" d="M97,74.46a1.48,1.48,0,0,1,1.06.3,1.19,1.19,0,0,1,.45,1v1.11h1.63a1.31,1.31,0,0,1,.87.24,1.25,1.25,0,0,1,.32,1,1.62,1.62,0,0,1-.19.88,1.26,1.26,0,0,1-1,.37H96.75c0,.52,0,1,0,1.48h2.32a3,3,0,0,1,1.26.21,1.81,1.81,0,0,1,.35-.89,24,24,0,0,0,1.87-4.74,1,1,0,0,1,1.1-.81,1.87,1.87,0,0,1,1.06.33,1,1,0,0,1,.42,1,4.79,4.79,0,0,1-.22,1.09h3.73a1.23,1.23,0,0,1,1,.3,1.39,1.39,0,0,1,.26,1,1.73,1.73,0,0,1-.2,1,1.14,1.14,0,0,1-.87.35,19.6,19.6,0,0,1-1.39,6.27c-.15.37-.31.73-.49,1.08a19.19,19.19,0,0,0,2.6,2.54,1.13,1.13,0,0,1,.43,1,1,1,0,0,1-.35.75,1.48,1.48,0,0,1-1.21.52,1.44,1.44,0,0,1-1-.39,13.93,13.93,0,0,1-2.12-2,11.14,11.14,0,0,1-2,1.85,1.72,1.72,0,0,1-1.3.49,1.33,1.33,0,0,1-1.11-.41,1.31,1.31,0,0,1-.43-.69,1.53,1.53,0,0,1-.33.34,3.6,3.6,0,0,1-2.06.52h-.76a2,2,0,0,1-1-.23,1,1,0,0,1-.65-.67,2.47,2.47,0,0,1-.19-1A7.71,7.71,0,0,1,94.8,91a1.5,1.5,0,0,1-1.39.75,1.54,1.54,0,0,1-1.3-.52,1.4,1.4,0,0,1-.36-.89,1.67,1.67,0,0,1,.25-.82,13,13,0,0,0,1.74-4.4,34.89,34.89,0,0,0,.31-5.64v-.07h-.5a1.28,1.28,0,0,1-.85-.28,1.15,1.15,0,0,1-.35-1,1,1,0,0,1,1.2-1.26h2.06V75.74a1.5,1.5,0,0,1,.41-1A1.42,1.42,0,0,1,97,74.46ZM95.65,88.8a2.56,2.56,0,0,1,.58-.22h.52a1.11,1.11,0,0,1,.29,0,3.86,3.86,0,0,0,.74.11.85.85,0,0,0,.51-.15,1,1,0,0,0,.29-.59c0-.76.08-2.19.08-4.31a.38.38,0,0,0-.43-.44H96.67a12.19,12.19,0,0,1-.3,2.2A21.3,21.3,0,0,1,95.65,88.8Zm5.27.61a16,16,0,0,0,2.67-2.48,19.75,19.75,0,0,1-1.54-3.45c0-.23-.09-.45-.13-.69a1.35,1.35,0,0,1,.06-.41,1.78,1.78,0,0,1-.41,0,1.14,1.14,0,0,1-.58-.17,21,21,0,0,1,.12,2.62c0,1.89-.06,3.36-.17,4.4A.59.59,0,0,1,100.92,89.41Zm2-7.88a1.6,1.6,0,0,1,.47-.08.9.9,0,0,1,1,.75c.31.74.61,1.41.91,2a15.26,15.26,0,0,0,.85-4.64h-2.24C103.55,80.35,103.24,81,102.94,81.53Z"/><path class="cls-4" d="M112.41,77.72h4.5a1.31,1.31,0,0,1,.93.26,1.08,1.08,0,0,1,.28.88,1.24,1.24,0,0,1-.22.81,1.22,1.22,0,0,1-1,.37h-4.5a1.35,1.35,0,0,1-.91-.27,1.17,1.17,0,0,1-.3-.91,1.08,1.08,0,0,1,.3-.89A1.41,1.41,0,0,1,112.41,77.72Zm7.62-3h6.63a1.44,1.44,0,0,1,1.63,1.63v5.14a1.44,1.44,0,0,1-1.63,1.63h-2.08V84h2.89a1.29,1.29,0,0,1,.87.24,1.15,1.15,0,0,1,.25.85,1.13,1.13,0,0,1-.21.76,1.09,1.09,0,0,1-.91.37h-2.26a24.46,24.46,0,0,0,3,2.6,2.13,2.13,0,0,1,.48.52.91.91,0,0,1,.28.67,1.15,1.15,0,0,1-.28.82,1.55,1.55,0,0,1-1.28.65,1,1,0,0,1-.71-.32,18.25,18.25,0,0,1-2.09-2.58v2a1,1,0,0,1-.34.9,1.26,1.26,0,0,1-.94.31,1.21,1.21,0,0,1-.87-.31,1.16,1.16,0,0,1-.3-.9V88.08a20.17,20.17,0,0,1-1.71,2.32,4.44,4.44,0,0,1-1,.85.83.83,0,0,1-.56.21,1.29,1.29,0,0,1-1.06-.67.36.36,0,0,0-.07-.1,1.07,1.07,0,0,1-1.17.69h-3.78c-.86,0-1.28-.41-1.28-1.24V86.87a1.12,1.12,0,0,1,1.28-1.26h3.78a1.1,1.1,0,0,1,1.24,1.26v2.28a1.5,1.5,0,0,1,.39-.22,10.93,10.93,0,0,0,1.9-2c.23-.28.43-.53.59-.76h-1.52a1.17,1.17,0,0,1-.85-.26,1.13,1.13,0,0,1-.26-.87,1.1,1.1,0,0,1,.26-.85,1.22,1.22,0,0,1,.85-.24h3v-.82H120a1.44,1.44,0,0,1-1.63-1.63V76.39A1.44,1.44,0,0,1,120,74.76Zm-7.4.24h4.08a1.07,1.07,0,0,1,.71.2c.16.13.24.4.24.84a1.38,1.38,0,0,1-.13.7,1,1,0,0,1-.82.32h-4.08a1.06,1.06,0,0,1-.71-.23,1,1,0,0,1-.26-.79,1.13,1.13,0,0,1,.26-.86A1.08,1.08,0,0,1,112.63,75Zm.07,5.49h4.08a1.14,1.14,0,0,1,.8.22,1.55,1.55,0,0,1,0,1.52,1,1,0,0,1-.84.32H112.7a1.27,1.27,0,0,1-.8-.22,1.49,1.49,0,0,1,0-1.62A1.18,1.18,0,0,1,112.7,80.49Zm0,2.52h4.08a1.14,1.14,0,0,1,.8.23,1.08,1.08,0,0,1,.22.81,1.14,1.14,0,0,1-.18.71,1,1,0,0,1-.84.31H112.7a1.21,1.21,0,0,1-.8-.22,1.06,1.06,0,0,1-.24-.8,1,1,0,0,1,.24-.81A1.18,1.18,0,0,1,112.7,83Zm2.45,6.31c.24,0,.35-.13.35-.39V88a.31.31,0,0,0-.35-.35h-1c-.26,0-.39.12-.39.35v.89a.34.34,0,0,0,.39.39ZM120.64,78h1.49v-1H121q-.36,0-.36.39Zm1.49,3V80h-1.49v.67A.32.32,0,0,0,121,81Zm2.45-4.08v1h1.48V77.3a.34.34,0,0,0-.39-.39ZM125.67,81c.26,0,.39-.12.39-.35V80h-1.48v1Z"/><path class="cls-4" d="M134.36,74.68a1.77,1.77,0,0,1,1,.41,1.1,1.1,0,0,1,.53,1,1.52,1.52,0,0,1-.2.81,13.92,13.92,0,0,1-3.17,3.6,1.39,1.39,0,0,1-1,.39,1.6,1.6,0,0,1-1.18-.52,1.54,1.54,0,0,1-.37-1,1.08,1.08,0,0,1,.35-.59,7.06,7.06,0,0,0,.89-.8,29.55,29.55,0,0,0,2.47-2.8A1.06,1.06,0,0,1,134.36,74.68Zm6.3-.35A1.36,1.36,0,0,1,142,75.66a1.87,1.87,0,0,1-.22.82,8.32,8.32,0,0,1-1.64,1.75c.2.18.4.39.6.61a22.49,22.49,0,0,0,2.74-3.1,1.41,1.41,0,0,1,1-.46,1.12,1.12,0,0,1,.87.35,1,1,0,0,1,.54.85,1.48,1.48,0,0,1-.39,1,13.3,13.3,0,0,1-1,1l.17-.09a1.71,1.71,0,0,1,.65-.13,1.36,1.36,0,0,1,1.11.42,9,9,0,0,1,1,2.08,5.49,5.49,0,0,1,.33,1.63,1,1,0,0,1-.32.84,1.46,1.46,0,0,1-1.09.44,1.47,1.47,0,0,1-.91-.24.66.66,0,0,1-.26-.42L145,82.6q-1,.11-2.19.15c-.73.07-1.48.11-2.26.13-.14.28-.27.57-.41.87h4.49c1.35,0,2,.6,2,1.79,0,.89-.7,1.9-2.11,3l-.17.09a15.85,15.85,0,0,0,2.21.58c.69.08,1,.41,1,1a1.75,1.75,0,0,1-.32,1.06,1.13,1.13,0,0,1-1.16.57,8,8,0,0,1-2.47-.59,13,13,0,0,1-2.17-1,22.68,22.68,0,0,1-2.47,1,7.49,7.49,0,0,1-1.88.5,1.19,1.19,0,0,1-1-.54,1.16,1.16,0,0,1-.28-.74,1,1,0,0,1,.47-.95c1-.33,1.9-.64,2.69-.92-.45-.36-.89-.76-1.34-1.19l-.11.11a2,2,0,0,1-1.17.37,1.23,1.23,0,0,1-.93-.41,1.11,1.11,0,0,1-.35-.94,1.92,1.92,0,0,1,.35-1,15.08,15.08,0,0,0,2.42-2.6h-.54a1.27,1.27,0,0,1-.91-.28,1.18,1.18,0,0,1-.32-.76,14.57,14.57,0,0,1-1.42,1.84v6.82a1.22,1.22,0,0,1-.36,1,1.57,1.57,0,0,1-1.82,0,1.25,1.25,0,0,1-.35-1V86a1.63,1.63,0,0,1-.59.1,1.66,1.66,0,0,1-1.19-.52,1.62,1.62,0,0,1-.37-1,1.06,1.06,0,0,1,.35-.6c.42-.31.8-.6,1.13-.89a29.1,29.1,0,0,0,3.1-3.13,1.39,1.39,0,0,1,.84-.45,1.48,1.48,0,0,1,.85.35,1,1,0,0,1,.46.78v.1a3.81,3.81,0,0,1,.67-.1h1.36a23.27,23.27,0,0,0-2.38-1.8,1.45,1.45,0,0,1-.54-1.11,1.2,1.2,0,0,1,.36-.89,1.32,1.32,0,0,1,.92-.37,1.85,1.85,0,0,1,1,.31,17,17,0,0,0,1.37-1.55l.3-.39A1.17,1.17,0,0,1,140.66,74.33Zm-.92,11.48a12.14,12.14,0,0,0,2,1.62l.13-.08c1-.54,1.54-1,1.54-1.29,0-.16-.13-.25-.39-.25Zm4.45-5.4c-.06-.17-.14-.34-.22-.51a1,1,0,0,1,0-.32,1.35,1.35,0,0,1,.13-.52,20.57,20.57,0,0,1-1.63,1.43C143.07,80.48,143.66,80.45,144.19,80.41Z"/><path class="cls-4" d="M151.05,80h5.35a1.34,1.34,0,0,1,.35-1,1.17,1.17,0,0,1,.8-.33,1,1,0,0,1-.26-.67.79.79,0,0,1,.09-.35,2.31,2.31,0,0,1-.37,0h-1.52a2.18,2.18,0,0,1,.48,1,.76.76,0,0,1-.39.73,1.33,1.33,0,0,1-1,.33,1,1,0,0,1-.89-.59c-.3-.5-.59-1-.87-1.38a8.13,8.13,0,0,1-.85,1.3,1.07,1.07,0,0,1-1,.6,1.56,1.56,0,0,1-1-.37,1,1,0,0,1-.5-.91,1.27,1.27,0,0,1,.21-.6,11,11,0,0,0,1.5-2.59c.2-.55.5-.82.91-.82a1.85,1.85,0,0,1,1.13.35,1,1,0,0,1,.43.85H157a1,1,0,0,1,.76.23,1.19,1.19,0,0,1,.21.81.77.77,0,0,1,0,.15,9.44,9.44,0,0,0,.89-1.57c.21-.55.5-.82.89-.82a1.83,1.83,0,0,1,1.15.35,1,1,0,0,1,.41.85h4a1,1,0,0,1,.77.23,1.59,1.59,0,0,1,0,1.56,1,1,0,0,1-.8.27h-1.57a2.18,2.18,0,0,1,.48,1,.76.76,0,0,1-.39.73,1.35,1.35,0,0,1-1,.33.92.92,0,0,1-.87-.59c-.33-.55-.66-1-1-1.51h-.44a4.38,4.38,0,0,1-.69,1,1,1,0,0,1-.67.56,1.85,1.85,0,0,1,.17.79h5.42a1.13,1.13,0,0,1,.76.21,1,1,0,0,1,.2.74,1.08,1.08,0,0,1-.16.67,1,1,0,0,1-.8.3h-5.42v.83h6.07a1.22,1.22,0,0,1,.82.22c.16.11.24.36.24.74a1.18,1.18,0,0,1-.19.71,1.07,1.07,0,0,1-.87.33h-1.82a1.5,1.5,0,0,1,0,.37v.38h1.58a1.19,1.19,0,0,1,.79.2,1,1,0,0,1,.23.74,1.16,1.16,0,0,1-.19.73,1,1,0,0,1-.83.33H163.6v2.08a2.06,2.06,0,0,1-.73,1.65,2.88,2.88,0,0,1-2.07.72,8.89,8.89,0,0,1-2.3-.29,1.27,1.27,0,0,1-.67-1.21q0-1.26,1-1.41a.45.45,0,0,1,.19.06,3.85,3.85,0,0,0,1,.18c.43,0,.65-.2.65-.59V87.54H154A12.8,12.8,0,0,1,156.4,89a1,1,0,0,1,.46.81,1.4,1.4,0,0,1-.26.87,1.09,1.09,0,0,1-.94.56,1.29,1.29,0,0,1-.62-.15,1.67,1.67,0,0,1-.5-.28c-.74-.54-1.54-1.08-2.41-1.61a.43.43,0,0,1-.26-.2.83.83,0,0,1-.35-.75,1.12,1.12,0,0,1,.26-.72h-1.15a1.1,1.1,0,0,1-.8-.26,1,1,0,0,1-.26-.8.91.91,0,0,1,.26-.74,1.22,1.22,0,0,1,.8-.2h10v-.38a.84.84,0,0,1,.07-.37H150.41a1.18,1.18,0,0,1-.8-.24,1,1,0,0,1-.26-.8.91.91,0,0,1,.26-.76,1.26,1.26,0,0,1,.8-.2h6V82h-5.35a1.07,1.07,0,0,1-.72-.23.9.9,0,0,1-.24-.74.92.92,0,0,1,.24-.74A1.07,1.07,0,0,1,151.05,80Z"/><path class="cls-4" d="M183.88,81.84a1.39,1.39,0,0,1-.35,1,1.38,1.38,0,0,1-1,.37H178a7.66,7.66,0,0,1-6,7.7,1.08,1.08,0,0,1-.57.09,1.27,1.27,0,0,1-.86-.44,1.4,1.4,0,0,1-.37-.89,1.28,1.28,0,0,1,1-1.37,6.58,6.58,0,0,0,2.8-1.6,5.52,5.52,0,0,0,1.24-3.49h-6.05a1.4,1.4,0,0,1-1.07-.44,1.25,1.25,0,0,1-.32-.88,1.32,1.32,0,0,1,.36-.92,1.37,1.37,0,0,1,1-.38h13.35a1.42,1.42,0,0,1,1.05.41A1.21,1.21,0,0,1,183.88,81.84ZM180.65,77a1.27,1.27,0,0,1-.35.9,1.29,1.29,0,0,1-1,.41H171.8a1.33,1.33,0,0,1-1-.42,1.14,1.14,0,0,1-.35-.91,1.16,1.16,0,0,1,.37-.89,1.33,1.33,0,0,1,1-.38h7.48a1.45,1.45,0,0,1,1.05.39A1.25,1.25,0,0,1,180.65,77Zm2.32.13a.63.63,0,0,1-.24.48.94.94,0,0,1-.54.18.8.8,0,0,1-.71-.39c-.16-.27-.44-.71-.85-1.31a1.77,1.77,0,0,1-.31-.86c0-.45.28-.68.85-.68a.94.94,0,0,1,.72.39,7.14,7.14,0,0,1,1,1.48A1.8,1.8,0,0,1,183,77.08Zm2.3-.75c0,.45-.25.67-.76.67a.79.79,0,0,1-.72-.39c-.17-.27-.45-.72-.86-1.33a1.63,1.63,0,0,1-.35-.82c0-.47.3-.71.89-.71a.86.86,0,0,1,.69.39,7.4,7.4,0,0,1,1,1.52A1.54,1.54,0,0,1,185.27,76.33Z"/><path class="cls-4" d="M200.09,76.46a1.37,1.37,0,0,1-.38,1,43.32,43.32,0,0,1-4,3.65v8.59a1.29,1.29,0,0,1-.44,1,1.41,1.41,0,0,1-1,.32A1.26,1.26,0,0,1,193,89.69V83.12a45.34,45.34,0,0,1-5.1,2.88,1.49,1.49,0,0,1-.69.15,1.26,1.26,0,0,1-.91-.47,1.4,1.4,0,0,1-.39-1,1.24,1.24,0,0,1,.8-1.22,36,36,0,0,0,11-7.94,1.37,1.37,0,0,1,.93-.45,1.49,1.49,0,0,1,1.48,1.37Z"/><path class="cls-4" d="M217.41,80.25a1.33,1.33,0,0,1-.36.94,1.35,1.35,0,0,1-1,.36H214.4V83a7.45,7.45,0,0,1-2.34,5.4,9.6,9.6,0,0,1-3.78,2.45,1.1,1.1,0,0,1-.5.11,1.16,1.16,0,0,1-1-.5,1.45,1.45,0,0,1-.37-1,1.3,1.3,0,0,1,.95-1.2,6.54,6.54,0,0,0,2.67-1.77A4.88,4.88,0,0,0,211.62,83V81.55h-5v2.84a1.25,1.25,0,0,1-.5,1,1.51,1.51,0,0,1-1,.32,1.25,1.25,0,0,1-.89-.37,1.3,1.3,0,0,1-.39-1V81.55h-1.63a1.34,1.34,0,0,1-1.06-.43,1.2,1.2,0,0,1-.31-.87,1.29,1.29,0,0,1,.37-.93,1.26,1.26,0,0,1,1-.37h1.63v-2.1a1.28,1.28,0,0,1,.43-1,1.48,1.48,0,0,1,1.91,0,1.34,1.34,0,0,1,.45,1.06V79h5V76.87a1.27,1.27,0,0,1,.42-1,1.36,1.36,0,0,1,1-.35,1.33,1.33,0,0,1,1,.37,1.3,1.3,0,0,1,.41,1V79H216a1.4,1.4,0,0,1,1.06.41A1.33,1.33,0,0,1,217.41,80.25Z"/><path class="cls-4" d="M236,83.09a1.55,1.55,0,0,1-.34,1,1.23,1.23,0,0,1-1,.52H220a1.3,1.3,0,0,1-1.06-.5,1.46,1.46,0,0,1-.33-1,1.65,1.65,0,0,1,.35-1,1.25,1.25,0,0,1,1-.46h14.69a1.32,1.32,0,0,1,1,.46A1.51,1.51,0,0,1,236,83.09Z"/><path class="cls-4" d="M250.58,88.58a1.17,1.17,0,0,1-.28.87,1.22,1.22,0,0,1-.91.46,44.44,44.44,0,0,1-6.62.52,6.86,6.86,0,0,1-4.1-1,4.2,4.2,0,0,1-1.54-3.71V76.91a1.27,1.27,0,0,1,.39-1,1.35,1.35,0,0,1,.95-.37,1.35,1.35,0,0,1,1.42,1.37v3a52.2,52.2,0,0,0,7.78-2.06,1.53,1.53,0,0,1,.76-.17,1.24,1.24,0,0,1,.89.5,1.35,1.35,0,0,1,.33,1,1.23,1.23,0,0,1-.77,1.14q-1.95,1-9,2.41v3.06c0,.88.24,1.44.71,1.69a6.53,6.53,0,0,0,2.17.22,43.79,43.79,0,0,0,6.2-.46,1.33,1.33,0,0,1,1.13.37A1.45,1.45,0,0,1,250.58,88.58Zm0-11.43a.56.56,0,0,1-.26.48.76.76,0,0,1-.5.21.75.75,0,0,1-.72-.39c-.17-.28-.45-.73-.86-1.36a1.59,1.59,0,0,1-.35-.83c0-.46.3-.69.89-.69a.89.89,0,0,1,.7.39,7.23,7.23,0,0,1,1,1.5A1.67,1.67,0,0,1,250.62,77.15Zm2.3-.71c0,.43-.25.64-.76.64a.79.79,0,0,1-.72-.39c-.17-.28-.45-.72-.86-1.34a1.56,1.56,0,0,1-.33-.84c0-.45.28-.68.85-.68a1,1,0,0,1,.73.39,7.6,7.6,0,0,1,1,1.5A1.81,1.81,0,0,1,252.92,76.44Z"/><path class="cls-4" d="M268.8,89.19a1.28,1.28,0,0,1-.42,1,1.59,1.59,0,0,1-.95.42,1.28,1.28,0,0,1-1.19-.61,28.49,28.49,0,0,0-4-4.28,46.76,46.76,0,0,1-6.58,4.71,1.36,1.36,0,0,1-.74.2,1.25,1.25,0,0,1-1-.44,1.45,1.45,0,0,1-.41-1,1.35,1.35,0,0,1,.71-1.15,49.66,49.66,0,0,0,5.08-3.52,17.91,17.91,0,0,0,4.6-4.68.9.9,0,0,0,.13-.37q0-.18-.48-.18H255.2a1.35,1.35,0,0,1-1-.39,1.5,1.5,0,0,1-.33-1,1.44,1.44,0,0,1,.35-1,1.32,1.32,0,0,1,1-.39h9c1.89,0,2.84.79,2.84,2.36q0,2-2.78,5a27.42,27.42,0,0,1,4.24,4.6A1.4,1.4,0,0,1,268.8,89.19Z"/></g></g></svg>