<svg id="LINE" xmlns="http://www.w3.org/2000/svg" width="29.777" height="28.482" viewBox="0 0 29.777 28.482">
  <path id="Path_783" data-name="Path 783" d="M1912.777,992.652l-.01.007c-.21-6.467-6.788-11.659-14.879-11.659-8.223,0-14.888,5.362-14.888,11.975,0,6.264,5.98,11.4,13.6,11.927.412.652.74,1.969-.005,4.579,0,0,14.266-4,16.008-14.666a9.754,9.754,0,0,0,.176-1.841c0-.062,0-.122-.006-.183S1912.777,992.7,1912.777,992.652Zm-20.067,4.208a.324.324,0,0,1-.324.324h-3.56a.324.324,0,0,1-.324-.324v-7.12a.324.324,0,0,1,.324-.324h.647a.324.324,0,0,1,.323.324v6.15h2.589a.324.324,0,0,1,.324.324Zm2.266,0a.324.324,0,0,1-.324.324H1894a.324.324,0,0,1-.324-.324v-7.12a.324.324,0,0,1,.324-.324h.647a.324.324,0,0,1,.324.324Zm7.121,0a.324.324,0,0,1-.324.324h-.708a.323.323,0,0,1-.273-.15l-3.227-5.072v4.9a.324.324,0,0,1-.324.324h-.647a.324.324,0,0,1-.323-.324v-7.12a.324.324,0,0,1,.323-.324h.708a.324.324,0,0,1,.273.15l3.227,5.072v-4.9a.324.324,0,0,1,.324-.324h.647a.324.324,0,0,1,.324.324Zm6.15-6.488a.324.324,0,0,1-.324.324h-3.251v2.165h3.251a.324.324,0,0,1,.324.324v.647a.324.324,0,0,1-.324.324h-3.251V995.9h3.251a.324.324,0,0,1,.324.324v.618a.324.324,0,0,1-.324.323h-4.193a.324.324,0,0,1-.324-.323v-7.091a.324.324,0,0,1,.324-.324h4.193a.324.324,0,0,1,.324.324Z" transform="translate(-1883 -981)" fill="#fff"/>
</svg>
