<svg xmlns="http://www.w3.org/2000/svg" width="29.694" height="22.369" viewBox="0 0 29.694 22.369">
  <g id="ノートパソコンのアイコン素材4" transform="translate(0 -63.156)">
    <path id="Path_784" data-name="Path 784" d="M36.68,79.513H59.19a1.556,1.556,0,0,0,1.556-1.556V64.711a1.556,1.556,0,0,0-1.556-1.555H36.68a1.555,1.555,0,0,0-1.555,1.555V77.957A1.556,1.556,0,0,0,36.68,79.513ZM37.5,65.246H58.367V77.057H37.5Z" transform="translate(-33.088 0)" fill="#fff"/>
    <path id="Path_785" data-name="Path 785" d="M29.464,375.585l-2.775-2.463a1.072,1.072,0,0,0-.706-.247H3.711a1.072,1.072,0,0,0-.706.247L.23,375.585a.638.638,0,0,0-.23.476v.858a.425.425,0,0,0,.468.362H29.227a.424.424,0,0,0,.468-.362v-.858A.638.638,0,0,0,29.464,375.585Zm-17.8.291.8-1.086h5.088l.8,1.086Z" transform="translate(0 -291.755)" fill="#fff"/>
  </g>
</svg>
