<svg xmlns="http://www.w3.org/2000/svg" width="42.748" height="37.386" viewBox="0 0 42.748 37.386">
  <g id="Group_425" data-name="Group 425" transform="translate(-645 -2970.307)">
    <path id="Icon_ionic-ios-arrow-back" data-name="Icon ionic-ios-arrow-back" d="M17.694,24.882,31.84,10.747a2.672,2.672,0,1,0-3.784-3.773L12.029,22.99a2.667,2.667,0,0,0-.078,3.684L28.045,42.8a2.672,2.672,0,1,0,3.784-3.773Z" transform="translate(698.999 3013.887) rotate(180)" fill="#c2a898"/>
    <path id="Icon_ionic-ios-arrow-back-2" data-name="Icon ionic-ios-arrow-back" d="M17.694,24.882,31.84,10.747a2.672,2.672,0,1,0-3.784-3.773L12.029,22.99a2.667,2.667,0,0,0-.078,3.684L28.045,42.8a2.672,2.672,0,1,0,3.784-3.773Z" transform="translate(677.625 3013.887) rotate(180)" fill="#c2a898"/>
  </g>
</svg>
