<svg xmlns="http://www.w3.org/2000/svg" viewBox="0 0 418.55 223.35"><defs><style>.cls-1{opacity:0.8;}.cls-2{fill:#c5a06b;}.cls-3{fill:#ffe9cc;}.cls-4{fill:#e0647f;}.cls-5{fill:#fff;}.cls-6{fill:#f1f1f1;}.cls-7{fill:#8c6c47;}</style></defs><title>Asset 8</title><g id="Layer_2" data-name="Layer 2"><g id="Layer_4" data-name="Layer 4"><g class="cls-1"><rect class="cls-2" width="414.02" height="51.66"/></g><rect class="cls-2" y="69.12" width="323.5" height="51.66"/><rect class="cls-3" x="323.5" y="69.12" width="90.52" height="51.66"/><rect class="cls-4" y="139.28" width="258.49" height="51.66"/><path class="cls-4" d="M414,139.28h-2.84v1.42H414v-1.42Zm-5.68,0H405.5v1.42h2.84v-1.42Zm-5.68,0h-2.84v1.42h2.84v-1.42Zm-5.68,0h-2.84v1.42H397v-1.42Zm-5.68,0h-2.83v1.42h2.83v-1.42Zm-5.67,0h-2.84v1.42h2.84v-1.42Zm-5.68,0h-2.84v1.42H380v-1.42Zm-5.68,0h-2.84v1.42h2.84v-1.42Zm-5.68,0h-2.84v1.42h2.84v-1.42Zm-5.68,0h-2.84v1.42h2.84v-1.42Zm-5.68,0h-2.84v1.42h2.84v-1.42Zm-5.68,0h-2.84v1.42h2.84v-1.42Zm-5.68,0H343v1.42h2.84v-1.42Zm-5.67,0h-2.84v1.42h2.84v-1.42Zm-5.68,0h-2.84v1.42h2.84v-1.42Zm-5.68,0H326v1.42h2.84v-1.42Zm-5.68,0h-2.84v1.42h2.84v-1.42Zm-5.68,0h-2.84v1.42h2.84v-1.42Zm-5.68,0H309v1.42h2.84v-1.42Zm-5.68,0h-2.84v1.42h2.84v-1.42Zm-5.68,0H297.6v1.42h2.84v-1.42Zm-5.68,0h-2.83v1.42h2.83v-1.42Zm-5.67,0h-2.84v1.42h2.84v-1.42Zm-5.68,0h-2.84v1.42h2.84v-1.42Zm-5.68,0h-2.84v1.42h2.84v-1.42Zm-5.68,0h-2.84v1.42h2.84v-1.42Zm-5.68,0h-2.84v1.42h2.84v-1.42Zm-5.68,0h-2.2v1.42h2.2v-1.42Zm-.78,3.48h-1.42v2.83h1.42v-2.83Zm0,5.67h-1.42v2.84h1.42v-2.84Zm0,5.68h-1.42V157h1.42v-2.84Zm0,5.68h-1.42v2.84h1.42v-2.84Zm0,5.68h-1.42v2.84h1.42v-2.84Zm0,5.68h-1.42V174h1.42v-2.84Zm0,5.68h-1.42v2.84h1.42v-2.84Zm0,5.68h-1.42v2.84h1.42v-2.84Zm0,5.68h-1.42v2.75h1.42v-2.75Zm4.35,1.33h-2.84v1.42h2.84v-1.42Zm5.68,0H267.1v1.42h2.84v-1.42Zm5.67,0h-2.84v1.42h2.84v-1.42Zm5.68,0h-2.84v1.42h2.84v-1.42Zm5.68,0h-2.84v1.42H287v-1.42Zm5.68,0h-2.84v1.42h2.84v-1.42Zm5.68,0h-2.84v1.42h2.84v-1.42Zm5.68,0h-2.84v1.42H304v-1.42Zm5.68,0h-2.84v1.42h2.84v-1.42Zm5.68,0h-2.84v1.42h2.84v-1.42Zm5.67,0h-2.83v1.42H321v-1.42Zm5.68,0h-2.84v1.42h2.84v-1.42Zm5.68,0h-2.84v1.42h2.84v-1.42Zm5.68,0h-2.84v1.42h2.84v-1.42Zm5.68,0h-2.84v1.42h2.84v-1.42Zm5.68,0H346.6v1.42h2.84v-1.42Zm5.68,0h-2.84v1.42h2.84v-1.42Zm5.68,0H358v1.42h2.84v-1.42Zm5.68,0h-2.84v1.42h2.84v-1.42Zm5.67,0h-2.84v1.42h2.84v-1.42Zm5.68,0H375v1.42h2.84v-1.42Zm5.68,0h-2.84v1.42h2.84v-1.42Zm5.68,0h-2.84v1.42h2.84v-1.42Zm5.68,0H392v1.42h2.84v-1.42Zm5.68,0h-2.84v1.42h2.84v-1.42Zm5.68,0h-2.84v1.42h2.84v-1.42Zm5.68,0h-2.84v1.42h2.84v-1.42Zm2.11-2.15H412.6v2.84H414v-2.84Zm0-5.68H412.6v2.84H414v-2.84Zm0-5.67H412.6v2.83H414V176Zm0-5.68H412.6v2.84H414v-2.84Zm0-5.68H412.6v2.84H414v-2.84Zm0-5.68H412.6v2.84H414V159Zm0-5.68H412.6v2.84H414V153.3Zm0-5.68H412.6v2.84H414v-2.84Zm0-5.68H412.6v2.84H414v-2.84Z"/><path class="cls-5" d="M16.86,22.26V32.91c0,.38-.21.58-.64.58s-.62-.2-.62-.58V24.44q-1.51,2.25-2.07,2.25a.38.38,0,0,1-.3-.13.47.47,0,0,1-.16-.35c0-.13.17-.39.5-.79A22.9,22.9,0,0,0,16.79,19c.16-.42.39-.64.69-.64a.73.73,0,0,1,.3.07.55.55,0,0,1,.34.54,2.68,2.68,0,0,1-.17.72A21.21,21.21,0,0,1,16.86,22.26Zm7.07.9v3.21l3-.19h.1a.51.51,0,0,1,.59.57c0,.38-.2.58-.61.61l-3.1.19v4l4.64-.22h.05a.54.54,0,0,1,.56.25.69.69,0,0,1,.1.36c0,.4-.22.61-.65.63L18.43,33h-.05c-.43,0-.64-.2-.64-.6s.21-.59.64-.6l4.26-.22v-4l-3.09.2c-.45,0-.67-.16-.67-.55a.56.56,0,0,1,.6-.61l3.16-.2V23.25L19,23.54H18.9c-.41,0-.62-.2-.62-.58a.59.59,0,0,1,.62-.65l8.56-.66h.09c.43,0,.64.19.64.58a.59.59,0,0,1-.6.67Zm-2.55-5.05a5.21,5.21,0,0,1,1.94,1.06,6.71,6.71,0,0,1,.93.73.72.72,0,0,1,.24.53.62.62,0,0,1-.19.46.79.79,0,0,1-.56.26,1,1,0,0,1-.63-.37,12.34,12.34,0,0,0-2-1.7.55.55,0,0,1-.29-.44.44.44,0,0,1,.13-.32A.5.5,0,0,1,21.38,18.11Z"/><path class="cls-5" d="M39.81,20.57l5.72-.37h.13c.6,0,.89.21.89.65a4,4,0,0,1-.88,1.76c-.52.74-.93,1.1-1.23,1.1a.43.43,0,0,1-.26-.09.42.42,0,0,1-.17-.36.92.92,0,0,1,.2-.45,2.9,2.9,0,0,0,.6-1.3c0-.13-.11-.19-.32-.17l-10.77.71q0,2.52-.93,2.52a.84.84,0,0,1-.46-.13.52.52,0,0,1-.24-.48,2.1,2.1,0,0,1,.15-.6,8,8,0,0,0,.46-2.28c0-.41.18-.61.49-.61s.43.17.48.51l4.81-.32v-2.1c0-.39.22-.59.67-.59a.67.67,0,0,1,.53.23.52.52,0,0,1,.13.36Zm-.74,4.28,0,2.32,5.85-.74H45a.68.68,0,0,1,.45.15.62.62,0,0,1,.19.45c0,.35-.2.56-.6.61l-6,.73,0,2.57c0,.5.13.81.41.94a6,6,0,0,0,1.77.15A11.43,11.43,0,0,0,45,31.67a.53.53,0,0,0,.33-.37,5.79,5.79,0,0,0,0-.79v-.9c0-.37.15-.55.45-.55s.4.14.47.44a10.45,10.45,0,0,1,.31,2.31,1.1,1.1,0,0,1-.78,1.13,16.42,16.42,0,0,1-4.51.37,14.59,14.59,0,0,1-2.24-.1,1.49,1.49,0,0,1-1.35-1.63l0-3-4.86.59h-.12a.52.52,0,0,1-.59-.58c0-.33.19-.52.57-.58l5-.63,0-2.16a18.8,18.8,0,0,1-2.91.51.45.45,0,0,1-.51-.51.39.39,0,0,1,.24-.38,6,6,0,0,1,.66-.14A28,28,0,0,0,41,22.89a1.38,1.38,0,0,1,.54-.15A.55.55,0,0,1,42,23a.61.61,0,0,1,.12.37.73.73,0,0,1-.56.69A25.72,25.72,0,0,1,39.07,24.85Z"/><path class="cls-5" d="M52.37,21.73l.61,0c5.38-.4,8.26-.61,8.63-.61a1.29,1.29,0,0,1,.93.33,1.15,1.15,0,0,1,.34.88q0,.81-.93,6.07l-.08.43a.65.65,0,0,1,.6.7.59.59,0,0,1-.44.61,6.08,6.08,0,0,1-.81,0q-3.24,0-7.68.28a.61.61,0,0,1-.69.66.58.58,0,0,1-.59-.39,4,4,0,0,1-.12-.84q-.39-3.63-1-7.45a2.69,2.69,0,0,1,0-.29.61.61,0,0,1,.43-.62.77.77,0,0,1,.32-.07A.51.51,0,0,1,52.37,21.73Zm8.18,7.1q.53-3,.79-5.23.09-.81.09-.93c0-.19-.12-.29-.38-.29-.72,0-2.47.1-5.25.31-1.09.08-2.15.17-3.17.27.26,2.35.51,4.43.77,6.24,1.48-.11,3.7-.23,6.64-.36Z"/><path class="cls-5" d="M80.55,24.45c.61,0,.91.23.91.68a.58.58,0,0,1-.37.62,5.55,5.55,0,0,1-1,.08q-4,.12-10.76.52h-.1a.75.75,0,0,1-.48-.16.64.64,0,0,1-.23-.52.63.63,0,0,1,.6-.67l.89-.06c2.21-.13,3.91-.21,5.1-.26,2.34-.09,3.63-.14,3.86-.16C79.74,24.47,80.28,24.45,80.55,24.45Z"/><path class="cls-5" d="M88.38,20.49a5.26,5.26,0,0,1,1.31.44,10.56,10.56,0,0,1,2.53,1.49.85.85,0,0,1,.35.68.76.76,0,0,1-.15.45.58.58,0,0,1-.51.27,1.32,1.32,0,0,1-.77-.39,20.18,20.18,0,0,0-2.92-2c-.25-.14-.37-.29-.37-.44C87.85,20.66,88,20.49,88.38,20.49Zm11.29,2.85a.48.48,0,0,1,.33.12.52.52,0,0,1,.19.39,3.2,3.2,0,0,1-.82,1.39,20.06,20.06,0,0,1-5.18,4.44,22.09,22.09,0,0,1-4.82,2.17,2.74,2.74,0,0,1-.69.16.67.67,0,0,1-.66-.4.81.81,0,0,1-.1-.39.66.66,0,0,1,.36-.6c.08,0,.45-.15,1.12-.35a19,19,0,0,0,5.46-2.64A18.21,18.21,0,0,0,99,23.76.85.85,0,0,1,99.67,23.34Z"/><path class="cls-5" d="M107.12,27.61a.58.58,0,0,1-.3.09.86.86,0,0,1-.62-.41A12.23,12.23,0,0,0,105.05,26a12,12,0,0,1-1,1.32.69.69,0,0,1-.48.26.42.42,0,0,1-.26-.11.37.37,0,0,1-.15-.31,2.22,2.22,0,0,1,.42-.83,17.94,17.94,0,0,0,2.47-5.88l-2,.19h-.07a.53.53,0,0,1-.57-.58.51.51,0,0,1,.52-.58l5.85-.56h.08a.5.5,0,0,1,.51.33.53.53,0,0,1,0,.25.51.51,0,0,1-.51.57l-2.63.26c-.1.48-.31,1.22-.62,2.2l1.68-.21h.33a.79.79,0,0,1,.91.89,8.07,8.07,0,0,1-.32,1.83,15.86,15.86,0,0,1-1.73,4.16,14.46,14.46,0,0,1-3.23,3.91.83.83,0,0,1-.49.23.45.45,0,0,1-.35-.18.36.36,0,0,1-.11-.27c0-.15.15-.38.45-.7A19,19,0,0,0,107.12,27.61Zm.24-.51a13.41,13.41,0,0,0,.75-2.11,6.32,6.32,0,0,0,.24-1.22.29.29,0,0,0-.33-.33H108l-1.65.22a13.59,13.59,0,0,1-.81,1.62,7.63,7.63,0,0,1,1.6,1.31A.86.86,0,0,1,107.36,27.1Zm6.82-2.76c.1.57.21,1.07.32,1.51l3.81-.54h.12a.46.46,0,0,1,.5.31.53.53,0,0,1,.06.23c0,.3-.18.47-.53.52l-3.67.51a13.91,13.91,0,0,0,.78,1.85,10.86,10.86,0,0,0,1.25-1.28.8.8,0,0,1,.61-.35.58.58,0,0,1,.42.18.58.58,0,0,1,.19.41c0,.18-.17.45-.5.8s-.85.86-1.35,1.3a13.87,13.87,0,0,0,1.47,1.82c.22.22.38.34.46.34s.24-.59.24-1.77c0-.38.13-.57.4-.57s.44.16.51.47a10.72,10.72,0,0,1,.17,2.13c0,.93-.27,1.39-.82,1.39a1.88,1.88,0,0,1-1.17-.52,11.44,11.44,0,0,1-2.26-2.51,16.22,16.22,0,0,1-3.83,2,5.82,5.82,0,0,1-1.29.41c-.31,0-.46-.17-.46-.51a.44.44,0,0,1,.23-.39,7.27,7.27,0,0,1,.71-.3,17.36,17.36,0,0,0,4-2.25,15.16,15.16,0,0,1-1-2.5l-3.21.44h-.13a.48.48,0,0,1-.55-.53c0-.29.18-.45.52-.51l3.11-.43c-.19-.77-.3-1.27-.34-1.51l-2.34.33h-.13a.47.47,0,0,1-.54-.53q0-.43.51-.51l2.35-.33-.18-1.27-2.21.31h-.13q-.54,0-.54-.51c0-.31.17-.48.51-.53l2.22-.32,0-.29a18.87,18.87,0,0,1-.2-2.44c0-.43.12-.68.35-.76a.79.79,0,0,1,.28,0,.51.51,0,0,1,.49.26,3.45,3.45,0,0,1,.12.89c.05.75.12,1.48.21,2.21l2.7-.39h.12a.48.48,0,0,1,.55.54c0,.3-.18.48-.53.53l-2.71.37c0,.48.11.9.17,1.27l2.49-.36h.12a.5.5,0,0,1,.56.56c0,.29-.18.46-.53.51Zm2.76-5.78a.65.65,0,0,1,.46.25,16.22,16.22,0,0,1,1.19,1.35,1,1,0,0,1,.25.59.51.51,0,0,1-.27.45.75.75,0,0,1-.37.09c-.22,0-.41-.14-.58-.43a14.81,14.81,0,0,0-1-1.48.77.77,0,0,1-.15-.41.37.37,0,0,1,.11-.28A.42.42,0,0,1,116.94,18.56Z"/><path class="cls-5" d="M127.87,31.49a.47.47,0,0,1,.33.48c0,.31-.19.48-.58.5l-3.1.23v.12c0,.4-.15.59-.57.59s-.54-.19-.58-.59l-.4-3.76v-.13a.58.58,0,0,1,.08-.31,4.31,4.31,0,0,1-1.4.65.47.47,0,0,1-.41-.21.44.44,0,0,1-.08-.25.49.49,0,0,1,.18-.37,3.24,3.24,0,0,1,.49-.28,15,15,0,0,0,3-2.07l-.55-.31-1-.53a11.88,11.88,0,0,1-.92.81,1,1,0,0,1-.58.24.28.28,0,0,1-.22-.08.56.56,0,0,1-.18-.37c0-.15.13-.33.4-.56a7.31,7.31,0,0,0,2.08-2.68.63.63,0,0,1,.62-.42.66.66,0,0,1,.21,0,.51.51,0,0,1,.38.51,1.15,1.15,0,0,1,0,.14l2.18-.27h.17c.54,0,.81.21.81.65a1.92,1.92,0,0,1-.36.9,10.8,10.8,0,0,1-1.3,1.72,26.87,26.87,0,0,1,2.56,1.58.73.73,0,0,1,.36.59.69.69,0,0,1-.17.43.59.59,0,0,1-.47.23.72.72,0,0,1-.48-.2,29.2,29.2,0,0,0-2.61-1.83,18.29,18.29,0,0,1-2.36,1.75l.21,0a.51.51,0,0,1,.46.24L127,28.3h.23c.68,0,1,.31,1,.92a1.73,1.73,0,0,1,0,.32Zm-2-11.53,2.8-.3h.11c.49,0,.73.18.73.54a3.42,3.42,0,0,1-.73,1.48c-.33.48-.61.72-.83.72a.63.63,0,0,1-.22,0,.39.39,0,0,1-.22-.38.56.56,0,0,1,.07-.24,2.35,2.35,0,0,0,.32-.8c0-.09,0-.13-.16-.13h-.17l-4.85.53a7.67,7.67,0,0,1-.23,1.66c-.12.35-.3.52-.56.52a.69.69,0,0,1-.39-.1.51.51,0,0,1-.29-.45,1.22,1.22,0,0,1,.06-.29,10.26,10.26,0,0,0,.42-2.24c0-.4.2-.6.49-.6a.48.48,0,0,1,.5.45l1.93-.2V18.3a.5.5,0,0,1,.22-.45.66.66,0,0,1,.39-.11.6.6,0,0,1,.49.2.52.52,0,0,1,.12.36Zm-1.53,4c-.18.24-.33.43-.44.56l.25.11c.34.15.81.37,1.4.67a9.61,9.61,0,0,0,.86-1.17,1.22,1.22,0,0,0,.16-.35c0-.06,0-.08-.15-.08h-.18Zm2.42,7.53L127,29.6c0-.17-.07-.25-.23-.25h0l-2.5.28.2,2.07Zm5-.62a.63.63,0,0,1,.6.6q0,.52-1.65,1.68a3.63,3.63,0,0,1-1.43.75.43.43,0,0,1-.35-.2.52.52,0,0,1-.09-.29c0-.18.14-.36.42-.55a8.91,8.91,0,0,0,1.92-1.68A.76.76,0,0,1,131.77,30.91Zm1.14-9.29,2.2-.19h.27c.71,0,1.07.38,1.07,1.16v7.67c0,.36-.2.54-.59.54s-.6-.18-.6-.54v-.06l-3.84.24a.52.52,0,0,1-.6.46.59.59,0,0,1-.49-.22.45.45,0,0,1-.09-.3V22c0-.36.19-.54.58-.54a.59.59,0,0,1,.53.27l.41,0a15.71,15.71,0,0,0,.85-2l-2.52.19H130a.51.51,0,0,1-.48-.24.68.68,0,0,1-.08-.34.51.51,0,0,1,.53-.56l6.49-.52h.09a.5.5,0,0,1,.52.31.59.59,0,0,1-.49.85l-2.66.2A14.09,14.09,0,0,1,132.91,21.62Zm2.35,2.31V23c0-.34-.14-.5-.41-.48h-.08l-3.35.32v1.44Zm0,1-3.84.32v1.51l3.84-.28Zm0,2.57-3.84.29v1.55l3.84-.24Zm-.62,3.32a2.76,2.76,0,0,1,1.22.73c.36.3.79.69,1.27,1.17a.83.83,0,0,1,.29.57.66.66,0,0,1-.18.44.56.56,0,0,1-.44.21,1.06,1.06,0,0,1-.73-.44q-1.15-1.31-1.65-1.77a.62.62,0,0,1-.24-.45.47.47,0,0,1,.12-.32A.46.46,0,0,1,134.64,30.85Z"/><path class="cls-5" d="M152.83,25.41a3.14,3.14,0,0,1,2.46,3.28,3.76,3.76,0,0,1-1,2.83,3.6,3.6,0,0,1-2.58.92,3.53,3.53,0,0,1-3-1.41,1.75,1.75,0,0,1-.44-.91.69.69,0,0,1,.2-.48.57.57,0,0,1,.43-.18.89.89,0,0,1,.72.53,2.23,2.23,0,0,0,2,1.17,2,2,0,0,0,1.75-.85,2.85,2.85,0,0,0,.44-1.63,2.41,2.41,0,0,0-1.13-2.29,2.18,2.18,0,0,0-.82-.24,8.34,8.34,0,0,0-1,0,1,1,0,0,1-.47-.07.6.6,0,0,1-.27-.57.52.52,0,0,1,.58-.59H151a3.47,3.47,0,0,0,1.29-.18,2.12,2.12,0,0,0,1.21-2.12,2.31,2.31,0,0,0-.39-1.39,1.72,1.72,0,0,0-1.48-.7,1.93,1.93,0,0,0-1.86,1.17.55.55,0,0,1-.53.37.75.75,0,0,1-.45-.14.55.55,0,0,1-.25-.47,1.36,1.36,0,0,1,.21-.64,3,3,0,0,1,1.18-1.12,3.57,3.57,0,0,1,1.73-.41,3,3,0,0,1,3.23,3.28A2.75,2.75,0,0,1,153,25.36Z"/><path class="cls-5" d="M159.08,29.53a1.38,1.38,0,0,1,.94.36,1.53,1.53,0,0,1,.51,1.23,4.3,4.3,0,0,1-.79,2.46,3.27,3.27,0,0,1-1.13,1.1.72.72,0,0,1-.36.11.41.41,0,0,1-.29-.13.42.42,0,0,1-.15-.31c0-.13.1-.26.3-.4a2.51,2.51,0,0,0,.92-1.32,1.13,1.13,0,0,0,.06-.29c0-.09-.11-.15-.32-.16a1,1,0,0,1-.74-.39,1.5,1.5,0,0,1-.29-.94,1.28,1.28,0,0,1,.44-1A1.32,1.32,0,0,1,159.08,29.53Z"/><path class="cls-5" d="M169.74,19.25a2.93,2.93,0,0,1,2.72,1.82,10.51,10.51,0,0,1,.89,4.76,11,11,0,0,1-.78,4.55,3,3,0,0,1-2.85,2.06,2.87,2.87,0,0,1-2.61-1.63,10,10,0,0,1-1-5,9.85,9.85,0,0,1,1.07-5.11A2.9,2.9,0,0,1,169.74,19.25Zm0,1.29q-2.15,0-2.15,5.32a11.74,11.74,0,0,0,.47,3.69c.36,1.05.93,1.57,1.69,1.57a1.67,1.67,0,0,0,1.5-1.11,10,10,0,0,0,.66-4.18C171.89,22.3,171.16,20.54,169.72,20.54Z"/><path class="cls-5" d="M178.74,19.25a2.93,2.93,0,0,1,2.72,1.82,10.51,10.51,0,0,1,.89,4.76,11,11,0,0,1-.78,4.55,3,3,0,0,1-2.85,2.06,2.87,2.87,0,0,1-2.61-1.63,10,10,0,0,1-1-5,9.85,9.85,0,0,1,1.07-5.11A2.9,2.9,0,0,1,178.74,19.25Zm0,1.29q-2.15,0-2.15,5.32a11.74,11.74,0,0,0,.47,3.69c.36,1.05.93,1.57,1.69,1.57a1.67,1.67,0,0,0,1.5-1.11,10,10,0,0,0,.66-4.18C180.89,22.3,180.16,20.54,178.72,20.54Z"/><path class="cls-5" d="M187.74,19.25a2.93,2.93,0,0,1,2.72,1.82,10.51,10.51,0,0,1,.89,4.76,11,11,0,0,1-.78,4.55,3,3,0,0,1-2.85,2.06,2.87,2.87,0,0,1-2.61-1.63,10,10,0,0,1-1-5,9.85,9.85,0,0,1,1.07-5.11A2.9,2.9,0,0,1,187.74,19.25Zm0,1.29q-2.15,0-2.15,5.32a11.74,11.74,0,0,0,.47,3.69c.36,1.05.93,1.57,1.69,1.57a1.67,1.67,0,0,0,1.5-1.11,10,10,0,0,0,.66-4.18C189.89,22.3,189.16,20.54,187.72,20.54Z"/><path class="cls-5" d="M201.1,20.87a.57.57,0,0,1,.46.64,11.76,11.76,0,0,1-.44,2.15l4,.14a1.87,1.87,0,0,1,.94.23,1.19,1.19,0,0,1,.45,1.09,17.48,17.48,0,0,1-.57,3.69,12.27,12.27,0,0,1-1.28,3.55,1.62,1.62,0,0,1-1.39.87,5.68,5.68,0,0,1-2.7-1c-.41-.25-.62-.47-.62-.67a.4.4,0,0,1,.45-.45,1.42,1.42,0,0,1,.6.21,6,6,0,0,0,1.29.48,1.77,1.77,0,0,0,.51.08.87.87,0,0,0,.78-.44,10.59,10.59,0,0,0,1.09-3.08,13.75,13.75,0,0,0,.46-2.8c0-.34-.19-.52-.58-.54l-3.82-.13a14.86,14.86,0,0,1-4.16,6.83c-.58.51-1,.76-1.21.76a.45.45,0,0,1-.36-.18A.44.44,0,0,1,195,32a1,1,0,0,1,.39-.62,13.89,13.89,0,0,0,3.42-5,18.73,18.73,0,0,0,1.39-4.82.77.77,0,0,1,.4-.65l-5.82.29h0a.41.41,0,0,1-.29-.11.63.63,0,0,1-.22-.52c0-.41.18-.62.55-.64l13.36-.67h0a.47.47,0,0,1,.37.15.66.66,0,0,1,.19.49.6.6,0,0,1-.27.53.63.63,0,0,1-.31.1Z"/><path class="cls-5" d="M224.08,25.88l-9.71.69V32.4a.59.59,0,0,1-.16.43.65.65,0,0,1-.51.21.63.63,0,0,1-.55-.27.58.58,0,0,1-.11-.37V20a.54.54,0,0,1,.26-.5.8.8,0,0,1,.4-.11.64.64,0,0,1,.58.3l9.66-.78h.2c.85,0,1.28.46,1.28,1.39v11.6c0,1-.41,1.45-1.23,1.45a6.86,6.86,0,0,1-1.7-.29,8.11,8.11,0,0,1-1.3-.41c-.29-.13-.44-.29-.44-.5a.43.43,0,0,1,.48-.49,2.1,2.1,0,0,1,.38.06,8.57,8.57,0,0,0,1.83.26q.45,0,.57-.21a.87.87,0,0,0,.07-.4Zm-5.65-.81V20.55l-4.06.32v4.49Zm1.3-.08,4.35-.32v-4c0-.33-.14-.5-.43-.5h-.08l-3.84.3Z"/><path class="cls-5" d="M21.34,97.53a16.37,16.37,0,0,0,4.59-4.29,2,2,0,0,0,.36-.66q0-.12-.21-.12c-.17,0-.4,0-.7,0s-1.64.11-3.62.22c-2.58.14-4.81.3-6.69.46h-.2a.62.62,0,0,1-.46-.18.66.66,0,0,1-.18-.47.58.58,0,0,1,.45-.59,6.57,6.57,0,0,1,1-.1l1.29-.1q3-.23,7.8-.48l1.73-.1.27,0a1.39,1.39,0,0,1,.79.21.93.93,0,0,1,.4.82,3.9,3.9,0,0,1-1,2,18.89,18.89,0,0,1-4.79,4.13,17.27,17.27,0,0,1,1.5,1.69,1.21,1.21,0,0,1,.26.69.81.81,0,0,1-.79.79.65.65,0,0,1-.49-.23,3,3,0,0,1-.29-.39,30.94,30.94,0,0,0-3.5-4,.82.82,0,0,1-.3-.51.53.53,0,0,1,.13-.33.53.53,0,0,1,.38-.17,1.22,1.22,0,0,1,.68.33C20.32,96.65,20.86,97.1,21.34,97.53Z"/><path class="cls-5" d="M39,94.26a26.32,26.32,0,0,1-5.61,3,1.33,1.33,0,0,1-.44.11.43.43,0,0,1-.41-.24.55.55,0,0,1-.07-.24.48.48,0,0,1,.26-.41s.36-.17.95-.44a23.09,23.09,0,0,0,4.42-2.65A19.49,19.49,0,0,0,42.36,89a.67.67,0,0,1,.56-.31.84.84,0,0,1,.47.15.54.54,0,0,1,.26.5,1.62,1.62,0,0,1-.37.8A17.32,17.32,0,0,1,40,93.49a.7.7,0,0,1,.33.67v7.54c0,.49-.22.74-.67.74s-.67-.25-.67-.74Z"/><path class="cls-5" d="M52.93,95.54a.54.54,0,0,1,.27.07.45.45,0,0,1,.28.44A6.33,6.33,0,0,1,53,97.6a9.82,9.82,0,0,1-1.44,2.54.86.86,0,0,1-.64.35.75.75,0,0,1-.44-.15.62.62,0,0,1-.26-.51,1.29,1.29,0,0,1,.37-.72A11.45,11.45,0,0,0,52.39,96,.59.59,0,0,1,52.93,95.54ZM56.51,92c0-.82,0-1.52,0-2.13a3.31,3.31,0,0,1,.11-1.15.62.62,0,0,1,.57-.3.58.58,0,0,1,.63.46,4.43,4.43,0,0,1,0,.78c0,.77,0,1.52,0,2.25,1.94-.12,3.41-.23,4.41-.32a1.11,1.11,0,0,1,.23,0,.74.74,0,0,1,.4.1.63.63,0,0,1-.19,1.15l-.47,0-4,.29-.36,0v.65c0,4.72.07,7.12.07,7.19a2.2,2.2,0,0,1-.23,1.12.86.86,0,0,1-.77.48,1.29,1.29,0,0,1-.62-.22l-1-.61-.87-.53Q54,101,54,100.74a.37.37,0,0,1,.42-.43,1.21,1.21,0,0,1,.44.12,14.09,14.09,0,0,0,1.39.58.76.76,0,0,0,.19,0c.08,0,.12-.12.12-.35,0,0,0-.06,0-.16V98.86c0-.14,0-1.79-.06-5v-.62c-2.93.23-4.54.34-4.82.34a.84.84,0,0,1-.45-.12A.62.62,0,0,1,51,93a.56.56,0,0,1,.45-.6,2.65,2.65,0,0,1,.56-.06l4.1-.28Zm4.28,3.37c.4,0,1.08.63,2,1.89a4.2,4.2,0,0,1,1.1,2.1.68.68,0,0,1-.24.57.81.81,0,0,1-.49.17.63.63,0,0,1-.52-.27s-.09-.16-.19-.35a18.36,18.36,0,0,0-1.91-3.1.91.91,0,0,1-.24-.53.47.47,0,0,1,.13-.32A.44.44,0,0,1,60.79,95.35Z"/><path class="cls-5" d="M80.55,94.16c.61,0,.91.22.91.68a.58.58,0,0,1-.37.62,6.7,6.7,0,0,1-1,.08c-2.67.07-6.26.25-10.76.52h-.1a.81.81,0,0,1-.48-.16.64.64,0,0,1-.23-.52.63.63,0,0,1,.6-.67l.89-.06c2.21-.13,3.91-.22,5.1-.26,2.34-.09,3.63-.14,3.86-.16C79.74,94.18,80.28,94.16,80.55,94.16Z"/><path class="cls-5" d="M97.54,99.26q-2.82.73-6.47,1.31c-1.75.27-2.75.41-3,.41a1.24,1.24,0,0,1-.74-.22.82.82,0,0,1-.37-.71,1.22,1.22,0,0,1,.18-.61c.05-.09.21-.33.48-.73a54,54,0,0,0,3.4-6c.48-1,.9-1.84,1.27-2.69a.75.75,0,0,1,.7-.52.89.89,0,0,1,.49.16.68.68,0,0,1,.31.58,2.87,2.87,0,0,1-.4,1,73.22,73.22,0,0,1-4.66,7.88.53.53,0,0,0-.12.25c0,.09.08.14.25.14.51,0,1.68-.14,3.52-.4,1.55-.22,3.09-.49,4.61-.82A24.82,24.82,0,0,0,95.4,96a.81.81,0,0,1-.22-.5.4.4,0,0,1,.14-.33.42.42,0,0,1,.33-.14c.42,0,1.3.9,2.64,2.71a7.11,7.11,0,0,1,1.57,2.81.73.73,0,0,1-.33.62.86.86,0,0,1-.5.17.73.73,0,0,1-.66-.51C98.23,100.53,98,100,97.54,99.26Z"/><path class="cls-5" d="M111.45,91.34a2.84,2.84,0,0,1,.2,1.19,11.4,11.4,0,0,1-2.06,5.9c-1,1.62-2,2.43-2.87,2.43a2.1,2.1,0,0,1-1.67-1,5.08,5.08,0,0,1-.93-3.17A5.56,5.56,0,0,1,105.69,93a7.8,7.8,0,0,1,3-2.12,8.86,8.86,0,0,1,3.41-.67,5.88,5.88,0,0,1,4.11,1.49A5.34,5.34,0,0,1,118,95.78a6,6,0,0,1-1.43,4,7,7,0,0,1-2.75,1.95,1.41,1.41,0,0,1-.49.11.45.45,0,0,1-.4-.18.43.43,0,0,1-.1-.27A.5.5,0,0,1,113,101a5.06,5.06,0,0,1,.7-.44,5.52,5.52,0,0,0,1.71-1.51,5.18,5.18,0,0,0,1.14-3.26,4.4,4.4,0,0,0-4.41-4.49l-.66,0h-.06Zm-1.19.21a7,7,0,0,0-4,2.64,4.32,4.32,0,0,0-.87,2.52A4.13,4.13,0,0,0,106,99c.25.39.5.58.73.58.43,0,1-.48,1.58-1.44A13.63,13.63,0,0,0,109.86,95a7.83,7.83,0,0,0,.45-2.44C110.31,92.33,110.29,92,110.26,91.55Z"/><path class="cls-5" d="M125.52,91.17a.37.37,0,0,1,.41.41c0,.23-.39.65-1.15,1.26a11.37,11.37,0,0,1-2.06,1.35.91.91,0,0,1-.45.13.54.54,0,0,1-.48-.28.53.53,0,0,1-.11-.31c0-.28.21-.51.64-.71A17.07,17.07,0,0,0,125,91.39.93.93,0,0,1,125.52,91.17Zm1.23,9.87a.56.56,0,0,1,.51.25.7.7,0,0,1,.14.41c0,.23-.16.43-.47.6a18.35,18.35,0,0,1-3.21,1.18,6.54,6.54,0,0,1-1.13.27c-.31,0-.47-.17-.47-.5a.48.48,0,0,1,.2-.4,2.13,2.13,0,0,1,.52-.21,19.76,19.76,0,0,0,3.46-1.48A1,1,0,0,1,126.75,101ZM123,88.25a3.79,3.79,0,0,1,.74.17,11.13,11.13,0,0,1,1.67.58.69.69,0,0,1,.49.62.83.83,0,0,1-.07.32.59.59,0,0,1-.57.32,1.26,1.26,0,0,1-.57-.2q-.73-.42-1.83-.93a.49.49,0,0,1-.35-.44C122.48,88.4,122.64,88.25,123,88.25Zm9.9,12.11-7.36.36a.59.59,0,0,1-.62.43.54.54,0,0,1-.62-.6V94.48c0-.39.21-.59.62-.59a.62.62,0,0,1,.57.3l7.24-.44H133c.52,0,.85.14,1,.44a1.78,1.78,0,0,1,.16.86v5.35a.56.56,0,0,1-.12.36.59.59,0,0,1-.51.23A.55.55,0,0,1,132.87,100.36Zm-7.35-5.2v.91l7.35-.42v-.43c0-.35-.15-.53-.46-.53h-.12Zm7.35,2.31v-1l-7.35.42v1Zm0,.88-7.35.41v1l7.35-.35Zm-3.43-9.54,5.57-.37h.09a.87.87,0,0,1,.58.17.56.56,0,0,1,.21.44,1.87,1.87,0,0,1-.68,1.1c-.69.69-1.16,1-1.41,1a.48.48,0,0,1-.36-.17.36.36,0,0,1-.09-.24.7.7,0,0,1,.24-.43c.12-.13.28-.32.48-.58a.45.45,0,0,0,.1-.21c0-.07-.07-.1-.23-.09h-.08l-5.15.32c-.82,1-1.41,1.5-1.75,1.5a.37.37,0,0,1-.29-.13.44.44,0,0,1-.14-.31c0-.13.12-.32.38-.58a9.51,9.51,0,0,0,1.39-1.86c.15-.26.28-.49.39-.71a.61.61,0,0,1,.59-.39.55.55,0,0,1,.32.1.56.56,0,0,1,.3.49A2.62,2.62,0,0,1,129.44,88.81Zm2,1.89a10.66,10.66,0,0,0,1.62,1.18,15.75,15.75,0,0,0,3.27,1.53c.47.17.71.33.71.49s-.07.15-.19.19a4.11,4.11,0,0,1-1.33.29,2.15,2.15,0,0,1-.91-.32A18.79,18.79,0,0,1,131,91.5a4.41,4.41,0,0,1-1.05,1.14A7.5,7.5,0,0,1,127.4,94a1.18,1.18,0,0,1-.29,0,.4.4,0,0,1-.45-.46c0-.17.18-.33.54-.46a5.75,5.75,0,0,0,2-1.22,3.94,3.94,0,0,0,1.11-1.72.5.5,0,0,1,.52-.4,1,1,0,0,1,.43.1.45.45,0,0,1,.26.43A1.28,1.28,0,0,1,131.43,90.7Zm.19,10.21a7.13,7.13,0,0,1,1.34.45c1.24.48,2.06.83,2.46,1a.74.74,0,0,1,.46.65.71.71,0,0,1-.66.67,1.83,1.83,0,0,1-.76-.29c-1-.56-1.9-1.05-2.81-1.48-.34-.16-.51-.34-.51-.55a.53.53,0,0,1,.06-.24A.44.44,0,0,1,131.62,100.91Z"/><path class="cls-5" d="M148,89.42l4.45-.33h.06a.5.5,0,0,1,.5.29.55.55,0,0,1,.07.28.49.49,0,0,1-.51.55l-1.52.12s-.12.37-.33,1-.42,1.15-.65,1.7l3.73-.26c.42,0,.63.19.63.58a.5.5,0,0,1-.5.57l-11.14.77V95a14,14,0,0,1-1.11,6,9.76,9.76,0,0,1-1.16,1.82.72.72,0,0,1-.53.34.51.51,0,0,1-.3-.1.5.5,0,0,1-.25-.42,1.17,1.17,0,0,1,.28-.58,12.29,12.29,0,0,0,1.73-6.88v-.46h-.11a.57.57,0,0,1-.41-.17.56.56,0,0,1-.16-.41.5.5,0,0,1,.52-.57l3.29-.23c-.2-.75-.46-1.59-.79-2.52l-1.67.13H142a.5.5,0,0,1-.48-.28.51.51,0,0,1-.07-.28.49.49,0,0,1,.5-.55l4.65-.35V88.09a.65.65,0,0,1,.23-.51.73.73,0,0,1,.45-.14.66.66,0,0,1,.54.24.59.59,0,0,1,.14.41Zm-2.16,7.52,2-.16v-1.5a.52.52,0,0,1,.21-.44.67.67,0,0,1,.45-.16.69.69,0,0,1,.54.23.57.57,0,0,1,.12.37v1.4l3.25-.25h.08c.39,0,.58.17.58.51a.54.54,0,0,1-.58.6l-3.33.22v1.49l3-.2h.1c.36,0,.55.17.55.51s-.19.55-.58.58l-3.08.18V102l4.74-.21h0a.5.5,0,0,1,.51.21.47.47,0,0,1,.11.33.54.54,0,0,1-.6.61l-10.63.44h-.05a.76.76,0,0,1-.37-.1.48.48,0,0,1-.21-.44c0-.37.19-.56.58-.58l4.57-.2v-1.65l-3,.17c-.42,0-.64-.13-.64-.5s.2-.53.58-.56l3.05-.19V97.85l-2.6.18c-.62,1-1.08,1.54-1.38,1.54a.39.39,0,0,1-.3-.14.43.43,0,0,1-.17-.34,1.27,1.27,0,0,1,.24-.55A13.81,13.81,0,0,0,144.82,96c.15-.41.37-.62.66-.62a.63.63,0,0,1,.33.09.56.56,0,0,1,.31.52A2.91,2.91,0,0,1,145.79,96.94Zm-.8-6.17.08.19a12.69,12.69,0,0,1,.73,2.33l3-.21a19.82,19.82,0,0,0,.82-2.66Z"/><path class="cls-5" d="M160.72,91.89v10.87a.58.58,0,0,1-.15.41.68.68,0,0,1-.47.17c-.41,0-.61-.19-.61-.58V94.11a20.21,20.21,0,0,1-1.47,2,.72.72,0,0,1-.51.29.52.52,0,0,1-.49-.47,2.15,2.15,0,0,1,.47-.8A19.39,19.39,0,0,0,159.3,92a26.68,26.68,0,0,0,1.32-3.22c.15-.42.37-.64.68-.64a.83.83,0,0,1,.32.07.54.54,0,0,1,.33.53,2.34,2.34,0,0,1-.18.7A21.46,21.46,0,0,1,160.72,91.89Zm4.5,2.54L165,91.08l-2.29.16h-.09c-.39,0-.58-.18-.58-.55a.56.56,0,0,1,.6-.61l9.36-.7h.07c.41,0,.61.19.61.57a.57.57,0,0,1-.61.62l-2.17.15-.18,3.37,1.85-.13h.2c.84,0,1.26.39,1.26,1.18a2.53,2.53,0,0,1,0,.28l-.63,6.57c0,.41-.24.62-.61.62s-.62-.18-.62-.54a.37.37,0,0,1,0-.08l0-.35L164,102c0,.36-.21.54-.62.54s-.56-.2-.61-.61L162,94.72v-.1c0-.36.2-.53.62-.53a.57.57,0,0,1,.61.49Zm.34,6.35-.28-5.22-1.89.13.52,5.16Zm.84-6.44,2.16-.15.15-3.37-2.46.17Zm1.89,6.31.23-5.32-2.07.15.22,5.24Zm1.12,0,1.92-.09.43-5a.46.46,0,0,0,0-.1c0-.25-.13-.36-.44-.34l-1.63.12Z"/><path class="cls-5" d="M178.6,92.09v11a.54.54,0,0,1-.16.4.64.64,0,0,1-.46.17c-.41,0-.62-.19-.62-.57v-9c-.91,1.28-1.54,1.92-1.91,1.92a.39.39,0,0,1-.29-.13.49.49,0,0,1-.15-.32c0-.11.16-.36.5-.76A14.47,14.47,0,0,0,177,92.56a30.9,30.9,0,0,0,1.88-4.08c.15-.41.38-.62.68-.62a.73.73,0,0,1,.31.07.56.56,0,0,1,.35.53,2.32,2.32,0,0,1-.21.73A28,28,0,0,1,178.6,92.09Zm2.68,3.34v6c0,.33.15.49.45.49h.11l9.07-.25c.43,0,.65.18.65.56a.55.55,0,0,1-.61.61l-9.53.22h-.09c-.58,0-1-.13-1.11-.4a1.47,1.47,0,0,1-.14-.75V95.43a.53.53,0,0,1,.61-.59A.52.52,0,0,1,181.28,95.43Zm5.26-3.14,1.61-.14h.18c.72,0,1.07.38,1.07,1.14v6.77a.51.51,0,0,1-.59.57.51.51,0,0,1-.58-.57v0l-4.27.29a.57.57,0,0,1-1.13-.16V92.61a.45.45,0,0,1,.2-.39.6.6,0,0,1,.38-.13.51.51,0,0,1,.56.42l1.35-.12V90.85l-3.66.3h-.1a.57.57,0,0,1-.37-.11.49.49,0,0,1-.18-.42.53.53,0,0,1,.56-.58l3.75-.3V88a.49.49,0,0,1,.19-.41.63.63,0,0,1,.41-.13.74.74,0,0,1,.42.12.5.5,0,0,1,.2.42v1.63l3.36-.28H190c.38,0,.56.17.56.51s-.19.54-.57.57l-3.44.29Zm1.69,2.11v-.89c0-.21-.1-.31-.29-.31h-.07l-3.89.32v1.19Zm0,1-4.25.29V97l4.25-.29Zm0,2.27L184,98v1.34l4.25-.29Z"/><path class="cls-5" d="M203.48,100.56h5.38c.41,0,.62.21.62.65a.56.56,0,0,1-.62.64h-5.74c-.7,0-1.05-.32-1.05-1a1.83,1.83,0,0,1,.33-.87,32,32,0,0,1,3.06-3.88c.8-.92,1.32-1.54,1.56-1.87a3.33,3.33,0,0,0,.69-1.93,2.36,2.36,0,0,0-.34-1.32,1.74,1.74,0,0,0-1.55-.77,2.15,2.15,0,0,0-2,1.35.61.61,0,0,1-.58.37,1,1,0,0,1-.43-.11.54.54,0,0,1-.3-.51,1.27,1.27,0,0,1,.19-.58,3.37,3.37,0,0,1,1.51-1.43,3.85,3.85,0,0,1,1.66-.37,3.19,3.19,0,0,1,2.42,1,3.41,3.41,0,0,1,.86,2.42,4.26,4.26,0,0,1-1,2.52c-.31.41-1,1.17-2,2.27A33.52,33.52,0,0,0,203.48,100.56Z"/><path class="cls-5" d="M213.08,99.24a1.38,1.38,0,0,1,.94.36,1.53,1.53,0,0,1,.51,1.23,4.3,4.3,0,0,1-.79,2.46,3.36,3.36,0,0,1-1.13,1.1.7.7,0,0,1-.36.1.4.4,0,0,1-.29-.12.42.42,0,0,1-.15-.31c0-.13.1-.26.3-.4a2.51,2.51,0,0,0,.92-1.32,1.13,1.13,0,0,0,.06-.29c0-.09-.11-.15-.32-.17a1,1,0,0,1-.74-.38,1.5,1.5,0,0,1-.29-.94,1.31,1.31,0,0,1,.44-1A1.36,1.36,0,0,1,213.08,99.24Z"/><path class="cls-5" d="M220.63,90.34c0-.73.46-1.09,1.25-1.09h4.64a.5.5,0,0,1,.4.17.72.72,0,0,1-.1,1,.49.49,0,0,1-.3.09h-4.19a.35.35,0,0,0-.4.38l-.1,3.53a3.25,3.25,0,0,1,2.28-.9,2.92,2.92,0,0,1,2.49,1.26,4.84,4.84,0,0,1,.8,2.87,5.37,5.37,0,0,1-.62,2.64,3.32,3.32,0,0,1-3.11,1.85,4.16,4.16,0,0,1-1.88-.42,3.6,3.6,0,0,1-1.26-1,.92.92,0,0,1-.2-.53.6.6,0,0,1,.21-.46.71.71,0,0,1,.49-.2.86.86,0,0,1,.66.43,2.29,2.29,0,0,0,2,.93,2,2,0,0,0,1.72-1,4.06,4.06,0,0,0,.6-2.27,3.87,3.87,0,0,0-.38-1.78,1.89,1.89,0,0,0-1.74-1.11,2.42,2.42,0,0,0-2,1.15.81.81,0,0,1-.66.44c-.49,0-.72-.23-.71-.68Z"/><path class="cls-5" d="M232.74,89a2.93,2.93,0,0,1,2.72,1.82,10.51,10.51,0,0,1,.89,4.76,11,11,0,0,1-.78,4.55,3,3,0,0,1-2.85,2.06,2.87,2.87,0,0,1-2.61-1.63,10,10,0,0,1-1-5,9.85,9.85,0,0,1,1.07-5.11A2.9,2.9,0,0,1,232.74,89Zm0,1.29q-2.15,0-2.15,5.32a11.78,11.78,0,0,0,.47,3.69c.36,1,.93,1.57,1.69,1.57a1.67,1.67,0,0,0,1.5-1.11,10,10,0,0,0,.66-4.18C234.89,92,234.16,90.25,232.72,90.25Z"/><path class="cls-5" d="M241.74,89a2.93,2.93,0,0,1,2.72,1.82,10.51,10.51,0,0,1,.89,4.76,11,11,0,0,1-.78,4.55,3,3,0,0,1-2.85,2.06,2.87,2.87,0,0,1-2.61-1.63,10,10,0,0,1-1-5,9.85,9.85,0,0,1,1.07-5.11A2.9,2.9,0,0,1,241.74,89Zm0,1.29q-2.15,0-2.15,5.32a11.78,11.78,0,0,0,.47,3.69c.36,1,.93,1.57,1.69,1.57a1.67,1.67,0,0,0,1.5-1.11,10,10,0,0,0,.66-4.18C243.89,92,243.16,90.25,241.72,90.25Z"/><path class="cls-5" d="M255.1,90.58a.57.57,0,0,1,.46.63,11.65,11.65,0,0,1-.44,2.16l4.05.14a1.87,1.87,0,0,1,.94.23,1.18,1.18,0,0,1,.45,1.09,17.48,17.48,0,0,1-.57,3.69,12.27,12.27,0,0,1-1.28,3.55,1.62,1.62,0,0,1-1.39.87,5.68,5.68,0,0,1-2.7-1c-.41-.25-.62-.47-.62-.67a.4.4,0,0,1,.45-.45,1.42,1.42,0,0,1,.6.21,6,6,0,0,0,1.29.48,1.77,1.77,0,0,0,.51.08.87.87,0,0,0,.78-.44A10.71,10.71,0,0,0,258.72,98a13.86,13.86,0,0,0,.46-2.8c0-.34-.19-.53-.58-.54l-3.82-.13a14.83,14.83,0,0,1-4.16,6.82c-.58.51-1,.77-1.21.77a.45.45,0,0,1-.36-.18.44.44,0,0,1-.1-.28,1,1,0,0,1,.39-.62,14,14,0,0,0,3.42-5,18.73,18.73,0,0,0,1.39-4.82.76.76,0,0,1,.4-.65l-5.82.29h0a.41.41,0,0,1-.29-.11.64.64,0,0,1-.22-.53c0-.4.18-.61.55-.63L262.09,89h0a.47.47,0,0,1,.37.15.66.66,0,0,1,.19.49.6.6,0,0,1-.27.53.63.63,0,0,1-.31.1Z"/><path class="cls-5" d="M278.08,95.59l-9.71.69v5.83a.59.59,0,0,1-.16.43.65.65,0,0,1-.51.21.63.63,0,0,1-.55-.27.58.58,0,0,1-.11-.37V89.69a.54.54,0,0,1,.26-.49.8.8,0,0,1,.4-.11.64.64,0,0,1,.58.3l9.66-.78h.2c.85,0,1.28.47,1.28,1.4v11.59c0,1-.41,1.46-1.23,1.46a6.86,6.86,0,0,1-1.7-.29,8.11,8.11,0,0,1-1.3-.41c-.29-.13-.44-.3-.44-.5a.43.43,0,0,1,.48-.49,2.1,2.1,0,0,1,.38.06,9.27,9.27,0,0,0,1.83.26q.45,0,.57-.21a.87.87,0,0,0,.07-.4Zm-5.65-.81V90.26l-4.06.32v4.49Zm1.3-.09,4.35-.31v-4c0-.32-.14-.49-.43-.49h-.08l-3.84.3Z"/><path class="cls-6" d="M19.37,150.11a13,13,0,0,1-.65,1.92l1.26-.12h.08a.48.48,0,0,1,.55.52.53.53,0,0,1-.56.57l-6.27.56h-.1c-.35,0-.53-.19-.53-.56s.17-.45.52-.49l1.71-.16c-.18-.57-.42-1.2-.7-1.89l-.23,0h-.11q-.48,0-.48-.45a.49.49,0,0,1,.5-.54l2-.17v-1.54a.55.55,0,0,1,.22-.45.63.63,0,0,1,.39-.13.62.62,0,0,1,.49.21.54.54,0,0,1,.13.37v1.44l1.91-.16h.08a.47.47,0,0,1,.53.48.51.51,0,0,1-.52.57Zm-3,7.79c.43,0,.64.19.64.58a3.83,3.83,0,0,1-.43,1.23,6.54,6.54,0,0,1-2.45,2.81.67.67,0,0,1-.34.12.42.42,0,0,1-.32-.15.46.46,0,0,1-.1-.29c0-.14.16-.34.48-.62a7.38,7.38,0,0,0,2-3.27C16,158,16.13,157.9,16.36,157.9Zm1.36-.12-2,.14q-.11.36-.6.36c-.28,0-.45-.19-.51-.58l-.41-3a.34.34,0,0,1,0-.11c0-.33.19-.49.58-.49a.51.51,0,0,1,.52.35l3.88-.35h.13a.67.67,0,0,1,.75.76,2.88,2.88,0,0,1,0,.32l-.29,1.61a.54.54,0,0,1,.18.41c0,.28-.17.43-.53.45l-.57,0-.1,2.83a12.17,12.17,0,0,0,2-1.27.72.72,0,0,1,.4-.18.41.41,0,0,1,.31.18.44.44,0,0,1,.13.3c0,.21-.6.75-1.79,1.63a3.67,3.67,0,0,1-1.44.79.63.63,0,0,1-.45-.21.92.92,0,0,1-.31-.68V161Zm1-1,.15-1.32v-.06a.22.22,0,0,0-.25-.25h-.07l-3.06.28.19,1.57Zm-.5-6.57-2.4.18a18.7,18.7,0,0,1,.66,1.87l1.15-.11,0-.08A15.43,15.43,0,0,0,18.19,150.19Zm5.72,7.66a.68.68,0,0,1,.34.08.58.58,0,0,1,.36.53,3.36,3.36,0,0,1-.46,1.2,6.9,6.9,0,0,1-2.83,3,1.59,1.59,0,0,1-.62.23.36.36,0,0,1-.28-.16.53.53,0,0,1-.12-.3.35.35,0,0,1,.1-.25s.18-.13.41-.29a6.46,6.46,0,0,0,2-2.4,8.81,8.81,0,0,0,.53-1.26A.51.51,0,0,1,23.91,157.85Zm3.48-8.08a10.15,10.15,0,0,1-.7,2l2-.14h.09a.46.46,0,0,1,.53.51c0,.36-.19.55-.57.58l-7.21.46h-.08q-.54,0-.54-.48c0-.33.18-.51.55-.54l1.59-.12a11.43,11.43,0,0,0-.75-1.81l-.39,0h-.1c-.33,0-.49-.14-.49-.47a.49.49,0,0,1,.5-.55l2.3-.2v-1.49a.51.51,0,0,1,.22-.46.65.65,0,0,1,.39-.12c.41,0,.61.19.61.58v1.39l2.45-.21c.41,0,.61.13.61.48a.5.5,0,0,1-.53.55Zm.43,7a.47.47,0,0,1,.25.45c0,.29-.17.43-.52.45l-1.25,0-.12,3.48v.08a.41.41,0,0,0,.09.3.57.57,0,0,0,.42.11,7.46,7.46,0,0,0,1.17-.07.51.51,0,0,0,.45-.45,12.5,12.5,0,0,0,.05-1.46,1.35,1.35,0,0,1,.05-.45.31.31,0,0,1,.29-.15c.23,0,.38.14.44.42a8.18,8.18,0,0,1,.23,2,1,1,0,0,1-.82,1.12,9.31,9.31,0,0,1-1.74.1,2.74,2.74,0,0,1-1.52-.27,1.11,1.11,0,0,1-.3-.9v-.16l.15-3.64-2,.09c-.05.26-.24.39-.56.39s-.51-.19-.56-.57l-.38-3.23v-.09c0-.33.19-.49.58-.49a.5.5,0,0,1,.51.31l4.44-.3a1.08,1.08,0,0,1,.62.12.64.64,0,0,1,.34.6s0,.11,0,.2Zm-1.1,0,.15-1.49s0-.08,0-.13a.23.23,0,0,0-.25-.25h-.07l-3.65.25.19,1.77Zm-.53-6.87-2.72.22a13.92,13.92,0,0,1,.68,1.82l1.42-.09A12.86,12.86,0,0,0,26.19,149.87Z"/><path class="cls-6" d="M33.61,155.75c-.06,1.58-.39,2.37-1,2.37a.83.83,0,0,1-.35-.09.54.54,0,0,1-.32-.53,1.33,1.33,0,0,1,.11-.44,7.8,7.8,0,0,0,.56-2.47c0-.35.18-.52.47-.52h0q.41,0,.48.57l12-.77h.11q.84,0,.84.6a3.6,3.6,0,0,1-1,1.85q-.63.75-.93.75c-.31,0-.46-.13-.46-.39a.75.75,0,0,1,.13-.37,5.45,5.45,0,0,0,.43-.92.52.52,0,0,0,.07-.21c0-.07-.07-.1-.21-.1h-.18Zm3.57.77c.47,0,.71.22.71.67a4.71,4.71,0,0,1-.31,1.22,6.51,6.51,0,0,1-3.85,4.08,2.88,2.88,0,0,1-1,.29.35.35,0,0,1-.32-.16.48.48,0,0,1-.12-.29.41.41,0,0,1,.18-.34,5.71,5.71,0,0,1,.61-.32,5.85,5.85,0,0,0,2.25-1.94,7.31,7.31,0,0,0,1.16-2.67A.63.63,0,0,1,37.18,156.52ZM40,150.23v1.46l3.84-.23h0a.51.51,0,0,1,.3.07.47.47,0,0,1,.29.47.48.48,0,0,1-.5.54l-9,.56h-.1c-.37,0-.55-.18-.55-.53a.49.49,0,0,1,.52-.55l3.82-.24v-1.46l-4.65.29h-.09a.49.49,0,0,1-.46-.23.52.52,0,0,1-.1-.33.5.5,0,0,1,.53-.56l4.77-.3v-1.61a.58.58,0,0,1,.23-.49.71.71,0,0,1,.45-.14.73.73,0,0,1,.5.18.61.61,0,0,1,.18.45v1.52l4.76-.3q.63,0,.63.57a.48.48,0,0,1-.51.55Zm1.12,6.27,0,4.18a.58.58,0,0,0,.28.6,5.24,5.24,0,0,0,1.44.1,20.15,20.15,0,0,0,2.43-.1.69.69,0,0,0,.65-.59,6.11,6.11,0,0,0,.09-1.22c0-.42.16-.63.44-.63s.47.18.54.53a10.36,10.36,0,0,1,.22,1.9,1.05,1.05,0,0,1-.82,1.1,15.25,15.25,0,0,1-3.5.24c-1,0-1.73,0-2-.06a1.18,1.18,0,0,1-1-.59,1.76,1.76,0,0,1-.15-.79v-.08l.08-4.59a.6.6,0,0,1,.67-.67A.61.61,0,0,1,41.07,156.5Z"/><path class="cls-6" d="M57.45,150.78a2.84,2.84,0,0,1,.2,1.19,11.38,11.38,0,0,1-2.06,5.9c-1,1.62-2,2.43-2.87,2.43a2.1,2.1,0,0,1-1.67-1,5,5,0,0,1-.93-3.16,5.57,5.57,0,0,1,1.57-3.79,7.91,7.91,0,0,1,3.05-2.12,8.86,8.86,0,0,1,3.41-.67,5.85,5.85,0,0,1,4.11,1.5A5.32,5.32,0,0,1,64,155.22a6,6,0,0,1-1.43,4,7,7,0,0,1-2.75,2,1.22,1.22,0,0,1-.49.11.45.45,0,0,1-.4-.18.43.43,0,0,1-.1-.26.5.5,0,0,1,.18-.37,4.5,4.5,0,0,1,.7-.43,5.69,5.69,0,0,0,1.71-1.52,5.16,5.16,0,0,0,1.14-3.26,4.4,4.4,0,0,0-4.41-4.49l-.66,0h-.06Zm-1.19.21a6.92,6.92,0,0,0-4,2.65,4.29,4.29,0,0,0-.87,2.51,4.13,4.13,0,0,0,.6,2.31c.25.39.5.58.73.58.43,0,1-.48,1.58-1.44a13.63,13.63,0,0,0,1.54-3.19,7.83,7.83,0,0,0,.45-2.44C56.31,151.78,56.29,151.45,56.26,151Z"/><path class="cls-6" d="M68,154.11a4.93,4.93,0,0,1,1.57.74,9.17,9.17,0,0,1,1,.61.76.76,0,0,1,.26.56.78.78,0,0,1-.12.41.54.54,0,0,1-.47.25.85.85,0,0,1-.51-.19l-.8-.69c-.34-.3-.68-.56-1-.81a.54.54,0,0,1-.28-.45.44.44,0,0,1,.1-.26A.37.37,0,0,1,68,154.11Zm10.22-4.44-.14.85c-.06.4-.25.59-.57.59s-.57-.17-.57-.52v-.08l.07-.77-3.83.21.11,1.08s0,.06,0,.1c0,.38-.2.56-.59.56a.6.6,0,0,1-.63-.59L72,150l-3.49.2A.58.58,0,0,1,68,150a.53.53,0,0,1-.12-.35.5.5,0,0,1,.52-.56l3.45-.19-.17-1.18a.59.59,0,0,1,.34-.65.71.71,0,0,1,.32-.07.62.62,0,0,1,.68.61l.12,1.22,4-.23.11-1.14a.6.6,0,0,1,.65-.64.69.69,0,0,1,.49.18.58.58,0,0,1,.19.45v.11l-.16,1,3.55-.2c.41,0,.62.19.62.57a.48.48,0,0,1-.5.55Zm-7.36,8a.73.73,0,0,1,.31.07.49.49,0,0,1,.27.47,8.94,8.94,0,0,1-1.44,3c-.32.51-.54.84-.67,1a.75.75,0,0,1-.58.32.63.63,0,0,1-.41-.16.65.65,0,0,1-.26-.52,1.39,1.39,0,0,1,.36-.72,19.68,19.68,0,0,0,1.87-3C70.49,157.78,70.67,157.63,70.89,157.63Zm-1.47-6a3.87,3.87,0,0,1,1.44.66,9,9,0,0,1,1,.66.72.72,0,0,1,.29.55.65.65,0,0,1-.13.39.63.63,0,0,1-.54.27,1,1,0,0,1-.68-.37,11.33,11.33,0,0,0-1.53-1.27A.54.54,0,0,1,69,152,.39.39,0,0,1,69.42,151.58Zm11,9.73a.48.48,0,0,1,.31.5c0,.33-.19.51-.59.52l-4.46.18s0,.08,0,.12c0,.35-.2.53-.6.53s-.56-.2-.62-.61l-.54-3.9a.57.57,0,0,1,0-.12.46.46,0,0,1,0-.21,7.35,7.35,0,0,1-1.83.78.43.43,0,0,1-.37-.24.53.53,0,0,1-.1-.28.45.45,0,0,1,.23-.38,6,6,0,0,1,.73-.31,14.68,14.68,0,0,0,3-1.66c.28-.2.59-.44.93-.73-.64-.51-1.15-1-1.54-1.34a15.92,15.92,0,0,1-1.38,1.22,1.19,1.19,0,0,1-.7.3.46.46,0,0,1-.48-.42.52.52,0,0,1,.17-.35l.33-.26a12.61,12.61,0,0,0,2.69-3.15.76.76,0,0,1,.61-.45.89.89,0,0,1,.35.08.52.52,0,0,1,.33.48.5.5,0,0,1,0,.14l2.73-.16h.1a1.1,1.1,0,0,1,.64.16.62.62,0,0,1,.28.52,1.09,1.09,0,0,1-.2.58,12.49,12.49,0,0,1-2.19,2.62,17.31,17.31,0,0,0,4.67,2.25c.48.13.72.26.72.4s-.11.18-.31.25a4.9,4.9,0,0,1-1.53.42,4.51,4.51,0,0,1-1.11-.5.77.77,0,0,1,.2.58,2.29,2.29,0,0,1,0,.43Zm-5.27-3h.06l4.52-.27h.16a1.53,1.53,0,0,1,.51.07,33.42,33.42,0,0,1-3-2A17.45,17.45,0,0,1,74.58,158,.6.6,0,0,1,75.17,158.34Zm4.08,3,.26-1.73a.57.57,0,0,0,0-.14c0-.2-.13-.29-.4-.28l-3.78.23.24,2.06Zm-1.94-6.51a10.27,10.27,0,0,0,1.32-1.57,1.48,1.48,0,0,0,.23-.43c0-.11-.07-.15-.22-.14h0l-2.36.16c-.17.21-.36.42-.55.63A13.74,13.74,0,0,0,77.31,154.8Z"/><path class="cls-6" d="M89,154.84a18.53,18.53,0,0,1-2.76,4c-.32.33-.57.5-.77.5a.34.34,0,0,1-.27-.12.52.52,0,0,1-.13-.32.59.59,0,0,1,.11-.32s.25-.32.64-.8a19.56,19.56,0,0,0,2.36-3.88c.21-.44.35-.77.44-1l-2.47.29H86c-.41,0-.61-.18-.61-.56A.57.57,0,0,1,86,152l3.06-.36v-3.42a.56.56,0,0,1,.2-.45.67.67,0,0,1,.44-.15.65.65,0,0,1,.53.24.56.56,0,0,1,.12.36v3.27l2-.23h.13q.63,0,.63.6a.54.54,0,0,1-.54.6l-2.2.25v1a14,14,0,0,1,2.32,1.5c.42.32.63.63.63.91a.53.53,0,0,1-.15.36.67.67,0,0,1-.49.25,1.19,1.19,0,0,1-.74-.47,18.4,18.4,0,0,0-1.57-1.47v7.23a.5.5,0,0,1-.07.27.62.62,0,0,1-.58.28.64.64,0,0,1-.52-.21.5.5,0,0,1-.12-.34Zm6.36-6.29v11.19c0,.42.12.7.38.82a5,5,0,0,0,1.63.17,3.2,3.2,0,0,0,1.83-.32.94.94,0,0,0,.26-.61c0-.44.06-1.06.07-1.86a1.16,1.16,0,0,1,.06-.46.39.39,0,0,1,.4-.24c.27,0,.43.17.49.52a16,16,0,0,1,.18,2.52,1.44,1.44,0,0,1-.67,1.43,6.29,6.29,0,0,1-2.55.34,5.89,5.89,0,0,1-2.8-.42,1.73,1.73,0,0,1-.62-1.55V148.55c0-.43.22-.64.67-.64a.69.69,0,0,1,.48.19A.59.59,0,0,1,95.4,148.55Z"/><path class="cls-6" d="M106.3,155a30.29,30.29,0,0,1-2.46,3.83.68.68,0,0,1-.53.35A.44.44,0,0,1,103,159a.43.43,0,0,1-.14-.31,2.13,2.13,0,0,1,.45-.8,22.37,22.37,0,0,0,2.71-5.15l-2.11.26h-.15c-.39,0-.59-.19-.59-.56a.56.56,0,0,1,.55-.61l2.56-.31v-3.45a.53.53,0,0,1,.23-.45.72.72,0,0,1,.4-.12.62.62,0,0,1,.41.14.5.5,0,0,1,.22.43v3.3l1.65-.2h.12a.52.52,0,0,1,.58.59.53.53,0,0,1-.53.57l-1.82.22v1.08a15.8,15.8,0,0,1,2.21,1.55.84.84,0,0,1,.37.66.57.57,0,0,1-.16.4.6.6,0,0,1-.45.21,1,1,0,0,1-.66-.42c-.48-.53-.92-1-1.31-1.34v7.5q0,.54-.63.54t-.63-.54Zm10.3,6.64L112,162v.2c0,.37-.2.56-.61.56s-.59-.19-.59-.56v-13a.5.5,0,0,1,.22-.44.59.59,0,0,1,.37-.12.58.58,0,0,1,.58.38l4.72-.47h.16c.67,0,1,.36,1,1.09v12.59a.6.6,0,0,1-.1.35.59.59,0,0,1-.5.22c-.41,0-.62-.19-.62-.57Zm0-9.19V150c0-.24-.1-.36-.31-.36h-.08l-4.24.43v2.7Zm0,1.1-4.63.38v2.77l4.63-.35Zm0,3.9-4.63.35v3l4.63-.34Z"/><path class="cls-6" d="M124.77,152.89v4.35c.47-.28,1-.63,1.63-1.05a.9.9,0,0,1,.46-.17.46.46,0,0,1,.35.16.51.51,0,0,1,.15.37c0,.19-.15.38-.46.6a29.13,29.13,0,0,1-4.57,2.79,2.23,2.23,0,0,1-.73.24.56.56,0,0,1-.51-.3.89.89,0,0,1-.08-.35.52.52,0,0,1,.25-.45,3,3,0,0,1,.49-.24c.5-.22,1.07-.51,1.73-.87v-4.89l-1.67.25h-.11a.5.5,0,0,1-.56-.56.56.56,0,0,1,.55-.59l1.79-.25v-3.72a.52.52,0,0,1,.2-.43.69.69,0,0,1,.44-.15.7.7,0,0,1,.53.23.51.51,0,0,1,.12.35v3.53l1.35-.2h.11c.35,0,.53.19.53.57s-.18.5-.53.56Zm9.85,4.3a7,7,0,0,1-.66,1.33,11.25,11.25,0,0,1-3.69,3.95,1.09,1.09,0,0,1-.54.21.43.43,0,0,1-.31-.15.46.46,0,0,1-.15-.34.51.51,0,0,1,.13-.35,5,5,0,0,1,.51-.41,11,11,0,0,0,3.38-4.16l-1.41.09a10.47,10.47,0,0,1-2.95,3.3,3.52,3.52,0,0,1-1.4.82.42.42,0,0,1-.35-.21.48.48,0,0,1-.11-.29.48.48,0,0,1,.19-.37,2.79,2.79,0,0,1,.43-.31,13.63,13.63,0,0,0,2.84-2.85l-1.31.08a11.07,11.07,0,0,1-1.74,1.48,1.1,1.1,0,0,1-.55.23.51.51,0,0,1-.36-.17.36.36,0,0,1-.11-.27.5.5,0,0,1,.16-.36l.34-.26a13.22,13.22,0,0,0,2.7-3l-2.39.16h-.1q-.51,0-.51-.48a.51.51,0,0,1,.56-.56l9.6-.67h.09c.37,0,.55.17.55.51a.52.52,0,0,1-.57.57l-5.84.39a9.36,9.36,0,0,1-.9,1.38l5.55-.36h.15a.86.86,0,0,1,1,1,12.6,12.6,0,0,1-.18,1.61q-.65,4.16-2.22,4.15a4.38,4.38,0,0,1-1.66-.54c-.42-.2-.62-.4-.62-.6a.39.39,0,0,1,.44-.45,1.29,1.29,0,0,1,.39.09,3.5,3.5,0,0,0,1,.2c.32,0,.57-.2.76-.61a8.85,8.85,0,0,0,.65-2.21,8.2,8.2,0,0,0,.14-1.16c0-.28-.15-.41-.45-.38H135Zm-.53-4.61-4.58.3a.53.53,0,0,1-.59.54.54.54,0,0,1-.6-.59l-.27-4.49v-.12c0-.39.2-.59.62-.59a.58.58,0,0,1,.55.27l5-.43a1.11,1.11,0,0,1,.23,0c.72,0,1.06.34,1,1l-.2,4a.53.53,0,0,1-.59.56A.51.51,0,0,1,134.09,152.58Zm.1-3.1,0-.57v-.07c0-.24-.11-.35-.36-.35h-.08l-4.46.38.05,1Zm-.07,2.13,0-1.13-4.74.35.05,1.08Z"/><path class="cls-6" d="M28.49,168.41a.45.45,0,0,1,.5.51.51.51,0,0,1-.17.36l-.5.38a8.45,8.45,0,0,0-2.09,2.41,9.31,9.31,0,0,0,0,9.09,8.48,8.48,0,0,0,2.4,2.62.61.61,0,0,1,.33.49.45.45,0,0,1-.51.5,1.45,1.45,0,0,1-.73-.35,9.57,9.57,0,0,1-2.69-2.94,9.47,9.47,0,0,1,.35-10.32,9,9,0,0,1,2.62-2.6A.86.86,0,0,1,28.49,168.41Z"/><path class="cls-6" d="M35.45,181.4l-2.43.18v.1c0,.38-.21.58-.63.58a.59.59,0,0,1-.55-.27.65.65,0,0,1-.08-.31V171.2a.54.54,0,0,1,.2-.43.72.72,0,0,1,.44-.14.55.55,0,0,1,.6.45l2.45-.34a1.42,1.42,0,0,1,.29,0c.65,0,1,.41,1,1.24v9.8q0,.57-.63.57a.6.6,0,0,1-.55-.27.61.61,0,0,1-.08-.3Zm0-6v-3.2c0-.24-.09-.36-.29-.36h-.07l-2.07.27v3.49Zm0,1.05-2.43.19v3.77l2.43-.16Zm7-4.27v2l4.31-.4h.07c.37,0,.55.19.55.57a.49.49,0,0,1-.5.55l-9.09.83H37.7a.57.57,0,0,1-.42-.17.58.58,0,0,1-.16-.41c0-.33.18-.5.53-.53l3.49-.33v-2l-2.56.23a.68.68,0,0,1-.53-.17.52.52,0,0,1,.32-.94l2.77-.24v-1.91a.56.56,0,0,1,.2-.44.72.72,0,0,1,1,.08.56.56,0,0,1,.12.36v1.79l2.74-.24h.06a.47.47,0,0,1,.51.3.6.6,0,0,1,.06.27.49.49,0,0,1-.5.54Zm2.06,6.18v4.76c0,.85-.36,1.27-1.06,1.27a4,4,0,0,1-1.38-.34c-1-.37-1.44-.7-1.44-1a.39.39,0,0,1,.43-.44,1.63,1.63,0,0,1,.43.09,4.53,4.53,0,0,0,1.31.25c.25,0,.37-.16.37-.47v-4l-5.06.43c-.43,0-.64-.2-.64-.57a.49.49,0,0,1,.52-.54l5.18-.44v-1.47a.55.55,0,0,1,.27-.5.69.69,0,0,1,.4-.11.66.66,0,0,1,.48.18.53.53,0,0,1,.19.43v1.35l1.78-.15h.08a.51.51,0,0,1,.55.57.49.49,0,0,1-.5.55Zm-5.42.79a1,1,0,0,1,.5.19c1.23.76,1.85,1.39,1.85,1.87a.62.62,0,0,1-.18.44.69.69,0,0,1-.5.21,1,1,0,0,1-.72-.48,14,14,0,0,0-1.15-1.3.71.71,0,0,1-.25-.49.42.42,0,0,1,.13-.31A.42.42,0,0,1,39.07,179.2Z"/><path class="cls-6" d="M52.72,172.93V183.8a.58.58,0,0,1-.15.41.63.63,0,0,1-.47.17c-.41,0-.61-.19-.61-.58v-8.64a21.16,21.16,0,0,1-1.47,2,.72.72,0,0,1-.51.29A.52.52,0,0,1,49,177a2.09,2.09,0,0,1,.47-.81A19.39,19.39,0,0,0,51.3,173a27.24,27.24,0,0,0,1.32-3.21c.15-.43.37-.65.68-.65a.83.83,0,0,1,.32.07.54.54,0,0,1,.33.53,2.34,2.34,0,0,1-.18.7A21.46,21.46,0,0,1,52.72,172.93Zm4.5,2.54L57,172.12l-2.29.16h-.09c-.39,0-.58-.18-.58-.54a.56.56,0,0,1,.6-.62l9.36-.7h.07c.41,0,.61.19.61.57s-.2.59-.61.62l-2.17.15-.18,3.37,1.85-.13h.2c.84,0,1.26.39,1.26,1.18a2.53,2.53,0,0,1,0,.28L64.43,183c0,.41-.24.62-.61.62s-.62-.18-.62-.54a.37.37,0,0,1,0-.08l0-.35L56,183c0,.35-.21.53-.62.53s-.56-.2-.61-.6L54,175.76v-.1c0-.35.2-.53.62-.53a.57.57,0,0,1,.61.49Zm.34,6.35-.28-5.22-1.89.13.52,5.16Zm.84-6.44,2.16-.15.15-3.37-2.46.18Zm1.89,6.31.23-5.32-2.07.15.22,5.25Zm1.12,0,1.92-.09.43-4.95a.46.46,0,0,0,0-.1c0-.25-.13-.36-.44-.33l-1.63.11Z"/><path class="cls-6" d="M74.42,176.59l-4.06-4.07a.46.46,0,0,1-.15-.34.6.6,0,0,1,.21-.45.56.56,0,0,1,.4-.17.43.43,0,0,1,.34.15l4.07,4.07,4.07-4.07a.49.49,0,0,1,.35-.15.56.56,0,0,1,.44.21.62.62,0,0,1,.17.41.46.46,0,0,1-.15.34L76,176.59l4.07,4.07a.45.45,0,0,1,.15.35.59.59,0,0,1-.21.44.6.6,0,0,1-.41.17.46.46,0,0,1-.34-.15l-4.07-4.07-4.07,4.07a.47.47,0,0,1-.35.15.57.57,0,0,1-.44-.22.56.56,0,0,1-.16-.41.46.46,0,0,1,.15-.33Z"/><path class="cls-6" d="M88.74,170a2.93,2.93,0,0,1,2.72,1.82,10.51,10.51,0,0,1,.89,4.76,11,11,0,0,1-.78,4.55,3,3,0,0,1-2.85,2.06,2.87,2.87,0,0,1-2.61-1.63,10,10,0,0,1-1-5,9.85,9.85,0,0,1,1.07-5.11A2.9,2.9,0,0,1,88.74,170Zm0,1.29q-2.14,0-2.15,5.32A11.74,11.74,0,0,0,87,180.3c.36,1,.93,1.57,1.69,1.57a1.67,1.67,0,0,0,1.5-1.11,10,10,0,0,0,.66-4.18C90.89,173.05,90.16,171.29,88.72,171.29Z"/><path class="cls-6" d="M96.19,180.91a1.43,1.43,0,0,1,1.38,1.38,1.37,1.37,0,0,1-.21.72,1.37,1.37,0,0,1-2.11.3,1.38,1.38,0,0,1,.07-2.1A1.37,1.37,0,0,1,96.19,180.91Z"/><path class="cls-6" d="M104.19,170.29h5.11a1.4,1.4,0,0,1,.76.18.77.77,0,0,1,.37.68,3,3,0,0,1-.2.85c-.09.25-.34,1.09-.77,2.52q-1.33,4.44-2.16,7.81c-.12.47-.35.71-.7.71s-.71-.22-.71-.65a3.66,3.66,0,0,1,.16-.75q1.59-5.94,2.71-9.57a1.09,1.09,0,0,0,.07-.32q0-.21-.36-.21h-3.78a.27.27,0,0,0-.3.31v2.25a.54.54,0,0,1-.17.4.69.69,0,0,1-.48.17.65.65,0,0,1-.57-.27.61.61,0,0,1-.08-.3v-2.57C103.09,170.7,103.46,170.29,104.19,170.29Z"/><path class="cls-6" d="M122.72,171.53l4.93-.33h.08a.55.55,0,0,1,.62.62c0,.35-.2.55-.61.58l-15,.91h-.09a.49.49,0,0,1-.47-.22.71.71,0,0,1-.11-.39c0-.33.2-.51.58-.53l8.72-.57c.33-.51.79-1.35,1.38-2.51.2-.38.43-.57.7-.57a.86.86,0,0,1,.38.1.55.55,0,0,1,.39.52A6.91,6.91,0,0,1,122.72,171.53Zm-4.31,8.61-3,.27v3c0,.43-.2.64-.59.64a.56.56,0,0,1-.63-.64v-8.51a.56.56,0,0,1,.63-.63.53.53,0,0,1,.56.37l3.07-.33h.19a1.08,1.08,0,0,1,.68.21,1,1,0,0,1,.39.86v7.38c0,.93-.34,1.4-1,1.4a4.1,4.1,0,0,1-1.77-.59c-.3-.15-.44-.33-.44-.52a.35.35,0,0,1,.4-.39,1.23,1.23,0,0,1,.28,0,3.56,3.56,0,0,0,1,.13c.2,0,.29-.14.29-.4Zm0-3.41v-1c0-.22-.07-.33-.22-.31h0l-2.77.3v1.31Zm0,1.05-3,.31v1.28l3-.29Zm-1.79-8.94c.18,0,.44.16.8.49a9.16,9.16,0,0,1,1.08,1.21.87.87,0,0,1,.2.55.56.56,0,0,1-.23.45.86.86,0,0,1-.55.21c-.24,0-.46-.18-.63-.53a9.19,9.19,0,0,0-1-1.57.6.6,0,0,1-.16-.37.43.43,0,0,1,.13-.3A.41.41,0,0,1,116.62,168.84Zm6.24,6.24v5c0,.43-.21.65-.62.65a.57.57,0,0,1-.64-.65v-5c0-.44.21-.65.63-.65S122.86,174.64,122.86,175.08Zm3.3-.81V183c0,1-.37,1.49-1.1,1.49a5.78,5.78,0,0,1-2.13-.59q-.45-.21-.45-.48c0-.32.15-.48.43-.48a1.38,1.38,0,0,1,.31,0,4.7,4.7,0,0,0,1.18.14.4.4,0,0,0,.46-.46v-8.35c0-.45.21-.67.63-.67A.59.59,0,0,1,126.16,174.27Z"/><path class="cls-6" d="M132.65,177a17.3,17.3,0,0,1-1.5,1.45,1,1,0,0,1-.56.26.42.42,0,0,1-.33-.16.45.45,0,0,1-.14-.32.56.56,0,0,1,.15-.36,4.07,4.07,0,0,1,.36-.35,19.47,19.47,0,0,0,3.29-4.32c.2-.34.43-.52.68-.52a.6.6,0,0,1,.61.59,5.68,5.68,0,0,1-1.32,2.26v8.19c0,.38-.2.57-.61.57s-.63-.2-.63-.6Zm1.74-7.58a.6.6,0,0,1,.41.17.55.55,0,0,1,.18.4c0,.39-.55,1-1.65,1.85a8.13,8.13,0,0,1-2.43,1.54.4.4,0,0,1-.35-.18.53.53,0,0,1-.1-.29c0-.18.18-.39.53-.63a14.72,14.72,0,0,0,2.71-2.45A1,1,0,0,1,134.39,169.45Zm5.16,12a21,21,0,0,1-1.6-1.52,13.22,13.22,0,0,1-2.13,1.6,1.33,1.33,0,0,1-.52.2.42.42,0,0,1-.34-.19.43.43,0,0,1-.08-.25.42.42,0,0,1,.17-.33l.38-.23a11,11,0,0,0,3.09-3,.61.61,0,0,1,.5-.27.6.6,0,0,1,.59.42l2.71-.28h.17c.57,0,.85.25.85.73a1.83,1.83,0,0,1-.3.9,11.19,11.19,0,0,1-1.78,2.27,15.66,15.66,0,0,0,4.24,2c.33.1.49.21.49.33s-.1.18-.3.25a5,5,0,0,1-1.57.36,1,1,0,0,1-.51-.12,23.45,23.45,0,0,1-3.17-2.14,13.18,13.18,0,0,1-2.55,1.62,5.13,5.13,0,0,1-1.66.64.4.4,0,0,1-.44-.46c0-.19.19-.36.58-.52a11.81,11.81,0,0,0,2.77-1.66Zm.27-8.49,1.2-1c.32-.28.66-.59,1-.95a1,1,0,0,1,.69-.37.55.55,0,0,1,.42.19.66.66,0,0,1,.21.48.57.57,0,0,1-.12.37,5,5,0,0,1-.63.59,54.15,54.15,0,0,1-4.56,3.42c1.16-.12,2.72-.34,4.7-.68a7.51,7.51,0,0,0-.55-.7.54.54,0,0,1-.18-.37.44.44,0,0,1,.12-.29.45.45,0,0,1,.32-.14.89.89,0,0,1,.54.26,13,13,0,0,1,1.69,1.78,1.1,1.1,0,0,1,.29.65.57.57,0,0,1-.24.48.74.74,0,0,1-.47.17.7.7,0,0,1-.57-.37l-.2-.32-.19-.3c-.79.18-1.77.37-2.92.57-2.22.38-3.46.57-3.73.57a.52.52,0,0,1-.45-.28.93.93,0,0,1-.18-.51.41.41,0,0,1,.12-.3,5.42,5.42,0,0,1,.52-.38c.55-.4,1.3-1,2.26-1.78-.43-.17-1.06-.37-1.88-.6-.44-.13-.66-.35-.66-.65s.24-.61.72-1a25.51,25.51,0,0,0,2.15-1.85l.51-.51a.92.92,0,0,1,.67-.37.64.64,0,0,1,.45.18.69.69,0,0,1,.22.47.93.93,0,0,1-.39.63,35,35,0,0,1-2.84,2.2A18,18,0,0,1,139.82,173Zm.48,7.78a9.75,9.75,0,0,0,1.31-1.61.76.76,0,0,0,.12-.28c0-.07-.06-.09-.18-.08h-.07l-2.54.22a2.94,2.94,0,0,1-.25.25A19.82,19.82,0,0,0,140.3,180.75Z"/><path class="cls-6" d="M149,168.41a1.43,1.43,0,0,1,.77.35,9.74,9.74,0,0,1,2.49,2.63,9.53,9.53,0,0,1-.29,10.81,9.21,9.21,0,0,1-2.49,2.42.89.89,0,0,1-.47.15.44.44,0,0,1-.49-.5.51.51,0,0,1,.17-.37l.5-.39a8.27,8.27,0,0,0,2.09-2.4,8.79,8.79,0,0,0,1.17-4.53,8.58,8.58,0,0,0-3.68-7.23.54.54,0,0,1-.25-.44.62.62,0,0,1,.11-.34A.44.44,0,0,1,149,168.41Z"/><path class="cls-6" d="M170.44,170.79v11.57a.61.61,0,0,1-.18.45.69.69,0,0,1-.53.2.71.71,0,0,1-.59-.27.63.63,0,0,1-.11-.38V170.79a.56.56,0,0,1,.25-.49.79.79,0,0,1,1,0A.56.56,0,0,1,170.44,170.79Z"/><path class="cls-6" d="M177.08,180.28a1.38,1.38,0,0,1,.94.36,1.53,1.53,0,0,1,.51,1.23,4.3,4.3,0,0,1-.79,2.46,3.27,3.27,0,0,1-1.13,1.1.72.72,0,0,1-.36.11.41.41,0,0,1-.29-.13.42.42,0,0,1-.15-.31c0-.13.1-.26.3-.4a2.51,2.51,0,0,0,.92-1.32,1.13,1.13,0,0,0,.06-.29c0-.09-.11-.15-.32-.16a1,1,0,0,1-.74-.39,1.5,1.5,0,0,1-.29-.94,1.28,1.28,0,0,1,.44-1A1.32,1.32,0,0,1,177.08,180.28Z"/><path class="cls-6" d="M185.19,170.29h5.11a1.4,1.4,0,0,1,.76.18.77.77,0,0,1,.37.68,3,3,0,0,1-.2.85c-.09.25-.34,1.09-.77,2.52q-1.34,4.44-2.16,7.81c-.12.47-.35.71-.7.71s-.71-.22-.71-.65a3.66,3.66,0,0,1,.16-.75q1.59-5.94,2.71-9.57a1.09,1.09,0,0,0,.07-.32q0-.21-.36-.21h-3.78a.27.27,0,0,0-.3.31v2.25a.54.54,0,0,1-.17.4.69.69,0,0,1-.48.17.65.65,0,0,1-.57-.27.61.61,0,0,1-.08-.3v-2.57C184.09,170.7,184.46,170.29,185.19,170.29Z"/><path class="cls-6" d="M193.63,171.39c0-.74.46-1.1,1.25-1.1h4.64a.53.53,0,0,1,.4.17.65.65,0,0,1,.16.46.63.63,0,0,1-.26.55.49.49,0,0,1-.3.09h-4.19a.35.35,0,0,0-.4.38l-.1,3.53a3.25,3.25,0,0,1,2.28-.9,2.92,2.92,0,0,1,2.49,1.26,4.84,4.84,0,0,1,.8,2.87,5.37,5.37,0,0,1-.62,2.64,3.32,3.32,0,0,1-3.11,1.85,4.16,4.16,0,0,1-1.88-.42,3.6,3.6,0,0,1-1.26-1,.92.92,0,0,1-.2-.53.6.6,0,0,1,.21-.46.71.71,0,0,1,.49-.2.89.89,0,0,1,.66.43,2.29,2.29,0,0,0,2,.93,2,2,0,0,0,1.72-1,4.06,4.06,0,0,0,.6-2.27,3.87,3.87,0,0,0-.38-1.78,1.89,1.89,0,0,0-1.74-1.11,2.42,2.42,0,0,0-2,1.15.81.81,0,0,1-.66.44c-.49,0-.72-.22-.71-.68Z"/><path class="cls-6" d="M205.74,170a2.93,2.93,0,0,1,2.72,1.82,10.51,10.51,0,0,1,.89,4.76,11,11,0,0,1-.78,4.55,3,3,0,0,1-2.85,2.06,2.87,2.87,0,0,1-2.61-1.63,10,10,0,0,1-1-5,9.85,9.85,0,0,1,1.07-5.11A2.9,2.9,0,0,1,205.74,170Zm0,1.29q-2.15,0-2.15,5.32a11.74,11.74,0,0,0,.47,3.69c.36,1,.93,1.57,1.69,1.57a1.67,1.67,0,0,0,1.5-1.11,10,10,0,0,0,.66-4.18C207.89,173.05,207.16,171.29,205.72,171.29Z"/><path class="cls-6" d="M219.1,171.62a.57.57,0,0,1,.46.64,11.76,11.76,0,0,1-.44,2.15l4,.14a1.87,1.87,0,0,1,.94.23,1.19,1.19,0,0,1,.45,1.09,17.48,17.48,0,0,1-.57,3.69,12.27,12.27,0,0,1-1.28,3.55,1.62,1.62,0,0,1-1.39.87,5.68,5.68,0,0,1-2.7-1c-.41-.25-.62-.47-.62-.67a.4.4,0,0,1,.45-.45,1.42,1.42,0,0,1,.6.21,6,6,0,0,0,1.29.48,1.77,1.77,0,0,0,.51.08.87.87,0,0,0,.78-.44,10.59,10.59,0,0,0,1.09-3.08,13.75,13.75,0,0,0,.46-2.8c0-.34-.19-.52-.58-.54l-3.82-.13a14.86,14.86,0,0,1-4.16,6.83c-.58.51-1,.76-1.21.76a.45.45,0,0,1-.36-.18.44.44,0,0,1-.1-.28,1,1,0,0,1,.39-.62,13.89,13.89,0,0,0,3.42-5,18.73,18.73,0,0,0,1.39-4.82.77.77,0,0,1,.4-.65l-5.82.29h0a.41.41,0,0,1-.29-.11.63.63,0,0,1-.22-.52c0-.41.18-.62.55-.64l13.36-.67h0a.47.47,0,0,1,.37.15.66.66,0,0,1,.19.49.6.6,0,0,1-.27.53.63.63,0,0,1-.31.1Z"/><path class="cls-6" d="M242.08,176.63l-9.71.69v5.83a.59.59,0,0,1-.16.43.65.65,0,0,1-.51.21.63.63,0,0,1-.55-.27.58.58,0,0,1-.11-.37V170.74a.54.54,0,0,1,.26-.5.8.8,0,0,1,.4-.11.64.64,0,0,1,.58.3l9.66-.78h.2c.85,0,1.28.46,1.28,1.39v11.6c0,1-.41,1.45-1.23,1.45a6.86,6.86,0,0,1-1.7-.29,8.11,8.11,0,0,1-1.3-.41c-.29-.13-.44-.29-.44-.5a.43.43,0,0,1,.48-.49,2.1,2.1,0,0,1,.38.06,8.57,8.57,0,0,0,1.83.26q.45,0,.57-.21a.87.87,0,0,0,.07-.4Zm-5.65-.81V171.3l-4.06.32v4.49Zm1.3-.08,4.35-.32v-4c0-.33-.14-.5-.43-.5h-.08l-3.84.3Z"/><path class="cls-7" d="M292.38,166.83a.51.51,0,0,1-.3.1.9.9,0,0,1-.62-.41,12.24,12.24,0,0,0-1.15-1.3,9.87,9.87,0,0,1-1,1.32.67.67,0,0,1-.48.27.45.45,0,0,1-.26-.11.39.39,0,0,1-.15-.32,2.3,2.3,0,0,1,.43-.82,18.38,18.38,0,0,0,2.47-5.88l-2,.18h-.07a.53.53,0,0,1-.58-.58.51.51,0,0,1,.52-.57l5.86-.56h.08a.53.53,0,0,1,.51.32.8.8,0,0,1,.05.26.51.51,0,0,1-.52.57l-2.63.25c-.1.49-.3,1.22-.61,2.2l1.68-.2.32,0a.8.8,0,0,1,.91.9,8.69,8.69,0,0,1-.31,1.83,16,16,0,0,1-1.73,4.15,14.19,14.19,0,0,1-3.24,3.91.75.75,0,0,1-.49.23.47.47,0,0,1-.35-.17.43.43,0,0,1-.11-.27c0-.15.15-.39.45-.71A18.51,18.51,0,0,0,292.38,166.83Zm.24-.51a13.23,13.23,0,0,0,.76-2.11,6.82,6.82,0,0,0,.23-1.21.29.29,0,0,0-.33-.33h-.07l-1.64.22a16.17,16.17,0,0,1-.81,1.61,8.25,8.25,0,0,1,1.6,1.31A.89.89,0,0,1,292.62,166.32Zm6.82-2.75q.15.85.33,1.5l3.8-.53h.12a.47.47,0,0,1,.51.31.64.64,0,0,1,.05.23c0,.29-.18.47-.53.51l-3.66.51a13.54,13.54,0,0,0,.77,1.86,11.9,11.9,0,0,0,1.26-1.29.84.84,0,0,1,.6-.35.55.55,0,0,1,.42.19.54.54,0,0,1,.19.4,1.45,1.45,0,0,1-.49.81c-.41.43-.86.86-1.36,1.29a14.91,14.91,0,0,0,1.47,1.82c.22.23.38.34.47.34s.23-.58.23-1.76c0-.38.14-.57.4-.57s.44.16.51.47a9.91,9.91,0,0,1,.18,2.13c0,.92-.28,1.39-.83,1.39a2,2,0,0,1-1.17-.52,11.77,11.77,0,0,1-2.26-2.52,16.16,16.16,0,0,1-3.82,2,5.7,5.7,0,0,1-1.29.4c-.31,0-.47-.17-.47-.51a.43.43,0,0,1,.23-.38s.28-.13.71-.3a17.63,17.63,0,0,0,4-2.25,15.58,15.58,0,0,1-1-2.5l-3.2.44h-.14a.48.48,0,0,1-.54-.54c0-.28.17-.45.52-.5l3.1-.43c-.19-.77-.3-1.28-.33-1.51l-2.34.32h-.13c-.37,0-.55-.17-.55-.52s.17-.46.51-.51l2.36-.34-.19-1.26-2.2.3h-.14a.46.46,0,0,1-.53-.51c0-.3.17-.48.51-.52l2.21-.32,0-.29a17.35,17.35,0,0,1-.2-2.44c0-.43.11-.68.35-.76a.7.7,0,0,1,.27,0,.5.5,0,0,1,.49.26,2.9,2.9,0,0,1,.13.89c.05.74.12,1.48.21,2.2l2.69-.38h.13a.47.47,0,0,1,.54.53c0,.31-.17.49-.52.54l-2.72.37c.06.47.12.9.18,1.27l2.48-.37h.13a.49.49,0,0,1,.55.56c0,.29-.18.46-.53.51Zm2.76-5.78a.69.69,0,0,1,.47.24,17,17,0,0,1,1.18,1.36,1,1,0,0,1,.26.59.5.5,0,0,1-.27.44.71.71,0,0,1-.37.1.68.68,0,0,1-.58-.43c-.22-.4-.54-.89-.95-1.48a.74.74,0,0,1-.16-.41.41.41,0,0,1,.11-.28A.42.42,0,0,1,302.2,157.79Z"/><path class="cls-7" d="M310.7,159.26v11.58a.63.63,0,0,1-.18.45.72.72,0,0,1-.52.2.7.7,0,0,1-.59-.27.6.6,0,0,1-.12-.38V159.26a.58.58,0,0,1,.25-.48.76.76,0,0,1,.46-.14.72.72,0,0,1,.51.18A.56.56,0,0,1,310.7,159.26Z"/><path class="cls-7" d="M317.34,168.76a1.37,1.37,0,0,1,.94.36,1.53,1.53,0,0,1,.51,1.23,4.3,4.3,0,0,1-.79,2.46,3.43,3.43,0,0,1-1.12,1.1.7.7,0,0,1-.36.1.41.41,0,0,1-.3-.12.42.42,0,0,1-.15-.32c0-.12.1-.25.31-.39a2.5,2.5,0,0,0,.91-1.32,1.22,1.22,0,0,0,.06-.29c0-.09-.1-.15-.31-.17a1.05,1.05,0,0,1-.74-.38,1.51,1.51,0,0,1-.29-1,1.29,1.29,0,0,1,1.33-1.31Z"/><path class="cls-7" d="M325.75,170.07h5.38c.41,0,.61.22.61.66s-.2.64-.61.64h-5.74c-.71,0-1.06-.33-1.06-1a1.76,1.76,0,0,1,.34-.87,30.65,30.65,0,0,1,3.05-3.88c.81-.92,1.33-1.54,1.56-1.87a3.33,3.33,0,0,0,.69-1.93,2.36,2.36,0,0,0-.34-1.32,1.71,1.71,0,0,0-1.55-.77,2.15,2.15,0,0,0-2,1.35.6.6,0,0,1-.58.37.9.9,0,0,1-.43-.12.54.54,0,0,1-.3-.5,1.18,1.18,0,0,1,.2-.58,3.29,3.29,0,0,1,1.5-1.43,3.85,3.85,0,0,1,1.66-.37,3.13,3.13,0,0,1,2.42,1,3.39,3.39,0,0,1,.86,2.42,4.19,4.19,0,0,1-1,2.52c-.31.41-1,1.16-2,2.27A33,33,0,0,0,325.75,170.07Z"/><path class="cls-7" d="M333.89,159.86a1.09,1.09,0,0,1,1.25-1.1h4.64a.52.52,0,0,1,.41.18.69.69,0,0,1,.16.46.62.62,0,0,1-.27.55.49.49,0,0,1-.3.09h-4.19a.35.35,0,0,0-.4.38l-.1,3.53a3.3,3.3,0,0,1,2.28-.91,2.92,2.92,0,0,1,2.49,1.27,4.74,4.74,0,0,1,.8,2.86,5.4,5.4,0,0,1-.61,2.65,3.33,3.33,0,0,1-3.11,1.85,4.08,4.08,0,0,1-1.89-.43,3.45,3.45,0,0,1-1.25-1,.88.88,0,0,1-.2-.53.59.59,0,0,1,.21-.46.7.7,0,0,1,.49-.2.85.85,0,0,1,.65.43,2.32,2.32,0,0,0,2,.93,2,2,0,0,0,1.72-1,4.07,4.07,0,0,0,.6-2.28,3.7,3.7,0,0,0-.39-1.77,1.88,1.88,0,0,0-1.73-1.11,2.38,2.38,0,0,0-2,1.15.86.86,0,0,1-.67.44c-.48,0-.72-.23-.7-.68Z"/><path class="cls-7" d="M346,158.47a2.94,2.94,0,0,1,2.71,1.82,10.55,10.55,0,0,1,.89,4.77,11.23,11.23,0,0,1-.77,4.55,3,3,0,0,1-2.85,2.06,2.89,2.89,0,0,1-2.62-1.63,10.18,10.18,0,0,1-1-5,9.75,9.75,0,0,1,1.07-5.11A2.89,2.89,0,0,1,346,158.47Zm0,1.3q-2.14,0-2.15,5.31a11.69,11.69,0,0,0,.47,3.69c.36,1,.93,1.58,1.7,1.58a1.66,1.66,0,0,0,1.49-1.11,10,10,0,0,0,.66-4.18Q348.15,159.76,346,159.77Z"/><path class="cls-7" d="M359.36,160.1a.57.57,0,0,1,.46.63,10.82,10.82,0,0,1-.44,2.16l4.05.14a1.88,1.88,0,0,1,.94.22,1.2,1.2,0,0,1,.45,1.09,17.47,17.47,0,0,1-.57,3.7,12.42,12.42,0,0,1-1.27,3.55,1.62,1.62,0,0,1-1.39.87,5.67,5.67,0,0,1-2.71-1.05c-.41-.25-.61-.48-.61-.68a.39.39,0,0,1,.44-.44,1.38,1.38,0,0,1,.6.21,7.12,7.12,0,0,0,1.29.48,2.2,2.2,0,0,0,.51.08.92.92,0,0,0,.79-.44,11,11,0,0,0,1.09-3.09,14.33,14.33,0,0,0,.45-2.79c0-.35-.19-.53-.58-.55l-3.81-.13a14.74,14.74,0,0,1-4.17,6.83c-.57.51-1,.77-1.21.77a.42.42,0,0,1-.35-.18.47.47,0,0,1-.11-.28c0-.18.13-.38.4-.62a14.11,14.11,0,0,0,3.42-5,19.56,19.56,0,0,0,1.39-4.82.73.73,0,0,1,.39-.65l-5.82.29h0a.37.37,0,0,1-.3-.1.64.64,0,0,1-.22-.53c0-.4.18-.61.55-.63l13.36-.67h0a.48.48,0,0,1,.37.15.65.65,0,0,1,.18.48.61.61,0,0,1-.27.54.63.63,0,0,1-.31.1Z"/><path class="cls-7" d="M382.35,165.11l-9.71.68v5.84a.61.61,0,0,1-.17.43.62.62,0,0,1-.5.2.65.65,0,0,1-.56-.26.67.67,0,0,1-.11-.37V159.21a.55.55,0,0,1,.26-.49.74.74,0,0,1,.41-.11.66.66,0,0,1,.58.29l9.66-.77h.19c.86,0,1.28.47,1.28,1.4v11.59c0,1-.41,1.46-1.23,1.46a7.37,7.37,0,0,1-1.7-.29,8.67,8.67,0,0,1-1.29-.41c-.3-.13-.44-.3-.44-.5s.16-.5.47-.5a2.25,2.25,0,0,1,.38.07,9.26,9.26,0,0,0,1.84.26q.45,0,.57-.21a1,1,0,0,0,.07-.41Zm-5.65-.81v-4.53l-4.06.33v4.49Zm1.29-.09,4.36-.31v-4c0-.33-.15-.49-.43-.49h-.09l-3.84.3Z"/><path class="cls-7" d="M167.27,206.83c.33,0,.49.17.49.52a.46.46,0,0,1-.16.35l-.5.39a8.36,8.36,0,0,0-2.1,2.41,8.87,8.87,0,0,0-1.16,4.52,8.72,8.72,0,0,0,1.2,4.56,8.37,8.37,0,0,0,2.4,2.62.63.63,0,0,1,.32.5.44.44,0,0,1-.5.5,1.51,1.51,0,0,1-.74-.35,9.67,9.67,0,0,1-2.68-2.94,9.49,9.49,0,0,1,.35-10.33,9.13,9.13,0,0,1,2.62-2.6A.84.84,0,0,1,167.27,206.83Z"/><path class="cls-7" d="M178.5,212c.32.28.49.52.49.73a.69.69,0,0,1-.14.4l5.43-.53h.1a.82.82,0,0,1,.48.13.53.53,0,0,1,.25.47c0,.48-.75,1.43-2.26,2.86-.69.65-1.15,1-1.37,1a.45.45,0,0,1-.32-.13.52.52,0,0,1-.19-.36,1,1,0,0,1,.35-.56,13.82,13.82,0,0,0,1.4-1.66.47.47,0,0,0,.13-.24c0-.08-.07-.11-.2-.11h-.12l-11.2,1.13h-.13c-.42,0-.62-.2-.62-.59a.59.59,0,0,1,.61-.67l6.5-.63-.21-.23a13.81,13.81,0,0,0-2.21-2.06.48.48,0,0,1-.21-.38.53.53,0,0,1,.17-.38.42.42,0,0,1,.25-.11,2,2,0,0,1,.69.27,12.82,12.82,0,0,1,1.51,1,19.18,19.18,0,0,0,2-1.79c.2-.21.29-.33.29-.39s-.07-.11-.21-.11h-.13l-6,.63h-.13c-.41,0-.61-.21-.61-.64s.2-.53.6-.57l7.72-.71h.17c.57,0,.86.2.86.6a1.5,1.5,0,0,1-.53.9A24,24,0,0,1,178.5,212Zm.3,3.38v6.51a1.1,1.1,0,0,1-1.26,1.22,6,6,0,0,1-1.82-.4,8.41,8.41,0,0,1-1.3-.54c-.25-.13-.38-.29-.38-.46a.38.38,0,0,1,.44-.43,2.52,2.52,0,0,1,.48.1,7.83,7.83,0,0,0,2,.35c.22,0,.36-.06.41-.19a1,1,0,0,0,.06-.41v-5.75a.56.56,0,0,1,.25-.49.67.67,0,0,1,.43-.14.66.66,0,0,1,.55.26A.59.59,0,0,1,178.8,215.36Z"/><path class="cls-7" d="M189.6,217.37a.61.61,0,0,1,.28.07.58.58,0,0,1,.37.56,3.9,3.9,0,0,1-.43,1.29,11.94,11.94,0,0,1-.9,1.68c-.3.46-.55.69-.74.69a.45.45,0,0,1-.25-.09.4.4,0,0,1-.19-.35,1.4,1.4,0,0,1,.18-.51,19.17,19.17,0,0,0,1.06-2.8C189.09,217.55,189.29,217.37,189.6,217.37Zm1.48-4.84a26.53,26.53,0,0,0,1.81-2.38.82.82,0,0,1,.65-.44.59.59,0,0,1,.39.14.54.54,0,0,1,.24.45.87.87,0,0,1-.21.52,32,32,0,0,1-3.05,3.52,15.62,15.62,0,0,1-1.31,1.21,21.41,21.41,0,0,0,3.53-.89l-.42-.74a.7.7,0,0,1-.12-.35.38.38,0,0,1,.17-.31.43.43,0,0,1,.26-.09.65.65,0,0,1,.46.29,8.7,8.7,0,0,1,1.2,1.78,1.28,1.28,0,0,1,.19.59.47.47,0,0,1-.24.45.62.62,0,0,1-.34.11c-.26,0-.48-.2-.63-.6a2.52,2.52,0,0,0-.14-.32c-.28.11-.73.25-1.34.44v6.5a.55.55,0,0,1-.12.35.62.62,0,0,1-.48.19.58.58,0,0,1-.51-.24.61.61,0,0,1-.08-.3v-6.16a14.09,14.09,0,0,1-2.4.53.48.48,0,0,1-.41-.24.83.83,0,0,1-.15-.43.52.52,0,0,1,.09-.29l.4-.44c.76-.82,1.38-1.5,1.88-2.06-.5-.19-1-.36-1.45-.51s-.76-.38-.76-.66a1.81,1.81,0,0,1,.54-1,22.31,22.31,0,0,0,2.37-3.37.63.63,0,0,1,1-.27.56.56,0,0,1,.23.46,1.51,1.51,0,0,1-.32.74,33.93,33.93,0,0,1-2.5,3.13A16.84,16.84,0,0,1,191.08,212.53Zm2.21,4.36c.17,0,.39.22.65.67s.52,1.05.87,1.87a.92.92,0,0,1,.09.39.56.56,0,0,1-.33.54.79.79,0,0,1-.32.07c-.29,0-.49-.23-.61-.69a21.09,21.09,0,0,0-.7-2.16.79.79,0,0,1-.07-.3Q192.87,216.89,193.29,216.89Zm5.39-5.8c0-.82.07-1.88.09-3.2,0-.46.21-.69.62-.69a.53.53,0,0,1,.46.2,1.83,1.83,0,0,1,.13.88q0,1.18-.12,2.7l2.56-.25h.19a.9.9,0,0,1,.82.35.79.79,0,0,1,.14.34,13,13,0,0,1,0,1.48c0,.93,0,2.89-.13,5.86a19.47,19.47,0,0,1-.28,3.62.82.82,0,0,1-.87.56,6.35,6.35,0,0,1-1.93-.45c-.28-.1-.42-.26-.42-.47a.41.41,0,0,1,.46-.46,1.21,1.21,0,0,1,.27,0,4.28,4.28,0,0,0,.94.16c.27,0,.43-.17.46-.51q.27-2.46.27-8.69a1,1,0,0,0-.08-.55.44.44,0,0,0-.28-.08H202l-2.19.2c-.09.68-.17,1.26-.25,1.73a27.3,27.3,0,0,1,2.18,3,2.45,2.45,0,0,1,.43.94.55.55,0,0,1-.2.42.66.66,0,0,1-.48.18.59.59,0,0,1-.51-.26,2.31,2.31,0,0,1-.19-.36c-.33-.69-.83-1.59-1.49-2.7a11.14,11.14,0,0,1-1.56,3.56q-.28.39-.54.39a.39.39,0,0,1-.27-.1.44.44,0,0,1-.19-.36,1.61,1.61,0,0,1,.25-.62,14.7,14.7,0,0,0,1.64-5.72l-2.17.22.29,9.85c0,.43-.23.64-.69.64s-.52-.19-.53-.57l-.31-10.81a.56.56,0,0,1,.63-.65.5.5,0,0,1,.55.39Z"/><path class="cls-7" d="M214.52,208a25.87,25.87,0,0,0,7.26,5.17c.39.17.59.32.59.45s-.13.2-.38.27a5.08,5.08,0,0,1-1.24.29,1.35,1.35,0,0,1-.69-.27,28.64,28.64,0,0,1-3.37-2.56,33.48,33.48,0,0,1-2.7-2.55l-.11.14a18.84,18.84,0,0,1-5.54,4.93,5.81,5.81,0,0,1-1.82.87.35.35,0,0,1-.32-.22.46.46,0,0,1-.06-.22c0-.18.18-.37.55-.58a20.93,20.93,0,0,0,3.82-2.82,13.69,13.69,0,0,0,2.84-3.5A.67.67,0,0,1,214,207a.78.78,0,0,1,.35.08.55.55,0,0,1,.31.5A1,1,0,0,1,214.52,208Zm.1,8.71v4.22l5.61-.23c.39,0,.58.2.58.6a.58.58,0,0,1-.22.5.53.53,0,0,1-.28.1l-12.4.52h0a.57.57,0,0,1-.55-.61c0-.39.18-.59.52-.61l5.5-.22v-4.21l-4.2.24a.45.45,0,0,1-.23,0,.51.51,0,0,1-.36-.52.49.49,0,0,1,.52-.56l4.27-.24v-2l-2.53.19h-.07a.47.47,0,0,1-.41-.22.55.55,0,0,1-.09-.32.5.5,0,0,1,.5-.56l6.31-.47a.5.5,0,0,1,.57.56.48.48,0,0,1-.49.54l-2.5.18v2l4.38-.25a.53.53,0,0,1,.44.2.52.52,0,0,1,.14.37.49.49,0,0,1-.51.55Zm-5.17.9c.25,0,.64.3,1.15.91a3,3,0,0,1,.9,1.57.59.59,0,0,1-.24.49.77.77,0,0,1-.48.19c-.25,0-.46-.17-.61-.51a10.4,10.4,0,0,0-1-1.86A.64.64,0,0,1,209,218a.35.35,0,0,1,.15-.29A.49.49,0,0,1,209.45,217.58Zm8.65-.53a.71.71,0,0,1,.38.12.61.61,0,0,1,.3.54,4.72,4.72,0,0,1-1.23,2.06c-.37.46-.66.69-.86.69a.63.63,0,0,1-.29-.1.41.41,0,0,1-.17-.34,1.17,1.17,0,0,1,.23-.55,15.94,15.94,0,0,0,.94-1.81C217.58,217.25,217.81,217.05,218.1,217.05Z"/><path class="cls-7" d="M226.15,214.52a3.45,3.45,0,0,1-2.13-3,2.81,2.81,0,0,1,1.26-2.45,3.67,3.67,0,0,1,2.13-.61,4.2,4.2,0,0,1,3.71,2.18,2,2,0,0,1,.38,1c0,.45-.2.67-.6.67a.48.48,0,0,1-.31-.1l-.24.22-.68.59c-.7.6-1.2,1-1.49,1.3q3.1,1.54,3.11,3.85a3.22,3.22,0,0,1-1.24,2.73,4.17,4.17,0,0,1-2.59.75,4,4,0,0,1-2.74-.89,3.17,3.17,0,0,1-1-2.51C223.68,217,224.5,215.78,226.15,214.52Zm1.2.56c-1.55,1-2.33,2.08-2.33,3.18a2,2,0,0,0,.62,1.55,2.59,2.59,0,0,0,1.8.57,2.88,2.88,0,0,0,1.64-.44,2.08,2.08,0,0,0,.86-1.82C229.94,217,229.08,216,227.35,215.08Zm2.54-4a2.65,2.65,0,0,0-2.46-1.46,2.77,2.77,0,0,0-1.08.2,1.59,1.59,0,0,0-1,1.59c0,.91.6,1.67,1.79,2.31A22.13,22.13,0,0,0,229.89,211.07Z"/><path class="cls-7" d="M236.52,208.42a2.94,2.94,0,0,1,2.72,1.82,10.57,10.57,0,0,1,.88,4.77,11.06,11.06,0,0,1-.77,4.55,3,3,0,0,1-2.85,2.06,2.92,2.92,0,0,1-2.62-1.63,10.2,10.2,0,0,1-1-5A9.85,9.85,0,0,1,234,209.9,2.88,2.88,0,0,1,236.52,208.42Zm0,1.3q-2.15,0-2.14,5.31a11.69,11.69,0,0,0,.47,3.69c.36,1.05.92,1.58,1.69,1.58a1.68,1.68,0,0,0,1.5-1.11,10,10,0,0,0,.66-4.18Q238.67,209.71,236.49,209.72Z"/><path class="cls-7" d="M249.88,210.05a.57.57,0,0,1,.46.63,11.45,11.45,0,0,1-.44,2.15l4,.15a1.88,1.88,0,0,1,.94.22,1.19,1.19,0,0,1,.45,1.09,17.47,17.47,0,0,1-.57,3.7,12.38,12.38,0,0,1-1.28,3.55,1.62,1.62,0,0,1-1.39.87,5.68,5.68,0,0,1-2.7-1c-.41-.25-.62-.48-.62-.68a.39.39,0,0,1,.45-.44,1.42,1.42,0,0,1,.6.21,6.59,6.59,0,0,0,1.29.48,2.2,2.2,0,0,0,.51.08.89.89,0,0,0,.78-.44,10.71,10.71,0,0,0,1.09-3.08,14,14,0,0,0,.46-2.8c0-.35-.19-.53-.58-.54l-3.82-.14a14.81,14.81,0,0,1-4.16,6.83c-.58.51-1,.77-1.22.77a.44.44,0,0,1-.35-.18.46.46,0,0,1-.1-.28c0-.18.13-.38.39-.62a14.11,14.11,0,0,0,3.42-5,19.13,19.13,0,0,0,1.39-4.82.78.78,0,0,1,.4-.66l-5.82.3h0a.39.39,0,0,1-.3-.1.67.67,0,0,1-.22-.53.55.55,0,0,1,.56-.63l13.36-.67h0a.47.47,0,0,1,.37.15.62.62,0,0,1,.19.48.61.61,0,0,1-.27.54.67.67,0,0,1-.31.1Z"/><path class="cls-7" d="M270.5,210l4.93-.32h.08a.54.54,0,0,1,.62.61c0,.36-.2.55-.61.58l-15,.92h-.1a.47.47,0,0,1-.46-.21.71.71,0,0,1-.11-.39c0-.33.2-.51.58-.54l8.72-.56c.33-.52.79-1.35,1.38-2.51.2-.38.43-.57.7-.57a1,1,0,0,1,.38.09.57.57,0,0,1,.39.53A6.82,6.82,0,0,1,270.5,210Zm-4.31,8.62-3,.27v3q0,.63-.6.63a.55.55,0,0,1-.62-.63v-8.52a.55.55,0,0,1,.63-.62.53.53,0,0,1,.56.37l3.07-.34h.19a1.08,1.08,0,0,1,.68.21,1,1,0,0,1,.39.86v7.37q0,1.41-1,1.41a4.28,4.28,0,0,1-1.78-.59c-.29-.16-.43-.33-.43-.53s.13-.38.4-.38a1.23,1.23,0,0,1,.28,0,4,4,0,0,0,1,.12c.2,0,.29-.13.29-.39Zm0-3.42v-1c0-.23-.07-.33-.23-.32h0l-2.77.31v1.3Zm0,1-3,.32v1.27l3-.28Zm-1.79-8.94c.18,0,.44.17.8.49a9.33,9.33,0,0,1,1.08,1.22.82.82,0,0,1,.2.54.58.58,0,0,1-.23.46.91.91,0,0,1-.55.2c-.25,0-.46-.17-.63-.52a8.82,8.82,0,0,0-1-1.57.59.59,0,0,1-.16-.38.45.45,0,0,1,.13-.3A.45.45,0,0,1,264.4,207.26Zm6.24,6.24v5c0,.44-.21.65-.62.65a.57.57,0,0,1-.64-.65v-5a.63.63,0,1,1,1.26,0Zm3.3-.81v8.7c0,1-.37,1.49-1.1,1.49a5.79,5.79,0,0,1-2.13-.6c-.3-.13-.45-.29-.45-.47s.15-.49.43-.49a1.5,1.5,0,0,1,.31.05,5.21,5.21,0,0,0,1.18.14.41.41,0,0,0,.46-.47v-8.35q0-.66.63-.66A.59.59,0,0,1,273.94,212.69Z"/><path class="cls-7" d="M280.43,215.45a17.24,17.24,0,0,1-1.5,1.45.92.92,0,0,1-.56.27A.41.41,0,0,1,278,217a.45.45,0,0,1-.14-.33.56.56,0,0,1,.15-.36l.36-.35a19.63,19.63,0,0,0,3.29-4.31c.2-.35.42-.52.68-.52a.57.57,0,0,1,.34.1.56.56,0,0,1,.27.49,5.74,5.74,0,0,1-1.32,2.26v8.19c0,.38-.2.57-.61.57s-.63-.2-.63-.61Zm1.74-7.57a.56.56,0,0,1,.41.17.53.53,0,0,1,.18.4c0,.39-.55,1-1.65,1.85a8,8,0,0,1-2.43,1.53.41.41,0,0,1-.35-.17.56.56,0,0,1-.1-.29c0-.18.18-.39.53-.63a15.09,15.09,0,0,0,2.71-2.45A1,1,0,0,1,282.17,207.88Zm5.16,12a19.17,19.17,0,0,1-1.6-1.52,12.65,12.65,0,0,1-2.13,1.6,1.18,1.18,0,0,1-.52.2.38.38,0,0,1-.34-.19.45.45,0,0,1-.09-.24.4.4,0,0,1,.18-.33l.38-.24a11.07,11.07,0,0,0,3.09-3,.62.62,0,0,1,1.09.14l2.71-.27h.17c.56,0,.85.24.85.73a1.83,1.83,0,0,1-.3.9,11.51,11.51,0,0,1-1.78,2.26,15.42,15.42,0,0,0,4.24,2.06c.33.09.49.2.49.33s-.1.18-.3.25a5.25,5.25,0,0,1-1.57.35,1.13,1.13,0,0,1-.51-.11,23.51,23.51,0,0,1-3.17-2.15,12.75,12.75,0,0,1-2.55,1.63,5.27,5.27,0,0,1-1.66.63c-.29,0-.44-.15-.44-.46s.19-.35.58-.51a12.17,12.17,0,0,0,2.77-1.66C287.09,220.09,287.23,220,287.33,219.88Zm.27-8.49,1.2-1c.32-.28.66-.6,1-1a1,1,0,0,1,.69-.37.58.58,0,0,1,.42.18.7.7,0,0,1,.21.49.59.59,0,0,1-.12.37,5.19,5.19,0,0,1-.63.58,54.15,54.15,0,0,1-4.56,3.42c1.16-.11,2.72-.34,4.7-.68a7.19,7.19,0,0,0-.55-.69.56.56,0,0,1-.18-.38.46.46,0,0,1,.12-.29.48.48,0,0,1,.32-.13.85.85,0,0,1,.53.26,12,12,0,0,1,1.7,1.78,1.14,1.14,0,0,1,.29.65.54.54,0,0,1-.24.47.75.75,0,0,1-.47.18.69.69,0,0,1-.57-.38l-.2-.31-.19-.3c-.8.18-1.77.37-2.93.57-2.21.37-3.45.56-3.72.56a.48.48,0,0,1-.45-.27,1,1,0,0,1-.18-.51.41.41,0,0,1,.12-.3s.21-.17.52-.39c.55-.39,1.3-1,2.26-1.77-.43-.17-1.06-.37-1.88-.61-.44-.13-.66-.34-.66-.64s.24-.61.72-1a27.52,27.52,0,0,0,2.15-1.86l.51-.51a.94.94,0,0,1,.67-.37.61.61,0,0,1,.45.19.65.65,0,0,1,.21.46.91.91,0,0,1-.38.64c-.71.62-1.66,1.35-2.84,2.19C286.61,211,287.25,211.23,287.6,211.39Zm.48,7.78a9.36,9.36,0,0,0,1.31-1.61.67.67,0,0,0,.12-.27q0-.1-.18-.09h-.07l-2.54.22a3.18,3.18,0,0,1-.25.26A20,20,0,0,0,288.08,219.17Z"/><path class="cls-7" d="M307.93,214.43v-4.24a.58.58,0,0,1,.06-.26.56.56,0,0,1,.51-.27.61.61,0,0,1,.49.22.52.52,0,0,1,.09.31v4.24h2.58a.48.48,0,0,1,.24.07.53.53,0,0,1,.28.51.61.61,0,0,1-.22.48.49.49,0,0,1-.3.1h-2.58V220a.45.45,0,0,1-.07.25.52.52,0,0,1-.5.27.58.58,0,0,1-.48-.22.44.44,0,0,1-.1-.3v-4.37h-2.57a.41.41,0,0,1-.25-.07.54.54,0,0,1-.27-.51.58.58,0,0,1,.22-.48.49.49,0,0,1,.3-.1Z"/><path class="cls-7" d="M327.4,218.05a34,34,0,0,0,4.45,1.91,37.29,37.29,0,0,0,6.75,1.6c.58.09.88.19.88.33s-.15.22-.45.4a3.62,3.62,0,0,1-1.75.63,11.63,11.63,0,0,1-2.79-.69,50.69,50.69,0,0,1-7.63-3.25,11.46,11.46,0,0,1-2.56,2.71,1.73,1.73,0,0,1-.78.42.43.43,0,0,1-.34-.14.59.59,0,0,1-.12-.34.35.35,0,0,1,.08-.26,6,6,0,0,1,.57-.48,10.75,10.75,0,0,0,2.18-2.43c-1-.55-1.74-1-2.22-1.27-.25-.15-.37-.32-.37-.5a.47.47,0,0,1,.1-.3.44.44,0,0,1,.37-.2,2,2,0,0,1,.71.32c.42.25,1.06.6,1.92,1a8.81,8.81,0,0,0,.61-1.79,3.68,3.68,0,0,0,.12-.68q0-.21-.27-.21h-.13l-1.8.2h-.11a.48.48,0,0,1-.39-.15.57.57,0,0,1-.15-.4.52.52,0,0,1,.13-.36c0-.07.11-.17.2-.3a19.81,19.81,0,0,0,1.95-3.29,1.22,1.22,0,0,0,.13-.39c0-.13-.09-.19-.27-.19l-.19,0-2.23.38-.12,0a.53.53,0,0,1-.35-.12.56.56,0,0,1-.2-.45.55.55,0,0,1,.54-.6l3.22-.47.33,0q.84,0,.84.69a2.2,2.2,0,0,1-.28.93,24.68,24.68,0,0,1-2.05,3.49l1.34-.12h.25c.61,0,.91.29.91.87a4.12,4.12,0,0,1-.12.81,10.32,10.32,0,0,1-.85,2.49Zm6.94-.3,3.33-.07c.4,0,.59.24.59.6a.53.53,0,0,1-.26.51.4.4,0,0,1-.24.07l-8,.16c-.38-.05-.58-.25-.58-.59a.59.59,0,0,1,.26-.52.42.42,0,0,1,.23-.07h.58V213a.48.48,0,0,1,.17-.4.71.71,0,0,1,.45-.16.68.68,0,0,1,.42.14.49.49,0,0,1,.21.42v4.84l1.54,0v-7.6a17.48,17.48,0,0,1-2.94.57c-.33,0-.5-.15-.5-.46a.4.4,0,0,1,.27-.39,4,4,0,0,1,.61-.16,25.23,25.23,0,0,0,5.36-1.81,1.11,1.11,0,0,1,.44-.1.58.58,0,0,1,.49.27.61.61,0,0,1,.13.39.64.64,0,0,1-.44.61,18.67,18.67,0,0,1-2.13.73v3.33l2.89-.17a.42.42,0,0,1,.37.23.78.78,0,0,1,.11.36.62.62,0,0,1-.26.55.55.55,0,0,1-.17,0l-2.94.16Z"/><path class="cls-7" d="M341.32,211.89a4.48,4.48,0,0,1,1.7.8,6.13,6.13,0,0,1,.59.43.8.8,0,0,1,.3.61.79.79,0,0,1-.12.42.6.6,0,0,1-.53.28.91.91,0,0,1-.63-.36,16.06,16.06,0,0,0-1.41-1.27.67.67,0,0,1-.31-.48.42.42,0,0,1,.1-.28A.4.4,0,0,1,341.32,211.89Zm2.65,4.25c.35,0,.52.16.52.49a13.44,13.44,0,0,1-.83,2.52,19,19,0,0,1-1.07,2.39.72.72,0,0,1-.63.39.76.76,0,0,1-.44-.13.58.58,0,0,1-.24-.51,1.82,1.82,0,0,1,.28-.76,36.58,36.58,0,0,0,1.89-3.92C343.57,216.3,343.74,216.14,344,216.14Zm-1.78-8.06a3.78,3.78,0,0,1,1.54.71,5.63,5.63,0,0,1,.78.57.76.76,0,0,1,.24.53.67.67,0,0,1-.13.39.62.62,0,0,1-.55.28,1,1,0,0,1-.63-.35,18,18,0,0,0-1.36-1.22.67.67,0,0,1-.29-.49C341.79,208.22,341.92,208.08,342.19,208.08Zm4.12,6.11,9.39-.63h.2c.75,0,1.12.23,1.12.71a1.12,1.12,0,0,1-.13.49,5.47,5.47,0,0,1-1.07,1.58.74.74,0,0,1-.49.28.37.37,0,0,1-.42-.43,1,1,0,0,1,.15-.44,3.83,3.83,0,0,0,.46-1c0-.09-.06-.13-.17-.12h-.06l-9,.62a9.56,9.56,0,0,1-.14,1.4.66.66,0,0,1-1,.49.51.51,0,0,1-.32-.5,2.27,2.27,0,0,1,.07-.35,10.59,10.59,0,0,0,.35-2.25c0-.39.19-.58.5-.58S346.29,213.7,346.31,214.19Zm7.75-4.32-.13,2.3c0,.4-.21.59-.56.59a.55.55,0,0,1-.45-.19l-4.38.28a.57.57,0,0,1-.55.33c-.34,0-.53-.19-.57-.58l-.24-2.28-1.32.08h-.08c-.36,0-.54-.16-.54-.47a.49.49,0,0,1,.53-.54l1.3-.09-.13-1.26a.57.57,0,0,1,0-.12q0-.57.6-.57c.33,0,.52.19.56.58l.14,1.29,1.77-.12v-1.79a.49.49,0,0,1,.15-.36.68.68,0,0,1,.42-.14.66.66,0,0,1,.36.11.44.44,0,0,1,.22.39V209l1.78-.12.05-1.24a.56.56,0,0,1,.63-.56c.4,0,.58.23.56.69l-.05,1,1.73-.12c.42,0,.62.14.62.5a.5.5,0,0,1-.55.55Zm-6.16,6.84,2.16-.15v-.9c0-.37.19-.56.59-.56s.59.19.59.56v.82l2.36-.16h.17c.77,0,1.16.32,1.16,1a14.42,14.42,0,0,1-.37,2.61c-.15.69-.46,1-.93,1a3.54,3.54,0,0,1-1.36-.35c-.27-.12-.41-.27-.41-.45s.13-.38.39-.38a.8.8,0,0,1,.19,0,3.13,3.13,0,0,0,.49.05.43.43,0,0,0,.45-.32c0-.08.06-.24.1-.49a9.34,9.34,0,0,0,.18-1.42c0-.16-.08-.24-.25-.23l-2.17.14v5.07c0,.36-.19.55-.58.55s-.6-.19-.6-.55v-5l-2.05.13.18,2.93c0,.37-.21.55-.61.55a.54.54,0,0,1-.62-.55l-.22-3.57V217a.55.55,0,0,1,.62-.62A.54.54,0,0,1,347.9,216.71Zm2.1-6.57-1.66.1.17,1.64,1.49-.09Zm2.88-.19-1.73.12v1.64l1.66-.1Z"/><path class="cls-7" d="M362.58,212v2.79c.36-.15.8-.36,1.32-.62a.82.82,0,0,1,.41-.11.45.45,0,0,1,.35.15.45.45,0,0,1,.1.29.61.61,0,0,1-.32.5,19.51,19.51,0,0,1-1.86,1v5.8c0,.74-.31,1.12-.95,1.12a3.9,3.9,0,0,1-1.39-.4c-.75-.33-1.12-.61-1.12-.85s.13-.38.4-.38a1.65,1.65,0,0,1,.44.08,3.77,3.77,0,0,0,1,.2c.25,0,.38-.17.38-.51v-4.5a6.71,6.71,0,0,1-2,.66.57.57,0,0,1-.51-.26.73.73,0,0,1-.09-.35.55.55,0,0,1,.24-.46,3.74,3.74,0,0,1,.59-.23c.46-.15,1-.35,1.74-.62v-3.15l-1.76.24h-.11a.48.48,0,0,1-.45-.24.59.59,0,0,1-.09-.34c0-.32.18-.5.54-.55l1.87-.25v-3.13a.54.54,0,0,1,.17-.42.59.59,0,0,1,.44-.18.6.6,0,0,1,.51.24.56.56,0,0,1,.12.36v3l1.34-.18H364a.44.44,0,0,1,.49.33.67.67,0,0,1,0,.24c0,.33-.18.51-.53.56Zm4.9,8.32a.55.55,0,0,1,.42.19.52.52,0,0,1,.18.4.8.8,0,0,1-.38.61,12.89,12.89,0,0,1-2.78,1.44,2.17,2.17,0,0,1-.69.21.4.4,0,0,1-.45-.46c0-.24.19-.44.57-.59a11.62,11.62,0,0,0,2-1.13c.21-.15.4-.3.57-.44A.92.92,0,0,1,367.48,220.3Zm5.64-10.08a.47.47,0,0,1,.35.47.45.45,0,0,1-.46.51l-6.6.47a.52.52,0,0,1-.57.39c-.32,0-.52-.19-.58-.56l-.43-2.86s0-.08,0-.13c0-.36.21-.53.62-.53a.61.61,0,0,1,.54.3l6.56-.56h.11c.61,0,.91.26.91.78a1.5,1.5,0,0,1-.07.45Zm-1,9.49-5.66.32a.53.53,0,0,1-.61.5.58.58,0,0,1-.53-.25.56.56,0,0,1-.08-.3v-6.92c0-.37.2-.55.61-.55a.67.67,0,0,1,.52.23l5.88-.49h.13c.63,0,.95.34.95,1v6.55a.58.58,0,0,1-.11.34.61.61,0,0,1-.49.22.59.59,0,0,1-.53-.26.61.61,0,0,1-.08-.3Zm-.18-9.46.25-1.14a1,1,0,0,0,0-.16q0-.18-.24-.18h0l-5.83.49.19,1.39Zm.18,4.18v-.73c0-.26-.11-.38-.33-.38h-.06l-5.27.39v1.12Zm0,1-5.66.39v1.1l5.66-.35Zm0,2.11-5.66.37V219l5.66-.31Zm-1.06,2.64a1.92,1.92,0,0,1,.65.23l1.14.53a10,10,0,0,1,1.46.79.86.86,0,0,1,.44.67.66.66,0,0,1-.11.35.61.61,0,0,1-.54.32,1.37,1.37,0,0,1-.74-.35,20,20,0,0,0-2.4-1.62.53.53,0,0,1-.31-.46.56.56,0,0,1,.08-.27A.37.37,0,0,1,371.1,220.14Z"/><path class="cls-7" d="M385.53,212.69v1.13l3.45-.23q.6,0,.6.48a.49.49,0,0,1-.53.53l-3.52.23v1.27l6.43-.4H392a.47.47,0,0,1,.56.52c0,.35-.19.54-.57.56l-13.83.87h-.09c-.36,0-.54-.17-.54-.52s.19-.54.58-.56l6.1-.39v-1.25l-3.64.23h-.11a.43.43,0,0,1-.48-.49c0-.33.18-.5.54-.52l3.69-.24v-1.14l-4,.29h-.11a.44.44,0,0,1-.5-.49c0-.33.17-.5.52-.53l4.07-.28V211a.57.57,0,0,1,.64-.65.57.57,0,0,1,.65.65v.65l3.5-.24h.09c.33,0,.5.16.5.48s-.18.51-.54.53Zm0-3.45,5.76-.35h.13c.57,0,.85.19.85.56a3.6,3.6,0,0,1-1,1.87c-.35.44-.63.65-.84.65s-.37-.13-.37-.39a1.08,1.08,0,0,1,.14-.41,7.46,7.46,0,0,0,.41-1,.54.54,0,0,0,0-.18c0-.09-.08-.13-.24-.13h-.07l-11,.68c0,.08,0,.18,0,.3a6.85,6.85,0,0,1-.1,1.29c-.09.44-.33.66-.69.66a.57.57,0,0,1-.65-.65,1.43,1.43,0,0,1,.11-.47,10.2,10.2,0,0,0,.38-2.05c0-.37.19-.56.45-.56s.38.17.42.52l4.95-.3v-1.78a.55.55,0,0,1,.22-.47.74.74,0,0,1,.44-.14.66.66,0,0,1,.54.24.54.54,0,0,1,.13.37Zm4.12,12.24a.49.49,0,0,1,.3.49.46.46,0,0,1-.48.52l-7.73.41a.57.57,0,0,1-.62.45.58.58,0,0,1-.63-.58l-.43-3.8a.34.34,0,0,1,0-.09.52.52,0,0,1,.23-.43.73.73,0,0,1,.41-.12.62.62,0,0,1,.55.31l7.67-.53a1.44,1.44,0,0,1,.67.1.87.87,0,0,1,.51.86,1.63,1.63,0,0,1,0,.31Zm-1.23,0,.29-1.89a1,1,0,0,0,0-.2c0-.18-.12-.26-.37-.25l-6.94.5.25,2.21Z"/><path class="cls-7" d="M403.52,208a25.87,25.87,0,0,0,7.26,5.17c.39.17.59.32.59.45s-.13.2-.38.27a5.08,5.08,0,0,1-1.24.29,1.35,1.35,0,0,1-.69-.27,28.64,28.64,0,0,1-3.37-2.56,33.48,33.48,0,0,1-2.7-2.55l-.11.14a18.84,18.84,0,0,1-5.54,4.93,5.81,5.81,0,0,1-1.82.87.35.35,0,0,1-.32-.22.46.46,0,0,1-.06-.22c0-.18.18-.37.55-.58a20.93,20.93,0,0,0,3.82-2.82,13.69,13.69,0,0,0,2.84-3.5A.67.67,0,0,1,403,207a.78.78,0,0,1,.35.08.55.55,0,0,1,.31.5A1,1,0,0,1,403.52,208Zm.1,8.71v4.22l5.61-.23c.39,0,.58.2.58.6a.58.58,0,0,1-.22.5.53.53,0,0,1-.28.1l-12.4.52h-.05a.57.57,0,0,1-.55-.61c0-.39.18-.59.52-.61l5.5-.22v-4.21l-4.2.24a.45.45,0,0,1-.23,0,.51.51,0,0,1-.36-.52.49.49,0,0,1,.52-.56l4.27-.24v-2l-2.53.19h-.07a.47.47,0,0,1-.41-.22.55.55,0,0,1-.09-.32.5.5,0,0,1,.5-.56l6.31-.47a.5.5,0,0,1,.57.56.48.48,0,0,1-.49.54l-2.5.18v2l4.38-.25a.53.53,0,0,1,.44.2.52.52,0,0,1,.14.37.49.49,0,0,1-.51.55Zm-5.17.9c.25,0,.64.3,1.15.91a3,3,0,0,1,.9,1.57.59.59,0,0,1-.24.49.77.77,0,0,1-.48.19c-.25,0-.46-.17-.61-.51a10.4,10.4,0,0,0-1-1.86A.64.64,0,0,1,398,218a.35.35,0,0,1,.15-.29A.49.49,0,0,1,398.45,217.58Zm8.65-.53a.71.71,0,0,1,.38.12.61.61,0,0,1,.3.54,4.72,4.72,0,0,1-1.23,2.06c-.37.46-.66.69-.86.69a.63.63,0,0,1-.29-.1.41.41,0,0,1-.17-.34,1.17,1.17,0,0,1,.23-.55,15.94,15.94,0,0,0,.94-1.81C406.58,217.25,406.81,217.05,407.1,217.05Z"/><path class="cls-7" d="M413.75,206.83a1.54,1.54,0,0,1,.77.35,9.93,9.93,0,0,1,2.49,2.64,9.68,9.68,0,0,1-2.78,13.23.89.89,0,0,1-.47.15.44.44,0,0,1-.49-.5.46.46,0,0,1,.17-.37,5.37,5.37,0,0,1,.5-.39,8.47,8.47,0,0,0,2.09-2.41A8.78,8.78,0,0,0,417.2,215a8.6,8.6,0,0,0-3.68-7.24.53.53,0,0,1-.25-.44.59.59,0,0,1,.11-.33A.45.45,0,0,1,413.75,206.83Z"/></g></g></svg>