<svg xmlns="http://www.w3.org/2000/svg" viewBox="0 0 727.44 191"><defs><style>.cls-1{opacity:0.8;}.cls-2{fill:#c5a06b;}.cls-3{fill:#e0647f;}.cls-4{fill:#fff;}.cls-5{fill:#f1f1f1;}.cls-6{fill:#8c6c47;}</style></defs><title>Asset 9</title><g id="Layer_2" data-name="Layer 2"><g id="Layer_4" data-name="Layer 4"><g class="cls-1"><rect class="cls-2" width="369.98" height="51.68"/></g><rect class="cls-2" y="69.14" width="476.58" height="51.68"/><rect class="cls-3" y="139.32" width="276.49" height="51.68"/><path class="cls-3" d="M367,139.32h-2.36v1.19H367v-1.19Zm-4.72,0h-2.37v1.19h2.37v-1.19Zm-4.73,0h-2.36v1.19h2.36v-1.19Zm-4.73,0h-2.36v1.19h2.36v-1.19Zm-4.72,0h-2.37v1.19h2.37v-1.19Zm-4.73,0H341v1.19h2.36v-1.19Zm-4.73,0h-2.36v1.19h2.36v-1.19Zm-4.72,0h-2.37v1.19h2.37v-1.19Zm-4.73,0h-2.36v1.19h2.36v-1.19Zm-4.72,0H322.1v1.19h2.37v-1.19Zm-4.73,0h-2.36v1.19h2.36v-1.19Zm-4.73,0h-2.36v1.19H315v-1.19Zm-4.72,0h-2.37v1.19h2.37v-1.19Zm-4.73,0H303.2v1.19h2.36v-1.19Zm-4.73,0h-2.36v1.19h2.36v-1.19Zm-4.72,0h-2.37v1.19h2.37v-1.19Zm-4.73,0H289v1.19h2.36v-1.19Zm-4.73,0h-2.36v1.19h2.36v-1.19Zm-4.72,0h-2.37v1.19h2.37v-1.19Zm-4.26,0h-1.18v1.19h0V141h1.18v-1.66Zm0,4h-1.18v2.36h1.18v-2.36Zm0,4.73h-1.18v2.36h1.18v-2.36Zm0,4.72h-1.18v2.37h1.18v-2.37Zm0,4.73h-1.18v2.36h1.18v-2.36Zm0,4.73h-1.18v2.36h1.18v-2.36Zm0,4.72h-1.18v2.37h1.18V167Zm0,4.73h-1.18v2.36h1.18V171.7Zm0,4.73h-1.18v2.36h1.18v-2.36Zm0,4.72h-1.18v2.37h1.18v-2.37Zm0,4.73h-1.18v2.36h1.18v-2.36Zm.79,3.94h-2v.79h0v0h0V191h2v-1.18Zm4.73,0h-2.37V191h2.37v-1.18Zm4.72,0h-2.36V191h2.36v-1.18Zm4.73,0h-2.36V191h2.36v-1.18Zm4.72,0H295V191h2.36v-1.18Zm4.73,0h-2.36V191h2.36v-1.18Zm4.73,0h-2.37V191h2.37v-1.18Zm4.72,0h-2.36V191h2.36v-1.18Zm4.73,0h-2.36V191h2.36v-1.18Zm4.73,0h-2.37V191H321v-1.18Zm4.72,0h-2.36V191h2.36v-1.18Zm4.73,0h-2.36V191h2.36v-1.18Zm4.73,0h-2.37V191h2.37v-1.18Zm4.72,0h-2.36V191h2.36v-1.18Zm4.73,0h-2.36V191h2.36v-1.18Zm4.73,0H347V191h2.37v-1.18Zm4.72,0h-2.36V191h2.36v-1.18Zm4.73,0h-2.36V191h2.36v-1.18Zm4.73,0h-2.37V191h2.37v-1.18Zm4.72,0H365.9V191h2.36v-1.18Zm3.47-.08h-1.18V191h1.18v-1.26Zm0-4.73h-1.18v2.37h1.18V185Zm0-4.72h-1.18v2.36h1.18v-2.36Zm0-4.73h-1.18v2.36h1.18v-2.36Zm0-4.73h-1.18v2.37h1.18v-2.37Zm0-4.72h-1.18v2.36h1.18v-2.36Zm0-4.73h-1.18v2.37h1.18v-2.37Zm0-4.72h-1.18V159h1.18v-2.36Zm0-4.73h-1.18v2.36h1.18v-2.36Zm0-4.73h-1.18v2.37h1.18V147.2Zm0-4.72h-1.18v2.36h1.18v-2.36Zm0-3.16h-2.36v1.19h2.36v-1.19Z"/><path class="cls-4" d="M14.58,22.38V33c0,.38-.21.57-.64.57s-.62-.19-.62-.57V24.56q-1.52,2.25-2.07,2.25a.39.39,0,0,1-.3-.14.46.46,0,0,1-.16-.35c0-.13.17-.39.5-.79a22.8,22.8,0,0,0,3.22-6.37c.16-.43.39-.64.69-.64a.6.6,0,0,1,.3.07.53.53,0,0,1,.34.53,2.81,2.81,0,0,1-.17.73A21.93,21.93,0,0,1,14.58,22.38Zm7.07.89v3.22l3-.19h.09c.39,0,.59.19.59.56a.57.57,0,0,1-.61.62l-3.1.19v4l4.64-.23h.05a.55.55,0,0,1,.56.26A.64.64,0,0,1,27,32c0,.39-.22.6-.65.63l-10.2.46h0c-.42,0-.64-.19-.64-.59s.22-.59.64-.61l4.26-.21v-4l-3.09.19c-.45,0-.67-.15-.67-.54a.55.55,0,0,1,.6-.61l3.16-.2V23.37l-3.66.28h-.08c-.41,0-.62-.19-.62-.58a.6.6,0,0,1,.62-.65l8.56-.66h.09c.43,0,.64.2.64.58a.59.59,0,0,1-.6.67Zm-2.55-5a5.37,5.37,0,0,1,1.95,1.05A8.17,8.17,0,0,1,22,20a.75.75,0,0,1,.24.54A.63.63,0,0,1,22,21a.78.78,0,0,1-.56.25,1,1,0,0,1-.63-.37,12.87,12.87,0,0,0-2-1.7.53.53,0,0,1-.29-.43.44.44,0,0,1,.13-.33A.52.52,0,0,1,19.1,18.23Z"/><path class="cls-4" d="M37.53,20.69l5.73-.37h.12c.6,0,.9.22.9.65a4.13,4.13,0,0,1-.89,1.77c-.52.73-.93,1.1-1.23,1.1a.43.43,0,0,1-.26-.09.41.41,0,0,1-.16-.36.91.91,0,0,1,.19-.46,2.84,2.84,0,0,0,.6-1.29c0-.14-.11-.19-.32-.18l-10.77.72q0,2.52-.93,2.52a1,1,0,0,1-.46-.13.53.53,0,0,1-.24-.49,2.13,2.13,0,0,1,.15-.59,8,8,0,0,0,.46-2.28c0-.41.19-.62.5-.62s.42.17.47.51l4.81-.31v-2.1c0-.4.22-.59.67-.59a.64.64,0,0,1,.53.23.52.52,0,0,1,.13.36ZM36.8,25l0,2.32,5.85-.75h.11a.64.64,0,0,1,.45.15.58.58,0,0,1,.19.45c0,.36-.2.56-.6.62l-6,.72,0,2.58c0,.49.12.8.4.93a5.57,5.57,0,0,0,1.78.16,11.51,11.51,0,0,0,3.77-.36.52.52,0,0,0,.32-.38,5.71,5.71,0,0,0,0-.78v-.91c0-.37.15-.55.46-.55s.39.15.46.45a10.37,10.37,0,0,1,.31,2.3,1.13,1.13,0,0,1-.77,1.14,17.15,17.15,0,0,1-4.52.36,16.71,16.71,0,0,1-2.24-.09,1.5,1.5,0,0,1-1.35-1.64l0-3-4.86.6h-.12a.52.52,0,0,1-.59-.59q0-.5.57-.57l5-.63,0-2.17a18.8,18.8,0,0,1-2.91.51.45.45,0,0,1-.51-.51.38.38,0,0,1,.24-.37,4.14,4.14,0,0,1,.66-.14A28.68,28.68,0,0,0,38.72,23a1.53,1.53,0,0,1,.55-.14.56.56,0,0,1,.46.26.63.63,0,0,1,.12.37.74.74,0,0,1-.56.7Q38.49,24.5,36.8,25Z"/><path class="cls-4" d="M50.09,21.85l.61,0q8.07-.61,8.63-.61a1.33,1.33,0,0,1,.93.32,1.16,1.16,0,0,1,.35.88c0,.54-.32,2.57-.94,6.08l-.08.43a.64.64,0,0,1,.6.7.59.59,0,0,1-.44.61,6.87,6.87,0,0,1-.81,0q-3.24,0-7.68.28a.62.62,0,0,1-.69.67.57.57,0,0,1-.59-.4,3.86,3.86,0,0,1-.12-.84c-.26-2.41-.58-4.9-1-7.44,0-.14,0-.24,0-.29a.62.62,0,0,1,.43-.63.77.77,0,0,1,.32-.07A.5.5,0,0,1,50.09,21.85Zm8.18,7.09c.35-2,.61-3.76.79-5.23.06-.54.1-.84.1-.92s-.13-.3-.39-.3c-.72,0-2.47.11-5.25.32l-3.17.26c.26,2.35.51,4.43.77,6.25,1.48-.12,3.7-.24,6.64-.36Z"/><path class="cls-4" d="M78.27,24.56c.61,0,.92.23.92.68a.61.61,0,0,1-.38.63,6,6,0,0,1-1,.07q-4,.12-10.76.52h-.09a.81.81,0,0,1-.49-.15.65.65,0,0,1-.23-.52.62.62,0,0,1,.6-.67l.89-.06c2.21-.13,3.91-.22,5.11-.27,2.33-.08,3.62-.14,3.85-.15C77.46,24.59,78,24.56,78.27,24.56Z"/><path class="cls-4" d="M86.1,20.6a5,5,0,0,1,1.31.45,10.55,10.55,0,0,1,2.53,1.48.87.87,0,0,1,.35.68.83.83,0,0,1-.14.46.62.62,0,0,1-.51.26,1.35,1.35,0,0,1-.78-.38,20.18,20.18,0,0,0-2.92-2c-.25-.15-.37-.3-.37-.45C85.57,20.77,85.74,20.6,86.1,20.6Zm11.29,2.86a.5.5,0,0,1,.52.51,3.26,3.26,0,0,1-.82,1.39,19.84,19.84,0,0,1-5.18,4.43A21.8,21.8,0,0,1,87.1,32a3.11,3.11,0,0,1-.7.15.68.68,0,0,1-.66-.39.82.82,0,0,1-.1-.4.66.66,0,0,1,.37-.6c.07,0,.44-.15,1.11-.35a19.26,19.26,0,0,0,5.46-2.63,18,18,0,0,0,4.16-3.88A.86.86,0,0,1,97.39,23.46Z"/><path class="cls-4" d="M104.84,27.72a.6.6,0,0,1-.3.1.85.85,0,0,1-.62-.42,14.61,14.61,0,0,0-1.15-1.29,12,12,0,0,1-1,1.32.65.65,0,0,1-.48.26.41.41,0,0,1-.26-.1.39.39,0,0,1-.15-.32,2.21,2.21,0,0,1,.42-.82,17.94,17.94,0,0,0,2.47-5.88l-2,.18h-.07a.52.52,0,0,1-.57-.58.51.51,0,0,1,.52-.57l5.85-.56h.08a.5.5,0,0,1,.51.32.58.58,0,0,1,.06.26.51.51,0,0,1-.52.57l-2.63.25c-.1.49-.31,1.22-.62,2.2l1.68-.2.33,0a.8.8,0,0,1,.91.9,8.53,8.53,0,0,1-.31,1.82,16,16,0,0,1-1.74,4.16,14.31,14.31,0,0,1-3.23,3.91.77.77,0,0,1-.49.23.47.47,0,0,1-.35-.17.45.45,0,0,1-.11-.28c0-.14.15-.38.45-.7A18.78,18.78,0,0,0,104.84,27.72Zm.24-.51a13.41,13.41,0,0,0,.75-2.11,6.27,6.27,0,0,0,.24-1.21.3.3,0,0,0-.33-.34h-.07l-1.65.22a12.24,12.24,0,0,1-.81,1.62,7.63,7.63,0,0,1,1.6,1.31A.86.86,0,0,1,105.08,27.21Zm6.82-2.75c.1.57.21,1.07.32,1.5l3.81-.53h.12a.46.46,0,0,1,.5.31.49.49,0,0,1,.06.22c0,.3-.18.48-.53.52l-3.67.51a14.89,14.89,0,0,0,.78,1.86,11.81,11.81,0,0,0,1.25-1.29.85.85,0,0,1,.61-.35.55.55,0,0,1,.42.19.53.53,0,0,1,.19.4c0,.19-.17.46-.5.81a16.82,16.82,0,0,1-1.35,1.29,14,14,0,0,0,1.47,1.82c.22.23.38.34.46.34s.24-.59.24-1.76c0-.38.13-.57.4-.57s.44.15.51.47a10.65,10.65,0,0,1,.17,2.13c0,.92-.27,1.39-.82,1.39a2,2,0,0,1-1.17-.52,11.51,11.51,0,0,1-2.26-2.52,16.74,16.74,0,0,1-3.82,2,5.71,5.71,0,0,1-1.3.4c-.31,0-.46-.17-.46-.51a.44.44,0,0,1,.23-.39,7.27,7.27,0,0,1,.71-.3,16.66,16.66,0,0,0,4-2.25,15.42,15.42,0,0,1-1-2.49l-3.21.44H108a.48.48,0,0,1-.54-.54c0-.28.17-.45.51-.5l3.11-.43c-.19-.77-.3-1.28-.34-1.51l-2.34.32h-.13a.47.47,0,0,1-.54-.53q0-.42.51-.51l2.35-.33-.18-1.27-2.21.31H108q-.54,0-.54-.51c0-.3.17-.48.51-.53l2.22-.31,0-.29a17.56,17.56,0,0,1-.21-2.45c0-.42.12-.68.35-.75a.78.78,0,0,1,.28-.05.5.5,0,0,1,.49.27,3.37,3.37,0,0,1,.12.89c.06.74.13,1.48.21,2.2l2.7-.38h.12c.37,0,.55.18.55.53s-.18.49-.53.54l-2.71.37c.06.47.11.89.17,1.26l2.49-.36h.12a.5.5,0,0,1,.56.57c0,.29-.18.46-.53.51Zm2.76-5.78a.65.65,0,0,1,.46.24,17.7,17.7,0,0,1,1.19,1.36,1,1,0,0,1,.26.58.52.52,0,0,1-.28.45.66.66,0,0,1-.37.1c-.22,0-.41-.14-.58-.43a14.77,14.77,0,0,0-1-1.49.74.74,0,0,1-.15-.4.36.36,0,0,1,.11-.28A.39.39,0,0,1,114.66,18.68Z"/><path class="cls-4" d="M125.59,31.6a.48.48,0,0,1,.34.49c0,.31-.2.48-.58.5l-3.11.23v.11q.06.6-.57.6c-.35,0-.54-.2-.58-.6l-.4-3.76v-.12a.72.72,0,0,1,.08-.32,4.31,4.31,0,0,1-1.4.65.48.48,0,0,1-.41-.2.47.47,0,0,1-.08-.26.45.45,0,0,1,.18-.36,5,5,0,0,1,.49-.29,15.32,15.32,0,0,0,3-2.06l-.55-.32-1-.53a8.75,8.75,0,0,1-.92.81,1,1,0,0,1-.58.24.28.28,0,0,1-.22-.08.52.52,0,0,1-.18-.37c0-.14.13-.33.4-.55a7.48,7.48,0,0,0,2.08-2.68.63.63,0,0,1,.62-.42.68.68,0,0,1,.21,0,.51.51,0,0,1,.38.51.93.93,0,0,1,0,.14l2.19-.27h.16c.54,0,.81.22.81.65a2,2,0,0,1-.36.91A11.27,11.27,0,0,1,124.3,26a27,27,0,0,1,2.56,1.57.76.76,0,0,1,.36.59.67.67,0,0,1-.17.43.59.59,0,0,1-.47.24.79.79,0,0,1-.48-.2,25.58,25.58,0,0,0-2.61-1.83,19.93,19.93,0,0,1-2.35,1.75.69.69,0,0,1,.2,0,.5.5,0,0,1,.46.25l2.92-.34H125c.68,0,1,.3,1,.92a1.63,1.63,0,0,1,0,.31Zm-2-11.53,2.8-.3h.11c.49,0,.73.19.73.55a3.42,3.42,0,0,1-.73,1.48c-.33.48-.61.72-.83.72a.49.49,0,0,1-.22-.06.38.38,0,0,1-.22-.37.48.48,0,0,1,.08-.24,2.41,2.41,0,0,0,.31-.81c0-.08,0-.12-.16-.12h-.17l-4.85.52a7.67,7.67,0,0,1-.23,1.66c-.12.35-.3.52-.56.52a.78.78,0,0,1-.39-.09.53.53,0,0,1-.29-.45,1.13,1.13,0,0,1,.06-.29,10.49,10.49,0,0,0,.42-2.24c0-.4.2-.6.49-.6a.5.5,0,0,1,.51.45l1.92-.2v-1.8a.52.52,0,0,1,.22-.45.77.77,0,0,1,.39-.11.63.63,0,0,1,.49.2.56.56,0,0,1,.12.36Zm-1.53,4.05c-.18.24-.33.42-.44.55l.25.11c.34.15.81.37,1.4.67a7.57,7.57,0,0,0,.86-1.17,1.22,1.22,0,0,0,.16-.35c0-.05,0-.08-.15-.08H124Zm2.42,7.53.18-1.93c0-.17-.07-.26-.23-.26h0l-2.5.28.2,2.08Zm5-.63a.53.53,0,0,1,.37.15.52.52,0,0,1,.23.45c0,.35-.55.92-1.65,1.69a3.69,3.69,0,0,1-1.42.75.42.42,0,0,1-.36-.21.52.52,0,0,1-.09-.29q0-.26.42-.54a8.7,8.7,0,0,0,1.92-1.69A.79.79,0,0,1,129.49,31Zm1.14-9.29,2.2-.19h.27c.71,0,1.07.39,1.07,1.16v7.68c0,.35-.2.53-.59.53s-.6-.18-.6-.53V30.3l-3.84.24a.53.53,0,0,1-.6.47.61.61,0,0,1-.49-.22.49.49,0,0,1-.09-.3V22.14c0-.36.19-.55.58-.55a.6.6,0,0,1,.53.28l.42,0a16.5,16.5,0,0,0,.84-2l-2.51.19h-.11a.47.47,0,0,1-.47-.23.63.63,0,0,1-.09-.35.51.51,0,0,1,.53-.56l6.49-.52h.09a.5.5,0,0,1,.52.31.6.6,0,0,1,.06.27.52.52,0,0,1-.55.58l-2.66.21A14,14,0,0,1,130.63,21.73ZM133,24.05v-1c0-.34-.13-.5-.41-.47h-.08l-3.35.32v1.44Zm0,1-3.84.32V26.9l3.84-.28Zm0,2.58-3.84.28v1.56l3.84-.25ZM132.36,31a2.87,2.87,0,0,1,1.22.73c.36.3.79.69,1.27,1.17a.87.87,0,0,1,.29.57.64.64,0,0,1-.18.44.56.56,0,0,1-.44.21,1,1,0,0,1-.73-.44c-.77-.86-1.32-1.45-1.65-1.76a.64.64,0,0,1-.24-.46.45.45,0,0,1,.13-.32A.42.42,0,0,1,132.36,31Z"/><path class="cls-4" d="M150.16,20.15V31.73a.64.64,0,0,1-.18.45.79.79,0,0,1-1.12-.07.66.66,0,0,1-.11-.38V20.15a.56.56,0,0,1,.25-.48.73.73,0,0,1,.45-.14.72.72,0,0,1,.51.18A.56.56,0,0,1,150.16,20.15Z"/><path class="cls-4" d="M156.8,29.64a1.39,1.39,0,0,1,.94.37,1.53,1.53,0,0,1,.51,1.23,4.3,4.3,0,0,1-.79,2.46,3.54,3.54,0,0,1-1.12,1.1.76.76,0,0,1-.36.1.41.41,0,0,1-.3-.12.44.44,0,0,1-.15-.32q0-.18.3-.39a2.46,2.46,0,0,0,.92-1.32,1.22,1.22,0,0,0,.06-.29c0-.1-.11-.15-.32-.17a1,1,0,0,1-.73-.39,1.43,1.43,0,0,1-.29-.94,1.24,1.24,0,0,1,.44-1A1.27,1.27,0,0,1,156.8,29.64Z"/><path class="cls-4" d="M164.35,20.75c0-.73.46-1.1,1.25-1.1h4.64a.5.5,0,0,1,.4.18.62.62,0,0,1,.16.45.65.65,0,0,1-.26.56.49.49,0,0,1-.3.09h-4.19a.35.35,0,0,0-.4.37l-.1,3.54a3.22,3.22,0,0,1,2.28-.91,2.9,2.9,0,0,1,2.49,1.27,4.81,4.81,0,0,1,.8,2.86,5.43,5.43,0,0,1-.62,2.65,3.31,3.31,0,0,1-3.11,1.84,4.16,4.16,0,0,1-1.88-.42,3.5,3.5,0,0,1-1.26-1,.9.9,0,0,1-.2-.52.57.57,0,0,1,.21-.46.68.68,0,0,1,.5-.2.85.85,0,0,1,.65.43,2.3,2.3,0,0,0,2,.93,2,2,0,0,0,1.72-1,4.07,4.07,0,0,0,.6-2.28,3.8,3.8,0,0,0-.38-1.77,1.89,1.89,0,0,0-1.74-1.11,2.39,2.39,0,0,0-2,1.15.84.84,0,0,1-.66.44c-.48,0-.72-.23-.71-.69Z"/><path class="cls-4" d="M176.46,19.36a2.94,2.94,0,0,1,2.72,1.82,10.51,10.51,0,0,1,.89,4.76,11.07,11.07,0,0,1-.78,4.56,3,3,0,0,1-2.84,2,2.89,2.89,0,0,1-2.62-1.62,10.1,10.1,0,0,1-1-5,9.73,9.73,0,0,1,1.08-5.1A2.87,2.87,0,0,1,176.46,19.36Zm0,1.29c-1.43,0-2.15,1.78-2.15,5.32a11.69,11.69,0,0,0,.47,3.69c.36,1.05.93,1.58,1.69,1.58a1.67,1.67,0,0,0,1.5-1.11,10,10,0,0,0,.66-4.19C178.61,22.42,177.88,20.65,176.44,20.65Z"/><path class="cls-4" d="M185.46,19.36a2.94,2.94,0,0,1,2.72,1.82,10.51,10.51,0,0,1,.89,4.76,11.07,11.07,0,0,1-.78,4.56,3,3,0,0,1-2.84,2,2.89,2.89,0,0,1-2.62-1.62,10.1,10.1,0,0,1-1-5,9.73,9.73,0,0,1,1.08-5.1A2.87,2.87,0,0,1,185.46,19.36Zm0,1.29c-1.43,0-2.15,1.78-2.15,5.32a11.69,11.69,0,0,0,.47,3.69c.36,1.05.93,1.58,1.69,1.58a1.67,1.67,0,0,0,1.5-1.11,10,10,0,0,0,.66-4.19C187.61,22.42,186.88,20.65,185.44,20.65Z"/><path class="cls-4" d="M198.82,21a.57.57,0,0,1,.46.63,11.45,11.45,0,0,1-.44,2.15l4,.14a2,2,0,0,1,.94.23,1.19,1.19,0,0,1,.45,1.09,17.3,17.3,0,0,1-.57,3.69,12.35,12.35,0,0,1-1.28,3.56,1.6,1.6,0,0,1-1.38.87,5.67,5.67,0,0,1-2.71-1.05c-.41-.25-.62-.48-.62-.68a.4.4,0,0,1,.45-.45,1.34,1.34,0,0,1,.6.22,7.3,7.3,0,0,0,1.29.48,2.2,2.2,0,0,0,.51.08.89.89,0,0,0,.78-.44,10.68,10.68,0,0,0,1.09-3.09,13.79,13.79,0,0,0,.46-2.79c0-.35-.19-.53-.58-.55L198.51,25a15,15,0,0,1-4.17,6.83c-.57.51-1,.77-1.21.77a.42.42,0,0,1-.35-.18.42.42,0,0,1-.11-.28,1,1,0,0,1,.4-.63,13.83,13.83,0,0,0,3.41-5,18.68,18.68,0,0,0,1.39-4.83.77.77,0,0,1,.4-.65l-5.82.29h0a.4.4,0,0,1-.29-.1.65.65,0,0,1-.22-.53c0-.4.18-.62.55-.63l13.36-.67h0a.46.46,0,0,1,.36.15.62.62,0,0,1,.19.48.61.61,0,0,1-.27.54.54.54,0,0,1-.31.09Z"/><path class="cls-4" d="M221.81,26l-9.72.68v5.84a.6.6,0,0,1-.16.43.66.66,0,0,1-1.17-.43V20.1a.55.55,0,0,1,.26-.49.73.73,0,0,1,.41-.12.67.67,0,0,1,.58.3l9.65-.77h.2c.85,0,1.28.47,1.28,1.4V32c0,1-.41,1.46-1.23,1.46a7.37,7.37,0,0,1-1.7-.29,9.28,9.28,0,0,1-1.3-.41c-.29-.13-.44-.3-.44-.5s.16-.5.48-.5a2,2,0,0,1,.38.06,8.71,8.71,0,0,0,1.83.27c.3,0,.49-.07.58-.21a1.08,1.08,0,0,0,.07-.41Zm-5.66-.81V20.66l-4.06.33v4.49Zm1.3-.09,4.36-.32v-4c0-.33-.15-.49-.44-.49h-.08l-3.84.3Z"/><path class="cls-4" d="M19.06,96.69a16.35,16.35,0,0,0,4.59-4.28,2,2,0,0,0,.36-.67c0-.08-.07-.11-.21-.11l-.7,0c-.44,0-1.64.11-3.62.22-2.58.15-4.81.3-6.69.47h-.2a.62.62,0,0,1-.46-.18A.64.64,0,0,1,12,91.7a.57.57,0,0,1,.45-.58,6.19,6.19,0,0,1,1-.11l1.28-.1q3-.22,7.8-.48l1.73-.1h.27a1.39,1.39,0,0,1,.79.21.92.92,0,0,1,.4.81,3.87,3.87,0,0,1-1,2,19.24,19.24,0,0,1-4.79,4.13,18.44,18.44,0,0,1,1.49,1.7,1.1,1.1,0,0,1,.26.68.76.76,0,0,1-.31.63.79.79,0,0,1-.48.16.67.67,0,0,1-.49-.22s-.13-.17-.29-.4a30.94,30.94,0,0,0-3.5-4,.77.77,0,0,1-.3-.51.51.51,0,0,1,.51-.49,1.27,1.27,0,0,1,.68.32C18.05,95.81,18.58,96.26,19.06,96.69Z"/><path class="cls-4" d="M36.73,93.43a26.78,26.78,0,0,1-5.61,3,1.27,1.27,0,0,1-.44.1.43.43,0,0,1-.41-.24A.55.55,0,0,1,30.2,96a.49.49,0,0,1,.26-.42l.95-.43a23.16,23.16,0,0,0,4.42-2.66,19.45,19.45,0,0,0,4.25-4.4.68.68,0,0,1,.57-.32.84.84,0,0,1,.46.15.55.55,0,0,1,.26.5,1.62,1.62,0,0,1-.37.8,17.32,17.32,0,0,1-3.26,3.39.71.71,0,0,1,.33.67v7.54c0,.49-.22.74-.67.74s-.67-.25-.67-.74Z"/><path class="cls-4" d="M50.65,94.7a.68.68,0,0,1,.27.07.46.46,0,0,1,.28.44,6.2,6.2,0,0,1-.51,1.55,9.82,9.82,0,0,1-1.44,2.54.86.86,0,0,1-.64.35.75.75,0,0,1-.44-.15.62.62,0,0,1-.26-.51,1.29,1.29,0,0,1,.37-.72,11.3,11.3,0,0,0,1.83-3.13A.59.59,0,0,1,50.65,94.7Zm3.58-3.56c0-.81,0-1.52,0-2.12a3.46,3.46,0,0,1,.1-1.16.62.62,0,0,1,.57-.3.59.59,0,0,1,.63.46,3.63,3.63,0,0,1,0,.78c0,.77,0,1.52,0,2.25,1.94-.12,3.42-.23,4.41-.32l.23,0a.75.75,0,0,1,.4.11.55.55,0,0,1,.3.52.57.57,0,0,1-.49.62A3.85,3.85,0,0,1,60,92l-4,.29-.36,0V93c0,4.72.07,7.12.07,7.2a2.19,2.19,0,0,1-.23,1.11.85.85,0,0,1-.76.49,1.32,1.32,0,0,1-.63-.23l-1-.61-.87-.53q-.42-.25-.42-.51a.38.38,0,0,1,.42-.43,1.22,1.22,0,0,1,.44.13c.65.29,1.11.48,1.39.58a.63.63,0,0,0,.19,0c.08,0,.12-.12.12-.35,0,0,0-.06,0-.16V98q0-.21-.06-5v-.63c-2.93.23-4.54.35-4.82.35a.85.85,0,0,1-.45-.13.6.6,0,0,1-.26-.54.57.57,0,0,1,.45-.61,2.68,2.68,0,0,1,.57-.06l4.09-.27Zm4.28,3.38c.4,0,1.08.62,2,1.88a4.22,4.22,0,0,1,1.1,2.11.68.68,0,0,1-.23.56.81.81,0,0,1-.5.18.64.64,0,0,1-.52-.28s-.09-.16-.19-.35a18.13,18.13,0,0,0-1.91-3.1.91.91,0,0,1-.24-.53.43.43,0,0,1,.13-.31A.41.41,0,0,1,58.51,94.52Z"/><path class="cls-4" d="M78.27,93.32c.61,0,.92.23.92.68a.59.59,0,0,1-.38.62,5.55,5.55,0,0,1-1,.08q-4,.12-10.76.52h-.09a.76.76,0,0,1-.49-.16.63.63,0,0,1-.23-.52.61.61,0,0,1,.6-.66c.09,0,.39,0,.89-.07,2.21-.12,3.91-.21,5.11-.26,2.33-.09,3.62-.14,3.85-.16C77.46,93.35,78,93.32,78.27,93.32Z"/><path class="cls-4" d="M95.26,98.42q-2.82.73-6.47,1.31c-1.74.27-2.75.41-3,.41a1.24,1.24,0,0,1-.74-.22.81.81,0,0,1-.37-.71,1.22,1.22,0,0,1,.18-.61c.05-.08.21-.33.48-.73a53.75,53.75,0,0,0,3.4-6c.48-1,.91-1.85,1.27-2.69a.73.73,0,0,1,.7-.52.82.82,0,0,1,.49.16.66.66,0,0,1,.31.58,3,3,0,0,1-.4,1,73.08,73.08,0,0,1-4.65,7.87.47.47,0,0,0-.13.26c0,.09.08.13.25.13a32.55,32.55,0,0,0,3.52-.4c1.56-.22,3.09-.49,4.61-.81a23.75,23.75,0,0,0-1.58-2.31.79.79,0,0,1-.22-.5.42.42,0,0,1,.14-.33.45.45,0,0,1,.33-.14c.42,0,1.3.9,2.64,2.71a7.05,7.05,0,0,1,1.57,2.82.72.72,0,0,1-.33.61.86.86,0,0,1-.5.17.7.7,0,0,1-.65-.51C96,99.69,95.67,99.16,95.26,98.42Z"/><path class="cls-4" d="M109.17,90.5a2.86,2.86,0,0,1,.2,1.2,11.37,11.37,0,0,1-2.06,5.89c-1,1.62-2,2.43-2.86,2.43a2.07,2.07,0,0,1-1.67-1,5,5,0,0,1-.94-3.16,5.57,5.57,0,0,1,1.57-3.79,7.91,7.91,0,0,1,3-2.12,9,9,0,0,1,3.41-.67,5.85,5.85,0,0,1,4.11,1.5,5.32,5.32,0,0,1,1.76,4.12,6,6,0,0,1-1.43,4,6.77,6.77,0,0,1-2.75,2,1.25,1.25,0,0,1-.49.12.47.47,0,0,1-.4-.19.41.41,0,0,1-.1-.26.52.52,0,0,1,.18-.37,6.58,6.58,0,0,1,.7-.43,5.53,5.53,0,0,0,1.71-1.51A5.2,5.2,0,0,0,114.3,95a4.42,4.42,0,0,0-4.41-4.5l-.66,0h-.06Zm-1.19.21a6.87,6.87,0,0,0-4,2.65,4.31,4.31,0,0,0-.87,2.51,4.13,4.13,0,0,0,.59,2.31c.26.39.5.58.73.58.43,0,1-.48,1.58-1.44a13.63,13.63,0,0,0,1.54-3.19A7.78,7.78,0,0,0,108,91.7C108,91.5,108,91.17,108,90.71Z"/><path class="cls-4" d="M123.24,90.33a.37.37,0,0,1,.41.42c0,.22-.38.64-1.15,1.25a12,12,0,0,1-2.06,1.36,1,1,0,0,1-.45.12.55.55,0,0,1-.48-.27.56.56,0,0,1-.11-.32c0-.27.21-.51.64-.71a16.34,16.34,0,0,0,2.66-1.63A1,1,0,0,1,123.24,90.33Zm1.24,9.87a.61.61,0,0,1,.51.25.79.79,0,0,1,.13.41c0,.24-.16.44-.47.6a18.24,18.24,0,0,1-3.21,1.19,7.15,7.15,0,0,1-1.13.26c-.31,0-.47-.17-.47-.5a.49.49,0,0,1,.2-.4,3.57,3.57,0,0,1,.52-.21,19,19,0,0,0,3.46-1.47A.87.87,0,0,1,124.48,100.2Zm-3.79-12.78a3.49,3.49,0,0,1,.74.16,12.39,12.39,0,0,1,1.67.58.69.69,0,0,1,.49.63.82.82,0,0,1-.07.31.59.59,0,0,1-.57.32,1.35,1.35,0,0,1-.57-.19c-.49-.29-1.1-.6-1.83-.94a.49.49,0,0,1-.35-.44C120.2,87.56,120.36,87.42,120.69,87.42Zm9.9,12.11-7.36.35a.58.58,0,0,1-.62.43.54.54,0,0,1-.62-.6V93.65a.54.54,0,0,1,.62-.6.61.61,0,0,1,.57.31l7.25-.45h.25a1,1,0,0,1,1,.44,1.78,1.78,0,0,1,.16.86v5.35a.61.61,0,0,1-.11.36.59.59,0,0,1-.51.23C130.8,100.14,130.59,99.94,130.59,99.53Zm-7.35-5.21v.91l7.35-.41v-.43c0-.36-.15-.53-.45-.53H130Zm7.35,2.32v-1l-7.35.41v1Zm0,.87-7.35.42v1l7.35-.35ZM127.16,88l5.57-.37h.09a.82.82,0,0,1,.58.18.54.54,0,0,1,.21.44,1.92,1.92,0,0,1-.68,1.1c-.69.69-1.16,1-1.41,1a.46.46,0,0,1-.36-.16.4.4,0,0,1-.09-.25.73.73,0,0,1,.24-.43,6.67,6.67,0,0,0,.48-.58.44.44,0,0,0,.1-.2c0-.07-.07-.11-.23-.1h-.08l-5.14.32c-.83,1-1.42,1.51-1.76,1.51a.38.38,0,0,1-.29-.14.44.44,0,0,1-.14-.31c0-.13.13-.32.38-.57A9.94,9.94,0,0,0,126,87.57c.15-.25.28-.49.39-.71a.6.6,0,0,1,.59-.38.62.62,0,0,1,.32.09.56.56,0,0,1,.3.49A2.62,2.62,0,0,1,127.16,88Zm2,1.89a10.65,10.65,0,0,0,1.62,1.19A16.25,16.25,0,0,0,134,92.57c.47.17.71.33.71.5s-.06.14-.19.18a4.11,4.11,0,0,1-1.33.29,2.1,2.1,0,0,1-.91-.31,19.71,19.71,0,0,1-3.61-2.56,4.68,4.68,0,0,1-1,1.13,7.51,7.51,0,0,1-2.54,1.31.92.92,0,0,1-.29,0,.4.4,0,0,1-.46-.45c0-.18.18-.33.54-.47A5.74,5.74,0,0,0,127,91a4,4,0,0,0,1.1-1.71.51.51,0,0,1,.52-.41A1,1,0,0,1,129,89a.43.43,0,0,1,.26.42A1.28,1.28,0,0,1,129.15,89.86Zm.19,10.21a7.13,7.13,0,0,1,1.34.45,24.75,24.75,0,0,1,2.46,1,.73.73,0,0,1,.46.65.65.65,0,0,1-.12.36.6.6,0,0,1-.54.3,1.69,1.69,0,0,1-.76-.29c-1-.55-1.9-1-2.81-1.47-.34-.17-.51-.35-.51-.56a.46.46,0,0,1,.06-.23A.45.45,0,0,1,129.34,100.07Z"/><path class="cls-4" d="M145.67,88.58l4.45-.33h.06a.51.51,0,0,1,.5.29.55.55,0,0,1,.07.28.5.5,0,0,1-.51.56l-1.52.11s-.12.38-.33,1-.42,1.15-.65,1.69l3.74-.26c.41,0,.62.19.62.58a.49.49,0,0,1-.5.57l-11.14.77v.34a13.9,13.9,0,0,1-1.11,6,9.45,9.45,0,0,1-1.16,1.82.74.74,0,0,1-.53.35.58.58,0,0,1-.3-.11.5.5,0,0,1-.25-.42,1.2,1.2,0,0,1,.28-.58c1.12-1.6,1.69-3.89,1.73-6.87v-.47H139a.57.57,0,0,1-.41-.17.56.56,0,0,1-.16-.41.5.5,0,0,1,.52-.57l3.29-.23c-.2-.75-.46-1.59-.79-2.51l-1.67.13h-.07a.52.52,0,0,1-.49-.28.68.68,0,0,1-.07-.28.49.49,0,0,1,.5-.56l4.65-.35V87.26a.62.62,0,0,1,.23-.51.67.67,0,0,1,.45-.14.67.67,0,0,1,.54.23.61.61,0,0,1,.14.42Zm-2.16,7.52,2-.16v-1.5a.54.54,0,0,1,.21-.44.67.67,0,0,1,.45-.16.66.66,0,0,1,.54.24.56.56,0,0,1,.12.36v1.4l3.25-.25h.08c.39,0,.58.17.58.52a.55.55,0,0,1-.58.6l-3.33.22v1.48l3-.19h.1c.37,0,.55.17.55.51s-.19.54-.58.57l-3.08.18v1.68l4.74-.21h0a.56.56,0,0,1,.52.21.57.57,0,0,1,.1.34.54.54,0,0,1-.6.6l-10.63.44H141a.55.55,0,0,1-.36-.1.45.45,0,0,1-.22-.43.52.52,0,0,1,.58-.58l4.57-.21V99.57l-3,.18c-.42,0-.63-.14-.63-.5s.19-.54.58-.57l3-.19V97l-2.6.18c-.62,1-1.08,1.55-1.38,1.55a.42.42,0,0,1-.3-.14.45.45,0,0,1-.17-.35,1.32,1.32,0,0,1,.24-.55,14.18,14.18,0,0,0,1.24-2.57c.14-.41.36-.61.65-.61a.73.73,0,0,1,.33.08.54.54,0,0,1,.31.52A2.84,2.84,0,0,1,143.51,96.1Zm-.8-6.17c0,.06,0,.12.08.19a12.18,12.18,0,0,1,.73,2.33l3-.21a19.8,19.8,0,0,0,.82-2.65Z"/><path class="cls-4" d="M158.45,91.05v10.88a.56.56,0,0,1-.16.4.64.64,0,0,1-.47.18c-.41,0-.61-.2-.61-.58V93.28a17.2,17.2,0,0,1-1.47,2,.68.68,0,0,1-.51.29.45.45,0,0,1-.33-.14.47.47,0,0,1-.16-.32,2.09,2.09,0,0,1,.47-.81A19,19,0,0,0,157,91.12a26.56,26.56,0,0,0,1.32-3.21c.15-.43.37-.64.69-.64a.67.67,0,0,1,.31.07.52.52,0,0,1,.33.52,2.46,2.46,0,0,1-.18.71A24,24,0,0,1,158.45,91.05Zm4.5,2.54-.19-3.34-2.29.15h-.09c-.39,0-.58-.18-.58-.54a.57.57,0,0,1,.6-.62l9.36-.7h.07c.41,0,.61.19.61.57a.56.56,0,0,1-.61.62l-2.17.15-.18,3.37,1.85-.13h.2c.84,0,1.26.4,1.26,1.19a2.26,2.26,0,0,1,0,.27l-.63,6.57c0,.41-.24.62-.6.62s-.63-.18-.63-.54a.45.45,0,0,1,0-.08l0-.35-7.21.32c0,.36-.21.53-.62.53s-.56-.2-.61-.6l-.77-7.17v-.1c0-.35.2-.53.62-.53a.6.6,0,0,1,.62.49Zm.33,6.35L163,94.72l-1.89.13.53,5.16Zm.84-6.43,2.16-.16.15-3.37-2.46.18ZM166,99.82l.23-5.33-2.07.15.23,5.25Zm1.12,0,1.92-.08.43-5a.46.46,0,0,0,0-.1c0-.24-.13-.36-.44-.33l-1.63.11Z"/><path class="cls-4" d="M176.32,91.26v11a.54.54,0,0,1-.16.4.6.6,0,0,1-.46.18c-.41,0-.62-.2-.62-.58v-9c-.91,1.28-1.54,1.93-1.91,1.93a.37.37,0,0,1-.28-.14.47.47,0,0,1-.16-.32c0-.11.16-.36.5-.76a14.47,14.47,0,0,0,1.47-2.24,30.9,30.9,0,0,0,1.88-4.08c.16-.41.38-.62.68-.62a.73.73,0,0,1,.31.07.56.56,0,0,1,.35.54,2.39,2.39,0,0,1-.21.73A29,29,0,0,1,176.32,91.26ZM179,94.6v6c0,.32.15.49.45.49h.11l9.08-.26c.42,0,.64.18.64.56a.54.54,0,0,1-.61.61l-9.53.22h-.08c-.59,0-1-.13-1.12-.39a1.6,1.6,0,0,1-.14-.76V94.6c0-.4.2-.59.61-.59A.52.52,0,0,1,179,94.6Zm5.26-3.15,1.61-.14h.18c.72,0,1.07.38,1.07,1.14v6.77a.59.59,0,0,1-1.17,0v0l-4.27.29a.52.52,0,0,1-.56.43q-.57,0-.57-.6V91.77a.45.45,0,0,1,.2-.39.66.66,0,0,1,.38-.12.5.5,0,0,1,.56.41l1.35-.11V90l-3.66.31h-.1a.57.57,0,0,1-.37-.11.48.48,0,0,1-.18-.41.53.53,0,0,1,.56-.58l3.75-.31V87.19a.5.5,0,0,1,.19-.42.69.69,0,0,1,.41-.13.68.68,0,0,1,.42.13.49.49,0,0,1,.2.42v1.62l3.36-.28h.09q.57,0,.57.51c0,.35-.2.54-.58.57l-3.44.29ZM186,93.57v-.9c0-.2-.09-.31-.29-.31h-.07l-3.89.33v1.18Zm0,1-4.25.29v1.3l4.25-.29Zm0,2.27-4.25.3v1.34l4.25-.29Z"/><path class="cls-4" d="M201.2,99.72h5.38c.41,0,.62.22.62.65a.56.56,0,0,1-.62.64h-5.74q-1.05,0-1.05-1a1.76,1.76,0,0,1,.33-.87,31.87,31.87,0,0,1,3.06-3.89q1.2-1.37,1.56-1.86a3.36,3.36,0,0,0,.69-1.94,2.34,2.34,0,0,0-.34-1.31,1.73,1.73,0,0,0-1.55-.78,2.14,2.14,0,0,0-2,1.36.6.6,0,0,1-.58.36.89.89,0,0,1-.43-.11.54.54,0,0,1-.3-.51,1.22,1.22,0,0,1,.2-.58,3.27,3.27,0,0,1,1.5-1.42,3.71,3.71,0,0,1,1.66-.37,3.18,3.18,0,0,1,2.42,1,3.41,3.41,0,0,1,.86,2.42,4.19,4.19,0,0,1-1,2.52c-.31.41-1,1.17-2,2.27A35.89,35.89,0,0,0,201.2,99.72Z"/><path class="cls-4" d="M210.8,98.4a1.38,1.38,0,0,1,.94.36,1.56,1.56,0,0,1,.51,1.23,4.3,4.3,0,0,1-.79,2.46,3.34,3.34,0,0,1-1.12,1.1.78.78,0,0,1-.36.11.38.38,0,0,1-.3-.13.4.4,0,0,1-.15-.31c0-.12.1-.26.3-.4a2.38,2.38,0,0,0,.92-1.32,1.13,1.13,0,0,0,.06-.29c0-.09-.11-.15-.32-.16a1,1,0,0,1-.73-.39,1.45,1.45,0,0,1-.29-.94,1.24,1.24,0,0,1,.44-1A1.27,1.27,0,0,1,210.8,98.4Z"/><path class="cls-4" d="M221.46,88.12a2.94,2.94,0,0,1,2.72,1.82,10.51,10.51,0,0,1,.89,4.76,11,11,0,0,1-.78,4.55,3,3,0,0,1-2.84,2.06,2.89,2.89,0,0,1-2.62-1.62,10.1,10.1,0,0,1-1-5,9.7,9.7,0,0,1,1.08-5.1A2.87,2.87,0,0,1,221.46,88.12Zm0,1.29q-2.15,0-2.15,5.32a11.69,11.69,0,0,0,.47,3.69c.36,1,.93,1.57,1.69,1.57a1.67,1.67,0,0,0,1.5-1.1,10.07,10.07,0,0,0,.66-4.19C223.61,91.17,222.88,89.41,221.44,89.41Z"/><path class="cls-4" d="M230.46,88.12a2.94,2.94,0,0,1,2.72,1.82,10.51,10.51,0,0,1,.89,4.76,11,11,0,0,1-.78,4.55,3,3,0,0,1-2.84,2.06,2.89,2.89,0,0,1-2.62-1.62,10.1,10.1,0,0,1-1-5,9.7,9.7,0,0,1,1.08-5.1A2.87,2.87,0,0,1,230.46,88.12Zm0,1.29q-2.15,0-2.15,5.32a11.69,11.69,0,0,0,.47,3.69c.36,1,.93,1.57,1.69,1.57a1.67,1.67,0,0,0,1.5-1.1,10.07,10.07,0,0,0,.66-4.19C232.61,91.17,231.88,89.41,230.44,89.41Z"/><path class="cls-4" d="M239.46,88.12a2.94,2.94,0,0,1,2.72,1.82,10.51,10.51,0,0,1,.89,4.76,11,11,0,0,1-.78,4.55,3,3,0,0,1-2.84,2.06,2.89,2.89,0,0,1-2.62-1.62,10.1,10.1,0,0,1-1-5,9.7,9.7,0,0,1,1.08-5.1A2.87,2.87,0,0,1,239.46,88.12Zm0,1.29q-2.15,0-2.15,5.32a11.69,11.69,0,0,0,.47,3.69c.36,1,.93,1.57,1.69,1.57a1.67,1.67,0,0,0,1.5-1.1,10.07,10.07,0,0,0,.66-4.19C241.61,91.17,240.88,89.41,239.44,89.41Z"/><path class="cls-4" d="M252.82,89.74a.58.58,0,0,1,.46.64,11.6,11.6,0,0,1-.44,2.15l4,.14a2,2,0,0,1,.94.23,1.19,1.19,0,0,1,.45,1.09,17.3,17.3,0,0,1-.57,3.69,12.27,12.27,0,0,1-1.28,3.55,1.6,1.6,0,0,1-1.38.87,5.74,5.74,0,0,1-2.71-1c-.41-.26-.62-.48-.62-.68a.4.4,0,0,1,.45-.45,1.42,1.42,0,0,1,.6.21,6.57,6.57,0,0,0,1.29.49,2.12,2.12,0,0,0,.51.07.88.88,0,0,0,.78-.43,10.68,10.68,0,0,0,1.09-3.09,13.79,13.79,0,0,0,.46-2.79c0-.35-.19-.53-.58-.55l-3.81-.13a15,15,0,0,1-4.17,6.83c-.57.51-1,.76-1.21.76a.44.44,0,0,1-.35-.17.44.44,0,0,1-.11-.28,1,1,0,0,1,.4-.63,13.83,13.83,0,0,0,3.41-5,18.79,18.79,0,0,0,1.39-4.83.77.77,0,0,1,.4-.65l-5.82.29h0a.37.37,0,0,1-.29-.11.62.62,0,0,1-.22-.52c0-.41.18-.62.55-.64l13.36-.66h0a.4.4,0,0,1,.36.15.62.62,0,0,1,.19.48.58.58,0,0,1-.58.63Z"/><path class="cls-4" d="M275.81,94.75l-9.72.69v5.84a.6.6,0,0,1-.16.43.67.67,0,0,1-.5.2.65.65,0,0,1-.56-.27.61.61,0,0,1-.11-.36V88.86a.57.57,0,0,1,.26-.5.81.81,0,0,1,.41-.11.67.67,0,0,1,.58.3l9.65-.77h.2c.85,0,1.28.46,1.28,1.39v11.6c0,1-.41,1.46-1.23,1.46a7.37,7.37,0,0,1-1.7-.29,8,8,0,0,1-1.3-.42c-.29-.13-.44-.29-.44-.5a.43.43,0,0,1,.48-.49,2,2,0,0,1,.38.06,8.71,8.71,0,0,0,1.83.27.65.65,0,0,0,.58-.22,1,1,0,0,0,.07-.4Zm-5.66-.8V89.42l-4.06.32v4.5Zm1.3-.09,4.36-.32v-4c0-.33-.15-.49-.44-.49h-.08l-3.84.3Z"/><path class="cls-5" d="M19.06,155.87a16.35,16.35,0,0,0,4.59-4.28,2,2,0,0,0,.36-.67c0-.08-.07-.11-.21-.11l-.7,0c-.44,0-1.64.11-3.62.22-2.58.15-4.81.3-6.69.47h-.2a.62.62,0,0,1-.46-.18.64.64,0,0,1-.18-.47.57.57,0,0,1,.45-.58,6.19,6.19,0,0,1,1-.11l1.28-.1q3-.22,7.8-.48l1.73-.1h.27a1.39,1.39,0,0,1,.79.21.92.92,0,0,1,.4.81,3.87,3.87,0,0,1-1,2,19.24,19.24,0,0,1-4.79,4.13,18.44,18.44,0,0,1,1.49,1.7,1.1,1.1,0,0,1,.26.68.78.78,0,0,1-.31.63.79.79,0,0,1-.48.16.67.67,0,0,1-.49-.22s-.13-.17-.29-.4a30.94,30.94,0,0,0-3.5-4,.77.77,0,0,1-.3-.51.51.51,0,0,1,.51-.49,1.19,1.19,0,0,1,.68.32C18.05,155,18.58,155.44,19.06,155.87Z"/><path class="cls-5" d="M36.73,152.61a26.78,26.78,0,0,1-5.61,3,1.27,1.27,0,0,1-.44.1.43.43,0,0,1-.41-.24.55.55,0,0,1-.07-.23.49.49,0,0,1,.26-.42l.95-.44a22.59,22.59,0,0,0,4.42-2.65,19.45,19.45,0,0,0,4.25-4.4.68.68,0,0,1,.57-.32.84.84,0,0,1,.46.15.55.55,0,0,1,.26.5,1.62,1.62,0,0,1-.37.8,17.32,17.32,0,0,1-3.26,3.39.71.71,0,0,1,.33.67V160c0,.49-.22.74-.67.74s-.67-.25-.67-.74Z"/><path class="cls-5" d="M50.65,153.88a.54.54,0,0,1,.27.07.46.46,0,0,1,.28.44,6.2,6.2,0,0,1-.51,1.55,9.82,9.82,0,0,1-1.44,2.54.86.86,0,0,1-.64.35.75.75,0,0,1-.44-.15.62.62,0,0,1-.26-.51,1.29,1.29,0,0,1,.37-.72,11.3,11.3,0,0,0,1.83-3.13A.59.59,0,0,1,50.65,153.88Zm3.58-3.56c0-.81,0-1.52,0-2.13a3.43,3.43,0,0,1,.1-1.15.62.62,0,0,1,.57-.3.59.59,0,0,1,.63.46,3.63,3.63,0,0,1,0,.78c0,.77,0,1.52,0,2.25,1.94-.12,3.42-.23,4.41-.32l.23,0a.75.75,0,0,1,.4.11.55.55,0,0,1,.3.52.57.57,0,0,1-.49.62,3.85,3.85,0,0,1-.47.05l-4,.29-.36,0v.65c0,4.72.07,7.12.07,7.2a2.19,2.19,0,0,1-.23,1.11.85.85,0,0,1-.76.49,1.32,1.32,0,0,1-.63-.23l-1-.61-.87-.53q-.42-.26-.42-.51a.38.38,0,0,1,.42-.43,1,1,0,0,1,.44.13c.65.29,1.11.48,1.39.58a.63.63,0,0,0,.19,0c.08,0,.12-.12.12-.35,0,0,0-.06,0-.16V157.2q0-.21-.06-4.95v-.63c-2.93.23-4.54.35-4.82.35a.85.85,0,0,1-.45-.13.6.6,0,0,1-.26-.54.57.57,0,0,1,.45-.61,2.68,2.68,0,0,1,.57-.06l4.09-.27Zm4.28,3.38c.4,0,1.08.62,2,1.88a4.22,4.22,0,0,1,1.1,2.11.68.68,0,0,1-.23.56.81.81,0,0,1-.5.18.64.64,0,0,1-.52-.28s-.09-.16-.19-.35a18.13,18.13,0,0,0-1.91-3.1.91.91,0,0,1-.24-.53.47.47,0,0,1,.13-.32A.43.43,0,0,1,58.51,153.7Z"/><path class="cls-5" d="M78.27,152.5c.61,0,.92.23.92.68a.59.59,0,0,1-.38.62,5.55,5.55,0,0,1-1,.08q-4,.12-10.76.52h-.09a.76.76,0,0,1-.49-.16.63.63,0,0,1-.23-.52.61.61,0,0,1,.6-.66c.09,0,.39,0,.89-.07,2.21-.13,3.91-.21,5.11-.26,2.33-.09,3.62-.14,3.85-.16C77.46,152.52,78,152.5,78.27,152.5Z"/><path class="cls-5" d="M95.26,157.6q-2.82.74-6.47,1.31c-1.74.27-2.75.41-3,.41a1.24,1.24,0,0,1-.74-.22.81.81,0,0,1-.37-.71,1.22,1.22,0,0,1,.18-.61c.05-.08.21-.33.48-.73a53.75,53.75,0,0,0,3.4-6c.48-.95.91-1.85,1.27-2.69a.73.73,0,0,1,.7-.52.82.82,0,0,1,.49.16.66.66,0,0,1,.31.58,3,3,0,0,1-.4,1,73.08,73.08,0,0,1-4.65,7.87.47.47,0,0,0-.13.26c0,.09.08.13.25.13a32.55,32.55,0,0,0,3.52-.4c1.56-.22,3.09-.49,4.61-.81a23.75,23.75,0,0,0-1.58-2.31.81.81,0,0,1-.22-.5.48.48,0,0,1,.47-.47c.42,0,1.3.9,2.64,2.71a7.05,7.05,0,0,1,1.57,2.82.72.72,0,0,1-.33.61.86.86,0,0,1-.5.17.7.7,0,0,1-.65-.51C96,158.87,95.67,158.34,95.26,157.6Z"/><path class="cls-5" d="M109.17,149.68a2.86,2.86,0,0,1,.2,1.2,11.37,11.37,0,0,1-2.06,5.89c-1,1.62-2,2.43-2.86,2.43a2.07,2.07,0,0,1-1.67-1,5,5,0,0,1-.94-3.16,5.57,5.57,0,0,1,1.57-3.79,7.91,7.91,0,0,1,3-2.12,9,9,0,0,1,3.41-.67A5.85,5.85,0,0,1,114,150a5.32,5.32,0,0,1,1.76,4.12,6,6,0,0,1-1.43,4,6.77,6.77,0,0,1-2.75,2,1.25,1.25,0,0,1-.49.12.47.47,0,0,1-.4-.19.41.41,0,0,1-.1-.26.52.52,0,0,1,.18-.37,6.58,6.58,0,0,1,.7-.43,5.53,5.53,0,0,0,1.71-1.51,5.21,5.21,0,0,0,1.14-3.27,4.4,4.4,0,0,0-4.41-4.49l-.66,0h-.06Zm-1.19.21a6.87,6.87,0,0,0-4,2.65,4.29,4.29,0,0,0-.87,2.51,4.13,4.13,0,0,0,.59,2.31c.26.39.5.58.73.58.43,0,1-.48,1.58-1.44a13.63,13.63,0,0,0,1.54-3.19,7.78,7.78,0,0,0,.45-2.43C108,150.68,108,150.35,108,149.89Z"/><path class="cls-5" d="M15.24,171.11a.37.37,0,0,1,.41.42c0,.22-.38.64-1.15,1.25a12,12,0,0,1-2.06,1.36,1,1,0,0,1-.45.12.55.55,0,0,1-.48-.27.56.56,0,0,1-.11-.32c0-.28.21-.51.64-.71a16.34,16.34,0,0,0,2.66-1.63A1,1,0,0,1,15.24,171.11ZM16.48,181a.58.58,0,0,1,.51.25.79.79,0,0,1,.13.41c0,.24-.16.44-.47.6a18.24,18.24,0,0,1-3.21,1.19,7.15,7.15,0,0,1-1.13.26c-.31,0-.47-.17-.47-.5a.48.48,0,0,1,.2-.4,3.57,3.57,0,0,1,.52-.21A19.69,19.69,0,0,0,16,181.11.87.87,0,0,1,16.48,181Zm-3.79-12.79a3.79,3.79,0,0,1,.74.17,11.13,11.13,0,0,1,1.67.58.69.69,0,0,1,.49.63.82.82,0,0,1-.07.31.59.59,0,0,1-.57.32,1.35,1.35,0,0,1-.57-.19c-.49-.29-1.1-.6-1.83-.94a.49.49,0,0,1-.35-.44C12.2,168.34,12.36,168.19,12.69,168.19Zm9.9,12.12-7.36.35a.59.59,0,0,1-.62.43.54.54,0,0,1-.62-.6v-6.06a.54.54,0,0,1,.62-.6.61.61,0,0,1,.57.31l7.25-.45h.25a1,1,0,0,1,1,.44,1.78,1.78,0,0,1,.16.86v5.35a.61.61,0,0,1-.11.36.59.59,0,0,1-.51.23C22.8,180.92,22.59,180.72,22.59,180.31Zm-7.35-5.21V176l7.35-.41v-.44c0-.35-.15-.52-.45-.52H22Zm7.35,2.31v-.95l-7.35.41v1Zm0,.88-7.35.42v1l7.35-.35Zm-3.43-9.54,5.57-.37h.09a.82.82,0,0,1,.58.18.54.54,0,0,1,.21.44,1.88,1.88,0,0,1-.68,1.09c-.69.7-1.16,1-1.41,1a.44.44,0,0,1-.36-.17.36.36,0,0,1-.09-.24.73.73,0,0,1,.24-.43c.12-.13.28-.32.48-.58a.44.44,0,0,0,.1-.2c0-.07-.07-.11-.23-.1h-.08l-5.14.32c-.83,1-1.42,1.51-1.76,1.51a.38.38,0,0,1-.29-.14.44.44,0,0,1-.14-.31c0-.13.13-.32.38-.57A9.94,9.94,0,0,0,18,168.35c.15-.25.28-.49.39-.71a.61.61,0,0,1,.59-.39.63.63,0,0,1,.32.1.56.56,0,0,1,.3.49A2.62,2.62,0,0,1,19.16,168.75Zm2,1.89a10.66,10.66,0,0,0,1.62,1.18A15.75,15.75,0,0,0,26,173.35c.47.17.71.33.71.5s-.06.14-.19.18a4.11,4.11,0,0,1-1.33.29,2,2,0,0,1-.91-.32,19.2,19.2,0,0,1-3.61-2.55,4.68,4.68,0,0,1-1,1.13,7.51,7.51,0,0,1-2.54,1.31.92.92,0,0,1-.29.05.4.4,0,0,1-.46-.45c0-.18.18-.34.54-.47a5.74,5.74,0,0,0,2-1.22,4,4,0,0,0,1.1-1.72.5.5,0,0,1,.52-.4,1,1,0,0,1,.43.11.43.43,0,0,1,.26.42A1.28,1.28,0,0,1,21.15,170.64Zm.19,10.21a7.13,7.13,0,0,1,1.34.45,24.75,24.75,0,0,1,2.46,1,.73.73,0,0,1,.46.65.65.65,0,0,1-.12.36.6.6,0,0,1-.54.3,1.69,1.69,0,0,1-.76-.29c-1-.55-1.9-1.05-2.81-1.47-.34-.17-.51-.35-.51-.56a.46.46,0,0,1,.06-.23A.45.45,0,0,1,21.34,180.85Z"/><path class="cls-5" d="M37.67,169.36l4.45-.33h.06a.51.51,0,0,1,.5.29.55.55,0,0,1,.07.28.5.5,0,0,1-.51.56l-1.52.11c0,.05-.12.38-.33,1s-.42,1.16-.65,1.7l3.74-.26c.41,0,.62.19.62.58a.5.5,0,0,1-.5.57l-11.14.77v.34a13.93,13.93,0,0,1-1.11,6,9.45,9.45,0,0,1-1.16,1.82.74.74,0,0,1-.53.35.58.58,0,0,1-.3-.11.5.5,0,0,1-.25-.42,1.2,1.2,0,0,1,.28-.58c1.12-1.6,1.69-3.89,1.73-6.87v-.47H31a.57.57,0,0,1-.41-.17.56.56,0,0,1-.16-.41.5.5,0,0,1,.52-.57l3.29-.23c-.2-.75-.46-1.59-.79-2.51l-1.67.13h-.07a.52.52,0,0,1-.49-.28.69.69,0,0,1-.07-.29.49.49,0,0,1,.5-.55l4.65-.35V168a.62.62,0,0,1,.23-.51.67.67,0,0,1,.45-.14.67.67,0,0,1,.54.23.59.59,0,0,1,.14.42Zm-2.16,7.52,2-.16v-1.5a.54.54,0,0,1,.21-.44.67.67,0,0,1,.45-.16.66.66,0,0,1,.54.24.56.56,0,0,1,.12.36v1.4l3.25-.25h.08c.39,0,.58.17.58.52a.53.53,0,0,1-.58.59l-3.33.22v1.49l3-.19H42c.37,0,.55.17.55.51s-.19.54-.58.57l-3.08.18v1.68l4.74-.21h0a.56.56,0,0,1,.52.21.61.61,0,0,1-.5.94L33,183.32h0a.62.62,0,0,1-.36-.1.45.45,0,0,1-.22-.44.53.53,0,0,1,.58-.58l4.57-.2v-1.65l-3,.18q-.63,0-.63-.51c0-.34.19-.53.58-.56l3-.19v-1.48l-2.6.18c-.62,1-1.08,1.55-1.38,1.55a.4.4,0,0,1-.3-.15.43.43,0,0,1-.17-.34,1.32,1.32,0,0,1,.24-.55,14.18,14.18,0,0,0,1.24-2.57c.14-.41.36-.61.65-.61a.73.73,0,0,1,.33.08.54.54,0,0,1,.31.52A2.91,2.91,0,0,1,35.51,176.88Zm-.8-6.17c0,.06,0,.12.08.19a12,12,0,0,1,.73,2.33l3-.21a19.8,19.8,0,0,0,.82-2.65Z"/><path class="cls-5" d="M50.45,171.83v10.88a.58.58,0,0,1-.16.4.64.64,0,0,1-.47.18c-.41,0-.61-.2-.61-.58v-8.65a17.2,17.2,0,0,1-1.47,2,.68.68,0,0,1-.51.29.45.45,0,0,1-.33-.14.47.47,0,0,1-.16-.32,2.09,2.09,0,0,1,.47-.81A19,19,0,0,0,49,171.9a26.56,26.56,0,0,0,1.32-3.21c.15-.43.37-.64.69-.64a.67.67,0,0,1,.31.07.52.52,0,0,1,.33.52,2.46,2.46,0,0,1-.18.71A24,24,0,0,1,50.45,171.83Zm4.5,2.54L54.76,171l-2.29.16h-.09c-.39,0-.58-.18-.58-.54a.57.57,0,0,1,.6-.62l9.36-.7h.07c.41,0,.61.19.61.57s-.2.59-.61.62l-2.17.15L59.48,174l1.85-.13h.2c.84,0,1.26.39,1.26,1.19a2.26,2.26,0,0,1,0,.27l-.63,6.57c0,.41-.24.62-.6.62s-.63-.18-.63-.54a.45.45,0,0,1,0-.08l0-.35-7.21.32c0,.35-.21.53-.62.53s-.56-.2-.61-.6l-.77-7.17v-.1c0-.35.2-.53.62-.53a.59.59,0,0,1,.62.49Zm.33,6.35L55,175.5l-1.89.13.53,5.16Zm.84-6.43,2.16-.16.15-3.37-2.46.18ZM58,180.6l.23-5.33-2.07.15.23,5.25Zm1.12,0,1.92-.09.43-5a.46.46,0,0,0,0-.1c0-.25-.13-.36-.44-.33l-1.63.11Z"/><path class="cls-5" d="M68.32,172v11a.54.54,0,0,1-.16.4.6.6,0,0,1-.46.17c-.41,0-.62-.19-.62-.57v-9c-.91,1.28-1.54,1.93-1.91,1.93a.37.37,0,0,1-.28-.14.47.47,0,0,1-.16-.32c0-.11.16-.36.5-.76a14.47,14.47,0,0,0,1.47-2.24,30.9,30.9,0,0,0,1.88-4.08c.16-.41.38-.62.68-.62a.73.73,0,0,1,.31.07.56.56,0,0,1,.35.54,2.39,2.39,0,0,1-.21.73A29,29,0,0,1,68.32,172ZM71,175.38v6c0,.33.15.5.45.5h.11l9.08-.26c.42,0,.64.18.64.56a.55.55,0,0,1-.61.61l-9.53.22h-.08c-.59,0-1-.13-1.12-.4a1.55,1.55,0,0,1-.14-.75v-6.43c0-.4.2-.59.61-.59A.52.52,0,0,1,71,175.38Zm5.26-3.15,1.61-.14h.18c.72,0,1.07.38,1.07,1.14V180A.59.59,0,0,1,78,180v0l-4.27.29a.52.52,0,0,1-.56.44q-.57,0-.57-.6v-7.53a.45.45,0,0,1,.2-.39.66.66,0,0,1,.38-.12.5.5,0,0,1,.56.41l1.35-.12v-1.54l-3.66.31h-.1a.57.57,0,0,1-.37-.11.48.48,0,0,1-.18-.41.53.53,0,0,1,.56-.58l3.75-.31V168a.5.5,0,0,1,.19-.42.69.69,0,0,1,.41-.13.74.74,0,0,1,.42.12.51.51,0,0,1,.2.43v1.62l3.36-.28h.09q.57,0,.57.51c0,.35-.2.54-.58.57l-3.44.29ZM78,174.35v-.9c0-.2-.09-.31-.29-.31h-.07l-3.89.33v1.18Zm0,1-4.25.29v1.3l4.25-.29Zm0,2.27-4.25.3v1.34l4.25-.29Z"/><path class="cls-5" d="M96.16,169.69v11.57a.61.61,0,0,1-.18.45.69.69,0,0,1-.53.2.72.72,0,0,1-.59-.27.63.63,0,0,1-.11-.38V169.69a.53.53,0,0,1,.25-.48.68.68,0,0,1,.45-.15.73.73,0,0,1,.51.19A.56.56,0,0,1,96.16,169.69Z"/><path class="cls-5" d="M102.8,179.18a1.38,1.38,0,0,1,.94.36,1.53,1.53,0,0,1,.51,1.23,4.3,4.3,0,0,1-.79,2.46,3.34,3.34,0,0,1-1.12,1.1.78.78,0,0,1-.36.11.38.38,0,0,1-.3-.13.42.42,0,0,1-.15-.31c0-.13.1-.26.3-.4a2.42,2.42,0,0,0,.92-1.32,1.13,1.13,0,0,0,.06-.29c0-.09-.11-.15-.32-.16a1,1,0,0,1-.73-.39,1.45,1.45,0,0,1-.29-.94,1.24,1.24,0,0,1,.44-1A1.27,1.27,0,0,1,102.8,179.18Z"/><path class="cls-5" d="M113.46,168.9a2.93,2.93,0,0,1,2.72,1.82,10.51,10.51,0,0,1,.89,4.76,11,11,0,0,1-.78,4.55,3,3,0,0,1-2.84,2.06,2.88,2.88,0,0,1-2.62-1.63,10,10,0,0,1-1-5,9.77,9.77,0,0,1,1.08-5.11A2.88,2.88,0,0,1,113.46,168.9Zm0,1.29q-2.14,0-2.15,5.32a11.69,11.69,0,0,0,.47,3.69c.36,1.05.93,1.57,1.69,1.57a1.67,1.67,0,0,0,1.5-1.11,10,10,0,0,0,.66-4.18C115.61,172,114.88,170.19,113.44,170.19Z"/><path class="cls-5" d="M122.46,168.9a2.93,2.93,0,0,1,2.72,1.82,10.51,10.51,0,0,1,.89,4.76,11,11,0,0,1-.78,4.55,3,3,0,0,1-2.84,2.06,2.88,2.88,0,0,1-2.62-1.63,10,10,0,0,1-1-5,9.77,9.77,0,0,1,1.08-5.11A2.88,2.88,0,0,1,122.46,168.9Zm0,1.29q-2.14,0-2.15,5.32a11.69,11.69,0,0,0,.47,3.69c.36,1.05.93,1.57,1.69,1.57a1.67,1.67,0,0,0,1.5-1.11,10,10,0,0,0,.66-4.18C124.61,172,123.88,170.19,122.44,170.19Z"/><path class="cls-5" d="M131.46,168.9a2.93,2.93,0,0,1,2.72,1.82,10.51,10.51,0,0,1,.89,4.76,11,11,0,0,1-.78,4.55,3,3,0,0,1-2.84,2.06,2.88,2.88,0,0,1-2.62-1.63,10,10,0,0,1-1-5,9.77,9.77,0,0,1,1.08-5.11A2.88,2.88,0,0,1,131.46,168.9Zm0,1.29q-2.15,0-2.15,5.32a11.69,11.69,0,0,0,.47,3.69c.36,1.05.93,1.57,1.69,1.57a1.67,1.67,0,0,0,1.5-1.11,10,10,0,0,0,.66-4.18C133.61,172,132.88,170.19,131.44,170.19Z"/><path class="cls-5" d="M144.82,170.52a.58.58,0,0,1,.46.64,11.76,11.76,0,0,1-.44,2.15l4,.14a1.87,1.87,0,0,1,.94.23,1.19,1.19,0,0,1,.45,1.09,17.48,17.48,0,0,1-.57,3.69,12.27,12.27,0,0,1-1.28,3.55,1.6,1.6,0,0,1-1.38.87,5.74,5.74,0,0,1-2.71-1c-.41-.26-.62-.48-.62-.68a.4.4,0,0,1,.45-.45,1.42,1.42,0,0,1,.6.21,6,6,0,0,0,1.29.48,1.77,1.77,0,0,0,.51.08.87.87,0,0,0,.78-.44,10.48,10.48,0,0,0,1.09-3.08,13.75,13.75,0,0,0,.46-2.8c0-.34-.19-.52-.58-.54l-3.81-.13a15,15,0,0,1-4.17,6.83c-.57.51-1,.76-1.21.76a.47.47,0,0,1-.46-.46,1,1,0,0,1,.4-.62,13.83,13.83,0,0,0,3.41-5,18.79,18.79,0,0,0,1.39-4.83.77.77,0,0,1,.4-.65l-5.82.29h0a.37.37,0,0,1-.29-.11.63.63,0,0,1-.22-.52c0-.41.18-.62.55-.64l13.36-.66h0a.42.42,0,0,1,.36.14.66.66,0,0,1,.19.49.6.6,0,0,1-.27.53.55.55,0,0,1-.31.1Z"/><path class="cls-5" d="M167.81,175.53l-9.72.69v5.84a.6.6,0,0,1-.16.43.67.67,0,0,1-.5.2.65.65,0,0,1-.56-.27.61.61,0,0,1-.11-.36V169.64a.57.57,0,0,1,.26-.5.81.81,0,0,1,.41-.11.67.67,0,0,1,.58.3l9.65-.77h.2c.85,0,1.28.46,1.28,1.39v11.6c0,1-.41,1.46-1.23,1.46a7.37,7.37,0,0,1-1.7-.29,9.09,9.09,0,0,1-1.3-.42c-.29-.13-.44-.29-.44-.5a.43.43,0,0,1,.48-.49,2,2,0,0,1,.38.06,8.57,8.57,0,0,0,1.83.26c.3,0,.49-.07.58-.21a1,1,0,0,0,.07-.4Zm-5.66-.8V170.2l-4.06.32V175Zm1.3-.09,4.36-.32v-4c0-.33-.15-.5-.44-.5h-.08l-3.84.3Z"/><path class="cls-6" d="M314.6,160.75a29.14,29.14,0,0,1-2.16,2.27v9.71a.64.64,0,0,1-.14.42.69.69,0,0,1-.57.24.67.67,0,0,1-.7-.66v-8.42a32.78,32.78,0,0,1-5.8,4.06,1.46,1.46,0,0,1-.61.22.41.41,0,0,1-.34-.18.51.51,0,0,1-.1-.3.54.54,0,0,1,.21-.41l.84-.5a32.13,32.13,0,0,0,5.8-4.57v-.34q0-.63.69-.63a.74.74,0,0,1,.23,0c.36-.38.61-.66.76-.84l-7.27.4a.59.59,0,0,1-.27,0,.57.57,0,0,1-.44-.58.55.55,0,0,1,.6-.61l13-.72a.78.78,0,0,1,.26,0,.55.55,0,0,1,.42.58.54.54,0,0,1-.58.6Zm-.73,2.7a1.74,1.74,0,0,1,.73.32,42,42,0,0,1,4.43,3.12,1,1,0,0,1,.42.74.69.69,0,0,1-.21.51.73.73,0,0,1-.52.21.87.87,0,0,1-.58-.23,4.21,4.21,0,0,1-.34-.32,32.07,32.07,0,0,0-4.08-3.41.57.57,0,0,1-.32-.46.46.46,0,0,1,.1-.29A.43.43,0,0,1,313.87,163.45Z"/><path class="cls-6" d="M334.58,163a.54.54,0,0,1,.57.58.53.53,0,0,1-.54.6l-3.91.28V167l4.21-.27h0a.53.53,0,0,1,.43.17.55.55,0,0,1,.17.43.56.56,0,0,1-.25.49.63.63,0,0,1-.31.1l-4.29.25V171a27.46,27.46,0,0,0,6.27,1.21c.77.06,1.16.16,1.16.29s-.11.21-.33.38a2.83,2.83,0,0,1-1.54.69,13.68,13.68,0,0,1-2.29-.45,42.45,42.45,0,0,1-5-1.51,18.18,18.18,0,0,1-3.27-1.68,11.68,11.68,0,0,1-2.27,2.78,1.36,1.36,0,0,1-.73.42.4.4,0,0,1-.27-.13.5.5,0,0,1-.16-.36.62.62,0,0,1,.22-.41,12.6,12.6,0,0,0,3.18-5.4.72.72,0,0,1,.72-.57.86.86,0,0,1,.27.05.58.58,0,0,1,.36.58,8.24,8.24,0,0,1-.85,2.19,17.85,17.85,0,0,0,3.21,1.51v-6l-2.77.19a.58.58,0,0,1-.63.51c-.35,0-.56-.21-.61-.63l-.65-4.88v-.09a.58.58,0,0,1,.25-.49.72.72,0,0,1,.41-.14.63.63,0,0,1,.58.33l7.79-.71h.27c.79,0,1.18.34,1.18,1a2,2,0,0,1,0,.4Zm-1.22.1.42-2.83a.53.53,0,0,0,0-.14c0-.2-.12-.31-.36-.31h-.11l-7.15.62.37,3.19Z"/><path class="cls-6" d="M530.78,95.43l-13.38.65h0c-.46,0-.68-.21-.68-.63a.6.6,0,0,1,.65-.67l13.36-.68h0a.65.65,0,0,1,.47.12.58.58,0,0,1,.25.51A.62.62,0,0,1,530.78,95.43Z"/><path class="cls-6" d="M540.81,94.18l.14,0a1.31,1.31,0,0,1,.27,0q.42,0,.42.51a.45.45,0,0,1-.33.45,2.64,2.64,0,0,1-.5.13v6.69c0,.77-.29,1.15-.86,1.15a3.3,3.3,0,0,1-1.21-.35,6.66,6.66,0,0,1-1-.53.5.5,0,0,1-.28-.42.34.34,0,0,1,.38-.37,1.43,1.43,0,0,1,.35.07,4.17,4.17,0,0,0,1.14.22q.33,0,.33-.51V95.48l-.52.12c-.73.16-1.59.34-2.59.52a18.07,18.07,0,0,1-.88,5.18c-.4,1.13-.77,1.7-1.09,1.7a.57.57,0,0,1-.31-.1.41.41,0,0,1-.21-.39,2.32,2.32,0,0,1,.22-.64,15.92,15.92,0,0,0,1.12-5.55l-1.07.17q-.54,0-.54-.57a.55.55,0,0,1,.41-.59,4.48,4.48,0,0,1,.66-.11l.58-.08V94.08c0-.94,0-1.72,0-2.34s-.05-1.07-.05-1.26a.53.53,0,0,1,.6-.61.6.6,0,0,1,.44.18l.41-.06a15.56,15.56,0,0,0,.78-2.1c.11-.37.32-.56.62-.56a.84.84,0,0,1,.35.07.51.51,0,0,1,.31.49,5.67,5.67,0,0,1-1,2l1.74-.22h.23c.66,0,1,.4,1,1.19Zm-1.19.24V91.13c0-.26-.11-.38-.32-.38h-.07l-2.71.35c0,.37,0,.82,0,1.34,0,.33,0,.76,0,1.3s0,.79,0,1.06V95Zm-2.17-3c.14,0,.31.12.49.35a10,10,0,0,1,.95,1.44.83.83,0,0,1,.12.4.49.49,0,0,1-.27.47.61.61,0,0,1-.31.09c-.27,0-.47-.19-.61-.58a10.66,10.66,0,0,0-.68-1.48.52.52,0,0,1-.09-.29.36.36,0,0,1,.16-.31A.4.4,0,0,1,537.45,91.46Zm1.16,5.36v2.86q0,.51-.54.51t-.54-.51V96.82c0-.34.18-.51.55-.51A.46.46,0,0,1,538.61,96.82Zm7.72,3.09.13.11a14.59,14.59,0,0,0,3.2,2.21c.44.23.67.4.67.51s-.09.15-.26.22a3.86,3.86,0,0,1-1.3.3,1.39,1.39,0,0,1-.82-.37,21.33,21.33,0,0,1-2.39-2.22,16.23,16.23,0,0,1-3,2.25,1.89,1.89,0,0,1-.7.26.42.42,0,0,1-.4-.22.46.46,0,0,1-.08-.26.41.41,0,0,1,.19-.35,3.11,3.11,0,0,1,.41-.24,13.89,13.89,0,0,0,2.86-2.27,10.34,10.34,0,0,1-2-2.57.43.43,0,0,1,.21-.38.5.5,0,0,1,.26-.08c.19,0,.4.16.63.49a19.38,19.38,0,0,0,1.57,1.78,14,14,0,0,0,1.4-2,2.19,2.19,0,0,0,.34-.83c0-.11-.09-.16-.25-.16h-.13l-4.5.45h-.05a.42.42,0,0,1-.31-.13.64.64,0,0,1-.16-.45.51.51,0,0,1,.52-.57l5.17-.43.24,0c.68,0,1,.26,1,.77a2.44,2.44,0,0,1-.25.94A12.43,12.43,0,0,1,546.33,99.91ZM544,88.6l2.14-.31a2.07,2.07,0,0,1,.35,0q.9,0,.9,1.08a1,1,0,0,1,0,.13l-.11,2.74v.09a.43.43,0,0,0,.09.31.59.59,0,0,0,.44.12c.59,0,.92-.12,1-.36a5.34,5.34,0,0,0,.09-1.31,1,1,0,0,1,.06-.42.33.33,0,0,1,.31-.16c.2,0,.33.14.4.42a7,7,0,0,1,.26,1.82,1,1,0,0,1-.68,1,6.57,6.57,0,0,1-1.89.19c-.61,0-1-.15-1.17-.43a1.41,1.41,0,0,1-.13-.73l.11-2.93c0-.26-.09-.39-.31-.37h-.07l-1.72.26v.15a9.14,9.14,0,0,1-.62,3.63c-.38.89-.73,1.33-1.05,1.33a.56.56,0,0,1-.3-.1.37.37,0,0,1-.21-.33,1.07,1.07,0,0,1,.18-.45,7.61,7.61,0,0,0,.78-3.78l0-1.35c0-.37.2-.55.61-.55A.59.59,0,0,1,544,88.6Z"/><path class="cls-6" d="M554.41,96.13c-.06,1.57-.39,2.36-1,2.36a.79.79,0,0,1-.35-.09.52.52,0,0,1-.32-.52,1.08,1.08,0,0,1,.11-.44,7.93,7.93,0,0,0,.56-2.47c0-.35.18-.53.47-.53h0c.28,0,.44.19.49.57l12-.76h.11c.56,0,.84.2.84.59a3.6,3.6,0,0,1-1,1.85c-.42.5-.73.76-.93.76s-.46-.13-.46-.4a.78.78,0,0,1,.13-.37,6.17,6.17,0,0,0,.43-.91.57.57,0,0,0,.06-.21c0-.07-.06-.11-.2-.11h-.18Zm3.56.76c.48,0,.72.22.72.67a5.07,5.07,0,0,1-.31,1.22,6.56,6.56,0,0,1-3.85,4.09,3.15,3.15,0,0,1-1,.29.36.36,0,0,1-.32-.17.46.46,0,0,1-.12-.29.4.4,0,0,1,.18-.33,5.7,5.7,0,0,1,.61-.33,5.85,5.85,0,0,0,2.25-1.94,7.26,7.26,0,0,0,1.16-2.66A.62.62,0,0,1,558,96.89Zm2.78-6.28v1.46l3.83-.24h0a.62.62,0,0,1,.3.07.54.54,0,0,1-.21,1l-9,.56h-.1c-.37,0-.55-.17-.55-.52a.49.49,0,0,1,.52-.56l3.82-.24V90.7l-4.65.28h-.09a.48.48,0,0,1-.46-.22.57.57,0,0,1-.1-.34.5.5,0,0,1,.53-.56l4.77-.3V88a.59.59,0,0,1,.23-.49.77.77,0,0,1,.45-.14.73.73,0,0,1,.5.18.61.61,0,0,1,.18.45v1.52l4.76-.3q.63,0,.63.57a.48.48,0,0,1-.51.55Zm1.12,6.26-.06,4.18c0,.31.09.51.29.6a5.24,5.24,0,0,0,1.44.1,20.15,20.15,0,0,0,2.43-.1.69.69,0,0,0,.65-.58,6.29,6.29,0,0,0,.09-1.23c0-.42.15-.63.44-.63s.47.18.54.54a10.17,10.17,0,0,1,.22,1.9,1.06,1.06,0,0,1-.82,1.09,15.25,15.25,0,0,1-3.5.24c-1.05,0-1.73,0-2-.06a1.17,1.17,0,0,1-1-.59,1.76,1.76,0,0,1-.15-.79v-.08l.08-4.59a.59.59,0,0,1,.67-.66A.61.61,0,0,1,561.87,96.87Z"/><path class="cls-6" d="M574.67,95.05a34.47,34.47,0,0,1-2,4.35,33.13,33.13,0,0,0,3.91-.89q-.25-.47-.81-1.29a.5.5,0,0,1-.1-.28.31.31,0,0,1,.12-.24.46.46,0,0,1,.33-.15.84.84,0,0,1,.58.32,12.25,12.25,0,0,1,1.91,2.61,1.19,1.19,0,0,1,.16.5.66.66,0,0,1-.22.48.71.71,0,0,1-.47.19.64.64,0,0,1-.53-.27s-.09-.17-.2-.39-.19-.4-.32-.64a37.41,37.41,0,0,1-4.36,1.35,5.23,5.23,0,0,1-.86.16.66.66,0,0,1-.54-.37.8.8,0,0,1-.18-.42,1.25,1.25,0,0,1,.2-.51,28.93,28.93,0,0,0,2-4.35l-2.82.33h-.11a.48.48,0,0,1-.54-.55q0-.52.6-.6l3.47-.41V91.66l-2.63.28h-.11a.5.5,0,0,1-.56-.57c0-.36.21-.56.62-.6l2.68-.29V88.22a.63.63,0,1,1,1.26,0v2.11l2.3-.24h.11a.51.51,0,0,1,.58.58c0,.36-.21.57-.62.62l-2.37.25v2.31l3.38-.4h.11c.38,0,.58.18.58.55a.59.59,0,0,1-.6.63Zm5-4.29q-.6,0-.6-.63a.57.57,0,0,1,.58-.62L584,89l.37,0a.89.89,0,0,1,.91.53,4.82,4.82,0,0,1,.14,1.47,43,43,0,0,1-.32,6.61c-.14.73-.51,1.1-1.09,1.1a4.16,4.16,0,0,1-1.43-.4c-.66-.28-1-.54-1-.78a.42.42,0,0,1,.13-.32.44.44,0,0,1,.32-.13,1,1,0,0,1,.34.07,3.24,3.24,0,0,0,1,.21.43.43,0,0,0,.44-.41c0-.1,0-.4.1-.91.15-1.52.22-3.14.22-4.88a1.4,1.4,0,0,0-.15-.8.44.44,0,0,0-.3-.09h-.07l-2.72.35v12.25a.62.62,0,0,1-.64.63.59.59,0,0,1-.6-.37.67.67,0,0,1-.05-.26Z"/><path class="cls-6" d="M597.68,91.35c-2.28.46-4.58.87-6.9,1.2-.88.13-1.37.19-1.47.19a.64.64,0,0,1-.72-.73.56.56,0,0,1,.4-.56,4.86,4.86,0,0,1,1-.14c1.08-.1,2.59-.31,4.53-.61s3.48-.59,4.9-.88a2.63,2.63,0,0,1,.48-.07.75.75,0,0,1,.71.37,1,1,0,0,1,.13.47c0,.24-.21.45-.63.62a7.35,7.35,0,0,0-2.9,2.24,5.87,5.87,0,0,0-1.47,3.72,3.45,3.45,0,0,0,1,2.51,4.69,4.69,0,0,0,2.11,1.22.73.73,0,0,1,.63.73c0,.43-.24.65-.71.65a3.76,3.76,0,0,1-1.85-.7,4.82,4.82,0,0,1-2.58-4.28,6.51,6.51,0,0,1,.68-2.81A9,9,0,0,1,597.68,91.35Zm3.41-3.07a.92.92,0,0,1,.5.19,5.87,5.87,0,0,1,1.65,1.65.91.91,0,0,1,.16.44.53.53,0,0,1-.19.41.55.55,0,0,1-.38.13c-.16,0-.32-.13-.49-.38A9.4,9.4,0,0,0,601,89.06a.71.71,0,0,1-.25-.45A.29.29,0,0,1,601.09,88.28Zm1.55-1.09c.29,0,.77.29,1.43.89s.84.9.84,1.2a.51.51,0,0,1-.2.43.56.56,0,0,1-.34.12c-.16,0-.32-.11-.48-.34a10.71,10.71,0,0,0-1.33-1.56.66.66,0,0,1-.25-.42A.29.29,0,0,1,602.64,87.19Z"/><path class="cls-6" d="M611.28,91.42l1.27-.16.28,0c.58,0,.88.36.88,1.08v9.59c0,.72-.3,1.08-.89,1.08a5.48,5.48,0,0,1-1.87-.52c-.44-.18-.66-.39-.66-.62s.13-.38.41-.38a1.23,1.23,0,0,1,.38.07,3.79,3.79,0,0,0,1.07.25c.29,0,.44-.18.44-.55V98.17l-4.33.37a14.61,14.61,0,0,1-.8,3.1,6.45,6.45,0,0,1-.33.73.53.53,0,0,1-.46.3.49.49,0,0,1-.28-.09.48.48,0,0,1-.17-.36.94.94,0,0,1,.09-.36,20.18,20.18,0,0,0,1-7.27c0-.75,0-1.6-.07-2.58a.4.4,0,0,1,.11-.29.58.58,0,0,1,.46-.19.52.52,0,0,1,.49.27l1.71-.22a5.3,5.3,0,0,0,1.27-2c0-.1-.06-.14-.19-.14H611l-2,.27a11.59,11.59,0,0,1-2,2.17,1.51,1.51,0,0,1-.75.44.43.43,0,0,1-.31-.15.36.36,0,0,1-.11-.26c0-.12.13-.33.41-.62a16.77,16.77,0,0,0,2.07-2.71c.12-.2.24-.4.35-.6s.37-.47.61-.47a.62.62,0,0,1,.34.11.52.52,0,0,1,.22.45,1.31,1.31,0,0,1-.17.54l2.09-.29.33,0c.45,0,.68.18.68.53C612.86,89.38,612.33,90.24,611.28,91.42Zm-1.37,4-1.43.14q0,.82-.09,2l1.52-.13Zm0-2.81-1.48.17v.68l0,1.12,1.43-.14Zm1.11-.14V94.3l1.57-.15v-1.5c0-.24-.1-.35-.3-.35h-.08Zm0,2.84v2l1.57-.13v-2Zm6.68.34V94.16c0-.38.2-.56.59-.56a.56.56,0,0,1,.51.25.52.52,0,0,1,.09.31v1.36l1.93-.16h.08a.46.46,0,0,1,.46.26.5.5,0,0,1,.07.27.48.48,0,0,1-.49.53l-2.05.16v1.92l2.59-.19h.07a.54.54,0,0,1,.42.17.51.51,0,0,1,.15.37.48.48,0,0,1-.51.54l-2.72.21v3.34a.45.45,0,0,1-.13.34.59.59,0,0,1-.47.2c-.39,0-.59-.18-.59-.54V99.67l-2.84.21h-.09a.54.54,0,0,1,0-1.08l3-.22V96.66l-1.81.14c-.44,1-.8,1.45-1.09,1.45a.57.57,0,0,1-.28-.08.39.39,0,0,1-.2-.37,1.4,1.4,0,0,1,.17-.49,13.31,13.31,0,0,0,.93-2.67c.09-.37.29-.55.58-.55a.5.5,0,0,1,.57.57,3.79,3.79,0,0,1-.25,1.07Zm.21-6.17A6.58,6.58,0,0,1,615.75,93c-.48.43-.82.64-1,.64a.41.41,0,0,1-.3-.13.5.5,0,0,1-.15-.34q0-.23.51-.66a6,6,0,0,0,1.67-2.35,4.63,4.63,0,0,0,.19-.56l-1.7.2h-.07c-.37,0-.56-.2-.56-.54a.5.5,0,0,1,.5-.56l5.24-.54h.31a.85.85,0,0,1,1,1,9.93,9.93,0,0,1-.34,2.4c-.32,1.27-.79,1.91-1.42,1.91a3.38,3.38,0,0,1-1.74-.54c-.22-.14-.34-.28-.34-.44a.32.32,0,0,1,.37-.37,1.07,1.07,0,0,1,.35.07,2.19,2.19,0,0,0,.8.16c.28,0,.49-.19.61-.58a7.77,7.77,0,0,0,.42-2.11.33.33,0,0,0-.36-.37h-.18Z"/><path class="cls-6" d="M624.55,92.43a5,5,0,0,1,1.72.79c.43.25.69.42.8.5a.8.8,0,0,1,.36.66.73.73,0,0,1-.14.42.56.56,0,0,1-.51.27.76.76,0,0,1-.55-.23,18.29,18.29,0,0,0-1.42-1.18l-.43-.33a.62.62,0,0,1-.26-.47A.38.38,0,0,1,624.55,92.43Zm3.1,4.75a.62.62,0,0,1,.26.06.47.47,0,0,1,.29.44,2.22,2.22,0,0,1-.23.7,18.19,18.19,0,0,1-2,3.58.84.84,0,0,1-.66.39.69.69,0,0,1-.47-.2.65.65,0,0,1-.23-.49,1.28,1.28,0,0,1,.37-.72,22.32,22.32,0,0,0,2.11-3.21C627.25,97.36,627.45,97.18,627.65,97.18Zm-1.82-8.46a5,5,0,0,1,1.67.75,8.49,8.49,0,0,1,.77.51.83.83,0,0,1,.34.65.62.62,0,0,1-.16.43.67.67,0,0,1-.53.26,1.11,1.11,0,0,1-.71-.37,15.22,15.22,0,0,0-1.55-1.3.62.62,0,0,1-.29-.49C625.37,88.86,625.52,88.72,625.83,88.72Zm7.88,8.73a7.94,7.94,0,0,1-1.79,3.34A10.26,10.26,0,0,1,629.1,103a1.09,1.09,0,0,1-.5.16.39.39,0,0,1-.33-.19.43.43,0,0,1-.1-.27.45.45,0,0,1,.18-.34,3,3,0,0,1,.45-.31A8.66,8.66,0,0,0,632,98.46a9.13,9.13,0,0,0,.55-1.78l-3.62.23h0a.57.57,0,0,1-.56-.58.5.5,0,0,1,.53-.57l3.87-.24c.11-1.14.17-2.29.17-3.46l-2.79.21h-.07a.38.38,0,0,1-.31-.14.59.59,0,0,1-.15-.41.49.49,0,0,1,.5-.55l2.82-.22v-2.8a.5.5,0,0,1,.2-.44.65.65,0,0,1,.44-.14.61.61,0,0,1,.51.22.56.56,0,0,1,.12.36v2.69l2.59-.2H637c.73,0,1.1.35,1.1,1.05,0,.06,0,.14,0,.23l-.4,3.3,1.74-.1h.08c.35.06.52.24.52.56a.53.53,0,0,1-.55.59l-5.12.31A16.57,16.57,0,0,0,636.07,99a15.1,15.1,0,0,0,3.59,3.21c.36.23.54.39.54.5s-.1.16-.29.23a3.37,3.37,0,0,1-1.18.23,1.26,1.26,0,0,1-.85-.36,22,22,0,0,1-2.45-2.78A23.73,23.73,0,0,1,633.71,97.45Zm.34-2,2.38-.15.34-3.08v-.09a.29.29,0,0,0-.33-.33h-.07l-2.16.17v.26C634.2,93.42,634.15,94.49,634.05,95.44Z"/><path class="cls-6" d="M651.68,91.35c-2.28.46-4.58.87-6.9,1.2-.88.13-1.37.19-1.47.19a.64.64,0,0,1-.72-.73.56.56,0,0,1,.4-.56,4.86,4.86,0,0,1,1-.14c1.08-.1,2.59-.31,4.53-.61s3.48-.59,4.9-.88a2.63,2.63,0,0,1,.48-.07.75.75,0,0,1,.71.37,1,1,0,0,1,.13.47c0,.24-.21.45-.63.62a7.35,7.35,0,0,0-2.9,2.24,5.87,5.87,0,0,0-1.47,3.72,3.45,3.45,0,0,0,1,2.51,4.69,4.69,0,0,0,2.11,1.22.73.73,0,0,1,.63.73c0,.43-.24.65-.71.65a3.76,3.76,0,0,1-1.85-.7,4.82,4.82,0,0,1-2.58-4.28,6.51,6.51,0,0,1,.68-2.81A9,9,0,0,1,651.68,91.35Zm3.41-3.07a.92.92,0,0,1,.5.19,5.87,5.87,0,0,1,1.65,1.65.91.91,0,0,1,.16.44.53.53,0,0,1-.19.41.55.55,0,0,1-.38.13c-.16,0-.32-.13-.49-.38A9.4,9.4,0,0,0,655,89.06a.71.71,0,0,1-.25-.45A.29.29,0,0,1,655.09,88.28Zm1.55-1.09c.29,0,.77.29,1.43.89s.84.9.84,1.2a.51.51,0,0,1-.2.43.56.56,0,0,1-.34.12c-.16,0-.32-.11-.48-.34a10.71,10.71,0,0,0-1.33-1.56.66.66,0,0,1-.25-.42A.29.29,0,0,1,656.64,87.19Z"/><path class="cls-6" d="M666.93,90.63a14.87,14.87,0,0,1-.88-2.24.5.5,0,0,1,.28-.45.85.85,0,0,1,.42-.11c.31,0,.55.24.71.73s.42,1.11.75,1.84c1.22-.21,2.08-.39,2.58-.53a1.29,1.29,0,0,1,.36-.05.53.53,0,0,1,.6.61c0,.3-.21.5-.63.59-.59.13-1.39.3-2.41.48.41.87.77,1.56,1.08,2.1.94-.2,1.62-.37,2.06-.49a2.31,2.31,0,0,1,.53-.09c.39,0,.59.21.59.64a.53.53,0,0,1-.47.53c-.47.14-1.18.3-2.11.49a15.46,15.46,0,0,0,1.24,1.82,1.52,1.52,0,0,1,.39,1c0,.38-.24.57-.73.57a2.08,2.08,0,0,1-.42-.06,18.92,18.92,0,0,0-2-.37c-.28,0-.43-.15-.43-.36s.18-.43.52-.43c.15,0,.49,0,1,.07l.42,0c-.35-.49-.77-1.14-1.27-2a36.53,36.53,0,0,1-4.34.71c-.46,0-.68-.21-.68-.63a.49.49,0,0,1,.36-.48,2,2,0,0,1,.5-.11q1.56-.19,3.54-.57c-.43-.8-.78-1.51-1.06-2.11l-.27.05c-2.22.37-3.47.56-3.74.56q-.66,0-.66-.63c0-.34.24-.53.73-.58s1.41-.2,3.13-.47Zm2.87,10.66H670c.49,0,.74.22.74.66s-.33.66-1,.66a7.71,7.71,0,0,1-4.32-1,3.34,3.34,0,0,1-1.35-1.69,1.18,1.18,0,0,1-.08-.39.48.48,0,0,1,.54-.55c.23,0,.43.18.61.54C665.75,100.68,667.3,101.29,669.8,101.29Z"/><path class="cls-6" d="M687.29,90a30.53,30.53,0,0,1-4.22.69.69.69,0,0,1-.55-.23.6.6,0,0,1-.15-.42.56.56,0,0,1,.44-.59,4,4,0,0,1,.59-.07,27.7,27.7,0,0,0,4.4-.64,1.33,1.33,0,0,1,.3,0,1,1,0,0,1,.63.24.8.8,0,0,1,.11,1.18c-.15.2-.62.72-1.39,1.58a61,61,0,0,1-4.32,4.41l0,0a7.85,7.85,0,0,1,4.42-1.48,5,5,0,0,1,2.75.74,3.11,3.11,0,0,1,1.58,2.73,3.79,3.79,0,0,1-1.91,3.4,6.89,6.89,0,0,1-3.7.93,3.66,3.66,0,0,1-1.86-.45,1.86,1.86,0,0,1-1.1-1.63,1.53,1.53,0,0,1,.56-1.17,2.9,2.9,0,0,1,2-.65,3.51,3.51,0,0,1,2.44,1,4.15,4.15,0,0,1,.82,1,2.76,2.76,0,0,0,1.35-2.39,2.06,2.06,0,0,0-.85-1.68,3.17,3.17,0,0,0-2.1-.68,9.34,9.34,0,0,0-5.76,2.3,1.19,1.19,0,0,1-.7.33.55.55,0,0,1-.44-.25.88.88,0,0,1-.2-.53.8.8,0,0,1,.22-.55l.56-.54A67.37,67.37,0,0,0,687.36,90Zm.61,11.1a2.38,2.38,0,0,0-2.07-1.38,1.49,1.49,0,0,0-1,.26.53.53,0,0,0-.23.42.68.68,0,0,0,.29.51,2.23,2.23,0,0,0,1.41.4A6.14,6.14,0,0,0,687.9,101.08Z"/><path class="cls-6" d="M704,100.35a1.21,1.21,0,0,1,.63.18,1.16,1.16,0,0,1,.61,1.06,1.2,1.2,0,0,1-.33.84,1.25,1.25,0,1,1-1.78-1.74A1.24,1.24,0,0,1,704,100.35Zm.59-2c0,.44-.23.67-.59.67s-.58-.23-.6-.67l-.39-9.5v-.07a.77.77,0,0,1,.16-.48,1,1,0,0,1,.83-.37,1,1,0,0,1,.78.33.73.73,0,0,1,.2.59Z"/><path class="cls-6" d="M526.76,155.66c-.44.54-1.17,1.29-2.17,2.27v9.71a.59.59,0,0,1-.14.41.67.67,0,0,1-.57.25.63.63,0,0,1-.63-.37.65.65,0,0,1-.06-.29v-8.42a33.7,33.7,0,0,1-5.81,4.05,1.33,1.33,0,0,1-.61.22.38.38,0,0,1-.33-.18.53.53,0,0,1-.11-.29.55.55,0,0,1,.21-.42l.84-.5a32.17,32.17,0,0,0,5.81-4.57v-.33c0-.43.23-.64.68-.64a.74.74,0,0,1,.23.05l.77-.85-7.28.41a.8.8,0,0,1-.27,0,.56.56,0,0,1-.44-.58.54.54,0,0,1,.6-.6l13-.72a.62.62,0,0,1,.68.61.55.55,0,0,1-.58.61Zm-.73,2.7a1.73,1.73,0,0,1,.73.31,42.75,42.75,0,0,1,4.42,3.12,1,1,0,0,1,.42.74.69.69,0,0,1-.21.51.72.72,0,0,1-.52.21.82.82,0,0,1-.58-.23,3.21,3.21,0,0,1-.34-.31,31.25,31.25,0,0,0-4.08-3.41.61.61,0,0,1-.32-.47.48.48,0,0,1,.1-.29A.45.45,0,0,1,526,158.36Z"/><path class="cls-6" d="M546.73,157.91c.38,0,.57.22.57.58a.53.53,0,0,1-.54.6l-3.9.28v2.48l4.21-.27h0a.58.58,0,0,1,.6.6.55.55,0,0,1-.25.49.61.61,0,0,1-.31.11l-4.28.24v2.84a27.32,27.32,0,0,0,6.26,1.22c.78,0,1.16.15,1.16.29s-.11.2-.33.37a2.78,2.78,0,0,1-1.54.7,13.24,13.24,0,0,1-2.29-.46,40.79,40.79,0,0,1-5-1.5,18.27,18.27,0,0,1-3.27-1.69,11.75,11.75,0,0,1-2.27,2.79,1.36,1.36,0,0,1-.73.42.48.48,0,0,1-.27-.13.54.54,0,0,1-.16-.36.62.62,0,0,1,.22-.42,12.68,12.68,0,0,0,3.19-5.39.71.71,0,0,1,.71-.57.65.65,0,0,1,.27.05.57.57,0,0,1,.36.58,8,8,0,0,1-.85,2.19,18.58,18.58,0,0,0,3.21,1.5v-6l-2.77.2a.58.58,0,0,1-.63.51c-.35,0-.55-.21-.61-.64l-.64-4.87a.28.28,0,0,1,0-.09.56.56,0,0,1,.25-.49.66.66,0,0,1,.42-.14.64.64,0,0,1,.58.32l7.78-.7h.28c.78,0,1.17.34,1.17,1a1.94,1.94,0,0,1,0,.4Zm-1.22.1.42-2.83a.58.58,0,0,0,0-.15q0-.3-.36-.3h-.11l-7.15.61.37,3.19Z"/><path class="cls-6" d="M557.79,153.55a.75.75,0,0,1,.38.1.64.64,0,0,1,.3.58,5.34,5.34,0,0,1-1,2,15.58,15.58,0,0,1-4.14,4.34,1.37,1.37,0,0,1-.67.28.42.42,0,0,1-.34-.17.48.48,0,0,1-.09-.26.63.63,0,0,1,.21-.45l.48-.41a17.26,17.26,0,0,0,3.25-3.81,13.37,13.37,0,0,0,.94-1.66A.78.78,0,0,1,557.79,153.55Zm1.86,7.3a9.11,9.11,0,0,1-4,6.44,3.54,3.54,0,0,1-1.45.7.4.4,0,0,1-.35-.18.44.44,0,0,1-.13-.29c0-.17.15-.36.43-.55a9.55,9.55,0,0,0,3.55-4.07,7.41,7.41,0,0,0,.57-2l-2.35.17h-.1c-.38,0-.58-.17-.58-.58a.54.54,0,0,1,.56-.62l7.11-.47h.25c.93,0,1.39.4,1.39,1.22a21.12,21.12,0,0,1-.33,3.21,12.84,12.84,0,0,1-1,3.53,1.45,1.45,0,0,1-1.36,1,5.38,5.38,0,0,1-1.92-.58,6,6,0,0,1-1-.53.62.62,0,0,1-.3-.48q0-.39.42-.39a2,2,0,0,1,.6.15,4.9,4.9,0,0,0,1.65.39c.34,0,.6-.22.79-.66a10.17,10.17,0,0,0,.55-1.75,15.42,15.42,0,0,0,.48-3.4c0-.35-.19-.51-.56-.48Zm1.29-7.83a.61.61,0,0,1,.43.21l.42.59a20.77,20.77,0,0,0,3.64,3.88,21.6,21.6,0,0,0,2.26,1.68q.51.31.51.51t-.3.3a2.57,2.57,0,0,1-1.07.29,1.52,1.52,0,0,1-.91-.44,29.34,29.34,0,0,1-5.11-5.67,1.79,1.79,0,0,1-.38-.79.57.57,0,0,1,.19-.42A.49.49,0,0,1,560.94,153Z"/><path class="cls-6" d="M577.89,162.74a6.86,6.86,0,0,0-1.36,1,2,2,0,0,0-.8,1.4q0,1,1.95,1a31.08,31.08,0,0,0,3.72-.19h.17a.56.56,0,0,1,.52.31.74.74,0,0,1,.12.42c0,.33-.22.53-.64.6a25.24,25.24,0,0,1-3.26.14,11.85,11.85,0,0,1-1.8-.1c-1.41-.27-2.12-1-2.12-2.14a2.67,2.67,0,0,1,.64-1.74,9.76,9.76,0,0,1,2.82-2c-.12-.83-.5-1.24-1.12-1.24a3.55,3.55,0,0,0-2,.6,1.19,1.19,0,0,1-.62.24.55.55,0,0,1-.42-.21.72.72,0,0,1-.17-.44.8.8,0,0,1,.21-.49,21.27,21.27,0,0,0,1.84-3.07,20.66,20.66,0,0,1-2.35.16c-.5,0-.75-.2-.75-.61a.57.57,0,0,1,.65-.63h.33q1.11,0,2.7-.15c.29-.6.6-1.29.91-2a.73.73,0,0,1,.69-.54.59.59,0,0,1,.29.07.56.56,0,0,1,.35.51,1.2,1.2,0,0,1-.13.46,3.35,3.35,0,0,0-.17.36c-.15.3-.32.65-.52,1a25,25,0,0,0,2.62-.45l.28,0a.52.52,0,0,1,.52.37.75.75,0,0,1,0,.26q0,.47-.57.6a27.2,27.2,0,0,1-3.52.54,28.59,28.59,0,0,1-1.55,2.7l0,.06a4,4,0,0,1,1.71-.4,1.94,1.94,0,0,1,1.95,1.72,18.89,18.89,0,0,1,3.89-1.66.56.56,0,0,1,.51.25.77.77,0,0,1,.11.39.5.5,0,0,1-.22.44,1.85,1.85,0,0,1-.39.18c-1.36.52-2.62,1.07-3.79,1.65v1.76c0,.48-.21.72-.64.72s-.62-.24-.62-.72Z"/><path class="cls-6" d="M600.75,162.19l-4.1.35V167a.56.56,0,0,1-.64.63.55.55,0,0,1-.62-.63v-4.3l-3.89.33a12.69,12.69,0,0,1-1.42,4.49c-.17.3-.35.45-.55.45s-.5-.16-.5-.47a2,2,0,0,1,.2-.62,16.11,16.11,0,0,0,1.09-4.58c.08-.85.12-1.93.12-3.25s0-2.22-.06-2.83-.06-1-.06-1.14c0-.57.22-.86.67-.86a.66.66,0,0,1,.61.35l8.88-.89.29,0c.85,0,1.27.47,1.27,1.41v12c0,.89-.33,1.34-1,1.34a5.35,5.35,0,0,1-2.2-.78c-.29-.16-.44-.32-.44-.5a.4.4,0,0,1,.46-.46,1.1,1.1,0,0,1,.39.1,3.68,3.68,0,0,0,1.15.28c.23,0,.34-.16.34-.48Zm-5.36-.66V159l-3.65.35c0,1.08-.06,1.92-.11,2.53Zm0-3.67v-2.57l-3.7.38q0,.63,0,1c0,.05,0,.58,0,1.58Zm5.36-.53v-2.14c0-.27-.13-.41-.38-.41h-.09l-3.63.38v2.57Zm0,3.74v-2.62l-4.1.4v2.57Z"/><path class="cls-6" d="M614.55,154.2l4.43-.3a.65.65,0,0,1,.29.06.48.48,0,0,1,.28.46.44.44,0,0,1-.45.49l-1.7.12a14.56,14.56,0,0,1-.57,1.56l4.2-.26a.61.61,0,0,1,.28,0,.47.47,0,0,1,.31.47.45.45,0,0,1-.46.52l-14.31.91h-.07a.53.53,0,0,1-.53-.52.46.46,0,0,1,.47-.53L611,157c-.06-.22-.2-.62-.41-1.18l-.1-.3-1.7.12h-.07a.46.46,0,0,1-.47-.25.55.55,0,0,1-.06-.26.45.45,0,0,1,.47-.5l4.61-.31V153c0-.43.22-.64.66-.64a.71.71,0,0,1,.49.19.58.58,0,0,1,.18.45Zm-5.94,10.44c.29,0,.44.2.44.61a6.08,6.08,0,0,1-.68,2.63q-.27.54-.69.54a.7.7,0,0,1-.37-.11.64.64,0,0,1-.33-.55,1.09,1.09,0,0,1,.25-.58,6.08,6.08,0,0,0,.88-2C608.19,164.81,608.36,164.64,608.61,164.64Zm8.72-1.41-6.53.34a.58.58,0,0,1-.62.48.59.59,0,0,1-.63-.61l-.47-4s0-.06,0-.1a.55.55,0,0,1,.24-.48.62.62,0,0,1,.41-.14.64.64,0,0,1,.52.25l7.62-.51H618c.69,0,1,.32,1,1a2,2,0,0,1,0,.31l-.46,3.33c-.06.41-.27.61-.64.61A.52.52,0,0,1,617.33,163.23Zm-6.89,1.29c.15,0,.35.16.58.47a5.84,5.84,0,0,0,2.44,1.8,8.65,8.65,0,0,0,3.3.56c.79,0,1.18-.11,1.18-.32a3,3,0,0,0-.66-1,.74.74,0,0,1-.21-.43.31.31,0,0,1,.34-.34c.24,0,.66.31,1.25.92s.89,1.11.89,1.43c0,.66-.68,1-2,1a9.94,9.94,0,0,1-5.56-1.32,6,6,0,0,1-1.75-1.83A1,1,0,0,1,610,165C610,164.66,610.16,164.52,610.44,164.52Zm7.18-4.18,0-.46a.25.25,0,0,0,0-.08c0-.27-.12-.39-.37-.37l-6.86.47.09.87Zm-.11.94-6.88.43.1.9,6.68-.36Zm-5.88-5.87a7.42,7.42,0,0,1,.53,1.48l3.43-.22a16.08,16.08,0,0,0,.46-1.56Zm2,8.53a.83.83,0,0,1,.47.24c.58.49,1,.73,1.19.73a.36.36,0,0,0,.26-.16.51.51,0,0,1,.36-.22c.2,0,.3.11.3.35a1.71,1.71,0,0,1-.27.83.72.72,0,0,1-.61.43,2.23,2.23,0,0,1-1.27-.7c-.56-.5-.84-.86-.84-1.1a.41.41,0,0,1,.12-.28A.42.42,0,0,1,613.6,163.94Zm5.34-.23a5.75,5.75,0,0,1,1.86,1,8.89,8.89,0,0,1,.77.58.86.86,0,0,1,.34.63.66.66,0,0,1-.16.43.62.62,0,0,1-.49.23,1.16,1.16,0,0,1-.82-.47,23,23,0,0,0-1.71-1.59.52.52,0,0,1-.21-.4A.37.37,0,0,1,618.94,163.71Z"/><path class="cls-6" d="M633.68,156.56q-3.42.7-6.9,1.21c-.88.13-1.37.19-1.47.19a.64.64,0,0,1-.72-.73.56.56,0,0,1,.4-.56,4.86,4.86,0,0,1,1-.14c1.08-.11,2.59-.31,4.53-.62s3.48-.58,4.9-.88a2.4,2.4,0,0,1,.48-.06.75.75,0,0,1,.71.37,1.08,1.08,0,0,1,.13.47c0,.24-.21.45-.63.62a7.42,7.42,0,0,0-2.9,2.23,5.92,5.92,0,0,0-1.47,3.73,3.45,3.45,0,0,0,1,2.51,4.69,4.69,0,0,0,2.11,1.22.73.73,0,0,1,.63.73c0,.43-.24.65-.71.65a3.76,3.76,0,0,1-1.85-.7,4.82,4.82,0,0,1-2.58-4.29,6.47,6.47,0,0,1,.68-2.8A9.08,9.08,0,0,1,633.68,156.56Zm3.41-3.06a.92.92,0,0,1,.5.19,5.87,5.87,0,0,1,1.65,1.65.91.91,0,0,1,.16.44.53.53,0,0,1-.19.41.6.6,0,0,1-.38.13c-.16,0-.32-.13-.49-.38a9.05,9.05,0,0,0-1.33-1.66.73.73,0,0,1-.25-.45A.29.29,0,0,1,637.09,153.5Zm1.55-1.09a2.88,2.88,0,0,1,1.43.88c.56.5.84.9.84,1.21a.51.51,0,0,1-.2.43.56.56,0,0,1-.34.12c-.16,0-.32-.11-.48-.34a11.36,11.36,0,0,0-1.33-1.57.64.64,0,0,1-.25-.41A.29.29,0,0,1,638.64,152.41Z"/><path class="cls-6" d="M648.93,155.84a15,15,0,0,1-.88-2.23.5.5,0,0,1,.28-.45.82.82,0,0,1,.42-.11c.31,0,.55.24.71.73s.42,1.11.75,1.83c1.22-.21,2.08-.38,2.58-.52a1.34,1.34,0,0,1,.36-.06.54.54,0,0,1,.6.62c0,.3-.21.49-.63.59-.59.13-1.39.29-2.41.48.41.86.77,1.56,1.08,2.09.94-.2,1.62-.36,2.06-.48a2.45,2.45,0,0,1,.53-.1c.39,0,.59.22.59.65,0,.26-.16.44-.47.53-.47.14-1.18.3-2.11.48a14.67,14.67,0,0,0,1.24,1.82,1.57,1.57,0,0,1,.39,1c0,.38-.24.56-.73.56a2.08,2.08,0,0,1-.42-.06c-.6-.14-1.27-.26-2-.36-.28,0-.43-.15-.43-.36s.18-.43.52-.43l1,.06.42,0c-.35-.49-.78-1.15-1.27-2a38.64,38.64,0,0,1-4.35.71c-.45,0-.67-.21-.67-.63a.49.49,0,0,1,.36-.48,2,2,0,0,1,.5-.11c1-.13,2.22-.33,3.54-.57-.43-.8-.78-1.51-1.06-2.11l-.27,0c-2.23.38-3.47.57-3.74.57q-.66,0-.66-.63c0-.34.24-.53.73-.59s1.41-.19,3.13-.46Zm2.87,10.66H652c.49,0,.74.23.74.67s-.33.66-1,.66a7.71,7.71,0,0,1-4.32-1.05,3.34,3.34,0,0,1-1.35-1.69,1.18,1.18,0,0,1-.08-.39.48.48,0,0,1,.54-.55c.23,0,.43.18.61.54C647.75,165.9,649.3,166.5,651.8,166.5Z"/><path class="cls-6" d="M664.3,156.2c.3-.76.57-1.53.81-2.32.14-.42.37-.63.71-.63a1,1,0,0,1,.25,0,.53.53,0,0,1,.36.55,13.05,13.05,0,0,1-.71,2.17c.61-.09,1.14-.19,1.57-.29a1.38,1.38,0,0,1,.31,0,.51.51,0,0,1,.57.59c0,.36-.21.57-.64.65-.72.14-1.49.27-2.31.38a39,39,0,0,1-2.52,5.16c-.13.19-.2.31-.22.34a.66.66,0,0,1-.94.19.54.54,0,0,1-.26-.46,1.74,1.74,0,0,1,.34-.75,28.57,28.57,0,0,0,2.16-4.28,20.56,20.56,0,0,1-2.11.2.56.56,0,0,1-.48-.23.6.6,0,0,1-.13-.4c0-.38.28-.59.85-.63S663.28,156.33,664.3,156.2Zm5.78,7.63a14,14,0,0,1,2.78,1.22.77.77,0,0,1,.48.64.62.62,0,0,1-.11.33.6.6,0,0,1-.51.31,1.16,1.16,0,0,1-.51-.2,11.87,11.87,0,0,0-2.13-1.08v.7c0,1.33-.63,2-1.89,2a3.37,3.37,0,0,1-2.21-.82,2.28,2.28,0,0,1-1-1.76,1.55,1.55,0,0,1,.76-1.36,2.61,2.61,0,0,1,1.49-.4,9.82,9.82,0,0,1,1.6.15v-2a3.22,3.22,0,0,1,.17-1.19.66.66,0,0,1,.65-.43.49.49,0,0,1,.55.56,1.24,1.24,0,0,1-.07.32,2.93,2.93,0,0,0-.09.83Zm-1.21.87a8.13,8.13,0,0,0-1.43-.16c-.76,0-1.14.22-1.14.65a1.1,1.1,0,0,0,.36.77,2,2,0,0,0,1.49.65c.48,0,.72-.29.72-.86Zm4-6a8.17,8.17,0,0,0-1.9-1.53.49.49,0,0,1-.26-.41c0-.3.16-.45.49-.45a3,3,0,0,1,1.06.46c1.48.84,2.21,1.56,2.21,2.15q0,.56-.87.57a9.12,9.12,0,0,0-1.31.16.62.62,0,0,1-.18,0c-.26,0-.4-.1-.4-.31A.38.38,0,0,1,672,159,5.3,5.3,0,0,1,672.89,158.73Z"/><path class="cls-6" d="M680.13,156c.44,0,.66.29.66.86a19.77,19.77,0,0,0,.51,4.6,8,8,0,0,0,1.36,3.13c.12.16.24.24.34.24s.21-.11.31-.34c.57-1.19,1-1.78,1.27-1.78a.65.65,0,0,1,.26.06.41.41,0,0,1,.22.39,1,1,0,0,1-.11.39c-.25.58-.55,1.34-.88,2.3-.19.53-.48.79-.89.79a2,2,0,0,1-1.38-.89,8.76,8.76,0,0,1-1.46-2.66,14.23,14.23,0,0,1-.72-3.25c-.14-1.36-.22-2.33-.22-2.9S679.65,156,680.13,156Zm9.21.11a.63.63,0,0,1,.46.25,20.86,20.86,0,0,1,2.13,3.1,6.28,6.28,0,0,1,1,2.23.67.67,0,0,1-.33.59.82.82,0,0,1-.44.14.65.65,0,0,1-.58-.33,4.44,4.44,0,0,1-.22-.48,19.52,19.52,0,0,0-2.4-4.42.85.85,0,0,1-.22-.52.43.43,0,0,1,.15-.34A.61.61,0,0,1,689.34,156.11Z"/><path class="cls-6" d="M700.3,156.2c.3-.76.57-1.53.81-2.32.14-.42.37-.63.71-.63a1,1,0,0,1,.25,0,.53.53,0,0,1,.36.55,13.05,13.05,0,0,1-.71,2.17c.61-.09,1.14-.19,1.57-.29a1.38,1.38,0,0,1,.31,0,.51.51,0,0,1,.57.59c0,.36-.21.57-.64.65-.72.14-1.49.27-2.31.38a39,39,0,0,1-2.52,5.16c-.13.19-.2.31-.22.34a.66.66,0,0,1-.94.19.54.54,0,0,1-.26-.46,1.74,1.74,0,0,1,.34-.75,28.57,28.57,0,0,0,2.16-4.28,20.56,20.56,0,0,1-2.11.2.56.56,0,0,1-.48-.23.6.6,0,0,1-.13-.4c0-.38.28-.59.85-.63S699.28,156.33,700.3,156.2Zm5.78,7.63a14,14,0,0,1,2.78,1.22.77.77,0,0,1,.48.64.62.62,0,0,1-.11.33.6.6,0,0,1-.51.31,1.16,1.16,0,0,1-.51-.2,11.87,11.87,0,0,0-2.13-1.08v.7c0,1.33-.63,2-1.89,2a3.37,3.37,0,0,1-2.21-.82,2.28,2.28,0,0,1-1-1.76,1.55,1.55,0,0,1,.76-1.36,2.61,2.61,0,0,1,1.49-.4,9.82,9.82,0,0,1,1.6.15v-2a3.22,3.22,0,0,1,.17-1.19.66.66,0,0,1,.65-.43.49.49,0,0,1,.55.56,1.24,1.24,0,0,1-.07.32,2.93,2.93,0,0,0-.09.83Zm-1.21.87a8.13,8.13,0,0,0-1.43-.16c-.76,0-1.14.22-1.14.65a1.1,1.1,0,0,0,.36.77,2,2,0,0,0,1.49.65c.48,0,.72-.29.72-.86Zm4-6a8.17,8.17,0,0,0-1.9-1.53.49.49,0,0,1-.26-.41c0-.3.16-.45.49-.45a3,3,0,0,1,1.06.46c1.48.84,2.21,1.56,2.21,2.15q0,.56-.87.57a9.12,9.12,0,0,0-1.31.16.62.62,0,0,1-.18,0c-.26,0-.4-.1-.4-.31A.38.38,0,0,1,708,159,5.3,5.3,0,0,1,708.89,158.73Z"/><path class="cls-6" d="M719.2,162.47a9,9,0,0,1,4.88-1.53,3.83,3.83,0,0,1,2.22.6,2.47,2.47,0,0,1,1.14,2.18,3.54,3.54,0,0,1-2.27,3.26,8.92,8.92,0,0,1-2.54.78,4.06,4.06,0,0,1-.59.07.46.46,0,0,1-.53-.51.41.41,0,0,1,.3-.39,5.62,5.62,0,0,1,.64-.15,5.93,5.93,0,0,0,2.49-1.11,2.42,2.42,0,0,0,1.06-1.94,1.47,1.47,0,0,0-.67-1.28,2.33,2.33,0,0,0-1.32-.36,8.47,8.47,0,0,0-4.68,1.63,1.34,1.34,0,0,1-.72.24.69.69,0,0,1-.55-.24.92.92,0,0,1-.2-.63,29.25,29.25,0,0,1,.53-3.56c.21-1.12.34-1.83.41-2.11a.67.67,0,0,1,.73-.53.54.54,0,0,1,.39.15.61.61,0,0,1,.2.49,2.09,2.09,0,0,1-.11.51,24.66,24.66,0,0,0-.77,4.18Zm3-7a6.6,6.6,0,0,0-1.8-1.53.46.46,0,0,1-.28-.39c0-.25.16-.38.47-.38a2.68,2.68,0,0,1,1,.37,5.92,5.92,0,0,1,1.69,1.18,1.56,1.56,0,0,1,.52,1q0,.52-.87.54a9.12,9.12,0,0,0-1.31.16l-.17,0c-.27,0-.41-.11-.41-.32a.39.39,0,0,1,.26-.37A6.88,6.88,0,0,1,722.23,155.43Z"/><path class="cls-6" d="M520,178.66v10.75c0,.4-.21.6-.64.6s-.65-.2-.65-.6v-8.79c-1.14,1.6-1.9,2.4-2.29,2.4a.47.47,0,0,1-.34-.16.49.49,0,0,1-.14-.32.66.66,0,0,1,.17-.4l.38-.43a15.58,15.58,0,0,0,1.53-2.15,29,29,0,0,0,2.1-4.21c.18-.43.42-.65.73-.65a.68.68,0,0,1,.33.09.64.64,0,0,1,.36.58,4.38,4.38,0,0,1-.53,1.43A19.71,19.71,0,0,1,520,178.66Zm6.88,3.11,4.36-.29a.83.83,0,0,1,.49.1.58.58,0,0,1,.25.51c0,.37-.22.56-.65.59l-4.45.28v4.92l3.53-.15h0a.57.57,0,0,1,.48.14.54.54,0,0,1,.19.45.58.58,0,0,1-.62.66l-8.07.32h-.1a.52.52,0,0,1-.59-.58.56.56,0,0,1,.61-.62l3.21-.15V183l-4.25.27h-.09q-.63,0-.63-.57t.63-.6l4.34-.29v-4.08a17.07,17.07,0,0,1-3.35.84.43.43,0,0,1-.49-.49.42.42,0,0,1,.25-.4,4.63,4.63,0,0,1,.61-.19,27.81,27.81,0,0,0,5.79-2.35,1,1,0,0,1,.52-.16.72.72,0,0,1,.57.28.69.69,0,0,1,.17.46.79.79,0,0,1-.54.72c-.41.18-1.14.46-2.2.84Z"/><path class="cls-6" d="M542.55,175.8l4.43-.3a.65.65,0,0,1,.29.06.48.48,0,0,1,.28.46.44.44,0,0,1-.45.49l-1.7.12a14.56,14.56,0,0,1-.57,1.56l4.2-.26a.61.61,0,0,1,.28,0,.47.47,0,0,1,.31.47.45.45,0,0,1-.46.52l-14.31.91h-.07a.53.53,0,0,1-.53-.52.46.46,0,0,1,.47-.53l4.23-.26c-.06-.22-.2-.62-.41-1.18l-.1-.3-1.7.12h-.07a.46.46,0,0,1-.47-.25.55.55,0,0,1-.06-.26.45.45,0,0,1,.47-.5l4.61-.31v-1.3c0-.43.22-.64.66-.64a.71.71,0,0,1,.49.19.58.58,0,0,1,.18.45Zm-5.94,10.44c.29,0,.44.2.44.61a6.08,6.08,0,0,1-.68,2.63q-.27.54-.69.54a.7.7,0,0,1-.37-.11.64.64,0,0,1-.33-.55,1.09,1.09,0,0,1,.25-.58,6.08,6.08,0,0,0,.88-2C536.19,186.41,536.36,186.24,536.61,186.24Zm8.72-1.41-6.53.34a.58.58,0,0,1-.62.48.59.59,0,0,1-.63-.61l-.47-4s0-.07,0-.1a.55.55,0,0,1,.24-.48.62.62,0,0,1,.41-.14.64.64,0,0,1,.52.25l7.62-.51H546c.69,0,1,.32,1,1a2,2,0,0,1,0,.31l-.46,3.33c-.06.41-.27.61-.64.61A.52.52,0,0,1,545.33,184.83Zm-6.89,1.29c.15,0,.35.16.58.47a5.84,5.84,0,0,0,2.44,1.8,8.65,8.65,0,0,0,3.3.56c.79,0,1.18-.11,1.18-.32a2.86,2.86,0,0,0-.66-1,.76.76,0,0,1-.21-.43.31.31,0,0,1,.34-.34c.24,0,.66.31,1.25.92s.89,1.11.89,1.43c0,.66-.68,1-2,1a9.94,9.94,0,0,1-5.56-1.32,6,6,0,0,1-1.75-1.83,1,1,0,0,1-.19-.45C538,186.26,538.16,186.12,538.44,186.12Zm7.18-4.18,0-.46a.25.25,0,0,0,0-.08c0-.27-.12-.39-.37-.37l-6.86.47.09.87Zm-.11.94-6.88.43.1.9,6.68-.36ZM539.63,177a7.42,7.42,0,0,1,.53,1.48l3.43-.22a16.08,16.08,0,0,0,.46-1.56Zm2,8.53a.87.87,0,0,1,.47.23c.58.5,1,.74,1.19.74a.36.36,0,0,0,.26-.16.51.51,0,0,1,.36-.22c.2,0,.3.11.3.35a1.71,1.71,0,0,1-.27.83.71.71,0,0,1-.61.42A2.2,2.2,0,0,1,542,187c-.56-.5-.84-.86-.84-1.1a.41.41,0,0,1,.12-.28A.42.42,0,0,1,541.6,185.54Zm5.34-.23a5.75,5.75,0,0,1,1.86,1,8.89,8.89,0,0,1,.77.58.84.84,0,0,1,.34.63.66.66,0,0,1-.16.43.62.62,0,0,1-.49.23,1.16,1.16,0,0,1-.82-.47,23,23,0,0,0-1.71-1.59.52.52,0,0,1-.21-.4A.37.37,0,0,1,546.94,185.31Z"/><path class="cls-6" d="M554.41,182.94c-.06,1.58-.39,2.37-1,2.37a.79.79,0,0,1-.35-.09.52.52,0,0,1-.32-.53,1.16,1.16,0,0,1,.11-.44,7.8,7.8,0,0,0,.56-2.47c0-.35.18-.52.47-.52h0c.28,0,.44.19.49.57l12-.77h.11c.56,0,.84.19.84.59a3.6,3.6,0,0,1-1,1.85q-.63.75-.93.75c-.31,0-.46-.13-.46-.39a.78.78,0,0,1,.13-.37,6.17,6.17,0,0,0,.43-.91.56.56,0,0,0,.06-.22c0-.07-.06-.1-.2-.1h-.18Zm3.56.77c.48,0,.72.22.72.67a5.07,5.07,0,0,1-.31,1.22,6.56,6.56,0,0,1-3.85,4.09,3.15,3.15,0,0,1-1,.29.36.36,0,0,1-.32-.17.48.48,0,0,1-.12-.29.38.38,0,0,1,.18-.33,4.21,4.21,0,0,1,.61-.33,5.85,5.85,0,0,0,2.25-1.94,7.24,7.24,0,0,0,1.16-2.67A.62.62,0,0,1,558,183.71Zm2.78-6.28v1.45l3.83-.23h0a.52.52,0,0,1,.3.07.54.54,0,0,1-.21,1l-9,.56h-.1c-.37,0-.55-.18-.55-.53a.49.49,0,0,1,.52-.55l3.82-.24v-1.46l-4.65.29h-.09a.48.48,0,0,1-.46-.23.52.52,0,0,1-.1-.33.5.5,0,0,1,.53-.56l4.77-.3v-1.61a.58.58,0,0,1,.23-.49.71.71,0,0,1,.45-.14.75.75,0,0,1,.5.18.61.61,0,0,1,.18.45v1.52l4.76-.3q.63,0,.63.57a.48.48,0,0,1-.51.55Zm1.12,6.26-.06,4.18c0,.31.09.51.29.6a5.24,5.24,0,0,0,1.44.1,20.15,20.15,0,0,0,2.43-.1.69.69,0,0,0,.65-.59,6.11,6.11,0,0,0,.09-1.22c0-.42.15-.63.44-.63s.47.18.54.54a10.17,10.17,0,0,1,.22,1.89,1.06,1.06,0,0,1-.82,1.1,15.25,15.25,0,0,1-3.5.24c-1.05,0-1.73,0-2-.06a1.17,1.17,0,0,1-1-.59,1.76,1.76,0,0,1-.15-.79v-.08l.08-4.59a.6.6,0,0,1,.67-.67A.61.61,0,0,1,561.87,183.69Z"/><path class="cls-6" d="M574.67,181.86a33.22,33.22,0,0,1-2,4.35,31.13,31.13,0,0,0,3.91-.88c-.17-.31-.44-.74-.81-1.3a.46.46,0,0,1-.1-.28.31.31,0,0,1,.12-.23.44.44,0,0,1,.33-.15.84.84,0,0,1,.58.32,12.25,12.25,0,0,1,1.91,2.61,1.15,1.15,0,0,1,.15.5.66.66,0,0,1-.21.48.71.71,0,0,1-.47.19.64.64,0,0,1-.53-.27s-.09-.17-.2-.39-.19-.4-.32-.64a41.69,41.69,0,0,1-4.36,1.35,5.23,5.23,0,0,1-.86.16.66.66,0,0,1-.54-.37.8.8,0,0,1-.18-.42,1.33,1.33,0,0,1,.2-.52,28.82,28.82,0,0,0,2-4.34l-2.82.33h-.11a.48.48,0,0,1-.54-.54q0-.52.6-.6l3.47-.41v-2.33l-2.63.28h-.11a.5.5,0,0,1-.56-.57c0-.36.21-.56.62-.6l2.68-.3V175a.63.63,0,0,1,1.26,0v2.12l2.3-.24h.11a.51.51,0,0,1,.58.58c0,.36-.21.57-.62.61l-2.37.26v2.31l3.38-.4h.11c.38,0,.58.18.58.55a.58.58,0,0,1-.6.62Zm5-4.29c-.4,0-.6-.2-.6-.62a.57.57,0,0,1,.58-.62l4.4-.5.36,0a.89.89,0,0,1,.92.53,4.79,4.79,0,0,1,.14,1.46,42.77,42.77,0,0,1-.32,6.61c-.14.74-.51,1.11-1.09,1.11a4.16,4.16,0,0,1-1.43-.4c-.66-.28-1-.55-1-.79a.42.42,0,0,1,.13-.31.44.44,0,0,1,.32-.13,1,1,0,0,1,.34.07,3.24,3.24,0,0,0,1,.21c.24,0,.39-.14.44-.42,0-.1,0-.4.1-.9.15-1.52.22-3.14.22-4.88a1.4,1.4,0,0,0-.15-.8.49.49,0,0,0-.3-.1h-.07l-2.72.36v12.25a.66.66,0,0,1-1.24.26.67.67,0,0,1-.05-.26Z"/><path class="cls-6" d="M591.15,186.17c.38-.88.66-1.49.85-1.83.1-.19.22-.29.36-.29a.46.46,0,0,1,.2,0,.39.39,0,0,1,.21.33,1,1,0,0,1-.1.34,14,14,0,0,0-.84,2.85,1.24,1.24,0,0,1-.26.64.57.57,0,0,1-.44.24c-.34,0-.61-.24-.83-.72a10,10,0,0,1-.57-3.85q0-2.18.48-6.54a5.69,5.69,0,0,1,.13-.84.68.68,0,0,1,1.16-.2.67.67,0,0,1,.14.45,4.3,4.3,0,0,1-.07.58c-.18,1.13-.34,2.65-.5,4.56-.06.79-.08,1.44-.08,1.95A20,20,0,0,0,591.15,186.17Zm4.61-1.55a.57.57,0,0,1,.46.28c.67.86,2.19,1.29,4.57,1.29a6.32,6.32,0,0,0,.65,0h.2a.72.72,0,0,1,.6.27.59.59,0,0,1,.14.41.74.74,0,0,1-.3.61,1.51,1.51,0,0,1-.81.15,13.85,13.85,0,0,1-3.4-.4,4.08,4.08,0,0,1-2.24-1.28,1.32,1.32,0,0,1-.38-.78.49.49,0,0,1,.13-.35A.53.53,0,0,1,595.76,184.62Zm4.91-5.87a15.82,15.82,0,0,0-4.28.8,1.57,1.57,0,0,1-.39.08.52.52,0,0,1-.54-.34.57.57,0,0,1-.05-.24c0-.2.17-.38.52-.53a15.57,15.57,0,0,1,3.1-.91,8.39,8.39,0,0,1,1.54-.16c.88,0,1.31.24,1.31.7s-.25.61-.77.61Z"/><path class="cls-6" d="M610.3,177.8c.3-.76.57-1.53.81-2.32.14-.42.37-.63.71-.63a.69.69,0,0,1,.25,0,.53.53,0,0,1,.36.55,13.05,13.05,0,0,1-.71,2.17c.61-.09,1.14-.19,1.57-.29a1.38,1.38,0,0,1,.31,0,.51.51,0,0,1,.57.59c0,.36-.21.57-.64.65-.72.14-1.49.26-2.31.38a39,39,0,0,1-2.52,5.16c-.13.19-.2.31-.22.34a.66.66,0,0,1-.94.19.54.54,0,0,1-.26-.46,1.69,1.69,0,0,1,.34-.75,28.57,28.57,0,0,0,2.16-4.28,20.56,20.56,0,0,1-2.11.2.56.56,0,0,1-.48-.23.6.6,0,0,1-.13-.4c0-.38.28-.59.85-.63S609.28,177.93,610.3,177.8Zm5.78,7.63a14.54,14.54,0,0,1,2.78,1.21.8.8,0,0,1,.48.65.62.62,0,0,1-.11.33.6.6,0,0,1-.51.31,1.16,1.16,0,0,1-.51-.2,12.67,12.67,0,0,0-2.13-1.09v.71c0,1.33-.63,2-1.89,2a3.37,3.37,0,0,1-2.21-.82,2.28,2.28,0,0,1-1-1.76,1.55,1.55,0,0,1,.76-1.36,2.61,2.61,0,0,1,1.49-.4,9.82,9.82,0,0,1,1.6.15v-2a3.22,3.22,0,0,1,.17-1.19.66.66,0,0,1,.65-.43.49.49,0,0,1,.55.56,1.24,1.24,0,0,1-.07.32,2.93,2.93,0,0,0-.09.83Zm-1.21.87a8.13,8.13,0,0,0-1.43-.16c-.76,0-1.14.21-1.14.65a1.1,1.1,0,0,0,.36.77,2,2,0,0,0,1.49.65c.48,0,.72-.29.72-.86Zm4-6a8.17,8.17,0,0,0-1.9-1.53.49.49,0,0,1-.26-.41c0-.3.16-.45.49-.45a3,3,0,0,1,1.06.46c1.48.84,2.21,1.56,2.21,2.15q0,.55-.87.57a9.12,9.12,0,0,0-1.31.16.62.62,0,0,1-.18,0c-.26,0-.4-.1-.4-.32a.37.37,0,0,1,.26-.36A5.3,5.3,0,0,1,618.89,180.33Z"/><path class="cls-6" d="M633.29,176.79a29.59,29.59,0,0,1-4.22.7.69.69,0,0,1-.55-.23.6.6,0,0,1-.15-.42.57.57,0,0,1,.43-.59,3.19,3.19,0,0,1,.6-.07,27.7,27.7,0,0,0,4.4-.64,1.33,1.33,0,0,1,.3,0,1,1,0,0,1,.63.24.82.82,0,0,1,.32.64.84.84,0,0,1-.21.54c-.16.2-.62.72-1.39,1.58a61,61,0,0,1-4.32,4.41l0,0a7.84,7.84,0,0,1,4.41-1.48,5,5,0,0,1,2.76.74,3.1,3.1,0,0,1,1.58,2.73,3.79,3.79,0,0,1-1.91,3.4,6.89,6.89,0,0,1-3.7.93,3.66,3.66,0,0,1-1.86-.45,1.85,1.85,0,0,1-1.1-1.63,1.53,1.53,0,0,1,.56-1.17,2.9,2.9,0,0,1,2-.65,3.51,3.51,0,0,1,2.44,1,4,4,0,0,1,.82,1,2.76,2.76,0,0,0,1.35-2.4,2.05,2.05,0,0,0-.85-1.67,3.12,3.12,0,0,0-2.1-.68,9.34,9.34,0,0,0-5.76,2.3,1.19,1.19,0,0,1-.7.33.58.58,0,0,1-.44-.25.9.9,0,0,1-.2-.54.76.76,0,0,1,.22-.54l.56-.54a67.37,67.37,0,0,0,6.14-6.55Zm.61,11.11a2.39,2.39,0,0,0-2.07-1.39,1.49,1.49,0,0,0-1,.27.53.53,0,0,0-.23.42.68.68,0,0,0,.29.51,2.23,2.23,0,0,0,1.41.39A6.17,6.17,0,0,0,633.9,187.9Z"/><path class="cls-6" d="M644.44,185.34a2.32,2.32,0,0,1,2.29,2.31,2.33,2.33,0,0,1-2.31,2.3,2.32,2.32,0,0,1-2.29-2.31,2.17,2.17,0,0,1,1-1.87A2.26,2.26,0,0,1,644.44,185.34Zm0,.9a1.42,1.42,0,0,0-.72.21,1.31,1.31,0,0,0-.67,1.21,1.34,1.34,0,0,0,.35.92,1.37,1.37,0,0,0,1.06.47,1.28,1.28,0,0,0,.63-.16,1.3,1.3,0,0,0,.77-1.24,1.32,1.32,0,0,0-.45-1A1.38,1.38,0,0,0,644.42,186.24Z"/><rect class="cls-6" x="487.07" y="94.52" width="12.23" height="1"/><polygon class="cls-6" points="501.84 95.02 498.87 93.31 498.87 96.74 501.84 95.02"/><rect class="cls-6" x="487.07" y="164.12" width="12.23" height="1"/><polygon class="cls-6" points="501.84 164.62 498.87 162.91 498.87 166.33 501.84 164.62"/></g></g></svg>