<svg xmlns="http://www.w3.org/2000/svg" viewBox="0 0 261.22 78.46"><defs><style>.cls-1{fill:#c8a87a;opacity:0.5;}.cls-2{fill:#fff;}.cls-3,.cls-4,.cls-5{fill:none;stroke:#d2bd9b;stroke-miterlimit:10;}.cls-4{stroke-dasharray:2.03 2.03;}.cls-5{stroke-dasharray:2 2;}.cls-6{fill:#cbb48d;}</style></defs><title>Asset 1</title><g id="Layer_2" data-name="Layer 2"><g id="Layer_2-2" data-name="Layer 2"><path class="cls-1" d="M259,70.35H1.5V1.5H259.09a2.13,2.13,0,0,1,2,2.91L248.66,36.23a2.11,2.11,0,0,0,0,1.6L261,67.4A2.13,2.13,0,0,1,259,70.35Z"/><path class="cls-2" d="M258,69.35H.5V.5H258.09a2.13,2.13,0,0,1,2,2.91L247.66,35.23a2.11,2.11,0,0,0,0,1.6L260,66.4A2.13,2.13,0,0,1,258,69.35Z"/><polyline class="cls-3" points="1.5 69.35 0.5 69.35 0.5 68.35"/><line class="cls-4" x1="0.5" y1="66.33" x2="0.5" y2="2.51"/><polyline class="cls-3" points="0.5 1.5 0.5 0.5 1.5 0.5"/><path class="cls-5" d="M3.5.5H258.09a2.13,2.13,0,0,1,2,2.91L247.66,35.23a2.16,2.16,0,0,0,0,1.6L260,66.4a2.13,2.13,0,0,1-2,2.95H2.5"/><polygon class="cls-6" points="10.33 78.46 10.33 69.35 0.5 69.35 10.33 78.46"/></g></g></svg>