<svg xmlns="http://www.w3.org/2000/svg" viewBox="0 0 315.85 281.21"><defs><style>.cls-1{opacity:0.8;}.cls-2{fill:#c5a06b;}.cls-3{fill:#e0647f;}.cls-4{fill:#fff;}.cls-5{fill:#f1f1f1;}.cls-6{fill:#8c6c47;}</style></defs><title>Asset 4</title><g id="Layer_2" data-name="Layer 2"><g id="Layer_4" data-name="Layer 4"><g class="cls-1"><rect class="cls-2" width="220.57" height="49.13"/></g><rect class="cls-2" y="65.73" width="284.12" height="49.12"/><rect class="cls-3" y="132.45" width="164.83" height="49.12"/><path class="cls-3" d="M221.61,132.45h-1.78v.88h.89v1h.89v-1.87Zm-3.56,0h-1.78v.88h1.78v-.88Zm-3.56,0h-1.78v.88h1.78v-.88Zm-3.56,0h-1.78v.88h1.78v-.88Zm-3.55,0H205.6v.88h1.78v-.88Zm-3.56,0H202v.88h1.78v-.88Zm-3.56,0h-1.78v.88h1.78v-.88Zm-3.56,0h-1.78v.88h1.78v-.88Zm-3.56,0h-1.78v.88h1.78v-.88Zm-3.56,0h-1.77v.88h1.77v-.88Zm-3.55,0h-1.78v.88H186v-.88Zm-3.56,0h-1.78v.88h1.78v-.88Zm-3.56,0h-1.78v.88h1.78v-.88Zm-3.56,0h-1.78v.88h1.78v-.88Zm-3.56,0H170v.88h1.78v-.88Zm-3.55,0h-1.78v.88h1.78v-.88Zm-2.52.15h-.89v1.78h.89V132.6Zm0,3.56h-.89v1.77h.89v-1.77Zm0,3.55h-.89v1.78h.89v-1.78Zm0,3.56h-.89v1.78h.89v-1.78Zm0,3.56h-.89v1.78h.89v-1.78Zm0,3.56h-.89v1.78h.89v-1.78Zm0,3.56h-.89v1.78h.89V154Zm0,3.55h-.89v1.78h.89V157.5Zm0,3.56h-.89v1.78h.89v-1.78Zm0,3.56h-.89v1.78h.89v-1.78Zm0,3.56h-.89V170h.89v-1.78Zm0,3.56h-.89v1.78h.89v-1.78Zm0,3.56h-.89v1.77h.89V175.3Zm0,3.55h-.89v1.78h.89v-1.78Zm1.73,1.83h-1.78v.89h1.78v-.89Zm3.56,0h-1.78v.89H171v-.89Zm3.56,0h-1.78v.89h1.78v-.89Zm3.56,0h-1.78v.89h1.78v-.89Zm3.55,0h-1.77v.89h1.77v-.89Zm3.56,0h-1.78v.89h1.78v-.89Zm3.56,0H187v.89h1.78v-.89Zm3.56,0h-1.78v.89h1.78v-.89Zm3.56,0h-1.78v.89h1.78v-.89Zm3.55,0H197.7v.89h1.77v-.89Zm3.56,0h-1.78v.89H203v-.89Zm3.56,0h-1.78v.89h1.78v-.89Zm3.56,0h-1.78v.89h1.78v-.89Zm3.56,0h-1.78v.89h1.78v-.89Zm3.56,0h-1.78v.89h1.78v-.89Zm3.55,0H219v.89h1.78v-.89Zm.79-1.88h-.89v1.78h.89V178.8Zm0-3.56h-.89V177h.89v-1.78Zm0-3.56h-.89v1.78h.89v-1.78Zm0-3.56h-.89v1.78h.89v-1.78Zm0-3.56h-.89v1.78h.89v-1.78Zm0-3.55h-.89v1.77h.89V161Zm0-3.56h-.89v1.78h.89v-1.78Zm0-3.56h-.89v1.78h.89v-1.78Zm0-3.56h-.89v1.78h.89v-1.78Zm0-3.56h-.89v1.78h.89v-1.78Zm0-3.56h-.89V145h.89v-1.78Zm0-3.55h-.89v1.78h.89v-1.78Zm0-3.56h-.89v1.78h.89V136.1Z"/><path class="cls-4" d="M23.18,24.08v9.47c0,.34-.19.5-.56.5s-.56-.16-.56-.5V26c-.9,1.33-1.51,2-1.84,2A.37.37,0,0,1,20,27.9a.46.46,0,0,1-.14-.31c0-.12.15-.35.45-.71a20.27,20.27,0,0,0,2.86-5.66c.14-.38.35-.57.61-.57a.63.63,0,0,1,.27.06.48.48,0,0,1,.3.48,2.36,2.36,0,0,1-.15.64A18.18,18.18,0,0,1,23.18,24.08Zm6.29.79v2.86l2.68-.17h.09c.35,0,.52.17.52.5a.5.5,0,0,1-.54.55l-2.75.17v3.55l4.12-.2h0a.5.5,0,0,1,.5.22.57.57,0,0,1,.09.32.52.52,0,0,1-.57.57l-9.07.41h0c-.38,0-.56-.18-.56-.53s.18-.52.56-.54l3.79-.19V28.84L25.57,29c-.4,0-.6-.14-.6-.49s.18-.52.54-.54l2.81-.18V25l-3.25.25H25c-.36,0-.55-.17-.55-.51a.53.53,0,0,1,.55-.58l7.61-.59h.09c.38,0,.57.18.57.52a.52.52,0,0,1-.54.59ZM27.2,20.39a4.7,4.7,0,0,1,1.73.94,6.15,6.15,0,0,1,.82.65.67.67,0,0,1,.22.47.54.54,0,0,1-.18.41.69.69,0,0,1-.5.23.85.85,0,0,1-.55-.33A11.12,11.12,0,0,0,27,21.25a.5.5,0,0,1-.26-.39.4.4,0,0,1,.12-.29A.45.45,0,0,1,27.2,20.39Z"/><path class="cls-4" d="M43.58,22.58l5.09-.33h.11c.53,0,.8.19.8.58a3.69,3.69,0,0,1-.79,1.57c-.46.65-.83,1-1.1,1a.4.4,0,0,1-.22-.08.37.37,0,0,1-.15-.32.86.86,0,0,1,.17-.41A2.56,2.56,0,0,0,48,23.41c0-.12-.09-.17-.28-.15l-9.57.63c0,1.5-.31,2.24-.83,2.24a.8.8,0,0,1-.4-.11.47.47,0,0,1-.22-.43,1.81,1.81,0,0,1,.13-.54,7.18,7.18,0,0,0,.41-2c0-.36.16-.55.44-.55s.38.16.42.46l4.28-.28V20.79c0-.35.19-.52.59-.52a.59.59,0,0,1,.48.2.5.5,0,0,1,.11.32Zm-.65,3.8,0,2.07,5.21-.67h.09a.62.62,0,0,1,.4.13.56.56,0,0,1,.17.4c0,.32-.18.5-.53.55l-5.35.65,0,2.29c0,.43.11.71.35.82a4.82,4.82,0,0,0,1.58.15,10.29,10.29,0,0,0,3.35-.32.48.48,0,0,0,.29-.34,4.58,4.58,0,0,0,0-.7v-.8c0-.33.13-.49.41-.49s.35.13.41.4a9.55,9.55,0,0,1,.27,2,1,1,0,0,1-.68,1,14.84,14.84,0,0,1-4,.33,13.19,13.19,0,0,1-2-.09,1.32,1.32,0,0,1-1.2-1.45l0-2.7-4.32.53h-.1a.46.46,0,0,1-.52-.53c0-.29.16-.46.5-.5l4.45-.57,0-1.92a16.88,16.88,0,0,1-2.58.45.4.4,0,0,1-.45-.45.34.34,0,0,1,.21-.33,3.8,3.8,0,0,1,.58-.13,24.72,24.72,0,0,0,5.16-1.58,1.38,1.38,0,0,1,.48-.12.51.51,0,0,1,.42.23.57.57,0,0,1,.11.33.66.66,0,0,1-.5.62C44.68,25.87,43.94,26.11,42.93,26.38Z"/><path class="cls-4" d="M54.75,23.61l.54,0Q62.46,23,63,23a1.2,1.2,0,0,1,.83.29,1,1,0,0,1,.3.78c0,.48-.27,2.28-.83,5.4l-.07.38a.58.58,0,0,1,.53.63.53.53,0,0,1-.39.54,5.2,5.2,0,0,1-.71,0c-1.93,0-4.2.08-6.83.25a.55.55,0,0,1-.62.59.51.51,0,0,1-.52-.35,4.32,4.32,0,0,1-.11-.75c-.23-2.15-.51-4.35-.86-6.62a1.85,1.85,0,0,1,0-.26A.54.54,0,0,1,54,23.4a.79.79,0,0,1,.29-.06A.46.46,0,0,1,54.75,23.61ZM62,29.91c.32-1.79.55-3.34.71-4.64.05-.48.08-.76.08-.82s-.11-.27-.34-.27c-.64,0-2.19.09-4.67.28q-1.44.11-2.82.24c.23,2.08.46,3.94.69,5.55q2-.15,5.9-.32Z"/><path class="cls-4" d="M79.79,26c.55,0,.82.2.82.6a.52.52,0,0,1-.34.56,5.73,5.73,0,0,1-.92.07c-2.38.07-5.56.22-9.56.46H69.7a.69.69,0,0,1-.43-.14.57.57,0,0,1-.2-.46.55.55,0,0,1,.53-.59c.08,0,.34,0,.79-.06,2-.11,3.48-.19,4.54-.23l3.43-.14C79.07,26,79.55,26,79.79,26Z"/><path class="cls-4" d="M86.76,22.5a4.42,4.42,0,0,1,1.16.4,9,9,0,0,1,2.25,1.32.78.78,0,0,1,.31.6.69.69,0,0,1-.13.41.56.56,0,0,1-.45.23,1.15,1.15,0,0,1-.69-.34,18.39,18.39,0,0,0-2.59-1.77c-.23-.13-.34-.26-.34-.4Q86.28,22.5,86.76,22.5Zm10,2.54a.43.43,0,0,1,.29.1.47.47,0,0,1,.17.35,2.74,2.74,0,0,1-.73,1.24,17.71,17.71,0,0,1-4.6,3.94,19.49,19.49,0,0,1-4.28,1.93,2.28,2.28,0,0,1-.62.14.6.6,0,0,1-.58-.35.64.64,0,0,1-.1-.35.58.58,0,0,1,.33-.53c.06,0,.39-.14,1-.31a17.18,17.18,0,0,0,4.85-2.35,16.1,16.1,0,0,0,3.7-3.44A.76.76,0,0,1,96.79,25Z"/><path class="cls-4" d="M103.41,28.83a.46.46,0,0,1-.26.08.77.77,0,0,1-.56-.36,10.55,10.55,0,0,0-1-1.15,8.92,8.92,0,0,1-.86,1.17.58.58,0,0,1-.43.23.4.4,0,0,1-.23-.09.34.34,0,0,1-.13-.28,1.93,1.93,0,0,1,.37-.73,16,16,0,0,0,2.2-5.23l-1.74.16h-.06a.46.46,0,0,1-.51-.51.45.45,0,0,1,.46-.51l5.2-.5h.07a.47.47,0,0,1,.46.29.57.57,0,0,1,0,.22.45.45,0,0,1-.46.51l-2.33.23c-.09.43-.28,1.08-.55,1.95l1.49-.18h.29a.71.71,0,0,1,.81.79,7.46,7.46,0,0,1-.28,1.63,13.87,13.87,0,0,1-1.54,3.69A12.78,12.78,0,0,1,101,33.71a.69.69,0,0,1-.44.2.4.4,0,0,1-.31-.15.36.36,0,0,1-.1-.24c0-.13.14-.34.4-.63A16.52,16.52,0,0,0,103.41,28.83Zm.21-.46a10.29,10.29,0,0,0,.67-1.87,5.28,5.28,0,0,0,.22-1.08.27.27,0,0,0-.3-.3h-.06l-1.46.2a13.8,13.8,0,0,1-.72,1.44,7.48,7.48,0,0,1,1.42,1.16A.75.75,0,0,1,103.62,28.37Zm6.07-2.44c.08.5.18.95.28,1.34l3.39-.48h.11a.4.4,0,0,1,.44.27.63.63,0,0,1,0,.21c0,.26-.16.42-.47.46l-3.26.45a12.81,12.81,0,0,0,.69,1.65A9.32,9.32,0,0,0,112,28.68a.7.7,0,0,1,.54-.31.5.5,0,0,1,.37.16.51.51,0,0,1,.17.36,1.32,1.32,0,0,1-.44.72c-.36.38-.76.76-1.21,1.15a13,13,0,0,0,1.31,1.61c.2.21.34.31.41.31s.21-.52.21-1.57q0-.51.36-.51t.45.42a9.21,9.21,0,0,1,.16,1.89c0,.83-.25,1.24-.74,1.24a1.71,1.71,0,0,1-1-.46,10.14,10.14,0,0,1-2-2.24,14.24,14.24,0,0,1-3.39,1.79,5.22,5.22,0,0,1-1.15.36q-.42,0-.42-.45a.41.41,0,0,1,.21-.35l.63-.26a15.55,15.55,0,0,0,3.58-2,13.9,13.9,0,0,1-.89-2.22l-2.85.39h-.11a.43.43,0,0,1-.49-.48c0-.25.15-.4.46-.44l2.76-.39c-.17-.68-.27-1.13-.3-1.34l-2.08.29h-.11c-.33,0-.49-.16-.49-.47s.15-.41.46-.45l2.09-.3L108.33,24l-2,.28h-.12q-.48,0-.48-.45a.45.45,0,0,1,.45-.47l2-.28,0-.26a16.12,16.12,0,0,1-.18-2.17c0-.38.11-.6.32-.67a.57.57,0,0,1,.24,0,.46.46,0,0,1,.44.24,3.25,3.25,0,0,1,.11.78c0,.67.11,1.32.18,2l2.4-.35h.11a.43.43,0,0,1,.49.48c0,.27-.16.43-.47.48l-2.42.32c0,.43.11.8.16,1.13l2.21-.32h.11a.44.44,0,0,1,.49.5c0,.26-.15.41-.47.45Zm2.45-5.14a.58.58,0,0,1,.41.22,15.38,15.38,0,0,1,1.06,1.2.9.9,0,0,1,.22.52.45.45,0,0,1-.24.4.63.63,0,0,1-.33.09.62.62,0,0,1-.51-.38,12.55,12.55,0,0,0-.85-1.32.72.72,0,0,1-.14-.36.33.33,0,0,1,.11-.25A.34.34,0,0,1,112.14,20.79Z"/><path class="cls-4" d="M121.86,32.28a.41.41,0,0,1,.29.43q0,.42-.51.45l-2.76.2v.1c0,.36-.14.53-.51.53s-.48-.17-.51-.53l-.36-3.34V30a.55.55,0,0,1,.07-.28,3.7,3.7,0,0,1-1.25.57.4.4,0,0,1-.36-.18.41.41,0,0,1-.07-.22.44.44,0,0,1,.16-.33l.44-.25a13.46,13.46,0,0,0,2.64-1.84c-.14-.07-.3-.17-.49-.28l-.85-.47a7.16,7.16,0,0,1-.82.72.85.85,0,0,1-.51.21.24.24,0,0,1-.2-.07.49.49,0,0,1-.15-.32c0-.13.11-.3.35-.5a6.59,6.59,0,0,0,1.85-2.38.56.56,0,0,1,.55-.37.5.5,0,0,1,.18,0,.45.45,0,0,1,.35.45.39.39,0,0,1,0,.13l1.95-.25h.15c.48,0,.72.19.72.58a1.74,1.74,0,0,1-.32.8,9.64,9.64,0,0,1-1.16,1.53,23.8,23.8,0,0,1,2.27,1.4.64.64,0,0,1,.32.52.6.6,0,0,1-.15.39.54.54,0,0,1-.42.21.69.69,0,0,1-.42-.18A22.73,22.73,0,0,0,120,28a16.47,16.47,0,0,1-2.09,1.56.57.57,0,0,1,.18,0,.47.47,0,0,1,.41.22l2.59-.29h.21c.6,0,.9.27.9.82a1.32,1.32,0,0,1,0,.28ZM120.12,22l2.48-.26h.1c.43,0,.65.16.65.48a3.1,3.1,0,0,1-.65,1.31c-.3.43-.54.64-.74.64a.46.46,0,0,1-.19,0,.36.36,0,0,1-.2-.34.46.46,0,0,1,.07-.21,2.12,2.12,0,0,0,.28-.72c0-.07,0-.11-.14-.11h-.16l-4.31.47a6.44,6.44,0,0,1-.2,1.47c-.11.31-.27.47-.49.47a.66.66,0,0,1-.36-.09.46.46,0,0,1-.25-.4.86.86,0,0,1,0-.26,9.38,9.38,0,0,0,.38-2c0-.35.17-.53.43-.53a.44.44,0,0,1,.45.4l1.71-.18v-1.6a.44.44,0,0,1,.19-.39.63.63,0,0,1,.35-.11.56.56,0,0,1,.44.18.5.5,0,0,1,.11.32Zm-1.36,3.59-.39.5.21.1c.31.13.73.33,1.25.59a7.18,7.18,0,0,0,.76-1,.77.77,0,0,0,.14-.31c0-.05,0-.07-.13-.07h-.16Zm2.14,6.7.17-1.72c0-.15-.07-.23-.21-.23h0l-2.22.25.17,1.85Zm4.43-.55a.47.47,0,0,1,.32.12.49.49,0,0,1,.21.41q0,.47-1.47,1.5a3.26,3.26,0,0,1-1.27.66.37.37,0,0,1-.31-.18.43.43,0,0,1-.09-.26c0-.15.13-.31.38-.48a8,8,0,0,0,1.71-1.5A.69.69,0,0,1,125.33,31.77Zm1-8.26,2-.17h.24c.63,0,.95.34.95,1v6.82c0,.32-.17.48-.52.48s-.53-.16-.53-.48v-.06l-3.42.22a.47.47,0,0,1-.53.41.54.54,0,0,1-.44-.2.4.4,0,0,1-.08-.26V23.87c0-.33.17-.49.52-.49a.52.52,0,0,1,.47.24l.37,0a13,13,0,0,0,.75-1.74l-2.24.17h-.09a.44.44,0,0,1-.42-.21.56.56,0,0,1-.08-.3.45.45,0,0,1,.48-.5l5.76-.47h.08a.46.46,0,0,1,.47.27.59.59,0,0,1,.05.23.48.48,0,0,1-.49.53l-2.37.18A12.07,12.07,0,0,1,126.33,23.51Zm2.1,2V24.7c0-.31-.12-.45-.37-.43H128l-3,.28v1.28Zm0,.92-3.42.28V28.1l3.42-.25Zm0,2.29L125,29V30.4l3.42-.22Zm-.56,2.94a2.49,2.49,0,0,1,1.09.65,13.67,13.67,0,0,1,1.12,1,.7.7,0,0,1,.26.51.6.6,0,0,1-.15.39.52.52,0,0,1-.4.18.92.92,0,0,1-.64-.39c-.69-.77-1.18-1.29-1.47-1.57a.55.55,0,0,1-.21-.4.37.37,0,0,1,.11-.28A.35.35,0,0,1,127.87,31.71Z"/><path class="cls-4" d="M143.69,22.1V32.39a.57.57,0,0,1-.15.4.7.7,0,0,1-1-.06.6.6,0,0,1-.1-.34V22.1a.53.53,0,0,1,.22-.43.69.69,0,0,1,.41-.12.61.61,0,0,1,.45.16A.48.48,0,0,1,143.69,22.1Z"/><path class="cls-4" d="M149.6,30.54a1.28,1.28,0,0,1,.84.32,1.36,1.36,0,0,1,.45,1.09,3.89,3.89,0,0,1-.7,2.19,3.09,3.09,0,0,1-1,1,.68.68,0,0,1-.32.09.41.41,0,0,1-.4-.39c0-.11.09-.23.27-.35a2.21,2.21,0,0,0,.81-1.17,1,1,0,0,0,.06-.26c0-.08-.1-.13-.28-.15a.93.93,0,0,1-.66-.34,1.34,1.34,0,0,1-.26-.84,1.13,1.13,0,0,1,.39-.88A1.19,1.19,0,0,1,149.6,30.54Z"/><path class="cls-4" d="M156.31,22.63c0-.65.41-1,1.11-1h4.12a.46.46,0,0,1,.36.15.57.57,0,0,1,.14.41.54.54,0,0,1-.23.49.46.46,0,0,1-.27.08h-3.72c-.23,0-.35.11-.35.33l-.1,3.15a2.91,2.91,0,0,1,2-.81,2.61,2.61,0,0,1,2.22,1.13,4.28,4.28,0,0,1,.71,2.54,4.83,4.83,0,0,1-.55,2.35A2.94,2.94,0,0,1,159,33.12a3.69,3.69,0,0,1-1.67-.37,3.11,3.11,0,0,1-1.12-.91.82.82,0,0,1-.18-.47.55.55,0,0,1,.19-.41.62.62,0,0,1,.44-.18.77.77,0,0,1,.58.38A2,2,0,0,0,159,32a1.75,1.75,0,0,0,1.53-.89,3.56,3.56,0,0,0,.54-2,3.32,3.32,0,0,0-.35-1.58,1.65,1.65,0,0,0-1.54-1,2.11,2.11,0,0,0-1.8,1,.75.75,0,0,1-.6.39c-.42,0-.63-.2-.62-.61Z"/><path class="cls-4" d="M167.08,21.4A2.61,2.61,0,0,1,169.49,23a9.24,9.24,0,0,1,.79,4.23,9.9,9.9,0,0,1-.69,4.05,2.67,2.67,0,0,1-2.53,1.82,2.57,2.57,0,0,1-2.33-1.44,9,9,0,0,1-.88-4.43,8.77,8.77,0,0,1,1-4.54A2.57,2.57,0,0,1,167.08,21.4Zm0,1.15q-1.91,0-1.9,4.72a10.28,10.28,0,0,0,.41,3.28c.32.94.83,1.4,1.51,1.4a1.49,1.49,0,0,0,1.33-1,8.94,8.94,0,0,0,.58-3.72C169,24.11,168.34,22.55,167.05,22.55Z"/><path class="cls-4" d="M175.08,21.4A2.61,2.61,0,0,1,177.49,23a9.24,9.24,0,0,1,.79,4.23,9.9,9.9,0,0,1-.69,4.05,2.67,2.67,0,0,1-2.53,1.82,2.57,2.57,0,0,1-2.33-1.44,9,9,0,0,1-.88-4.43,8.77,8.77,0,0,1,1-4.54A2.57,2.57,0,0,1,175.08,21.4Zm0,1.15q-1.91,0-1.9,4.72a10.28,10.28,0,0,0,.41,3.28c.32.94.83,1.4,1.51,1.4a1.49,1.49,0,0,0,1.33-1,8.94,8.94,0,0,0,.58-3.72C177,24.11,176.34,22.55,175.05,22.55Z"/><path class="cls-4" d="M187,22.84a.52.52,0,0,1,.41.57,10,10,0,0,1-.39,1.91l3.6.13a1.6,1.6,0,0,1,.83.2,1.05,1.05,0,0,1,.4,1,15.4,15.4,0,0,1-.51,3.28,10.53,10.53,0,0,1-1.13,3.15,1.44,1.44,0,0,1-1.23.78,5.09,5.09,0,0,1-2.41-.93c-.36-.23-.55-.43-.55-.6a.35.35,0,0,1,.4-.4,1.17,1.17,0,0,1,.53.19,6.61,6.61,0,0,0,1.15.43,2.24,2.24,0,0,0,.46.07.79.79,0,0,0,.69-.39,9.73,9.73,0,0,0,1-2.75,12.62,12.62,0,0,0,.41-2.48c0-.31-.18-.47-.52-.49l-3.39-.11a13.26,13.26,0,0,1-3.7,6.07c-.51.45-.87.68-1.08.68a.36.36,0,0,1-.31-.16.38.38,0,0,1-.1-.25.85.85,0,0,1,.35-.55,12.47,12.47,0,0,0,3-4.43,16.91,16.91,0,0,0,1.24-4.28.68.68,0,0,1,.35-.58l-5.17.25h0A.37.37,0,0,1,181,23a.59.59,0,0,1-.2-.47c0-.36.17-.55.5-.56l11.87-.6h0a.41.41,0,0,1,.32.14.58.58,0,0,1,.17.43.54.54,0,0,1-.24.47.62.62,0,0,1-.28.09Z"/><path class="cls-4" d="M207.38,27.3l-8.63.61v5.18a.54.54,0,0,1-.15.39.63.63,0,0,1-.94-.06.52.52,0,0,1-.1-.33v-11a.49.49,0,0,1,.23-.43.65.65,0,0,1,.36-.1.58.58,0,0,1,.52.26l8.59-.69h.17c.76,0,1.14.41,1.14,1.24v10.3c0,.87-.37,1.3-1.1,1.3a6.56,6.56,0,0,1-1.51-.26,6.79,6.79,0,0,1-1.15-.37c-.26-.11-.39-.26-.39-.44s.14-.44.42-.44a1.61,1.61,0,0,1,.34.06,8.22,8.22,0,0,0,1.63.23c.27,0,.44-.06.51-.19a.84.84,0,0,0,.06-.36Zm-5-.72v-4l-3.61.29v4Zm1.15-.08,3.87-.28V22.63c0-.29-.13-.43-.38-.43h-.08l-3.41.27Z"/><path class="cls-4" d="M21.34,93.44a14.66,14.66,0,0,0,4.08-3.8,1.9,1.9,0,0,0,.32-.6c0-.07-.07-.1-.19-.1l-.62,0c-.39,0-1.46.1-3.22.2q-3.43.19-5.94.41h-.18a.55.55,0,0,1-.41-.17A.53.53,0,0,1,15,89a.5.5,0,0,1,.4-.52,5.23,5.23,0,0,1,.91-.1l1.14-.08q2.67-.21,6.94-.43L26,87.79h.23a1.23,1.23,0,0,1,.7.18.84.84,0,0,1,.36.73,3.46,3.46,0,0,1-.91,1.77,17,17,0,0,1-4.26,3.67,15,15,0,0,1,1.33,1.51,1,1,0,0,1,.23.6.72.72,0,0,1-.7.71.59.59,0,0,1-.44-.21,3.54,3.54,0,0,1-.25-.35,28.2,28.2,0,0,0-3.11-3.54.69.69,0,0,1-.27-.45.44.44,0,0,1,.12-.29.43.43,0,0,1,.33-.15,1.13,1.13,0,0,1,.61.29C20.44,92.66,20.91,93.06,21.34,93.44Z"/><path class="cls-4" d="M37.05,90.54a23.74,23.74,0,0,1-5,2.65,1.29,1.29,0,0,1-.39.09.37.37,0,0,1-.36-.21.35.35,0,0,1-.07-.21.44.44,0,0,1,.23-.37l.84-.39a19.79,19.79,0,0,0,3.93-2.36A17.06,17.06,0,0,0,40,85.83a.58.58,0,0,1,.5-.28.74.74,0,0,1,.42.13.51.51,0,0,1,.23.45,1.46,1.46,0,0,1-.33.71,15.43,15.43,0,0,1-2.89,3,.64.64,0,0,1,.29.6v6.7q0,.66-.6.66c-.39,0-.59-.22-.59-.66Z"/><path class="cls-4" d="M49.42,91.67a.55.55,0,0,1,.24.07.41.41,0,0,1,.25.39,5.28,5.28,0,0,1-.46,1.37,8.35,8.35,0,0,1-1.28,2.26.72.72,0,0,1-.57.31.67.67,0,0,1-.39-.13.54.54,0,0,1-.22-.45,1.15,1.15,0,0,1,.32-.64,10.12,10.12,0,0,0,1.63-2.78C49,91.8,49.2,91.67,49.42,91.67Zm3.18-3.16c0-.72,0-1.35,0-1.89a3,3,0,0,1,.09-1,.56.56,0,0,1,.51-.27.51.51,0,0,1,.55.41,2.78,2.78,0,0,1,0,.69c0,.69,0,1.35,0,2,1.73-.11,3-.2,3.92-.29h.21a.68.68,0,0,1,.35.09.5.5,0,0,1,.27.47.52.52,0,0,1-.44.55,3.6,3.6,0,0,1-.42,0l-3.57.26-.32,0v.57q.06,6.3.06,6.4a2,2,0,0,1-.2,1A.76.76,0,0,1,53,98a1.12,1.12,0,0,1-.56-.2l-.88-.54-.77-.47c-.25-.15-.38-.3-.38-.45a.33.33,0,0,1,.38-.38.89.89,0,0,1,.39.11c.58.26,1,.43,1.24.51a.45.45,0,0,0,.16,0c.08,0,.11-.1.11-.31v-.14q0-.31,0-1.5,0-.19-.06-4.41v-.55q-3.91.3-4.29.3a.64.64,0,0,1-.39-.11.55.55,0,0,1-.24-.48.51.51,0,0,1,.41-.54,2.06,2.06,0,0,1,.5-.06c.34,0,1.55-.09,3.64-.24Zm3.81,3c.35,0,1,.56,1.8,1.67a3.86,3.86,0,0,1,1,1.88.6.6,0,0,1-.21.5.73.73,0,0,1-.44.15.55.55,0,0,1-.46-.24,2.54,2.54,0,0,1-.17-.31,16.94,16.94,0,0,0-1.7-2.76.82.82,0,0,1-.22-.47.41.41,0,0,1,.12-.28A.39.39,0,0,1,56.41,91.51Z"/><path class="cls-4" d="M74,90.45q.81,0,.81.6a.52.52,0,0,1-.33.55,4.05,4.05,0,0,1-.93.07q-3.55.1-9.56.47h-.08a.64.64,0,0,1-.43-.15.54.54,0,0,1-.21-.46.56.56,0,0,1,.53-.59l.79,0c2-.12,3.48-.2,4.54-.24,2.08-.08,3.22-.12,3.43-.14Q73.61,90.45,74,90.45Z"/><path class="cls-4" d="M89.07,95c-1.67.44-3.59.82-5.75,1.16-1.55.25-2.44.37-2.68.37a1.08,1.08,0,0,1-.65-.19.75.75,0,0,1-.33-.64,1.07,1.07,0,0,1,.16-.54c0-.07.18-.29.42-.65a47.75,47.75,0,0,0,3-5.29c.42-.85.8-1.64,1.13-2.39a.65.65,0,0,1,.62-.46.69.69,0,0,1,.43.14.59.59,0,0,1,.28.51,2.79,2.79,0,0,1-.35.89,64.66,64.66,0,0,1-4.14,7,.42.42,0,0,0-.11.23c0,.08.07.12.22.12.45,0,1.49-.12,3.13-.35,1.38-.2,2.74-.44,4.09-.73a22.11,22.11,0,0,0-1.4-2,.74.74,0,0,1-.2-.44.38.38,0,0,1,.13-.3.41.41,0,0,1,.29-.13c.38,0,1.16.81,2.35,2.42a6.24,6.24,0,0,1,1.39,2.5.64.64,0,0,1-.29.55.82.82,0,0,1-.45.14.64.64,0,0,1-.58-.45C89.68,96.11,89.44,95.64,89.07,95Z"/><path class="cls-4" d="M101.44,87.94a2.62,2.62,0,0,1,.17,1.06,10.07,10.07,0,0,1-1.83,5.24c-.9,1.44-1.75,2.16-2.54,2.16a1.85,1.85,0,0,1-1.49-.85,4.51,4.51,0,0,1-.83-2.81,5,5,0,0,1,1.39-3.37A7.15,7.15,0,0,1,99,87.49a8,8,0,0,1,3-.6,5.24,5.24,0,0,1,3.65,1.33,4.74,4.74,0,0,1,1.56,3.67A5.28,5.28,0,0,1,106,95.42a6,6,0,0,1-2.44,1.74,1.1,1.1,0,0,1-.43.1.42.42,0,0,1-.45-.4.47.47,0,0,1,.16-.33s.26-.17.62-.38A5,5,0,0,0,105,94.81a4.64,4.64,0,0,0,1-2.9,3.89,3.89,0,0,0-3.91-4l-.59,0h0Zm-1.06.19a6.09,6.09,0,0,0-3.53,2.35,3.8,3.8,0,0,0-.78,2.23,3.73,3.73,0,0,0,.53,2.06c.23.34.44.51.65.51.38,0,.85-.42,1.41-1.28A12.12,12.12,0,0,0,100,91.17a6.87,6.87,0,0,0,.4-2.17C100.42,88.83,100.41,88.53,100.38,88.13Z"/><path class="cls-4" d="M114,87.79a.32.32,0,0,1,.36.37c0,.2-.35.57-1,1.12a11,11,0,0,1-1.83,1.2.89.89,0,0,1-.39.11.47.47,0,0,1-.43-.24.46.46,0,0,1-.1-.28c0-.25.19-.46.57-.64A14.54,14.54,0,0,0,113.46,88,.87.87,0,0,1,114,87.79ZM115,96.57a.52.52,0,0,1,.45.21.65.65,0,0,1,.12.37.62.62,0,0,1-.41.53,16,16,0,0,1-2.85,1.06,6.55,6.55,0,0,1-1,.23c-.28,0-.42-.15-.42-.44a.43.43,0,0,1,.18-.36,2.08,2.08,0,0,1,.46-.18,17.32,17.32,0,0,0,3.07-1.32A.88.88,0,0,1,115,96.57ZM111.67,85.2a3.36,3.36,0,0,1,.67.15,10.26,10.26,0,0,1,1.48.51.62.62,0,0,1,.43.56.67.67,0,0,1-.06.28.5.5,0,0,1-.5.28,1.13,1.13,0,0,1-.51-.17c-.44-.25-1-.53-1.63-.83a.44.44,0,0,1-.31-.39C111.24,85.33,111.39,85.2,111.67,85.2ZM120.48,96l-6.55.32a.52.52,0,0,1-.55.38c-.37,0-.55-.18-.55-.53V90.74c0-.36.18-.53.55-.53a.56.56,0,0,1,.51.27l6.44-.4h.23a.92.92,0,0,1,.89.39,1.59,1.59,0,0,1,.15.77V96a.52.52,0,0,1-.11.32.54.54,0,0,1-.45.2A.49.49,0,0,1,120.48,96ZM114,91.34v.8l6.53-.36v-.39c0-.31-.14-.47-.41-.47H120Zm6.53,2v-.85l-6.53.37v.85Zm0,.78-6.53.37v.87l6.53-.31Zm-3.06-8.48,5-.33h.08a.73.73,0,0,1,.51.16.48.48,0,0,1,.19.39,1.68,1.68,0,0,1-.6,1c-.62.61-1,.92-1.25.92a.39.39,0,0,1-.32-.15.29.29,0,0,1-.09-.22.63.63,0,0,1,.22-.38c.1-.11.24-.28.42-.52a.36.36,0,0,0,.09-.18c0-.06-.06-.09-.2-.08h-.08l-4.57.29c-.73.89-1.25,1.33-1.56,1.33a.35.35,0,0,1-.26-.12.41.41,0,0,1-.12-.28c0-.11.11-.28.34-.51a8.57,8.57,0,0,0,1.24-1.65c.13-.23.25-.44.34-.63a.55.55,0,0,1,.52-.35.5.5,0,0,1,.29.09.49.49,0,0,1,.27.44A2.35,2.35,0,0,1,117.42,85.69Zm1.78,1.68a9,9,0,0,0,1.43,1,13.8,13.8,0,0,0,2.91,1.36c.42.15.63.3.63.44s0,.13-.17.17a3.52,3.52,0,0,1-1.18.25,1.81,1.81,0,0,1-.8-.28,16.67,16.67,0,0,1-3.21-2.27,4.27,4.27,0,0,1-.93,1,6.85,6.85,0,0,1-2.26,1.16,1.05,1.05,0,0,1-.26,0,.37.37,0,0,1-.41-.41c0-.16.17-.29.49-.41a5.08,5.08,0,0,0,1.8-1.09,3.6,3.6,0,0,0,1-1.52.45.45,0,0,1,.46-.36.92.92,0,0,1,.38.09.41.41,0,0,1,.23.38A1.13,1.13,0,0,1,119.2,87.37Zm.17,9.08a6.34,6.34,0,0,1,1.19.4,19.16,19.16,0,0,1,2.18.93.66.66,0,0,1,.41.57.62.62,0,0,1-.59.6,1.6,1.6,0,0,1-.67-.26c-.86-.49-1.69-.93-2.5-1.31-.3-.15-.45-.31-.45-.49a.54.54,0,0,1,0-.22A.4.4,0,0,1,119.37,96.45Z"/><path class="cls-4" d="M133.88,86.24l4-.3h0a.48.48,0,0,1,.45.26.54.54,0,0,1,.06.25.44.44,0,0,1-.45.49l-1.35.1s-.11.34-.3.88-.38,1-.58,1.51l3.32-.24c.37,0,.56.17.56.52a.44.44,0,0,1-.45.51l-9.9.68v.3a12.38,12.38,0,0,1-1,5.37,8.57,8.57,0,0,1-1,1.61.62.62,0,0,1-.47.31.54.54,0,0,1-.27-.09.47.47,0,0,1-.22-.38,1.21,1.21,0,0,1,.25-.52,10.89,10.89,0,0,0,1.54-6.1V91H128a.48.48,0,0,1-.36-.15.5.5,0,0,1-.15-.37.45.45,0,0,1,.47-.5l2.92-.21c-.17-.66-.41-1.41-.7-2.23l-1.49.12h-.06a.46.46,0,0,1-.43-.25.54.54,0,0,1-.06-.25.43.43,0,0,1,.44-.5l4.13-.31V85.06a.56.56,0,0,1,.21-.46.65.65,0,0,1,.39-.12.61.61,0,0,1,.49.21.57.57,0,0,1,.12.37ZM132,92.92l1.78-.14V91.44a.49.49,0,0,1,.19-.39.66.66,0,0,1,.41-.14.58.58,0,0,1,.47.21.46.46,0,0,1,.11.32v1.25l2.89-.23h.07c.35,0,.52.16.52.46a.48.48,0,0,1-.52.54l-3,.19V95l2.68-.17h.08c.33,0,.49.15.49.45s-.17.49-.51.51l-2.74.16v1.5l4.21-.19h0a.47.47,0,0,1,.46.19.53.53,0,0,1-.44.83l-9.45.39h0a.56.56,0,0,1-.32-.08.42.42,0,0,1-.19-.39.47.47,0,0,1,.51-.52l4.06-.18V96l-2.65.16q-.57,0-.57-.45c0-.3.18-.47.52-.5l2.7-.17V93.73l-2.3.16c-.55.91-1,1.37-1.23,1.37a.37.37,0,0,1-.27-.12.43.43,0,0,1-.15-.31,1.17,1.17,0,0,1,.21-.49,12.29,12.29,0,0,0,1.1-2.28c.13-.37.33-.55.58-.55a.61.61,0,0,1,.3.08.48.48,0,0,1,.27.46A2.7,2.7,0,0,1,132,92.92Zm-.71-5.49s0,.11.07.17a11.66,11.66,0,0,1,.65,2.07l2.65-.18a18.74,18.74,0,0,0,.73-2.36Z"/><path class="cls-4" d="M145.24,88.43V98.1a.52.52,0,0,1-.14.36.6.6,0,0,1-.42.15c-.36,0-.55-.17-.55-.51V90.41a15.78,15.78,0,0,1-1.3,1.77.63.63,0,0,1-.45.26.4.4,0,0,1-.29-.12A.38.38,0,0,1,142,92a1.81,1.81,0,0,1,.41-.72A16.91,16.91,0,0,0,144,88.49a23.83,23.83,0,0,0,1.17-2.85c.13-.38.34-.57.61-.57a.67.67,0,0,1,.28.06.46.46,0,0,1,.29.47,2.27,2.27,0,0,1-.15.62A20.16,20.16,0,0,1,145.24,88.43Zm4,2.26-.17-3-2,.14H147q-.51,0-.51-.48a.5.5,0,0,1,.53-.55l8.32-.62h.06c.37,0,.55.16.55.5s-.18.53-.55.56l-1.92.13-.16,3,1.64-.11h.18c.75,0,1.12.35,1.12,1a2,2,0,0,1,0,.25l-.56,5.84c0,.36-.21.55-.54.55s-.55-.16-.55-.48a.26.26,0,0,1,0-.07l0-.31-6.41.28c0,.32-.18.47-.54.47a.51.51,0,0,1-.55-.53L146.39,91v-.1c0-.31.19-.46.56-.46a.5.5,0,0,1,.54.43Zm.29,5.64-.25-4.64-1.68.12.47,4.58Zm.75-5.72,1.92-.14.14-3-2.19.16ZM152,96.22l.21-4.73-1.85.13.2,4.66Zm1,0,1.72-.08.38-4.4s0-.07,0-.09c0-.22-.12-.32-.39-.29l-1.46.1Z"/><path class="cls-4" d="M161.13,88.61v9.76a.48.48,0,0,1-.14.35.57.57,0,0,1-.42.16c-.36,0-.55-.17-.55-.51v-8c-.8,1.14-1.37,1.71-1.7,1.71a.33.33,0,0,1-.25-.12.46.46,0,0,1-.14-.29,1.85,1.85,0,0,1,.45-.67,14.27,14.27,0,0,0,1.31-2,27.74,27.74,0,0,0,1.66-3.63c.14-.37.35-.55.61-.55a.74.74,0,0,1,.28.06.51.51,0,0,1,.31.48,1.93,1.93,0,0,1-.19.64A27.08,27.08,0,0,1,161.13,88.61Zm2.38,3v5.3c0,.29.13.44.4.44H164l8.07-.23c.38,0,.57.15.57.5a.49.49,0,0,1-.54.54l-8.47.19h-.07c-.52,0-.86-.11-1-.35a1.4,1.4,0,0,1-.12-.67V91.58c0-.35.18-.52.55-.52A.46.46,0,0,1,163.51,91.58Zm4.67-2.8,1.43-.12h.16q1,0,1,1v6a.46.46,0,0,1-.53.51.45.45,0,0,1-.51-.51v0l-3.8.26a.46.46,0,0,1-.5.38c-.34,0-.51-.17-.51-.53V89.07a.4.4,0,0,1,.18-.35.62.62,0,0,1,.34-.11.45.45,0,0,1,.5.37l1.2-.1V87.5l-3.25.28h-.09a.45.45,0,0,1-.33-.1.41.41,0,0,1-.16-.36.47.47,0,0,1,.5-.52l3.33-.27V85a.42.42,0,0,1,.17-.36.56.56,0,0,1,.36-.12.65.65,0,0,1,.37.11.43.43,0,0,1,.18.37v1.45l3-.25h.08c.33,0,.5.15.5.45s-.17.48-.51.51l-3.06.26Zm1.51,1.89v-.8a.24.24,0,0,0-.27-.27h0l-3.46.29V91Zm0,.86-3.78.26V93l3.78-.26Zm0,2-3.78.27V95l3.78-.26Z"/><path class="cls-4" d="M183.24,96.14H188c.37,0,.55.19.55.57s-.18.57-.55.57h-5.1c-.62,0-.93-.28-.93-.86a1.58,1.58,0,0,1,.29-.77A28.84,28.84,0,0,1,185,92.2c.71-.81,1.18-1.37,1.38-1.66a2.91,2.91,0,0,0,.62-1.72,2.12,2.12,0,0,0-.3-1.17,1.54,1.54,0,0,0-1.38-.69,1.91,1.91,0,0,0-1.8,1.21.53.53,0,0,1-.52.32.8.8,0,0,1-.38-.1.48.48,0,0,1-.27-.45,1.12,1.12,0,0,1,.17-.52,3,3,0,0,1,1.34-1.26,3.34,3.34,0,0,1,1.48-.33,2.83,2.83,0,0,1,2.15.86,3,3,0,0,1,.76,2.15,3.76,3.76,0,0,1-.86,2.24c-.27.37-.86,1-1.75,2A31.7,31.7,0,0,0,183.24,96.14Z"/><path class="cls-4" d="M191.77,95a1.24,1.24,0,0,1,.84.32,1.38,1.38,0,0,1,.45,1.1,3.87,3.87,0,0,1-.7,2.19,3.06,3.06,0,0,1-1,1,.7.7,0,0,1-.32.1.4.4,0,0,1-.27-.11.43.43,0,0,1-.13-.29c0-.1.09-.22.28-.35a2.14,2.14,0,0,0,.81-1.17,1.25,1.25,0,0,0,.05-.26c0-.08-.09-.13-.28-.14a.94.94,0,0,1-.65-.35,1.27,1.27,0,0,1-.26-.83,1.15,1.15,0,0,1,.39-.89A1.17,1.17,0,0,1,191.77,95Z"/><path class="cls-4" d="M201.25,85.82a2.62,2.62,0,0,1,2.42,1.62,9.44,9.44,0,0,1,.78,4.23,9.86,9.86,0,0,1-.68,4,2.7,2.7,0,0,1-2.53,1.83,2.56,2.56,0,0,1-2.33-1.45,9,9,0,0,1-.89-4.43,8.63,8.63,0,0,1,1-4.53A2.56,2.56,0,0,1,201.25,85.82Zm0,1.15q-1.9,0-1.91,4.73a10.29,10.29,0,0,0,.42,3.28c.32.93.82,1.4,1.5,1.4a1.47,1.47,0,0,0,1.33-1,8.91,8.91,0,0,0,.59-3.72C203.16,88.54,202.51,87,201.23,87Z"/><path class="cls-4" d="M209.25,85.82a2.62,2.62,0,0,1,2.42,1.62,9.44,9.44,0,0,1,.78,4.23,9.86,9.86,0,0,1-.68,4,2.7,2.7,0,0,1-2.53,1.83,2.56,2.56,0,0,1-2.33-1.45,9,9,0,0,1-.89-4.43,8.63,8.63,0,0,1,1-4.53A2.56,2.56,0,0,1,209.25,85.82Zm0,1.15q-1.9,0-1.91,4.73a10.29,10.29,0,0,0,.42,3.28c.32.93.82,1.4,1.5,1.4a1.47,1.47,0,0,0,1.33-1,8.91,8.91,0,0,0,.59-3.72C211.16,88.54,210.51,87,209.23,87Z"/><path class="cls-4" d="M217.25,85.82a2.62,2.62,0,0,1,2.42,1.62,9.44,9.44,0,0,1,.78,4.23,9.86,9.86,0,0,1-.68,4,2.7,2.7,0,0,1-2.53,1.83,2.56,2.56,0,0,1-2.33-1.45,9,9,0,0,1-.89-4.43,8.63,8.63,0,0,1,1-4.53A2.56,2.56,0,0,1,217.25,85.82Zm0,1.15q-1.9,0-1.91,4.73a10.29,10.29,0,0,0,.42,3.28c.32.93.82,1.4,1.5,1.4a1.47,1.47,0,0,0,1.33-1,8.91,8.91,0,0,0,.59-3.72C219.16,88.54,218.51,87,217.23,87Z"/><path class="cls-4" d="M229.13,87.27a.5.5,0,0,1,.4.56,10,10,0,0,1-.39,1.91l3.6.13a1.78,1.78,0,0,1,.84.2,1.05,1.05,0,0,1,.4,1,15.31,15.31,0,0,1-.51,3.28,11.33,11.33,0,0,1-1.13,3.16,1.45,1.45,0,0,1-1.24.77,5,5,0,0,1-2.4-.93c-.37-.22-.55-.42-.55-.6a.35.35,0,0,1,.4-.4,1.36,1.36,0,0,1,.53.19,5.65,5.65,0,0,0,1.15.43,1.65,1.65,0,0,0,.45.07.81.81,0,0,0,.7-.39,10,10,0,0,0,1-2.74,12.57,12.57,0,0,0,.4-2.49c0-.3-.17-.47-.51-.48l-3.39-.12a13.22,13.22,0,0,1-3.71,6.07c-.51.46-.87.68-1.08.68a.39.39,0,0,1-.31-.15.45.45,0,0,1-.09-.25.83.83,0,0,1,.35-.56,12.43,12.43,0,0,0,3-4.42,17,17,0,0,0,1.23-4.29.68.68,0,0,1,.35-.58l-5.17.26h0a.33.33,0,0,1-.26-.1A.58.58,0,0,1,223,87c0-.35.16-.54.49-.56l11.88-.59h0a.41.41,0,0,1,.33.13.57.57,0,0,1,.16.43.55.55,0,0,1-.24.48.5.5,0,0,1-.27.08Z"/><path class="cls-4" d="M249.56,91.72l-8.64.61v5.19a.52.52,0,0,1-.15.38.54.54,0,0,1-.44.18.58.58,0,0,1-.49-.23.56.56,0,0,1-.1-.33v-11A.48.48,0,0,1,240,86a.65.65,0,0,1,.36-.1.59.59,0,0,1,.52.27l8.58-.69h.17c.76,0,1.14.41,1.14,1.24V97.06c0,.86-.36,1.29-1.09,1.29a6.5,6.5,0,0,1-1.52-.25,8.07,8.07,0,0,1-1.14-.37q-.39-.17-.39-.45a.37.37,0,0,1,.42-.43l.33.05a7.83,7.83,0,0,0,1.64.24c.26,0,.43-.07.5-.19a.72.72,0,0,0,.07-.36Zm-5-.72V87l-3.61.29v4Zm1.15-.08,3.88-.28V87.06c0-.29-.13-.44-.39-.44h-.07l-3.42.26Z"/><path class="cls-5" d="M41,150a14.39,14.39,0,0,0,4.08-3.8,1.69,1.69,0,0,0,.32-.6c0-.06-.06-.1-.18-.1l-.62,0c-.39,0-1.47.11-3.22.2q-3.44.19-6,.41h-.18a.52.52,0,0,1-.4-.16.57.57,0,0,1-.17-.42.51.51,0,0,1,.4-.52A6.17,6.17,0,0,1,36,145l1.14-.09q2.67-.21,6.93-.43l1.54-.09h.24a1.18,1.18,0,0,1,.7.19.82.82,0,0,1,.36.72A3.46,3.46,0,0,1,46,147a17,17,0,0,1-4.26,3.67,17.78,17.78,0,0,1,1.33,1.51,1.06,1.06,0,0,1,.23.61.66.66,0,0,1-.28.55.68.68,0,0,1-.42.15.62.62,0,0,1-.44-.2,4.26,4.26,0,0,1-.26-.35,26.76,26.76,0,0,0-3.11-3.54.73.73,0,0,1-.26-.46.48.48,0,0,1,.11-.29.49.49,0,0,1,.34-.14,1,1,0,0,1,.6.29C40.14,149.24,40.62,149.63,41,150Z"/><path class="cls-5" d="M56.76,147.11a23.36,23.36,0,0,1-5,2.65,1,1,0,0,1-.39.1.39.39,0,0,1-.36-.21.49.49,0,0,1-.06-.22.41.41,0,0,1,.23-.36s.32-.16.84-.39A20.89,20.89,0,0,0,56,146.32a17.1,17.1,0,0,0,3.78-3.92.61.61,0,0,1,.5-.28.78.78,0,0,1,.42.14.5.5,0,0,1,.23.44,1.41,1.41,0,0,1-.34.71,15.46,15.46,0,0,1-2.89,3,.6.6,0,0,1,.29.59v6.7c0,.44-.2.66-.59.66s-.59-.22-.59-.66Z"/><path class="cls-5" d="M69.12,148.25a.48.48,0,0,1,.24.06.4.4,0,0,1,.25.39,5.66,5.66,0,0,1-.45,1.38,8.55,8.55,0,0,1-1.28,2.25.77.77,0,0,1-.57.32.64.64,0,0,1-.39-.14.53.53,0,0,1-.23-.45,1.11,1.11,0,0,1,.33-.64,10,10,0,0,0,1.63-2.78A.51.51,0,0,1,69.12,148.25Zm3.19-3.17c0-.72,0-1.35,0-1.89a2.92,2.92,0,0,1,.1-1,.56.56,0,0,1,.51-.27.52.52,0,0,1,.55.41,2.88,2.88,0,0,1,0,.7c0,.68,0,1.34,0,2,1.73-.11,3-.21,3.92-.29l.2,0a.69.69,0,0,1,.36.09.5.5,0,0,1,.27.47.52.52,0,0,1-.44.55,2.91,2.91,0,0,1-.42.05l-3.57.25-.32,0v.58c0,4.19.06,6.33.06,6.39a1.93,1.93,0,0,1-.21,1,.76.76,0,0,1-.68.43,1.12,1.12,0,0,1-.55-.21l-.88-.54-.78-.46c-.25-.16-.37-.31-.37-.46a.33.33,0,0,1,.37-.38,1.06,1.06,0,0,1,.39.11c.58.26,1,.43,1.25.51a.41.41,0,0,0,.16,0c.07,0,.11-.1.11-.31,0,0,0-.05,0-.14v-1.5c0-.12,0-1.59-.05-4.41v-.55q-3.91.3-4.29.3a.69.69,0,0,1-.4-.11.55.55,0,0,1-.23-.48.5.5,0,0,1,.4-.54,3.22,3.22,0,0,1,.5,0l3.64-.25Zm3.8,3c.36,0,1,.56,1.81,1.68a3.8,3.8,0,0,1,1,1.87.58.58,0,0,1-.22.5.72.72,0,0,1-.43.16.53.53,0,0,1-.46-.25,2.1,2.1,0,0,1-.18-.31A16.32,16.32,0,0,0,75.92,149a.74.74,0,0,1-.22-.46.44.44,0,0,1,.12-.29A.38.38,0,0,1,76.11,148.08Z"/><path class="cls-5" d="M93.68,147q.81,0,.81.6a.53.53,0,0,1-.34.56,5.73,5.73,0,0,1-.92.07c-2.37.06-5.56.22-9.56.46h-.09a.71.71,0,0,1-.43-.14.57.57,0,0,1-.2-.46.56.56,0,0,1,.53-.6l.79,0c2-.12,3.48-.19,4.54-.24,2.08-.07,3.22-.12,3.43-.14Q93.31,147,93.68,147Z"/><path class="cls-5" d="M108.78,151.55a58.48,58.48,0,0,1-5.75,1.17c-1.55.24-2.45.36-2.68.36a1.14,1.14,0,0,1-.66-.19.74.74,0,0,1-.33-.63,1,1,0,0,1,.17-.54c0-.08.18-.3.42-.65a48.12,48.12,0,0,0,3-5.3c.43-.84.81-1.64,1.14-2.39a.64.64,0,0,1,.61-.46.77.77,0,0,1,.44.14.61.61,0,0,1,.27.52,2.63,2.63,0,0,1-.35.89,66.69,66.69,0,0,1-4.14,7,.44.44,0,0,0-.11.22c0,.08.08.12.22.12a30.88,30.88,0,0,0,3.13-.35c1.38-.2,2.75-.44,4.1-.73a22.12,22.12,0,0,0-1.41-2,.7.7,0,0,1-.19-.44.41.41,0,0,1,.12-.3.42.42,0,0,1,.3-.12c.37,0,1.16.8,2.34,2.41a6.39,6.39,0,0,1,1.4,2.5.64.64,0,0,1-.3.55.71.71,0,0,1-.44.15c-.25,0-.44-.15-.58-.46S109.14,152.21,108.78,151.55Z"/><path class="cls-5" d="M121.15,144.51a2.67,2.67,0,0,1,.17,1.07,10.12,10.12,0,0,1-1.83,5.24c-.91,1.44-1.76,2.15-2.55,2.15a1.85,1.85,0,0,1-1.48-.85,4.49,4.49,0,0,1-.83-2.81,5,5,0,0,1,1.39-3.37,7.07,7.07,0,0,1,2.71-1.88,7.94,7.94,0,0,1,3-.59,5.24,5.24,0,0,1,3.66,1.32,4.74,4.74,0,0,1,1.56,3.67,5.32,5.32,0,0,1-1.27,3.54,6,6,0,0,1-2.44,1.73,1.14,1.14,0,0,1-.44.1.41.41,0,0,1-.36-.16.41.41,0,0,1,.07-.56,5.92,5.92,0,0,1,.63-.39,4.79,4.79,0,0,0,1.52-1.34,4.65,4.65,0,0,0,1-2.9,3.91,3.91,0,0,0-3.91-4l-.6,0h0Zm-1.07.19a6.2,6.2,0,0,0-3.53,2.35,3.89,3.89,0,0,0-.77,2.24,3.72,3.72,0,0,0,.53,2.05c.22.34.44.52.65.52.38,0,.85-.43,1.4-1.28a12.22,12.22,0,0,0,1.37-2.84,6.82,6.82,0,0,0,.4-2.16C120.13,145.4,120.11,145.11,120.08,144.7Z"/><path class="cls-5" d="M13.65,163.56a.33.33,0,0,1,.36.37c0,.2-.34.57-1,1.12a11,11,0,0,1-1.83,1.2.81.81,0,0,1-.4.11.5.5,0,0,1-.43-.24.49.49,0,0,1-.09-.28c0-.25.19-.46.56-.63a14.28,14.28,0,0,0,2.37-1.45A.87.87,0,0,1,13.65,163.56Zm1.1,8.78a.5.5,0,0,1,.45.22.6.6,0,0,1,.12.36q0,.32-.42.54a16.64,16.64,0,0,1-2.85,1,5.28,5.28,0,0,1-1,.23c-.27,0-.41-.14-.41-.44a.43.43,0,0,1,.17-.35,2.32,2.32,0,0,1,.47-.19,17.56,17.56,0,0,0,3.07-1.31A.79.79,0,0,1,14.75,172.34ZM11.38,161a3.18,3.18,0,0,1,.66.15,10.3,10.3,0,0,1,1.49.52.62.62,0,0,1,.43.55.67.67,0,0,1-.06.28.51.51,0,0,1-.5.28,1.13,1.13,0,0,1-.51-.17c-.44-.25-1-.53-1.63-.83a.42.42,0,0,1-.31-.39C11,161.1,11.09,161,11.38,161Zm8.8,10.77-6.54.31a.52.52,0,0,1-.55.38c-.37,0-.55-.17-.55-.53v-5.39c0-.35.18-.53.55-.53a.56.56,0,0,1,.51.27l6.44-.4h.22a.93.93,0,0,1,.9.39,1.53,1.53,0,0,1,.14.76v4.76a.49.49,0,0,1-.1.32.51.51,0,0,1-.45.2Q20.18,172.28,20.18,171.74Zm-6.53-4.63v.81l6.53-.37v-.38c0-.32-.13-.47-.4-.47h-.11Zm6.53,2.06v-.86l-6.53.37v.85Zm0,.78-6.53.36v.87l6.53-.31Zm-3.05-8.49,4.95-.32h.09a.74.74,0,0,1,.51.15.51.51,0,0,1,.18.39,1.68,1.68,0,0,1-.6,1c-.61.62-1,.92-1.25.92a.42.42,0,0,1-.32-.15.32.32,0,0,1-.08-.21.65.65,0,0,1,.22-.39q.15-.16.42-.51a.46.46,0,0,0,.09-.18c0-.07-.07-.09-.2-.09h-.08l-4.57.29c-.73.89-1.26,1.33-1.56,1.33a.33.33,0,0,1-.26-.11.47.47,0,0,1-.13-.28c0-.12.12-.29.35-.51a9.51,9.51,0,0,0,1.23-1.66c.14-.23.25-.44.35-.63a.54.54,0,0,1,.52-.34.51.51,0,0,1,.29.08.49.49,0,0,1,.26.44A2.24,2.24,0,0,1,17.13,161.46Zm1.77,1.68a8.68,8.68,0,0,0,1.44,1.06,14.31,14.31,0,0,0,2.91,1.36c.42.14.63.29.63.43s-.06.13-.17.17a3.62,3.62,0,0,1-1.18.26,2,2,0,0,1-.81-.28,17.36,17.36,0,0,1-3.21-2.28,4.09,4.09,0,0,1-.93,1A6.53,6.53,0,0,1,15.33,166a1.05,1.05,0,0,1-.26.05.37.37,0,0,1-.41-.41c0-.15.16-.29.49-.41a5,5,0,0,0,1.79-1.09,3.51,3.51,0,0,0,1-1.52.44.44,0,0,1,.46-.36.8.8,0,0,1,.38.1.38.38,0,0,1,.23.37A.93.93,0,0,1,18.9,163.14Zm.18,9.08a6.37,6.37,0,0,1,1.18.4,23.24,23.24,0,0,1,2.19.93.6.6,0,0,1,.31.9.56.56,0,0,1-.49.27,1.47,1.47,0,0,1-.67-.26c-.86-.49-1.69-.93-2.5-1.31-.3-.14-.45-.31-.45-.49a.41.41,0,0,1,.05-.21A.4.4,0,0,1,19.08,172.22Z"/><path class="cls-5" d="M33.59,162l3.95-.3h.06A.43.43,0,0,1,38,162a.45.45,0,0,1,.07.25.45.45,0,0,1-.46.5l-1.35.1-.29.87c-.19.52-.38,1-.58,1.51l3.32-.23c.37,0,.55.17.55.51a.44.44,0,0,1-.44.51l-9.9.69V167a12.38,12.38,0,0,1-1,5.37,8.51,8.51,0,0,1-1,1.62.62.62,0,0,1-.46.3.48.48,0,0,1-.27-.09.44.44,0,0,1-.22-.38,1.09,1.09,0,0,1,.24-.51,10.76,10.76,0,0,0,1.54-6.11v-.42h-.09a.5.5,0,0,1-.37-.15.51.51,0,0,1-.14-.36.45.45,0,0,1,.46-.51l2.92-.2c-.17-.67-.4-1.42-.69-2.24l-1.49.12h-.07a.46.46,0,0,1-.43-.25.51.51,0,0,1-.06-.25.43.43,0,0,1,.45-.49l4.13-.32v-1.27a.56.56,0,0,1,.2-.45.62.62,0,0,1,.4-.13.61.61,0,0,1,.49.21.57.57,0,0,1,.12.37Zm-1.92,6.68,1.78-.14v-1.34a.47.47,0,0,1,.19-.39.63.63,0,0,1,.4-.14.6.6,0,0,1,.48.21.52.52,0,0,1,.11.32v1.25l2.88-.22h.08c.34,0,.52.15.52.46a.49.49,0,0,1-.52.53l-3,.19v1.32l2.67-.17h.09c.33,0,.49.15.49.46s-.17.48-.52.5l-2.73.17v1.49l4.21-.19h0a.52.52,0,1,1,0,1l-9.46.39h0a.65.65,0,0,1-.32-.09.43.43,0,0,1-.2-.39c0-.33.17-.5.52-.52l4.06-.18v-1.46l-2.66.15c-.37,0-.56-.12-.56-.44s.17-.48.52-.5l2.7-.18V169.5l-2.3.16c-.56.92-1,1.37-1.23,1.37a.37.37,0,0,1-.27-.12.43.43,0,0,1-.15-.31,1.22,1.22,0,0,1,.21-.49,12,12,0,0,0,1.1-2.28c.13-.36.32-.55.58-.55a.55.55,0,0,1,.29.08.48.48,0,0,1,.28.46A2.7,2.7,0,0,1,31.67,168.69ZM31,163.21a1,1,0,0,0,.07.17,11.17,11.17,0,0,1,.65,2.07l2.65-.19a17.82,17.82,0,0,0,.72-2.36Z"/><path class="cls-5" d="M44.94,164.21v9.66a.45.45,0,0,1-.14.36.57.57,0,0,1-.41.16c-.37,0-.55-.18-.55-.52v-7.69a17,17,0,0,1-1.3,1.78.63.63,0,0,1-.46.25.45.45,0,0,1-.43-.41,1.89,1.89,0,0,1,.42-.72,17.49,17.49,0,0,0,1.61-2.81,24.65,24.65,0,0,0,1.17-2.86c.13-.38.33-.57.61-.57a.67.67,0,0,1,.28.06.49.49,0,0,1,.29.47,2,2,0,0,1-.16.62A21.14,21.14,0,0,1,44.94,164.21Zm4,2.25-.16-3-2,.14h-.08a.44.44,0,0,1-.51-.49.5.5,0,0,1,.53-.55L55,162h.06c.36,0,.55.17.55.51a.51.51,0,0,1-.55.55l-1.92.13-.17,3,1.64-.12h.18c.75,0,1.13.35,1.13,1.06a1.85,1.85,0,0,1,0,.24l-.56,5.84c0,.37-.22.55-.54.55s-.55-.16-.55-.48v-.07l0-.31-6.41.28c0,.32-.19.48-.55.48s-.5-.18-.54-.54l-.69-6.37v-.09c0-.32.18-.47.55-.47a.51.51,0,0,1,.55.44Zm.3,5.64L49,167.46l-1.68.12.47,4.59Zm.75-5.71,1.92-.15.13-3-2.18.16Zm1.68,5.6.2-4.73-1.84.13.2,4.67Zm1,0,1.71-.08.39-4.41v-.08q0-.33-.39-.3l-1.45.1Z"/><path class="cls-5" d="M60.83,164.39v9.75a.45.45,0,0,1-.14.35.53.53,0,0,1-.41.16c-.37,0-.55-.17-.55-.51v-8c-.81,1.14-1.37,1.71-1.7,1.71a.32.32,0,0,1-.25-.12.4.4,0,0,1-.14-.29,2,2,0,0,1,.44-.67,13.62,13.62,0,0,0,1.32-2,26.58,26.58,0,0,0,1.66-3.63c.14-.37.34-.55.61-.55a.66.66,0,0,1,.27.06.5.5,0,0,1,.32.48,2.34,2.34,0,0,1-.19.65A26,26,0,0,1,60.83,164.39Zm2.39,3v5.3c0,.29.13.44.39.44h.1l8.07-.23c.38,0,.57.16.57.5a.48.48,0,0,1-.54.54l-8.47.2h-.08q-.78,0-1-.36a1.4,1.4,0,0,1-.12-.67v-5.72a.54.54,0,0,1,1.07,0Zm4.67-2.79,1.43-.13h.16c.64,0,1,.34,1,1v6c0,.33-.17.5-.53.5a.44.44,0,0,1-.5-.5v0l-3.8.26a.46.46,0,0,1-.5.38c-.34,0-.51-.17-.51-.53v-6.68a.42.42,0,0,1,.18-.36.59.59,0,0,1,.34-.1.46.46,0,0,1,.5.36l1.19-.1v-1.37l-3.25.27h-.08a.56.56,0,0,1-.33-.1.43.43,0,0,1-.17-.37.48.48,0,0,1,.5-.52l3.33-.27v-1.53a.45.45,0,0,1,.17-.37.59.59,0,0,1,.37-.12.67.67,0,0,1,.37.11.45.45,0,0,1,.18.38v1.44l3-.25H71c.33,0,.5.15.5.46s-.17.48-.51.5l-3.06.26Zm1.51,1.88v-.8a.24.24,0,0,0-.27-.27h0l-3.47.29v1.05Zm0,.87-3.79.25v1.16l3.79-.26Zm0,2-3.79.27v1.19l3.79-.25Z"/><path class="cls-5" d="M85.58,162.3v10.29a.59.59,0,0,1-.16.4.64.64,0,0,1-.47.18.6.6,0,0,1-.52-.25.5.5,0,0,1-.1-.33V162.3a.5.5,0,0,1,.21-.43.69.69,0,0,1,.41-.13.61.61,0,0,1,.45.17A.48.48,0,0,1,85.58,162.3Z"/><path class="cls-5" d="M91.48,170.74a1.23,1.23,0,0,1,.84.32,1.36,1.36,0,0,1,.45,1.09,3.82,3.82,0,0,1-.7,2.19,3,3,0,0,1-1,1,.6.6,0,0,1-.32.1.41.41,0,0,1-.4-.39c0-.11.09-.23.27-.35a2.2,2.2,0,0,0,.81-1.18.93.93,0,0,0,.06-.25c0-.09-.09-.14-.28-.15a.9.9,0,0,1-.66-.35,1.29,1.29,0,0,1-.26-.83,1.12,1.12,0,0,1,.39-.88A1.14,1.14,0,0,1,91.48,170.74Z"/><path class="cls-5" d="M101,161.6a2.6,2.6,0,0,1,2.41,1.61,9.31,9.31,0,0,1,.79,4.24,9.82,9.82,0,0,1-.69,4,2.68,2.68,0,0,1-2.53,1.83,2.58,2.58,0,0,1-2.33-1.44,9.16,9.16,0,0,1-.88-4.43,8.75,8.75,0,0,1,1-4.54A2.56,2.56,0,0,1,101,161.6Zm0,1.14q-1.91,0-1.9,4.73a10.58,10.58,0,0,0,.41,3.28c.33.93.83,1.4,1.51,1.4a1.48,1.48,0,0,0,1.33-1,9,9,0,0,0,.58-3.72Q102.86,162.74,100.93,162.74Z"/><path class="cls-5" d="M109,161.6a2.6,2.6,0,0,1,2.41,1.61,9.31,9.31,0,0,1,.79,4.24,9.82,9.82,0,0,1-.69,4,2.68,2.68,0,0,1-2.53,1.83,2.58,2.58,0,0,1-2.33-1.44,9.16,9.16,0,0,1-.88-4.43,8.75,8.75,0,0,1,1-4.54A2.56,2.56,0,0,1,109,161.6Zm0,1.14q-1.91,0-1.9,4.73a10.58,10.58,0,0,0,.41,3.28c.33.93.83,1.4,1.51,1.4a1.48,1.48,0,0,0,1.33-1,9,9,0,0,0,.58-3.72Q110.86,162.74,108.93,162.74Z"/><path class="cls-5" d="M117,161.6a2.6,2.6,0,0,1,2.41,1.61,9.31,9.31,0,0,1,.79,4.24,9.82,9.82,0,0,1-.69,4,2.68,2.68,0,0,1-2.53,1.83,2.58,2.58,0,0,1-2.33-1.44,9.16,9.16,0,0,1-.88-4.43,8.75,8.75,0,0,1,1-4.54A2.56,2.56,0,0,1,117,161.6Zm0,1.14q-1.91,0-1.9,4.73a10.58,10.58,0,0,0,.41,3.28c.33.93.83,1.4,1.51,1.4a1.48,1.48,0,0,0,1.33-1,9,9,0,0,0,.58-3.72Q118.86,162.74,116.93,162.74Z"/><path class="cls-5" d="M128.83,163a.51.51,0,0,1,.41.56,10.07,10.07,0,0,1-.39,1.92l3.6.12a1.77,1.77,0,0,1,.84.21,1.05,1.05,0,0,1,.39,1,15.23,15.23,0,0,1-.5,3.29,10.89,10.89,0,0,1-1.14,3.15,1.43,1.43,0,0,1-1.23.78,5.09,5.09,0,0,1-2.41-.93c-.36-.23-.54-.43-.54-.61a.35.35,0,0,1,.4-.39,1.3,1.3,0,0,1,.53.18,5.55,5.55,0,0,0,1.14.43,1.72,1.72,0,0,0,.46.07.79.79,0,0,0,.69-.39,9.23,9.23,0,0,0,1-2.74,12.73,12.73,0,0,0,.41-2.48c0-.31-.17-.47-.52-.49l-3.39-.12a13.16,13.16,0,0,1-3.7,6.08c-.51.45-.87.67-1.08.67a.39.39,0,0,1-.31-.15.44.44,0,0,1-.1-.25c0-.16.12-.34.36-.56a12.47,12.47,0,0,0,3-4.42,17,17,0,0,0,1.23-4.29.7.7,0,0,1,.35-.58l-5.17.26h0a.38.38,0,0,1-.27-.09.58.58,0,0,1-.19-.47c0-.36.16-.55.49-.56l11.87-.6h0a.47.47,0,0,1,.33.13.59.59,0,0,1,.16.43.55.55,0,0,1-.24.48.62.62,0,0,1-.28.09Z"/><path class="cls-5" d="M149.26,167.49l-8.63.61v5.19a.52.52,0,0,1-.15.38.64.64,0,0,1-.94,0,.59.59,0,0,1-.1-.33v-11a.49.49,0,0,1,.24-.44.75.75,0,0,1,.36-.1.58.58,0,0,1,.51.27l8.59-.69h.17c.76,0,1.14.42,1.14,1.25v10.3c0,.86-.36,1.3-1.09,1.3a6.55,6.55,0,0,1-1.52-.26,8.27,8.27,0,0,1-1.15-.37c-.26-.11-.39-.26-.39-.44s.14-.44.42-.44a2.28,2.28,0,0,1,.34,0,7.75,7.75,0,0,0,1.63.24c.27,0,.44-.06.51-.19a.84.84,0,0,0,.06-.36Zm-5-.71v-4l-3.61.29v4Zm1.15-.08,3.87-.28v-3.59c0-.29-.12-.44-.38-.44h-.08l-3.41.27Z"/><path class="cls-6" d="M181.41,153.91a25,25,0,0,1-1.92,2v8.63a.57.57,0,0,1-.12.37.61.61,0,0,1-.51.22.57.57,0,0,1-.57-.33.67.67,0,0,1,0-.26v-7.48a30.29,30.29,0,0,1-5.16,3.6,1.2,1.2,0,0,1-.54.19.34.34,0,0,1-.3-.15.45.45,0,0,1,.09-.63l.75-.45a28.31,28.31,0,0,0,5.16-4.06v-.3c0-.37.2-.56.61-.56a.54.54,0,0,1,.2,0l.68-.75-6.47.36a.85.85,0,0,1-.23,0,.51.51,0,0,1-.39-.52.49.49,0,0,1,.53-.54l11.57-.64a.85.85,0,0,1,.23,0,.51.51,0,0,1,.38.52.48.48,0,0,1-.52.54Zm-.65,2.4a1.62,1.62,0,0,1,.65.28,36.14,36.14,0,0,1,3.94,2.78.89.89,0,0,1,.37.65.66.66,0,0,1-.19.46.65.65,0,0,1-.46.18.76.76,0,0,1-.52-.2l-.29-.28a28.23,28.23,0,0,0-3.64-3,.55.55,0,0,1-.28-.42.43.43,0,0,1,.09-.25A.39.39,0,0,1,180.76,156.31Z"/><path class="cls-6" d="M199.17,155.91c.34,0,.51.2.51.52a.47.47,0,0,1-.49.53l-3.47.25v2.21l3.75-.24h0a.48.48,0,0,1,.38.15.49.49,0,0,1,.15.38.51.51,0,0,1-.22.44.62.62,0,0,1-.28.09l-3.81.22V163a24.4,24.4,0,0,0,5.57,1.08c.69.05,1,.14,1,.26s-.1.18-.3.34a2.48,2.48,0,0,1-1.37.61,12.18,12.18,0,0,1-2-.4,38.19,38.19,0,0,1-4.41-1.34,16.18,16.18,0,0,1-2.91-1.5,10.59,10.59,0,0,1-2,2.48,1.25,1.25,0,0,1-.65.37.37.37,0,0,1-.24-.11.43.43,0,0,1-.14-.32.52.52,0,0,1,.19-.37,11.28,11.28,0,0,0,2.83-4.8.63.63,0,0,1,.63-.51.6.6,0,0,1,.24,0,.5.5,0,0,1,.32.52,7.24,7.24,0,0,1-.75,1.94,15.63,15.63,0,0,0,2.86,1.34V157.3l-2.47.17a.52.52,0,0,1-.56.45c-.31,0-.49-.19-.54-.56l-.57-4.34a.15.15,0,0,1,0-.07.51.51,0,0,1,.22-.44.6.6,0,0,1,.37-.13.58.58,0,0,1,.52.29l6.92-.62h.24q1.05,0,1.05.9a2.47,2.47,0,0,1,0,.36Zm-1.09.09.38-2.52s0-.06,0-.12-.11-.27-.32-.27H198l-6.35.54.33,2.84Z"/><path class="cls-6" d="M36.7,214.75l-11.89.58h0c-.4,0-.61-.19-.61-.57a.53.53,0,0,1,.58-.59l11.88-.61h0a.65.65,0,0,1,.43.11.55.55,0,0,1,.22.45A.56.56,0,0,1,36.7,214.75Z"/><path class="cls-6" d="M45.61,213.64l.13,0a.85.85,0,0,1,.24,0c.25,0,.38.15.38.44a.41.41,0,0,1-.3.41l-.45.12v5.94c0,.68-.25,1-.76,1a3,3,0,0,1-1.07-.31,5.72,5.72,0,0,1-.93-.47.45.45,0,0,1-.25-.37c0-.22.11-.33.34-.33a1.1,1.1,0,0,1,.31.06,3.9,3.9,0,0,0,1,.2c.2,0,.3-.15.3-.46v-5l-.47.11c-.65.14-1.41.3-2.3.46A16,16,0,0,1,41,220c-.36,1-.68,1.51-1,1.51a.48.48,0,0,1-.27-.09.37.37,0,0,1-.19-.35,2,2,0,0,1,.2-.57,14.54,14.54,0,0,0,1-4.93l-1,.15q-.48,0-.48-.51a.49.49,0,0,1,.36-.52,3.39,3.39,0,0,1,.59-.1l.51-.07c0-.31,0-.63,0-.94,0-.84,0-1.53-.05-2.08s0-.95,0-1.13a.47.47,0,0,1,.53-.54.57.57,0,0,1,.39.16l.36-.05a13.41,13.41,0,0,0,.7-1.86c.1-.34.28-.5.55-.5a.81.81,0,0,1,.31.06.44.44,0,0,1,.27.44,5.07,5.07,0,0,1-.85,1.74l1.55-.2h.21c.58,0,.87.36.87,1.06Zm-1,.21v-2.93c0-.22-.1-.34-.29-.34h-.06l-2.41.32c0,.33,0,.72,0,1.19,0,.29,0,.67,0,1.16s0,.7,0,.94v.14Zm-1.93-2.63c.12,0,.27.1.44.31a10.14,10.14,0,0,1,.84,1.28.72.72,0,0,1,.1.35.44.44,0,0,1-.23.42.52.52,0,0,1-.28.08q-.36,0-.54-.51a8.94,8.94,0,0,0-.61-1.32.49.49,0,0,1-.08-.25.34.34,0,0,1,.14-.28A.33.33,0,0,1,42.63,211.22Zm1,4.76v2.54a.48.48,0,0,1-1,0V216q0-.45.48-.45T43.66,216Zm6.86,2.75.12.1a13.2,13.2,0,0,0,2.84,2c.4.2.59.35.59.45s-.07.13-.22.19a3.48,3.48,0,0,1-1.16.27,1.25,1.25,0,0,1-.73-.33,20.46,20.46,0,0,1-2.13-2,14.91,14.91,0,0,1-2.71,2,1.84,1.84,0,0,1-.62.23.4.4,0,0,1-.36-.2.55.55,0,0,1-.07-.23.36.36,0,0,1,.18-.31l.36-.21a12.16,12.16,0,0,0,2.54-2,9.1,9.1,0,0,1-1.76-2.28.42.42,0,0,1,.42-.4c.17,0,.36.14.56.43A18.58,18.58,0,0,0,49.76,218,12.26,12.26,0,0,0,51,216.21a1.81,1.81,0,0,0,.3-.73c0-.1-.07-.15-.22-.15H51l-4,.4h0a.38.38,0,0,1-.28-.12.56.56,0,0,1-.14-.39.45.45,0,0,1,.46-.51l4.6-.39h.22c.59,0,.89.23.89.69a2.18,2.18,0,0,1-.22.83A11.1,11.1,0,0,1,50.52,218.73Zm-2.05-10,1.91-.28a1.63,1.63,0,0,1,.31,0c.53,0,.8.32.8,1a.83.83,0,0,1,0,.12l-.09,2.43V212c0,.14,0,.23.08.28a.52.52,0,0,0,.39.11c.52,0,.81-.11.89-.33a5.73,5.73,0,0,0,.07-1.15.76.76,0,0,1,.06-.38.28.28,0,0,1,.27-.14c.18,0,.3.12.36.37a6.25,6.25,0,0,1,.23,1.61.84.84,0,0,1-.6.88,5.89,5.89,0,0,1-1.68.16c-.54,0-.89-.12-1-.38a1.2,1.2,0,0,1-.12-.64l.09-2.61c0-.23-.08-.34-.27-.33h-.06l-1.53.24v.13A8.17,8.17,0,0,1,48,213c-.34.79-.65,1.18-.94,1.18a.51.51,0,0,1-.26-.08.32.32,0,0,1-.19-.3,1,1,0,0,1,.16-.4,6.62,6.62,0,0,0,.7-3.36l0-1.2c0-.32.18-.48.55-.48A.5.5,0,0,1,48.47,208.68Z"/><path class="cls-6" d="M57.7,215.37c-.05,1.4-.35,2.1-.88,2.1a.79.79,0,0,1-.32-.08.48.48,0,0,1-.28-.47,1,1,0,0,1,.1-.39,7.49,7.49,0,0,0,.5-2.2c0-.31.16-.46.41-.46h0c.25,0,.39.17.43.5l10.64-.68h.1c.5,0,.75.17.75.53a3.27,3.27,0,0,1-.91,1.64c-.37.45-.65.67-.83.67s-.4-.12-.4-.35a.7.7,0,0,1,.11-.33,6.27,6.27,0,0,0,.39-.81.59.59,0,0,0,0-.19q0-.09-.18-.09h-.16Zm3.17.68c.42,0,.63.19.63.59a4.36,4.36,0,0,1-.27,1.09,5.8,5.8,0,0,1-3.42,3.63,2.79,2.79,0,0,1-.85.26.33.33,0,0,1-.29-.15.43.43,0,0,1-.1-.26.37.37,0,0,1,.15-.3l.55-.29a5.27,5.27,0,0,0,2-1.72,6.58,6.58,0,0,0,1-2.37A.55.55,0,0,1,60.87,216.05Zm2.47-5.59v1.3l3.41-.21h0a.46.46,0,0,1,.26.06.48.48,0,0,1-.19.9l-8,.5h-.09c-.33,0-.49-.16-.49-.47a.43.43,0,0,1,.46-.49l3.4-.22v-1.29L58,210.8h-.08a.46.46,0,0,1-.42-.2.56.56,0,0,1-.08-.3.44.44,0,0,1,.47-.5l4.24-.26v-1.43a.54.54,0,0,1,.2-.44.7.7,0,0,1,.4-.12.64.64,0,0,1,.45.16.52.52,0,0,1,.16.4v1.35l4.23-.27c.37,0,.56.17.56.51a.43.43,0,0,1-.45.49Zm1,5.57,0,3.71c0,.28.07.46.25.54a4.7,4.7,0,0,0,1.28.09,18.26,18.26,0,0,0,2.16-.09.63.63,0,0,0,.58-.52,5.84,5.84,0,0,0,.08-1.09c0-.37.13-.56.39-.56s.41.16.47.47a8.81,8.81,0,0,1,.2,1.69.94.94,0,0,1-.73,1,13.72,13.72,0,0,1-3.11.21c-.93,0-1.54,0-1.8-.05a1.08,1.08,0,0,1-.88-.53,1.53,1.53,0,0,1-.13-.7v-.07l.07-4.08a.61.61,0,0,1,1.21,0Z"/><path class="cls-6" d="M75.72,214.41a30.49,30.49,0,0,1-1.82,3.86,27,27,0,0,0,3.47-.79,12.58,12.58,0,0,0-.72-1.15.41.41,0,0,1-.08-.25.29.29,0,0,1,.1-.21.45.45,0,0,1,.3-.13.75.75,0,0,1,.51.29,11.18,11.18,0,0,1,1.7,2.32,1,1,0,0,1,.14.45.56.56,0,0,1-.2.42.64.64,0,0,1-.41.17.55.55,0,0,1-.47-.24,2.34,2.34,0,0,1-.18-.35l-.28-.57a34.88,34.88,0,0,1-3.88,1.2,4.75,4.75,0,0,1-.76.15.61.61,0,0,1-.49-.33.78.78,0,0,1-.15-.38,1.08,1.08,0,0,1,.17-.46,25,25,0,0,0,1.76-3.86l-2.51.29h-.1a.42.42,0,0,1-.48-.48c0-.32.18-.49.53-.54l3.09-.36V211.4l-2.34.25h-.1c-.33,0-.49-.17-.49-.51s.18-.5.54-.53l2.39-.27v-2a.56.56,0,1,1,1.11,0v1.89l2.05-.22h.1a.45.45,0,0,1,.51.52c0,.32-.18.5-.55.54l-2.11.23v2.05l3-.35h.1c.34,0,.51.16.51.49a.51.51,0,0,1-.53.55Zm4.41-3.82c-.36,0-.53-.18-.53-.55a.52.52,0,0,1,.51-.56L84,209l.32,0a.79.79,0,0,1,.81.47,4.3,4.3,0,0,1,.13,1.31,37.32,37.32,0,0,1-.29,5.87q-.19,1-1,1a3.69,3.69,0,0,1-1.28-.36c-.58-.25-.87-.48-.87-.7a.41.41,0,0,1,.4-.4.79.79,0,0,1,.3.07,3,3,0,0,0,.89.18q.31,0,.39-.36,0-.14.09-.81c.13-1.35.2-2.79.2-4.33a1.21,1.21,0,0,0-.13-.71.42.42,0,0,0-.28-.09h-.06l-2.41.31v10.89a.56.56,0,0,1-.08.3.55.55,0,0,1-.49.26.51.51,0,0,1-.53-.32.47.47,0,0,1-.05-.24Z"/><path class="cls-6" d="M96.17,211.12c-2,.41-4.08.77-6.13,1.07-.79.11-1.22.17-1.32.17a.57.57,0,0,1-.64-.65.5.5,0,0,1,.36-.5,4.3,4.3,0,0,1,.85-.13q1.44-.14,4-.54c1.64-.26,3.09-.52,4.36-.78a1.91,1.91,0,0,1,.43-.06.65.65,0,0,1,.62.33.83.83,0,0,1,.12.41c0,.22-.19.4-.56.56a6.56,6.56,0,0,0-2.57,2,5.23,5.23,0,0,0-1.32,3.32,3.06,3.06,0,0,0,.92,2.22,4.14,4.14,0,0,0,1.87,1.09.65.65,0,0,1,.57.65c0,.38-.21.57-.64.57a3.4,3.4,0,0,1-1.64-.61,4.29,4.29,0,0,1-2.29-3.81,5.64,5.64,0,0,1,.61-2.5A7.87,7.87,0,0,1,96.17,211.12Zm3-2.73a.88.88,0,0,1,.44.17,5.13,5.13,0,0,1,1.47,1.47.81.81,0,0,1,.14.39.45.45,0,0,1-.17.36.48.48,0,0,1-.33.12c-.15,0-.3-.11-.44-.34a8.62,8.62,0,0,0-1.18-1.48.63.63,0,0,1-.23-.39A.27.27,0,0,1,99.2,208.39Zm1.37-1a2.57,2.57,0,0,1,1.28.79c.49.44.74.8.74,1.07a.46.46,0,0,1-.17.38.47.47,0,0,1-.31.11.58.58,0,0,1-.43-.3,8.92,8.92,0,0,0-1.18-1.39.59.59,0,0,1-.22-.37A.26.26,0,0,1,100.57,207.42Z"/><path class="cls-6" d="M108.25,211.19l1.14-.15.24,0q.78,0,.78,1v8.53c0,.64-.26,1-.79,1A5,5,0,0,1,108,221c-.4-.17-.6-.35-.6-.56s.12-.33.37-.33a1.16,1.16,0,0,1,.33.06,3.85,3.85,0,0,0,1,.22c.26,0,.39-.16.39-.49v-2.72l-3.85.32a13.15,13.15,0,0,1-.71,2.75c-.13.32-.23.53-.29.65a.48.48,0,0,1-.42.28.42.42,0,0,1-.4-.41,1,1,0,0,1,.08-.32,17.77,17.77,0,0,0,.93-6.46c0-.66,0-1.43-.06-2.29a.4.4,0,0,1,.09-.27.57.57,0,0,1,.42-.16.45.45,0,0,1,.43.24l1.52-.19a4.68,4.68,0,0,0,1.13-1.78c0-.08-.05-.12-.17-.12H108l-1.75.24a11.14,11.14,0,0,1-1.75,1.93,1.33,1.33,0,0,1-.67.39.38.38,0,0,1-.27-.13.3.3,0,0,1-.1-.23c0-.11.12-.3.36-.56a14.17,14.17,0,0,0,1.84-2.4c.11-.18.22-.36.31-.54a.63.63,0,0,1,.55-.41.58.58,0,0,1,.3.09.47.47,0,0,1,.19.41,1.13,1.13,0,0,1-.15.47l1.86-.26.29,0c.41,0,.61.16.61.47C109.66,209.37,109.19,210.13,108.25,211.19ZM107,214.71l-1.27.12c0,.49,0,1.08-.09,1.76l1.36-.11Zm0-2.5-1.32.16v.6l0,1,1.28-.13Zm1-.12v1.65l1.39-.13v-1.34c0-.21-.09-.31-.27-.31h-.07Zm0,2.53v1.77l1.39-.12v-1.78Zm5.94.29v-1.29c0-.34.17-.5.52-.5a.5.5,0,0,1,.45.22.51.51,0,0,1,.08.28v1.21l1.71-.14h.07a.41.41,0,0,1,.42.23.48.48,0,0,1,.06.24.43.43,0,0,1-.44.47l-1.82.14v1.71l2.3-.17h.07a.48.48,0,0,1,.36.15.45.45,0,0,1,.14.33.43.43,0,0,1-.46.48l-2.41.19v3a.41.41,0,0,1-.12.3.52.52,0,0,1-.41.17c-.35,0-.52-.16-.52-.47v-2.9l-2.54.19h-.07a.48.48,0,0,1,0-1l2.65-.19v-1.71l-1.61.13c-.39.86-.72,1.29-1,1.29a.52.52,0,0,1-.24-.08.34.34,0,0,1-.18-.33,1.29,1.29,0,0,1,.15-.44,12.15,12.15,0,0,0,.82-2.36c.09-.33.26-.5.52-.5a.45.45,0,0,1,.51.51,3.8,3.8,0,0,1-.22.95Zm.17-5.48a5.76,5.76,0,0,1-1.91,3.15c-.43.38-.73.58-.89.58a.37.37,0,0,1-.27-.12.47.47,0,0,1-.13-.3c0-.13.15-.33.45-.59a5.31,5.31,0,0,0,1.49-2.09,3.6,3.6,0,0,0,.16-.5l-1.5.18h-.07c-.33,0-.5-.18-.5-.48a.45.45,0,0,1,.45-.5l4.65-.47.29,0a.76.76,0,0,1,.85.86,8.61,8.61,0,0,1-.31,2.13c-.28,1.13-.7,1.7-1.26,1.7a3,3,0,0,1-1.54-.48c-.21-.12-.31-.25-.31-.39a.29.29,0,0,1,.33-.33.84.84,0,0,1,.31.07,2.13,2.13,0,0,0,.71.14c.25,0,.43-.18.54-.53a6.79,6.79,0,0,0,.38-1.87.29.29,0,0,0-.32-.32h-.16Z"/><path class="cls-6" d="M120.05,212.08a4.42,4.42,0,0,1,1.53.7,6.88,6.88,0,0,1,.71.45.71.71,0,0,1,.32.58.66.66,0,0,1-.12.38.52.52,0,0,1-.45.24.74.74,0,0,1-.5-.2,15,15,0,0,0-1.26-1.06l-.39-.29a.52.52,0,0,1-.22-.42A.34.34,0,0,1,120.05,212.08Zm2.76,4.22a.53.53,0,0,1,.23.06.4.4,0,0,1,.25.39,1.78,1.78,0,0,1-.2.62,16.17,16.17,0,0,1-1.81,3.18.75.75,0,0,1-.59.35.61.61,0,0,1-.42-.18.53.53,0,0,1-.2-.43,1.18,1.18,0,0,1,.32-.64,19.15,19.15,0,0,0,1.88-2.86C122.45,216.46,122.63,216.3,122.81,216.3Zm-1.63-7.52a4.3,4.3,0,0,1,1.49.67,7.34,7.34,0,0,1,.69.46.71.71,0,0,1,.3.57.64.64,0,0,1-.14.39.61.61,0,0,1-.48.22,1,1,0,0,1-.62-.33,15.57,15.57,0,0,0-1.38-1.15.53.53,0,0,1-.26-.44A.35.35,0,0,1,121.18,208.78Zm7,7.76a7,7,0,0,1-1.59,3,9.24,9.24,0,0,1-2.51,2,1,1,0,0,1-.44.14.34.34,0,0,1-.29-.17.4.4,0,0,1-.09-.24.38.38,0,0,1,.16-.3,2.47,2.47,0,0,1,.39-.28,7.65,7.65,0,0,0,2.89-3.19,8.19,8.19,0,0,0,.49-1.58l-3.22.2h0a.42.42,0,0,1-.26-.08.47.47,0,0,1-.24-.43.45.45,0,0,1,.48-.51l3.44-.21c.09-1,.14-2,.14-3.08l-2.47.19H125a.34.34,0,0,1-.28-.13.52.52,0,0,1-.13-.37A.43.43,0,0,1,125,211l2.5-.2v-2.49a.48.48,0,0,1,.18-.39.65.65,0,0,1,.39-.12.56.56,0,0,1,.46.19.52.52,0,0,1,.11.32v2.4l2.3-.18h.16c.65,0,1,.31,1,.93a1.62,1.62,0,0,1,0,.21l-.35,2.93,1.54-.09h.07a.48.48,0,0,1,.47.5.47.47,0,0,1-.5.52l-4.54.28a14.48,14.48,0,0,0,1.54,2.18,13.29,13.29,0,0,0,3.19,2.86c.32.2.49.35.49.44s-.09.15-.27.21a3,3,0,0,1-1,.21,1.1,1.1,0,0,1-.75-.33,19,19,0,0,1-2.18-2.47A20.92,20.92,0,0,1,128.19,216.54Zm.31-1.78,2.11-.14.3-2.74v-.08a.26.26,0,0,0-.29-.29h-.06l-1.92.15v.23C128.63,213,128.58,213.91,128.5,214.76Z"/><path class="cls-6" d="M144.17,211.12c-2,.41-4.08.77-6.13,1.07-.79.11-1.22.17-1.32.17a.57.57,0,0,1-.64-.65.5.5,0,0,1,.36-.5,4.3,4.3,0,0,1,.85-.13q1.44-.14,4-.54c1.64-.26,3.09-.52,4.36-.78a1.91,1.91,0,0,1,.43-.06.65.65,0,0,1,.62.33.83.83,0,0,1,.12.41c0,.22-.19.4-.56.56a6.56,6.56,0,0,0-2.57,2,5.23,5.23,0,0,0-1.32,3.32,3.06,3.06,0,0,0,.92,2.22,4.14,4.14,0,0,0,1.87,1.09.65.65,0,0,1,.57.65c0,.38-.21.57-.64.57a3.4,3.4,0,0,1-1.64-.61,4.29,4.29,0,0,1-2.29-3.81,5.64,5.64,0,0,1,.61-2.5A7.87,7.87,0,0,1,144.17,211.12Zm3-2.73a.88.88,0,0,1,.44.17,5.13,5.13,0,0,1,1.47,1.47.81.81,0,0,1,.14.39.45.45,0,0,1-.17.36.48.48,0,0,1-.33.12c-.15,0-.3-.11-.44-.34a8.62,8.62,0,0,0-1.18-1.48.63.63,0,0,1-.23-.39A.27.27,0,0,1,147.2,208.39Zm1.37-1a2.57,2.57,0,0,1,1.28.79c.49.44.74.8.74,1.07a.46.46,0,0,1-.17.38.47.47,0,0,1-.31.11.58.58,0,0,1-.43-.3,8.92,8.92,0,0,0-1.18-1.39.59.59,0,0,1-.22-.37A.26.26,0,0,1,148.57,207.42Z"/><path class="cls-6" d="M157.72,210.48a12.58,12.58,0,0,1-.78-2,.45.45,0,0,1,.24-.4.83.83,0,0,1,.38-.1c.27,0,.49.22.63.65a16.35,16.35,0,0,0,.67,1.63c1.08-.19,1.85-.34,2.29-.47a1.39,1.39,0,0,1,.32,0,.47.47,0,0,1,.53.54c0,.27-.18.44-.55.53-.53.12-1.24.26-2.15.43q.55,1.14,1,1.86c.83-.18,1.45-.32,1.84-.43a1.78,1.78,0,0,1,.47-.09c.35,0,.52.19.52.57a.49.49,0,0,1-.42.48c-.42.12-1,.26-1.88.43a15.32,15.32,0,0,0,1.1,1.61,1.39,1.39,0,0,1,.36.86c0,.33-.22.5-.65.5a1.62,1.62,0,0,1-.38-.06,15.67,15.67,0,0,0-1.77-.32c-.26,0-.38-.14-.38-.32s.15-.38.46-.38l.92.05.37,0c-.31-.44-.69-1-1.13-1.75a32,32,0,0,1-3.86.64q-.6,0-.6-.57a.45.45,0,0,1,.32-.43,2.1,2.1,0,0,1,.45-.09c.92-.12,2-.29,3.14-.51-.38-.71-.69-1.34-.94-1.87l-.24,0c-2,.33-3.08.5-3.32.5s-.59-.19-.59-.56.22-.47.65-.52l2.78-.42Zm2.55,9.47h.19c.43,0,.65.2.65.6s-.29.58-.86.58a6.81,6.81,0,0,1-3.85-.94,2.89,2.89,0,0,1-1.19-1.5.86.86,0,0,1-.07-.34c0-.33.16-.49.47-.49s.39.16.54.47C156.67,219.41,158.05,220,160.27,220Z"/><path class="cls-6" d="M175.82,209.9a26.67,26.67,0,0,1-3.75.61.6.6,0,0,1-.49-.2.52.52,0,0,1-.13-.37.51.51,0,0,1,.38-.53,4.13,4.13,0,0,1,.53-.06,23.12,23.12,0,0,0,3.91-.57,1,1,0,0,1,.27,0,.87.87,0,0,1,.56.21.72.72,0,0,1,.28.57.76.76,0,0,1-.18.48c-.14.18-.55.64-1.23,1.41-1.35,1.5-2.64,2.8-3.85,3.92l0,0a6.94,6.94,0,0,1,3.92-1.31,4.42,4.42,0,0,1,2.45.65,2.75,2.75,0,0,1,1.4,2.43,3.38,3.38,0,0,1-1.69,3A6.25,6.25,0,0,1,175,221a3.34,3.34,0,0,1-1.66-.4,1.67,1.67,0,0,1-1-1.45,1.35,1.35,0,0,1,.5-1,2.62,2.62,0,0,1,1.75-.58,3.14,3.14,0,0,1,2.17.87,4.12,4.12,0,0,1,.73.93,2.47,2.47,0,0,0,1.19-2.13,1.84,1.84,0,0,0-.75-1.49,2.84,2.84,0,0,0-1.87-.61,8.34,8.34,0,0,0-5.12,2,1.1,1.1,0,0,1-.62.29.48.48,0,0,1-.39-.22.75.75,0,0,1-.18-.47.73.73,0,0,1,.2-.49c0-.05.2-.2.5-.48a59.59,59.59,0,0,0,5.45-5.82Zm.54,9.87a2.12,2.12,0,0,0-1.84-1.23,1.38,1.38,0,0,0-.84.23.48.48,0,0,0-.21.38.6.6,0,0,0,.26.45A2,2,0,0,0,175,220,5.69,5.69,0,0,0,176.36,219.77Z"/><path class="cls-6" d="M190.71,219.12a1.12,1.12,0,0,1,1.1,1.11,1.1,1.1,0,0,1-.29.74,1.08,1.08,0,0,1-.83.36,1.12,1.12,0,0,1-1.09-1.11,1.06,1.06,0,0,1,.33-.8A1.12,1.12,0,0,1,190.71,219.12Zm.52-1.81c0,.39-.2.59-.52.59s-.52-.2-.53-.59l-.36-8.45v-.06a.77.77,0,0,1,.15-.43.9.9,0,0,1,.74-.32.89.89,0,0,1,.69.28.72.72,0,0,1,.18.53Z"/><path class="cls-6" d="M5,214.32l-.51-3.06a.92.92,0,0,1,0-.18.84.84,0,0,1,.19-.57.67.67,0,0,1,.54-.26.69.69,0,0,1,.39.12.8.8,0,0,1,.35.72,1.49,1.49,0,0,1,0,.17l-.51,3.06,1.79-2a.93.93,0,0,1,.69-.32.73.73,0,0,1,.56.26.77.77,0,0,1,.14.44.78.78,0,0,1-.5.74l-2.41,1.24,2.41,1.22a.81.81,0,0,1,.5.76.63.63,0,0,1-.17.45.69.69,0,0,1-.53.25.91.91,0,0,1-.69-.33l-1.79-2L6,218.11a1.28,1.28,0,0,1,0,.17.92.92,0,0,1-.2.59.71.71,0,0,1-.54.25.68.68,0,0,1-.38-.12.8.8,0,0,1-.35-.71.92.92,0,0,1,0-.18L5,215.05l-1.79,2a.89.89,0,0,1-.68.33.67.67,0,0,1-.57-.28.68.68,0,0,1-.15-.43.81.81,0,0,1,.5-.75l2.42-1.22-2.42-1.24a.81.81,0,0,1-.5-.75.66.66,0,0,1,.18-.45.68.68,0,0,1,.54-.24.91.91,0,0,1,.68.32Z"/><path class="cls-6" d="M312.69,91.68,312.25,89a.62.62,0,0,1,0-.15.71.71,0,0,1,.17-.5.59.59,0,0,1,.8-.13.71.71,0,0,1,.31.64.82.82,0,0,1,0,.14l-.45,2.68,1.57-1.74a.78.78,0,0,1,.6-.28.59.59,0,0,1,.49.23.65.65,0,0,1,.13.38.69.69,0,0,1-.44.65L313.3,92l2.11,1.08a.72.72,0,0,1,.44.66.6.6,0,0,1-.15.39.62.62,0,0,1-.47.22.79.79,0,0,1-.6-.29l-1.57-1.74.45,2.68a.86.86,0,0,1,0,.15.8.8,0,0,1-.17.51.61.61,0,0,1-.48.22.7.7,0,0,1-.33-.1.72.72,0,0,1-.3-.63.66.66,0,0,1,0-.15l.44-2.68-1.56,1.74a.79.79,0,0,1-.6.29.58.58,0,0,1-.49-.24.6.6,0,0,1-.13-.38.69.69,0,0,1,.43-.65L312.46,92l-2.12-1.08a.7.7,0,0,1-.43-.65.6.6,0,0,1,.15-.4.59.59,0,0,1,.47-.21.78.78,0,0,1,.6.28Z"/><path class="cls-6" d="M5,252.51l-.51-3.06a.81.81,0,0,1,0-.17.86.86,0,0,1,.19-.58.7.7,0,0,1,.54-.26.69.69,0,0,1,.39.12.83.83,0,0,1,.35.73,1.37,1.37,0,0,1,0,.16l-.51,3.06,1.79-2a.91.91,0,0,1,.69-.33.71.71,0,0,1,.56.27.74.74,0,0,1,.14.44.79.79,0,0,1-.5.74l-2.41,1.23,2.41,1.23a.8.8,0,0,1,.5.76.63.63,0,0,1-.17.44.66.66,0,0,1-.53.25.91.91,0,0,1-.69-.33l-1.79-2L6,256.3a1.41,1.41,0,0,1,0,.18.89.89,0,0,1-.2.58.69.69,0,0,1-.92.13.79.79,0,0,1-.35-.71,1,1,0,0,1,0-.18L5,253.25l-1.79,2a.89.89,0,0,1-.68.33.68.68,0,0,1-.57-.27.7.7,0,0,1-.15-.43.81.81,0,0,1,.5-.75l2.42-1.23-2.42-1.23a.81.81,0,0,1-.5-.75.71.71,0,0,1,.72-.7.89.89,0,0,1,.68.33Z"/><path class="cls-6" d="M13,252.51l-.51-3.06a.81.81,0,0,1,0-.17.86.86,0,0,1,.19-.58.7.7,0,0,1,.54-.26.69.69,0,0,1,.39.12.83.83,0,0,1,.35.73,1.37,1.37,0,0,1,0,.16l-.51,3.06,1.79-2a.91.91,0,0,1,.69-.33.71.71,0,0,1,.56.27.74.74,0,0,1,.14.44.79.79,0,0,1-.5.74l-2.41,1.23,2.41,1.23a.8.8,0,0,1,.5.76.63.63,0,0,1-.17.44.66.66,0,0,1-.53.25.91.91,0,0,1-.69-.33l-1.79-2L14,256.3a1.41,1.41,0,0,1,0,.18.89.89,0,0,1-.2.58.69.69,0,0,1-.92.13.79.79,0,0,1-.35-.71,1,1,0,0,1,0-.18l.51-3.05-1.79,2a.89.89,0,0,1-.68.33.68.68,0,0,1-.57-.27.7.7,0,0,1-.15-.43.81.81,0,0,1,.5-.75l2.42-1.23-2.42-1.23a.81.81,0,0,1-.5-.75.71.71,0,0,1,.72-.7.89.89,0,0,1,.68.33Z"/><path class="cls-6" d="M253,158.34l-.45-2.68a.66.66,0,0,1,0-.15.77.77,0,0,1,.17-.51.59.59,0,0,1,.47-.22.61.61,0,0,1,.34.1.72.72,0,0,1,.3.64.82.82,0,0,1,0,.14l-.45,2.68,1.57-1.74a.79.79,0,0,1,.6-.29.6.6,0,0,1,.49.24.65.65,0,0,1,.13.38.7.7,0,0,1-.44.65l-2.11,1.08,2.11,1.07a.72.72,0,0,1,.44.67.6.6,0,0,1-.15.39.61.61,0,0,1-.47.21.79.79,0,0,1-.6-.28L253.31,159l.45,2.67a.86.86,0,0,1,0,.15.78.78,0,0,1-.17.52.61.61,0,0,1-.48.22.56.56,0,0,1-.32-.11.68.68,0,0,1-.31-.62.76.76,0,0,1,0-.16L253,159l-1.57,1.74a.78.78,0,0,1-.6.28.59.59,0,0,1-.49-.23.6.6,0,0,1-.13-.38.7.7,0,0,1,.44-.66l2.11-1.07-2.11-1.08a.7.7,0,0,1-.44-.66.58.58,0,0,1,.15-.39.6.6,0,0,1,.47-.22.79.79,0,0,1,.6.29Z"/><path class="cls-6" d="M260,158.34l-.45-2.68a.66.66,0,0,1,0-.15.77.77,0,0,1,.17-.51.59.59,0,0,1,.47-.22.61.61,0,0,1,.34.1.72.72,0,0,1,.3.64.82.82,0,0,1,0,.14l-.45,2.68,1.57-1.74a.79.79,0,0,1,.6-.29.6.6,0,0,1,.49.24.65.65,0,0,1,.13.38.7.7,0,0,1-.44.65l-2.11,1.08,2.11,1.07a.72.72,0,0,1,.44.67.6.6,0,0,1-.15.39.61.61,0,0,1-.47.21.79.79,0,0,1-.6-.28L260.31,159l.45,2.67a.86.86,0,0,1,0,.15.78.78,0,0,1-.17.52.61.61,0,0,1-.48.22.56.56,0,0,1-.32-.11.68.68,0,0,1-.31-.62.76.76,0,0,1,0-.16L260,159l-1.57,1.74a.78.78,0,0,1-.6.28.59.59,0,0,1-.49-.23.6.6,0,0,1-.13-.38.7.7,0,0,1,.44-.66l2.11-1.07-2.11-1.08a.7.7,0,0,1-.44-.66.58.58,0,0,1,.15-.39.6.6,0,0,1,.47-.22.79.79,0,0,1,.6.29Z"/><path class="cls-6" d="M33.12,248.51a25.29,25.29,0,0,1-1.92,2v8.63a.52.52,0,0,1-.13.37.59.59,0,0,1-.5.22.57.57,0,0,1-.57-.33.67.67,0,0,1-.05-.26v-7.48a29.57,29.57,0,0,1-5.16,3.6,1.24,1.24,0,0,1-.54.2.35.35,0,0,1-.3-.16.45.45,0,0,1,.09-.63l.75-.45A28.31,28.31,0,0,0,30,250.17v-.3c0-.37.2-.56.61-.56a.54.54,0,0,1,.2,0c.32-.34.55-.59.68-.75L25,249a.85.85,0,0,1-.23,0,.51.51,0,0,1-.39-.52.49.49,0,0,1,.53-.54l11.57-.64a.85.85,0,0,1,.23,0,.51.51,0,0,1,.38.52.48.48,0,0,1-.52.54Zm-.65,2.39a1.54,1.54,0,0,1,.65.29A37.27,37.27,0,0,1,37.06,254a.9.9,0,0,1,.37.66.65.65,0,0,1-.65.64.77.77,0,0,1-.52-.21l-.29-.28a28.23,28.23,0,0,0-3.64-3,.53.53,0,0,1-.28-.41.43.43,0,0,1,.09-.26A.39.39,0,0,1,32.47,250.9Z"/><path class="cls-6" d="M50.88,250.51q.51,0,.51.51a.47.47,0,0,1-.49.53l-3.47.25V254l3.75-.24h0a.48.48,0,0,1,.38.15.49.49,0,0,1,.15.38.5.5,0,0,1-.22.44.62.62,0,0,1-.28.09l-3.81.22v2.53A24.91,24.91,0,0,0,53,258.65c.69.06,1,.14,1,.26s-.1.19-.3.34a2.51,2.51,0,0,1-1.37.62,12.47,12.47,0,0,1-2-.41,35.76,35.76,0,0,1-4.41-1.34,16.18,16.18,0,0,1-2.91-1.5,10.38,10.38,0,0,1-2,2.48,1.25,1.25,0,0,1-.65.37.33.33,0,0,1-.24-.11A.43.43,0,0,1,40,259a.52.52,0,0,1,.19-.37,11.22,11.22,0,0,0,2.83-4.8.62.62,0,0,1,.63-.5.64.64,0,0,1,.24,0,.5.5,0,0,1,.32.52,7.12,7.12,0,0,1-.75,1.94,15.63,15.63,0,0,0,2.86,1.34v-5.32l-2.47.17a.52.52,0,0,1-.56.45c-.31,0-.49-.18-.54-.56l-.58-4.33v-.08a.51.51,0,0,1,.22-.44.66.66,0,0,1,.37-.13.59.59,0,0,1,.52.29l6.92-.62h.24q1.05,0,1.05.9a2.47,2.47,0,0,1,0,.36Zm-1.09.08.38-2.51s0-.07,0-.13-.11-.27-.32-.27h-.11l-6.35.54.33,2.84Z"/><path class="cls-6" d="M60.71,246.63a.63.63,0,0,1,.33.09.54.54,0,0,1,.28.51,4.76,4.76,0,0,1-.91,1.78,14,14,0,0,1-3.68,3.86,1.18,1.18,0,0,1-.59.25.34.34,0,0,1-.3-.15.4.4,0,0,1-.09-.23.62.62,0,0,1,.19-.41l.43-.36a14.89,14.89,0,0,0,2.89-3.39,13.77,13.77,0,0,0,.84-1.47C60.25,246.79,60.45,246.63,60.71,246.63Zm1.65,6.49a8.07,8.07,0,0,1-3.58,5.72,3.17,3.17,0,0,1-1.29.63.37.37,0,0,1-.31-.16.39.39,0,0,1-.11-.27c0-.15.12-.31.38-.48a8.48,8.48,0,0,0,3.15-3.62,6.52,6.52,0,0,0,.51-1.73l-2.09.15h-.09c-.34,0-.51-.16-.51-.52a.48.48,0,0,1,.49-.55l6.32-.41h.23c.82,0,1.23.36,1.23,1.09a18.59,18.59,0,0,1-.3,2.86,11.47,11.47,0,0,1-.87,3.13,1.3,1.3,0,0,1-1.21.85,7.68,7.68,0,0,1-2.6-1,.53.53,0,0,1-.28-.43c0-.23.13-.35.38-.35a1.8,1.8,0,0,1,.53.14,4.47,4.47,0,0,0,1.47.35c.3,0,.53-.2.7-.59a9.09,9.09,0,0,0,.49-1.56,13.41,13.41,0,0,0,.43-3c0-.31-.17-.45-.5-.43Zm1.15-7a.52.52,0,0,1,.38.19s.15.21.37.52a18.87,18.87,0,0,0,3.24,3.45,18.56,18.56,0,0,0,2,1.49c.3.19.46.34.46.46s-.1.18-.28.27a2.36,2.36,0,0,1-.94.25,1.35,1.35,0,0,1-.82-.39,26.22,26.22,0,0,1-4.54-5,1.74,1.74,0,0,1-.34-.71.51.51,0,0,1,.17-.36A.42.42,0,0,1,63.51,246.16Z"/><path class="cls-6" d="M78.57,254.8a6.81,6.81,0,0,0-1.21.86,1.78,1.78,0,0,0-.71,1.24c0,.63.58.94,1.74.94a28.69,28.69,0,0,0,3.3-.17h.16a.5.5,0,0,1,.46.28.64.64,0,0,1,.1.37c0,.29-.19.47-.56.53A22.25,22.25,0,0,1,79,259a9.63,9.63,0,0,1-1.6-.09c-1.26-.24-1.88-.87-1.88-1.91a2.31,2.31,0,0,1,.57-1.53,8.3,8.3,0,0,1,2.5-1.82c-.11-.74-.45-1.11-1-1.11a3.21,3.21,0,0,0-1.81.53,1,1,0,0,1-.55.22.49.49,0,0,1-.37-.18.6.6,0,0,1-.16-.39.74.74,0,0,1,.19-.44,17.41,17.41,0,0,0,1.63-2.73,17.58,17.58,0,0,1-2.08.14c-.45,0-.67-.18-.67-.54a.51.51,0,0,1,.58-.56h.29c.66,0,1.46,0,2.4-.13.26-.54.53-1.15.81-1.82a.64.64,0,0,1,.61-.49.54.54,0,0,1,.27.07.48.48,0,0,1,.3.45.89.89,0,0,1-.12.4c0,.06-.07.16-.14.33l-.47.92a22.12,22.12,0,0,0,2.33-.4,1,1,0,0,1,.25,0,.45.45,0,0,1,.46.33.59.59,0,0,1,0,.23c0,.27-.17.45-.51.53a23.12,23.12,0,0,1-3.13.48,24.8,24.8,0,0,1-1.37,2.41l0,0a3.61,3.61,0,0,1,1.51-.35,1.72,1.72,0,0,1,1.74,1.53,16.21,16.21,0,0,1,3.46-1.47.49.49,0,0,1,.44.21.66.66,0,0,1,.11.36.47.47,0,0,1-.2.39,1.72,1.72,0,0,1-.34.15c-1.21.46-2.34.95-3.38,1.47v1.56c0,.43-.19.65-.56.65s-.56-.22-.56-.65Z"/><path class="cls-6" d="M98.89,254.31l-3.64.31v3.92a.5.5,0,0,1-.57.56.49.49,0,0,1-.55-.56v-3.82l-3.45.29a11.42,11.42,0,0,1-1.27,4c-.15.26-.32.39-.49.39s-.45-.13-.45-.41a1.88,1.88,0,0,1,.18-.55,14,14,0,0,0,1-4.07c.07-.76.11-1.72.11-2.9s0-2,0-2.51-.06-.86-.06-1c0-.51.2-.76.6-.76a.58.58,0,0,1,.54.31l7.89-.8h.26c.76,0,1.13.41,1.13,1.25v10.64c0,.79-.29,1.19-.88,1.19a4.73,4.73,0,0,1-2-.69q-.39-.21-.39-.45a.36.36,0,0,1,.4-.41,1,1,0,0,1,.35.09,3.3,3.3,0,0,0,1,.25c.2,0,.3-.14.3-.43Zm-4.76-.59v-2.27l-3.24.31c0,1-.06,1.71-.1,2.25Zm0-3.26v-2.28l-3.29.33c0,.38,0,.66,0,.86,0,0,0,.52,0,1.4Zm4.76-.47v-1.9c0-.24-.11-.37-.33-.37h-.08l-3.23.34v2.29Zm0,3.33V251l-3.64.35v2.29Z"/><path class="cls-6" d="M111.16,247.21l3.94-.27a.55.55,0,0,1,.26.06.44.44,0,0,1,.25.4.39.39,0,0,1-.4.44l-1.52.1a11,11,0,0,1-.51,1.39l3.74-.23a.62.62,0,0,1,.25.05.42.42,0,0,1,.28.42.4.4,0,0,1-.41.46l-12.72.8h-.07a.44.44,0,0,1-.39-.21.45.45,0,0,1-.07-.25.41.41,0,0,1,.41-.47l3.77-.23c-.06-.2-.18-.55-.37-1l-.1-.26-1.5.11h-.07a.42.42,0,0,1-.41-.23.43.43,0,0,1,0-.23.38.38,0,0,1,.41-.44l4.1-.28v-1.16c0-.37.2-.56.59-.56a.6.6,0,0,1,.43.16.51.51,0,0,1,.16.4Zm-5.28,9.28q.39,0,.39.54a5.41,5.41,0,0,1-.6,2.34c-.16.32-.36.48-.62.48a.6.6,0,0,1-.33-.1.58.58,0,0,1-.29-.49,1,1,0,0,1,.22-.51,5.15,5.15,0,0,0,.78-1.81Q105.55,256.49,105.88,256.49Zm7.75-1.26-5.81.31a.51.51,0,0,1-.54.43c-.34,0-.52-.19-.56-.55l-.42-3.55s0-.05,0-.08a.49.49,0,0,1,.21-.43.58.58,0,0,1,.83.1l6.78-.45h.13c.61,0,.91.28.91.86,0,.07,0,.16,0,.28l-.41,2.95c-.06.36-.25.55-.58.55A.46.46,0,0,1,113.63,255.23Zm-6.13,1.15c.14,0,.32.14.53.42a5.11,5.11,0,0,0,2.16,1.6,7.7,7.7,0,0,0,2.93.5c.7,0,1.06-.1,1.06-.28a2.63,2.63,0,0,0-.59-.93.7.7,0,0,1-.19-.38c0-.2.1-.3.31-.3s.58.27,1.11.82a2.38,2.38,0,0,1,.79,1.26c0,.59-.61.88-1.81.88a8.87,8.87,0,0,1-4.94-1.17,5.43,5.43,0,0,1-1.56-1.63.8.8,0,0,1-.16-.4Q107.14,256.38,107.5,256.38Zm6.39-3.71,0-.41v-.07c0-.24-.11-.35-.32-.33l-6.11.42.09.77Zm-.1.84-6.11.37.08.81,5.94-.32Zm-5.22-5.22a6.54,6.54,0,0,1,.47,1.31l3-.2c.19-.57.33-1,.41-1.38Zm1.75,7.58a.74.74,0,0,1,.42.21,2.39,2.39,0,0,0,1.05.65c.08,0,.15-.05.24-.15a.44.44,0,0,1,.32-.19c.17,0,.26.1.26.31a1.49,1.49,0,0,1-.24.74.64.64,0,0,1-.55.38,2,2,0,0,1-1.12-.62c-.5-.44-.75-.77-.75-1a.35.35,0,0,1,.11-.24A.34.34,0,0,1,110.32,255.87Zm4.75-.21a5.08,5.08,0,0,1,1.65.91,7.91,7.91,0,0,1,.68.51.77.77,0,0,1,.31.57.59.59,0,0,1-.15.38.56.56,0,0,1-.44.2,1,1,0,0,1-.73-.42c-.27-.3-.78-.77-1.51-1.41a.47.47,0,0,1-.19-.36A.34.34,0,0,1,115.07,255.66Z"/><path class="cls-6" d="M128.17,249.31c-2,.42-4.08.77-6.13,1.07-.79.12-1.22.17-1.32.17a.57.57,0,0,1-.64-.65.51.51,0,0,1,.36-.5,6,6,0,0,1,.85-.12c1-.09,2.3-.28,4-.55s3.09-.52,4.36-.78a1.83,1.83,0,0,1,.43,0,.66.66,0,0,1,.62.32.87.87,0,0,1,.12.42c0,.21-.19.4-.56.55a6.5,6.5,0,0,0-2.57,2,5.2,5.2,0,0,0-1.32,3.31,3.08,3.08,0,0,0,.92,2.23,4.22,4.22,0,0,0,1.87,1.08c.38.11.57.32.57.65s-.21.58-.64.58a3.44,3.44,0,0,1-1.64-.62,4.29,4.29,0,0,1-2.29-3.81,5.64,5.64,0,0,1,.61-2.49A7.9,7.9,0,0,1,128.17,249.31Zm3-2.73a.82.82,0,0,1,.44.18,5.23,5.23,0,0,1,1.47,1.46.8.8,0,0,1,.14.4.44.44,0,0,1-.17.35.48.48,0,0,1-.33.12c-.15,0-.3-.11-.44-.33a8.62,8.62,0,0,0-1.18-1.48.67.67,0,0,1-.23-.4A.27.27,0,0,1,131.2,246.58Zm1.37-1a2.6,2.6,0,0,1,1.28.78c.49.45.74.8.74,1.07a.48.48,0,0,1-.17.39.53.53,0,0,1-.31.11.57.57,0,0,1-.43-.31,9.41,9.41,0,0,0-1.18-1.39.57.57,0,0,1-.22-.37C132.28,245.71,132.38,245.62,132.57,245.62Z"/><path class="cls-6" d="M141.72,248.67a13.14,13.14,0,0,1-.78-2,.43.43,0,0,1,.24-.4.72.72,0,0,1,.38-.1c.27,0,.49.21.63.64a16.39,16.39,0,0,0,.67,1.64c1.08-.19,1.85-.35,2.29-.47a1.48,1.48,0,0,1,.32-.05c.36,0,.53.18.53.55s-.18.44-.55.52c-.53.12-1.24.26-2.15.43q.55,1.16,1,1.86c.83-.18,1.45-.32,1.84-.43a1.78,1.78,0,0,1,.47-.09c.35,0,.52.2.52.58,0,.23-.14.39-.42.47s-1,.26-1.88.43a16.7,16.7,0,0,0,1.1,1.62,1.34,1.34,0,0,1,.36.85c0,.33-.22.5-.65.5a2.2,2.2,0,0,1-.38-.05,15.67,15.67,0,0,0-1.77-.32c-.26,0-.38-.14-.38-.33s.15-.38.46-.38l.92.06.37,0c-.31-.44-.69-1-1.13-1.74a33.22,33.22,0,0,1-3.86.63c-.4,0-.6-.19-.6-.56a.44.44,0,0,1,.32-.43,2.66,2.66,0,0,1,.45-.1c.92-.12,2-.28,3.14-.5-.38-.72-.69-1.34-.94-1.88l-.24,0c-2,.33-3.08.5-3.32.5s-.59-.18-.59-.55.22-.48.65-.53,1.25-.17,2.78-.41Zm2.55,9.48h.19c.43,0,.65.19.65.59s-.29.59-.86.59a6.89,6.89,0,0,1-3.85-.94,3,3,0,0,1-1.19-1.5,1,1,0,0,1-.07-.35.43.43,0,0,1,.47-.49q.31,0,.54.48C140.67,257.61,142.05,258.15,144.27,258.15Z"/><path class="cls-6" d="M155.39,249c.26-.68.5-1.36.72-2.06.12-.38.32-.56.62-.56a.85.85,0,0,1,.23,0,.47.47,0,0,1,.32.49,10.81,10.81,0,0,1-.64,1.93c.55-.08,1-.17,1.4-.26a1.16,1.16,0,0,1,.28,0c.34,0,.5.18.5.53s-.19.51-.57.58c-.63.12-1.32.23-2.05.34a34.5,34.5,0,0,1-2.24,4.58l-.2.31a.59.59,0,0,1-.49.27.62.62,0,0,1-.34-.11.47.47,0,0,1-.23-.4,1.64,1.64,0,0,1,.3-.68,25.86,25.86,0,0,0,1.92-3.79c-.91.11-1.53.17-1.88.17a.5.5,0,0,1-.42-.2.56.56,0,0,1-.12-.36c0-.34.26-.52.76-.56S154.48,249.1,155.39,249Zm5.13,6.78a12.86,12.86,0,0,1,2.48,1.08q.42.25.42.57a.51.51,0,0,1-.1.3.53.53,0,0,1-.46.27,1,1,0,0,1-.44-.18,10.6,10.6,0,0,0-1.9-1v.62c0,1.19-.56,1.78-1.68,1.78a3,3,0,0,1-2-.74A2,2,0,0,1,156,257a1.37,1.37,0,0,1,.67-1.21,2.42,2.42,0,0,1,1.33-.35,8.68,8.68,0,0,1,1.42.13v-1.81a2.84,2.84,0,0,1,.15-1.06.59.59,0,0,1,.58-.38.43.43,0,0,1,.48.49.93.93,0,0,1-.06.29,2.71,2.71,0,0,0-.08.74Zm-1.07.77a8.07,8.07,0,0,0-1.27-.14c-.68,0-1,.19-1,.58a1,1,0,0,0,.32.68,1.79,1.79,0,0,0,1.33.58c.43,0,.64-.25.64-.77Zm3.57-5.31a7.52,7.52,0,0,0-1.69-1.36.44.44,0,0,1-.23-.36c0-.26.14-.39.44-.39a2.61,2.61,0,0,1,.94.4c1.31.75,2,1.38,2,1.92,0,.32-.26.49-.77.5a10,10,0,0,0-1.17.14l-.15,0c-.24,0-.36-.09-.36-.28a.34.34,0,0,1,.23-.33A5.78,5.78,0,0,1,163,251.23Z"/><path class="cls-6" d="M169.46,248.81c.39,0,.58.26.58.77a17.11,17.11,0,0,0,.46,4.08,6.92,6.92,0,0,0,1.2,2.78c.11.15.22.22.3.22s.19-.1.29-.3c.5-1.06.87-1.59,1.12-1.59a.53.53,0,0,1,.23.06.37.37,0,0,1,.2.35.91.91,0,0,1-.1.34c-.23.51-.49,1.19-.78,2-.17.47-.43.7-.79.7a1.78,1.78,0,0,1-1.23-.8,7.59,7.59,0,0,1-1.3-2.36,12.91,12.91,0,0,1-.64-2.89c-.13-1.21-.19-2.07-.19-2.57S169,248.81,169.46,248.81Zm8.18.09a.56.56,0,0,1,.41.23,18.32,18.32,0,0,1,1.89,2.75,5.57,5.57,0,0,1,.88,2,.58.58,0,0,1-.29.52.74.74,0,0,1-.39.12.58.58,0,0,1-.52-.29,2.57,2.57,0,0,1-.19-.43,17.24,17.24,0,0,0-2.14-3.92.79.79,0,0,1-.19-.47.38.38,0,0,1,.13-.3A.57.57,0,0,1,177.64,248.9Z"/><path class="cls-6" d="M187.39,249c.26-.68.5-1.36.72-2.06.12-.38.32-.56.62-.56a.85.85,0,0,1,.23,0,.47.47,0,0,1,.32.49,10.81,10.81,0,0,1-.64,1.93c.55-.08,1-.17,1.4-.26a1.16,1.16,0,0,1,.28,0c.34,0,.5.18.5.53s-.19.51-.57.58c-.63.12-1.32.23-2.05.34a34.5,34.5,0,0,1-2.24,4.58l-.2.31a.59.59,0,0,1-.49.27.62.62,0,0,1-.34-.11.47.47,0,0,1-.23-.4,1.64,1.64,0,0,1,.3-.68,25.86,25.86,0,0,0,1.92-3.79c-.91.11-1.53.17-1.88.17a.5.5,0,0,1-.42-.2.56.56,0,0,1-.12-.36c0-.34.26-.52.76-.56S186.48,249.1,187.39,249Zm5.13,6.78a12.86,12.86,0,0,1,2.48,1.08q.42.25.42.57a.51.51,0,0,1-.1.3.53.53,0,0,1-.46.27,1,1,0,0,1-.44-.18,10.6,10.6,0,0,0-1.9-1v.62c0,1.19-.56,1.78-1.68,1.78a3,3,0,0,1-2-.74A2,2,0,0,1,188,257a1.37,1.37,0,0,1,.67-1.21,2.42,2.42,0,0,1,1.33-.35,8.68,8.68,0,0,1,1.42.13v-1.81a2.84,2.84,0,0,1,.15-1.06.59.59,0,0,1,.58-.38.43.43,0,0,1,.48.49.93.93,0,0,1-.06.29,2.71,2.71,0,0,0-.08.74Zm-1.07.77a8.07,8.07,0,0,0-1.27-.14c-.68,0-1,.19-1,.58a1,1,0,0,0,.32.68,1.79,1.79,0,0,0,1.33.58c.43,0,.64-.25.64-.77Zm3.57-5.31a7.52,7.52,0,0,0-1.69-1.36.44.44,0,0,1-.23-.36c0-.26.14-.39.44-.39a2.61,2.61,0,0,1,.94.4c1.31.75,2,1.38,2,1.92,0,.32-.26.49-.77.5a10,10,0,0,0-1.17.14l-.15,0c-.24,0-.36-.09-.36-.28a.34.34,0,0,1,.23-.33A5.78,5.78,0,0,1,195,251.23Z"/><path class="cls-6" d="M204.18,254.56a8,8,0,0,1,4.34-1.36,3.47,3.47,0,0,1,2,.53,2.23,2.23,0,0,1,1,1.94,3.16,3.16,0,0,1-2,2.9,7.9,7.9,0,0,1-2.26.69,3.08,3.08,0,0,1-.52.07.41.41,0,0,1-.47-.46.37.37,0,0,1,.26-.35l.57-.13a5.39,5.39,0,0,0,2.22-1,2.15,2.15,0,0,0,.94-1.72,1.32,1.32,0,0,0-.6-1.14,2.09,2.09,0,0,0-1.17-.32,7.59,7.59,0,0,0-4.16,1.45,1.15,1.15,0,0,1-.64.22.6.6,0,0,1-.49-.22.84.84,0,0,1-.18-.56,27.18,27.18,0,0,1,.48-3.17c.18-1,.3-1.62.36-1.87a.6.6,0,0,1,.64-.47.48.48,0,0,1,.35.13.57.57,0,0,1,.18.44,2,2,0,0,1-.1.45,22.61,22.61,0,0,0-.68,3.72Zm2.7-6.26a5.91,5.91,0,0,0-1.6-1.36c-.17-.1-.25-.21-.25-.34s.14-.34.42-.34a2.48,2.48,0,0,1,.88.32,5.43,5.43,0,0,1,1.51,1.06,1.37,1.37,0,0,1,.46.89c0,.31-.26.47-.77.48a10,10,0,0,0-1.17.14l-.15,0c-.24,0-.36-.09-.36-.28a.34.34,0,0,1,.22-.33A6.55,6.55,0,0,1,206.88,248.3Z"/><path class="cls-6" d="M25.93,270.87v9.56c0,.35-.19.53-.57.53s-.58-.18-.58-.53v-7.82q-1.52,2.13-2,2.13a.42.42,0,0,1-.3-.14.43.43,0,0,1-.12-.28.61.61,0,0,1,.14-.36s.14-.15.34-.38a12.7,12.7,0,0,0,1.36-1.91A26.67,26.67,0,0,0,26,267.93c.15-.39.36-.58.64-.58a.51.51,0,0,1,.29.08.55.55,0,0,1,.32.51,3.68,3.68,0,0,1-.47,1.27C26.55,269.78,26.25,270.33,25.93,270.87ZM32,273.63l3.88-.26a.72.72,0,0,1,.43.09.53.53,0,0,1,.22.46c0,.32-.19.49-.57.52l-4,.25v4.37l3.14-.13h0a.55.55,0,0,1,.42.12.52.52,0,0,1,.17.41.51.51,0,0,1-.55.58l-7.18.29H28a.47.47,0,0,1-.53-.52.49.49,0,0,1,.54-.55l2.86-.14v-4.35l-3.78.24H27c-.37,0-.56-.17-.56-.5s.19-.52.56-.54l3.86-.25v-3.64a15.16,15.16,0,0,1-3,.75.38.38,0,0,1-.44-.43.39.39,0,0,1,.23-.36,5.28,5.28,0,0,1,.54-.17,24.87,24.87,0,0,0,5.15-2.09.94.94,0,0,1,.46-.14.63.63,0,0,1,.5.25.59.59,0,0,1,.15.4.7.7,0,0,1-.47.65c-.37.16-1,.41-2,.75Z"/><path class="cls-6" d="M45.94,268.32l3.94-.26a.71.71,0,0,1,.26.05.45.45,0,0,1,.25.41.39.39,0,0,1-.4.44l-1.52.1a11.57,11.57,0,0,1-.51,1.39l3.74-.24a.62.62,0,0,1,.25.05.42.42,0,0,1,.28.42c0,.3-.14.45-.41.46L39.1,272H39a.43.43,0,0,1-.4-.22.4.4,0,0,1-.07-.24c0-.3.13-.46.41-.47l3.77-.24c-.06-.19-.18-.54-.37-1l-.09-.27-1.51.11h-.07a.41.41,0,0,1-.41-.22.46.46,0,0,1,0-.23.39.39,0,0,1,.41-.45l4.1-.28v-1.15a.51.51,0,0,1,.59-.57.66.66,0,0,1,.44.17.54.54,0,0,1,.15.4Zm-5.28,9.29c.26,0,.39.17.39.53a5.49,5.49,0,0,1-.6,2.35.69.69,0,0,1-.62.47.6.6,0,0,1-.33-.1.55.55,0,0,1-.29-.48,1.11,1.11,0,0,1,.22-.52,5,5,0,0,0,.78-1.8Q40.33,277.61,40.66,277.61Zm7.75-1.26-5.8.3a.51.51,0,0,1-.55.43c-.34,0-.52-.18-.56-.55L41.08,273s0-.06,0-.09a.5.5,0,0,1,.22-.43.58.58,0,0,1,.36-.12.57.57,0,0,1,.46.22l6.78-.45H49c.61,0,.91.29.91.86a1.52,1.52,0,0,1,0,.28l-.41,2.95c-.06.37-.25.55-.57.55A.47.47,0,0,1,48.41,276.35Zm-6.12,1.15c.14,0,.31.14.52.42A5.09,5.09,0,0,0,45,279.51a7.7,7.7,0,0,0,2.93.5c.71,0,1.06-.09,1.06-.28a2.55,2.55,0,0,0-.59-.92.77.77,0,0,1-.19-.38.28.28,0,0,1,.31-.31c.21,0,.58.27,1.11.82s.79,1,.79,1.27c0,.59-.6.88-1.81.88a8.87,8.87,0,0,1-4.94-1.17,5.47,5.47,0,0,1-1.56-1.64.81.81,0,0,1-.16-.39C41.92,277.63,42,277.5,42.29,277.5Zm6.38-3.72,0-.41v-.07c0-.23-.1-.34-.32-.33l-6.1.42.08.78Zm-.1.84-6.11.38.08.8,5.94-.32Zm-5.22-5.22a6.76,6.76,0,0,1,.47,1.31l3-.19c.19-.57.33-1,.41-1.38ZM45.1,277a.74.74,0,0,1,.42.21q.76.66,1,.66c.08,0,.15-.05.24-.15a.46.46,0,0,1,.32-.2c.18,0,.26.11.26.32a1.55,1.55,0,0,1-.24.74.62.62,0,0,1-.54.37,1.94,1.94,0,0,1-1.13-.61c-.5-.45-.75-.77-.75-1a.38.38,0,0,1,.11-.25A.38.38,0,0,1,45.1,277Zm4.75-.2a5.17,5.17,0,0,1,1.65.9c.29.21.52.38.68.52a.75.75,0,0,1,.31.56.57.57,0,0,1-.15.38.54.54,0,0,1-.44.21,1,1,0,0,1-.72-.42c-.28-.31-.79-.78-1.52-1.42a.46.46,0,0,1-.19-.35A.33.33,0,0,1,49.85,276.78Z"/><path class="cls-6" d="M56.48,274.68c0,1.4-.35,2.1-.88,2.1a.71.71,0,0,1-.31-.08.47.47,0,0,1-.29-.47,1,1,0,0,1,.1-.39,7.49,7.49,0,0,0,.5-2.2c0-.31.16-.46.41-.46h0c.25,0,.39.16.43.5L67.11,273h.1c.5,0,.75.17.75.53a3.27,3.27,0,0,1-.91,1.64c-.37.45-.65.67-.83.67s-.4-.12-.4-.35a.79.79,0,0,1,.11-.33,6.27,6.27,0,0,0,.39-.81.59.59,0,0,0,.05-.19q0-.09-.18-.09H66Zm3.17.68c.42,0,.64.19.64.59A4.39,4.39,0,0,1,60,277a5.79,5.79,0,0,1-3.42,3.64,2.79,2.79,0,0,1-.85.26.33.33,0,0,1-.29-.15.43.43,0,0,1-.1-.26.37.37,0,0,1,.15-.3l.55-.29a5.27,5.27,0,0,0,2-1.72,6.58,6.58,0,0,0,1-2.37A.55.55,0,0,1,59.65,275.36Zm2.47-5.59v1.3l3.41-.21h0a.46.46,0,0,1,.26.06.48.48,0,0,1-.19.9l-8,.5h-.09c-.33,0-.49-.16-.49-.47a.43.43,0,0,1,.46-.49l3.4-.22v-1.29l-4.13.26H56.7a.43.43,0,0,1-.41-.2.49.49,0,0,1-.09-.3.45.45,0,0,1,.47-.5l4.24-.26v-1.43a.53.53,0,0,1,.2-.44.7.7,0,0,1,.4-.12A.64.64,0,0,1,62,267a.52.52,0,0,1,.16.4v1.35l4.23-.27c.37,0,.56.17.56.51a.43.43,0,0,1-.45.49Zm1,5.57,0,3.71c0,.28.07.46.25.54a4.7,4.7,0,0,0,1.28.09,18.26,18.26,0,0,0,2.16-.09.63.63,0,0,0,.58-.52,5.84,5.84,0,0,0,.08-1.09c0-.37.13-.56.39-.56s.41.16.48.47a9.47,9.47,0,0,1,.19,1.69.94.94,0,0,1-.73,1,13.72,13.72,0,0,1-3.11.21,16.15,16.15,0,0,1-1.8-.06,1.06,1.06,0,0,1-.88-.52,1.71,1.71,0,0,1-.13-.7v-.07l.07-4.08a.61.61,0,0,1,1.21,0Z"/><path class="cls-6" d="M74.5,273.71a29.94,29.94,0,0,1-1.82,3.87,27,27,0,0,0,3.47-.79,12.58,12.58,0,0,0-.72-1.15.49.49,0,0,1-.08-.25.29.29,0,0,1,.1-.21.41.41,0,0,1,.3-.13.75.75,0,0,1,.51.29,10.93,10.93,0,0,1,1.7,2.32,1,1,0,0,1,.14.45.56.56,0,0,1-.2.42.64.64,0,0,1-.41.17.57.57,0,0,1-.47-.24,2.34,2.34,0,0,1-.18-.35l-.28-.57a34.88,34.88,0,0,1-3.88,1.2,4.75,4.75,0,0,1-.76.15.61.61,0,0,1-.49-.33.78.78,0,0,1-.15-.38,1,1,0,0,1,.17-.46,25,25,0,0,0,1.76-3.86l-2.51.29h-.1a.42.42,0,0,1-.48-.48c0-.32.18-.49.53-.54l3.09-.36v-2.07L71.4,271h-.1c-.33,0-.49-.17-.49-.51s.18-.5.55-.53l2.38-.27v-2a.56.56,0,0,1,1.12,0v1.89l2-.22H77a.45.45,0,0,1,.51.52c0,.32-.18.5-.55.54l-2.1.23v2.05l3-.36H78c.34,0,.51.16.51.49s-.17.51-.53.55Zm4.41-3.81c-.35,0-.53-.18-.53-.55a.51.51,0,0,1,.51-.56l3.92-.44.32,0a.79.79,0,0,1,.81.47,4.3,4.3,0,0,1,.13,1.31,39.11,39.11,0,0,1-.28,5.87c-.14.66-.46,1-1,1a3.75,3.75,0,0,1-1.28-.36c-.58-.25-.87-.48-.87-.7a.41.41,0,0,1,.4-.4.79.79,0,0,1,.3.07,3,3,0,0,0,.89.18.38.38,0,0,0,.39-.36q0-.13.09-.81c.13-1.35.2-2.79.2-4.33a1.27,1.27,0,0,0-.13-.72.45.45,0,0,0-.27-.08h-.07l-2.41.31v10.89a.56.56,0,0,1-.08.3.54.54,0,0,1-.49.26.52.52,0,0,1-.53-.32.6.6,0,0,1,0-.24Z"/><path class="cls-6" d="M89.14,277.54q.51-1.17.75-1.62c.09-.17.2-.26.32-.26a.35.35,0,0,1,.18,0,.32.32,0,0,1,.19.29,1.33,1.33,0,0,1-.08.3,11.52,11.52,0,0,0-.75,2.53,1.14,1.14,0,0,1-.23.57.52.52,0,0,1-.4.21c-.3,0-.54-.21-.73-.64a8.77,8.77,0,0,1-.51-3.42,56.9,56.9,0,0,1,.43-5.81,4,4,0,0,1,.12-.75.54.54,0,0,1,.56-.39.56.56,0,0,1,.47.22.61.61,0,0,1,.12.39,4.7,4.7,0,0,1-.06.52c-.16,1-.31,2.36-.45,4,0,.7-.07,1.28-.07,1.73A19.72,19.72,0,0,0,89.14,277.54Zm4.1-1.37a.52.52,0,0,1,.41.24c.6.77,1.95,1.15,4.06,1.15a5,5,0,0,0,.58,0h.17a.65.65,0,0,1,.54.23.56.56,0,0,1,.13.37.65.65,0,0,1-.27.54,1.32,1.32,0,0,1-.72.13,12.48,12.48,0,0,1-3-.35,3.64,3.64,0,0,1-2-1.14,1.19,1.19,0,0,1-.33-.69.43.43,0,0,1,.45-.45ZM97.61,271a14,14,0,0,0-3.81.71,1.13,1.13,0,0,1-.34.07.49.49,0,0,1-.49-.3.6.6,0,0,1,0-.22c0-.18.15-.33.46-.46a13.62,13.62,0,0,1,2.75-.82,8.26,8.26,0,0,1,1.38-.14c.78,0,1.16.21,1.16.63s-.23.54-.68.54Z"/><path class="cls-6" d="M106.17,270.11q.39-1,.72-2.07c.12-.37.32-.56.62-.56a.59.59,0,0,1,.23,0,.47.47,0,0,1,.32.48,11.26,11.26,0,0,1-.63,1.93c.54-.08,1-.17,1.39-.25a1.16,1.16,0,0,1,.28,0c.34,0,.51.17.51.53s-.2.5-.57.58c-.64.12-1.33.23-2.06.33a34.09,34.09,0,0,1-2.24,4.59l-.2.3a.6.6,0,0,1-.49.28.62.62,0,0,1-.34-.11.49.49,0,0,1-.23-.41,1.55,1.55,0,0,1,.31-.67,27.15,27.15,0,0,0,1.91-3.8,16.33,16.33,0,0,1-1.88.17.48.48,0,0,1-.42-.2.54.54,0,0,1-.11-.35c0-.34.25-.53.75-.56S105.26,270.21,106.17,270.11Zm5.13,6.78a12.27,12.27,0,0,1,2.48,1.07q.42.26.42.57a.58.58,0,0,1-.09.3.57.57,0,0,1-.47.28,1,1,0,0,1-.44-.18,11.41,11.41,0,0,0-1.9-1v.63q0,1.77-1.68,1.77a3,3,0,0,1-2-.73,2,2,0,0,1-.85-1.56,1.36,1.36,0,0,1,.67-1.21,2.34,2.34,0,0,1,1.33-.36,8.8,8.8,0,0,1,1.42.14v-1.82a2.87,2.87,0,0,1,.15-1.06.58.58,0,0,1,.58-.37.43.43,0,0,1,.48.49,1,1,0,0,1-.06.29,2.63,2.63,0,0,0-.08.73Zm-1.07.77a7.19,7.19,0,0,0-1.27-.15c-.68,0-1,.2-1,.59a1,1,0,0,0,.32.68,1.83,1.83,0,0,0,1.33.58c.43,0,.64-.26.64-.77Zm3.57-5.31a7.25,7.25,0,0,0-1.69-1.36.44.44,0,0,1-.23-.36c0-.27.14-.4.44-.4a2.71,2.71,0,0,1,.94.41c1.31.74,2,1.38,2,1.91,0,.33-.26.5-.77.5a8.17,8.17,0,0,0-1.16.15h-.16c-.24,0-.36-.09-.36-.28a.32.32,0,0,1,.23-.32A4.67,4.67,0,0,1,113.8,272.35Z"/><path class="cls-6" d="M126.6,269.21a26.67,26.67,0,0,1-3.75.61.6.6,0,0,1-.49-.2.52.52,0,0,1-.13-.37.51.51,0,0,1,.38-.53,4.13,4.13,0,0,1,.53-.06,23.12,23.12,0,0,0,3.91-.57,1,1,0,0,1,.27,0,.87.87,0,0,1,.56.21.72.72,0,0,1,.28.57.76.76,0,0,1-.18.48c-.14.17-.55.64-1.23,1.4q-2,2.25-3.85,3.93l0,0a6.94,6.94,0,0,1,3.92-1.31,4.42,4.42,0,0,1,2.45.65,2.75,2.75,0,0,1,1.4,2.43,3.35,3.35,0,0,1-1.69,3,6.13,6.13,0,0,1-3.29.82,3.37,3.37,0,0,1-1.66-.39,1.66,1.66,0,0,1-1-1.45,1.32,1.32,0,0,1,.5-1,2.57,2.57,0,0,1,1.74-.58,3.14,3.14,0,0,1,2.17.87,4.12,4.12,0,0,1,.73.93,2.48,2.48,0,0,0,1.19-2.13,1.84,1.84,0,0,0-.75-1.49,2.79,2.79,0,0,0-1.87-.61,8.34,8.34,0,0,0-5.12,2.05,1.1,1.1,0,0,1-.62.29.5.5,0,0,1-.39-.22.76.76,0,0,1-.18-.48.73.73,0,0,1,.2-.48,6.49,6.49,0,0,1,.5-.48,59.59,59.59,0,0,0,5.45-5.82Zm.54,9.87a2.11,2.11,0,0,0-1.84-1.23,1.38,1.38,0,0,0-.84.23.48.48,0,0,0-.21.38.6.6,0,0,0,.26.45,2,2,0,0,0,1.25.35A5.69,5.69,0,0,0,127.14,279.08Z"/><path class="cls-6" d="M136.51,276.81a2,2,0,0,1,1.73,3.12,1.92,1.92,0,0,1-1.74,1,2,2,0,0,1-1.3-.47,2,2,0,0,1-.74-1.58,1.92,1.92,0,0,1,.86-1.66A2,2,0,0,1,136.51,276.81Zm0,.8a1.24,1.24,0,0,0-.64.18,1.16,1.16,0,0,0-.61,1.07,1.28,1.28,0,0,0,1.26,1.25,1.09,1.09,0,0,0,.56-.15,1.15,1.15,0,0,0,.68-1.1,1.19,1.19,0,0,0-.39-.92A1.23,1.23,0,0,0,136.5,277.61Z"/><rect class="cls-6" x="291.52" y="91.5" width="12.23" height="1"/><polygon class="cls-6" points="306.28 92 303.32 90.28 303.32 93.71 306.28 92"/><rect class="cls-6" x="230.13" y="158.16" width="12.23" height="1"/><polygon class="cls-6" points="244.9 158.66 241.93 156.94 241.93 160.37 244.9 158.66"/></g></g></svg>