<svg xmlns="http://www.w3.org/2000/svg" viewBox="0 0 320 228.86"><defs><style>.cls-1{fill:#8c6c47;}.cls-2{opacity:0.8;}.cls-3{fill:#c5a06b;}.cls-4{fill:#ffe9cc;}.cls-5{fill:#e0647f;}.cls-6{fill:#fff;}.cls-7{fill:#f1f1f1;}</style></defs><title>Asset 5</title><g id="Layer_2" data-name="Layer 2"><g id="Layer_4" data-name="Layer 4"><path class="cls-1" d="M91.6,214.18c.29,0,.44.16.44.47a.43.43,0,0,1-.15.31l-.45.34a7.57,7.57,0,0,0-1.85,2.14,8.26,8.26,0,0,0,0,8.08,7.54,7.54,0,0,0,2.13,2.33.56.56,0,0,1,.29.44.39.39,0,0,1-.45.44,1.26,1.26,0,0,1-.65-.31,8.52,8.52,0,0,1-2.39-2.61,8.43,8.43,0,0,1,.31-9.18,8.13,8.13,0,0,1,2.33-2.31A.78.78,0,0,1,91.6,214.18Z"/><path class="cls-1" d="M101.58,218.76c.29.25.43.46.43.65a.59.59,0,0,1-.12.35l4.83-.47h.09a.7.7,0,0,1,.42.12.48.48,0,0,1,.23.42c0,.42-.67,1.27-2,2.54-.61.58-1,.87-1.22.87a.44.44,0,0,1-.29-.12.45.45,0,0,1-.16-.32.82.82,0,0,1,.31-.49,14.81,14.81,0,0,0,1.25-1.48.44.44,0,0,0,.1-.22c0-.06,0-.09-.17-.09h-.11l-10,1h-.12c-.37,0-.55-.17-.55-.52a.53.53,0,0,1,.55-.6l5.77-.56-.18-.21a12,12,0,0,0-2-1.82.46.46,0,0,1-.19-.34.44.44,0,0,1,.16-.34.34.34,0,0,1,.22-.1,1.84,1.84,0,0,1,.61.24,12.16,12.16,0,0,1,1.34.88,16.06,16.06,0,0,0,1.82-1.59c.18-.18.27-.29.27-.34s-.07-.1-.2-.1h-.11l-5.36.56h-.11c-.37,0-.55-.19-.55-.57s.18-.47.54-.51L104,215h.15c.51,0,.76.17.76.53a1.3,1.3,0,0,1-.47.79A20.6,20.6,0,0,1,101.58,218.76Zm.27,3v5.79a1,1,0,0,1-1.12,1.09,5.45,5.45,0,0,1-1.62-.36A7.89,7.89,0,0,1,98,227.8c-.22-.12-.33-.26-.33-.41A.34.34,0,0,1,98,227a1.9,1.9,0,0,1,.43.09,6.7,6.7,0,0,0,1.79.31c.19,0,.32-.06.36-.17a.84.84,0,0,0,.06-.36v-5.12a.5.5,0,0,1,.22-.43.63.63,0,0,1,.87.1A.57.57,0,0,1,101.85,221.76Z"/><path class="cls-1" d="M111.44,223.55a.54.54,0,0,1,.25.06.52.52,0,0,1,.33.5,3.51,3.51,0,0,1-.37,1.15,10.51,10.51,0,0,1-.81,1.5c-.26.4-.48.6-.65.6a.43.43,0,0,1-.23-.07.38.38,0,0,1-.16-.32,1.26,1.26,0,0,1,.15-.45,16.82,16.82,0,0,0,1-2.48C111,223.71,111.17,223.55,111.44,223.55Zm1.32-4.3a24,24,0,0,0,1.61-2.11.72.72,0,0,1,.58-.4.57.57,0,0,1,.35.12.5.5,0,0,1,.21.4.82.82,0,0,1-.18.47,30.65,30.65,0,0,1-2.71,3.13,15.44,15.44,0,0,1-1.17,1.07,19.48,19.48,0,0,0,3.14-.78l-.38-.67a.56.56,0,0,1-.1-.3.39.39,0,0,1,.37-.36.55.55,0,0,1,.42.26,8,8,0,0,1,1.07,1.57,1.23,1.23,0,0,1,.16.53.42.42,0,0,1-.21.4.51.51,0,0,1-.3.1c-.24,0-.43-.18-.57-.53l-.11-.29c-.26.1-.66.23-1.2.4V228a.49.49,0,0,1-.11.31.54.54,0,0,1-.42.17.5.5,0,0,1-.45-.22.44.44,0,0,1-.07-.26v-5.47a13.79,13.79,0,0,1-2.14.47.42.42,0,0,1-.36-.22.71.71,0,0,1-.14-.38.46.46,0,0,1,.08-.25,4.25,4.25,0,0,1,.36-.4l1.67-1.83q-.66-.25-1.29-.45c-.45-.14-.68-.34-.68-.59a1.62,1.62,0,0,1,.49-.85,19.26,19.26,0,0,0,2.1-3,.61.61,0,0,1,.52-.35.52.52,0,0,1,.34.12.46.46,0,0,1,.21.4,1.35,1.35,0,0,1-.29.66,28.76,28.76,0,0,1-2.22,2.78A14.52,14.52,0,0,1,112.76,219.25Zm2,3.87q.22,0,.57.6c.21.38.47.93.78,1.66a.93.93,0,0,1,.08.35.51.51,0,0,1-.29.48.67.67,0,0,1-.28.06c-.27,0-.45-.2-.55-.61a17.6,17.6,0,0,0-.63-1.92,1,1,0,0,1,0-.27C114.36,223.24,114.48,223.12,114.73,223.12Zm4.78-5.15q.08-1.09.09-2.85c0-.4.18-.61.55-.61a.48.48,0,0,1,.41.17,1.74,1.74,0,0,1,.11.79c0,.71,0,1.51-.1,2.4l2.27-.22H123a.81.81,0,0,1,.73.31.79.79,0,0,1,.13.31,12.4,12.4,0,0,1,0,1.31c0,.83,0,2.57-.12,5.21a17.54,17.54,0,0,1-.25,3.22.75.75,0,0,1-.78.5,5.63,5.63,0,0,1-1.71-.41c-.25-.09-.37-.23-.37-.41a.36.36,0,0,1,.41-.41.84.84,0,0,1,.23,0,3.9,3.9,0,0,0,.84.15c.24,0,.38-.16.41-.46.16-1.46.23-4,.23-7.72,0-.29,0-.45-.07-.49a.34.34,0,0,0-.25-.07h0l-2,.18c-.08.61-.15,1.12-.22,1.54a22.84,22.84,0,0,1,1.93,2.67,2.24,2.24,0,0,1,.39.84.49.49,0,0,1-.18.38.65.65,0,0,1-.42.16.56.56,0,0,1-.46-.23,2.13,2.13,0,0,1-.17-.33c-.3-.61-.74-1.41-1.33-2.39a9.89,9.89,0,0,1-1.38,3.16c-.17.23-.33.34-.48.34a.35.35,0,0,1-.24-.08.41.41,0,0,1-.17-.32,1.33,1.33,0,0,1,.23-.56,13.16,13.16,0,0,0,1.45-5.07l-1.93.18.26,8.76c0,.38-.21.57-.61.57s-.47-.17-.48-.51l-.27-9.61a.49.49,0,0,1,.56-.57.44.44,0,0,1,.49.35Z"/><path class="cls-1" d="M133.6,215.19a22.93,22.93,0,0,0,6.45,4.6c.35.15.53.29.53.4s-.11.18-.34.24a4.34,4.34,0,0,1-1.1.25,1.19,1.19,0,0,1-.62-.23,26.59,26.59,0,0,1-3-2.27,31.4,31.4,0,0,1-2.41-2.28L133,216a16.76,16.76,0,0,1-4.92,4.38,5.12,5.12,0,0,1-1.62.77.32.32,0,0,1-.29-.19.46.46,0,0,1,0-.2c0-.15.16-.32.49-.51a18.77,18.77,0,0,0,3.4-2.51,12.39,12.39,0,0,0,2.52-3.11.6.6,0,0,1,.55-.34.62.62,0,0,1,.31.07.47.47,0,0,1,.27.44A.8.8,0,0,1,133.6,215.19Zm.09,7.75v3.75l5-.21q.51,0,.51.54a.53.53,0,0,1-.2.45.41.41,0,0,1-.25.08l-11,.46h0a.46.46,0,0,1-.26-.08.51.51,0,0,1-.23-.46.47.47,0,0,1,.47-.54l4.88-.2V223l-3.73.21a.52.52,0,0,1-.21,0,.5.5,0,0,1,.15-1l3.79-.21v-1.79l-2.24.17h-.07a.41.41,0,0,1-.36-.2.51.51,0,0,1,.36-.78l5.61-.42a.44.44,0,0,1,.5.5.42.42,0,0,1-.43.48l-2.22.16V222l3.89-.22a.5.5,0,0,1,.4.17.52.52,0,0,1,.12.33.43.43,0,0,1-.46.49Zm-4.6.8c.23,0,.57.27,1,.8a2.72,2.72,0,0,1,.79,1.4.54.54,0,0,1-.21.44.66.66,0,0,1-.43.16q-.33,0-.54-.45a9.37,9.37,0,0,0-.92-1.65.56.56,0,0,1-.13-.34.32.32,0,0,1,.12-.25A.42.42,0,0,1,129.09,223.74Zm7.69-.48a.65.65,0,0,1,.34.11.56.56,0,0,1,.27.49,4.22,4.22,0,0,1-1.1,1.82c-.33.41-.58.61-.76.61a.48.48,0,0,1-.26-.08.37.37,0,0,1-.15-.31,1,1,0,0,1,.2-.48,14.1,14.1,0,0,0,.84-1.61C136.32,223.44,136.53,223.26,136.78,223.26Z"/><path class="cls-1" d="M143.94,221a3.06,3.06,0,0,1-1.89-2.7,2.49,2.49,0,0,1,1.11-2.18,3.24,3.24,0,0,1,1.89-.54,3.73,3.73,0,0,1,3.31,1.94,1.82,1.82,0,0,1,.33.89c0,.4-.18.6-.53.6a.49.49,0,0,1-.28-.09l-.21.19-.6.52c-.63.54-1.07.93-1.33,1.17q2.77,1.37,2.77,3.41a2.88,2.88,0,0,1-1.1,2.43,3.77,3.77,0,0,1-2.31.67,3.6,3.6,0,0,1-2.44-.79,2.82,2.82,0,0,1-.92-2.23C141.74,223.24,142.47,222.14,143.94,221Zm1.07.5c-1.39.9-2.08,1.84-2.08,2.82a1.78,1.78,0,0,0,.55,1.38,2.37,2.37,0,0,0,1.61.5,2.53,2.53,0,0,0,1.45-.39,1.82,1.82,0,0,0,.76-1.61C147.3,223.19,146.54,222.3,145,221.52Zm2.25-3.57a2.52,2.52,0,0,0-3.14-1.12,1.42,1.42,0,0,0-.9,1.42c0,.8.53,1.48,1.59,2.05A19.47,19.47,0,0,0,147.26,218Z"/><path class="cls-1" d="M153.16,215.6a2.61,2.61,0,0,1,2.41,1.62,9.24,9.24,0,0,1,.79,4.23,9.9,9.9,0,0,1-.69,4.05,2.68,2.68,0,0,1-2.53,1.83,2.58,2.58,0,0,1-2.33-1.45,9,9,0,0,1-.88-4.43,8.75,8.75,0,0,1,.95-4.54A2.57,2.57,0,0,1,153.16,215.6Zm0,1.15q-1.9,0-1.9,4.72a10.39,10.39,0,0,0,.41,3.29c.32.93.83,1.39,1.51,1.39a1.48,1.48,0,0,0,1.33-1,8.94,8.94,0,0,0,.58-3.72C155.06,218.31,154.42,216.75,153.13,216.75Z"/><path class="cls-1" d="M165,217a.52.52,0,0,1,.41.57,10,10,0,0,1-.39,1.91l3.6.13a1.6,1.6,0,0,1,.83.2,1.05,1.05,0,0,1,.4,1,15.4,15.4,0,0,1-.51,3.28,10.72,10.72,0,0,1-1.13,3.16A1.45,1.45,0,0,1,167,228a5.09,5.09,0,0,1-2.41-.93c-.36-.23-.55-.43-.55-.6a.35.35,0,0,1,.4-.4,1.17,1.17,0,0,1,.53.19,6.61,6.61,0,0,0,1.15.43,2.24,2.24,0,0,0,.46.07.79.79,0,0,0,.69-.39,9.73,9.73,0,0,0,1-2.75,12.62,12.62,0,0,0,.41-2.48c0-.31-.18-.47-.52-.49l-3.39-.11a13.26,13.26,0,0,1-3.7,6.07c-.51.45-.87.68-1.08.68a.36.36,0,0,1-.31-.16.38.38,0,0,1-.1-.25.87.87,0,0,1,.35-.55,12.47,12.47,0,0,0,3-4.43,17.34,17.34,0,0,0,1.24-4.28.68.68,0,0,1,.35-.58l-5.17.26h0a.37.37,0,0,1-.27-.09.59.59,0,0,1-.2-.47c0-.36.17-.55.5-.56l11.87-.6h0a.41.41,0,0,1,.33.14.58.58,0,0,1,.17.43.53.53,0,0,1-.25.47.54.54,0,0,1-.27.09Z"/><path class="cls-1" d="M183.36,217l4.38-.29h.07a.49.49,0,0,1,.56.55c0,.31-.19.48-.55.51l-13.31.81h-.09a.42.42,0,0,1-.41-.19.58.58,0,0,1-.1-.35c0-.29.18-.45.52-.47l7.75-.5c.29-.46.7-1.21,1.23-2.24.17-.34.37-.51.61-.51a.83.83,0,0,1,.35.09.49.49,0,0,1,.34.47A6.14,6.14,0,0,1,183.36,217Zm-3.83,7.65-2.7.25v2.69c0,.38-.18.56-.53.56a.49.49,0,0,1-.56-.56V220a.49.49,0,0,1,.56-.55.48.48,0,0,1,.5.33l2.73-.3h.16a.91.91,0,0,1,1,1V227c0,.83-.3,1.25-.91,1.25a3.79,3.79,0,0,1-1.58-.53c-.26-.14-.39-.29-.39-.46a.32.32,0,0,1,.36-.35,1,1,0,0,1,.25,0,3.56,3.56,0,0,0,.89.11c.17,0,.26-.12.26-.35Zm0-3v-.87c0-.2-.07-.3-.2-.28h0l-2.46.28v1.15Zm0,.93-2.7.28v1.14l2.7-.25Zm-1.59-7.94a1.34,1.34,0,0,1,.71.44,8.32,8.32,0,0,1,1,1.07.8.8,0,0,1,.18.49.49.49,0,0,1-.21.4.78.78,0,0,1-.49.18c-.22,0-.4-.15-.56-.47a8.52,8.52,0,0,0-.85-1.39.53.53,0,0,1-.14-.33.37.37,0,0,1,.12-.27A.36.36,0,0,1,177.94,214.57Zm5.54,5.54v4.47c0,.38-.18.57-.55.57a.5.5,0,0,1-.56-.57v-4.47c0-.38.18-.57.55-.57A.5.5,0,0,1,183.48,220.11Zm2.93-.71v7.72c0,.89-.32,1.33-1,1.33a5.25,5.25,0,0,1-1.89-.53c-.27-.12-.4-.26-.4-.42s.13-.43.38-.43a1,1,0,0,1,.27,0,4.7,4.7,0,0,0,1,.12.36.36,0,0,0,.41-.41V219.4c0-.4.19-.6.56-.6A.52.52,0,0,1,186.41,219.4Z"/><path class="cls-1" d="M192.19,221.85a16.55,16.55,0,0,1-1.34,1.29.85.85,0,0,1-.5.23.35.35,0,0,1-.29-.14.4.4,0,0,1-.12-.29.49.49,0,0,1,.13-.32l.32-.31a17.14,17.14,0,0,0,2.92-3.84c.18-.3.38-.46.61-.46a.53.53,0,0,1,.3.09.5.5,0,0,1,.24.44,5,5,0,0,1-1.17,2v7.29c0,.33-.18.5-.55.5a.48.48,0,0,1-.55-.54Zm1.54-6.74a.49.49,0,0,1,.36.15.51.51,0,0,1,.17.36c0,.35-.49.89-1.47,1.64a7.13,7.13,0,0,1-2.16,1.37.35.35,0,0,1-.31-.16.43.43,0,0,1-.09-.25c0-.17.16-.35.47-.57a12.87,12.87,0,0,0,2.41-2.17A.93.93,0,0,1,193.73,215.11Zm4.59,10.68a17.81,17.81,0,0,1-1.42-1.36,12.33,12.33,0,0,1-1.89,1.43,1.17,1.17,0,0,1-.47.18.33.33,0,0,1-.3-.18.4.4,0,0,1-.08-.21.38.38,0,0,1,.16-.29l.34-.21a10.19,10.19,0,0,0,2.75-2.7.54.54,0,0,1,1,.13l2.41-.25h.15c.5,0,.76.21.76.64a1.61,1.61,0,0,1-.27.8,10,10,0,0,1-1.58,2,13.53,13.53,0,0,0,3.77,1.82c.29.09.44.18.44.29s-.1.17-.28.23a4.42,4.42,0,0,1-1.39.31.88.88,0,0,1-.45-.1,19.92,19.92,0,0,1-2.82-1.91,11.14,11.14,0,0,1-2.27,1.45,4.46,4.46,0,0,1-1.47.56.35.35,0,0,1-.39-.4c0-.17.17-.32.51-.46A10.72,10.72,0,0,0,198,226.1Zm.24-7.55,1.06-.91c.29-.25.6-.53.92-.85a.93.93,0,0,1,.62-.33.51.51,0,0,1,.37.17.59.59,0,0,1,.19.43.52.52,0,0,1-.11.33,5.63,5.63,0,0,1-.56.52,49.32,49.32,0,0,1-4.06,3c1-.1,2.43-.3,4.18-.6a7.76,7.76,0,0,0-.48-.62.52.52,0,0,1-.17-.34.39.39,0,0,1,.39-.37.78.78,0,0,1,.48.22,12,12,0,0,1,1.51,1.59,1,1,0,0,1,.26.58.48.48,0,0,1-.22.42.69.69,0,0,1-.42.16.67.67,0,0,1-.51-.34l-.17-.28-.17-.27c-.71.16-1.57.33-2.6.51-2,.33-3.07.5-3.31.5a.44.44,0,0,1-.4-.24.85.85,0,0,1-.16-.45.41.41,0,0,1,.1-.27s.19-.15.46-.34c.49-.35,1.16-.88,2-1.58-.38-.15-.93-.33-1.66-.54q-.6-.16-.6-.57c0-.26.22-.55.65-.88a23.41,23.41,0,0,0,1.91-1.64l.45-.46a.82.82,0,0,1,.6-.32.53.53,0,0,1,.39.16.59.59,0,0,1,.2.41.82.82,0,0,1-.34.57c-.63.55-1.48,1.2-2.53,1.95A17,17,0,0,1,198.56,218.24Zm.42,6.91a8.39,8.39,0,0,0,1.17-1.43.71.71,0,0,0,.11-.24c0-.06-.06-.09-.17-.08H200l-2.25.2-.23.22A16.77,16.77,0,0,0,199,225.15Z"/><path class="cls-1" d="M216.63,220.94v-3.77a.46.46,0,0,1,.06-.23.47.47,0,0,1,.45-.24.52.52,0,0,1,.43.2.4.4,0,0,1,.09.27v3.77h2.28a.34.34,0,0,1,.22.07.46.46,0,0,1,.25.44.54.54,0,0,1-.2.43.4.4,0,0,1-.27.09h-2.28v3.89a.47.47,0,0,1-.07.22.46.46,0,0,1-.44.24.52.52,0,0,1-.43-.2.39.39,0,0,1-.09-.26V222h-2.29a.43.43,0,0,1-.22-.06.49.49,0,0,1-.24-.46.5.5,0,0,1,.2-.42.39.39,0,0,1,.26-.09Z"/><path class="cls-1" d="M233.94,224.15a31.21,31.21,0,0,0,3.95,1.71,34.54,34.54,0,0,0,6,1.42c.52.07.78.17.78.29s-.13.2-.4.36a3.22,3.22,0,0,1-1.55.55,10.15,10.15,0,0,1-2.48-.61,44.73,44.73,0,0,1-6.78-2.89,10.37,10.37,0,0,1-2.28,2.42,1.5,1.5,0,0,1-.7.36.37.37,0,0,1-.29-.12.47.47,0,0,1-.11-.3.33.33,0,0,1,.07-.23,4.33,4.33,0,0,1,.51-.43,9.46,9.46,0,0,0,1.93-2.16c-.89-.48-1.54-.86-2-1.12q-.33-.21-.33-.45a.44.44,0,0,1,.09-.27.38.38,0,0,1,.33-.17,1.66,1.66,0,0,1,.63.28c.38.22.95.53,1.71.92a7.47,7.47,0,0,0,.54-1.59,3.19,3.19,0,0,0,.1-.6c0-.13-.07-.19-.23-.19h-.12l-1.6.18h-.09a.41.41,0,0,1-.35-.13.48.48,0,0,1-.14-.35.45.45,0,0,1,.12-.32l.18-.27a17.55,17.55,0,0,0,1.73-2.92,1.08,1.08,0,0,0,.11-.35c0-.12-.08-.17-.24-.16h-.16l-2,.34h-.11a.44.44,0,0,1-.3-.1.54.54,0,0,1,.3-.94l2.86-.41a1.62,1.62,0,0,1,.29,0c.5,0,.75.2.75.61a1.94,1.94,0,0,1-.25.83,21.82,21.82,0,0,1-1.82,3.1l1.19-.11h.23c.53,0,.8.25.8.77a3.62,3.62,0,0,1-.1.72A9.25,9.25,0,0,1,234,224Zm6.17-.26,3-.06c.35,0,.52.21.52.53a.51.51,0,0,1-.23.46.37.37,0,0,1-.21.06l-7.1.14c-.35-.05-.52-.22-.52-.52a.53.53,0,0,1,.23-.47A.33.33,0,0,1,236,224h.51v-4.33a.44.44,0,0,1,.15-.35.56.56,0,0,1,.4-.14.64.64,0,0,1,.38.12.42.42,0,0,1,.18.37v4.3l1.37,0v-6.76a15.42,15.42,0,0,1-2.62.51c-.29,0-.43-.14-.43-.41a.36.36,0,0,1,.23-.35,4.17,4.17,0,0,1,.55-.14,22.62,22.62,0,0,0,4.76-1.61,1,1,0,0,1,.39-.09.5.5,0,0,1,.43.24.57.57,0,0,1,.12.35.56.56,0,0,1-.39.54,18.75,18.75,0,0,1-1.89.65v3l2.56-.15a.35.35,0,0,1,.33.21.57.57,0,0,1,.1.32.54.54,0,0,1-.23.48.44.44,0,0,1-.15.05l-2.61.14Z"/><path class="cls-1" d="M246.31,218.68a4,4,0,0,1,1.51.72,4.84,4.84,0,0,1,.52.37.7.7,0,0,1,.28.55.72.72,0,0,1-.11.37.53.53,0,0,1-.47.24.79.79,0,0,1-.56-.31c-.23-.24-.65-.62-1.26-1.13a.62.62,0,0,1-.28-.42.42.42,0,0,1,.1-.26A.32.32,0,0,1,246.31,218.68Zm2.35,3.78c.32,0,.47.14.47.44a13,13,0,0,1-.74,2.23,15.45,15.45,0,0,1-.95,2.13.64.64,0,0,1-.56.35.69.69,0,0,1-.39-.12.52.52,0,0,1-.22-.45,1.72,1.72,0,0,1,.25-.68,30.69,30.69,0,0,0,1.68-3.48C248.31,222.6,248.47,222.46,248.66,222.46Zm-1.57-7.17a3.38,3.38,0,0,1,1.36.64,5.88,5.88,0,0,1,.7.5.69.69,0,0,1,.21.47.62.62,0,0,1-.12.35.55.55,0,0,1-.48.25.88.88,0,0,1-.57-.32A13.9,13.9,0,0,0,247,216.1a.6.6,0,0,1-.25-.43C246.73,215.42,246.85,215.29,247.09,215.29Zm3.65,5.43,8.35-.56h.18c.66,0,1,.21,1,.64a.94.94,0,0,1-.11.43,4.9,4.9,0,0,1-.95,1.41.63.63,0,0,1-.44.24.32.32,0,0,1-.37-.37.78.78,0,0,1,.13-.39,3.41,3.41,0,0,0,.41-.91c0-.08-.05-.11-.15-.1h0l-8,.55a7.93,7.93,0,0,1-.12,1.24c-.08.34-.27.51-.56.51a.6.6,0,0,1-.3-.07.45.45,0,0,1-.28-.44,1.48,1.48,0,0,1,.06-.32,9.51,9.51,0,0,0,.31-2c0-.34.17-.51.44-.51S250.73,220.29,250.74,220.72Zm6.89-3.83-.11,2c0,.35-.19.53-.5.53a.51.51,0,0,1-.4-.17l-3.89.25a.51.51,0,0,1-.49.29c-.3,0-.47-.18-.51-.52l-.22-2-1.17.07h-.07c-.32,0-.47-.13-.47-.41a.43.43,0,0,1,.46-.48l1.16-.08-.12-1.13v-.1c0-.34.17-.51.53-.51s.46.18.5.52l.12,1.15,1.57-.11v-1.59a.42.42,0,0,1,.14-.32.61.61,0,0,1,.37-.12.62.62,0,0,1,.32.09.39.39,0,0,1,.2.35v1.52l1.58-.11.05-1.1a.49.49,0,0,1,.55-.5c.36,0,.52.21.5.61l0,.92,1.54-.1c.37,0,.55.12.55.43a.45.45,0,0,1-.49.5ZM252.16,223l1.92-.14V222c0-.33.17-.49.52-.49s.53.16.53.49v.73l2.1-.14h.14c.69,0,1,.29,1,.85a12.2,12.2,0,0,1-.33,2.32c-.13.61-.41.92-.83.92a3.17,3.17,0,0,1-1.2-.31c-.25-.11-.37-.25-.37-.4a.31.31,0,0,1,.34-.35l.17,0a4,4,0,0,0,.44,0,.38.38,0,0,0,.4-.29c0-.06.05-.21.09-.42a8.13,8.13,0,0,0,.16-1.27.18.18,0,0,0-.23-.2l-1.92.12v4.5c0,.33-.17.49-.52.49s-.53-.16-.53-.49v-4.43l-1.82.12.15,2.6c0,.33-.18.49-.54.49a.47.47,0,0,1-.54-.49l-.2-3.17v-.08a.54.54,0,0,1,1-.23Zm1.86-5.85-1.47.1.15,1.45,1.32-.08Zm2.57-.16-1.54.1v1.46l1.47-.09Z"/><path class="cls-1" d="M265.21,218.76v2.48c.32-.14.71-.32,1.17-.56a.87.87,0,0,1,.36-.09.37.37,0,0,1,.31.13.39.39,0,0,1,.1.26.56.56,0,0,1-.29.45,15.82,15.82,0,0,1-1.65.9v5.16q0,1-.84,1a3.42,3.42,0,0,1-1.24-.35c-.66-.29-1-.54-1-.76s.12-.33.36-.33a1.24,1.24,0,0,1,.39.07,3.22,3.22,0,0,0,.88.18c.23,0,.35-.16.35-.46v-4a6.14,6.14,0,0,1-1.76.59.47.47,0,0,1-.44-.24.56.56,0,0,1-.09-.31.45.45,0,0,1,.22-.4,2.58,2.58,0,0,1,.52-.21c.41-.13.92-.31,1.55-.55v-2.8l-1.57.21h-.1a.4.4,0,0,1-.39-.21.48.48,0,0,1-.08-.3.47.47,0,0,1,.47-.49l1.67-.23v-2.78a.48.48,0,0,1,.15-.37.5.5,0,0,1,.39-.16.54.54,0,0,1,.45.21.52.52,0,0,1,.11.32v2.64l1.19-.16h.08a.38.38,0,0,1,.43.29.52.52,0,0,1,0,.21.47.47,0,0,1-.47.5Zm4.35,7.39a.51.51,0,0,1,.38.18.45.45,0,0,1,.15.35.7.7,0,0,1-.33.54,11.63,11.63,0,0,1-2.47,1.29,2.2,2.2,0,0,1-.61.17.36.36,0,0,1-.41-.4c0-.22.17-.39.51-.52a10.38,10.38,0,0,0,1.78-1,5.65,5.65,0,0,0,.51-.39A.78.78,0,0,1,269.56,226.15Zm5-9a.42.42,0,0,1,.31.42.4.4,0,0,1-.41.46l-5.86.41a.47.47,0,0,1-.51.35c-.29,0-.47-.16-.52-.5l-.38-2.54a.37.37,0,0,1,0-.11c0-.32.18-.48.55-.48a.53.53,0,0,1,.48.27l5.83-.5h.1c.54,0,.81.23.81.7a1.49,1.49,0,0,1-.06.4Zm-.85,8.44-5,.29a.47.47,0,0,1-.54.44.51.51,0,0,1-.47-.22.47.47,0,0,1-.07-.27v-6.15c0-.33.18-.49.54-.49a.6.6,0,0,1,.46.2l5.23-.42H274c.56,0,.85.29.85.89v5.83a.51.51,0,0,1-.1.3.52.52,0,0,1-.44.19.47.47,0,0,1-.53-.49Zm-.17-8.41.23-1a.71.71,0,0,0,0-.14c0-.11-.07-.17-.21-.17h0l-5.18.44.17,1.24Zm.17,3.72v-.65c0-.23-.1-.34-.3-.34h-.06l-4.68.34v1Zm0,.85-5,.35v1l5-.31Zm0,1.88-5,.33v1l5-.29Zm-1,2.34a1.63,1.63,0,0,1,.58.21l1,.47a8,8,0,0,1,1.3.71.73.73,0,0,1,.39.59.54.54,0,0,1-.1.31.52.52,0,0,1-.48.28,1.14,1.14,0,0,1-.65-.31,18.07,18.07,0,0,0-2.14-1.44.48.48,0,0,1-.28-.41.46.46,0,0,1,.08-.24A.34.34,0,0,1,272.78,226Z"/><path class="cls-1" d="M285.61,219.39v1l3.07-.21c.35,0,.53.12.53.43s-.16.45-.48.47l-3.12.2v1.13l5.71-.35h.07a.41.41,0,0,1,.49.46c0,.31-.17.48-.51.5l-12.28.77H279c-.32,0-.48-.15-.48-.46s.17-.48.52-.5l5.42-.34v-1.12l-3.23.21h-.1a.39.39,0,0,1-.43-.44c0-.29.16-.45.48-.47l3.28-.21v-1l-3.54.25h-.09a.39.39,0,0,1-.45-.43.43.43,0,0,1,.46-.47l3.62-.25v-.67a.58.58,0,0,1,1.15,0v.59l3.11-.22h.08a.38.38,0,0,1,.44.43c0,.29-.16.45-.48.47Zm0-3.06,5.12-.32h.12c.5,0,.75.17.75.5a3.24,3.24,0,0,1-.9,1.67c-.32.38-.57.58-.75.58s-.33-.12-.33-.36a.92.92,0,0,1,.12-.36,6.75,6.75,0,0,0,.37-.86.56.56,0,0,0,0-.15q0-.12-.21-.12h-.06l-9.78.61c0,.07,0,.15,0,.26a5.53,5.53,0,0,1-.09,1.15c-.08.39-.29.58-.62.58a.51.51,0,0,1-.58-.57,1.43,1.43,0,0,1,.11-.42,9.24,9.24,0,0,0,.33-1.82c0-.33.17-.5.41-.5s.33.15.36.46l4.4-.26v-1.58a.46.46,0,0,1,.21-.42.64.64,0,0,1,.86.08.52.52,0,0,1,.12.34Zm3.66,10.87a.44.44,0,0,1,.27.44.41.41,0,0,1-.43.46l-6.87.37a.57.57,0,0,1-1.11-.12l-.39-3.38v-.07a.46.46,0,0,1,.21-.39.61.61,0,0,1,.36-.11.56.56,0,0,1,.49.28l6.81-.47a1.16,1.16,0,0,1,.6.09.77.77,0,0,1,.46.76,1.35,1.35,0,0,1,0,.28Zm-1.09,0,.26-1.68s0-.11,0-.18-.11-.24-.33-.22l-6.17.44.22,2Z"/><path class="cls-1" d="M301.6,215.19a22.93,22.93,0,0,0,6.45,4.6c.35.15.53.29.53.4s-.11.18-.34.24a4.34,4.34,0,0,1-1.1.25,1.19,1.19,0,0,1-.62-.23,26.59,26.59,0,0,1-3-2.27,31.4,31.4,0,0,1-2.41-2.28L301,216a16.76,16.76,0,0,1-4.92,4.38,5.12,5.12,0,0,1-1.62.77.32.32,0,0,1-.29-.19.46.46,0,0,1-.05-.2c0-.15.16-.32.49-.51a18.77,18.77,0,0,0,3.4-2.51,12.39,12.39,0,0,0,2.52-3.11.6.6,0,0,1,.55-.34.62.62,0,0,1,.31.07.47.47,0,0,1,.27.44A.8.8,0,0,1,301.6,215.19Zm.09,7.75v3.75l5-.21q.51,0,.51.54a.53.53,0,0,1-.2.45.41.41,0,0,1-.25.08l-11,.46h-.05a.46.46,0,0,1-.26-.08.51.51,0,0,1-.23-.46.47.47,0,0,1,.47-.54l4.88-.2V223l-3.73.21a.52.52,0,0,1-.21,0,.5.5,0,0,1,.15-1l3.79-.21v-1.79l-2.24.17h-.07a.41.41,0,0,1-.36-.2.51.51,0,0,1,.36-.78l5.61-.42a.44.44,0,0,1,.5.5.42.42,0,0,1-.43.48l-2.22.16V222l3.89-.22a.5.5,0,0,1,.4.17.52.52,0,0,1,.12.33.43.43,0,0,1-.46.49Zm-4.6.8c.23,0,.57.27,1,.8a2.72,2.72,0,0,1,.79,1.4.54.54,0,0,1-.21.44.66.66,0,0,1-.43.16q-.33,0-.54-.45a9.37,9.37,0,0,0-.92-1.65.56.56,0,0,1-.13-.34.32.32,0,0,1,.12-.25A.42.42,0,0,1,297.09,223.74Zm7.69-.48a.65.65,0,0,1,.34.11.56.56,0,0,1,.27.49,4.22,4.22,0,0,1-1.1,1.82c-.33.41-.58.61-.76.61a.48.48,0,0,1-.26-.08.37.37,0,0,1-.15-.31,1,1,0,0,1,.2-.48,14.1,14.1,0,0,0,.84-1.61C304.32,223.44,304.53,223.26,304.78,223.26Z"/><path class="cls-1" d="M310.69,214.18a1.3,1.3,0,0,1,.68.32,8.53,8.53,0,0,1,2.22,2.34,8.49,8.49,0,0,1-.25,9.61,8.52,8.52,0,0,1-2.22,2.15.76.76,0,0,1-.42.13.39.39,0,0,1-.44-.44.43.43,0,0,1,.15-.33l.45-.35a7.32,7.32,0,0,0,1.86-2.14,7.82,7.82,0,0,0,1-4,7.62,7.62,0,0,0-3.27-6.43.48.48,0,0,1-.23-.39.5.5,0,0,1,.11-.3A.37.37,0,0,1,310.69,214.18Z"/><g class="cls-2"><rect class="cls-3" width="320" height="53.72"/></g><rect class="cls-3" y="71.87" width="242.04" height="53.72"/><rect class="cls-4" x="242.04" y="71.87" width="77.96" height="53.72"/><rect class="cls-5" y="144.83" width="194.79" height="53.72"/><path class="cls-5" d="M314.91,144.83h-2.55v1.28h2.55v-1.28Zm-5.09,0h-2.55v1.28h2.55v-1.28Zm-5.09,0h-2.55v1.28h2.55v-1.28Zm-5.1,0h-2.54v1.28h2.54v-1.28Zm-5.09,0H292v1.28h2.54v-1.28Zm-5.09,0h-2.54v1.28h2.54v-1.28Zm-5.09,0h-2.54v1.28h2.54v-1.28Zm-5.09,0h-2.55v1.28h2.55v-1.28Zm-5.09,0h-2.55v1.28h2.55v-1.28Zm-5.09,0h-2.55v1.28h2.55v-1.28Zm-5.09,0h-2.55v1.28H264v-1.28Zm-5.09,0h-2.55v1.28h2.55v-1.28Zm-5.1,0h-2.54v1.28h2.54v-1.28Zm-5.09,0h-2.54v1.28h2.54v-1.28Zm-5.09,0h-2.54v1.28h2.54v-1.28Zm-5.09,0H236v1.28h2.54v-1.28Zm-5.09,0H230.9v1.28h2.55v-1.28Zm-5.09,0h-2.55v1.28h2.55v-1.28Zm-5.09,0h-2.55v1.28h2.55v-1.28Zm-5.09,0h-2.55v1.28h2.55v-1.28Zm-5.09,0h-2.55v1.28h2.55v-1.28Zm-5.1,0h-2.54v1.28H208v-1.28Zm-5.09,0h-2.54v1.28h2.54v-1.28Zm-5.09,0h-2.54v1.28h2.54v-1.28Zm-1.75,2.07h-1.27v2.55h1.27V146.9Zm0,5.09h-1.27v2.55h1.27V152Zm0,5.1h-1.27v2.54h1.27v-2.54Zm0,5.09h-1.27v2.54h1.27v-2.54Zm0,5.09h-1.27v2.54h1.27v-2.54Zm0,5.09h-1.27v2.54h1.27v-2.54Zm0,5.09h-1.27V180h1.27v-2.55Zm0,5.09h-1.27v2.55h1.27v-2.55Zm0,5.09h-1.27v2.55h1.27v-2.55Zm0,5.09h-1.27v2.55h1.27v-2.55Zm.53,4.56h-1.8v.53h0v0h0v.74h1.8v-1.27Zm5.1,0h-2.55v1.27h2.55v-1.27Zm5.09,0h-2.55v1.27h2.55v-1.27Zm5.09,0h-2.55v1.27h2.55v-1.27Zm5.09,0h-2.55v1.27H217v-1.27Zm5.09,0H219.5v1.27h2.55v-1.27Zm5.09,0H224.6v1.27h2.54v-1.27Zm5.09,0h-2.54v1.27h2.54v-1.27Zm5.09,0h-2.54v1.27h2.54v-1.27Zm5.09,0h-2.54v1.27h2.54v-1.27Zm5.1,0H245v1.27h2.55v-1.27Zm5.09,0h-2.55v1.27h2.55v-1.27Zm5.09,0h-2.55v1.27h2.55v-1.27Zm5.09,0h-2.55v1.27h2.55v-1.27Zm5.09,0h-2.55v1.27h2.55v-1.27Zm5.09,0h-2.54v1.27H273v-1.27Zm5.09,0h-2.54v1.27h2.54v-1.27Zm5.09,0H280.6v1.27h2.54v-1.27Zm5.09,0h-2.54v1.27h2.54v-1.27Zm5.1,0h-2.55v1.27h2.55v-1.27Zm5.09,0h-2.55v1.27h2.55v-1.27Zm5.09,0H301v1.27h2.55v-1.27Zm5.09,0h-2.55v1.27h2.55v-1.27Zm5.09,0h-2.55v1.27h2.55v-1.27Zm5.09,0h-2.54v1.27h2.54v-1.27Zm1.22-2.6h-1.27v2.55H320v-2.55Zm0-5.09h-1.27v2.55H320v-2.55Zm0-5.09h-1.27V187H320V184.5Zm0-5.09h-1.27V182H320v-2.54Zm0-5.09h-1.27v2.54H320v-2.54Zm0-5.09h-1.27v2.54H320v-2.54Zm0-5.1h-1.27v2.55H320v-2.55Zm0-5.09h-1.27v2.55H320V159Zm0-5.09h-1.27v2.55H320V154Zm0-5.09h-1.27v2.55H320v-2.55Zm0-4h-2.55v1.28h1.28v.21H320v-1.49Z"/><path class="cls-6" d="M59.18,24.34v9.47c0,.34-.19.51-.56.51s-.56-.17-.56-.51V26.28c-.89,1.33-1.51,2-1.84,2a.37.37,0,0,1-.27-.12.44.44,0,0,1-.14-.31c0-.12.15-.35.45-.7a20.51,20.51,0,0,0,2.86-5.67c.14-.38.35-.57.61-.57A.6.6,0,0,1,60,21a.5.5,0,0,1,.3.48,2.36,2.36,0,0,1-.15.64A18.18,18.18,0,0,1,59.18,24.34Zm6.29.8V28l2.69-.17h.08c.35,0,.52.16.52.5s-.18.52-.54.54L65.47,29v3.54l4.12-.2h0a.48.48,0,0,1,.5.23.55.55,0,0,1,.09.32c0,.35-.19.54-.57.56l-9.07.41h0c-.37,0-.56-.17-.56-.53s.19-.52.56-.54l3.79-.18V29.11l-2.75.17c-.4,0-.59-.14-.59-.49s.17-.51.53-.53l2.81-.18V25.22l-3.25.25H61c-.36,0-.55-.17-.55-.51a.53.53,0,0,1,.55-.58l7.61-.59h.09q.57,0,.57.51a.53.53,0,0,1-.54.6ZM63.2,20.65a4.88,4.88,0,0,1,1.73.94,7.09,7.09,0,0,1,.82.65.67.67,0,0,1,.22.48.56.56,0,0,1-.17.4.72.72,0,0,1-.5.23.84.84,0,0,1-.56-.33A11.66,11.66,0,0,0,63,21.51a.5.5,0,0,1-.26-.39.42.42,0,0,1,.12-.29A.45.45,0,0,1,63.2,20.65Z"/><path class="cls-6" d="M79.59,22.84l5.08-.33h.11c.53,0,.8.19.8.57a3.69,3.69,0,0,1-.79,1.57c-.46.66-.82,1-1.1,1a.4.4,0,0,1-.22-.08.37.37,0,0,1-.15-.32.84.84,0,0,1,.17-.4A2.49,2.49,0,0,0,84,23.68c0-.12-.09-.17-.28-.16l-9.57.63c0,1.5-.31,2.25-.83,2.25a.72.72,0,0,1-.4-.12.46.46,0,0,1-.22-.43,1.76,1.76,0,0,1,.13-.53,6.91,6.91,0,0,0,.41-2c0-.36.17-.54.44-.54s.38.15.42.45l4.28-.28V21.05c0-.35.2-.52.59-.52a.63.63,0,0,1,.48.2.47.47,0,0,1,.12.32Zm-.66,3.81,0,2.06,5.2-.67h.09a.57.57,0,0,1,.4.14.51.51,0,0,1,.17.4c0,.31-.17.5-.53.54l-5.35.65,0,2.29c0,.44.11.71.36.83A5.13,5.13,0,0,0,80.8,33a10.37,10.37,0,0,0,3.36-.32.47.47,0,0,0,.28-.34,4.5,4.5,0,0,0,0-.69v-.81c0-.33.14-.49.41-.49s.35.13.41.4a9.55,9.55,0,0,1,.27,2,1,1,0,0,1-.68,1,14.84,14.84,0,0,1-4,.33,15.44,15.44,0,0,1-2-.08,1.33,1.33,0,0,1-1.2-1.46l0-2.7-4.32.53h-.1a.46.46,0,0,1-.52-.52c0-.29.17-.46.5-.51l4.45-.56,0-1.93a16.36,16.36,0,0,1-2.59.46.4.4,0,0,1-.45-.46.35.35,0,0,1,.21-.33s.24-.06.58-.13a24.67,24.67,0,0,0,5.16-1.57,1.23,1.23,0,0,1,.48-.13.49.49,0,0,1,.42.24.52.52,0,0,1,.11.32.66.66,0,0,1-.5.62A22.89,22.89,0,0,1,78.93,26.65Z"/><path class="cls-6" d="M90.75,23.87l.54,0q7.17-.54,7.67-.54a1.2,1.2,0,0,1,.83.29,1.06,1.06,0,0,1,.3.78c0,.48-.27,2.28-.83,5.4l-.07.39a.57.57,0,0,1,.54.62.53.53,0,0,1-.39.54,5.57,5.57,0,0,1-.72,0c-1.93,0-4.2.08-6.83.25a.55.55,0,0,1-.62.59.51.51,0,0,1-.52-.35,4.32,4.32,0,0,1-.11-.75c-.23-2.14-.51-4.35-.86-6.62a1.75,1.75,0,0,1,0-.25.55.55,0,0,1,.37-.56.79.79,0,0,1,.29-.06A.46.46,0,0,1,90.75,23.87ZM98,30.18c.32-1.79.55-3.34.71-4.65.06-.48.08-.75.08-.82s-.11-.27-.34-.27c-.64,0-2.19.1-4.66.28L91,25q.33,3.13.68,5.55,2-.15,5.9-.32Z"/><path class="cls-6" d="M115.8,26.29q.81,0,.81.6a.52.52,0,0,1-.34.55,4.66,4.66,0,0,1-.92.07q-3.55.1-9.56.46h-.09a.65.65,0,0,1-.43-.14.57.57,0,0,1-.2-.46.55.55,0,0,1,.53-.59l.79-.06c2-.11,3.48-.19,4.54-.23l3.43-.14Q115.42,26.29,115.8,26.29Z"/><path class="cls-6" d="M122.76,22.76a4.88,4.88,0,0,1,1.16.4,9,9,0,0,1,2.25,1.32.78.78,0,0,1,.31.6.69.69,0,0,1-.13.41.51.51,0,0,1-.45.23,1.15,1.15,0,0,1-.69-.34,19.28,19.28,0,0,0-2.59-1.77c-.23-.13-.34-.26-.34-.39C122.28,22.91,122.44,22.76,122.76,22.76Zm10,2.54a.54.54,0,0,1,.3.1.5.5,0,0,1,.16.36,2.78,2.78,0,0,1-.73,1.23,17.52,17.52,0,0,1-4.6,3.94,18.83,18.83,0,0,1-4.28,1.93A2.44,2.44,0,0,1,123,33a.59.59,0,0,1-.58-.36.64.64,0,0,1-.1-.35.59.59,0,0,1,.33-.53c.06,0,.39-.13,1-.31a17.05,17.05,0,0,0,4.85-2.35,15.69,15.69,0,0,0,3.7-3.44A.76.76,0,0,1,132.79,25.3Z"/><path class="cls-6" d="M139.41,29.09a.45.45,0,0,1-.26.09c-.18,0-.36-.12-.56-.37a12.83,12.83,0,0,0-1-1.15,8.92,8.92,0,0,1-.86,1.17.58.58,0,0,1-.43.24.39.39,0,0,1-.36-.38,2,2,0,0,1,.38-.73,15.94,15.94,0,0,0,2.19-5.23l-1.74.17h-.06a.47.47,0,0,1-.51-.52.45.45,0,0,1,.46-.51l5.2-.5h.07a.47.47,0,0,1,.46.29.59.59,0,0,1,0,.23.45.45,0,0,1-.46.51l-2.33.22a20.1,20.1,0,0,1-.55,2l1.49-.18.29,0a.71.71,0,0,1,.81.8,7.49,7.49,0,0,1-.28,1.62,14.06,14.06,0,0,1-1.54,3.7A12.7,12.7,0,0,1,137,34a.71.71,0,0,1-.44.21.4.4,0,0,1-.31-.16.37.37,0,0,1-.1-.24c0-.13.14-.34.4-.63A16.33,16.33,0,0,0,139.41,29.09Zm.21-.45a11.66,11.66,0,0,0,.68-1.88,5.49,5.49,0,0,0,.21-1.08.26.26,0,0,0-.3-.29h-.06l-1.46.19A12.08,12.08,0,0,1,138,27a7.48,7.48,0,0,1,1.42,1.16A.75.75,0,0,1,139.62,28.64Zm6.07-2.45c.09.51.18.95.29,1.34l3.38-.48h.11a.41.41,0,0,1,.44.28.53.53,0,0,1,.05.2c0,.27-.16.42-.47.46l-3.26.45a12.81,12.81,0,0,0,.69,1.65A9.32,9.32,0,0,0,148,28.94a.72.72,0,0,1,.54-.31.5.5,0,0,1,.37.16.51.51,0,0,1,.17.36,1.32,1.32,0,0,1-.44.72c-.36.38-.76.77-1.2,1.15a12.27,12.27,0,0,0,1.3,1.62c.2.2.34.3.41.3s.21-.52.22-1.57c0-.34.11-.51.35-.51s.39.15.45.43a9.14,9.14,0,0,1,.16,1.89c0,.82-.25,1.23-.74,1.23a1.71,1.71,0,0,1-1-.46,10.27,10.27,0,0,1-2-2.23,14.9,14.9,0,0,1-3.4,1.79,5.55,5.55,0,0,1-1.15.35q-.42,0-.42-.45a.39.39,0,0,1,.21-.34,5.6,5.6,0,0,1,.63-.27,15.44,15.44,0,0,0,3.59-2,13,13,0,0,1-.89-2.22L142.3,29h-.11c-.33,0-.49-.16-.49-.47s.16-.4.46-.45l2.76-.38c-.17-.69-.26-1.14-.3-1.35l-2.07.29h-.12a.43.43,0,0,1-.49-.47c0-.25.16-.4.46-.45l2.09-.3-.16-1.12-2,.27h-.12c-.32,0-.48-.15-.48-.46s.15-.42.46-.46l2-.29,0-.25a16.25,16.25,0,0,1-.18-2.18c0-.37.1-.6.31-.67a.86.86,0,0,1,.24,0,.46.46,0,0,1,.44.24,3.27,3.27,0,0,1,.11.79c0,.66.11,1.31.18,2l2.4-.35h.11c.33,0,.49.16.49.47s-.16.43-.47.48l-2.42.33c.06.42.11.79.16,1.12l2.21-.32h.11a.44.44,0,0,1,.49.5c0,.27-.15.42-.47.46Zm2.45-5.14a.6.6,0,0,1,.41.22c.51.54.86.94,1.06,1.2a1,1,0,0,1,.23.53.47.47,0,0,1-.25.4.73.73,0,0,1-.33.08.62.62,0,0,1-.51-.38,13.3,13.3,0,0,0-.84-1.32.66.66,0,0,1-.15-.36.39.39,0,0,1,.38-.37Z"/><path class="cls-6" d="M157.86,32.54a.42.42,0,0,1,.3.43c0,.28-.18.43-.52.45l-2.76.2v.1q0,.54-.51.54t-.51-.54l-.36-3.34v-.11a.48.48,0,0,1,.08-.28,3.76,3.76,0,0,1-1.25.58.4.4,0,0,1-.36-.18.39.39,0,0,1-.07-.23.46.46,0,0,1,.15-.33l.44-.25a13.85,13.85,0,0,0,2.64-1.83l-.49-.28L153.8,27a9.83,9.83,0,0,1-.82.72.85.85,0,0,1-.51.21.28.28,0,0,1-.2-.07.49.49,0,0,1-.15-.33c0-.13.11-.3.35-.49a6.62,6.62,0,0,0,1.85-2.39.56.56,0,0,1,.55-.37l.18,0a.46.46,0,0,1,.35.46.35.35,0,0,1,0,.12l1.95-.24h.15c.48,0,.72.19.72.58a1.74,1.74,0,0,1-.32.8,9.64,9.64,0,0,1-1.16,1.53,22.6,22.6,0,0,1,2.27,1.4.65.65,0,0,1,.32.53.64.64,0,0,1-.14.38.56.56,0,0,1-.43.21.69.69,0,0,1-.42-.18A22.84,22.84,0,0,0,156,28.26a17.44,17.44,0,0,1-2.09,1.55.55.55,0,0,1,.18,0,.45.45,0,0,1,.41.22l2.6-.3h.2c.6,0,.9.27.9.82a1.32,1.32,0,0,1,0,.28Zm-1.74-10.25L158.6,22h.1c.43,0,.65.16.65.48a3.12,3.12,0,0,1-.65,1.32c-.29.42-.54.64-.74.64a.49.49,0,0,1-.19,0,.36.36,0,0,1-.2-.34.46.46,0,0,1,.07-.21,2,2,0,0,0,.28-.72c0-.07,0-.11-.14-.11h-.16l-4.31.47a6.65,6.65,0,0,1-.2,1.48c-.11.31-.27.46-.49.46a.69.69,0,0,1-.36-.09A.44.44,0,0,1,152,25a1.32,1.32,0,0,1,.05-.25,9.6,9.6,0,0,0,.38-2c0-.35.17-.53.43-.53a.44.44,0,0,1,.45.4l1.71-.18V20.82a.47.47,0,0,1,.2-.4.57.57,0,0,1,.34-.1.56.56,0,0,1,.44.18.48.48,0,0,1,.11.32Zm-1.36,3.6c-.16.21-.29.38-.39.49l.22.1c.3.13.72.33,1.24.6a7.77,7.77,0,0,0,.76-1,.79.79,0,0,0,.14-.32s0-.07-.13-.07h-.16Zm2.15,6.69.16-1.72c0-.15-.07-.22-.21-.22h0l-2.22.25.18,1.84Zm4.42-.55a.54.54,0,0,1,.53.53q0,.46-1.47,1.5a3.26,3.26,0,0,1-1.27.66.37.37,0,0,1-.31-.18.39.39,0,0,1-.08-.25c0-.16.12-.32.37-.49a8,8,0,0,0,1.71-1.5A.69.69,0,0,1,161.33,32Zm1-8.26,2-.17h.23c.64,0,.95.34.95,1v6.82c0,.32-.17.48-.52.48s-.53-.16-.53-.48v-.05L161,31.6c0,.28-.22.41-.53.41a.51.51,0,0,1-.43-.19.4.4,0,0,1-.09-.27V24.13c0-.32.17-.48.52-.48a.52.52,0,0,1,.47.24l.37,0a13.75,13.75,0,0,0,.75-1.75l-2.23.18h-.1a.43.43,0,0,1-.42-.21.53.53,0,0,1-.08-.3.46.46,0,0,1,.48-.5l5.76-.46h.08a.46.46,0,0,1,.47.27.6.6,0,0,1,.05.24.47.47,0,0,1-.49.52l-2.36.18A12.61,12.61,0,0,1,162.34,23.77Zm2.09,2.06V25c0-.3-.12-.44-.37-.42H164l-3,.29v1.28Zm0,.91L161,27v1.34l3.42-.25Zm0,2.29-3.42.25v1.38l3.42-.22ZM163.87,32a2.49,2.49,0,0,1,1.09.65c.32.27.7.61,1.13,1a.73.73,0,0,1,.25.51.6.6,0,0,1-.15.39.52.52,0,0,1-.39.19.92.92,0,0,1-.65-.39c-.68-.77-1.17-1.3-1.47-1.57a.57.57,0,0,1-.21-.41.38.38,0,0,1,.11-.28A.38.38,0,0,1,163.87,32Z"/><path class="cls-6" d="M180.05,27.14a2.79,2.79,0,0,1,2.18,2.92,3.35,3.35,0,0,1-.93,2.51,3.23,3.23,0,0,1-2.29.82,3.15,3.15,0,0,1-2.64-1.25,1.59,1.59,0,0,1-.39-.81.61.61,0,0,1,.18-.43.5.5,0,0,1,.39-.16c.24,0,.45.16.63.47a2,2,0,0,0,1.83,1,1.78,1.78,0,0,0,1.55-.76A2.54,2.54,0,0,0,181,30a2.12,2.12,0,0,0-1-2,1.84,1.84,0,0,0-.72-.22c-.19,0-.49,0-.91,0a.94.94,0,0,1-.41-.06.53.53,0,0,1-.24-.51.45.45,0,0,1,.51-.52h.24a3.14,3.14,0,0,0,1.14-.16,1.9,1.9,0,0,0,1.08-1.89,2.06,2.06,0,0,0-.34-1.23,1.54,1.54,0,0,0-1.32-.63,1.7,1.7,0,0,0-1.65,1,.5.5,0,0,1-.48.33.68.68,0,0,1-.4-.13.49.49,0,0,1-.21-.42,1.2,1.2,0,0,1,.18-.56,2.54,2.54,0,0,1,1.05-1,3.15,3.15,0,0,1,1.53-.37,2.85,2.85,0,0,1,2.06.75,2.9,2.9,0,0,1,.82,2.17,2.43,2.43,0,0,1-1.7,2.51Z"/><path class="cls-6" d="M185.6,30.8a1.28,1.28,0,0,1,.84.32,1.38,1.38,0,0,1,.45,1.1,3.81,3.81,0,0,1-.7,2.18,3,3,0,0,1-1,1,.68.68,0,0,1-.32.09.33.33,0,0,1-.27-.11.35.35,0,0,1-.13-.28c0-.11.09-.22.27-.35a2.14,2.14,0,0,0,.81-1.17,1,1,0,0,0,.06-.26c0-.08-.1-.13-.28-.15a.89.89,0,0,1-.66-.34,1.34,1.34,0,0,1-.26-.84,1.15,1.15,0,0,1,.39-.88A1.19,1.19,0,0,1,185.6,30.8Z"/><path class="cls-6" d="M195.08,21.66a2.61,2.61,0,0,1,2.41,1.62,9.27,9.27,0,0,1,.79,4.23,9.84,9.84,0,0,1-.69,4,2.68,2.68,0,0,1-2.53,1.83,2.57,2.57,0,0,1-2.33-1.45,9,9,0,0,1-.88-4.43,8.77,8.77,0,0,1,1-4.54A2.58,2.58,0,0,1,195.08,21.66Zm0,1.15q-1.91,0-1.9,4.73a10.62,10.62,0,0,0,.41,3.28c.32.93.83,1.4,1.51,1.4a1.49,1.49,0,0,0,1.33-1,8.94,8.94,0,0,0,.58-3.72Q197,22.82,195.05,22.81Z"/><path class="cls-6" d="M203.08,21.66a2.61,2.61,0,0,1,2.41,1.62,9.27,9.27,0,0,1,.79,4.23,9.84,9.84,0,0,1-.69,4,2.68,2.68,0,0,1-2.53,1.83,2.57,2.57,0,0,1-2.33-1.45,9,9,0,0,1-.88-4.43,8.77,8.77,0,0,1,1-4.54A2.58,2.58,0,0,1,203.08,21.66Zm0,1.15q-1.91,0-1.9,4.73a10.62,10.62,0,0,0,.41,3.28c.32.93.83,1.4,1.51,1.4a1.49,1.49,0,0,0,1.33-1,8.94,8.94,0,0,0,.58-3.72Q205,22.82,203.05,22.81Z"/><path class="cls-6" d="M211.08,21.66a2.61,2.61,0,0,1,2.41,1.62,9.27,9.27,0,0,1,.79,4.23,9.84,9.84,0,0,1-.69,4,2.68,2.68,0,0,1-2.53,1.83,2.57,2.57,0,0,1-2.33-1.45,9,9,0,0,1-.88-4.43,8.77,8.77,0,0,1,1-4.54A2.58,2.58,0,0,1,211.08,21.66Zm0,1.15q-1.91,0-1.9,4.73a10.62,10.62,0,0,0,.41,3.28c.32.93.83,1.4,1.51,1.4a1.49,1.49,0,0,0,1.33-1,8.94,8.94,0,0,0,.58-3.72Q213,22.82,211.05,22.81Z"/><path class="cls-6" d="M223,23.11a.51.51,0,0,1,.41.56,10,10,0,0,1-.39,1.91l3.6.13a1.67,1.67,0,0,1,.84.2,1.07,1.07,0,0,1,.39,1,15.91,15.91,0,0,1-.5,3.28,11,11,0,0,1-1.14,3.16,1.44,1.44,0,0,1-1.23.77,5.09,5.09,0,0,1-2.41-.93q-.54-.33-.54-.6a.35.35,0,0,1,.39-.4,1.2,1.2,0,0,1,.54.19,5.55,5.55,0,0,0,1.14.43,1.72,1.72,0,0,0,.46.07.79.79,0,0,0,.69-.39,9.34,9.34,0,0,0,1-2.74,12.8,12.8,0,0,0,.41-2.49c0-.31-.17-.47-.52-.48l-3.39-.12A13.2,13.2,0,0,1,219,32.7c-.51.45-.87.68-1.08.68a.36.36,0,0,1-.31-.16.36.36,0,0,1-.1-.25.85.85,0,0,1,.36-.55,12.41,12.41,0,0,0,3-4.42,16.68,16.68,0,0,0,1.24-4.29.68.68,0,0,1,.35-.58l-5.17.26h0a.35.35,0,0,1-.27-.1.57.57,0,0,1-.19-.47c0-.36.16-.54.49-.56l11.87-.59h0a.39.39,0,0,1,.32.13.58.58,0,0,1,.17.43.55.55,0,0,1-.24.48.51.51,0,0,1-.28.08Z"/><path class="cls-6" d="M243.38,27.56l-8.63.61v5.19a.52.52,0,0,1-.15.38.57.57,0,0,1-.44.18.56.56,0,0,1-.6-.56v-11a.49.49,0,0,1,.24-.44.65.65,0,0,1,.36-.1.59.59,0,0,1,.51.26l8.59-.68h.17c.76,0,1.14.41,1.14,1.24V32.9c0,.86-.37,1.29-1.09,1.29a6,6,0,0,1-1.52-.26,7.25,7.25,0,0,1-1.15-.36c-.26-.12-.39-.26-.39-.45s.14-.44.42-.44a1.61,1.61,0,0,1,.34.06,7.61,7.61,0,0,0,1.63.23q.41,0,.51-.18a.9.9,0,0,0,.06-.36Zm-5-.72v-4l-3.61.29v4Zm1.15-.08,3.87-.28V22.9c0-.3-.13-.44-.38-.44h-.08l-3.41.26Z"/><path class="cls-6" d="M66.81,91.62a14.54,14.54,0,0,0,4.08-3.81,1.79,1.79,0,0,0,.32-.59c0-.07-.06-.1-.19-.1l-.61,0c-.39,0-1.47.1-3.22.19-2.29.13-4.28.27-5.95.42h-.18a.53.53,0,0,1-.4-.17.57.57,0,0,1-.17-.41.52.52,0,0,1,.4-.53,6,6,0,0,1,.91-.09L63,86.48q2.67-.2,6.93-.42L71.42,86l.24,0a1.26,1.26,0,0,1,.7.19.84.84,0,0,1,.36.73,3.45,3.45,0,0,1-.92,1.76,16.78,16.78,0,0,1-4.25,3.68,16.36,16.36,0,0,1,1.33,1.5,1.06,1.06,0,0,1,.23.61.72.72,0,0,1-.7.71.58.58,0,0,1-.44-.21,4.26,4.26,0,0,1-.26-.35A27.41,27.41,0,0,0,64.6,91a.67.67,0,0,1-.26-.45.46.46,0,0,1,.11-.29.46.46,0,0,1,.34-.15,1.08,1.08,0,0,1,.6.29C65.91,90.84,66.39,91.24,66.81,91.62Z"/><path class="cls-6" d="M82.52,88.72a23.49,23.49,0,0,1-5,2.65,1.17,1.17,0,0,1-.39.09.37.37,0,0,1-.36-.21.41.41,0,0,1,.17-.58l.84-.39a20.37,20.37,0,0,0,3.93-2.36A17.49,17.49,0,0,0,85.5,84a.58.58,0,0,1,.5-.28.71.71,0,0,1,.41.13.5.5,0,0,1,.24.45,1.44,1.44,0,0,1-.34.71,15.41,15.41,0,0,1-2.89,3,.64.64,0,0,1,.29.6v6.7c0,.44-.2.65-.59.65s-.6-.21-.6-.65Z"/><path class="cls-6" d="M94.89,89.85a.53.53,0,0,1,.24.06.42.42,0,0,1,.25.4,5.51,5.51,0,0,1-.45,1.37,8.62,8.62,0,0,1-1.28,2.26.75.75,0,0,1-.57.31.63.63,0,0,1-.39-.13.56.56,0,0,1-.23-.46,1.14,1.14,0,0,1,.33-.64,9.71,9.71,0,0,0,1.62-2.78Q94.57,89.85,94.89,89.85Zm3.19-3.16c0-.73,0-1.36,0-1.89a2.78,2.78,0,0,1,.1-1,.55.55,0,0,1,.5-.26.51.51,0,0,1,.56.4,3.62,3.62,0,0,1,0,.7c0,.68,0,1.35,0,2,1.72-.11,3-.21,3.92-.29h.2a.69.69,0,0,1,.36.09.49.49,0,0,1,.27.47.51.51,0,0,1-.44.54,1.91,1.91,0,0,1-.42,0l-3.57.26-.32,0v.58q.08,6.3.07,6.4a1.87,1.87,0,0,1-.21,1,.74.74,0,0,1-.68.43,1.19,1.19,0,0,1-.55-.2L97,95.4l-.78-.47c-.25-.16-.37-.31-.37-.45s.12-.39.37-.39a1.06,1.06,0,0,1,.39.11c.58.26,1,.44,1.25.52a.41.41,0,0,0,.16,0c.07,0,.11-.11.11-.31a1.13,1.13,0,0,0,0-.14v-1.5c0-.13,0-1.6,0-4.41v-.56c-2.61.21-4,.31-4.29.31a.77.77,0,0,1-.4-.11.54.54,0,0,1-.23-.48.5.5,0,0,1,.4-.54,2.14,2.14,0,0,1,.5-.06c.34,0,1.55-.1,3.64-.24Zm3.8,3c.36,0,1,.56,1.81,1.67a3.79,3.79,0,0,1,1,1.87.58.58,0,0,1-.21.5.66.66,0,0,1-.43.16.57.57,0,0,1-.47-.24l-.17-.31a16.15,16.15,0,0,0-1.69-2.76.76.76,0,0,1-.22-.47.41.41,0,0,1,.12-.28A.35.35,0,0,1,101.88,89.69Z"/><path class="cls-6" d="M119.45,88.63q.81,0,.81.6a.52.52,0,0,1-.34.55,4.66,4.66,0,0,1-.92.07q-3.56.11-9.56.46h-.09a.64.64,0,0,1-.43-.14.57.57,0,0,1-.2-.46.55.55,0,0,1,.53-.59l.79-.06c2-.11,3.48-.19,4.54-.23l3.43-.14Q119.07,88.63,119.45,88.63Z"/><path class="cls-6" d="M134.55,93.16q-2.51.65-5.75,1.16c-1.56.25-2.45.37-2.68.37a1.14,1.14,0,0,1-.66-.2.72.72,0,0,1-.33-.63,1,1,0,0,1,.17-.54c0-.08.18-.29.42-.65a47.86,47.86,0,0,0,3-5.29q.64-1.27,1.14-2.4a.65.65,0,0,1,.61-.46.79.79,0,0,1,.44.14.62.62,0,0,1,.27.52,2.56,2.56,0,0,1-.35.89,65.66,65.66,0,0,1-4.14,7,.5.5,0,0,0-.11.23c0,.08.07.11.22.11a28.3,28.3,0,0,0,3.13-.35c1.38-.2,2.75-.44,4.1-.72a22.74,22.74,0,0,0-1.41-2,.72.72,0,0,1-.19-.45.38.38,0,0,1,.12-.29.38.38,0,0,1,.3-.13c.37,0,1.15.81,2.34,2.42a6.32,6.32,0,0,1,1.4,2.5.63.63,0,0,1-.3.54.71.71,0,0,1-.44.15.63.63,0,0,1-.58-.45C135.16,94.29,134.91,93.81,134.55,93.16Z"/><path class="cls-6" d="M146.91,86.12a2.44,2.44,0,0,1,.18,1.06,10.09,10.09,0,0,1-1.83,5.24q-1.37,2.16-2.55,2.16a1.86,1.86,0,0,1-1.48-.85,4.46,4.46,0,0,1-.83-2.82,5,5,0,0,1,1.39-3.36,7.09,7.09,0,0,1,2.71-1.89,8.05,8.05,0,0,1,3-.59,5.2,5.2,0,0,1,3.66,1.33,4.73,4.73,0,0,1,1.56,3.66,5.29,5.29,0,0,1-1.27,3.54A6.19,6.19,0,0,1,149,95.34a1.37,1.37,0,0,1-.44.1.42.42,0,0,1-.36-.17.34.34,0,0,1-.08-.23.49.49,0,0,1,.15-.33,5.55,5.55,0,0,1,.63-.38A5,5,0,0,0,150.46,93a4.62,4.62,0,0,0,1-2.89,3.92,3.92,0,0,0-3.92-4l-.59,0h-.05Zm-1.06.19a6.12,6.12,0,0,0-3.53,2.35,3.79,3.79,0,0,0-.77,2.23,3.67,3.67,0,0,0,.53,2.06c.22.34.44.51.65.51.38,0,.85-.43,1.4-1.28a12.22,12.22,0,0,0,1.37-2.84,6.82,6.82,0,0,0,.4-2.16C145.9,87,145.88,86.71,145.85,86.31Z"/><path class="cls-6" d="M39.42,105.17a.32.32,0,0,1,.36.37c0,.19-.34.57-1,1.11a10.52,10.52,0,0,1-1.83,1.21,1,1,0,0,1-.4.11.49.49,0,0,1-.43-.25.47.47,0,0,1-.09-.28c0-.24.19-.45.56-.63a14,14,0,0,0,2.37-1.45A.82.82,0,0,1,39.42,105.17Zm1.1,8.77a.52.52,0,0,1,.45.22.65.65,0,0,1,.12.37c0,.21-.14.38-.42.53a15.83,15.83,0,0,1-2.85,1,5.71,5.71,0,0,1-1,.24c-.27,0-.41-.15-.41-.45a.44.44,0,0,1,.17-.35,2.73,2.73,0,0,1,.47-.19,16.83,16.83,0,0,0,3.07-1.31A.87.87,0,0,1,40.52,113.94Zm-3.37-11.36a3.66,3.66,0,0,1,.66.14,10.3,10.3,0,0,1,1.49.52c.28.14.43.32.43.55a.59.59,0,0,1-.07.29.52.52,0,0,1-.5.28,1,1,0,0,1-.5-.18c-.44-.25-1-.52-1.64-.82a.45.45,0,0,1-.3-.39C36.72,102.71,36.86,102.58,37.15,102.58ZM46,113.34l-6.54.31a.52.52,0,0,1-.55.39c-.37,0-.56-.18-.56-.53v-5.4c0-.35.19-.53.56-.53a.54.54,0,0,1,.51.28l6.43-.4H46a.93.93,0,0,1,.9.39,1.7,1.7,0,0,1,.14.77v4.75a.47.47,0,0,1-.1.32.54.54,0,0,1-.45.21C46.14,113.89,46,113.71,46,113.34Zm-6.53-4.62v.8l6.53-.37v-.38c0-.31-.13-.47-.4-.47h-.11Zm6.53,2v-.85l-6.53.37v.85Zm0,.78-6.53.37v.87l6.53-.32Zm-3.05-8.48,5-.33h.09a.7.7,0,0,1,.51.16.48.48,0,0,1,.18.39,1.7,1.7,0,0,1-.6,1c-.61.61-1,.92-1.25.92a.42.42,0,0,1-.32-.15.3.3,0,0,1-.08-.22.64.64,0,0,1,.21-.38,5.12,5.12,0,0,0,.43-.52.36.36,0,0,0,.09-.18c0-.06-.07-.09-.2-.08h-.08l-4.57.29c-.74.89-1.26,1.34-1.56,1.34a.34.34,0,0,1-.26-.12.4.4,0,0,1-.13-.28c0-.11.12-.28.35-.51a9.38,9.38,0,0,0,1.23-1.65,5.81,5.81,0,0,0,.34-.64.55.55,0,0,1,.53-.34.52.52,0,0,1,.29.09.49.49,0,0,1,.26.43A2.36,2.36,0,0,1,42.9,103.07Zm1.77,1.68a9.29,9.29,0,0,0,1.44,1A14.07,14.07,0,0,0,49,107.16c.42.15.63.29.63.44s-.06.13-.17.16a3.62,3.62,0,0,1-1.18.26,1.84,1.84,0,0,1-.81-.28,17.32,17.32,0,0,1-3.21-2.27,4,4,0,0,1-.93,1,6.51,6.51,0,0,1-2.26,1.17.91.91,0,0,1-.25,0,.36.36,0,0,1-.41-.4q0-.24.48-.42a4.92,4.92,0,0,0,1.8-1.08,3.63,3.63,0,0,0,1-1.52.44.44,0,0,1,.46-.36,1,1,0,0,1,.38.09.39.39,0,0,1,.23.37A1.24,1.24,0,0,1,44.67,104.75Zm.17,9.08a6.49,6.49,0,0,1,1.19.39c1.11.43,1.83.74,2.19.93a.69.69,0,0,1,.41.58.56.56,0,0,1-.11.32.54.54,0,0,1-.48.28,1.55,1.55,0,0,1-.67-.26c-.86-.5-1.7-.93-2.5-1.31-.3-.15-.46-.31-.46-.5a.42.42,0,0,1,.06-.21A.39.39,0,0,1,44.84,113.83Z"/><path class="cls-6" d="M59.36,103.61l4-.29h.06a.45.45,0,0,1,.44.26.55.55,0,0,1,.07.25.45.45,0,0,1-.46.49l-1.35.1s-.11.33-.3.88-.37,1-.57,1.5l3.32-.23c.37,0,.55.17.55.52a.44.44,0,0,1-.44.5l-9.9.69v.3a12.15,12.15,0,0,1-1,5.36,7.48,7.48,0,0,1-1,1.62.61.61,0,0,1-.47.31.54.54,0,0,1-.48-.47,1.15,1.15,0,0,1,.24-.52,10.76,10.76,0,0,0,1.54-6.11v-.41h-.09a.5.5,0,0,1-.37-.15.53.53,0,0,1-.14-.37.45.45,0,0,1,.46-.51l2.92-.2c-.17-.67-.4-1.41-.69-2.23l-1.49.11h-.07a.45.45,0,0,1-.43-.25.49.49,0,0,1-.06-.25A.44.44,0,0,1,54,104l4.13-.31v-1.28a.56.56,0,0,1,.2-.45.65.65,0,0,1,.4-.12.57.57,0,0,1,.48.21.52.52,0,0,1,.13.36Zm-1.92,6.68,1.78-.14v-1.33a.47.47,0,0,1,.19-.39.58.58,0,0,1,.4-.14.6.6,0,0,1,.48.21.5.5,0,0,1,.11.32v1.25l2.88-.23h.08c.34,0,.52.15.52.46a.48.48,0,0,1-.52.53l-3,.2v1.32l2.67-.17h.09c.32,0,.49.15.49.45s-.17.49-.52.51l-2.73.16v1.49l4.21-.18h0a.48.48,0,0,1,.46.18.47.47,0,0,1,.1.3.48.48,0,0,1-.53.54L55.2,116h0a.49.49,0,0,1-.32-.09.41.41,0,0,1-.2-.39.47.47,0,0,1,.52-.51l4.06-.18v-1.47l-2.66.16c-.37,0-.56-.13-.56-.45s.17-.47.52-.5l2.7-.17v-1.31l-2.31.15c-.55.92-1,1.38-1.22,1.38a.38.38,0,0,1-.28-.13.42.42,0,0,1-.14-.3,1.17,1.17,0,0,1,.21-.49,12.38,12.38,0,0,0,1.1-2.29c.13-.36.32-.54.58-.54a.49.49,0,0,1,.29.08.46.46,0,0,1,.28.46A2.6,2.6,0,0,1,57.44,110.29Zm-.71-5.48a.77.77,0,0,0,.07.17,12.55,12.55,0,0,1,.65,2.07l2.64-.19a16.73,16.73,0,0,0,.73-2.35Z"/><path class="cls-6" d="M70.71,105.81v9.66a.49.49,0,0,1-.14.36.53.53,0,0,1-.41.16c-.37,0-.55-.17-.55-.52v-7.68a15.68,15.68,0,0,1-1.31,1.77.63.63,0,0,1-.45.26.39.39,0,0,1-.29-.13.4.4,0,0,1-.14-.29,2,2,0,0,1,.42-.72,17.06,17.06,0,0,0,1.61-2.81A26.94,26.94,0,0,0,70.62,103c.13-.38.33-.57.61-.57a.55.55,0,0,1,.28.07.46.46,0,0,1,.29.46,2.35,2.35,0,0,1-.16.63A21,21,0,0,1,70.71,105.81Zm4,2.26-.16-3-2,.14h-.08c-.34,0-.52-.16-.52-.48a.5.5,0,0,1,.54-.55l8.32-.63h.06c.36,0,.55.17.55.51a.52.52,0,0,1-.55.56l-1.92.13-.17,3,1.64-.12h.18c.75,0,1.13.35,1.13,1,0,.09,0,.17,0,.24l-.56,5.85q-.06.54-.54.54c-.37,0-.56-.16-.56-.47a.35.35,0,0,0,0-.07l0-.32-6.4.29c0,.31-.19.47-.55.47s-.5-.18-.55-.54l-.68-6.36v-.1c0-.31.18-.47.55-.47a.52.52,0,0,1,.55.44Zm.3,5.64-.25-4.64-1.68.11.47,4.59Zm.75-5.72,1.92-.14.13-3-2.18.15Zm1.68,5.61.2-4.74L75.8,109l.2,4.66Zm1,0,1.71-.08.38-4.4a.39.39,0,0,0,0-.09q0-.33-.39-.3l-1.45.1Z"/><path class="cls-6" d="M86.6,106v9.76a.48.48,0,0,1-.14.35.57.57,0,0,1-.41.16c-.37,0-.55-.17-.55-.51v-8c-.81,1.14-1.37,1.71-1.7,1.71a.34.34,0,0,1-.25-.11.41.41,0,0,1-.14-.29c0-.1.14-.32.44-.67a13.08,13.08,0,0,0,1.31-2,27,27,0,0,0,1.67-3.62c.14-.37.34-.56.61-.56a.54.54,0,0,1,.27.07.48.48,0,0,1,.31.47,2.14,2.14,0,0,1-.18.65A25,25,0,0,1,86.6,106ZM89,109v5.3c0,.29.14.43.4.43h.1l8.07-.22c.38,0,.57.15.57.5a.49.49,0,0,1-.54.54l-8.47.19H89c-.52,0-.85-.12-1-.35a1.41,1.41,0,0,1-.13-.67V109a.48.48,0,0,1,.55-.53A.46.46,0,0,1,89,109Zm4.68-2.8,1.43-.12h.16c.64,0,1,.34,1,1v6c0,.34-.17.51-.53.51a.45.45,0,0,1-.51-.51v0l-3.79.26a.47.47,0,0,1-.5.38.46.46,0,0,1-.51-.53v-6.69a.4.4,0,0,1,.18-.35.6.6,0,0,1,.34-.11.46.46,0,0,1,.5.37l1.19-.1v-1.38l-3.25.27h-.09a.47.47,0,0,1-.32-.1.43.43,0,0,1-.17-.37.47.47,0,0,1,.5-.51l3.33-.28v-1.53a.43.43,0,0,1,.17-.36.57.57,0,0,1,.37-.12.6.6,0,0,1,.37.11.43.43,0,0,1,.18.37v1.45l3-.25h.08c.33,0,.5.15.5.45s-.17.48-.51.51l-3.06.26Zm1.5,1.88v-.79c0-.19-.08-.28-.26-.28h-.06l-3.46.29v1.06Zm0,.87-3.78.26v1.16l3.78-.26Zm0,2-3.78.26v1.2l3.78-.26Z"/><path class="cls-6" d="M108.72,113.51h4.78a.51.51,0,0,1,.55.58.5.5,0,0,1-.55.57h-5.1c-.63,0-.94-.28-.94-.86a1.58,1.58,0,0,1,.3-.77,27.09,27.09,0,0,1,2.72-3.45c.71-.82,1.17-1.37,1.38-1.66a3,3,0,0,0,.62-1.72,2,2,0,0,0-.31-1.17,1.53,1.53,0,0,0-1.37-.69,1.91,1.91,0,0,0-1.81,1.2.54.54,0,0,1-.51.33.81.81,0,0,1-.39-.1.49.49,0,0,1-.26-.45,1.12,1.12,0,0,1,.17-.52,2.87,2.87,0,0,1,1.34-1.26,3.3,3.3,0,0,1,1.47-.33,2.78,2.78,0,0,1,2.15.86,3,3,0,0,1,.77,2.15,3.78,3.78,0,0,1-.86,2.24c-.28.36-.86,1-1.75,2A29.91,29.91,0,0,0,108.72,113.51Z"/><path class="cls-6" d="M117.25,112.34a1.28,1.28,0,0,1,.84.32,1.38,1.38,0,0,1,.45,1.1,3.89,3.89,0,0,1-.7,2.18,3,3,0,0,1-1,1,.68.68,0,0,1-.32.09.33.33,0,0,1-.27-.11.35.35,0,0,1-.13-.28c0-.11.09-.22.27-.35a2.14,2.14,0,0,0,.81-1.17,1,1,0,0,0,.06-.26c0-.08-.1-.13-.28-.15a.89.89,0,0,1-.66-.34,1.34,1.34,0,0,1-.26-.84,1.13,1.13,0,0,1,.39-.88A1.19,1.19,0,0,1,117.25,112.34Z"/><path class="cls-6" d="M124,104.43c0-.65.41-1,1.11-1h4.13a.45.45,0,0,1,.35.15.58.58,0,0,1,.15.41.55.55,0,0,1-.24.49.45.45,0,0,1-.26.08h-3.73a.31.31,0,0,0-.35.34l-.1,3.14a2.91,2.91,0,0,1,2-.81,2.61,2.61,0,0,1,2.22,1.13,4.28,4.28,0,0,1,.71,2.54,4.87,4.87,0,0,1-.55,2.36,3,3,0,0,1-2.77,1.64,3.69,3.69,0,0,1-1.67-.38,3,3,0,0,1-1.11-.91.79.79,0,0,1-.18-.47.54.54,0,0,1,.18-.41.62.62,0,0,1,.44-.18.76.76,0,0,1,.58.39,2,2,0,0,0,1.76.82,1.78,1.78,0,0,0,1.54-.89,3.63,3.63,0,0,0,.53-2,3.32,3.32,0,0,0-.35-1.58,1.67,1.67,0,0,0-1.54-1,2.11,2.11,0,0,0-1.8,1,.75.75,0,0,1-.59.39c-.43,0-.64-.2-.63-.61Z"/><path class="cls-6" d="M134.73,103.2a2.61,2.61,0,0,1,2.41,1.62,9.24,9.24,0,0,1,.79,4.23,9.9,9.9,0,0,1-.69,4,2.68,2.68,0,0,1-2.53,1.83,2.56,2.56,0,0,1-2.33-1.45,9,9,0,0,1-.88-4.43,8.77,8.77,0,0,1,.95-4.54A2.58,2.58,0,0,1,134.73,103.2Zm0,1.15c-1.27,0-1.9,1.57-1.9,4.73a10.32,10.32,0,0,0,.41,3.28c.32.93.83,1.4,1.51,1.4a1.49,1.49,0,0,0,1.33-1,8.94,8.94,0,0,0,.58-3.72Q136.63,104.36,134.7,104.35Z"/><path class="cls-6" d="M142.73,103.2a2.61,2.61,0,0,1,2.41,1.62,9.24,9.24,0,0,1,.79,4.23,9.9,9.9,0,0,1-.69,4,2.68,2.68,0,0,1-2.53,1.83,2.56,2.56,0,0,1-2.33-1.45,9,9,0,0,1-.88-4.43,8.77,8.77,0,0,1,.95-4.54A2.58,2.58,0,0,1,142.73,103.2Zm0,1.15c-1.27,0-1.9,1.57-1.9,4.73a10.32,10.32,0,0,0,.41,3.28c.32.93.83,1.4,1.51,1.4a1.49,1.49,0,0,0,1.33-1,8.94,8.94,0,0,0,.58-3.72Q144.63,104.36,142.7,104.35Z"/><path class="cls-6" d="M154.6,104.65a.51.51,0,0,1,.41.56,10,10,0,0,1-.39,1.91l3.6.13a1.6,1.6,0,0,1,.83.2,1.05,1.05,0,0,1,.4,1,15.91,15.91,0,0,1-.5,3.28,11,11,0,0,1-1.14,3.16,1.45,1.45,0,0,1-1.23.77,5.09,5.09,0,0,1-2.41-.93q-.54-.33-.54-.6a.35.35,0,0,1,.39-.4,1.13,1.13,0,0,1,.53.19,5.89,5.89,0,0,0,1.15.43,2.24,2.24,0,0,0,.46.07.79.79,0,0,0,.69-.39,9.34,9.34,0,0,0,1-2.74,12.8,12.8,0,0,0,.41-2.49c0-.31-.18-.47-.52-.48l-3.39-.12a13.2,13.2,0,0,1-3.7,6.07c-.51.45-.87.68-1.08.68a.36.36,0,0,1-.31-.16.36.36,0,0,1-.1-.25.87.87,0,0,1,.35-.55,12.52,12.52,0,0,0,3-4.42,17.09,17.09,0,0,0,1.24-4.29.68.68,0,0,1,.35-.58l-5.17.26h0a.33.33,0,0,1-.27-.09.57.57,0,0,1-.19-.47c0-.36.16-.54.49-.56l11.87-.59h0a.39.39,0,0,1,.32.13.58.58,0,0,1,.17.43.55.55,0,0,1-.24.48.51.51,0,0,1-.28.08Z"/><path class="cls-6" d="M175,109.1l-8.63.61v5.19a.54.54,0,0,1-.15.38.63.63,0,0,1-.94-.06.51.51,0,0,1-.1-.32v-11a.48.48,0,0,1,.24-.44.65.65,0,0,1,.87.16l8.59-.68h.17c.76,0,1.14.41,1.14,1.24v10.3c0,.87-.37,1.3-1.09,1.3a6,6,0,0,1-1.52-.26,6.93,6.93,0,0,1-1.15-.36q-.39-.18-.39-.45c0-.29.14-.44.42-.44a1.61,1.61,0,0,1,.34.06,8.32,8.32,0,0,0,1.63.23q.4,0,.51-.18A.9.9,0,0,0,175,114Zm-5-.72v-4l-3.61.29v4Zm1.15-.08L175,108v-3.59c0-.29-.13-.43-.38-.43h-.08l-3.41.26Z"/><path class="cls-7" d="M15.74,159.52a11.57,11.57,0,0,1-.58,1.7l1.12-.1h.07c.33,0,.49.15.49.46s-.17.47-.5.5l-5.57.5h-.09c-.31,0-.47-.17-.47-.5s.15-.4.47-.43l1.51-.14c-.16-.51-.37-1.07-.62-1.68h-.3c-.29,0-.43-.13-.43-.4a.44.44,0,0,1,.45-.48l1.78-.15v-1.37a.48.48,0,0,1,.2-.4.59.59,0,0,1,.78.08.44.44,0,0,1,.12.32v1.28l1.69-.14h.07a.42.42,0,0,1,.47.43.45.45,0,0,1-.46.51Zm-2.67,6.92c.37,0,.56.18.56.52a3.28,3.28,0,0,1-.38,1.09,5.8,5.8,0,0,1-2.18,2.5.51.51,0,0,1-.3.11.34.34,0,0,1-.28-.14.42.42,0,0,1-.1-.25c0-.12.15-.31.43-.55a6.59,6.59,0,0,0,1.81-2.91A.46.46,0,0,1,13.07,166.44Zm1.2-.1-1.76.13c-.06.21-.24.32-.53.32s-.41-.17-.45-.52l-.37-2.65a.28.28,0,0,1,0-.1c0-.29.17-.44.52-.44a.45.45,0,0,1,.46.32l3.44-.32h.12a.6.6,0,0,1,.67.68,1.32,1.32,0,0,1,0,.29l-.26,1.42a.5.5,0,0,1,.17.37c0,.25-.16.38-.47.4l-.51,0-.09,2.52a11.36,11.36,0,0,0,1.75-1.14.66.66,0,0,1,.36-.15.38.38,0,0,1,.27.15.41.41,0,0,1,.12.27c0,.19-.54.67-1.6,1.45a3.29,3.29,0,0,1-1.27.7.59.59,0,0,1-.41-.18.85.85,0,0,1-.27-.61v-.13Zm.87-.9.13-1.18v-.06A.2.2,0,0,0,15,164H15l-2.72.25.17,1.39Zm-.45-5.85-2.13.17a15.88,15.88,0,0,1,.58,1.65l1-.09,0-.07A14.34,14.34,0,0,0,14.69,159.59Zm5.09,6.81a.59.59,0,0,1,.29.07.51.51,0,0,1,.32.47A3,3,0,0,1,20,168a6.11,6.11,0,0,1-2.52,2.69,1.27,1.27,0,0,1-.55.2.26.26,0,0,1-.24-.14.39.39,0,0,1-.11-.26.3.3,0,0,1,.08-.22A3.83,3.83,0,0,1,17,170a5.82,5.82,0,0,0,1.81-2.14,7.52,7.52,0,0,0,.47-1.12A.47.47,0,0,1,19.78,166.4Zm3.09-7.18a9.21,9.21,0,0,1-.62,1.74l1.8-.13h.08c.31,0,.47.15.47.45a.48.48,0,0,1-.5.52l-6.42.41h-.07c-.31,0-.47-.14-.47-.43s.16-.46.48-.48l1.42-.11a11.57,11.57,0,0,0-.67-1.61l-.35,0h-.09c-.29,0-.43-.11-.43-.41a.43.43,0,0,1,.44-.49l2-.17v-1.33a.45.45,0,0,1,.19-.41.61.61,0,0,1,.35-.11c.36,0,.54.17.54.52v1.23l2.18-.18q.54,0,.54.42a.45.45,0,0,1-.47.5Zm.38,6.2a.43.43,0,0,1,.22.41c0,.25-.15.38-.46.39l-1.11.05-.11,3.09v.08a.37.37,0,0,0,.08.26.54.54,0,0,0,.38.1,7.17,7.17,0,0,0,1-.07.44.44,0,0,0,.39-.4,9.63,9.63,0,0,0,.05-1.29,1,1,0,0,1,.05-.4.25.25,0,0,1,.26-.13q.3,0,.39.36a8,8,0,0,1,.2,1.78.93.93,0,0,1-.74,1,8.28,8.28,0,0,1-1.53.09A2.46,2.46,0,0,1,21,170.5a1,1,0,0,1-.26-.8v-.15l.12-3.23-1.73.08a.45.45,0,0,1-.5.35c-.29,0-.46-.17-.5-.51l-.34-2.87v-.08c0-.29.17-.44.52-.44a.44.44,0,0,1,.45.28l3.95-.26a.87.87,0,0,1,.55.1.59.59,0,0,1,.3.54s0,.09,0,.17Zm-1,0,.13-1.32a.41.41,0,0,0,0-.12c0-.14-.07-.21-.22-.21h-.06l-3.24.21.16,1.58Zm-.47-6.1-2.41.2a13.33,13.33,0,0,1,.6,1.61l1.26-.08A11.82,11.82,0,0,0,21.8,159.31Z"/><path class="cls-7" d="M28.39,164.54c-.05,1.4-.34,2.1-.88,2.1a.75.75,0,0,1-.31-.08.48.48,0,0,1-.29-.47,1,1,0,0,1,.1-.39,7.12,7.12,0,0,0,.5-2.19c0-.32.16-.47.42-.47h0c.24,0,.38.17.43.51L39,162.87h.1c.49,0,.74.17.74.53A3.19,3.19,0,0,1,39,165c-.37.45-.64.67-.82.67s-.41-.12-.41-.35a.74.74,0,0,1,.12-.33,5.86,5.86,0,0,0,.38-.81.45.45,0,0,0,.06-.19q0-.09-.18-.09h-.17Zm3.18.68c.42,0,.63.2.63.59a4.36,4.36,0,0,1-.27,1.09,5.84,5.84,0,0,1-3.43,3.63,2.71,2.71,0,0,1-.85.26.34.34,0,0,1-.29-.15.5.5,0,0,1-.1-.26.35.35,0,0,1,.16-.3,6,6,0,0,1,.54-.28,5.23,5.23,0,0,0,2-1.73,6.59,6.59,0,0,0,1-2.37A.54.54,0,0,1,31.57,165.22ZM34,159.63v1.3l3.4-.21h0a.48.48,0,0,1,.27.06.48.48,0,0,1-.19.9l-8,.5h-.08c-.33,0-.5-.16-.5-.47a.44.44,0,0,1,.47-.49l3.39-.21v-1.3l-4.13.26h-.08a.41.41,0,0,1-.41-.2.49.49,0,0,1-.09-.3.45.45,0,0,1,.47-.5l4.24-.26v-1.43a.52.52,0,0,1,.21-.44.65.65,0,0,1,.4-.12.63.63,0,0,1,.44.16.54.54,0,0,1,.17.4v1.35l4.22-.26c.38,0,.56.16.56.5a.43.43,0,0,1-.45.49Zm1,5.57L35,168.91c0,.28.08.46.25.54a4.76,4.76,0,0,0,1.28.09,18.58,18.58,0,0,0,2.17-.09.62.62,0,0,0,.57-.52,5.08,5.08,0,0,0,.08-1.09c0-.37.14-.56.39-.56s.42.16.48.48a8.54,8.54,0,0,1,.19,1.68.94.94,0,0,1-.72,1,13.78,13.78,0,0,1-3.11.21c-.94,0-1.54,0-1.81,0a1.06,1.06,0,0,1-.87-.53,1.53,1.53,0,0,1-.13-.7v-.07l.07-4.08a.53.53,0,0,1,.6-.59A.54.54,0,0,1,35,165.2Z"/><path class="cls-7" d="M49.59,160.12a2.59,2.59,0,0,1,.17,1.06,10.09,10.09,0,0,1-1.83,5.24c-.9,1.44-1.75,2.16-2.54,2.16a1.86,1.86,0,0,1-1.49-.86,4.47,4.47,0,0,1-.83-2.81,5,5,0,0,1,1.39-3.36,7.13,7.13,0,0,1,2.72-1.89,8.05,8.05,0,0,1,3-.59,5.18,5.18,0,0,1,3.65,1.33,4.74,4.74,0,0,1,1.57,3.66,5.3,5.3,0,0,1-1.28,3.54,6,6,0,0,1-2.44,1.73,1.13,1.13,0,0,1-.43.11.42.42,0,0,1-.36-.17.37.37,0,0,1-.09-.23.44.44,0,0,1,.16-.33,4.53,4.53,0,0,1,.62-.38A5,5,0,0,0,53.14,167a4.62,4.62,0,0,0,1-2.9,3.89,3.89,0,0,0-3.91-4l-.59,0h0Zm-1.06.18A6.13,6.13,0,0,0,45,162.65a3.83,3.83,0,0,0-.78,2.24,3.69,3.69,0,0,0,.53,2.05c.23.35.44.52.65.52.38,0,.85-.43,1.41-1.28a12.63,12.63,0,0,0,1.37-2.84,7.07,7.07,0,0,0,.39-2.16C48.57,161,48.56,160.71,48.53,160.3Z"/><path class="cls-7" d="M59,163.08a4.4,4.4,0,0,1,1.4.65,7.4,7.4,0,0,1,.84.55.62.62,0,0,1,.23.49.71.71,0,0,1-.1.37.5.5,0,0,1-.42.22.68.68,0,0,1-.45-.17s-.28-.23-.71-.61-.61-.5-.92-.72a.5.5,0,0,1-.24-.4.4.4,0,0,1,.09-.24A.32.32,0,0,1,59,163.08Zm9.08-4-.12.76c0,.35-.22.52-.51.52s-.5-.15-.5-.47v-.07l.06-.68-3.4.19.09,1a.31.31,0,0,1,0,.1.46.46,0,0,1-.52.5.53.53,0,0,1-.56-.53l-.13-1-3.11.18a.52.52,0,0,1-.46-.18.51.51,0,0,1-.1-.32.44.44,0,0,1,.46-.5l3.06-.17-.15-1s0-.07,0-.11a.47.47,0,0,1,.32-.46.53.53,0,0,1,.28-.07.55.55,0,0,1,.6.55l.11,1.08,3.6-.2.09-1a.54.54,0,0,1,.59-.56.64.64,0,0,1,.43.15.54.54,0,0,1,.17.4v.1l-.14.86,3.15-.17c.37,0,.55.17.55.5s-.14.48-.44.49Zm-6.53,7.07a.6.6,0,0,1,.27.07.43.43,0,0,1,.24.42,8.07,8.07,0,0,1-1.28,2.64,10.14,10.14,0,0,1-.59.89.68.68,0,0,1-.52.29.61.61,0,0,1-.37-.14.59.59,0,0,1-.22-.47,1.2,1.2,0,0,1,.32-.64A17,17,0,0,0,61,166.61C61.18,166.34,61.34,166.2,61.54,166.2Zm-1.31-5.37a3.34,3.34,0,0,1,1.27.58,8.83,8.83,0,0,1,.89.59.62.62,0,0,1,.25.49.59.59,0,0,1-.59.59.91.91,0,0,1-.6-.33,10.19,10.19,0,0,0-1.37-1.13.49.49,0,0,1-.24-.4A.34.34,0,0,1,60.23,160.83ZM70,169.47a.44.44,0,0,1,.28.45c0,.3-.17.45-.52.46l-4,.17s0,.06,0,.1c0,.31-.18.47-.53.47s-.5-.18-.55-.54l-.49-3.47V167a.28.28,0,0,1,0-.19,6.57,6.57,0,0,1-1.63.69.39.39,0,0,1-.33-.21.48.48,0,0,1-.08-.25.39.39,0,0,1,.2-.34,4.75,4.75,0,0,1,.65-.27A13.65,13.65,0,0,0,65.73,165c.25-.17.52-.39.83-.65a16,16,0,0,1-1.37-1.19c-.5.48-.91.84-1.23,1.09a1,1,0,0,1-.62.26.41.41,0,0,1-.43-.37.43.43,0,0,1,.16-.31,2.46,2.46,0,0,1,.29-.24,11,11,0,0,0,2.39-2.79c.16-.27.34-.4.54-.4a.73.73,0,0,1,.31.07.45.45,0,0,1,.29.42.34.34,0,0,1,0,.13l2.42-.15h.1A1,1,0,0,1,70,161a.52.52,0,0,1,.25.46A1,1,0,0,1,70,162a11.24,11.24,0,0,1-2,2.33,15.64,15.64,0,0,0,4.16,2c.42.11.63.23.63.35s-.09.16-.27.23a4.45,4.45,0,0,1-1.36.36,3.91,3.91,0,0,1-1-.43.69.69,0,0,1,.18.51,2.9,2.9,0,0,1,0,.38Zm-4.68-2.64h0l4-.24h.14a1.18,1.18,0,0,1,.45.07,27.33,27.33,0,0,1-2.66-1.75,17.05,17.05,0,0,1-2.52,1.65A.52.52,0,0,1,65.34,166.83ZM69,169.47l.24-1.53s0-.07,0-.12-.12-.27-.36-.25l-3.36.2.21,1.83Zm-1.72-5.78a8.46,8.46,0,0,0,1.17-1.39,1.22,1.22,0,0,0,.21-.39c0-.09-.06-.13-.19-.12h0l-2.1.14c-.15.19-.32.38-.49.56A11.39,11.39,0,0,0,67.24,163.69Z"/><path class="cls-7" d="M77.67,163.72a16,16,0,0,1-2.46,3.58c-.28.29-.51.44-.68.44a.31.31,0,0,1-.24-.1.42.42,0,0,1-.11-.29.51.51,0,0,1,.09-.28s.22-.29.57-.71a17.25,17.25,0,0,0,2.1-3.46c.18-.38.31-.68.39-.89l-2.19.26H75c-.37,0-.55-.17-.55-.5a.5.5,0,0,1,.5-.56l2.72-.32v-3a.49.49,0,0,1,.18-.4.56.56,0,0,1,.39-.13.58.58,0,0,1,.47.21.5.5,0,0,1,.11.32v2.9l1.75-.2h.12c.37,0,.56.18.56.53a.49.49,0,0,1-.48.54l-2,.22v.91a12.79,12.79,0,0,1,2.06,1.33c.37.29.55.56.55.81a.44.44,0,0,1-.13.32.61.61,0,0,1-.44.22c-.17,0-.39-.14-.65-.42a17.43,17.43,0,0,0-1.39-1.3v6.42a.4.4,0,0,1-.07.24.54.54,0,0,1-.51.25.57.57,0,0,1-.46-.18.44.44,0,0,1-.11-.31Zm5.65-5.59v10c0,.38.11.62.34.73a4.35,4.35,0,0,0,1.45.15,2.79,2.79,0,0,0,1.62-.28.8.8,0,0,0,.23-.55c0-.39.06-.94.07-1.65a1.19,1.19,0,0,1,0-.41.35.35,0,0,1,.35-.21c.24,0,.39.15.44.46a13.89,13.89,0,0,1,.17,2.24,1.28,1.28,0,0,1-.61,1.27,5.6,5.6,0,0,1-2.26.3,5.23,5.23,0,0,1-2.49-.37,1.52,1.52,0,0,1-.55-1.38V158.13c0-.37.2-.56.59-.56a.59.59,0,0,1,.43.16A.51.51,0,0,1,83.32,158.13Z"/><path class="cls-7" d="M93,163.84a28.42,28.42,0,0,1-2.19,3.41.61.61,0,0,1-.47.31.38.38,0,0,1-.25-.11.35.35,0,0,1-.13-.27,1.88,1.88,0,0,1,.4-.72,20.22,20.22,0,0,0,2.41-4.58l-1.88.24h-.13c-.35,0-.52-.16-.52-.5a.5.5,0,0,1,.49-.54l2.27-.27v-3.07a.48.48,0,0,1,.2-.4.66.66,0,0,1,.36-.11.55.55,0,0,1,.36.13.46.46,0,0,1,.2.38v2.94l1.47-.18h.11a.46.46,0,0,1,.51.52.47.47,0,0,1-.47.51l-1.62.2v1a13.62,13.62,0,0,1,2,1.37.8.8,0,0,1,.34.59.53.53,0,0,1-.15.36.56.56,0,0,1-.4.19.9.9,0,0,1-.59-.38c-.42-.47-.81-.87-1.16-1.19v6.67c0,.31-.19.47-.56.47s-.56-.16-.56-.47Zm9.16,5.9-4.12.31v.17c0,.33-.18.5-.55.5s-.52-.17-.52-.5V158.65a.47.47,0,0,1,.2-.39.58.58,0,0,1,.32-.1.52.52,0,0,1,.53.34l4.18-.42h.15c.6,0,.89.32.89,1v11.19a.49.49,0,0,1-.54.51q-.54,0-.54-.51Zm0-8.16v-2.16c0-.21-.1-.32-.28-.32h-.07l-3.77.38v2.41Zm0,1-4.12.34v2.46l4.12-.3Zm0,3.47-4.12.31V169l4.12-.3Z"/><path class="cls-7" d="M109.43,162v3.87c.42-.25.9-.56,1.45-.93a.69.69,0,0,1,.41-.16.43.43,0,0,1,.31.15.44.44,0,0,1,.13.33c0,.16-.14.34-.41.53a26.93,26.93,0,0,1-4.06,2.48,2,2,0,0,1-.65.21.48.48,0,0,1-.45-.27.67.67,0,0,1-.08-.3.49.49,0,0,1,.23-.41,3.83,3.83,0,0,1,.44-.21c.43-.2.94-.46,1.53-.77v-4.35l-1.49.22h-.09a.44.44,0,0,1-.5-.49c0-.3.16-.47.49-.53l1.59-.22v-3.31a.48.48,0,0,1,.18-.38.59.59,0,0,1,.39-.13.59.59,0,0,1,.47.2.47.47,0,0,1,.11.31V161l1.2-.17h.09c.32,0,.48.16.48.5s-.16.44-.48.5Zm8.75,3.83a7,7,0,0,1-.58,1.18,10.18,10.18,0,0,1-3.28,3.51,1,1,0,0,1-.48.18.38.38,0,0,1-.28-.13.41.41,0,0,1-.13-.3.48.48,0,0,1,.11-.32l.46-.36a9.78,9.78,0,0,0,3-3.69l-1.25.08a9.48,9.48,0,0,1-2.62,2.93,3.08,3.08,0,0,1-1.25.72.37.37,0,0,1-.31-.18.38.38,0,0,1-.1-.25.47.47,0,0,1,.17-.34l.38-.27a11.8,11.8,0,0,0,2.52-2.53l-1.16.07a10.39,10.39,0,0,1-1.55,1.32,1.08,1.08,0,0,1-.48.2.42.42,0,0,1-.32-.16.29.29,0,0,1-.1-.23.45.45,0,0,1,.14-.32l.3-.24a12,12,0,0,0,2.41-2.67l-2.13.14h-.09c-.3,0-.45-.14-.45-.43s.16-.48.5-.5l8.53-.59h.07c.33,0,.5.15.5.45s-.17.49-.51.51l-5.19.34a7.9,7.9,0,0,1-.8,1.23l4.93-.32h.14a.77.77,0,0,1,.88.86,10.65,10.65,0,0,1-.16,1.43c-.38,2.46-1,3.69-2,3.69a3.79,3.79,0,0,1-1.49-.49c-.36-.17-.54-.35-.54-.53a.35.35,0,0,1,.39-.4,1.22,1.22,0,0,1,.34.08,3,3,0,0,0,.88.18c.28,0,.51-.18.68-.54a7.49,7.49,0,0,0,.58-2,6.86,6.86,0,0,0,.12-1c0-.25-.13-.36-.4-.33h0Zm-.47-4.1-4.07.26a.47.47,0,0,1-.53.49.49.49,0,0,1-.53-.53l-.24-4v-.11c0-.35.18-.52.55-.52a.51.51,0,0,1,.49.24l4.44-.39.21,0q.94,0,.9.93l-.18,3.6a.52.52,0,0,1-1,0Zm.09-2.76,0-.51v-.06c0-.21-.1-.31-.32-.31h-.07l-4,.34.05.91Zm-.06,1.89,0-1-4.22.31,0,1Z"/><path class="cls-7" d="M135.85,156.58c.29,0,.44.16.44.47a.43.43,0,0,1-.15.31l-.45.34a7.45,7.45,0,0,0-1.86,2.14,8.26,8.26,0,0,0,0,8.08,7.57,7.57,0,0,0,2.14,2.33.56.56,0,0,1,.29.44.39.39,0,0,1-.45.44,1.25,1.25,0,0,1-.66-.31,8.65,8.65,0,0,1-2.39-2.61,8.35,8.35,0,0,1-1.2-4.36,8.25,8.25,0,0,1,1.52-4.82,8.1,8.1,0,0,1,2.32-2.31A.78.78,0,0,1,135.85,156.58Z"/><path class="cls-7" d="M142,168.14l-2.17.16v.08c0,.34-.19.52-.56.52a.52.52,0,0,1-.49-.25.54.54,0,0,1-.07-.27v-9.31a.45.45,0,0,1,.18-.38.58.58,0,0,1,.39-.13.5.5,0,0,1,.54.4l2.18-.31h.25c.57,0,.86.37.86,1.1v8.71c0,.34-.19.51-.56.51a.51.51,0,0,1-.48-.24.5.5,0,0,1-.07-.27Zm0-5.29V160c0-.21-.09-.32-.26-.32h-.07l-1.84.24V163Zm0,.93-2.17.17v3.35l2.17-.15Zm6.2-3.8v1.74l3.83-.35h.06a.44.44,0,0,1,.49.5.44.44,0,0,1-.44.5l-8.08.74H144a.49.49,0,0,1-.38-.16.5.5,0,0,1-.14-.37c0-.28.16-.44.47-.46l3.1-.29v-1.75l-2.27.21a.68.68,0,0,1-.48-.15.47.47,0,0,1-.18-.36.44.44,0,0,1,.47-.48l2.46-.22v-1.69a.48.48,0,0,1,.18-.39.56.56,0,0,1,.39-.13.57.57,0,0,1,.47.2.5.5,0,0,1,.11.32V159l2.43-.22h.05a.44.44,0,0,1,.46.27.6.6,0,0,1,0,.24.44.44,0,0,1-.44.49Zm1.83,5.49v4.24c0,.75-.32,1.12-.95,1.12a3.54,3.54,0,0,1-1.22-.29c-.85-.34-1.28-.63-1.28-.88a.34.34,0,0,1,.38-.39,1.76,1.76,0,0,1,.39.08,4.05,4.05,0,0,0,1.15.23c.23,0,.34-.14.34-.43v-3.58l-4.5.38q-.57,0-.57-.51a.44.44,0,0,1,.46-.48l4.61-.39v-1.31a.5.5,0,0,1,.23-.44.65.65,0,0,1,.36-.1.59.59,0,0,1,.43.16.5.5,0,0,1,.17.38v1.21l1.58-.14h.07a.45.45,0,0,1,.49.5.44.44,0,0,1-.45.5Zm-4.82.71a.91.91,0,0,1,.44.17c1.1.68,1.65,1.23,1.65,1.66a.53.53,0,0,1-.16.39.61.61,0,0,1-.45.19.85.85,0,0,1-.64-.43,11.29,11.29,0,0,0-1-1.15.66.66,0,0,1-.22-.44.37.37,0,0,1,.11-.27A.4.4,0,0,1,145.25,166.18Z"/><path class="cls-7" d="M157.39,160.61v9.66a.49.49,0,0,1-.14.36.57.57,0,0,1-.42.16c-.36,0-.54-.17-.54-.52v-7.69a15.93,15.93,0,0,1-1.31,1.78.63.63,0,0,1-.45.26.41.41,0,0,1-.29-.13.37.37,0,0,1-.14-.29,2,2,0,0,1,.41-.72,16.36,16.36,0,0,0,1.61-2.81,24,24,0,0,0,1.17-2.86c.13-.38.34-.57.61-.57a.67.67,0,0,1,.28.06.47.47,0,0,1,.29.47,2.31,2.31,0,0,1-.15.63A21,21,0,0,1,157.39,160.61Zm4,2.26-.17-3-2,.14h-.07c-.35,0-.52-.16-.52-.49a.49.49,0,0,1,.53-.54l8.32-.63h.06c.37,0,.55.17.55.51a.5.5,0,0,1-.55.55l-1.92.14-.16,3,1.64-.12h.18c.75,0,1.12.36,1.12,1.06v.24l-.57,5.84c0,.37-.21.55-.54.55s-.55-.16-.55-.48a.42.42,0,0,1,0-.07l0-.31-6.41.28q0,.48-.54.48c-.33,0-.51-.18-.55-.54l-.69-6.37V163c0-.31.19-.47.56-.47a.51.51,0,0,1,.54.44Zm.29,5.64-.25-4.64-1.68.11.47,4.59Zm.75-5.72,1.93-.14.13-3-2.19.16Zm1.68,5.61.21-4.74-1.85.14.21,4.66Zm1,0,1.71-.08.38-4.41a.54.54,0,0,1,0-.08q0-.33-.39-.3l-1.46.1Z"/><path class="cls-7" d="M176.68,163.86l-3.62-3.62a.41.41,0,0,1-.13-.3.52.52,0,0,1,.18-.4.53.53,0,0,1,.36-.15.42.42,0,0,1,.31.13l3.61,3.62,3.62-3.62a.42.42,0,0,1,.31-.13.47.47,0,0,1,.39.19.53.53,0,0,1,.15.36.41.41,0,0,1-.13.3l-3.62,3.62,3.62,3.61a.42.42,0,0,1,.13.32.54.54,0,0,1-.18.39.53.53,0,0,1-.37.15.42.42,0,0,1-.3-.14l-3.62-3.61-3.61,3.61a.45.45,0,0,1-.32.14.56.56,0,0,1-.39-.19.57.57,0,0,1-.14-.37.41.41,0,0,1,.13-.3Z"/><path class="cls-7" d="M29.4,177.2a2.62,2.62,0,0,1,2.42,1.62,9.37,9.37,0,0,1,.79,4.23,9.9,9.9,0,0,1-.69,4,2.69,2.69,0,0,1-2.53,1.83,2.58,2.58,0,0,1-2.33-1.45,9,9,0,0,1-.88-4.43,8.68,8.68,0,0,1,.95-4.54A2.57,2.57,0,0,1,29.4,177.2Zm0,1.15q-1.9,0-1.91,4.72a10.24,10.24,0,0,0,.42,3.28c.32.94.82,1.4,1.5,1.4a1.46,1.46,0,0,0,1.33-1,8.91,8.91,0,0,0,.59-3.72C31.31,179.91,30.66,178.35,29.38,178.35Z"/><path class="cls-7" d="M36,186.9a1.22,1.22,0,0,1,.61.17,1.16,1.16,0,0,1,.62,1.06,1.24,1.24,0,0,1-.18.64,1.23,1.23,0,1,1-1.82-1.6A1.21,1.21,0,0,1,36,186.9Z"/><path class="cls-7" d="M43.14,177.46h4.54a1.21,1.21,0,0,1,.67.16.69.69,0,0,1,.33.6,2.84,2.84,0,0,1-.18.76c-.07.22-.3,1-.68,2.24q-1.18,3.94-1.93,6.94c-.1.42-.31.63-.61.63s-.64-.19-.64-.58a3.48,3.48,0,0,1,.15-.66c.94-3.52,1.75-6.36,2.41-8.51a1.08,1.08,0,0,0,.06-.28c0-.12-.11-.19-.32-.19H43.58c-.18,0-.27.09-.27.28v2a.47.47,0,0,1-.15.35.61.61,0,0,1-.43.15.57.57,0,0,1-.5-.24.46.46,0,0,1-.07-.26v-2.29C42.16,177.82,42.49,177.46,43.14,177.46Z"/><path class="cls-7" d="M59.61,178.56l4.38-.29h.07a.48.48,0,0,1,.55.55c0,.31-.18.49-.54.51l-13.32.81h-.08a.45.45,0,0,1-.42-.19.65.65,0,0,1-.09-.35c0-.29.17-.45.52-.47l7.75-.5c.29-.46.7-1.21,1.22-2.24.17-.34.38-.51.62-.51a.79.79,0,0,1,.34.09.5.5,0,0,1,.35.47A6.14,6.14,0,0,1,59.61,178.56Zm-3.83,7.65-2.71.25v2.69c0,.38-.17.56-.53.56a.49.49,0,0,1-.55-.56v-7.57a.49.49,0,0,1,.56-.55.46.46,0,0,1,.49.32l2.74-.29h.16a.93.93,0,0,1,.61.19.91.91,0,0,1,.34.76v6.56c0,.83-.3,1.25-.9,1.25a3.75,3.75,0,0,1-1.58-.53c-.26-.14-.39-.29-.39-.46a.32.32,0,0,1,.36-.35,1,1,0,0,1,.25,0,3.56,3.56,0,0,0,.89.11c.17,0,.26-.12.26-.35Zm0-3v-.87c0-.21-.07-.3-.21-.28h0l-2.47.28v1.15Zm0,.93-2.71.28v1.14l2.71-.25Zm-1.6-7.94a1.3,1.3,0,0,1,.71.43,8.41,8.41,0,0,1,1,1.08.8.8,0,0,1,.18.49.5.5,0,0,1-.22.4.76.76,0,0,1-.48.18c-.22,0-.41-.15-.56-.47a8.52,8.52,0,0,0-.85-1.39.48.48,0,0,1-.14-.33.36.36,0,0,1,.11-.27A.38.38,0,0,1,54.18,176.17Zm5.55,5.54v4.47c0,.38-.18.57-.55.57a.5.5,0,0,1-.57-.57v-4.47a.56.56,0,1,1,1.12,0Zm2.93-.71v7.72c0,.89-.33,1.33-1,1.33a5.36,5.36,0,0,1-1.89-.53c-.26-.12-.4-.26-.4-.42s.13-.43.39-.43a1.09,1.09,0,0,1,.27,0,4.57,4.57,0,0,0,1.05.12.37.37,0,0,0,.41-.41V181c0-.4.19-.6.56-.6A.53.53,0,0,1,62.66,181Z"/><path class="cls-7" d="M68.43,183.45a16.67,16.67,0,0,1-1.33,1.29.88.88,0,0,1-.5.23.35.35,0,0,1-.29-.14.41.41,0,0,1-.13-.29.51.51,0,0,1,.14-.32s.12-.13.32-.31a17.44,17.44,0,0,0,2.92-3.84c.18-.3.38-.46.61-.46a.48.48,0,0,1,.29.09.49.49,0,0,1,.25.44,5,5,0,0,1-1.17,2v7.29c0,.33-.19.5-.55.5a.49.49,0,0,1-.56-.54ZM70,176.71a.53.53,0,0,1,.52.51c0,.35-.49.89-1.46,1.64a7.4,7.4,0,0,1-2.16,1.37.34.34,0,0,1-.31-.16.43.43,0,0,1-.09-.25c0-.17.16-.35.47-.57a13.19,13.19,0,0,0,2.41-2.17A.93.93,0,0,1,70,176.71Zm4.59,10.68A18.2,18.2,0,0,1,73.14,186a11.43,11.43,0,0,1-1.89,1.43,1.14,1.14,0,0,1-.46.18.33.33,0,0,1-.3-.18.4.4,0,0,1-.08-.21.35.35,0,0,1,.16-.29,2.45,2.45,0,0,1,.33-.21,9.91,9.91,0,0,0,2.75-2.7.54.54,0,0,1,.44-.24.53.53,0,0,1,.53.37l2.41-.25h.15c.5,0,.75.21.75.64a1.69,1.69,0,0,1-.26.8,10.48,10.48,0,0,1-1.59,2,13.87,13.87,0,0,0,3.78,1.82c.29.09.43.18.43.29s-.09.17-.27.23a4.42,4.42,0,0,1-1.39.31.88.88,0,0,1-.45-.1A19.92,19.92,0,0,1,75.36,188a11.42,11.42,0,0,1-2.27,1.45,4.84,4.84,0,0,1-1.48.56.35.35,0,0,1-.39-.4c0-.17.17-.32.52-.46a10.72,10.72,0,0,0,2.46-1.48Zm.24-7.55,1.06-.91c.29-.25.59-.53.92-.85a.91.91,0,0,1,.61-.33.53.53,0,0,1,.38.17.61.61,0,0,1,.18.43.52.52,0,0,1-.1.33c-.08.09-.27.26-.57.52a47.47,47.47,0,0,1-4.05,3c1-.1,2.42-.3,4.18-.6a7.1,7.1,0,0,0-.49-.62.51.51,0,0,1-.16-.34.39.39,0,0,1,.39-.37.78.78,0,0,1,.48.22,11.36,11.36,0,0,1,1.5,1.59,1,1,0,0,1,.26.58.49.49,0,0,1-.21.42.71.71,0,0,1-.42.16.64.64,0,0,1-.51-.34l-.18-.28c-.07-.13-.13-.21-.16-.27-.71.17-1.58.33-2.6.51-2,.33-3.08.5-3.32.5a.43.43,0,0,1-.39-.24.85.85,0,0,1-.16-.45.36.36,0,0,1,.1-.27s.19-.15.46-.34c.49-.35,1.16-.88,2-1.58-.38-.15-.94-.33-1.66-.54q-.6-.16-.6-.57c0-.26.22-.55.64-.88a21.83,21.83,0,0,0,1.92-1.64l.45-.46a.82.82,0,0,1,.59-.33.56.56,0,0,1,.4.17.59.59,0,0,1,.2.41.86.86,0,0,1-.35.57q-.94.83-2.52,1.95A18,18,0,0,1,74.81,179.84Zm.42,6.91a8.26,8.26,0,0,0,1.16-1.43.55.55,0,0,0,.11-.24c0-.06,0-.09-.16-.08h-.06l-2.25.2-.23.22A15.36,15.36,0,0,0,75.23,186.75Z"/><path class="cls-7" d="M82.94,175.78a1.33,1.33,0,0,1,.68.32,8.53,8.53,0,0,1,2.22,2.34,8.46,8.46,0,0,1-.26,9.61,8.22,8.22,0,0,1-2.22,2.15.76.76,0,0,1-.41.13.39.39,0,0,1-.44-.44.43.43,0,0,1,.15-.33l.45-.35A7.44,7.44,0,0,0,85,187.07a7.72,7.72,0,0,0,1-4,7.64,7.64,0,0,0-3.26-6.43.48.48,0,0,1-.23-.39.6.6,0,0,1,.1-.3A.4.4,0,0,1,82.94,175.78Z"/><path class="cls-7" d="M102,177.9v10.29a.54.54,0,0,1-.16.4.69.69,0,0,1-1-.06.53.53,0,0,1-.1-.34V177.9a.5.5,0,0,1,.22-.43.65.65,0,0,1,.4-.12.65.65,0,0,1,.46.16A.51.51,0,0,1,102,177.9Z"/><path class="cls-7" d="M107.93,186.34a1.23,1.23,0,0,1,.83.32,1.36,1.36,0,0,1,.45,1.09,3.82,3.82,0,0,1-.7,2.19,3.09,3.09,0,0,1-1,1,.65.65,0,0,1-.32.09.36.36,0,0,1-.26-.11.38.38,0,0,1-.14-.28c0-.11.09-.23.28-.35a2.21,2.21,0,0,0,.81-1.17,1.38,1.38,0,0,0,.05-.26c0-.08-.09-.13-.28-.15a.93.93,0,0,1-.65-.34,1.28,1.28,0,0,1-.26-.84,1.13,1.13,0,0,1,.39-.88A1.17,1.17,0,0,1,107.93,186.34Z"/><path class="cls-7" d="M115.14,177.46h4.54a1.21,1.21,0,0,1,.67.16.69.69,0,0,1,.33.6,2.84,2.84,0,0,1-.18.76c-.07.22-.3,1-.68,2.24q-1.18,3.94-1.93,6.94c-.1.42-.31.63-.61.63s-.64-.19-.64-.58a3.48,3.48,0,0,1,.15-.66c.94-3.52,1.75-6.36,2.41-8.51a1.08,1.08,0,0,0,.06-.28c0-.12-.11-.19-.32-.19h-3.36c-.18,0-.27.09-.27.28v2a.47.47,0,0,1-.15.35.61.61,0,0,1-.43.15.57.57,0,0,1-.5-.24.46.46,0,0,1-.07-.26v-2.29C114.16,177.82,114.49,177.46,115.14,177.46Z"/><path class="cls-7" d="M122.64,178.43c0-.65.4-1,1.11-1h4.12a.46.46,0,0,1,.36.15.62.62,0,0,1,.14.41.57.57,0,0,1-.23.49.48.48,0,0,1-.27.08h-3.73a.31.31,0,0,0-.35.34l-.09,3.14a2.89,2.89,0,0,1,2-.81,2.59,2.59,0,0,1,2.21,1.13,4.28,4.28,0,0,1,.71,2.54,4.83,4.83,0,0,1-.54,2.35,3,3,0,0,1-2.77,1.65,3.69,3.69,0,0,1-1.67-.38,3.11,3.11,0,0,1-1.12-.91.82.82,0,0,1-.18-.47.52.52,0,0,1,.19-.41.6.6,0,0,1,.44-.18.76.76,0,0,1,.57.38,2.05,2.05,0,0,0,1.77.83,1.75,1.75,0,0,0,1.53-.89,3.55,3.55,0,0,0,.53-2,3.32,3.32,0,0,0-.34-1.58,1.67,1.67,0,0,0-1.54-1,2.14,2.14,0,0,0-1.81,1,.75.75,0,0,1-.59.39c-.43,0-.63-.2-.62-.61Z"/><path class="cls-7" d="M133.4,177.2a2.62,2.62,0,0,1,2.42,1.62,9.37,9.37,0,0,1,.79,4.23,9.9,9.9,0,0,1-.69,4,2.69,2.69,0,0,1-2.53,1.83,2.58,2.58,0,0,1-2.33-1.45,9,9,0,0,1-.88-4.43,8.68,8.68,0,0,1,.95-4.54A2.57,2.57,0,0,1,133.4,177.2Zm0,1.15q-1.9,0-1.91,4.72a10.24,10.24,0,0,0,.42,3.28c.32.94.82,1.4,1.5,1.4a1.46,1.46,0,0,0,1.33-1,8.91,8.91,0,0,0,.59-3.72C135.31,179.91,134.66,178.35,133.38,178.35Z"/><path class="cls-7" d="M145.28,178.64a.51.51,0,0,1,.4.57,10,10,0,0,1-.39,1.91l3.6.13a1.67,1.67,0,0,1,.84.2,1.05,1.05,0,0,1,.4,1,15.4,15.4,0,0,1-.51,3.28,11.12,11.12,0,0,1-1.13,3.15,1.44,1.44,0,0,1-1.24.78,5,5,0,0,1-2.4-.93c-.37-.23-.55-.43-.55-.6a.35.35,0,0,1,.4-.4,1.21,1.21,0,0,1,.53.19,6.31,6.31,0,0,0,1.15.43,2.26,2.26,0,0,0,.45.07.8.8,0,0,0,.7-.39,10.06,10.06,0,0,0,1-2.75,12.39,12.39,0,0,0,.4-2.48c0-.31-.17-.47-.51-.49l-3.39-.11a13.27,13.27,0,0,1-3.71,6.07c-.51.45-.87.68-1.08.68a.38.38,0,0,1-.31-.16.43.43,0,0,1-.09-.25.85.85,0,0,1,.35-.55,12.47,12.47,0,0,0,3-4.43,16.86,16.86,0,0,0,1.23-4.28.69.69,0,0,1,.36-.58l-5.18.26h0a.36.36,0,0,1-.26-.09.59.59,0,0,1-.2-.47c0-.36.17-.55.49-.56l11.88-.6h0a.41.41,0,0,1,.33.14.57.57,0,0,1,.16.43.54.54,0,0,1-.24.47.51.51,0,0,1-.27.09Z"/><path class="cls-7" d="M165.71,183.1l-8.64.61v5.18a.55.55,0,0,1-.59.57.56.56,0,0,1-.49-.24.52.52,0,0,1-.1-.33v-11a.47.47,0,0,1,.23-.43.65.65,0,0,1,.36-.1.59.59,0,0,1,.52.26l8.58-.69h.17c.76,0,1.14.41,1.14,1.24v10.3c0,.87-.36,1.3-1.09,1.3a6.48,6.48,0,0,1-1.51-.26,6.79,6.79,0,0,1-1.15-.37c-.26-.11-.39-.26-.39-.44s.14-.44.42-.44a1.45,1.45,0,0,1,.33.06,8.4,8.4,0,0,0,1.64.23c.26,0,.43-.06.5-.19a.7.7,0,0,0,.07-.36Zm-5-.72v-4l-3.61.29v4Zm1.15-.08,3.88-.28v-3.59c0-.29-.13-.43-.39-.43h-.07l-3.42.27Z"/><path class="cls-1" d="M250.48,162.55a.52.52,0,0,1-.26.08.79.79,0,0,1-.56-.36,10.55,10.55,0,0,0-1-1.15,8.92,8.92,0,0,1-.86,1.17.57.57,0,0,1-.43.23.4.4,0,0,1-.23-.09.34.34,0,0,1-.13-.28,2,2,0,0,1,.38-.74,16,16,0,0,0,2.19-5.22l-1.74.16h-.06a.46.46,0,0,1-.51-.51.45.45,0,0,1,.46-.51l5.2-.5H253a.46.46,0,0,1,.46.29.57.57,0,0,1,0,.22.45.45,0,0,1-.46.51l-2.33.23c-.09.43-.27,1.08-.55,1.95l1.49-.18h.29a.71.71,0,0,1,.81.79,7.46,7.46,0,0,1-.28,1.63,13.87,13.87,0,0,1-1.54,3.69,12.78,12.78,0,0,1-2.87,3.48.69.69,0,0,1-.44.2.42.42,0,0,1-.41-.4c0-.13.14-.33.4-.62A16.52,16.52,0,0,0,250.48,162.55Zm.21-.46a11.6,11.6,0,0,0,.68-1.87,5.77,5.77,0,0,0,.21-1.08.27.27,0,0,0-.3-.3h-.06l-1.46.2a13.8,13.8,0,0,1-.72,1.44,7.11,7.11,0,0,1,1.42,1.16A.75.75,0,0,1,250.69,162.09Zm6.07-2.44a11.22,11.22,0,0,0,.29,1.33l3.38-.47h.11a.4.4,0,0,1,.44.27.58.58,0,0,1,0,.21c0,.26-.16.42-.47.46l-3.26.45a12.81,12.81,0,0,0,.69,1.65,9.32,9.32,0,0,0,1.12-1.14.7.7,0,0,1,.54-.31.5.5,0,0,1,.37.16.51.51,0,0,1,.17.36,1.32,1.32,0,0,1-.44.72c-.36.38-.76.76-1.2,1.15a12.15,12.15,0,0,0,1.3,1.61c.2.21.34.31.41.31s.21-.53.22-1.57c0-.34.11-.51.35-.51s.39.14.45.42a9.21,9.21,0,0,1,.16,1.89c0,.83-.25,1.24-.74,1.24a1.77,1.77,0,0,1-1-.46,10.63,10.63,0,0,1-2-2.24,14.61,14.61,0,0,1-3.39,1.79,5.22,5.22,0,0,1-1.15.36q-.42,0-.42-.45a.41.41,0,0,1,.21-.35l.63-.26a15.82,15.82,0,0,0,3.59-2,13,13,0,0,1-.89-2.22l-2.86.39h-.11a.43.43,0,0,1-.49-.48c0-.25.16-.4.46-.44l2.76-.39c-.17-.68-.26-1.13-.3-1.34l-2.07.29h-.12a.43.43,0,0,1-.49-.47c0-.26.16-.41.46-.46l2.09-.29-.16-1.13-2,.28h-.12q-.48,0-.48-.45c0-.27.15-.43.46-.47l2-.28,0-.26a16.12,16.12,0,0,1-.18-2.17c0-.38.1-.6.31-.67a.61.61,0,0,1,.24,0,.47.47,0,0,1,.44.23,3.48,3.48,0,0,1,.11.79c0,.66.11,1.32.18,2l2.4-.34h.11a.43.43,0,0,1,.49.48c0,.27-.16.43-.47.48l-2.42.32c.06.43.11.8.16,1.13l2.21-.32h.11a.44.44,0,0,1,.49.5c0,.26-.15.41-.47.45Zm2.45-5.14a.58.58,0,0,1,.41.22,13.71,13.71,0,0,1,1.06,1.2.9.9,0,0,1,.22.52.45.45,0,0,1-.24.4.63.63,0,0,1-.33.09.61.61,0,0,1-.51-.39c-.19-.35-.48-.79-.84-1.32a.61.61,0,0,1-.15-.36.36.36,0,0,1,.11-.25A.37.37,0,0,1,259.21,154.51Z"/><path class="cls-1" d="M222.76,175v10.29a.57.57,0,0,1-.15.4.64.64,0,0,1-.47.18.62.62,0,0,1-.52-.24.53.53,0,0,1-.11-.34V175a.53.53,0,0,1,.22-.43.69.69,0,0,1,.41-.12.61.61,0,0,1,.45.16A.48.48,0,0,1,222.76,175Z"/><path class="cls-1" d="M228.67,183.46a1.23,1.23,0,0,1,.84.32,1.36,1.36,0,0,1,.45,1.09,3.82,3.82,0,0,1-.7,2.19,3.09,3.09,0,0,1-1,1,.68.68,0,0,1-.32.09.41.41,0,0,1-.4-.39c0-.11.09-.23.27-.35a2.21,2.21,0,0,0,.81-1.17,1,1,0,0,0,.06-.26c0-.09-.1-.13-.28-.15a.93.93,0,0,1-.66-.34,1.34,1.34,0,0,1-.26-.84,1.13,1.13,0,0,1,.39-.88A1.14,1.14,0,0,1,228.67,183.46Z"/><path class="cls-1" d="M236.14,184.63h4.78c.36,0,.55.19.55.58a.5.5,0,0,1-.55.57h-5.1c-.63,0-.94-.29-.94-.86a1.54,1.54,0,0,1,.3-.77,27.73,27.73,0,0,1,2.72-3.46q1.07-1.22,1.38-1.65a3,3,0,0,0,.62-1.72,2,2,0,0,0-.31-1.17,1.53,1.53,0,0,0-1.37-.69,1.91,1.91,0,0,0-1.81,1.2.54.54,0,0,1-.51.33.94.94,0,0,1-.39-.1.5.5,0,0,1-.26-.46,1.13,1.13,0,0,1,.17-.51,2.94,2.94,0,0,1,1.34-1.27,3.29,3.29,0,0,1,1.47-.32,2.81,2.81,0,0,1,2.15.85,3,3,0,0,1,.77,2.15,3.81,3.81,0,0,1-.86,2.25c-.28.36-.86,1-1.75,2A28.84,28.84,0,0,0,236.14,184.63Z"/><path class="cls-1" d="M243.38,175.55c0-.65.41-1,1.11-1h4.13a.49.49,0,0,1,.36.15.62.62,0,0,1,.14.41.55.55,0,0,1-.24.49.45.45,0,0,1-.26.08h-3.73c-.23,0-.35.11-.35.33l-.1,3.14a3,3,0,0,1,2-.8,2.59,2.59,0,0,1,2.21,1.12,4.34,4.34,0,0,1,.71,2.55,4.83,4.83,0,0,1-.55,2.35,2.94,2.94,0,0,1-2.77,1.64,3.69,3.69,0,0,1-1.67-.37,2.92,2.92,0,0,1-1.11-.92.77.77,0,0,1-.18-.46.52.52,0,0,1,.18-.41.62.62,0,0,1,.44-.18.77.77,0,0,1,.58.38,2.06,2.06,0,0,0,1.76.83,1.79,1.79,0,0,0,1.54-.89,3.66,3.66,0,0,0,.53-2,3.32,3.32,0,0,0-.35-1.58,1.66,1.66,0,0,0-1.54-1,2.13,2.13,0,0,0-1.8,1,.75.75,0,0,1-.59.39c-.43,0-.64-.2-.63-.61Z"/><path class="cls-1" d="M254.15,174.32a2.61,2.61,0,0,1,2.41,1.61,9.31,9.31,0,0,1,.79,4.24,9.9,9.9,0,0,1-.69,4.05,2.68,2.68,0,0,1-2.53,1.82,2.58,2.58,0,0,1-2.33-1.44,9,9,0,0,1-.88-4.43,8.75,8.75,0,0,1,1-4.54A2.56,2.56,0,0,1,254.15,174.32Zm0,1.15q-1.91,0-1.9,4.72a10.58,10.58,0,0,0,.41,3.28c.32.94.83,1.4,1.51,1.4a1.49,1.49,0,0,0,1.33-1,8.94,8.94,0,0,0,.58-3.72C256.05,177,255.41,175.47,254.12,175.47Z"/><path class="cls-1" d="M266,175.76a.52.52,0,0,1,.41.57,10.18,10.18,0,0,1-.39,1.91l3.6.12a1.77,1.77,0,0,1,.84.21,1.06,1.06,0,0,1,.39,1,15.91,15.91,0,0,1-.5,3.28,10.89,10.89,0,0,1-1.14,3.15,1.44,1.44,0,0,1-1.23.78,5.09,5.09,0,0,1-2.41-.93q-.54-.34-.54-.6a.35.35,0,0,1,.39-.4,1.29,1.29,0,0,1,.54.18,5.55,5.55,0,0,0,1.14.43,1.72,1.72,0,0,0,.46.07.79.79,0,0,0,.69-.39,9.23,9.23,0,0,0,1-2.74,12.62,12.62,0,0,0,.41-2.48c0-.31-.17-.47-.52-.49l-3.39-.11a13.26,13.26,0,0,1-3.7,6.07c-.51.45-.87.68-1.08.68a.44.44,0,0,1-.41-.41.85.85,0,0,1,.35-.55,12.34,12.34,0,0,0,3-4.43,16.86,16.86,0,0,0,1.24-4.29.67.67,0,0,1,.35-.57l-5.17.25h0a.37.37,0,0,1-.27-.09.58.58,0,0,1-.19-.47c0-.36.16-.55.49-.56l11.87-.6h0a.41.41,0,0,1,.32.14.58.58,0,0,1,.17.43.54.54,0,0,1-.24.47.62.62,0,0,1-.28.09Z"/><path class="cls-1" d="M286.45,180.22l-8.63.61V186a.56.56,0,0,1-.15.39.57.57,0,0,1-.44.18.56.56,0,0,1-.6-.57V175a.46.46,0,0,1,.24-.43.64.64,0,0,1,.36-.11.58.58,0,0,1,.51.27l8.59-.69h.17c.76,0,1.14.42,1.14,1.25v10.3c0,.87-.37,1.3-1.09,1.3a6.55,6.55,0,0,1-1.52-.26,6.79,6.79,0,0,1-1.15-.37c-.26-.11-.39-.26-.39-.44s.14-.44.42-.44a1.61,1.61,0,0,1,.34.06,8.32,8.32,0,0,0,1.63.23c.27,0,.44-.06.51-.19a.84.84,0,0,0,.06-.36Zm-5-.72v-4l-3.61.29v4Zm1.15-.08,3.87-.28v-3.59c0-.29-.13-.44-.38-.44H286l-3.41.27Z"/></g></g></svg>