<svg id="Group_499" data-name="Group 499" xmlns="http://www.w3.org/2000/svg" width="26.524" height="54.202" viewBox="0 0 26.524 54.202">
  <path id="Path_4609" data-name="Path 4609" d="M3.869,19.938a18.056,18.056,0,0,0,7.141-2.8l2.654-1.282h0l2.481-1.586,2.309-1.357a6.485,6.485,0,0,1,3.958-1.571A3,3,0,0,1,20.7,14.42a3.754,3.754,0,0,1-2.23,1.327A9.262,9.262,0,0,1,14.219,18.1c-.521.832-1.436.911-2.253,1.177a14.8,14.8,0,0,1-7.306,3.5c-1.136.18-2.65.753-3.085-.791C1.1,20.305,2.842,20.163,3.869,19.938Z" transform="translate(4.108 31.165)" fill="#603813"/>
  <path id="Path_4610" data-name="Path 4610" d="M1.424,11.987C5.289,11.439,8.974,9.9,12.936,9.88q2.626-.692,5.248-1.379a10.959,10.959,0,0,1,1.552-.753c1.027-.315,2.429-1.586,3.066-.259.78,1.631-.8,2.369-2.219,2.8A15.064,15.064,0,0,1,14.7,12.2q-3.638.658-7.279,1.308c-1.863,1.267-3.947,1.222-6.05.978C.622,14.4.008,14.007,0,13.175-.007,12.279.675,12.058,1.424,11.987Z" transform="translate(0 18.953)" fill="#603813"/>
  <path id="Path_4611" data-name="Path 4611" d="M18.02,12.389c-1.05-.855-2.62-.926-3.37-2.238Q9.028,7.025,3.405,3.9C2.269,3.265-.077,3.348.766,1.365,1.5-.359,3.435-.232,5.171.551a40.552,40.552,0,0,1,9.3,5.334l2.1,1.451.037.03A5.135,5.135,0,0,1,19.527,9.5c1.353.146,2.032.828,1.421,2.167C20.326,13.034,19.269,13.236,18.02,12.389Z" transform="translate(1.614 0)" fill="#603813"/>
</svg>
