<svg id="Group_498" data-name="Group 498" xmlns="http://www.w3.org/2000/svg" width="26.524" height="54.202" viewBox="0 0 26.524 54.202">
  <path id="Path_4606" data-name="Path 4606" d="M53.691,19.938a18.056,18.056,0,0,1-7.141-2.8L43.9,15.852h0l-2.481-1.586L39.106,12.91a6.485,6.485,0,0,0-3.958-1.571,3,3,0,0,0,1.717,3.081,3.765,3.765,0,0,0,2.23,1.327A9.281,9.281,0,0,0,43.342,18.1c.521.832,1.436.911,2.253,1.177a14.8,14.8,0,0,0,7.306,3.5c1.136.18,2.65.753,3.085-.791C56.461,20.305,54.718,20.163,53.691,19.938Z" transform="translate(-35.144 31.165)" fill="#603813"/>
  <path id="Path_4607" data-name="Path 4607" d="M57.665,11.987C53.8,11.439,50.116,9.9,46.154,9.88Q43.528,9.188,40.906,8.5a10.96,10.96,0,0,0-1.552-.753c-1.027-.315-2.429-1.586-3.066-.259-.78,1.631.8,2.369,2.219,2.8A15.1,15.1,0,0,0,44.392,12.2q3.638.658,7.279,1.308c1.863,1.267,3.947,1.222,6.05.978.746-.09,1.361-.484,1.368-1.316C59.1,12.279,58.415,12.058,57.665,11.987Z" transform="translate(-32.566 18.953)" fill="#603813"/>
  <path id="Path_4608" data-name="Path 4608" d="M39.294,12.389c1.05-.855,2.62-.926,3.37-2.238Q48.287,7.025,53.909,3.9c1.136-.63,3.482-.547,2.639-2.53-.731-1.724-2.669-1.6-4.4-.813a40.552,40.552,0,0,0-9.3,5.334l-2.1,1.451-.037.03A5.135,5.135,0,0,0,37.787,9.5c-1.353.146-2.032.828-1.421,2.167C36.989,13.034,38.046,13.236,39.294,12.389Z" transform="translate(-32.405 0)" fill="#603813"/>
</svg>
