<svg xmlns="http://www.w3.org/2000/svg" width="17.676" height="20.331" viewBox="0 0 17.676 20.331">
  <g id="Group_490" data-name="Group 490" transform="translate(-253.685 -22.954)">
    <path id="Path_4578" data-name="Path 4578" d="M270.916,23.653a.342.342,0,0,1,.049.036C270.962,23.653,270.931,23.661,270.916,23.653Z" fill="#0d0708"/>
    <path id="Path_4579" data-name="Path 4579" d="M270.588,42.907h0l.229-.857a2.621,2.621,0,0,0,.1-.921c.281-1.1-.368-2.325-.034-3.429.481-.67-.423-1.635.062-2.262.749-1.309.348-2.639-.041-3.988.271-1.234-.353-2.474.145-3.668-.327-.567.1-.977,0-1.608l-.262-.232c.336-.231-.215-.4.285-.551l-.166-.209c.254-.125-.253-.1.049-.176l-.126-.017c-.04-.145.143-.02.19-.133-.016-.042-.1-.267-.027-.357l-.693.159a.035.035,0,0,1,.021,0c.231.089.1.223.067.3l-.1.032c-.221.049.439.211.057.159.021.078.035.159.049.241-.047,0-.075-.028-.08-.008.053.307-.718.786-.45,1.071-.234.073,0,.329-.226.443.093.079.07.159.226.188-.112,1.072.111,2.169.081,3.27.448.524-.1,1.129.032,1.744a.088.088,0,0,1-.046,0,1.067,1.067,0,0,1,.09.731l.186.209c-.437,1.417-.222,2.892-.463,4.34-.1.823-.255,1.591-.325,2.359a7.47,7.47,0,0,0-.023,1.16c.016.525.118.432.248.736-.042-.028-.066-.038-.083-.064a.348.348,0,0,1,0,.233.51.51,0,0,1,.281.071l-.063-.049.136.072a.059.059,0,0,1-.007.04.113.113,0,0,1-.076.048.941.941,0,0,1-.286.008,3.839,3.839,0,0,0-.463-.026l-.4.031a2.638,2.638,0,0,0-.484.1,30.494,30.494,0,0,0-4.1-.064l.006-.09a3.063,3.063,0,0,1-.437.028c.005-.022.011-.04.025-.031-.137-.261-.217-.052-.307.019-.031,0-.063,0-.094,0a.343.343,0,0,1-.1-.152c-.011.083-.04.117-.078.131-.282-.034-.563-.083-.845-.131a10.9,10.9,0,0,0,1.786-.215.245.245,0,0,1,.026.2,1.774,1.774,0,0,1,.852-.228l.061-.193a.779.779,0,0,0-.539.171c-.063-.238-.333-.02-.439-.249-.084.09-.164.064-.2.219a30.459,30.459,0,0,0-3.31,0c-.531.445-1.14-.109-1.761.035a.083.083,0,0,1,0-.047,1.1,1.1,0,0,1-.737.1l-.206.19a6,6,0,0,0-1.085-.2c-.349-.036-.8-.047-.912-.047l-.576,0a2.974,2.974,0,0,1,.049-.586,7.639,7.639,0,0,1,.16-.945,1.186,1.186,0,0,0,.5-.03l.067-.021.162-.026.335-.068a5.525,5.525,0,0,0,.683-.208c0,.044.011.069-.031.088.467-.1.894.065,1.334-.033v.045a3.967,3.967,0,0,1,1.322-.18.937.937,0,0,0,.349.023l0-.022a4.376,4.376,0,0,0,1.66-.2,36.21,36.21,0,0,0,4.089-.147l0,.091a6.682,6.682,0,0,1,1.8.031c.038-.291.08-.6.1-.947a5.407,5.407,0,0,0-.015-1.01c.2-1.115-.534-2.292-.268-3.416.438-.7-.519-1.608-.064-2.262.682-1.342.227-2.644-.2-3.985a5.359,5.359,0,0,0-.029-1.658,5.989,5.989,0,0,1,0-1.843,4.125,4.125,0,0,1,.518.129.993.993,0,0,1,.8-.07,2.467,2.467,0,0,0,.868.1l.238-.256c.222.341.41-.2.543.3l.215-.159c.116.258.107-.249.175.055l.021-.125c.146-.036.015.143.127.194.042-.015.271-.088.358-.015l-.134-.7a.048.048,0,0,1,0,.021c-.1.228-.227.091-.3.058l-.028-.107c-.043-.222-.227.432-.162.052-.079.018-.161.029-.244.04,0-.047.031-.073.011-.079-.31.042-.772-.74-1.067-.479-.039-.118-.106-.12-.217-.122a.705.705,0,0,1-.478-.119c-.143.091-.3.066-.318.222-.672-.05-1.36-.061-2.021-.055q.039,1.032.081,2.078l.037.9c.01.185.015.371.014.556.459.519-.08,1.14.077,1.756a.089.089,0,0,1-.046,0,1.09,1.09,0,0,1,.114.732l.194.2c-.385,1.442-.1,2.915-.249,4.379-.051.832-.156,1.612-.171,2.387a7.337,7.337,0,0,0,.061,1.164l.049.294c.019.05.041.059.066.1a3.259,3.259,0,0,1,.188.283.3.3,0,0,1-.088-.062.362.362,0,0,1,.018.248c-.1-.016-.186-.035-.242.016l-.024-.045a.363.363,0,0,1-.3.163c-.281.021-.564.018-.845.016a4.337,4.337,0,0,0-1.649.2,35.986,35.986,0,0,0-4.09.147l0-.091a2.945,2.945,0,0,1-.435.045c0-.021.01-.04.024-.031-.147-.256-.219-.045-.306.03-.031,0-.062,0-.093,0a.336.336,0,0,1-.1-.148c-.008.083-.035.118-.072.134-.283-.024-.566-.063-.848-.1a10.574,10.574,0,0,0,1.771-.28.241.241,0,0,1,.035.2,1.872,1.872,0,0,1,1.054-.286l.018-.182a.964.964,0,0,0-.711.2c-.072-.235-.332-.006-.446-.23-.08.094-.161.071-.191.227a8.8,8.8,0,0,0-1.638.015l-.828.065c-.3.019-.477.032-.984.03-.491.328-1.087.147-1.86.074a2.945,2.945,0,0,0,0,.8.1.1,0,0,1-.046-.031,2.771,2.771,0,0,1,.114,1.155c0,.007.194.311.194.3-.024.125-.045.171-.064.3l-.051.388c-.029.263-.05.536-.065.811l-.027.826,0,.1a.582.582,0,0,0,.1.007l.2,0,.408.006,1.583.012a10.321,10.321,0,0,1,1.1.069c1.661.131,3.1.482,4.736-.078,0,.044.009.069-.034.086.47-.079.889.094,1.331.013l0,.045a3.916,3.916,0,0,1,1.33-.127c.022.006.043.015.065.019l0-.016a5.3,5.3,0,0,0,1.936-.106c1.12.088,2.3.122,3.707.141a1.732,1.732,0,0,1,.453-.08l.037.05a2.165,2.165,0,0,1,.334-.049l.175-.013c.019,0,.082,0,.066-.006l-.086-.009A3.718,3.718,0,0,0,270.588,42.907ZM268.094,23.6c.151-.011.3-.011.458-.036A1.531,1.531,0,0,1,268.9,24a1.057,1.057,0,0,0-.813-.334c0-.03-.009-.064.025-.051Zm-1.5.112.006-.119.144.008c-.041.01-.07.029-.072.064a1.138,1.138,0,0,0,.112.192A.634.634,0,0,1,266.6,23.713Zm3.691,4.523.014-.168c.018.057.064.109.176.143A.468.468,0,0,1,270.288,28.236Zm.054-1.018c-.03-.005-.064-.01-.052-.029l-.011.009a2.159,2.159,0,0,0-.042-.3,2.464,2.464,0,0,1,.424-.214A.591.591,0,0,0,270.342,27.218Z" fill="#0d0708"/>
    <path id="Path_4580" data-name="Path 4580" d="M270.26,24.708a.244.244,0,0,1,.034-.05C270.259,24.663,270.267,24.692,270.26,24.708Z" fill="#0d0708"/>
  </g>
</svg>
