<svg xmlns="http://www.w3.org/2000/svg" width="17.677" height="20.331" viewBox="0 0 17.677 20.331">
  <g id="Group_489" data-name="Group 489" transform="translate(0 0)">
    <path id="Path_4575" data-name="Path 4575" d="M.446,19.632A.3.3,0,0,1,.4,19.6C.4,19.632.43,19.624.446,19.632Z" fill="#0d0708"/>
    <path id="Path_4576" data-name="Path 4576" d="M17.677,4.215a2.789,2.789,0,0,1-.115-1.155c0-.007-.194-.311-.194-.3.024-.125.046-.171.065-.3l.05-.388c.029-.263.05-.536.065-.811L17.576.43v-.1a.5.5,0,0,0-.1-.006l-.2,0L16.871.31,15.287.3a10.337,10.337,0,0,1-1.1-.069C12.53.1,11.088-.252,9.454.307c0-.044-.008-.068.034-.086C9.019.3,8.6.127,8.157.208l0-.045A3.916,3.916,0,0,1,6.83.29C6.808.284,6.787.276,6.765.271l0,.016A5.317,5.317,0,0,0,4.827.393C3.707.305,2.527.271,1.12.252a1.747,1.747,0,0,1-.453.08L.63.282A2.181,2.181,0,0,1,.3.332L.12.344C.1.346.038.348.055.351L.14.359A3.729,3.729,0,0,0,.774.378h0l-.23.856a2.646,2.646,0,0,0-.1.921c-.281,1.1.368,2.325.034,3.429C0,6.255.907,7.22.421,7.847c-.749,1.309-.347,2.639.041,3.989C.192,13.069.816,14.309.317,15.5c.327.567-.1.977,0,1.608l.262.232c-.336.231.214.4-.286.551L.46,18.1c-.253.125.253.1-.049.176l.127.017c.04.145-.143.02-.191.133.017.042.1.268.027.357l.693-.159a.032.032,0,0,1-.02,0c-.231-.089-.1-.223-.068-.3l.105-.032c.221-.049-.439-.211-.057-.159-.02-.078-.035-.159-.048-.241.047,0,.074.028.08.008-.054-.307.718-.786.449-1.071.235-.073,0-.329.227-.443-.094-.079-.071-.159-.227-.188.112-1.072-.11-2.169-.081-3.269-.447-.525.1-1.13-.032-1.745a.093.093,0,0,1,.047,0,1.061,1.061,0,0,1-.091-.731l-.186-.209c.438-1.417.222-2.892.463-4.339.1-.824.255-1.592.325-2.36a7.471,7.471,0,0,0,.023-1.16c-.016-.525-.118-.432-.248-.736.042.028.066.038.083.065a.35.35,0,0,1,0-.234.511.511,0,0,1-.282-.071l.064.049-.137-.071a.067.067,0,0,1,.007-.041.119.119,0,0,1,.076-.048A1.016,1.016,0,0,1,1.824,1.3a3.833,3.833,0,0,0,.462.026l.4-.03a2.716,2.716,0,0,0,.483-.1,30.508,30.508,0,0,0,4.1.064l-.007.09A3.086,3.086,0,0,1,7.7,1.318c-.006.022-.012.04-.026.031.138.261.218.052.308-.019.031,0,.062,0,.093,0a.35.35,0,0,1,.1.153c.011-.083.039-.118.077-.132.283.034.564.083.845.131A11.006,11.006,0,0,0,7.309,1.7a.244.244,0,0,1-.026-.2,1.771,1.771,0,0,1-.851.228l-.061.193a.777.777,0,0,0,.538-.171c.063.238.334.02.44.249.084-.09.163-.064.2-.219a30.19,30.19,0,0,0,3.309,0c.531-.444,1.141.109,1.761-.035a.093.093,0,0,1,0,.047,1.105,1.105,0,0,1,.736-.1l.207-.189a6.09,6.09,0,0,0,1.084.2c.349.036.8.048.912.047l.577,0a2.974,2.974,0,0,1-.05.586,7.693,7.693,0,0,1-.159.945,1.184,1.184,0,0,0-.5.03l-.067.021-.162.026-.336.068a5.46,5.46,0,0,0-.682.208c0-.044-.011-.069.03-.088-.467.1-.893-.065-1.333.033V3.53a4,4,0,0,1-1.323.179.936.936,0,0,0-.349-.023l.005.022a4.36,4.36,0,0,0-1.661.2,35.972,35.972,0,0,0-4.089.146l0-.091a6.675,6.675,0,0,1-1.8-.031c-.039.291-.081.605-.1.947A5.339,5.339,0,0,0,3.57,5.891c-.2,1.114.534,2.291.268,3.415-.438.7.519,1.608.065,2.262-.683,1.342-.228,2.644.2,3.985a5.4,5.4,0,0,0,.029,1.659,5.921,5.921,0,0,1,0,1.842,4.17,4.17,0,0,1-.518-.129.99.99,0,0,1-.8.071,2.447,2.447,0,0,0-.868-.1l-.239.256c-.222-.341-.409.2-.543-.3l-.215.159c-.116-.258-.106.249-.174-.055l-.022.126c-.146.035-.015-.144-.126-.195-.043.015-.271.088-.358.015l.133.7a.049.049,0,0,1,0-.021c.1-.227.228-.091.3-.057l.029.106c.042.223.227-.432.162-.051a2.415,2.415,0,0,1,.243-.041c0,.047-.03.073-.01.079.309-.041.771.74,1.066.479.04.118.106.12.218.122a.708.708,0,0,1,.477.119c.143-.091.3-.065.318-.221.672.049,1.36.06,2.022.054-.027-.687-.054-1.381-.081-2.078l-.038-.9c-.009-.185-.015-.371-.013-.556-.459-.519.079-1.14-.078-1.756a.093.093,0,0,1,.047,0,1.1,1.1,0,0,1-.115-.733l-.194-.2c.385-1.442.1-2.915.25-4.379.05-.832.155-1.612.17-2.387A7.222,7.222,0,0,0,5.11,6.013l-.049-.294c-.019-.05-.041-.058-.065-.1a3.2,3.2,0,0,1-.189-.284.269.269,0,0,1,.088.063.357.357,0,0,1-.017-.249c.1.017.185.035.241-.016l.024.045a.363.363,0,0,1,.3-.163C5.723,5,6.006,5,6.288,5a4.362,4.362,0,0,0,1.649-.2,35.977,35.977,0,0,0,4.089-.147l0,.091a3.086,3.086,0,0,1,.435-.045c0,.022-.01.04-.024.031.147.256.219.045.306-.03.031,0,.063,0,.094,0a.335.335,0,0,1,.1.148c.008-.083.036-.118.072-.134.284.024.566.063.849.1a10.585,10.585,0,0,0-1.772.28.237.237,0,0,1-.034-.2,1.875,1.875,0,0,1-1.055.286l-.018.182a.96.96,0,0,0,.711-.2c.072.235.332.006.447.23.08-.094.16-.07.19-.227a8.71,8.71,0,0,0,1.638-.015l.828-.065c.3-.019.477-.032.984-.03.491-.328,1.087-.146,1.86-.074a2.906,2.906,0,0,0,0-.8A.1.1,0,0,1,17.677,4.215ZM1.073,15.049l-.014.168c-.017-.057-.064-.108-.176-.142A.456.456,0,0,1,1.073,15.049ZM.7,16.6a.589.589,0,0,0,.319-.529c.03.005.064.01.052.029l.011-.009a2.305,2.305,0,0,0,.043.3A2.45,2.45,0,0,1,.7,16.6Zm2.567,3.088c-.15.011-.3.011-.457.036a1.5,1.5,0,0,1-.347-.432,1.055,1.055,0,0,0,.813.334c0,.03.008.064-.026.051Zm1.5-.112-.006.12-.143-.009c.041-.01.069-.029.072-.064a1.1,1.1,0,0,0-.113-.191A.6.6,0,0,1,4.764,19.572Z" fill="#0d0708"/>
    <path id="Path_4577" data-name="Path 4577" d="M1.1,18.577a.249.249,0,0,1-.035.05C1.1,18.623,1.094,18.593,1.1,18.577Z" fill="#0d0708"/>
  </g>
</svg>
