<svg xmlns="http://www.w3.org/2000/svg" width="122.32" height="54.922" viewBox="0 0 122.32 54.922">
  <g id="アートワーク_2" data-name="アートワーク 2" transform="translate(61.16 27.461)">
    <g id="Group_496" data-name="Group 496" transform="translate(-61.16 -27.461)">
      <path id="Path_4588" data-name="Path 4588" d="M55.825,13.254a1.208,1.208,0,0,0-1.743-.236c-2.813,2.488-6.406,3.866-9.154,6.445-.9.745-3.247,1.5-2.2,2.984.91,1.04,1.973-.189,2.538-.926v0h0c3.4-2.272,7.08-4.157,10.2-6.789C55.874,14.349,56.381,13.819,55.825,13.254Z" transform="translate(53.162 15.941)" fill="#603813"/>
      <path id="Path_4589" data-name="Path 4589" d="M49.015,6.579c-1.311-.658-1.75.75-2.2,1.653a13.171,13.171,0,0,0-2.209,3.457l-2.7,3.842a62.454,62.454,0,0,0-4.61,7.5,1.341,1.341,0,0,0,.667,1.977c.824.4,1.128-.374,1.441-.917,1.47-2.542,2.923-5.1,4.382-7.645a9.266,9.266,0,0,0,2.182-3,28.1,28.1,0,0,0,2.716-4.224C49.162,8.432,50.387,7.27,49.015,6.579Z" transform="translate(46.449 8.025)" fill="#603813"/>
      <path id="Path_4590" data-name="Path 4590" d="M36.816,5.337c-.889-.23-1.466.155-1.745,1.1a29.862,29.862,0,0,0-1.315,4.95q-.686,1.925-1.369,3.848c-.385.853-.833,1.919.245,2.38s1.286-.678,1.543-1.457h0l.876-2.164c1.128-2.178,1.414-4.628,2.229-6.909C37.5,6.454,37.885,5.614,36.816,5.337Z" transform="translate(40.006 6.601)" fill="#603813"/>
      <path id="Path_4591" data-name="Path 4591" d="M18.494,19.715h0l-2.146-1.3c-2.254-1.241-4.841-1.741-7.005-3.186a1.289,1.289,0,0,0-1.887.392c-.329.6.428.973.894,1.261a31.159,31.159,0,0,0,6.715,2.768l2.187,1.29c.822.453,1.77,1.536,2.538.358C20.293,20.519,19.208,20.04,18.494,19.715Z" transform="translate(9.233 18.747)" fill="#603813"/>
      <path id="Path_4592" data-name="Path 4592" d="M64.814,19.632c-1.1-.405-2.083.117-3.074.5a4.8,4.8,0,0,0-2.211.775,46.521,46.521,0,0,0-6.5,2.592c-2.265.441-4.121,2.049-6.463,2.274l-.919.315c-1,.8-.914,1.124.462,1.718a10.747,10.747,0,0,0,3.189-.752h0a21.686,21.686,0,0,0,4.634-1.707h0l6.58-2.63c1.43-.385,2.855-.795,4.294-1.142.565-.137,1.223-.167,1.218-.907C66.017,19.969,65.326,19.819,64.814,19.632Z" transform="translate(56.298 24.392)" fill="#603813"/>
      <path id="Path_4593" data-name="Path 4593" d="M28.234,22.619c-2.236-1.79-4.51-3.533-6.769-5.294l-.637-.527c-.4-.554-1.277-.489-1.549-1.2a24.694,24.694,0,0,0-4.369-4.33,8.972,8.972,0,0,0-2.139-2.6,8.462,8.462,0,0,0-2.1-2.637,1.547,1.547,0,0,0-2.355-.673c-.457.3.18.849.525,1.193h0A18.8,18.8,0,0,0,11.507,9.93q1.04,1.152,2.081,2.308a31.171,31.171,0,0,0,5.294,5.055,83.1,83.1,0,0,0,8.071,6.747c.622.493,1.187,1.7,2.074.831C29.972,23.939,28.946,23.187,28.234,22.619Z" transform="translate(10.212 6.322)" fill="#603813"/>
      <path id="Path_4594" data-name="Path 4594" d="M28.109,3.41a4.945,4.945,0,0,0,.284-1.225c-.016-.82.6-2.031-.865-2.173-1.5-.146-1.1,1.1-1.191,1.941a.458.458,0,0,0-.081.34,4.165,4.165,0,0,0-.293,2.238h0c-.41,5.769.054,11.541-.061,17.312a2.9,2.9,0,0,0,.374.977c.727,1.732,2.274.25,1.788-1.1a7.95,7.95,0,0,0,.018-4.283v0a41.007,41.007,0,0,0-.074-6.355c.358-.876-.7-1.741-.023-2.619Q28.046,5.935,28.109,3.41Zm-1.792,7.249,0,0h0Z" transform="translate(32.285 0)" fill="#603813"/>
      <path id="Path_4595" data-name="Path 4595" d="M21.271,25.381a1.406,1.406,0,0,1-.549.2,3.206,3.206,0,0,0,.549-.2l-1.232-.047Q15.969,24.665,11.9,24l0,0a3.946,3.946,0,0,0-2.337-.342l-.772-.079c-2.482-.432-4.961-.878-7.447-1.286C.885,22.215.2,21.956.032,22.6c-.182.694.462,1.022,1.016,1.175a18.429,18.429,0,0,0,6.368,1.106c1.157.75,2.522.462,3.779.707,3.664.716,7.3,1.714,11.09,1.552.617-.027,1.479.212,1.561-.694C23.908,25.093,22.2,25.221,21.271,25.381Z" transform="translate(0 27.761)" fill="#603813"/>
      <path id="Path_4596" data-name="Path 4596" d="M24.648,16.651h0l-1.331-4.7,0-.007c-.572-2.006-1.139-4.013-1.718-6.017-.218-.757-.545-1.3-1.527-1.076-1.013.239-.977.831-.772,1.624a25.168,25.168,0,0,0,1.747,5.546l1.439,4.722h0c.016.7-.1,1.455.813,1.729C24.7,18.574,25.256,18.043,24.648,16.651Z" transform="translate(24.012 6.014)" fill="#603813"/>
    </g>
  </g>
</svg>
