<svg xmlns="http://www.w3.org/2000/svg" width="93.094" height="98.468" viewBox="0 0 93.094 98.468">
  <g id="Group_996" data-name="Group 996" transform="translate(-547.906 -200.627)">
    <g id="Group_766" data-name="Group 766" transform="translate(560.473 207.279)">
      <path id="Path_6074" data-name="Path 6074" d="M199.914,227.8c-.023-.016-.044-.033-.067-.047-1.605-.978-3.114-2.173-4.655-3.248l-9.613-6.707-11.068-7.723-9.184-6.409-3.16-2.2c-.46.329-.953.628-1.408.946l-3.943,2.751-11.552,8.061-12.222,8.528-7.869,5.491c-.23.161-.474.311-.694.484-.035.027-.077.046-.109.076.059-.055-.042.126-.034.088-.018.048-.044.113-.026.04s-.005-.006-.017.042l.008.017c0-.005,0-.007.008-.015.054-.115.047.155,0,.034a.112.112,0,0,0-.008-.018l0,0c.012.041.04.127.048.144,0-.008.092.1.006.032.034.025.054.039.068.049-.046-.054.069.046,0,0,.01.013.028.031.062.066,0,0-.163-.062,0,0,.087.034-.027.016.157.027.1.006.2,0,.3,0h4.279a1.24,1.24,0,0,1,1.222,1.222c0,.035,0,.071,0,.106.08,2.413,0,4.843,0,7.257v51.144c.483.006.967.024,1.443.024h11.554v-4.9a1.24,1.24,0,0,1,1.222-1.222h33.473a1.24,1.24,0,0,1,1.222,1.222v4.9h14.475c.007-.4.022-.805.022-1.2v-57.33a1.24,1.24,0,0,1,1.221-1.222h3.5a9.478,9.478,0,0,0,1.2-.007C199.938,228.276,200.066,227.919,199.914,227.8Zm-56.225,29.088h-8.836a1.239,1.239,0,0,1-1.221-1.222V244.925a1.239,1.239,0,0,1,1.221-1.222h2.072v-8.136a1.24,1.24,0,0,1,1.222-1.222h18.167a1.128,1.128,0,0,1,.832.331l.024.023c.013.014.027.027.039.041a1.126,1.126,0,0,1,.327.826V243.7h3.512a1.24,1.24,0,0,1,1.222,1.222v10.745a1.127,1.127,0,0,1-.331.832l-.023.024c-.014.013-.027.027-.042.039a1.127,1.127,0,0,1-.826.327H143.689Zm14.953,13.239v5.863a1.222,1.222,0,0,1-2.444,0V269.3a1.222,1.222,0,1,1,2.444,0Zm13.078-5.82v16.055a1.223,1.223,0,0,1-2.444,0V263.236H154.6v17.131a1.222,1.222,0,0,1-2.443,0V262.014a1.24,1.24,0,0,1,1.222-1.222H170.5a1.24,1.24,0,0,1,1.222,1.222Zm15.45-22.869v9.375a1.124,1.124,0,0,1-.331.832c-.007.009-.015.016-.023.024s-.027.027-.042.039a1.128,1.128,0,0,1-.826.327H173.514a1.24,1.24,0,0,1-1.222-1.222V240.072a1.24,1.24,0,0,1,1.222-1.222h12.434a1.24,1.24,0,0,1,1.222,1.222Zm5.133-14.394a1.232,1.232,0,0,1-1.672.438l-3.608-2.517-15.65-10.921-9.2-6.417-2.991,2.087-15.65,10.921-9.812,6.846a1.232,1.232,0,0,1-1.672-.438,1.255,1.255,0,0,1,.439-1.672l3.607-2.517,15.651-10.921,9.812-6.847a1.19,1.19,0,0,1,1.234,0l3.607,2.517,15.651,10.921,9.812,6.846A1.248,1.248,0,0,1,192.3,227.048Z" transform="translate(-121.871 -198.733)" fill="#fff"/>
      <path id="Path_6075" data-name="Path 6075" d="M124.294,247.389l-.006-.02C124.28,247.4,124.279,247.416,124.294,247.389Z" transform="translate(-121.867 -218.127)" fill="#fff"/>
      <path id="Path_6076" data-name="Path 6076" d="M124.292,247.368v0Z" transform="translate(-121.871 -218.126)" fill="#fff"/>
      <path id="Path_6077" data-name="Path 6077" d="M188.565,348.738H192.7v-3.673H161.667v3.673h26.9Z" transform="translate(-137.661 -259.403)" fill="#fff"/>
      <path id="Path_6078" data-name="Path 6078" d="M199.619,223.912a1.51,1.51,0,0,0-.243-.217l-3.8-2.653-9.185-6.409-11.067-7.723-9.613-6.708c-1.541-1.075-3.05-2.27-4.655-3.248-.023-.014-.044-.031-.067-.047a1.187,1.187,0,0,0-1.234,0l-5.105,3.562-11.642,8.123L130.38,217.4l-8.212,5.731c-1.037.724-2.115,1.462-2.067,2.921a2.829,2.829,0,0,0,3,2.706h3.118v51.167c0,2.415-.08,4.844,0,7.258,0,.035,0,.071,0,.106a1.24,1.24,0,0,0,1.222,1.222h57.777c2.65,0,5.316.084,7.965,0,.038,0,.075,0,.113,0a1.24,1.24,0,0,0,1.222-1.222v-57.33c0-.4.015-.8.022-1.2h3.1a2.872,2.872,0,0,0,2.586-1.3A2.757,2.757,0,0,0,199.619,223.912Zm-2.82,2.4h-3.5a1.24,1.24,0,0,0-1.221,1.222v57.33c0,.4-.015.8-.022,1.2H177.578v-4.9a1.24,1.24,0,0,0-1.222-1.222H142.883a1.24,1.24,0,0,0-1.222,1.222v4.9H130.107c-.476,0-.96-.018-1.443-.024V234.9c0-2.414.08-4.844,0-7.257,0-.035,0-.071,0-.106a1.24,1.24,0,0,0-1.222-1.222h-4.279c-.1,0-.2.006-.3,0-.184-.011-.07.006-.157-.027-.163-.063,0,0,0,0-.034-.035-.051-.054-.062-.066s-.035-.024-.068-.049c.087.065-.01-.04-.006-.032-.008-.017-.036-.1-.048-.144-.015.027-.013.009-.006-.02v0c.012-.048.036-.117.017-.042s.008.008.026-.04c-.009.038.092-.143.033-.088.032-.029.074-.049.109-.076.221-.173.464-.324.694-.484l7.869-5.491,12.222-8.528,11.552-8.061,3.943-2.751c.455-.318.948-.617,1.408-.946l3.16,2.2,9.184,6.409,11.068,7.723,9.613,6.707c1.541,1.075,3.05,2.27,4.655,3.248.023.014.044.031.067.047.152.116.024.472-.147.5A9.478,9.478,0,0,1,196.8,226.316ZM144.1,282.4h31.029v3.674H144.1Z" transform="translate(-120.099 -196.735)" fill="#353535"/>
      <path id="Path_6079" data-name="Path 6079" d="M124.293,247.366v0l.006.02,0,0Z" transform="translate(-121.871 -218.126)" fill="#353535"/>
      <path id="Path_6080" data-name="Path 6080" d="M124.314,247.348c0,.008-.005.01-.008.015a.113.113,0,0,1,.008.018C124.361,247.5,124.368,247.233,124.314,247.348Z" transform="translate(-121.877 -218.106)" fill="#353535"/>
      <path id="Path_6081" data-name="Path 6081" d="M124.5,247.782c.069.046-.046-.054,0,0Z" transform="translate(-121.956 -218.295)" fill="#353535"/>
      <path id="Path_6082" data-name="Path 6082" d="M190.881,304.194H173.76a1.24,1.24,0,0,0-1.222,1.222v18.353a1.222,1.222,0,0,0,2.443,0V306.638h14.678v17.131a1.223,1.223,0,0,0,2.444,0V305.416A1.24,1.24,0,0,0,190.881,304.194Z" transform="translate(-142.254 -242.136)" fill="#353535"/>
      <path id="Path_6083" data-name="Path 6083" d="M157.3,269.544V262.63h-6.9v6.914Z" transform="translate(-132.9 -224.575)" fill="#efa10e"/>
      <path id="Path_6084" data-name="Path 6084" d="M171.952,262.63h-5.373v6.914h6.379V262.63Z" transform="translate(-139.737 -224.575)" fill="#efa10e"/>
      <path id="Path_6085" data-name="Path 6085" d="M211.986,278.733h9.643v-8.3h-9.99v8.3Z" transform="translate(-158.774 -227.871)" fill="#efa10e"/>
      <path id="Path_6086" data-name="Path 6086" d="M221.063,266.2H208.629a1.24,1.24,0,0,0-1.222,1.222v10.745a1.24,1.24,0,0,0,1.222,1.222h12.434a1.128,1.128,0,0,0,.826-.327c.015-.012.028-.026.042-.039s.016-.016.023-.024a1.124,1.124,0,0,0,.331-.832V267.422A1.24,1.24,0,0,0,221.063,266.2Zm-11.212,2.444h9.99v8.3h-9.99v-8.3Z" transform="translate(-156.986 -226.083)" fill="#353535"/>
      <path id="Path_6087" data-name="Path 6087" d="M197.421,227.9l-9.812-6.846-15.651-10.921-3.607-2.517a1.19,1.19,0,0,0-1.234,0l-9.812,6.847-15.651,10.921-3.607,2.517a1.255,1.255,0,0,0-.439,1.672,1.233,1.233,0,0,0,1.672.438l9.812-6.846,15.65-10.921,2.991-2.087,9.2,6.417L192.58,227.5l3.608,2.517a1.232,1.232,0,0,0,1.672-.438A1.248,1.248,0,0,0,197.421,227.9Z" transform="translate(-127.428 -201.26)" fill="#353535"/>
      <path id="Path_6088" data-name="Path 6088" d="M146.732,287.135h21.713v-8.3H144.7v8.3Z" transform="translate(-130.491 -231.422)" fill="#fff"/>
      <path id="Path_6089" data-name="Path 6089" d="M167.88,280.945a1.127,1.127,0,0,0,.826-.327c.014-.012.028-.026.042-.039l.023-.024a1.127,1.127,0,0,0,.331-.832V268.979a1.24,1.24,0,0,0-1.222-1.222h-3.512V259.62a1.126,1.126,0,0,0-.327-.826c-.012-.014-.026-.027-.039-.041l-.024-.023a1.128,1.128,0,0,0-.832-.331H144.979a1.24,1.24,0,0,0-1.222,1.222v8.136h-2.072a1.239,1.239,0,0,0-1.221,1.222v10.745a1.239,1.239,0,0,0,1.221,1.222H167.88ZM142.907,270.2h23.75v8.3h-23.75v-8.3Zm3.294-9.358h6.9v6.914h-6.9v-6.914Zm12.843,6.914h-3.5v-6.914h6.379v6.914Z" transform="translate(-128.703 -222.787)" fill="#353535"/>
      <path id="Path_6090" data-name="Path 6090" d="M180.761,316.812a1.244,1.244,0,0,0-1.222,1.222v6.692a1.222,1.222,0,1,0,2.444,0v-6.692A1.236,1.236,0,0,0,180.761,316.812Z" transform="translate(-145.212 -247.466)" fill="#353535"/>
    </g>
    <g id="Group_769" data-name="Group 769" transform="translate(547.906 200.627)">
      <path id="Path_6123" data-name="Path 6123" d="M131.508,193.971q-.948-3.472-1.894-6.943-.135-.5-.271-.993a1.157,1.157,0,0,0-2.23.615l1.894,6.943q.135.5.271.993A1.158,1.158,0,0,0,131.508,193.971Z" transform="translate(-110.476 -185.216)" fill="#353535"/>
      <path id="Path_6124" data-name="Path 6124" d="M111.88,195.147l-.942-.893a1.156,1.156,0,0,0-1.635,1.635l6.527,6.185.943.893a1.156,1.156,0,0,0,1.635-1.635Z" transform="translate(-102.83 -188.895)" fill="#353535"/>
      <path id="Path_6125" data-name="Path 6125" d="M109.182,211.557l-8.216-2.844-1.163-.4a1.157,1.157,0,0,0-.615,2.231l8.216,2.844,1.163.4a1.157,1.157,0,1,0,.615-2.231Z" transform="translate(-98.338 -194.952)" fill="#353535"/>
    </g>
  </g>
</svg>
