<svg xmlns="http://www.w3.org/2000/svg" xmlns:xlink="http://www.w3.org/1999/xlink" width="482" height="4.537" viewBox="0 0 482 4.537">
  <defs>
    <clipPath id="clip-path">
      <rect width="482" height="4.537" fill="none"/>
    </clipPath>
    <clipPath id="clip-path-2">
      <rect id="Rectangle_421" data-name="Rectangle 421" width="212.619" height="4.537" transform="translate(0 0)" fill="#efa10e"/>
    </clipPath>
  </defs>
  <g id="Repeat_Grid_10" data-name="Repeat Grid 10" clip-path="url(#clip-path)">
    <g id="Group_832" data-name="Group 832" transform="translate(0 0)">
      <g id="Group_831" data-name="Group 831" clip-path="url(#clip-path-2)">
        <path id="Path_6621" data-name="Path 6621" d="M170.486,3.906c-.144-.027-.555-.1-.963-.18a10.671,10.671,0,0,0-6.418.508,3.173,3.173,0,0,1-4.551-2.517A1.031,1.031,0,0,1,159.4.378,12.054,12.054,0,0,1,161.879.1c2.509.044,5.017.142,7.523.27a6.9,6.9,0,0,1,2.078.4,1.606,1.606,0,0,1,1.2,1.919c-.213.864-.773,1.219-2.189,1.211" fill="#efa10e"/>
        <path id="Path_6622" data-name="Path 6622" d="M45.437.283c1.609-.076,3.22-.215,4.828-.2a4.375,4.375,0,0,1,1.929.585.937.937,0,0,1-.023,1.789,7.488,7.488,0,0,1-2.729.727,13.582,13.582,0,0,0-4.715.9A3.767,3.767,0,0,1,40,2.578C39.426,1.753,40.271.4,41.493.331,42.8.256,44.119.314,45.433.314l0-.031" fill="#efa10e"/>
        <path id="Path_6623" data-name="Path 6623" d="M204.826.234A16.136,16.136,0,0,1,211.4.679c.783.241,1.329.687,1.2,1.511s-.857,1-1.6.943c-.984-.072-1.968-.154-2.945-.286a12.344,12.344,0,0,0-5.568.58,3.075,3.075,0,0,1-3.626-.978c-.658-.836-.5-1.578.531-1.823a20.3,20.3,0,0,1,3.191-.381c.743-.056,1.494-.011,2.241-.011" fill="#efa10e"/>
        <path id="Path_6624" data-name="Path 6624" d="M125.071.007c1.432.065,2.87.07,4.293.221A5.146,5.146,0,0,1,131.271.9c.736.412.771,1.119.04,1.527a4.844,4.844,0,0,1-2.18.674,13.908,13.908,0,0,0-5.7.9,3.047,3.047,0,0,1-3.242-1.187c-.787-1.121-.468-2.078.859-2.423a7.967,7.967,0,0,1,1.687-.18C123.511.184,124.289.2,125.066.2c0-.066,0-.132,0-.2" fill="#efa10e"/>
        <path id="Path_6625" data-name="Path 6625" d="M3.3,4A4.441,4.441,0,0,1,.316,2.3,1.228,1.228,0,0,1,1.372.245C4.357.157,7.345.1,10.332.069a3.549,3.549,0,0,1,1.394.272,1.165,1.165,0,0,1,.628.741c.033.208-.293.532-.533.7a2.817,2.817,0,0,1-.909.365q-3.289.879-6.589,1.729A8.389,8.389,0,0,1,3.3,4" fill="#efa10e"/>
        <path id="Path_6626" data-name="Path 6626" d="M64.184,4.463a3,3,0,0,1-2.757-1.372A1.361,1.361,0,0,1,62.443.941C63.676.732,64.94.7,66.186.564S68.664.2,69.91.1a5.333,5.333,0,0,1,1.848.209,1.224,1.224,0,0,1,.91,1.366A1.284,1.284,0,0,1,71.5,2.848c-.822.151-1.669.178-2.485.351-1.134.242-2.251.568-3.374.863-.574.152-1.145.316-1.452.4" fill="#efa10e"/>
        <path id="Path_6627" data-name="Path 6627" d="M86.942.056c1.346,0,2.7-.06,4.038.024a6.632,6.632,0,0,1,2.212.547,1.272,1.272,0,0,1,.577,1.048,1.327,1.327,0,0,1-.77.938,8.166,8.166,0,0,1-2.281.293c-2,0-4-.033-6-.124a13.4,13.4,0,0,1-2.542-.4A1.323,1.323,0,0,1,81.1.938c.1-.7.824-.739,1.45-.736,1.465.006,2.93,0,4.4,0V.056" fill="#efa10e"/>
        <path id="Path_6628" data-name="Path 6628" d="M26.374.022c.924.051,2.3.107,3.663.213a2.429,2.429,0,0,1,1.007.336.663.663,0,0,1-.008,1.211,3.906,3.906,0,0,1-.818.357c-1.52.529-3.031,1.086-4.569,1.559a4.006,4.006,0,0,1-3.7-.288,3.2,3.2,0,0,1-.9-.968C20.438,1.386,20.7.621,21.911.4,23.222.155,24.58.16,26.374.022" fill="#efa10e"/>
        <path id="Path_6629" data-name="Path 6629" d="M144.9,0c1.341.069,2.684.109,4.022.219.587.049,1.124.3,1.19,1a1.133,1.133,0,0,1-1,1.282c-2.02.4-4.045.8-6.086,1.053a2.562,2.562,0,0,1-2.485-1.314c-.69-1.059-.258-1.954,1.031-2.017C142.68.167,143.789.21,144.9.21c0-.07,0-.14.005-.21" fill="#efa10e"/>
        <path id="Path_6630" data-name="Path 6630" d="M105.811,3.773c-2.249.046-3.635-1.065-3.586-2.34.018-.464.085-.88.668-.992a9.93,9.93,0,0,1,1.548-.363c1.516-.034,3.035-.015,4.549.052a3.693,3.693,0,0,1,1.61.406c.353.2.785.746.727,1.055a1.653,1.653,0,0,1-.924,1.122c-1.716.48-3.474.812-4.592,1.06" fill="#efa10e"/>
        <path id="Path_6631" data-name="Path 6631" d="M184.767.006c1.163.065,2.325.128,3.488.2a1.377,1.377,0,0,1,.438.088c.633.263,1.39.482,1.385,1.314-.005.875-.777,1.13-1.454,1.166-1.9.1-3.816.113-5.725.108a1.35,1.35,0,0,1-.955-.412c-.356-.462-.83-1.062-.778-1.554.078-.725.889-.734,1.533-.734q1.03,0,2.062,0l.006-.174" fill="#efa10e"/>
      </g>
    </g>
    <g id="Group_832-2" data-name="Group 832" transform="translate(222 0)">
      <g id="Group_831-2" data-name="Group 831" clip-path="url(#clip-path-2)">
        <path id="Path_6621-2" data-name="Path 6621" d="M170.486,3.906c-.144-.027-.555-.1-.963-.18a10.671,10.671,0,0,0-6.418.508,3.173,3.173,0,0,1-4.551-2.517A1.031,1.031,0,0,1,159.4.378,12.054,12.054,0,0,1,161.879.1c2.509.044,5.017.142,7.523.27a6.9,6.9,0,0,1,2.078.4,1.606,1.606,0,0,1,1.2,1.919c-.213.864-.773,1.219-2.189,1.211" fill="#efa10e"/>
        <path id="Path_6622-2" data-name="Path 6622" d="M45.437.283c1.609-.076,3.22-.215,4.828-.2a4.375,4.375,0,0,1,1.929.585.937.937,0,0,1-.023,1.789,7.488,7.488,0,0,1-2.729.727,13.582,13.582,0,0,0-4.715.9A3.767,3.767,0,0,1,40,2.578C39.426,1.753,40.271.4,41.493.331,42.8.256,44.119.314,45.433.314l0-.031" fill="#efa10e"/>
        <path id="Path_6623-2" data-name="Path 6623" d="M204.826.234A16.136,16.136,0,0,1,211.4.679c.783.241,1.329.687,1.2,1.511s-.857,1-1.6.943c-.984-.072-1.968-.154-2.945-.286a12.344,12.344,0,0,0-5.568.58,3.075,3.075,0,0,1-3.626-.978c-.658-.836-.5-1.578.531-1.823a20.3,20.3,0,0,1,3.191-.381c.743-.056,1.494-.011,2.241-.011" fill="#efa10e"/>
        <path id="Path_6624-2" data-name="Path 6624" d="M125.071.007c1.432.065,2.87.07,4.293.221A5.146,5.146,0,0,1,131.271.9c.736.412.771,1.119.04,1.527a4.844,4.844,0,0,1-2.18.674,13.908,13.908,0,0,0-5.7.9,3.047,3.047,0,0,1-3.242-1.187c-.787-1.121-.468-2.078.859-2.423a7.967,7.967,0,0,1,1.687-.18C123.511.184,124.289.2,125.066.2c0-.066,0-.132,0-.2" fill="#efa10e"/>
        <path id="Path_6625-2" data-name="Path 6625" d="M3.3,4A4.441,4.441,0,0,1,.316,2.3,1.228,1.228,0,0,1,1.372.245C4.357.157,7.345.1,10.332.069a3.549,3.549,0,0,1,1.394.272,1.165,1.165,0,0,1,.628.741c.033.208-.293.532-.533.7a2.817,2.817,0,0,1-.909.365q-3.289.879-6.589,1.729A8.389,8.389,0,0,1,3.3,4" fill="#efa10e"/>
        <path id="Path_6626-2" data-name="Path 6626" d="M64.184,4.463a3,3,0,0,1-2.757-1.372A1.361,1.361,0,0,1,62.443.941C63.676.732,64.94.7,66.186.564S68.664.2,69.91.1a5.333,5.333,0,0,1,1.848.209,1.224,1.224,0,0,1,.91,1.366A1.284,1.284,0,0,1,71.5,2.848c-.822.151-1.669.178-2.485.351-1.134.242-2.251.568-3.374.863-.574.152-1.145.316-1.452.4" fill="#efa10e"/>
        <path id="Path_6627-2" data-name="Path 6627" d="M86.942.056c1.346,0,2.7-.06,4.038.024a6.632,6.632,0,0,1,2.212.547,1.272,1.272,0,0,1,.577,1.048,1.327,1.327,0,0,1-.77.938,8.166,8.166,0,0,1-2.281.293c-2,0-4-.033-6-.124a13.4,13.4,0,0,1-2.542-.4A1.323,1.323,0,0,1,81.1.938c.1-.7.824-.739,1.45-.736,1.465.006,2.93,0,4.4,0V.056" fill="#efa10e"/>
        <path id="Path_6628-2" data-name="Path 6628" d="M26.374.022c.924.051,2.3.107,3.663.213a2.429,2.429,0,0,1,1.007.336.663.663,0,0,1-.008,1.211,3.906,3.906,0,0,1-.818.357c-1.52.529-3.031,1.086-4.569,1.559a4.006,4.006,0,0,1-3.7-.288,3.2,3.2,0,0,1-.9-.968C20.438,1.386,20.7.621,21.911.4,23.222.155,24.58.16,26.374.022" fill="#efa10e"/>
        <path id="Path_6629-2" data-name="Path 6629" d="M144.9,0c1.341.069,2.684.109,4.022.219.587.049,1.124.3,1.19,1a1.133,1.133,0,0,1-1,1.282c-2.02.4-4.045.8-6.086,1.053a2.562,2.562,0,0,1-2.485-1.314c-.69-1.059-.258-1.954,1.031-2.017C142.68.167,143.789.21,144.9.21c0-.07,0-.14.005-.21" fill="#efa10e"/>
        <path id="Path_6630-2" data-name="Path 6630" d="M105.811,3.773c-2.249.046-3.635-1.065-3.586-2.34.018-.464.085-.88.668-.992a9.93,9.93,0,0,1,1.548-.363c1.516-.034,3.035-.015,4.549.052a3.693,3.693,0,0,1,1.61.406c.353.2.785.746.727,1.055a1.653,1.653,0,0,1-.924,1.122c-1.716.48-3.474.812-4.592,1.06" fill="#efa10e"/>
        <path id="Path_6631-2" data-name="Path 6631" d="M184.767.006c1.163.065,2.325.128,3.488.2a1.377,1.377,0,0,1,.438.088c.633.263,1.39.482,1.385,1.314-.005.875-.777,1.13-1.454,1.166-1.9.1-3.816.113-5.725.108a1.35,1.35,0,0,1-.955-.412c-.356-.462-.83-1.062-.778-1.554.078-.725.889-.734,1.533-.734q1.03,0,2.062,0l.006-.174" fill="#efa10e"/>
      </g>
    </g>
    <g id="Group_832-3" data-name="Group 832" transform="translate(444 0)">
      <g id="Group_831-3" data-name="Group 831" clip-path="url(#clip-path-2)">
        <path id="Path_6621-3" data-name="Path 6621" d="M170.486,3.906c-.144-.027-.555-.1-.963-.18a10.671,10.671,0,0,0-6.418.508,3.173,3.173,0,0,1-4.551-2.517A1.031,1.031,0,0,1,159.4.378,12.054,12.054,0,0,1,161.879.1c2.509.044,5.017.142,7.523.27a6.9,6.9,0,0,1,2.078.4,1.606,1.606,0,0,1,1.2,1.919c-.213.864-.773,1.219-2.189,1.211" fill="#efa10e"/>
        <path id="Path_6622-3" data-name="Path 6622" d="M45.437.283c1.609-.076,3.22-.215,4.828-.2a4.375,4.375,0,0,1,1.929.585.937.937,0,0,1-.023,1.789,7.488,7.488,0,0,1-2.729.727,13.582,13.582,0,0,0-4.715.9A3.767,3.767,0,0,1,40,2.578C39.426,1.753,40.271.4,41.493.331,42.8.256,44.119.314,45.433.314l0-.031" fill="#efa10e"/>
        <path id="Path_6623-3" data-name="Path 6623" d="M204.826.234A16.136,16.136,0,0,1,211.4.679c.783.241,1.329.687,1.2,1.511s-.857,1-1.6.943c-.984-.072-1.968-.154-2.945-.286a12.344,12.344,0,0,0-5.568.58,3.075,3.075,0,0,1-3.626-.978c-.658-.836-.5-1.578.531-1.823a20.3,20.3,0,0,1,3.191-.381c.743-.056,1.494-.011,2.241-.011" fill="#efa10e"/>
        <path id="Path_6624-3" data-name="Path 6624" d="M125.071.007c1.432.065,2.87.07,4.293.221A5.146,5.146,0,0,1,131.271.9c.736.412.771,1.119.04,1.527a4.844,4.844,0,0,1-2.18.674,13.908,13.908,0,0,0-5.7.9,3.047,3.047,0,0,1-3.242-1.187c-.787-1.121-.468-2.078.859-2.423a7.967,7.967,0,0,1,1.687-.18C123.511.184,124.289.2,125.066.2c0-.066,0-.132,0-.2" fill="#efa10e"/>
        <path id="Path_6625-3" data-name="Path 6625" d="M3.3,4A4.441,4.441,0,0,1,.316,2.3,1.228,1.228,0,0,1,1.372.245C4.357.157,7.345.1,10.332.069a3.549,3.549,0,0,1,1.394.272,1.165,1.165,0,0,1,.628.741c.033.208-.293.532-.533.7a2.817,2.817,0,0,1-.909.365q-3.289.879-6.589,1.729A8.389,8.389,0,0,1,3.3,4" fill="#efa10e"/>
        <path id="Path_6626-3" data-name="Path 6626" d="M64.184,4.463a3,3,0,0,1-2.757-1.372A1.361,1.361,0,0,1,62.443.941C63.676.732,64.94.7,66.186.564S68.664.2,69.91.1a5.333,5.333,0,0,1,1.848.209,1.224,1.224,0,0,1,.91,1.366A1.284,1.284,0,0,1,71.5,2.848c-.822.151-1.669.178-2.485.351-1.134.242-2.251.568-3.374.863-.574.152-1.145.316-1.452.4" fill="#efa10e"/>
        <path id="Path_6627-3" data-name="Path 6627" d="M86.942.056c1.346,0,2.7-.06,4.038.024a6.632,6.632,0,0,1,2.212.547,1.272,1.272,0,0,1,.577,1.048,1.327,1.327,0,0,1-.77.938,8.166,8.166,0,0,1-2.281.293c-2,0-4-.033-6-.124a13.4,13.4,0,0,1-2.542-.4A1.323,1.323,0,0,1,81.1.938c.1-.7.824-.739,1.45-.736,1.465.006,2.93,0,4.4,0V.056" fill="#efa10e"/>
        <path id="Path_6628-3" data-name="Path 6628" d="M26.374.022c.924.051,2.3.107,3.663.213a2.429,2.429,0,0,1,1.007.336.663.663,0,0,1-.008,1.211,3.906,3.906,0,0,1-.818.357c-1.52.529-3.031,1.086-4.569,1.559a4.006,4.006,0,0,1-3.7-.288,3.2,3.2,0,0,1-.9-.968C20.438,1.386,20.7.621,21.911.4,23.222.155,24.58.16,26.374.022" fill="#efa10e"/>
        <path id="Path_6629-3" data-name="Path 6629" d="M144.9,0c1.341.069,2.684.109,4.022.219.587.049,1.124.3,1.19,1a1.133,1.133,0,0,1-1,1.282c-2.02.4-4.045.8-6.086,1.053a2.562,2.562,0,0,1-2.485-1.314c-.69-1.059-.258-1.954,1.031-2.017C142.68.167,143.789.21,144.9.21c0-.07,0-.14.005-.21" fill="#efa10e"/>
        <path id="Path_6630-3" data-name="Path 6630" d="M105.811,3.773c-2.249.046-3.635-1.065-3.586-2.34.018-.464.085-.88.668-.992a9.93,9.93,0,0,1,1.548-.363c1.516-.034,3.035-.015,4.549.052a3.693,3.693,0,0,1,1.61.406c.353.2.785.746.727,1.055a1.653,1.653,0,0,1-.924,1.122c-1.716.48-3.474.812-4.592,1.06" fill="#efa10e"/>
        <path id="Path_6631-3" data-name="Path 6631" d="M184.767.006c1.163.065,2.325.128,3.488.2a1.377,1.377,0,0,1,.438.088c.633.263,1.39.482,1.385,1.314-.005.875-.777,1.13-1.454,1.166-1.9.1-3.816.113-5.725.108a1.35,1.35,0,0,1-.955-.412c-.356-.462-.83-1.062-.778-1.554.078-.725.889-.734,1.533-.734q1.03,0,2.062,0l.006-.174" fill="#efa10e"/>
      </g>
    </g>
  </g>
</svg>
