<svg xmlns="http://www.w3.org/2000/svg" viewBox="0 0 981.33 657.69"><defs><style>.cls-1{fill:#d3d3d3;}.cls-2{fill:#f4f4f4;stroke:#999;}.cls-2,.cls-3,.cls-4,.cls-6{stroke-miterlimit:10;}.cls-29,.cls-3,.cls-53{fill:#43a5d9;}.cls-3,.cls-4{stroke:#231f20;}.cls-4{fill:#e9ffff;}.cls-5{fill:#231f20;}.cls-6{fill:#fff;stroke:#b1b1b1;}.cls-28,.cls-29,.cls-45,.cls-53,.cls-7{font-size:20px;font-family:YuGothic-Bold, Yu Gothic;font-weight:700;}.cls-48,.cls-7{letter-spacing:-0.05em;}.cls-8{letter-spacing:-0.04em;}.cls-9{letter-spacing:-0.03em;}.cls-10{letter-spacing:-0.09em;}.cls-11{letter-spacing:-0.15em;}.cls-12{letter-spacing:-0.07em;}.cls-13{letter-spacing:-0.07em;}.cls-14,.cls-28,.cls-29{letter-spacing:-0.03em;}.cls-15{letter-spacing:-0.52em;}.cls-16{letter-spacing:-0.06em;}.cls-17{letter-spacing:-0.11em;}.cls-18{letter-spacing:-0.14em;}.cls-19{letter-spacing:-0.14em;}.cls-20{letter-spacing:-0.14em;}.cls-21{letter-spacing:-0.08em;}.cls-22{letter-spacing:-0.52em;}.cls-23{letter-spacing:-0.1em;}.cls-24{letter-spacing:-0.11em;}.cls-25{letter-spacing:-0.13em;}.cls-26{letter-spacing:-0.22em;}.cls-27{letter-spacing:-0.23em;}.cls-30{letter-spacing:-0.53em;}.cls-31{letter-spacing:-0.09em;}.cls-32{letter-spacing:-0.15em;}.cls-33{letter-spacing:-0.59em;}.cls-34{letter-spacing:-0.13em;}.cls-35{letter-spacing:-0.05em;}.cls-36{letter-spacing:-0.64em;}.cls-37{letter-spacing:-0.06em;}.cls-38{letter-spacing:-0.08em;}.cls-39{letter-spacing:-0.12em;}.cls-40{letter-spacing:-0.16em;}.cls-41{letter-spacing:-0.15em;}.cls-42{letter-spacing:-0.15em;}.cls-43{letter-spacing:-0.19em;}.cls-44{letter-spacing:-0.05em;}.cls-45{letter-spacing:-0.03em;}.cls-46{letter-spacing:-0.05em;}.cls-47{letter-spacing:-0.08em;}.cls-49{letter-spacing:-0.08em;}.cls-50{letter-spacing:-0.11em;}.cls-51{letter-spacing:-0.07em;}.cls-52{letter-spacing:-0.01em;}.cls-53{letter-spacing:-0.09em;}.cls-54{letter-spacing:-0.17em;}.cls-55{letter-spacing:-0.2em;}</style></defs><title>body-parts-highlight</title><g id="Layer_2" data-name="Layer 2"><g id="Layer_3" data-name="Layer 3"><path class="cls-1" d="M405.17,631.05a3.6,3.6,0,0,1-3.59-3.6V415.28c0-9.81,2.24-16.77,6.65-20.69a14.26,14.26,0,0,1,11.47-3.27,9.63,9.63,0,0,1,6.85,4c4.43,6.2,2.19,17.44,1.92,18.7a3.6,3.6,0,0,1-7-1.51c.63-3,1.29-10.17-.75-13a2.4,2.4,0,0,0-1.84-1.06A7,7,0,0,0,413,400c-2.74,2.42-4.24,7.86-4.24,15.31V627.45A3.6,3.6,0,0,1,405.17,631.05Z"/><path class="cls-2" d="M414.83,393.2C421.68,394.63,417,401,417,401s4.6,3.68,8.89,0,3.83-9.35,2.3-13.34.34-10.58,1.09-18.39c0,0,13.32-11.66,24.51-19.78s18.25-16.25,21.16-23.38a55.8,55.8,0,0,0,3.53-14.49s4.9,22.23,2.14,36.64-9.2,27.9,2.15,40.32c0,0-22.54,68.22-24.53,79.88s-.46,22.22,3.52,30.2a223.45,223.45,0,0,0-.61,39.4c1.53,22.84,5.37,43.23,5.21,51s-5.06,12.57-10.42,17-14.41,11.81-19,13.5-6.59,7.2-2.3,12.57S445.34,635,445.34,635s-1.53,4,2.15,5.06,6.74,0,11.5-4.91,13.49-14.72,17-17A90,90,0,0,0,487.19,610c3.38-3.07,3.68-7.82,2.15-11.65S483.82,593,484.43,585s6.22-36.34,5.79-53.35-1.8-44.46-2.11-44.92,23-46.15,28.21-64.7c.46,38,2.45,57.34,2.61,65s8.43,31.27,9,33,3.07,26.52,6.9,43.69-1.68-6.59,1.08,5.36,1.83,24.69,2.29,29.75-.15,7.81-3.83,11.65-8.43,11.19-10.73,15-4.14,8.13.61,8.74,6.75-2.45,6.75-2.45-.31,5.67,7.36,4,10-.76,14-6.13,6-10.58,9.35-14.1,5.83-3.84,5.52-9a38.32,38.32,0,0,0-5.21-16.1c-2.92-5.06-5.52-12.41-6.44-30s-1.53-44.92-4-59.33,1.54-32.2,5.37-40a276.38,276.38,0,0,0,16.1-42.46c5.67-19.47-.92-50.13-7.06-72.06s-26.06-72.66-25.45-72.2,23.77,1.53,35.88-.46c-13,13.79-20,43.78-20,43.78L562.77,336s7.06-19.29,11.2-25.11,7.35-12.88,13.95-25.45,12.57-16.87,9.5-21.62-5.06-8.43-13-7.66-15.94-1.23-23.46-2-12.72-.61-17.32-4.75S531.35,243,524,244.19s-15.64,5.21-20.39.92a40.46,40.46,0,0,1-6.83-7.63l-20.31,10.6v8.22a32,32,0,0,1-8.89,4.14c-5.83,1.84-8.58,4-9.2,12.42s-4,19.93-2.3,49.21c-29.43,15.17-50.13,55.65-52.28,63.47s-2.45,9.65.92,15.48C404.71,401,407.05,391.58,414.83,393.2Z"/><path class="cls-2" d="M456.07,243.11c3.93,6.62,13.7,8,23,5.93s20.37-10.83,24.35-24c4.91,3.84,10.58-4.14,12.12-10s-.77-12.27-8.13-8c1.84-11.5-6.75-26.22-25.45-27.29s-37.41,6.28-37,31.12S453.16,238.21,456.07,243.11Z"/><path class="cls-3" d="M491.49,220.88s-.62-6,0-6.06,2.76,1.16,3.68-3.44,1.38-8.43,1.38-8.43,1.53-.92.76-4.75-2.54-7.36-6.1-8.13-5.86-1.23-5.86-1.23.46-4.75-5.82-4-8,3.52-8,3.52-6.29-2-10.58.92a12.86,12.86,0,0,0-5.21,7.21,35.13,35.13,0,0,0-5.68,7.66,6.29,6.29,0,0,0,.62,6.9s-3.53,2.92,1.38,6.14,12.26-1.69,12.26-1.69-1.53,3.22,4.75,3.07,6.75-3.77,6.75-3.77-.48.39,4.67,1.62,6.67-1.62,6.67-1.62S488.73,219.2,491.49,220.88Z"/><path class="cls-3" d="M496.55,264.12l-6-14.19-6.29,3.46,5.21,13.33s-1.7-6.9-9-4.14-7.58,11.81-5.28,28.67,4.59,24.84,8.89,24.69,2.91-5.52,8.28-8.74,6.26-1.54,7.8-4.6a17.07,17.07,0,0,0,1.55-6.75s5.82,1.08,10-.46,5.06-3.22,5.06-3.22,7.36,1.08,12.11,2,6.44,3.37,9.51-.31,2.76-3.37-4-15.49S518.47,258.6,511,254.77,495.79,254.31,496.55,264.12Z"/><path class="cls-3" d="M498.84,269.79l-1.31,4.6s-1.9,0-5.12,3.68-4.3,6.9,0,12,6.9,5.62,13.64,6.18,10.89-.66,8-6.64-3.68-9.36-12.72-12.88l1.53-6.9Z"/><path class="cls-3" d="M505.9,375.57c2.75,1,5.67-2.76,5.36-7.2s-1.48-9.05,3.71-13.95,13.31-9.82,13.92-24.07c0,0,5.22-4.6,7.06-10.74,0,0,.61.32,5.67-3.67s4.9-14.42-3.38-9.66a193.29,193.29,0,0,1-18.55,9s-5.21-1.07-14.87,3.37S489.34,330.81,490.57,340s4.9,13.65,8.73,19.47S502.52,374.34,505.9,375.57Z"/><path class="cls-3" d="M519.69,315.32s6.95,8,8.94,18.1"/><path class="cls-3" d="M512.8,365.15a8.45,8.45,0,0,0,6.59.46c2.76-1.08,3.52-3.07,4.14-7.82s6.9-9.2,15.33-15.18,19.77-20.08,8.43-15.79S522.35,333.41,515,338,512.8,365.15,512.8,365.15Z"/><path class="cls-4" d="M501.3,398.11c4.08.47,2.28,5.21,5.81,5.06s4.46-4.91,7.22-3.68,2.2,4.9.64,6.9-8.35.61-12.7,7.81-7.86,14.5-12.7,25.8-6.36,16.82-6.82,20.2.15,9.5,0,12.57-.92,2.76-4.45,2.45-1.93-4.91-4.33-5.06-3.18,2-6.4.46-2.15-3.06,1.38-6.13,5.37-2.91,10.12-15.33,15.64-33,16.25-39.86S497.31,397.65,501.3,398.11Z"/><polygon class="cls-5" points="617.24 119.62 514.27 199.59 512.07 194.54 507.12 206.69 520.11 204.9 515.76 201.52 618.74 121.55 617.24 119.62"/><polygon class="cls-5" points="401.68 66.07 464.63 180.25 468.65 176.48 468.39 189.6 457.16 182.81 462.49 181.43 399.54 67.25 401.68 66.07"/><polygon class="cls-5" points="362.68 223.04 482.09 275.39 482.99 269.96 490.76 280.53 477.72 281.98 481.11 277.63 361.7 225.28 362.68 223.04"/><polygon class="cls-5" points="352.33 402.56 480.58 426.05 480.2 420.55 490.2 429.05 477.84 433.46 480.14 428.45 351.89 404.97 352.33 402.56"/><polygon class="cls-5" points="648.21 222.07 525.29 265.55 524.79 260.06 516.27 270.04 529.17 272.43 526.11 267.85 649.02 224.37 648.21 222.07"/><polygon class="cls-5" points="660.95 369.32 541.21 317.73 544.57 313.37 531.54 314.9 539.38 325.42 540.24 319.98 659.98 371.56 660.95 369.32"/><polygon class="cls-5" points="621.7 524 543.96 350.54 549.38 349.57 538.72 341.93 537.43 354.98 541.73 351.54 619.48 525 621.7 524"/><rect class="cls-6" x="613.61" y="0.5" width="228.73" height="129.55" rx="20.96"/><rect class="cls-6" x="614.54" y="163.97" width="366.29" height="129.55" rx="20.96"/><rect class="cls-6" x="614.54" y="310.96" width="366.29" height="182.62" rx="20.96"/><rect class="cls-6" x="0.5" y="161.2" width="372.17" height="128.53" rx="20.96"/><rect class="cls-6" x="0.5" y="320.87" width="372.17" height="128.53" rx="20.96"/><rect class="cls-6" x="0.5" y="484.11" width="372.17" height="170.29" rx="20.96"/><rect class="cls-6" x="614.54" y="527.52" width="366.29" height="129.67" rx="20.96"/><rect class="cls-6" x="140.93" y="0.5" width="443.96" height="129.55" rx="20.96"/><text class="cls-7" transform="translate(153.86 51.79)">ア<tspan class="cls-8" x="19.04" y="0">ル</tspan><tspan class="cls-9" x="38.2" y="0">ツ</tspan><tspan class="cls-10" x="57.66" y="0">ハ</tspan><tspan class="cls-11" x="75.76" y="0">イ</tspan><tspan class="cls-12" x="92.76" y="0">マ</tspan><tspan class="cls-13" x="111.36" y="0">ー</tspan><tspan class="cls-14" x="130.04" y="0">病</tspan><tspan class="cls-15" x="149.54" y="0">、</tspan><tspan class="cls-16" x="159.13" y="0">パ</tspan><tspan class="cls-17" x="178" y="0">ー</tspan><tspan class="cls-18" x="195.72" y="0">キ</tspan><tspan class="cls-19" x="212.84" y="0">ン</tspan><tspan class="cls-20" x="229.97" y="0">ソ</tspan><tspan class="cls-21" x="247.24" y="0">ン</tspan><tspan class="cls-14" x="265.67" y="0">病</tspan><tspan class="cls-22" x="285.17" y="0">、</tspan><tspan class="cls-23" x="294.73" y="0">ハ</tspan><tspan class="cls-24" x="312.7" y="0">ン</tspan><tspan class="cls-25" x="330.49" y="0">チ</tspan><tspan class="cls-26" x="347.94" y="0">ン</tspan><tspan class="cls-27" x="363.49" y="0">ト</tspan><tspan class="cls-21" x="378.98" y="0">ン</tspan><tspan class="cls-14" x="397.42" y="0">病</tspan></text><text class="cls-28" transform="translate(679.23 51.79)">加齢性難聴</text><text class="cls-29" transform="translate(147.25 90.45)">（炎症<tspan class="cls-30" x="58.5" y="0">、</tspan><tspan class="cls-31" x="68" y="0">A</tspan><tspan class="cls-32" x="79.94" y="0">β</tspan><tspan x="96.98" y="0">蓄積</tspan><tspan class="cls-33" x="135.98" y="0">、</tspan><tspan class="cls-34" x="144.1" y="0">タ</tspan><tspan class="cls-35" x="161.52" y="0">ウ</tspan><tspan x="180.54" y="0">凝集</tspan><tspan class="cls-36" x="219.54" y="0">、</tspan><tspan class="cls-20" x="226.67" y="0">α</tspan><tspan class="cls-37" x="243.94" y="0">-</tspan><tspan class="cls-38" x="251.38" y="0">シ</tspan><tspan class="cls-39" x="269.76" y="0">ヌ</tspan><tspan class="cls-40" x="287.38" y="0">レ</tspan><tspan class="cls-41" x="304.17" y="0">ク</tspan><tspan class="cls-42" x="321.13" y="0">レ</tspan><tspan class="cls-43" x="338.19" y="0">イ</tspan><tspan class="cls-21" x="354.37" y="0">ン</tspan><tspan x="372.81" y="0">凝集</tspan><tspan class="cls-30" x="411.81" y="0">）</tspan></text><text class="cls-29" transform="translate(69.84 254.68)">（動脈硬化<tspan class="cls-30" x="97.5" y="0">、</tspan><tspan x="107" y="0">心肥大</tspan><tspan class="cls-30" x="165.5" y="0">、</tspan><tspan x="175" y="0">炎症</tspan><tspan class="cls-30" x="214" y="0">）</tspan></text><text class="cls-29" transform="translate(679.22 90.45)">（細胞死<tspan class="cls-30" x="78" y="0">）</tspan></text><text class="cls-28" transform="translate(157.32 217.17)">心不全</text><text class="cls-29" transform="translate(40.59 416.83)">（骨芽細胞/破骨細胞分化<tspan class="cls-30" x="224" y="0">、</tspan><tspan x="233.5" y="0">炎症</tspan><tspan class="cls-30" x="272.5" y="0">）</tspan></text><text class="cls-28" transform="translate(147.59 379.32)">骨粗鬆症</text><text class="cls-29" transform="translate(11.87 598.96)">（DNA修復<tspan class="cls-30" x="101.78" y="0">、</tspan><tspan x="111.28" y="0">p53</tspan><tspan class="cls-30" x="144.96" y="0">、</tspan><tspan x="154.46" y="0">ELK4</tspan><tspan class="cls-30" x="203.68" y="0">、</tspan><tspan class="cls-44" x="213.18" y="0">W</tspan><tspan x="230.37" y="0">arburg効果</tspan><tspan class="cls-30" x="329.93" y="0">）</tspan></text><text class="cls-45" transform="translate(167.37 560.54)">が<tspan class="cls-46" x="19.33" y="0">ん</tspan></text><text class="cls-29" transform="translate(758.69 254.68)">（炎症<tspan class="cls-30" x="58.5" y="0">）</tspan></text><text class="cls-28" transform="translate(666.19 214.81)">慢性閉塞性肺疾患<tspan class="cls-30" x="156" y="0">、</tspan><tspan x="165.5" y="0">間質性肺炎</tspan></text><text class="cls-29" transform="translate(680.94 435.74)">（脂質代謝<tspan class="cls-30" x="97.5" y="0">、</tspan><tspan x="107" y="0">糖代謝</tspan><tspan class="cls-30" x="165.5" y="0">、</tspan><tspan x="175" y="0">炎症</tspan><tspan class="cls-30" x="214" y="0">）</tspan></text><text class="cls-28" transform="translate(624.18 394.42)">2型糖尿病<tspan class="cls-30" x="88.96" y="0">、</tspan><tspan class="cls-47" x="98.46" y="0">非</tspan><tspan class="cls-48" x="116.78" y="0">ア</tspan><tspan class="cls-49" x="135.82" y="0">ル</tspan><tspan class="cls-50" x="154.27" y="0">コ</tspan><tspan class="cls-51" x="172.08" y="0">ー</tspan><tspan class="cls-52" x="190.66" y="0">ル</tspan><tspan x="210.52" y="0">性脂肪性肝疾患</tspan></text><text class="cls-53" transform="translate(682.81 617.6)">（<tspan class="cls-43" x="18.28" y="0">イ</tspan><tspan class="cls-39" x="34.46" y="0">ン</tspan><tspan class="cls-54" x="52.07" y="0">ス</tspan><tspan class="cls-55" x="68.73" y="0">リ</tspan><tspan class="cls-21" x="84.82" y="0">ン</tspan><tspan class="cls-14" x="103.26" y="0">分泌</tspan><tspan class="cls-30" x="142.26" y="0">、</tspan><tspan class="cls-14" x="151.76" y="0">糖耐性</tspan><tspan class="cls-30" x="210.26" y="0">）</tspan></text><text class="cls-28" transform="translate(753.2 579.18)">2型糖尿病</text></g></g></svg>