<svg xmlns="http://www.w3.org/2000/svg" viewBox="0 0 451.44 302.44"><defs><style>.cls-1{fill:#d3d3d3;}.cls-2{fill:#f4f4f4;stroke:#999;}.cls-2,.cls-3,.cls-4,.cls-6{stroke-miterlimit:10;}.cls-29,.cls-3,.cls-44,.cls-60{fill:#43a5d9;}.cls-3,.cls-4{stroke:#231f20;}.cls-4{fill:#e9ffff;}.cls-5{fill:#231f20;}.cls-6{fill:#fff;stroke:#b1b1b1;}.cls-28,.cls-29,.cls-44,.cls-50,.cls-52,.cls-60,.cls-7{font-size:14px;font-family:YuGothic-Bold, Yu Gothic;font-weight:700;}.cls-7{letter-spacing:-0.11em;}.cls-8{letter-spacing:-0.1em;}.cls-9{letter-spacing:-0.09em;}.cls-10{letter-spacing:-0.15em;}.cls-11{letter-spacing:-0.21em;}.cls-12{letter-spacing:-0.13em;}.cls-13{letter-spacing:-0.13em;}.cls-14,.cls-29{letter-spacing:-0.08em;}.cls-15{letter-spacing:-0.58em;}.cls-16{letter-spacing:-0.12em;}.cls-17{letter-spacing:-0.17em;}.cls-18{letter-spacing:-0.2em;}.cls-19{letter-spacing:-0.2em;}.cls-20{letter-spacing:-0.2em;}.cls-21{letter-spacing:-0.14em;}.cls-22{letter-spacing:-0.58em;}.cls-23{letter-spacing:-0.16em;}.cls-24{letter-spacing:-0.17em;}.cls-25{letter-spacing:-0.19em;}.cls-26{letter-spacing:-0.28em;}.cls-27{letter-spacing:-0.29em;}.cls-28,.cls-44,.cls-49{letter-spacing:-0.03em;}.cls-30{letter-spacing:-0.58em;}.cls-31{letter-spacing:-0.15em;}.cls-32{letter-spacing:-0.21em;}.cls-33{letter-spacing:-0.65em;}.cls-34{letter-spacing:-0.19em;}.cls-35{letter-spacing:-0.11em;}.cls-36{letter-spacing:-0.7em;}.cls-37{letter-spacing:-0.12em;}.cls-38{letter-spacing:-0.14em;}.cls-39{letter-spacing:-0.18em;}.cls-40{letter-spacing:-0.22em;}.cls-41{letter-spacing:-0.21em;}.cls-42{letter-spacing:-0.21em;}.cls-43{letter-spacing:-0.25em;}.cls-45{letter-spacing:-0.53em;}.cls-46{letter-spacing:-0.52em;}.cls-47{letter-spacing:-0.02em;}.cls-48{letter-spacing:-0.05em;}.cls-50{letter-spacing:-0.03em;}.cls-51{letter-spacing:-0.05em;}.cls-52{letter-spacing:-0.11em;}.cls-53{letter-spacing:-0.6em;}.cls-54{letter-spacing:-0.16em;}.cls-55{letter-spacing:-0.13em;}.cls-56{letter-spacing:-0.16em;}.cls-57{letter-spacing:-0.19em;}.cls-58{letter-spacing:-0.15em;}.cls-59{letter-spacing:-0.1em;}.cls-60{letter-spacing:-0.09em;}.cls-61{letter-spacing:-0.19em;}.cls-62{letter-spacing:-0.12em;}.cls-63{letter-spacing:-0.17em;}.cls-64{letter-spacing:-0.2em;}.cls-65{letter-spacing:-0.08em;}</style></defs><title>body-parts-highlight_450</title><g id="Layer_2" data-name="Layer 2"><g id="Layer_3" data-name="Layer 3"><path class="cls-1" d="M186.64,289.94a1.65,1.65,0,0,1-1.65-1.65v-97.4c0-4.5,1-7.69,3.06-9.49a6.49,6.49,0,0,1,5.26-1.5,4.38,4.38,0,0,1,3.14,1.84c2,2.85,1,8,.89,8.59a1.65,1.65,0,0,1-3.23-.7c.29-1.38.59-4.66-.34-6a1.12,1.12,0,0,0-.85-.49,3.26,3.26,0,0,0-2.68.7c-1.25,1.11-2,3.61-2,7v97.4A1.65,1.65,0,0,1,186.64,289.94Z"/><path class="cls-2" d="M191.08,180.76c3.14.66,1,3.59,1,3.59a3.25,3.25,0,0,0,4.08,0c2-1.69,1.76-4.29,1.06-6.12s.16-4.86.5-8.45c0,0,6.11-5.35,11.25-9.07s8.38-7.46,9.71-10.74a25.37,25.37,0,0,0,1.62-6.65s2.25,10.21,1,16.82-4.23,12.81,1,18.51c0,0-10.34,31.32-11.26,36.66a22.71,22.71,0,0,0,1.62,13.87,102.81,102.81,0,0,0-.28,18.08c.7,10.49,2.46,19.85,2.39,23.44s-2.32,5.77-4.78,7.81-6.62,5.42-8.73,6.19-3,3.31-1.05,5.77a4.38,4.38,0,0,0,4.92,1.27s-.7,1.83,1,2.32,3.09,0,5.27-2.25,6.2-6.76,7.82-7.81a43.26,43.26,0,0,0,5.13-3.73,4.76,4.76,0,0,0,1-5.35c-.71-1.76-2.54-2.46-2.25-6.12s2.85-16.68,2.65-24.49-.82-20.41-1-20.62,10.55-21.18,12.94-29.7c.21,17.45,1.13,26.32,1.2,29.84S242.73,238.18,243,239s1.41,12.17,3.17,20.06-.78-3,.49,2.46.85,11.33,1.06,13.65a5.71,5.71,0,0,1-1.76,5.35,46.81,46.81,0,0,0-4.93,6.9c-1,1.75-1.9,3.72.28,4a3.16,3.16,0,0,0,3.1-1.13s-.14,2.6,3.38,1.83,4.57-.35,6.4-2.81,2.75-4.86,4.29-6.48,2.68-1.76,2.54-4.15a17.51,17.51,0,0,0-2.4-7.39c-1.33-2.32-2.53-5.7-2.95-13.79s-.7-20.62-1.83-27.24a35.25,35.25,0,0,1,2.46-18.36,126,126,0,0,0,7.39-19.5c2.61-8.93-.42-23-3.24-33.07s-12-33.36-11.68-33.15a80.39,80.39,0,0,0,16.47-.21c-6,6.33-9.18,20.1-9.18,20.1L259,154.5s3.23-8.85,5.13-11.53,3.38-5.91,6.41-11.68,5.77-7.74,4.36-9.92-2.32-3.87-6-3.52-7.32-.56-10.77-.92-5.84-.28-7.95-2.18a11.2,11.2,0,0,0-9-2.39c-3.38.56-7.18,2.39-9.36.42a18.53,18.53,0,0,1-3.13-3.5l-9.32,4.87v3.77a15,15,0,0,1-4.08,1.9c-2.68.84-3.95,1.83-4.23,5.7s-1.83,9.15-1.05,22.59c-13.51,7-23,25.54-24,29.13s-1.13,4.44.42,7.11C186.43,184.35,187.5,180,191.08,180.76Z"/><path class="cls-2" d="M210,111.87c1.8,3,6.28,3.67,10.57,2.71s9.34-5,11.17-11c2.25,1.76,4.86-1.9,5.56-4.57s-.35-5.63-3.73-3.66c.85-5.28-3.09-12-11.68-12.53s-17.17,2.89-17,14.29S208.67,109.62,210,111.87Z"/><path class="cls-3" d="M226.26,101.66s-.28-2.75,0-2.78,1.27.53,1.69-1.58.64-3.87.64-3.87.7-.42.35-2.18-1.17-3.38-2.8-3.73L223.45,87s.21-2.19-2.68-1.83-3.65,1.61-3.65,1.61-2.89-.91-4.86.43a5.85,5.85,0,0,0-2.39,3.3A16.15,16.15,0,0,0,207.26,94a2.9,2.9,0,0,0,.28,3.17s-1.61,1.34.64,2.81,5.63-.77,5.63-.77-.71,1.48,2.18,1.41,3.1-1.73,3.1-1.73-.22.18,2.14.74,3.06-.74,3.06-.74A6.18,6.18,0,0,0,226.26,101.66Z"/><path class="cls-3" d="M228.59,121.51,225.84,115,223,116.58l2.39,6.12a2.87,2.87,0,0,0-4.12-1.9c-3.34,1.27-3.48,5.42-2.43,13.16s2.12,11.4,4.09,11.33,1.33-2.53,3.8-4,2.87-.7,3.58-2.11a7.86,7.86,0,0,0,.71-3.1,10.23,10.23,0,0,0,4.57-.21c1.9-.7,2.32-1.47,2.32-1.47s3.38.49,5.56.91,3,1.55,4.37-.14,1.26-1.55-1.83-7.11a26.68,26.68,0,0,0-10.77-10.83C231.75,115.46,228.24,117,228.59,121.51Z"/><path class="cls-3" d="M229.64,124.11l-.6,2.11s-.88,0-2.35,1.69-2,3.17,0,5.49,3.16,2.58,6.26,2.84,5-.31,3.66-3.05-1.69-4.29-5.84-5.91l.7-3.17Z"/><path class="cls-3" d="M232.88,172.67c1.26.46,2.6-1.27,2.46-3.31s-.68-4.15,1.7-6.4,6.11-4.51,6.39-11.05a12.15,12.15,0,0,0,3.24-4.93s.28.15,2.61-1.69,2.25-6.61-1.55-4.43a89.16,89.16,0,0,1-8.52,4.15s-2.39-.49-6.82,1.55-7.11,5.56-6.55,9.78,2.25,6.27,4,8.94S231.33,172.11,232.88,172.67Z"/><path class="cls-3" d="M239.21,145a20.29,20.29,0,0,1,4.1,8.31"/><path class="cls-3" d="M236.05,167.88a3.83,3.83,0,0,0,3,.21c1.27-.49,1.62-1.4,1.9-3.58s3.17-4.23,7-7,9.08-9.22,3.87-7.25-11.45,3-14.84,5.14S236.05,167.88,236.05,167.88Z"/><path class="cls-4" d="M230.77,183c1.87.22,1,2.4,2.67,2.33s2-2.26,3.31-1.69,1,2.25.29,3.16-3.83.28-5.83,3.59a93,93,0,0,0-5.82,11.84c-2.22,5.19-2.93,7.73-3.14,9.27s.07,4.37,0,5.77-.42,1.27-2,1.13-.88-2.25-2-2.32-1.46.91-2.93.21-1-1.41.63-2.82,2.46-1.33,4.64-7,7.18-15.13,7.46-18.3S228.94,182.8,230.77,183Z"/><polygon class="cls-5" points="343.78 50.41 238.91 82.55 238.79 80.03 234.69 84.43 240.55 85.78 239.24 83.62 344.11 51.48 343.78 50.41"/><polygon class="cls-5" points="185.04 30.6 213.94 83.01 215.78 81.28 215.66 87.3 210.51 84.19 212.95 83.55 184.06 31.14 185.04 30.6"/><polygon class="cls-5" points="167.14 102.65 221.95 126.68 222.36 124.19 225.93 129.04 219.94 129.71 221.5 127.71 166.69 103.68 167.14 102.65"/><polygon class="cls-5" points="162.39 185.06 221.26 195.84 221.09 193.32 225.67 197.22 220 199.24 221.06 196.94 162.19 186.16 162.39 185.06"/><polygon class="cls-5" points="298.2 102.21 241.78 122.17 241.55 119.65 237.64 124.23 243.56 125.33 242.16 123.22 298.58 103.26 298.2 102.21"/><polygon class="cls-5" points="304.05 169.8 249.09 146.12 250.63 144.12 244.65 144.82 248.25 149.65 248.64 147.15 303.61 170.83 304.05 169.8"/><polygon class="cls-5" points="286.04 240.8 250.35 161.18 252.84 160.73 247.94 157.22 247.35 163.22 249.33 161.64 285.02 241.26 286.04 240.8"/><rect class="cls-6" x="343.39" y="0.5" width="104.99" height="59.47" rx="9.62"/><rect class="cls-6" x="282.8" y="75.54" width="168.14" height="64.77" rx="10.04"/><rect class="cls-6" x="282.8" y="153.32" width="168.14" height="73.52" rx="9.01"/><rect class="cls-6" x="0.5" y="74.27" width="170.84" height="59" rx="9.62"/><rect class="cls-6" x="0.5" y="147.56" width="170.84" height="59" rx="9.62"/><rect class="cls-6" x="0.5" y="222.49" width="170.84" height="78.17" rx="9.62"/><rect class="cls-6" x="282.8" y="242.42" width="168.14" height="59.52" rx="9.62"/><rect class="cls-6" x="0.89" y="0.5" width="301.34" height="59.47" rx="11.7"/><text class="cls-7" transform="translate(11.37 25.35)">ア<tspan class="cls-8" x="12.49" y="0">ル</tspan><tspan class="cls-9" x="25.06" y="0">ツ</tspan><tspan class="cls-10" x="37.84" y="0">ハ</tspan><tspan class="cls-11" x="49.67" y="0">イ</tspan><tspan class="cls-12" x="60.73" y="0">マ</tspan><tspan class="cls-13" x="72.91" y="0">ー</tspan><tspan class="cls-14" x="85.14" y="0">病</tspan><tspan class="cls-15" x="97.95" y="0">、</tspan><tspan class="cls-16" x="103.83" y="0">パ</tspan><tspan class="cls-17" x="116.2" y="0">ー</tspan><tspan class="cls-18" x="127.76" y="0">キ</tspan><tspan class="cls-19" x="138.91" y="0">ン</tspan><tspan class="cls-20" x="150.06" y="0">ソ</tspan><tspan class="cls-21" x="161.31" y="0">ン</tspan><tspan class="cls-14" x="173.37" y="0">病</tspan><tspan class="cls-22" x="186.18" y="0">、</tspan><tspan class="cls-23" x="192.03" y="0">ハ</tspan><tspan class="cls-24" x="203.77" y="0">ン</tspan><tspan class="cls-25" x="215.38" y="0">チ</tspan><tspan class="cls-26" x="226.76" y="0">ン</tspan><tspan class="cls-27" x="236.81" y="0">ト</tspan><tspan class="cls-21" x="246.81" y="0">ン</tspan><tspan class="cls-14" x="258.87" y="0">病</tspan></text><text class="cls-28" transform="translate(357.75 25.92)">加齢性難聴</text><text class="cls-29" transform="translate(7.58 43.09)">（炎症<tspan class="cls-30" x="38.43" y="0">、</tspan><tspan class="cls-31" x="44.24" y="0">A</tspan><tspan class="cls-32" x="51.76" y="0">β</tspan><tspan x="62.85" y="0">蓄積</tspan><tspan class="cls-33" x="88.47" y="0">、</tspan><tspan class="cls-34" x="93.31" y="0">タ</tspan><tspan class="cls-35" x="104.67" y="0">ウ</tspan><tspan x="117.13" y="0">凝集</tspan><tspan class="cls-36" x="142.75" y="0">、</tspan><tspan class="cls-20" x="146.91" y="0">α</tspan><tspan class="cls-37" x="158.15" y="0">-</tspan><tspan class="cls-38" x="162.52" y="0">シ</tspan><tspan class="cls-39" x="174.55" y="0">ヌ</tspan><tspan class="cls-40" x="186.04" y="0">レ</tspan><tspan class="cls-41" x="196.96" y="0">ク</tspan><tspan class="cls-42" x="207.99" y="0">レ</tspan><tspan class="cls-43" x="219.09" y="0">イ</tspan><tspan class="cls-21" x="229.58" y="0">ン</tspan><tspan x="241.64" y="0">凝集</tspan><tspan class="cls-30" x="267.26" y="0">）</tspan></text><text class="cls-44" transform="translate(4.19 117.17)">（動脈硬化<tspan class="cls-45" x="68.25" y="0">、</tspan><tspan x="74.9" y="0">心肥大</tspan><tspan class="cls-45" x="115.85" y="0">、</tspan><tspan x="122.5" y="0">炎症</tspan><tspan class="cls-46" x="149.8" y="0">）</tspan></text><text class="cls-44" transform="translate(357.75 43.67)">（細胞死<tspan class="cls-45" x="54.6" y="0">）</tspan></text><text class="cls-28" transform="translate(65.4 99.96)">心不全</text><text class="cls-44" transform="translate(31.32 183)">（骨芽細胞/破骨<tspan x="7" y="16.8">細胞分化</tspan><tspan class="cls-45" x="61.6" y="16.8">、</tspan><tspan x="68.25" y="16.8">炎症</tspan><tspan class="cls-46" x="95.55" y="16.8">）</tspan></text><text class="cls-28" transform="translate(58.62 164.67)">骨粗鬆症</text><text class="cls-44" transform="translate(7.81 269.13)">（DNA修復<tspan class="cls-45" x="71.24" y="0">、</tspan><tspan class="cls-47" x="77.89" y="0">p53</tspan><tspan class="cls-45" x="101.47" y="0">、</tspan><tspan x="108.12" y="0">ELK4</tspan><tspan class="cls-45" x="142.58" y="0">、</tspan><tspan class="cls-48"><tspan x="33.93" y="16.8">W</tspan><tspan class="cls-49" x="45.96" y="16.8">arburg効果</tspan><tspan class="cls-45" x="115.65" y="16.8">）</tspan></tspan></text><text class="cls-50" transform="translate(72.47 242.42)">が<tspan class="cls-51" x="13.53" y="0">ん</tspan></text><text class="cls-44" transform="translate(339.57 132.45)">（炎症<tspan class="cls-45" x="40.95" y="0">）</tspan></text><text class="cls-28" transform="translate(308.94 93.37)">慢性閉塞性肺疾患<tspan class="cls-45" x="109.2" y="0">、</tspan><tspan x="23.8" y="16.8">間質性肺炎</tspan></text><text class="cls-44" transform="translate(285.14 215.17)">（脂質代謝<tspan class="cls-45" x="68.25" y="0">、</tspan><tspan x="74.9" y="0">糖代謝</tspan><tspan class="cls-45" x="115.85" y="0">、</tspan><tspan x="122.5" y="0">炎症</tspan><tspan class="cls-46" x="149.8" y="0">）</tspan></text><text class="cls-52" transform="translate(293.19 180.83)">2型糖尿病<tspan class="cls-53" x="56.68" y="0">、</tspan><tspan class="cls-54" x="62.21" y="0">非</tspan><tspan class="cls-55" x="73.91" y="0">ア</tspan><tspan class="cls-56" x="86.12" y="0">ル</tspan><tspan class="cls-57" x="97.91" y="0">コ</tspan><tspan class="cls-58" x="109.26" y="0">ー</tspan><tspan class="cls-9" x="121.14" y="0">ル</tspan><tspan class="cls-59" x="133.93" y="0">性</tspan><tspan x="35.64" y="16.8">脂肪性肝疾患</tspan></text><text class="cls-60" transform="translate(286.45 287.77)">（<tspan class="cls-61" x="12.8" y="0">イ</tspan><tspan class="cls-62" x="24.12" y="0">ン</tspan><tspan class="cls-63" x="36.45" y="0">ス</tspan><tspan class="cls-64" x="48.11" y="0">リ</tspan><tspan class="cls-65" x="59.38" y="0">ン</tspan><tspan class="cls-49" x="72.28" y="0">分泌</tspan><tspan class="cls-45" x="99.58" y="0">、</tspan><tspan class="cls-49" x="106.23" y="0">糖耐性</tspan><tspan class="cls-46" x="147.18" y="0">）</tspan></text><text class="cls-28" transform="translate(335.73 266.13)">2型糖尿病</text></g></g></svg>