<svg xmlns="http://www.w3.org/2000/svg" viewBox="0 0 16.03 18.99"><defs><style>.cls-1{fill:#43a5d9;}</style></defs><title>Asset 66</title><g id="Layer_2" data-name="Layer 2"><g id="Layer_2-2" data-name="Layer 2"><path class="cls-1" d="M13.69.69A3.3,3.3,0,0,1,16,4v9.52A3.53,3.53,0,0,1,15,16a3.33,3.33,0,0,1-2.48,1l1.5,1.5V19H12l-2-2H6.23l-2,2H2v-.51L3.52,17A3.35,3.35,0,0,1,1,16a3.53,3.53,0,0,1-1-2.46V4A3.39,3.39,0,0,1,2.51.69,16.13,16.13,0,0,1,8,0,16.24,16.24,0,0,1,13.69.69ZM4.59,14.54a1.51,1.51,0,0,0,0-2.11A1.45,1.45,0,0,0,3.52,12a1.46,1.46,0,0,0-1.08.42,1.54,1.54,0,0,0,0,2.11A1.63,1.63,0,0,0,3.52,15,1.63,1.63,0,0,0,4.59,14.54ZM7,4H2V8H7Zm7,4V4H9V8Zm-.43,6.56a1.51,1.51,0,0,0,0-2.11,1.59,1.59,0,0,0-2.15,0,1.54,1.54,0,0,0,0,2.11,1.63,1.63,0,0,0,1.08.47A1.63,1.63,0,0,0,13.59,14.54Z"/></g></g></svg>