<svg xmlns="http://www.w3.org/2000/svg" viewBox="0 0 18 18"><defs><style>.cls-1{fill:#43a5d9;}</style></defs><title>Asset 65</title><g id="Layer_2" data-name="Layer 2"><g id="Layer_2-2" data-name="Layer 2"><path class="cls-1" d="M16,8l-1.5-4.5h-11L2,8Zm-.42,4.54A1.42,1.42,0,0,0,16,11.51a1.45,1.45,0,0,0-.42-1.06A1.42,1.42,0,0,0,14.51,10,1.44,1.44,0,0,0,13,11.51,1.43,1.43,0,0,0,14.48,13,1.46,1.46,0,0,0,15.56,12.56Zm-11,0A1.42,1.42,0,0,0,5,11.51,1.44,1.44,0,0,0,3.49,10a1.42,1.42,0,0,0-1.05.42A1.45,1.45,0,0,0,2,11.51a1.42,1.42,0,0,0,.42,1.05A1.46,1.46,0,0,0,3.52,13,1.41,1.41,0,0,0,4.55,12.56ZM18,9v8a1,1,0,0,1-1,1H16a1,1,0,0,1-1-1V16H3v1a1,1,0,0,1-1,1H1a1,1,0,0,1-1-1V9L2.06,3a1.69,1.69,0,0,1,.57-.7A1.39,1.39,0,0,1,3.52,2H6V0h6V2h2.48a1.41,1.41,0,0,1,.89.28,1.77,1.77,0,0,1,.57.7Z"/></g></g></svg>