<svg xmlns="http://www.w3.org/2000/svg" viewBox="0 0 19.91 19.97"><defs><style>.cls-1{fill:#43a5d9;}</style></defs><title>Asset 63</title><g id="Layer_2" data-name="Layer 2"><g id="Layer_2-2" data-name="Layer 2"><path class="cls-1" d="M17,2.88A10.07,10.07,0,0,1,19.87,9a10,10,0,0,1-9,10.92v-2a7.82,7.82,0,0,0,4.69-2.28A8.2,8.2,0,0,0,17.91,11a8,8,0,0,0-7-9V0A9.92,9.92,0,0,1,17,2.88ZM9,2.06A7.91,7.91,0,0,0,5,3.7L3.61,2.25A9.61,9.61,0,0,1,9,.05Zm-5.34,3A8.47,8.47,0,0,0,2,9H0A9.68,9.68,0,0,1,2.2,3.66ZM2,11a8,8,0,0,0,1.59,3.94L2.2,16.31A10.14,10.14,0,0,1,0,11ZM9,18v2a10,10,0,0,1-5.34-2.25L5,16.36A8.49,8.49,0,0,0,9,18ZM9,5v6l5.25,3.19L15,12.89l-4.5-2.67V5Z"/></g></g></svg>