<svg xmlns="http://www.w3.org/2000/svg" viewBox="0 0 80 80"><defs><style>.cls-1{fill:#43a5d9;fill-rule:evenodd;}.cls-2{fill:#fff;}</style></defs><title>Asset 81</title><g id="Layer_2" data-name="Layer 2"><g id="Layer_3" data-name="Layer 3"><path class="cls-1" d="M0,0H80V80H0Z"/><path class="cls-2" d="M63.8,22.5a17,17,0,0,0-22.12-5.07s-17,11.9-24,17S10.8,50,16.65,57.92s19.14,10.54,35.67-1.27S70.89,31.91,63.8,22.5ZM60,36.31c-2.64,5-3.37,5.43-4.4,6.29s-2.62,1.18-4-.79-6.64-9.46-7.12-10.2-1.17-.94-2.35-.09-.4,1.77.22,2.78S49,43.56,49.66,44.72a2.89,2.89,0,0,1-.52,3.87c-1.35,1.07-6.16,4.16-7.42,4.93a3.16,3.16,0,0,1-4.35-1.1c-1.19-1.77-5.65-8-6.29-9s-1.1-.9-2.11-.13-.9,1.2.11,2.82,4.42,6.2,5,7.14,1,2.8-1.5,3.59S24.77,58,21.27,56.52s-4.77-6-4.33-8.54,2-2.6,2.83-1.25,2.05,2.89,2.58,3.66a1.37,1.37,0,0,0,2.31.19c1-.89.72-1.4,0-2.47s-3.41-4.73-3.94-5.65a3.88,3.88,0,0,1,.09-3.76c.77-1.14,4.73-5.41,5.5-6.17a2.45,2.45,0,0,1,3.74.46c1.16,1.62,7.1,10.2,7.69,10.94s1.26,1,2.31.07.42-1.93-.17-2.76-6.78-9.78-7.7-10.9a1.72,1.72,0,0,1,.42-2.8c1-.59,8.86-4.69,10.18-5.08a3.64,3.64,0,0,1,4,1.4c1,1.42,5.39,7.66,6.05,8.47s1.41.64,2.18,0A1.51,1.51,0,0,0,55.21,30l-4.86-6.89c-.66-1.07-.29-2.54,1.64-2.5s6.47.57,8.56,3.66S62.62,31.28,60,36.31Z"/></g></g></svg>