<svg xmlns="http://www.w3.org/2000/svg" viewBox="0 0 80 80"><defs><style>.cls-1{fill:#43a5d9;fill-rule:evenodd;}.cls-2{fill:#fff;}</style></defs><title>Asset 82</title><g id="Layer_2" data-name="Layer 2"><g id="Layer_3" data-name="Layer 3"><path class="cls-1" d="M0,0H80V80H0Z"/><path class="cls-2" d="M45.42,23.46a1.09,1.09,0,1,0-1.09-1.09A1.09,1.09,0,0,0,45.42,23.46ZM34.58,21.29a1.09,1.09,0,1,0,1.09,1.08A1.09,1.09,0,0,0,34.58,21.29ZM63.52,44.64A8.65,8.65,0,0,0,64.91,40a7.51,7.51,0,0,0-2.74-5.81,7.4,7.4,0,0,0,.58-2.84,8.06,8.06,0,0,0-4.38-7.13,6.48,6.48,0,0,0-4.93-7.07,7.82,7.82,0,0,0-6.94-4.83A7.61,7.61,0,0,0,40,16.21a7.61,7.61,0,0,0-6.5-3.89,7.82,7.82,0,0,0-6.94,4.83,6.48,6.48,0,0,0-4.93,7.07,8.06,8.06,0,0,0-4.38,7.13,7.4,7.4,0,0,0,.58,2.84A7.51,7.51,0,0,0,15.09,40a8.71,8.71,0,0,0,1.39,4.64,7.47,7.47,0,0,0,.87,9.69,7.86,7.86,0,0,0,7.49,9h.09A8.55,8.55,0,0,0,40,63a8.55,8.55,0,0,0,15.07.38h.09a7.86,7.86,0,0,0,7.59-7.9,6.4,6.4,0,0,0-.1-1.13,7.47,7.47,0,0,0,.87-9.69ZM38.92,28.69a4.33,4.33,0,0,0-2.17-.59,1.09,1.09,0,0,0,0,2.17,2.17,2.17,0,0,1,2.17,2.16V53a8.67,8.67,0,0,0-6.5-2.94,1.08,1.08,0,1,0,0,2.16,6.5,6.5,0,0,1,6.5,6.49,6.75,6.75,0,0,1-6.5,6.81,6.51,6.51,0,0,1-5.88-3.77,1.1,1.1,0,0,0-1.11-.62l-.23,0c-3.08.42-6.55-3.07-5.61-7a1.12,1.12,0,0,0-.36-1.09,5.37,5.37,0,0,1-2-4.14,5.28,5.28,0,0,1,.8-2.78,7.27,7.27,0,0,0,4.62,1.7,1.08,1.08,0,0,0,0-2.16A5.69,5.69,0,0,1,17.25,40a5.39,5.39,0,0,1,2.53-4.56A1.08,1.08,0,0,0,20.15,34a5.25,5.25,0,0,1-.73-2.65,5.71,5.71,0,0,1,5.42-5.73,5.73,5.73,0,0,1,5.41,5.73,1.09,1.09,0,0,0,2.17,0,7.84,7.84,0,0,0-7.58-7.89,6.58,6.58,0,0,0-1.09.08v-.08a4.33,4.33,0,0,1,7.4-3.06,1.08,1.08,0,0,0,1.53-1.53A6.47,6.47,0,0,0,29.09,17a5.47,5.47,0,0,1,4.41-2.56,5.73,5.73,0,0,1,5.42,5.73Zm18.41,19.2A7.27,7.27,0,0,0,62,46.19a5.28,5.28,0,0,1,.8,2.78,5.37,5.37,0,0,1-2,4.14,1.12,1.12,0,0,0-.36,1.09,5,5,0,0,1,.17,1.26c0,3.36-3,6.07-5.78,5.7l-.23,0a1.1,1.1,0,0,0-1.11.62,6.51,6.51,0,0,1-5.88,3.77,6.75,6.75,0,0,1-6.5-6.81,6.5,6.5,0,0,1,6.5-6.49,1.08,1.08,0,1,0,0-2.16A8.67,8.67,0,0,0,41.08,53V32.43a2.17,2.17,0,0,1,2.17-2.16,1.09,1.09,0,0,0,0-2.17,4.33,4.33,0,0,0-2.17.59V20.21a5.73,5.73,0,0,1,5.42-5.73A5.47,5.47,0,0,1,50.91,17a6.47,6.47,0,0,0-3.59,1.83,1.08,1.08,0,0,0,1.53,1.53,4.33,4.33,0,0,1,7.4,3.06v.08a6.58,6.58,0,0,0-1.09-.08,7.84,7.84,0,0,0-7.58,7.89,1.09,1.09,0,0,0,2.17,0,5.73,5.73,0,0,1,5.41-5.73,5.71,5.71,0,0,1,5.42,5.73A5.34,5.34,0,0,1,59.86,34a1.06,1.06,0,0,0,.36,1.44A5.39,5.39,0,0,1,62.75,40a5.69,5.69,0,0,1-5.42,5.73,1.08,1.08,0,0,0,0,2.16ZM25.92,31.35a1.09,1.09,0,0,0-2.17,0,7.6,7.6,0,0,0,6.35,7.47A3.26,3.26,0,0,1,27,41.08a1.08,1.08,0,1,0,0,2.16,5.42,5.42,0,0,0,5.32-4.39A7.55,7.55,0,0,0,36.39,37,1.08,1.08,0,0,0,35,35.38,5.43,5.43,0,0,1,25.92,31.35Zm-1.08,23a1.08,1.08,0,1,0,0,2.16,5.73,5.73,0,0,1,5.41,5.74,1.09,1.09,0,0,0,2.17,0A7.85,7.85,0,0,0,24.84,54.38Zm8.66-8.65A9.73,9.73,0,0,0,25,50.66a1.08,1.08,0,1,0,1.88,1.07,7.58,7.58,0,0,1,6.6-3.84,1.08,1.08,0,0,0,0-2.16ZM55.16,30.27a1.08,1.08,0,0,0-1.08,1.08,5.41,5.41,0,0,1-9,4A1.08,1.08,0,1,0,43.61,37a7.55,7.55,0,0,0,4.07,1.86A5.42,5.42,0,0,0,53,43.24a1.08,1.08,0,1,0,0-2.16,3.26,3.26,0,0,1-3.1-2.26,7.6,7.6,0,0,0,6.35-7.47A1.08,1.08,0,0,0,55.16,30.27Zm0,24.11a7.85,7.85,0,0,0-7.58,7.9,1.09,1.09,0,0,0,2.17,0,5.73,5.73,0,0,1,5.41-5.74,1.08,1.08,0,1,0,0-2.16ZM53.1,51.73A1.08,1.08,0,1,0,55,50.66a9.73,9.73,0,0,0-8.48-4.93,1.08,1.08,0,0,0,0,2.16A7.58,7.58,0,0,1,53.1,51.73Z"/></g></g></svg>