<svg xmlns="http://www.w3.org/2000/svg" viewBox="0 0 80 80"><defs><style>.cls-1{fill:#43a5d9;fill-rule:evenodd;}.cls-2{fill:#fff;}</style></defs><title>Asset 80</title><g id="Layer_2" data-name="Layer 2"><g id="Layer_3" data-name="Layer 3"><path class="cls-1" d="M0,0H80V80H0Z"/><path class="cls-2" d="M66.05,44.65a3.21,3.21,0,0,0-5.51.6l-2.3,5.33a4.69,4.69,0,0,0-3.69-.73,27.55,27.55,0,0,0,1.09-3.21c1.84-.37,6.3-2,6.3-9,0-2.36-.41-5.27-2.78-5.59a25,25,0,0,0,3.76-17.38L62.55,13a.94.94,0,0,0-.91-.72H18.36a.92.92,0,0,0-.9.72l-.39,1.75A24.87,24.87,0,0,0,20.84,32.1c-2.34.35-2.75,3.25-2.75,5.6,0,7,4.47,8.58,6.31,8.95a26.57,26.57,0,0,0,1.1,3.22,4.71,4.71,0,0,0-3.74.71l-2.3-5.33a3.2,3.2,0,0,0-5.86,2.57c4.23,9.25,4.44,10.25,6.31,12.12l7.52,7.47a.93.93,0,0,0,.65.27H38.14a.92.92,0,0,0,.93-.92,22.86,22.86,0,0,0-.31-5.6,12.74,12.74,0,0,0,2.47,0c-.4,1.69-.3,2.73-.3,5.6a.92.92,0,0,0,.92.92H51.92a.93.93,0,0,0,.65-.27l7.52-7.47c1.87-1.87,2-2.75,6.31-12.12A3.17,3.17,0,0,0,66.05,44.65Zm-6-7c0,4.65-2.27,6.31-4,6.91a53,53,0,0,0,.93-10c.86-.61,1.62-.86,2-.66C59.34,34.08,60.09,34.68,60.09,37.69Zm.8-23.53a22.79,22.79,0,0,1-3.8,17.7C57,25,55.17,20.24,51.49,17.44a.93.93,0,0,0-1.13,1.47c2.69,2,4.22,5.38,4.7,10.1-3.72-5.62-9.46-11.6-15.46-14.85ZM20,37.69c0-3,.74-3.61,1-3.72.41-.2,1.19.06,2,.66a53,53,0,0,0,.94,10C22.21,44,20,42.34,20,37.69Zm3.1-5.63a22.7,22.7,0,0,1-3.94-17.9H31.76a24.16,24.16,0,0,0-5.47,5,.92.92,0,0,0,.14,1.3.94.94,0,0,0,1.31-.14,22.31,22.31,0,0,1,7.65-6,28.46,28.46,0,0,1,2.76,1.25C30.36,20.47,25.39,27.92,23.05,32.06ZM37.21,65.83H28.46l-7.23-7.2c-1.52-1.5-1.52-1.9-5.94-11.57A1.34,1.34,0,0,1,17.75,46c3.76,8.72,2.3,6.59,9.67,13.93a.93.93,0,0,0,.91.25A.92.92,0,0,0,29,59.5a.94.94,0,0,0-.25-.9c-5.09-5.05-5.33-5.19-6.1-6.37a2.82,2.82,0,0,1,3.58,0,22.2,22.2,0,0,0,6.6,4.16c2.17.71,4.39,3.51,4.39,7.43Zm.89-6.62a8.29,8.29,0,0,0-4.7-4.59,18.29,18.29,0,0,1-5-3C25.21,46,24.8,39.21,24.79,32.76c2-3.45,7.12-11.39,15.21-16.24,8.1,4.88,13.27,12.84,15.24,16.3,0,6.55-.41,13-3.56,18.72a18.22,18.22,0,0,1-5.09,3.08,8.33,8.33,0,0,0-4.7,4.6A12.35,12.35,0,0,1,38.1,59.21ZM64.71,47.06c-4.36,9.53-4.39,10-5.93,11.57l-7.25,7.2H42.78v-2a8.84,8.84,0,0,1,1.85-5.55c2.17-2.71,2.87-.78,9.14-6a2.85,2.85,0,0,1,3.59,0c-.77,1.18-1,1.31-6.1,6.38a.91.91,0,0,0,0,1.29.93.93,0,0,0,1.3,0c7.3-7.25,5.91-5.2,9.67-13.92a1.35,1.35,0,0,1,1.09-.79,1.31,1.31,0,0,1,1.23.54A1.35,1.35,0,0,1,64.71,47.06ZM28.35,32.32a.94.94,0,0,0,.93,0,4.1,4.1,0,0,1,3.11-.22l3.6,1.2a.93.93,0,1,0,.59-1.76L33,30.4a5.94,5.94,0,0,0-4.53.32.92.92,0,0,0-.1,1.6Zm15.36,1.07c.22,0,0,0,3.9-1.24a4.1,4.1,0,0,1,3.11.22.94.94,0,0,0,.93,0,.92.92,0,0,0-.1-1.6A5.94,5.94,0,0,0,47,30.4l-3.6,1.19a.92.92,0,0,0,.29,1.8Zm-7.47,3.55a.92.92,0,0,0-1.18-.58,6.78,6.78,0,0,1-5.64-.79.94.94,0,0,0-1.21.08,2.24,2.24,0,0,1-1.2.66.92.92,0,1,0,0,1.84,3.41,3.41,0,0,0,1.91-.7,4.36,4.36,0,0,0,.42.23,1.54,1.54,0,0,1-.48.47.93.93,0,0,0-.92.93c0,1.13,1.71,1.56,3.22-.76a9.16,9.16,0,0,0,4.5-.22A.92.92,0,0,0,36.24,36.94Zm14.34-1.37a6.78,6.78,0,0,1-5.64.79.92.92,0,0,0-1.18.57.91.91,0,0,0,.58,1.17,9.15,9.15,0,0,0,4.5.22c.47.73,1.28,1.68,2.29,1.68a.94.94,0,0,0,.95-.92.9.9,0,0,0-.26-.66.91.91,0,0,0-.65-.27,1.46,1.46,0,0,1-.51-.48,4.23,4.23,0,0,0,.42-.22,3.48,3.48,0,0,0,1.91.7.92.92,0,1,0,0-1.84,2.29,2.29,0,0,1-1.2-.65A.92.92,0,0,0,50.58,35.57ZM36.7,44.46a6,6,0,0,0,6.6,0,.93.93,0,0,0-1-1.54,4.08,4.08,0,0,1-4.54,0,.93.93,0,0,0-1.29.26A.92.92,0,0,0,36.7,44.46ZM45.57,50a1.14,1.14,0,0,0-.37-.81,1.08,1.08,0,0,0-.84-.29c-.77,0-3-1.48-4.36-1.48s-3.58,1.48-4.36,1.48a1.08,1.08,0,0,0-.84.29,1.1,1.1,0,0,0-.37.81c0,1.31,2.62,3,5.57,3S45.57,51.26,45.57,50Zm-8.47.4A16.76,16.76,0,0,1,40,49.23a17.6,17.6,0,0,1,2.9,1.13A6.26,6.26,0,0,1,37.1,50.36Zm3.83,4.4H39.07a.93.93,0,1,0,0,1.85h1.86a.93.93,0,0,0,0-1.85ZM24.22,21.55a.92.92,0,1,0,.93.92A.92.92,0,0,0,24.22,21.55Z"/></g></g></svg>