<svg xmlns="http://www.w3.org/2000/svg" viewBox="0 0 80 80"><defs><style>.cls-1{fill:#43a5d9;fill-rule:evenodd;}.cls-2{fill:#fff;}</style></defs><title>Asset 79</title><g id="Layer_2" data-name="Layer 2"><g id="Layer_3" data-name="Layer 3"><path class="cls-1" d="M0,0H80V80H0Z"/><path class="cls-2" d="M47.76,23.4A7.24,7.24,0,0,0,43.21,25a7.21,7.21,0,0,0-11.75,5.55,7.14,7.14,0,0,0,1.86,4.81l9.89,10.89L53.1,35.37a7.16,7.16,0,0,0-5.34-12Zm2.93,9.8-7.48,8.23L35.73,33.2a3.94,3.94,0,1,1,6.15-4.91l1.33,1.85,1.33-1.85a3.94,3.94,0,1,1,6.15,4.91Zm7.69-14.55a22,22,0,0,0-30.84-.06A21.59,21.59,0,0,0,21,33.39L15.51,44.13a3,3,0,0,0,.08,2.93,3.06,3.06,0,0,0,2.53,1.5l2.76.07v7a5.87,5.87,0,0,0,5.88,5.85h5.41v6.16H55V52.26a22,22,0,0,0,6.92-7.34,21.72,21.72,0,0,0-3.56-26.27ZM52.55,50l-.78.48v14H35.42V58.28H26.76a2.62,2.62,0,0,1-2.63-2.61V45.48l-5.59-.15L24.27,34.2v-.37A18.65,18.65,0,1,1,52.55,50Z"/></g></g></svg>