<svg xmlns="http://www.w3.org/2000/svg" viewBox="0 0 80 80"><defs><style>.cls-1{fill:#43a5d9;fill-rule:evenodd;}.cls-2{fill:#fff;}</style></defs><title>Asset 75</title><g id="Layer_2" data-name="Layer 2"><g id="Layer_3" data-name="Layer 3"><path class="cls-1" d="M0,0H80V80H0Z"/><path class="cls-2" d="M64.91,38.15c-1.63,0-2.76.73-2.76,1.77v3.17c-1.46-2.88-3.71-4.94-6.46-4.94H29.85a.93.93,0,0,0-.92.93v5.54a5.54,5.54,0,1,0-9.63,3.71,2.67,2.67,0,0,0-1.45.62V25.6a2.5,2.5,0,0,0-2.76-2.21c-1.56,0-2.77,1-2.77,2.21V65.47c0,1.24,1.21,2.21,2.77,2.21a2.5,2.5,0,0,0,2.76-2.21V59.38h44.3v6.54c0,1,1.13,1.76,2.76,1.76s2.77-.72,2.77-1.76v-26C67.68,38.88,66.54,38.15,64.91,38.15ZM16,65.47a1,1,0,0,1-.92.37,1.05,1.05,0,0,1-.93-.37V25.6a1.05,1.05,0,0,1,.93-.37,1,1,0,0,1,.92.37ZM30.77,40H55.69c3.48,0,6.13,5.18,6.43,10.15H30.77Zm-1.84,4.62v4.45a2.71,2.71,0,0,0-1.46-.73A5.55,5.55,0,0,0,28.93,44.62Zm-5.54-3.7a3.69,3.69,0,1,1-3.69,3.69A3.69,3.69,0,0,1,23.39,40.92ZM62.15,57.53H17.85V52a.92.92,0,0,0,.85-.92.91.91,0,0,1,.89-.92H27a.9.9,0,0,1,.89.92.92.92,0,0,0,.92.92h33.3Zm3.69,8.14a2.68,2.68,0,0,1-1.85,0V40.16a2.8,2.8,0,0,1,1.85,0ZM25.45,33a.92.92,0,0,0,.12,1.3.89.89,0,0,0,.59.21H31.7V32.62H28.13l3.35-4a.92.92,0,0,0,.13-1,.93.93,0,0,0-.84-.53H25.24v1.85H28.8Zm10.13-4.59a.93.93,0,0,0,.16,1.3,1,1,0,0,0,.57.19h7.38V28H38.2l5.3-6.81a1,1,0,0,0,.1-1,.93.93,0,0,0-.83-.52H35.39v1.84h5.49Zm12.73-3.13h9.22V23.39H50.15l7.2-9.6a.93.93,0,0,0-.19-1.29.91.91,0,0,0-.55-.18h-8.3v1.84h6.45l-7.19,9.6a.9.9,0,0,0-.09,1A.92.92,0,0,0,48.31,25.23Z"/></g></g></svg>