<svg xmlns="http://www.w3.org/2000/svg" viewBox="0 0 80 80"><defs><style>.cls-1{fill:#43a5d9;fill-rule:evenodd;}.cls-2{fill:#fff;}</style></defs><title>Asset 74</title><g id="Layer_2" data-name="Layer 2"><g id="Layer_3" data-name="Layer 3"><path class="cls-1" d="M0,0H80V80H0Z"/><path class="cls-2" d="M61.78,22.91h1.71a1.08,1.08,0,0,0,0-2.16H59.38a1.08,1.08,0,0,0-1.08,1.08v4.1a1.08,1.08,0,1,0,2.16,0V24.75A25.52,25.52,0,1,1,40,14.48a24.73,24.73,0,0,1,3.11.19,1.08,1.08,0,1,0,.26-2.15,29,29,0,0,0-3.37-.2A27.67,27.67,0,1,0,61.78,22.91ZM24,28.64a1.08,1.08,0,0,0-1.49.33A20.65,20.65,0,1,0,29,22.53a1.08,1.08,0,1,0,1.15,1.82,18.48,18.48,0,1,1-3.23,28.72,18.61,18.61,0,0,1-2.56-22.94A1.08,1.08,0,0,0,24,28.64Zm30,12.46h1.33a1.08,1.08,0,0,0,0-2.16H54.05a1.08,1.08,0,0,0,0,2.16ZM23.54,40a1.08,1.08,0,0,0,1.08,1.08H26a1.08,1.08,0,1,0,0-2.16H24.62A1.08,1.08,0,0,0,23.54,40ZM41.1,26V24.62a1.08,1.08,0,1,0-2.16,0V26a1.08,1.08,0,1,0,2.16,0Zm-2.2,28.1v1.33a1.08,1.08,0,1,0,2.16,0V54.05a1.08,1.08,0,0,0-2.16,0Zm-4.32-21a1.08,1.08,0,1,0-1.53,1.52l3.67,3.67a3.72,3.72,0,1,0,6.56,0l7.39-7.39a1.08,1.08,0,0,0-1.53-1.53l-7.39,7.39a3.7,3.7,0,0,0-3.5,0ZM40,38.44A1.56,1.56,0,1,1,38.44,40,1.56,1.56,0,0,1,40,38.44ZM26.93,26.93a1.09,1.09,0,0,0,.32-.76,1.14,1.14,0,0,0-.32-.77,1.08,1.08,0,0,0-.76-.31,1.11,1.11,0,0,0-.77.31,1.12,1.12,0,0,0-.31.77,1.08,1.08,0,0,0,.31.76,1.12,1.12,0,0,0,.77.32A1.09,1.09,0,0,0,26.93,26.93ZM47.49,15.54a1.08,1.08,0,0,0,.76-.31,1.07,1.07,0,0,0,0-1.53,1.08,1.08,0,1,0-.76,1.84Z"/></g></g></svg>