<svg xmlns="http://www.w3.org/2000/svg" viewBox="0 0 80 80"><defs><style>.cls-1{fill:#43a5d9;fill-rule:evenodd;}.cls-2{fill:#fff;}</style></defs><title>Asset 76</title><g id="Layer_2" data-name="Layer 2"><g id="Layer_3" data-name="Layer 3"><path class="cls-1" d="M0,0H80V80H0Z"/><path class="cls-2" d="M19.31,16.47H17.43v1.88h1.88Zm3.78,0H21.2v1.88h1.89Zm3.77,0H25v1.88h1.89Zm30.19,16h1.88a2.83,2.83,0,0,1,2.83-2.82V27.74a2.83,2.83,0,0,1-2.83-2.82H57.05a2.83,2.83,0,0,1-2.83,2.82v1.87A2.83,2.83,0,0,1,57.05,32.43ZM58,27.71a4.69,4.69,0,0,0,1,1,4.65,4.65,0,0,0-1,1,4.9,4.9,0,0,0-1-1A5,5,0,0,0,58,27.71Zm4.72-5.61h1.88a2.82,2.82,0,0,1,2.83-2.81V17.41a2.83,2.83,0,0,1-2.83-2.82H62.71a2.83,2.83,0,0,1-2.83,2.82v1.88A2.82,2.82,0,0,1,62.71,22.1Zm.94-4.72a4.69,4.69,0,0,0,1,1,4.46,4.46,0,0,0-1,1,4.69,4.69,0,0,0-1-1A5,5,0,0,0,63.65,17.38ZM46.12,65.59a71.84,71.84,0,0,1-29-9.47L14.56,54.6a17.06,17.06,0,0,0,.82-2.73c.06-.27.13-.55.2-.81.2-.78.42-2.05.67-3.51a44.42,44.42,0,0,1,1.24-5.79l5.65-14.41c.13-.32.24-.66.35-1a5.67,5.67,0,0,1,1.22-2.4,4.84,4.84,0,0,1,1.19-.7.57.57,0,0,0,.13-.08l11.19-8.52a1.52,1.52,0,0,1,1.89,0l5.6,4.46a1.51,1.51,0,0,1,0,2.34l-3.57,3.11a1.55,1.55,0,0,1-2.1-.06,1.57,1.57,0,0,1-.44-1.23,1.51,1.51,0,0,1,.68-1.12l.32-.22-1-1.55-.32.2a3.45,3.45,0,0,0-1.51,2.5,3.37,3.37,0,0,0,1,2.74,3.44,3.44,0,0,0,4.67.16l3-2.62.92,1.38-5.65,4.82L34,28.73c.1-.48.22-.95.36-1.43l-1.81-.52a21.81,21.81,0,0,0-.88,6.67c0,1.21.16,2.42.29,3.59a39.2,39.2,0,0,1,.28,4,13.21,13.21,0,0,1-4.1,9.82l1.24,1.42a13.66,13.66,0,0,0,3.92-6.11,2.73,2.73,0,0,1,1-.06,11.06,11.06,0,0,1,3.57,1,11,11,0,0,0-1.11,2.35l1.79.6a8.62,8.62,0,0,1,1-2l.06,0,.91-1.31a12.36,12.36,0,0,1,7.44-3.82c4.56-.68,8.8.88,11.09,4.06l1.53-1.1a11.51,11.51,0,0,0-3.59-3.21A10.67,10.67,0,0,1,67,40.7l.62-1.78A12.6,12.6,0,0,0,55.1,41.74,14.76,14.76,0,0,0,47.63,41,14.23,14.23,0,0,0,39,45.5a13,13,0,0,0-4.57-1.28c-.21,0-.43,0-.66,0A17.3,17.3,0,0,0,34.08,41a35.93,35.93,0,0,0-.29-4.19c-.12-1.13-.25-2.3-.27-3.44a20.27,20.27,0,0,1,.14-2.81l7.23.9H41a1,1,0,0,0,.61-.22l6.61-5.64a.94.94,0,0,0,.17-1.23l-1.66-2.47a3.33,3.33,0,0,0,.43-1.7,3.4,3.4,0,0,0-1.28-2.58l-5.6-4.46a3.41,3.41,0,0,0-4.22,0L25.38,21.33l-.34.24a6.49,6.49,0,0,0-1.58,1,7.1,7.1,0,0,0-1.76,3.23c-.1.31-.2.62-.31.9L15.73,41.08a42.94,42.94,0,0,0-1.34,6.15c-.23,1.37-.46,2.66-.64,3.36l-.21.85a11.14,11.14,0,0,1-1,3.06.93.93,0,0,0,.33,1.27l3.33,2A73.81,73.81,0,0,0,46,67.46c.76.06,1.71.1,2.8.1,5.42,0,14.17-.94,18.32-4.35l-1.2-1.45C61.59,65.28,50.89,66,46.12,65.59Z"/></g></g></svg>