<svg xmlns="http://www.w3.org/2000/svg" viewBox="0 0 80 80"><defs><style>.cls-1{fill:#43a5d9;fill-rule:evenodd;}.cls-2{fill:#fff;}</style></defs><title>Asset 78</title><g id="Layer_2" data-name="Layer 2"><g id="Layer_3" data-name="Layer 3"><path class="cls-1" d="M0,0H80V80H0Z"/><path class="cls-2" d="M53.92,62.26H51a6.5,6.5,0,0,1-6.48-7l.51-7.9c.29.17.59.31.89.46a12.74,12.74,0,0,0,2.47,1c.08,1.6.79,4,3.18,4.51A.81.81,0,0,0,52,51.73a2.73,2.73,0,0,1-1.88-2.56,14.32,14.32,0,0,0,2.05.18.81.81,0,0,0,0-1.61h0A14,14,0,0,1,42.35,43a3.31,3.31,0,0,0-4.81,0c-4.75,5-9.62,4.67-9.78,4.71a.81.81,0,1,0,0,1.61,13,13,0,0,0,2-.17,2.73,2.73,0,0,1-1.88,2.55.81.81,0,0,0,.36,1.57c2.39-.55,3.1-2.89,3.18-4.49a13.44,13.44,0,0,0,2-.74s1.37-.71,1.56-.83c.59,9.3.49,7.82.51,8a6.49,6.49,0,0,1-6.48,7H26.4a.81.81,0,1,0,0,1.62H29a8.12,8.12,0,0,0,8.09-8.78l-.57-9a19.56,19.56,0,0,0,2.22-2,1.7,1.7,0,0,1,1.23-.53c1.17,0,1.07.71,3.56,2.62l-.56,8.87A8.12,8.12,0,0,0,51,63.88h2.89a.81.81,0,0,0,0-1.62Zm13.6-1.66,0-.2C65.8,47.79,64.2,35.88,56.38,30.7a6.31,6.31,0,0,0-3.5-1.05c-3.23,0-8.21,2.44-8.49,5.83l-.18,2.15a4.14,4.14,0,0,1-1-2.52V16.93a.81.81,0,1,0-1.62,0V35.11a4.83,4.83,0,0,0,.71,2.51,23.34,23.34,0,0,0,2,2.68,13.11,13.11,0,0,0,3.6,3s.1.08.16.11a1.22,1.22,0,0,0,.28.13,9.25,9.25,0,0,0,3.88,1c.12,0,.2-.08.31-.12s.19,0,.25-.11a.8.8,0,0,0-.55-1.38A7.4,7.4,0,0,1,51,42.73,4.7,4.7,0,0,0,52.88,40a.81.81,0,1,0-1.56-.42,3,3,0,0,1-2.57,2.34,11.8,11.8,0,0,1-3.07-2.45L46,35.61c.19-2.36,4.36-4.35,6.88-4.35a4.63,4.63,0,0,1,2.6.79c7.22,4.78,8.77,16.33,10.41,28.57l0,.19a1.28,1.28,0,0,1-1.27,1.45H57.47a.81.81,0,0,0,0,1.62h7.17a2.91,2.91,0,0,0,2.88-3.28Zm-43-28.55a4.63,4.63,0,0,1,2.6-.79c2.52,0,6.69,2,6.88,4.35l.31,3.75c-.28.31-.57.56-.85.83a6.21,6.21,0,0,1-1.67,1.33c-.21.14-.42.31-.63.43a3.05,3.05,0,0,1-2.65-2.36A.81.81,0,1,0,27,40a4.7,4.7,0,0,0,1.86,2.72,6.66,6.66,0,0,1-1.09.16.81.81,0,0,0-.56,1.38c.05,0,.14,0,.2.08a.7.7,0,0,0,.38.15,11,11,0,0,0,4.1-1.07,16.4,16.4,0,0,0,5.78-5.81,4.81,4.81,0,0,0,.71-2.51V16.93a.81.81,0,0,0-1.62,0V35.11a3.51,3.51,0,0,1-.94,2.3l-.16-1.93c-.28-3.39-5.26-5.83-8.49-5.83a6.31,6.31,0,0,0-3.5,1.05c-8.31,5.5-9.69,19.12-11.13,29.9a2.89,2.89,0,0,0,2.87,3.28h6.41a.81.81,0,0,0,0-1.62H15.36a1.25,1.25,0,0,1-1-.44,1.38,1.38,0,0,1-.28-1.2C15.75,48.38,17.3,36.83,24.52,32.05Z"/></g></g></svg>