<svg xmlns="http://www.w3.org/2000/svg" viewBox="0 0 80 80"><defs><style>.cls-1{fill:#43a5d9;fill-rule:evenodd;}.cls-2{fill:#fff;}</style></defs><title>Asset 77</title><g id="Layer_2" data-name="Layer 2"><g id="Layer_3" data-name="Layer 3"><path class="cls-1" d="M0,0H80V80H0Z"/><path class="cls-2" d="M20.54,38.27a4.82,4.82,0,0,0,3.37-1.37l4.77,2.39q0,.3,0,.6a4.87,4.87,0,1,0,9.73,0,4.72,4.72,0,0,0-.48-2.09l6.49-6.49a4.93,4.93,0,0,0,2.1.47,4.87,4.87,0,0,0,4.86-4.86,4.69,4.69,0,0,0-.22-1.46l5.64-4.23a4.8,4.8,0,0,0,2.69.82,4.87,4.87,0,1,0-4.86-4.87,5,5,0,0,0,.22,1.46l-5.64,4.23a4.8,4.8,0,0,0-2.69-.82,4.88,4.88,0,0,0-4.87,4.87A4.72,4.72,0,0,0,42.1,29L35.61,35.5a4.93,4.93,0,0,0-2.1-.47,4.84,4.84,0,0,0-3.37,1.36L25.36,34a3.86,3.86,0,0,0,0-.6,4.87,4.87,0,1,0-4.86,4.87ZM59.46,15.56a1.63,1.63,0,1,1-1.62,1.62A1.63,1.63,0,0,1,59.46,15.56Zm-13,9.73a1.63,1.63,0,1,1-1.62,1.63A1.63,1.63,0,0,1,46.49,25.29Zm-13,13a1.62,1.62,0,1,1-1.62,1.62A1.62,1.62,0,0,1,33.51,38.27Zm-13-6.49a1.63,1.63,0,1,1-1.63,1.62A1.63,1.63,0,0,1,20.54,31.78ZM66.06,64.44H64.33V30.16a1.62,1.62,0,0,0-1.62-1.62H56.22a1.61,1.61,0,0,0-1.62,1.62V64.44H51.35V39.89a1.62,1.62,0,0,0-1.62-1.62H43.24a1.63,1.63,0,0,0-1.62,1.62V64.44H38.38V52.87a1.62,1.62,0,0,0-1.62-1.62H30.27a1.61,1.61,0,0,0-1.62,1.62V64.44H25.4V46.38a1.61,1.61,0,0,0-1.62-1.62H17.29a1.62,1.62,0,0,0-1.62,1.62V64.44H13.94a1.62,1.62,0,1,0,0,3.24H66.06a1.62,1.62,0,0,0,0-3.24Zm-43.9,0H18.91V48h3.25Zm13,0H31.89V54.49h3.24Zm13,0H44.87V41.51h3.24Zm13,0H57.84V31.78h3.25Z"/></g></g></svg>