<svg xmlns="http://www.w3.org/2000/svg" viewBox="0 0 80 80"><defs><style>.cls-1{fill:#43a5d9;fill-rule:evenodd;}.cls-2{fill:#fff;}</style></defs><title>Asset 83</title><g id="Layer_2" data-name="Layer 2"><g id="Layer_3" data-name="Layer 3"><path class="cls-1" d="M0,0H80V80H0Z"/><path class="cls-2" d="M63.2,25.09l2.33-2.32A1.64,1.64,0,0,0,66,21.25a1.62,1.62,0,0,0-1.07-1.17L54.57,16.64a1.64,1.64,0,0,0-1.66.39,1.6,1.6,0,0,0-.39,1.66L56,29a1.62,1.62,0,0,0,2.68.64l2.21-2.21A24.07,24.07,0,0,1,64.44,40,24.46,24.46,0,0,1,40,64.44a1.62,1.62,0,1,0,0,3.24A27.74,27.74,0,0,0,67.68,40,27.29,27.29,0,0,0,63.2,25.09Zm-5,.41-1.59-4.76,4.76,1.59ZM23.55,50.66A1.63,1.63,0,0,0,20.86,50l-2,2a24,24,0,0,1-3.29-12A24.46,24.46,0,0,1,40,15.56a1.62,1.62,0,0,0,0-3.24A27.74,27.74,0,0,0,12.32,40a27.29,27.29,0,0,0,4.16,14.4L14,56.9a1.63,1.63,0,0,0,.63,2.69L24.94,63a1.62,1.62,0,0,0,1.66-.39A1.64,1.64,0,0,0,27,61Zm-5.42,6.68,3.17-3.17,1.59,4.76Zm26.78-3.59a6.48,6.48,0,0,0,8.84-8.84,14.58,14.58,0,0,0-3-14.79,8.11,8.11,0,1,0-15.57-3.9,15.69,15.69,0,0,0-1.47.61,4.86,4.86,0,1,0-6.87,6.87A14.62,14.62,0,0,0,26,44.15a4.86,4.86,0,0,0,4.27,7.2l.52,0a14.61,14.61,0,0,0,14.12,2.42Zm3.2-2.4a3.24,3.24,0,1,1,3.24-3.24A3.24,3.24,0,0,1,48.11,51.35ZM43.24,22.16A4.87,4.87,0,0,1,48.11,27a4.25,4.25,0,0,1-.07.8,14.5,14.5,0,0,0-8-2.42c-.46,0-.91,0-1.37.07A4.89,4.89,0,0,1,43.24,22.16Zm-13,6.49a1.62,1.62,0,1,1-1.62,1.62A1.62,1.62,0,0,1,30.27,28.65Zm0,19.46a1.62,1.62,0,1,1,1.62-1.62A1.62,1.62,0,0,1,30.27,48.11Zm0-6.49a4.76,4.76,0,0,0-1.47.23,11.44,11.44,0,0,1,.95-6.74c.17,0,.34,0,.52,0a4.87,4.87,0,0,0,4.86-4.87c0-.18,0-.35,0-.52A11.36,11.36,0,0,1,51.35,40a11.59,11.59,0,0,1-.24,2.36,6.48,6.48,0,0,0-8.75,8.75,11.59,11.59,0,0,1-2.36.24,11.33,11.33,0,0,1-6-1.72,4.87,4.87,0,0,0-3.71-8Z"/></g></g></svg>