<svg xmlns="http://www.w3.org/2000/svg" viewBox="0 0 791.17 754.29"><defs><style>.cls-1,.cls-10,.cls-3{fill:#fff;}.cls-1{stroke:#ccc;}.cls-1,.cls-10,.cls-11,.cls-15{stroke-miterlimit:10;}.cls-2{fill:#43a5d9;}.cls-3{font-size:30px;}.cls-16,.cls-17,.cls-3{font-family:YuGothicUI-Regular, Yu Gothic UI;}.cls-4{letter-spacing:0.17em;}.cls-5{letter-spacing:0.15em;}.cls-6{letter-spacing:0.05em;}.cls-7{letter-spacing:0em;}.cls-8{letter-spacing:0em;}.cls-9{letter-spacing:0.14em;}.cls-10,.cls-11{stroke:#999;}.cls-11{fill:#d6d8d8;}.cls-12{fill:#666;}.cls-13{font-size:57.83px;font-family:YuGothicUI-Bold, Yu Gothic UI;font-weight:700;}.cls-14,.cls-15{fill:none;stroke:#43a5d9;stroke-width:3px;}.cls-14{stroke-linecap:round;stroke-linejoin:round;}.cls-16,.cls-17{font-size:36px;}.cls-17{letter-spacing:-0.07em;}.cls-18{letter-spacing:-0.11em;}</style></defs><title>Asset 87</title><g id="Layer_2" data-name="Layer 2"><g id="Layer_3" data-name="Layer 3"><circle class="cls-1" cx="509.48" cy="117.73" r="117.23"/><circle class="cls-2" cx="509.48" cy="401.97" r="93.81"/><text class="cls-3" transform="translate(434.92 398.73)"><tspan class="cls-4">サ<tspan class="cls-5" x="29.54" y="0">―</tspan><tspan class="cls-6" x="64.11" y="0">チ</tspan><tspan class="cls-7" x="88.12" y="0">ュ</tspan><tspan class="cls-8" x="107.63" y="0">イ</tspan><tspan class="cls-9" x="129.06" y="0">ン</tspan></tspan><tspan x="30.22" y="36">遺伝子</tspan></text><path class="cls-10" d="M150.19,408.32l5.39.45,7.29,24.84c-1.14,32.81,2.73,80.2,5.24,103s9.57,31.9,10.71,39.19-1.37,22.1-1.14,35.09,10,61.06,10.71,69.72-3.19,14.81-3.46,21.64,2.55,11.17,3,17.32-.91,9.57-2.28,14.58-.45,8.43,0,13,.69,5.92,6.84,5.47,7.75-3.42,7.75-3.42,4.1,2.73,11.39,0,8-5,10-7.52,1.83-4.1.46-7.06-3.42-3.42-6.84-8.21-2.73-5.92-3.87-11.62-2.73-6.6-2.73-6.6-1.37-10.26.91-17.32,12.3-63.34,11.85-87.72-8.66-43.06-9.35-49a150.08,150.08,0,0,1-.45-20.28c.23-6.15,14.35-82.25,14.35-116.2,0-62.89-34.45-119.57-34.45-119.57a77,77,0,0,1,2.06-17c2.2-9.3,9.17-19.36,12.13-56.53-.91,17.52,3.11,42.2,4.88,52a23.87,23.87,0,0,1,.09,7.73c-.75,5.15-.15,11.16,3.94,21.44,5,12.65,32.91,74.85,35.1,80.66s3.1,4.78,3.1,4.78c-3,15.1.78,29.55.78,29.55v30.72c0,3.87-.13,3.87,2.19,4.39s2.19-1.94,2.58-3.49S261,431.54,261,431.54s.78,17.56.78,21.69,1,5.29,3.35,5.16,3-1.68,3-4.65V431.41s3.23,18.72,4,23.36,1.55,5.81,3.49,5.43,2.45-3.36,2.58-6.33-2.07-22.58-2.07-22.58,4.13,15,5,20.13,3.48,7.36,5,6.45,1.29-3,.52-7.74-5.81-28.4-5.81-32.65,2.58-3.1,5.68-.78c2.31,1.73,6.93,5.2,11,5.27,2.22,0,2.66-1.57,2.13-2.16-3.05-3.43-8.51-8.79-8.51-8.79s-1.29-5.42-7.09-13.29a25.15,25.15,0,0,0-13.3-9.55s1-3.23-.51-8.13-9.94-33.95-12.65-47.37-3-33.68-17.3-49.69c.91-9-.9-21.68-4.13-37.43s-3.09-45.17-3.35-62.59-5.68-24.65-12.52-27.49-12.78-4-28.78-10.71-22.46-14.59-22.46-14.59V111.6s9-6.2,9-24c0,0,2.45,1.16,4.77-2.45s7-10.45,7.23-16.26-3.49-6.07-8.52-5.55c0,0,1.81-5.29,1.55-16s-12.56-24.91-32.95-24.91-32.7,14.2-33,24.91,1.55,16,1.55,16c-5-.52-8.77-.26-8.52,5.55s4.91,12.65,7.23,16.26,4.78,2.45,4.78,2.45c0,17.81,9,24,9,24v18.58s-6.45,7.87-22.46,14.59-21.94,7.87-28.78,10.71S67.8,165.55,67.54,183s-.12,46.85-3.35,62.59-5,28.4-4.13,37.43c-14.33,16-14.59,36.27-17.3,49.69s-11.09,42.46-12.64,47.37-.52,8.13-.52,8.13a25.1,25.1,0,0,0-13.29,9.55C10.5,405.6,9.21,411,9.21,411S3.75,416.38.7,419.81C.17,420.4.61,422,2.83,422c4.09-.07,8.72-3.54,11-5.27,3.1-2.32,5.68-3.48,5.68.78s-5,27.87-5.8,32.65-1,6.84.51,7.74,4.13-1.29,5-6.45,5-20.13,5-20.13-2.2,19.61-2.07,22.58.65,5.94,2.58,6.33,2.72-.78,3.49-5.43,4-23.36,4-23.36v22.33c0,3,.65,4.52,3,4.65s3.35-1,3.35-5.16.78-21.69.78-21.69S41.6,450.77,42,452.32s.26,4,2.58,3.49,2.2-.52,2.2-4.39V420.7s3.74-14.45.77-29.55c0,0,.9,1,3.1-4.78s30.07-68,35.1-80.66c4.09-10.28,4.69-16.29,3.94-21.44a23.87,23.87,0,0,1,.09-7.73c1.77-9.81,5.79-34.49,4.88-52,3,37.17,9.94,47.23,12.13,56.53a77,77,0,0,1,2.06,17S74.39,354.77,74.39,417.66c0,33.95,14.13,110.05,14.35,116.2a150.08,150.08,0,0,1-.45,20.28c-.69,5.93-8.89,24.61-9.34,49s9.57,80.66,11.84,87.72.92,17.32.92,17.32-1.6.91-2.74,6.6-.45,6.84-3.87,11.62-5.47,5.24-6.84,8.21-1.59,4.55.46,7.06,2.73,4.78,10,7.52,11.4,0,11.4,0,1.59,3,7.74,3.42,6.38-.91,6.84-5.47,1.36-8,0-13-2.74-8.43-2.28-14.58,3.27-10.48,3-17.32-4.14-13-3.46-21.64,10.48-56.74,10.71-69.72-2.28-27.8-1.14-35.09,8.21-16.41,10.71-39.19,6.38-70.18,5.24-103l7.29-24.84Z"/><path class="cls-11" d="M121.33,235.72c9.6-1.29,17.35,2.74,21.72,4.33s11.43,1.71,19.34,1,16.66,1,19.32,3.07a13,13,0,0,0,4.24,2.5,7.61,7.61,0,0,0-9.26.45c-5,3.78-5.81,9-9.79,13.8S161,269,155.27,269.44s-5.58,2.17-5.58,4.56-.23,4.44-.23,4.44l-2.39.12s1.94-7.29-2-7.52-3.07,3.87-7.4,6-7,.45-10.26,2.62-2.84,5.24-8.2,7.18-7.63,1.36-9.45-5.93.56-13.9-.57-20.05S103.55,238.12,121.33,235.72Z"/><path class="cls-11" d="M149.46,190.61H147.3c.11,19.59-3,36.23-5,42.27s-7.18,3.87-13.1,5.58-9,6.95-16.86,8.31-9-1.59-9.92-7.63.12-28,8.09-48.07,21.65-33.95,27.46-33.5,6.26,5.93,6.49,10,0,12.64,0,15.38,1.94,1.59,1.94-.23V157.91c0-3.41.23-4.21,3.07-4.21s3.08.8,3.08,4.21v24.84c0,1.82,1.94,3,1.94.23s-.23-11.28,0-15.38.68-9.57,6.49-10,19.48,13.44,27.46,33.5,9,42,8.09,48.07-2.06,9-9.92,7.63-10.93-6.6-16.86-8.31-11.05.45-13.1-5.58-5.12-22.68-5-42.27Z"/><path class="cls-11" d="M162.91,184.12v-7.87l-1.26-.91a3.65,3.65,0,0,0-1.36-2.16,5.28,5.28,0,0,0-2.85-.23l-2.51-.34V170.9h-6.26v-1.37h-5.13l-.49,4s-.08-.57-2.47-.45a2.27,2.27,0,0,0-2.28,2.39s3.76,2.16,3.65,3.76a14.31,14.31,0,0,1-.46,2.73H138.3s-.46,3.3,0,4.56a29.74,29.74,0,0,1,2,5.58,34.74,34.74,0,0,0,2.7,6.84s1.86,13.21,8.81,18,14.35,3.87,22.67,3,12.87-3.08,12.07-8.55S182.05,189.24,162.91,184.12Z"/><path class="cls-11" d="M153.89,220.62s-1.81,10.32-1.69,17.38,3.64,16.29,11.85,17.66c0,0,1,6.38,2.62,8.54,0,0-.12,1.37-.8,4.68a24.63,24.63,0,0,1-1.14,4.32,10.42,10.42,0,0,0-4.78,4.45,52.24,52.24,0,0,1-3.88,5.58S154.93,281,151,282s-5.24,1.93-5.24,1.93l-2.66.57s.38-3.87-6.57-4-9.23,5.46-9.12,10.82.69,13,.69,13h4.78s0-5.7-.23-9.57.35-4.45,3.08-4.67,2.39,1,4.78,1.25,4-.69,5.7.57,5.92,3.76,10.6,6.38,18.86.91,29.93-12.42,6.18-32.7-.77-38.16-13.21-4.22-17-.57-10.15,1.58-10.49-5l-.33-6.59A75.33,75.33,0,0,1,153.89,220.62Z"/><path class="cls-11" d="M130.55,305.67c4,4.35,4.79,7.75,3.19,10.48s-3.19,4.9-3.19,4.9h-3.19s3.65.46,6.16.57,2.16,3.08,2.16,4.56.11,3.64-2.39,3.53-4.67,0-4.67,0a62.69,62.69,0,0,1,1.14,7.18c.45,4.33,1,13.78,1,13.78l-2.16.34s-2.05-12.07-2.85-15.26c-3.53,5.69-6.61,9.23-15.84,5.58s-6.42-20.73-1.33-30.3S123.6,298,130.55,305.67Z"/><path class="cls-11" d="M172.24,305.67c-4,4.35-4.78,7.75-3.19,10.48s3.19,4.9,3.19,4.9h3.2s-3.65.46-6.16.57-2.16,3.08-2.16,4.56-.12,3.64,2.39,3.53,4.67,0,4.67,0a62.69,62.69,0,0,0-1.14,7.18c-.46,4.33-1,13.78-1,13.78l2.17.34s2-12.07,2.85-15.26c3.53,5.69,6.6,9.23,15.83,5.58s6.42-20.73,1.33-30.3S179.19,298,172.24,305.67Z"/><path class="cls-11" d="M123.05,361.32a8.37,8.37,0,0,0,1.83,3.37c1,1,2.51,1.45,3.7,2.3s2,2.6,1.09,3.72a2.35,2.35,0,0,1-2.89.31,6.85,6.85,0,0,1-2.15-2.26,42.86,42.86,0,0,1-4.41-7.35c-2.73-.31-5.85.76-8-1-1.6-1.27-1.89-3.56-1.88-5.6a5.91,5.91,0,0,0-.3-2.45c-.36-.81-1.09-1.4-1.48-2.19-.82-1.67.12-3.62.37-5.47s-.14-3.55.41-5.21c.43-1.32,1.43-2.48,1.46-3.86a20.38,20.38,0,0,0-.66-3,10.34,10.34,0,0,1,.4-3.48,37.19,37.19,0,0,0,.48-7.31,2.41,2.41,0,0,0-.22-1.25c-.21-.37-.61-.6-.86-1-.48-.69-.26-1.63-.3-2.48-.1-2.26-1.83-4-1.15-6.36a14.84,14.84,0,0,1,2.49-5.17,11,11,0,0,1,10.46-4.05c4.26.88,7.74,4.33,12.07,4.85,1.65.21,3.61.07,4.67,1.37.55.69.72,1.64,1.33,2.27,1.5,1.54,4.35.11,6.16,1.27.43.28.81.72,1.32.77a2.25,2.25,0,0,0,1.43-.6,7.43,7.43,0,0,1,7-.65,4,4,0,0,1,2.49-3.53,11.77,11.77,0,0,1,4.46-.82c-.47-2,2.12-3.08,3.89-4.09,1.36-.78,2.48-2,3.87-2.68s3.31-.88,4.38.26c3.09-1.41,7-1.71,9.72.3s3.32,6.77.53,8.7c3.17,1.56,3.63,6.7.8,8.8a5.74,5.74,0,0,1,2.27,7.36,3.74,3.74,0,0,0-.58,1.44,4.42,4.42,0,0,0,.21,1.24,4.27,4.27,0,0,1-1.3,4c1.25,1.63,1.28,3.85,1.25,5.9q-.08,4.8-.24,9.61a43.16,43.16,0,0,1-1,8.86c-.72,2.89-2,5.6-2.74,8.48-.68,2.69-.88,5.53-2.08,8s-3.84,4.62-6.55,4c-1.49-.32-2.74-1.41-4.23-1.71-1.7-.34-3.41.38-5.1.76s-3.77.28-4.74-1.16a28.13,28.13,0,0,1-1-2.79c-.45-.88-1.78-1.49-2.41-.71a7.8,7.8,0,0,1-1.32,7.52,6.7,6.7,0,0,0-1.24,1.68c-.51,1.29.23,2.8-.13,4.14-.42,1.5-2.05,2.31-3.57,2.65s-3.16.44-4.45,1.32c-.64.44-1.26,1.09-2,1a1.82,1.82,0,0,1-1.45-1.69,11.43,11.43,0,0,1,.19-2.4c.22-2.56-1-5-2.1-7.31-1.29-2.86-2.34-6-2-9.08a11.77,11.77,0,0,1,9.18-9.67,14.6,14.6,0,0,1,13,4.1,4.63,4.63,0,0,1,5.28-.34,3,3,0,0,0,1.28.63c1.46.11,2.27-2.52,3.66-2a3.39,3.39,0,0,1,.75-4.18,9.37,9.37,0,0,0,1.31-1,4.38,4.38,0,0,0,.59-3,27.59,27.59,0,0,1,1.71-10,7.87,7.87,0,0,0,.7-3.21c-.12-1.57-1.24-2.86-1.91-4.28a8.11,8.11,0,0,1-.49-5.61c.32-1.14.89-2.2,1.12-3.36a13.84,13.84,0,0,0,.12-3,51.84,51.84,0,0,1,1.07-12c-2-1.15-4.14,1.17-6.21,2.22a6,6,0,0,1-5.5-.1,6,6,0,0,1-7.2,3.05,5.4,5.4,0,0,1-7.65,2.18c-.82-.56-1.55-1.4-2.54-1.48a3.63,3.63,0,0,0-1.88.52,13.26,13.26,0,0,1-4.79,1.54,4.58,4.58,0,0,1-4.32-2.08c-.32-.58-.49-1.3-1.05-1.66-1.22-.8-2.53.78-3.71,1.64a4.14,4.14,0,0,1-6.57-3.79l-3.23.42a5.75,5.75,0,0,1-.83,5.33c-.7.92-1.75,1.89-1.4,3a3.89,3.89,0,0,0,1,1.33,5.09,5.09,0,0,1,1.22,4.7c-.36,1.37-1.3,2.62-1.22,4a8.34,8.34,0,0,0,.68,2.32,10,10,0,0,1-.29,7.39c2.34,2.53,5.41,5.71,5.6,9.38a5.27,5.27,0,0,1-1.43,4.19c-1,1-2.4,1.92-2.48,3.54A5.29,5.29,0,0,0,123.05,361.32Z"/><path class="cls-11" d="M149.46,84.05a1.8,1.8,0,0,0,2-2V75.66s2.33.75,5.48-1.35c4.34.45,5.84-5.54,8.54-6,6.29,1.5,11.19-4.47,11.23-17.08,0-10-12.43-21-18.12-20.52a14.77,14.77,0,0,0-9.17,4.34,14.72,14.72,0,0,0-9.16-4.34c-5.69-.45-18.15,10.49-18.12,20.52,0,12.61,4.94,18.58,11.23,17.08,2.7.45,4.2,6.44,8.54,6,3.15,2.1,5.48,1.35,5.48,1.35V82A1.79,1.79,0,0,0,149.46,84.05Z"/><path class="cls-12" d="M508.48,257.08v21.76l-4.37-1.11,5.37,9.3,5.38-9.3-4.38,1.11V257.08a1,1,0,0,0-1-1h0A1,1,0,0,0,508.48,257.08Z"/><path class="cls-12" d="M549.46,497.24l10,19.33-4.39,1,9,5.8.5-10.73-3.37,3-10-19.33a1,1,0,0,0-1.35-.42h0A1,1,0,0,0,549.46,497.24Z"/><path class="cls-12" d="M640.48,497.54l16.45,14.25-3.71,2.57,10.55,2-3.51-10.16-2,4L641.79,496a1,1,0,0,0-1.41.1h0A1,1,0,0,0,640.48,497.54Z"/><path class="cls-12" d="M378.48,497.54,362,511.79l3.7,2.57-10.54,2,3.51-10.16,2,4L377.17,496a1,1,0,0,1,1.41.1h0A1,1,0,0,1,378.48,497.54Z"/><path class="cls-12" d="M469.51,497.24l-10,19.33,4.39,1-9,5.8-.5-10.73,3.37,3,10-19.33a1,1,0,0,1,1.35-.42h0A1,1,0,0,1,469.51,497.24Z"/><text class="cls-13" transform="translate(438.4 143.32)">NMN</text><circle class="cls-1" cx="296.49" cy="619.38" r="68.19"/><circle class="cls-1" cx="438.49" cy="619.38" r="68.19"/><circle class="cls-1" cx="580.48" cy="619.38" r="68.19"/><circle class="cls-1" cx="722.48" cy="619.38" r="68.19"/><path class="cls-2" d="M328.85,595.66h2.47a1.57,1.57,0,0,0,0-3.13h-5.94a1.56,1.56,0,0,0-1.56,1.57V600a1.57,1.57,0,0,0,3.13,0v-1.72a36.89,36.89,0,1,1-29.57-14.83,37.49,37.49,0,0,1,4.5.27,1.56,1.56,0,0,0,.38-3.1,40,40,0,1,0,26.59,15Z"/><path class="cls-2" d="M274.32,603.94a1.56,1.56,0,0,0-2.16.48,29.85,29.85,0,1,0,9.34-9.31,1.56,1.56,0,0,0,1.66,2.64,26.7,26.7,0,1,1-4.66,41.49,26.88,26.88,0,0,1-3.7-33.15A1.55,1.55,0,0,0,274.32,603.94Z"/><path class="cls-2" d="M317.68,621.94h1.93a1.56,1.56,0,1,0,0-3.12h-1.93a1.56,1.56,0,1,0,0,3.12Z"/><path class="cls-2" d="M273.59,620.33a1.56,1.56,0,0,0,1.56,1.56h1.93a1.56,1.56,0,0,0,0-3.12h-1.93A1.56,1.56,0,0,0,273.59,620.33Z"/><path class="cls-2" d="M299,600.06v-1.93a1.57,1.57,0,0,0-3.13,0v1.93a1.57,1.57,0,0,0,3.13,0Z"/><path class="cls-2" d="M295.79,640.66v1.92a1.57,1.57,0,0,0,3.13,0v-1.92a1.57,1.57,0,0,0-3.13,0Z"/><path class="cls-2" d="M289.55,610.32a1.56,1.56,0,1,0-2.2,2.21l5.29,5.29a5.32,5.32,0,0,0-.64,2.54,5.38,5.38,0,0,0,10.76,0,5.32,5.32,0,0,0-.64-2.54l10.68-10.68a1.56,1.56,0,0,0-2.21-2.21l-10.67,10.68a5.43,5.43,0,0,0-2.54-.63,5.36,5.36,0,0,0-2.53.63Zm10.09,10a2.26,2.26,0,1,1-2.26-2.26A2.26,2.26,0,0,1,299.64,620.36Z"/><path class="cls-2" d="M278.5,601.47a1.56,1.56,0,1,0-1.11.46A1.57,1.57,0,0,0,278.5,601.47Z"/><path class="cls-2" d="M308.2,585a1.57,1.57,0,0,0,1.56-1.56,1.59,1.59,0,0,0-.46-1.11,1.56,1.56,0,0,0-1.1-.45,1.54,1.54,0,0,0-1.56,1.56,1.56,1.56,0,0,0,.45,1.1A1.59,1.59,0,0,0,308.2,585Z"/><rect class="cls-2" x="398.89" y="587.46" width="2.73" height="2.73"/><rect class="cls-2" x="404.34" y="587.46" width="2.73" height="2.73"/><rect class="cls-2" x="409.79" y="587.46" width="2.73" height="2.73"/><path class="cls-2" d="M456.13,610.63h2.73a4.09,4.09,0,0,1,4.09-4.09v-2.72a4.09,4.09,0,0,1-4.09-4.09h-2.73a4.09,4.09,0,0,1-4.09,4.09v2.72A4.09,4.09,0,0,1,456.13,610.63Zm1.37-6.86a6.68,6.68,0,0,0,1.4,1.41,6.88,6.88,0,0,0-1.4,1.4,6.93,6.93,0,0,0-1.41-1.4A6.73,6.73,0,0,0,457.5,603.77Z"/><path class="cls-2" d="M464.31,595.64H467a4.09,4.09,0,0,1,4.09-4.09v-2.73a4.09,4.09,0,0,1-4.09-4.09h-2.73a4.09,4.09,0,0,1-4.09,4.09v2.73A4.09,4.09,0,0,1,464.31,595.64Zm1.36-6.86a6.73,6.73,0,0,0,1.41,1.41,6.46,6.46,0,0,0-1.41,1.4,6.41,6.41,0,0,0-1.4-1.4A6.68,6.68,0,0,0,465.67,588.78Z"/><path class="cls-2" d="M440.35,658.75c-13.7-1.16-29.36-6.29-41.89-13.74l-3.72-2.21a23,23,0,0,0,1.19-4c.09-.4.19-.79.28-1.18.29-1.13.61-3,1-5.09a62.49,62.49,0,0,1,1.79-8.4l8.16-20.92c.18-.46.35-1,.51-1.46a8,8,0,0,1,1.76-3.48,6.68,6.68,0,0,1,1.71-1,1,1,0,0,0,.2-.12l16.16-12.37a2.21,2.21,0,0,1,2.73,0l8.1,6.48a2.17,2.17,0,0,1,.83,1.68,2.2,2.2,0,0,1-.75,1.71l-5.17,4.52a2.22,2.22,0,0,1-3-.1,2.22,2.22,0,0,1,.34-3.4l.46-.31-1.51-2.27-.46.31a4.94,4.94,0,1,0,6,7.83l4.35-3.81,1.34,2-8.17,7-9.76-1.22c.15-.7.32-1.39.52-2.08l-2.61-.76a32,32,0,0,0-1.27,9.68c0,1.76.23,3.52.41,5.21a50.37,50.37,0,0,1,.41,5.78c0,5.71-2.25,11-5.92,14.26l1.8,2a19.9,19.9,0,0,0,5.66-8.86,3.58,3.58,0,0,1,1.44-.08,16.18,16.18,0,0,1,5.16,1.38,16.89,16.89,0,0,0-1.61,3.41l2.59.87a13.52,13.52,0,0,1,1.42-3l.1.06,1.31-1.9a17.79,17.79,0,0,1,10.75-5.54c6.59-1,12.72,1.27,16,5.88l2.22-1.59A16.57,16.57,0,0,0,456,625.4a15.35,15.35,0,0,1,14.53-2.77l.9-2.58a18.15,18.15,0,0,0-18.09,4.08,21.41,21.41,0,0,0-10.79-1.06,20.55,20.55,0,0,0-12.48,6.52,18.91,18.91,0,0,0-6.6-1.85,7.36,7.36,0,0,0-.95,0,25.71,25.71,0,0,0,.45-4.6,50.76,50.76,0,0,0-.42-6.09c-.17-1.64-.35-3.33-.39-5a29.41,29.41,0,0,1,.2-4.09l10.45,1.31H433a1.4,1.4,0,0,0,.89-.33l9.54-8.18a1.37,1.37,0,0,0,.25-1.79l-2.39-3.59a4.87,4.87,0,0,0-1.23-6.2l-8.1-6.48a4.93,4.93,0,0,0-6.1-.06l-15.44,11.87-.5.35a9.25,9.25,0,0,0-2.27,1.4,10.15,10.15,0,0,0-2.55,4.68c-.15.45-.29.9-.45,1.31l-8.17,20.93a60.7,60.7,0,0,0-1.93,8.92c-.35,2-.67,3.86-.94,4.89-.1.4-.2.81-.29,1.22a16.23,16.23,0,0,1-1.5,4.44,1.36,1.36,0,0,0,.48,1.85l4.81,2.86c12.87,7.64,29,12.92,43.05,14.11,1.09.09,2.46.14,4,.14,7.84,0,20.48-1.37,26.48-6.31l-1.73-2.1C462.7,658.3,447.24,659.33,440.35,658.75Z"/><g id="_023---Moisturising-Face" data-name="023---Moisturising-Face"><path id="Shape" class="cls-2" d="M554.19,636.9l-3.3-7.7a4.6,4.6,0,0,0-8.42,3.72c6.08,13.36,6.37,14.81,9.07,17.5l10.8,10.8a1.33,1.33,0,0,0,.94.39h14.45a1.33,1.33,0,0,0,1.34-1.33,33.75,33.75,0,0,0-.44-8.09,17.55,17.55,0,0,0,3.55,0c-.58,2.44-.44,3.94-.44,8.09a1.32,1.32,0,0,0,1.33,1.33h14.46a1.33,1.33,0,0,0,.94-.39l10.8-10.8c2.69-2.69,2.91-4,9.07-17.5a4.6,4.6,0,1,0-8.42-3.72l-3.3,7.7a6.81,6.81,0,0,0-5.31-1,39.5,39.5,0,0,0,1.56-4.64c2.65-.53,9.06-2.86,9.06-12.93,0-3.42-.59-7.62-4-8.09a36.28,36.28,0,0,0,5.4-25.1l-.54-2.44a1.33,1.33,0,0,0-1.31-1H549.31a1.32,1.32,0,0,0-1.3,1l-.56,2.54a36.19,36.19,0,0,0,5.41,25c-3.36.51-3.94,4.7-3.94,8.08,0,10.08,6.42,12.4,9.07,12.94a40.34,40.34,0,0,0,1.57,4.65,6.73,6.73,0,0,0-5.37,1ZM576.4,659H563.83l-10.4-10.41c-2.18-2.17-2.18-2.75-8.53-16.73a1.93,1.93,0,0,1,3.54-1.56c5.4,12.61,3.3,9.53,13.89,20.13a1.33,1.33,0,1,0,1.89-1.88c-7.31-7.3-7.65-7.51-8.77-9.21a4,4,0,0,1,5.16,0,31.52,31.52,0,0,0,9.47,6c3.12,1,6.32,5.08,6.32,10.73Zm1.28-9.57a11.9,11.9,0,0,0-6.75-6.63,26,26,0,0,1-7.2-4.38c-4.59-8.11-5.17-17.9-5.18-27.22,2.82-5,10.24-16.46,21.85-23.47,11.64,7.06,19.07,18.56,21.9,23.55,0,9.47-.58,18.8-5.11,27a26.41,26.41,0,0,1-7.31,4.47,11.93,11.93,0,0,0-6.76,6.64,18,18,0,0,1-5.44,0Zm27.67-10.1c-1.11,1.7-1.43,1.88-8.76,9.21a1.33,1.33,0,0,0,1.88,1.89c10.49-10.49,8.49-7.52,13.9-20.13a1.93,1.93,0,0,1,3.33-.36,2,2,0,0,1,.21,1.92c-6.26,13.77-6.3,14.5-8.52,16.73L597,659H584.4V656a12.81,12.81,0,0,1,2.66-8c3.12-3.91,4.12-1.13,13.14-8.72a4,4,0,0,1,5.15,0Zm3.92-21c0,6.71-3.26,9.11-5.68,10a77.37,77.37,0,0,0,1.35-14.41c1.23-.87,2.32-1.24,2.93-.94.33.15,1.4,1,1.4,5.37Zm1.16-34A33.1,33.1,0,0,1,605,609.85c-.13-10-2.76-16.79-8-20.83a1.33,1.33,0,0,0-1.62,2.12c3.85,3,6.06,7.77,6.75,14.6-5.35-8.12-13.61-16.77-22.22-21.46Zm-60,0h18.18a35,35,0,0,0-7.86,7.16,1.33,1.33,0,1,0,2.08,1.67,32.1,32.1,0,0,1,11-8.72,41.62,41.62,0,0,1,4,1.8c-11.19,7.21-18.34,18-21.7,23.95a33,33,0,0,1-5.67-25.86Zm1.21,34c0-4.37,1.06-5.22,1.4-5.38.59-.29,1.71.09,2.93,1a76.6,76.6,0,0,0,1.34,14.41C554.84,627.4,551.59,625,551.59,618.28Z"/><path id="Shape-2" data-name="Shape" class="cls-2" d="M565,610.59a5.84,5.84,0,0,1,4.47-.32l5.18,1.73a1.31,1.31,0,0,0,1.3-.27,1.35,1.35,0,0,0,.43-1.27,1.38,1.38,0,0,0-.89-1l-5.17-1.72a8.47,8.47,0,0,0-6.51.47,1.33,1.33,0,1,0,1.19,2.38Z"/><path id="Shape-3" data-name="Shape" class="cls-2" d="M585.74,612.07c.31,0,0,.07,5.6-1.8a5.84,5.84,0,0,1,4.47.32,1.33,1.33,0,1,0,1.19-2.38,8.47,8.47,0,0,0-6.51-.47l-5.17,1.73a1.33,1.33,0,0,0-.9,1.47,1.35,1.35,0,0,0,1.32,1.13Z"/><path id="Shape-4" data-name="Shape" class="cls-2" d="M575,617.18a1.32,1.32,0,0,0-1.68-.83s-4.6,1.5-8.11-1.14a1.34,1.34,0,0,0-1.73.12,3.29,3.29,0,0,1-1.74.95,1.34,1.34,0,0,0,0,2.67,5,5,0,0,0,2.75-1c.2.12.4.22.61.33a2.48,2.48,0,0,1-.69.68,1.32,1.32,0,0,0-1.33,1.33c0,1.64,2.46,2.27,4.63-1.09a13,13,0,0,0,6.47-.32,1.33,1.33,0,0,0,.82-1.69Z"/><path id="Shape-5" data-name="Shape" class="cls-2" d="M595.6,615.21c-3.49,2.62-8,1.17-8.1,1.14a1.33,1.33,0,0,0-.86,2.52,13,13,0,0,0,6.46.32c.68,1,1.84,2.42,3.3,2.42a1.35,1.35,0,0,0,1.36-1.33,1.27,1.27,0,0,0-.37-.94,1.29,1.29,0,0,0-.93-.39,2.22,2.22,0,0,1-.74-.69l.6-.33a5,5,0,0,0,2.75,1,1.34,1.34,0,0,0,0-2.67,3.32,3.32,0,0,1-1.73-.94A1.33,1.33,0,0,0,595.6,615.21Z"/><path id="Shape-6" data-name="Shape" class="cls-2" d="M575.66,628.05a8.52,8.52,0,0,0,9.48,0,1.33,1.33,0,1,0-1.48-2.21,5.86,5.86,0,0,1-6.52,0,1.33,1.33,0,1,0-1.48,2.21Z"/><path id="Shape-7" data-name="Shape" class="cls-2" d="M588.4,636a1.63,1.63,0,0,0-1.73-1.6c-1.11,0-4.38-2.13-6.27-2.13s-5.14,2.13-6.26,2.13a1.61,1.61,0,0,0-1.22.43,1.65,1.65,0,0,0-.52,1.17c0,1.88,3.77,4.27,8,4.27S588.4,637.89,588.4,636Zm-8-1.06a24.87,24.87,0,0,1,4.17,1.63,8.92,8.92,0,0,1-8.34,0A24.36,24.36,0,0,1,580.4,635Z"/><path id="Shape-8" data-name="Shape" class="cls-2" d="M581.74,643h-2.67a1.33,1.33,0,1,0,0,2.66h2.67a1.33,1.33,0,1,0,0-2.66Z"/><circle id="Oval" class="cls-2" cx="557.73" cy="596.28" r="1.33"/></g><path class="cls-14" d="M701.07,649.26l-3.8-12.7a.72.72,0,0,0-1.19-.32l-8.78,8.38a.73.73,0,0,0,.27,1.21l12.57,4.32A.72.72,0,0,0,701.07,649.26Z"/><path class="cls-15" d="M691.72,640.9a37.59,37.59,0,0,1,30.66-59.34"/><path class="cls-14" d="M743.88,589.5l3.8,12.7a.72.72,0,0,0,1.19.32l8.78-8.38a.72.72,0,0,0-.27-1.21l-12.57-4.32A.72.72,0,0,0,743.88,589.5Z"/><path class="cls-15" d="M753.24,597.86a37.6,37.6,0,0,1-30.67,59.34"/><path class="cls-14" d="M729.33,637a18.78,18.78,0,0,1-19.11-3.4"/><path class="cls-14" d="M713.23,603.22A18.79,18.79,0,0,1,740,626.56"/><path class="cls-14" d="M704.85,625.67A18.8,18.8,0,0,1,706.39,610"/><circle class="cls-14" cx="708.58" cy="605.36" r="5.01"/><circle class="cls-14" cx="708.62" cy="629.01" r="4.74"/><circle class="cls-14" cx="734.45" cy="631.54" r="7.25"/><path class="cls-14" d="M717.52,601.42c0-.17,0-.34,0-.5a10,10,0,1,1,18.38,5.33"/><text class="cls-16" transform="translate(408.79 743.6)">活力</text><text class="cls-16" transform="translate(690.72 743.6)">代謝</text><text class="cls-16" transform="translate(557.76 743.6)">美容</text><text class="cls-17" transform="translate(265.38 743.6)">若<tspan class="cls-18" x="33.56" y="0">さ</tspan></text></g></g></svg>