<?xml version="1.0" encoding="utf-8"?>
<!-- Generator: Adobe Illustrator 24.0.0, SVG Export Plug-In . SVG Version: 6.00 Build 0)  -->
<svg version="1.1" id="Layer_1" xmlns="http://www.w3.org/2000/svg" xmlns:xlink="http://www.w3.org/1999/xlink" x="0px" y="0px"
	 viewBox="0 0 451 429.8" style="enable-background:new 0 0 451 429.8;" xml:space="preserve">
<style type="text/css">
	.st0{fill:#FFFFFF;stroke:#CCCCCC;stroke-miterlimit:10;}
	.st1{fill:#43A5D9;}
	.st2{fill:#FFFFFF;stroke:#999999;stroke-miterlimit:10;}
	.st3{fill:#D6D8D8;stroke:#999999;stroke-miterlimit:10;}
	.st4{fill:#666666;}
	.st5{font-family:'YuGothicUI-Bold';}
	.st6{font-size:32.93px;}
	.st7{fill:none;stroke:#43A5D9;stroke-width:3;stroke-linecap:round;stroke-linejoin:round;}
	.st8{fill:none;stroke:#43A5D9;stroke-width:3;stroke-miterlimit:10;}
	.st9{font-family:'YuGothicUI-Regular';}
	.st10{font-size:20.5px;}
	.st11{letter-spacing:-1;}
	.st12{letter-spacing:-2;}
	.st13{fill:#FFFFFF;}
</style>
<title>Asset 88</title>
<g id="Layer_2_1_">
	<g id="Layer_3">
		<circle class="st0" cx="290.4" cy="67.3" r="66.8"/>
		<circle class="st1" cx="290.4" cy="229.1" r="53.4"/>
		<path class="st2" d="M85.8,232.8l3.1,0.3l4.2,14.2c-0.7,18.7,1.6,45.7,3,58.6s5.4,18.2,6.1,22.3s-0.8,12.6-0.7,20
			s5.7,34.8,6.1,39.7s-1.8,8.4-2,12.3s1.4,6.4,1.7,9.9s-0.5,5.5-1.3,8.3s-0.3,4.8,0,7.4s0.4,3.4,3.9,3.1s4.4-2,4.4-2s2.3,1.6,6.5,0
			s4.5-2.9,5.7-4.3s1-2.3,0.3-4s-1.9-2-3.9-4.7s-1.6-3.4-2.2-6.6s-1.6-3.8-1.6-3.8s-0.8-5.8,0.5-9.9s7-36.1,6.8-50
			s-4.9-24.5-5.3-27.9c-0.3-3.8-0.4-7.7-0.3-11.5c0.1-3.5,8.2-46.8,8.2-66.2c0-35.8-19.6-68.1-19.6-68.1c0-3.3,0.4-6.5,1.2-9.7
			c1.3-5.3,5.2-11,6.9-32.2c-0.5,10,1.8,24,2.8,29.6c0.3,1.5,0.3,2.9,0.1,4.4c-0.4,2.9-0.1,6.4,2.2,12.2c2.9,7.2,18.7,42.6,20,45.9
			s1.7,2.7,1.7,2.7c-1,5.6-0.8,11.3,0.4,16.8v17.5c0,2.2-0.1,2.2,1.3,2.5s1.3-1.1,1.5-2s1.5-11.8,1.5-11.8s0.4,10,0.4,12.4
			s0.6,3,1.9,2.9s1.7-1,1.7-2.6v-12.7c0,0,1.8,10.6,2.3,13.3s0.9,3.3,2,3.1s1.4-1.9,1.5-3.6s-1.2-12.9-1.2-12.9s2.4,8.5,2.9,11.5
			s2,4.2,2.9,3.7s0.7-1.7,0.3-4.4s-3.3-16.2-3.3-18.6s1.5-1.8,3.2-0.4c1.3,1,3.9,3,6.3,3c1.3,0,1.5-0.9,1.2-1.2c-1.7-2-4.9-5-4.9-5
			c-0.9-2.7-2.2-5.3-4-7.6c-1.8-2.6-4.5-4.5-7.6-5.4c0.3-1.5,0.2-3.1-0.3-4.6c-0.9-2.8-5.7-19.3-7.2-27s-1.7-19.2-9.9-28.3
			c0.5-5.1-0.5-12.4-2.4-21.3s-1.8-25.7-1.9-35.6s-3.2-14-7.1-15.7s-7.3-2.3-16.4-6.1s-12.8-8.3-12.8-8.3V63.8c0,0,5.2-3.5,5.2-13.7
			c0,0,1.4,0.7,2.7-1.4s4-6,4.1-9.3s-2-3.5-4.8-3.2c0,0,1-3,0.9-9.1S97.4,13,85.8,13S67.1,21.1,67,27.2s0.9,9.1,0.9,9.1
			c-2.9-0.3-5-0.2-4.8,3.2s2.8,7.2,4.1,9.3s2.7,1.4,2.7,1.4c0,10.1,5.1,13.7,5.1,13.7v10.6c0,0-3.7,4.5-12.8,8.3s-12.5,4.5-16.4,6.1
			s-7,5.7-7.1,15.7s-0.1,26.7-1.9,35.6s-2.9,16.2-2.3,21.3c-8.2,9.1-8.3,20.6-9.9,28.3s-6.3,24.2-7.2,27c-0.5,1.5-0.6,3.1-0.3,4.6
			c-3.1,0.9-5.7,2.8-7.6,5.4c-1.8,2.3-3.1,4.8-4,7.6c0,0-3.1,3.1-4.8,5c-0.3,0.3-0.1,1.3,1.2,1.2c2.3,0,5-2,6.3-3
			c1.8-1.3,3.2-2,3.2,0.4S8.5,253.8,8,256.6s-0.6,3.9,0.3,4.4s2.3-0.7,2.9-3.7s2.9-11.5,2.9-11.5s-1.2,11.2-1.1,12.9
			s0.4,3.4,1.5,3.6s1.6-0.4,2-3.1c0.4-2.6,2.3-13.3,2.3-13.3v12.7c0,1.7,0.4,2.6,1.7,2.6s1.9-0.6,1.9-2.9s0.4-12.4,0.4-12.4
			s1.3,11,1.5,11.8s0.1,2.3,1.5,2s1.3-0.3,1.3-2.5v-17.5c1.3-5.5,1.4-11.2,0.4-16.8c0,0,0.5,0.6,1.8-2.7s17.1-38.7,20-45.9
			c2.3-5.9,2.7-9.3,2.2-12.2c-0.2-1.5-0.2-3,0-4.4c1-5.6,3.3-19.6,2.8-29.6c1.7,21.2,5.7,26.9,6.9,32.2c0.8,3.2,1.1,6.4,1.2,9.7
			c0,0-19.6,32.3-19.6,68.1c0,19.3,8,62.7,8.2,66.2c0.2,3.9,0.1,7.7-0.3,11.5c-0.4,3.4-5.1,14-5.3,27.9s5.5,45.9,6.8,50
			s0.5,9.9,0.5,9.9s-0.9,0.5-1.6,3.8s-0.3,3.9-2.2,6.6s-3.1,3-3.9,4.7s-0.9,2.6,0.3,4s1.5,2.7,5.7,4.3s6.5,0,6.5,0s0.9,1.7,4.4,2
			c3.5,0.3,3.6-0.5,3.9-3.1s0.8-4.5,0-7.4s-1.6-4.8-1.3-8.3c0.3-3.5,1.9-6,1.7-9.9s-2.4-7.4-2-12.3s6-32.3,6.1-39.7
			s-1.3-15.8-0.7-20s4.7-9.4,6.1-22.3s3.6-40,3-58.6l4.2-14.1L85.8,232.8z"/>
		<path class="st3" d="M69.3,134.5c5.5-0.7,9.9,1.6,12.4,2.5s6.5,1,11,0.6s9.5,0.6,11,1.8c0.7,0.6,1.5,1.1,2.4,1.4
			c-1.6-1.1-3.8-1-5.3,0.3c-2.8,2.1-3.3,5.1-5.6,7.9s-3.4,4.6-6.6,4.9s-3.2,1.2-3.2,2.6s-0.1,2.5-0.1,2.5l-1.4,0.1
			c0,0,1.1-4.1-1.2-4.3s-1.8,2.2-4.2,3.4s-4,0.3-5.8,1.5s-1.6,3-4.7,4.1s-4.3,0.8-5.4-3.4s0.3-7.9-0.3-11.4S59.2,135.8,69.3,134.5z"
			/>
		<path class="st3" d="M85.3,108.8h-1.2c0.1,11.2-1.7,20.6-2.8,24.1s-4.1,2.2-7.5,3.2s-5.1,3.9-9.6,4.7s-5.1-0.9-5.6-4.3
			s0.1-16,4.6-27.4s12.3-19.3,15.6-19s3.6,3.4,3.7,5.7s0,7.2,0,8.8s1.1,0.9,1.1-0.1V90.2c0-2,0.1-2.4,1.8-2.4s1.8,0.4,1.8,2.4v14.1
			c0,1,1.1,1.7,1.1,0.1s-0.1-6.4,0-8.8s0.4-5.4,3.7-5.7s11.1,7.7,15.6,19.1s5.1,23.9,4.6,27.4s-1.2,5.1-5.6,4.3s-6.2-3.7-9.6-4.7
			s-6.3,0.3-7.5-3.2s-2.9-12.9-2.8-24.1L85.3,108.8z"/>
		<path class="st3" d="M93,105.1v-4.5l-0.7-0.5c-0.1-0.5-0.4-0.9-0.8-1.2c-0.5-0.2-1.1-0.2-1.6-0.1l-1.4-0.2v-1h-3.6v-0.8H82
			L81.7,99c0,0,0-0.3-1.4-0.3c-0.7,0-1.3,0.6-1.3,1.3c0,0,0,0.1,0,0.1c0,0,2.1,1.2,2.1,2.1c0,0.5-0.1,1.1-0.3,1.6H79
			c-0.1,0.9-0.1,1.7,0,2.6c0.5,1,0.9,2.1,1.2,3.2c0.4,1.3,0.9,2.7,1.5,3.9c0,0,1.1,7.5,5,10.3s8.2,2.2,12.9,1.7s7.3-1.8,6.9-4.9
			S103.9,108,93,105.1z"/>
		<path class="st3" d="M87.9,125.9c-0.6,3.3-0.9,6.6-1,9.9c0.1,4,2.1,9.3,6.8,10.1c0,0,0.6,3.6,1.5,4.9c-0.1,0.9-0.3,1.8-0.4,2.7
			c-0.1,0.8-0.4,1.7-0.7,2.5c-1.2,0.5-2.1,1.4-2.7,2.5c-0.7,1.1-1.4,2.2-2.2,3.2c0,0-0.7-1.3-2.9-0.7c-1.1,0.2-2.1,0.6-3,1.1
			l-1.5,0.3c0,0,0.3-2.2-3.7-2.2s-5.3,3.1-5.2,6.2s0.4,7.4,0.4,7.4h2.7c0,0,0-3.3-0.1-5.4s0.2-2.5,1.8-2.7s1.4,0.6,2.7,0.7
			s2.3-0.4,3.2,0.3s3.4,2.1,6,3.6s10.7,0.5,17-7.1s3.5-18.6-0.4-21.7s-7.5-2.4-9.7-0.3s-5.8,0.9-6-2.9l-0.2-3.8
			C89.1,131.6,88.3,128.8,87.9,125.9z"/>
		<path class="st3" d="M74.6,174.3c2.3,2.5,2.7,4.4,1.8,6s-1.8,2.8-1.8,2.8h-1.8c0,0,2.1,0.3,3.5,0.3s1.2,1.8,1.2,2.6s0.1,2.1-1.4,2
			s-2.7,0-2.7,0c0.3,1.3,0.5,2.7,0.7,4.1c0.3,2.5,0.6,7.9,0.6,7.9l-1.2,0.2c0,0-1.2-6.9-1.6-8.7c-2,3.3-3.8,5.3-9,3.2
			s-3.7-11.8-0.8-17.3S70.6,170,74.6,174.3z"/>
		<path class="st3" d="M98.3,174.3c-2.3,2.5-2.7,4.4-1.8,6s1.8,2.8,1.8,2.8h1.8c0,0-2.1,0.3-3.5,0.3s-1.2,1.8-1.2,2.6
			s-0.1,2.1,1.4,2s2.7,0,2.7,0c-0.3,1.3-0.5,2.7-0.7,4.1c-0.3,2.5-0.6,7.9-0.6,7.9l1.2,0.2c0,0,1.2-6.9,1.6-8.7c2,3.3,3.8,5.3,9,3.2
			s3.7-11.8,0.8-17.3S102.3,170,98.3,174.3z"/>
		<path class="st3" d="M70.3,206c0.2,0.7,0.5,1.4,1,1.9c0.7,0.5,1.4,0.9,2.1,1.3c0.7,0.5,1.2,1.5,0.6,2.1c-0.4,0.4-1.1,0.5-1.6,0.2
			c-0.5-0.3-0.9-0.8-1.2-1.3c-1-1.3-1.8-2.7-2.5-4.2c-1.6-0.2-3.3,0.4-4.6-0.5c-0.8-0.8-1.2-2-1.1-3.2c0-0.5,0-1-0.2-1.4
			c-0.2-0.5-0.6-0.8-0.8-1.2c-0.5-1,0.1-2.1,0.2-3.1c0-1,0.1-2,0.2-3c0.4-0.7,0.7-1.4,0.8-2.2c-0.1-0.6-0.2-1.2-0.4-1.7
			c0-0.7,0-1.4,0.2-2c0.2-1.4,0.3-2.8,0.3-4.2c0-0.2,0-0.5-0.1-0.7c-0.1-0.2-0.3-0.4-0.5-0.6c-0.3-0.4-0.2-0.9-0.2-1.4
			c0-1.3-1-2.3-0.7-3.6c0.3-1.1,0.8-2.1,1.4-2.9c1.4-1.8,3.7-2.7,6-2.3c2.4,0.5,4.4,2.5,6.9,2.8c0.9,0.1,2.1,0,2.7,0.8
			c0.3,0.4,0.4,0.9,0.8,1.3c0.8,0.9,2.5,0.1,3.5,0.7c0.3,0.2,0.5,0.4,0.8,0.4c0.3,0,0.6-0.1,0.8-0.3c1.2-0.8,2.7-0.9,4-0.4
			c0-0.9,0.6-1.7,1.4-2c0.8-0.3,1.7-0.5,2.5-0.5c-0.3-1.1,1.2-1.8,2.2-2.3c0.8-0.4,1.4-1.1,2.2-1.5c0.8-0.5,1.8-0.4,2.5,0.1
			c1.7-0.9,3.8-0.9,5.5,0.2c1.6,1.1,1.9,3.9,0.3,5c1.5,0.9,2,2.8,1.1,4.2c-0.2,0.3-0.4,0.5-0.6,0.8c1.4,0.9,2,2.7,1.3,4.2
			c-0.2,0.3-0.3,0.5-0.3,0.8c0,0.2,0,0.5,0.1,0.7c0.2,0.8-0.1,1.7-0.7,2.3c0.6,1,0.9,2.2,0.7,3.4c0,1.8-0.1,3.6-0.1,5.5
			c0,1.7-0.2,3.4-0.5,5.1c-0.4,1.6-1.2,3.2-1.6,4.8c-0.2,1.6-0.6,3.1-1.2,4.6c-0.7,1.4-2.2,2.6-3.7,2.3c-0.8-0.2-1.6-0.8-2.4-1
			c-1-0.1-2,0.1-2.9,0.4c-1,0.3-2,0.1-2.7-0.7c-0.2-0.5-0.4-1-0.6-1.6c-0.3-0.5-1-0.9-1.4-0.4c0.5,1.5,0.2,3.1-0.8,4.3
			c-0.3,0.3-0.5,0.6-0.7,0.9c-0.3,0.7,0.1,1.6-0.1,2.4c-0.4,0.8-1.1,1.4-2,1.5c-0.9,0.1-1.7,0.3-2.5,0.8c-0.4,0.3-0.7,0.6-1.2,0.6
			c-0.5-0.1-0.8-0.5-0.8-1c0-0.5,0-0.9,0.1-1.4c0-1.5-0.4-2.9-1.2-4.2c-0.8-1.6-1.2-3.4-1.1-5.2c0.4-2.7,2.5-4.9,5.2-5.5
			c2.7-0.5,5.5,0.4,7.4,2.3c0.9-0.7,2.1-0.8,3-0.2c0.2,0.2,0.5,0.3,0.7,0.4c0.8,0.1,1.3-1.4,2.1-1.1c-0.4-0.8-0.3-1.8,0.4-2.4
			c0.3-0.2,0.5-0.4,0.8-0.6c0.3-0.5,0.4-1.1,0.3-1.7c0-1.9,0.3-3.9,1-5.7c0.3-0.6,0.4-1.2,0.4-1.8c-0.2-0.9-0.6-1.7-1.1-2.4
			c-0.5-1-0.6-2.1-0.3-3.2c0.2-0.6,0.5-1.3,0.6-1.9c0.1-0.6,0.1-1.1,0.1-1.7c-0.1-2.3,0.1-4.6,0.6-6.8c-1.1-0.7-2.3,0.7-3.5,1.3
			c-1,0.5-2.2,0.5-3.1-0.1c-0.7,1.5-2.5,2.3-4.1,1.7c-0.8,1.5-2.6,2.1-4.1,1.4c-0.1,0-0.2-0.1-0.2-0.1c-0.5-0.3-0.9-0.8-1.4-0.8
			c-0.4,0-0.7,0.1-1.1,0.3c-0.8,0.5-1.8,0.8-2.7,0.9c-1,0.2-2-0.3-2.5-1.1c-0.2-0.3-0.3-0.7-0.6-1c-0.7-0.5-1.4,0.4-2.1,0.9
			c-1.1,0.8-2.5,0.5-3.3-0.5c-0.3-0.5-0.5-1.1-0.4-1.6l-1.8,0.2c0.3,1,0.2,2.1-0.5,3c-0.4,0.5-1,1.1-0.8,1.7
			c0.1,0.3,0.3,0.6,0.6,0.8c0.7,0.7,0.9,1.7,0.7,2.7c-0.4,0.7-0.6,1.5-0.7,2.3c0.1,0.5,0.2,0.9,0.4,1.3c0.5,1.4,0.4,2.9-0.2,4.2
			c1.3,1.4,3.1,3.3,3.2,5.4c0.1,0.9-0.2,1.7-0.8,2.4c-0.6,0.6-1.4,1.1-1.4,2C70.2,205.3,70.2,205.7,70.3,206z"/>
		<path class="st3" d="M85.3,48.1c0,0,1.2,0.2,1.2-1.2v-3.6c1.1,0.2,2.2-0.1,3.1-0.8c2.5,0.3,3.3-3.2,4.9-3.4
			c3.6,0.9,6.4-2.5,6.4-9.7c0-5.7-7.1-12-10.3-11.7c-2,0.2-3.8,1.1-5.2,2.5c-1.4-1.4-3.2-2.3-5.2-2.5c-3.2-0.3-10.3,6-10.3,11.7
			c0,7.2,2.8,10.6,6.4,9.7c1.5,0.3,2.4,3.7,4.9,3.4c0.9,0.7,2,1,3.1,0.8v3.6c-0.1,0.5,0.3,1.1,0.8,1.2
			C85.1,48.1,85.2,48.1,85.3,48.1z"/>
		<path class="st4" d="M289.8,146.6V159l-2.5-0.6l3.1,5.3l3.1-5.3l-2.5,0.6v-12.4c0-0.3-0.3-0.6-0.6-0.6l0,0
			C290.1,146,289.8,146.3,289.8,146.6C289.8,146.6,289.8,146.6,289.8,146.6z"/>
		<path class="st4" d="M313.1,283.4l5.7,11l-2.5,0.6l5.1,3.3l0.3-6.1l-1.9,1.7l-5.7-11c-0.1-0.3-0.5-0.4-0.7-0.3c0,0,0,0,0,0l0,0
			C313.1,282.8,313,283.1,313.1,283.4z"/>
		<path class="st4" d="M365,283.6l9.4,8.1l-2.1,1.5l6,1.1l-2-5.8l-1.1,2.3l-9.4-8.1c-0.2-0.2-0.6-0.2-0.8,0.1l0,0
			C364.7,283,364.8,283.4,365,283.6z"/>
		<path class="st4" d="M215.8,283.6l-9.4,8.1l2.1,1.5l-6,1.1l2-5.8l1.1,2.3l9.3-8.1c0.2-0.2,0.6-0.2,0.8,0.1l0,0
			C216,283,216,283.3,215.8,283.6C215.8,283.6,215.8,283.6,215.8,283.6z"/>
		<path class="st4" d="M267.6,283.4l-5.7,11l2.5,0.6l-5.1,3.3l-0.3-6.1l1.9,1.7l5.7-11c0.1-0.3,0.5-0.4,0.8-0.2c0,0,0,0,0,0l0,0
			C267.6,282.8,267.7,283.1,267.6,283.4C267.6,283.4,267.6,283.4,267.6,283.4z"/>
		<text transform="matrix(1 0 0 1 249.88 81.84)" class="st5 st6">NMN</text>
		<circle class="st0" cx="169.1" cy="353" r="38.8"/>
		<circle class="st0" cx="249.9" cy="353" r="38.8"/>
		<circle class="st0" cx="330.8" cy="353" r="38.8"/>
		<circle class="st0" cx="411.7" cy="353" r="38.8"/>
		<path class="st1" d="M187.5,339.4h1.4c0.5,0,0.9-0.4,0.9-0.9c0-0.5-0.4-0.9-0.9-0.9c0,0,0,0,0,0h-3.4c-0.5,0-0.9,0.4-0.9,0.9l0,0
			v3.4c0,0.5,0.4,0.9,0.9,0.9c0.5,0,0.9-0.4,0.9-0.9c0,0,0,0,0,0v-1c6.9,9.3,5,22.5-4.3,29.4c-9.3,6.9-22.5,5-29.4-4.3
			c-6.9-9.3-5-22.5,4.3-29.4c3.6-2.7,8-4.2,12.5-4.2c0.9,0,1.7,0,2.6,0.1c0.5,0.1,0.9-0.3,1-0.8c0.1-0.5-0.3-0.9-0.8-1
			c-0.9-0.1-1.9-0.2-2.8-0.2c-12.6,0-22.8,10.2-22.8,22.8c0,12.6,10.2,22.8,22.8,22.8c12.6,0,22.8-10.2,22.8-22.8
			C192.4,348.4,190.6,343.4,187.5,339.4L187.5,339.4z"/>
		<path class="st1" d="M156.4,344.2c-0.4-0.3-1-0.1-1.2,0.3c0,0,0,0,0,0c-5,7.9-2.7,18.4,5.3,23.5c7.9,5,18.4,2.7,23.5-5.3
			s2.7-18.4-5.3-23.5c-5.5-3.5-12.6-3.5-18.1,0c-0.4,0.3-0.5,0.8-0.3,1.2c0,0,0,0,0,0c0.3,0.4,0.8,0.5,1.2,0.3c0,0,0,0,0,0
			c7.1-4.5,16.5-2.3,21,4.8c4.5,7.1,2.3,16.5-4.8,21c-6,3.8-13.8,2.9-18.9-2.1c-5-5-5.9-12.9-2.1-18.9
			C157,345,156.9,344.4,156.4,344.2C156.4,344.2,156.4,344.2,156.4,344.2z"/>
		<path class="st1" d="M181.1,354.4h1.1c0.5,0,0.9-0.4,0.9-0.9c0-0.5-0.4-0.9-0.9-0.9c0,0,0,0,0,0h-1.1c-0.5,0-0.9,0.4-0.9,0.9
			C180.2,354,180.6,354.4,181.1,354.4z"/>
		<path class="st1" d="M156,353.5c0,0.5,0.4,0.9,0.9,0.9c0,0,0,0,0,0h1.1c0.5,0,0.9-0.4,0.9-0.9c0-0.5-0.4-0.9-0.9-0.9h-1.1
			C156.4,352.6,156,353,156,353.5C156,353.5,156,353.5,156,353.5z"/>
		<path class="st1" d="M170.5,342v-1.1c0-0.5-0.4-0.9-0.9-0.9c-0.5,0-0.9,0.4-0.9,0.9c0,0,0,0,0,0v1.1c0,0.5,0.4,0.9,0.9,0.9
			C170.1,342.9,170.5,342.5,170.5,342z"/>
		<path class="st1" d="M168.7,365.1v1.1c0,0.5,0.4,0.9,0.9,0.9c0.5,0,0.9-0.4,0.9-0.9c0,0,0,0,0,0v-1.1c0-0.5-0.4-0.9-0.9-0.9
			C169.1,364.2,168.7,364.6,168.7,365.1C168.7,365.1,168.7,365.1,168.7,365.1z"/>
		<path class="st1" d="M165.1,347.8c-0.4-0.3-0.9-0.3-1.3,0c-0.3,0.3-0.3,0.9,0,1.3c0,0,0,0,0,0l3,3c-0.2,0.4-0.4,0.9-0.4,1.5
			c0.1,1.7,1.5,3,3.2,2.9c1.6-0.1,2.8-1.3,2.9-2.9c0-0.5-0.1-1-0.4-1.5l6.1-6.1c0.4-0.3,0.4-0.9,0.1-1.3c-0.3-0.4-0.9-0.4-1.3-0.1
			c0,0-0.1,0.1-0.1,0.1l-6.1,6.1c-0.9-0.5-2-0.5-2.9,0L165.1,347.8z M170.9,353.5c0,0.7-0.6,1.3-1.3,1.3c-0.7,0-1.3-0.6-1.3-1.3
			c0-0.7,0.6-1.3,1.3-1.3C170.3,352.2,170.9,352.8,170.9,353.5C170.9,353.5,170.9,353.5,170.9,353.5z"/>
		<path class="st1" d="M158.8,342.8c0.3-0.3,0.3-0.9,0-1.2c0,0,0,0,0,0c-0.2-0.2-0.4-0.3-0.6-0.3c-0.5,0-0.9,0.4-0.9,0.9
			c0,0.2,0.1,0.5,0.3,0.6c0.2,0.2,0.4,0.3,0.6,0.3C158.4,343,158.7,342.9,158.8,342.8z"/>
		<path class="st1" d="M175.7,333.4c0.5,0,0.9-0.4,0.9-0.9c0-0.5-0.4-0.9-0.9-0.9c-0.5,0-0.9,0.4-0.9,0.9c0,0.2,0.1,0.5,0.3,0.6
			C175.3,333.3,175.5,333.4,175.7,333.4z"/>
		<rect x="227.4" y="334.8" class="st1" width="1.6" height="1.5"/>
		<rect x="230.5" y="334.8" class="st1" width="1.6" height="1.5"/>
		<rect x="233.6" y="334.8" class="st1" width="1.6" height="1.5"/>
		<path class="st1" d="M260,348h1.6c0-1.3,1-2.3,2.3-2.3v-1.5c-1.3,0-2.3-1-2.3-2.3H260c0,1.3-1,2.3-2.3,2.3v1.5
			C259,345.7,260,346.7,260,348z M260.8,344.1c0.2,0.3,0.5,0.6,0.8,0.8c-0.3,0.2-0.6,0.5-0.8,0.8c-0.2-0.3-0.5-0.6-0.8-0.8
			C260.3,344.7,260.5,344.4,260.8,344.1L260.8,344.1z"/>
		<path class="st1" d="M264.6,339.4h1.5c0-1.3,1-2.3,2.3-2.3v-1.5c-1.3,0-2.3-1-2.3-2.3h-1.5c0,1.3-1,2.3-2.3,2.3v1.5
			C263.6,337.1,264.6,338.1,264.6,339.4z M265.4,335.5c0.2,0.3,0.5,0.6,0.8,0.8c-0.3,0.2-0.6,0.5-0.8,0.8c-0.2-0.3-0.5-0.6-0.8-0.8
			C264.9,336.1,265.2,335.8,265.4,335.5z"/>
		<path class="st1" d="M251,375.4c-8.4-0.9-16.6-3.5-23.9-7.8l-2.1-1.3c0.3-0.7,0.5-1.5,0.7-2.3c0.1-0.2,0.1-0.5,0.2-0.7
			c0.2-0.6,0.3-1.7,0.6-2.9c0.2-1.6,0.6-3.2,1-4.8l4.6-11.9c0.1-0.3,0.2-0.5,0.3-0.8c0.2-0.7,0.5-1.4,1-2c0.3-0.2,0.6-0.4,1-0.6
			l0.1-0.1l9.2-7c0.5-0.4,1.1-0.4,1.6,0l4.6,3.7c0.3,0.2,0.5,0.6,0.5,1c0,0.4-0.1,0.7-0.4,1l-2.9,2.6c-0.5,0.4-1.2,0.4-1.7,0
			c-0.3-0.3-0.4-0.6-0.4-1c0-0.4,0.2-0.7,0.6-0.9l0.3-0.2l-0.8-1.3l-0.3,0.2c-0.7,0.5-1.2,1.2-1.2,2.1c-0.2,1.5,1,2.9,2.5,3.1
			c0.8,0.1,1.5-0.2,2.1-0.7l2.5-2.2l0.8,1.1l-4.6,4l-5.6-0.7c0.1-0.4,0.2-0.8,0.3-1.2l-1.5-0.4c-0.5,1.8-0.8,3.6-0.7,5.5
			c0,1,0.1,2,0.2,3c0.1,1.1,0.2,2.2,0.2,3.3c0.1,3.1-1.2,6-3.4,8.1l1,1.2c1.5-1.3,2.6-3.1,3.2-5c0.3-0.1,0.6-0.1,0.8,0
			c1,0.1,2,0.4,2.9,0.8c-0.4,0.6-0.7,1.3-0.9,1.9l1.5,0.5c0.2-0.6,0.5-1.2,0.8-1.7h0.1l0.7-1.1c1.6-1.7,3.8-2.8,6.1-3.1
			c3.8-0.6,7.2,0.7,9.1,3.4l1.3-0.9c-0.8-1.1-1.8-2-3-2.7c2.3-1.9,5.4-2.5,8.3-1.6l0.5-1.5c-3.6-1.2-7.6-0.3-10.3,2.3
			c-2-0.7-4.1-0.9-6.1-0.6c-2.7,0.4-5.3,1.7-7.1,3.7c-1.2-0.6-2.5-0.9-3.8-1.1h-0.5c0.2-0.9,0.3-1.7,0.3-2.6c0-1.2-0.1-2.3-0.2-3.5
			c-0.1-0.9-0.2-1.9-0.2-2.8c0-0.8,0-1.6,0.1-2.3l5.9,0.7h0.1c0.2,0,0.4-0.1,0.5-0.2l5.4-4.7c0.3-0.3,0.3-0.7,0.1-1l-1.4-2
			c0.7-1.2,0.4-2.7-0.7-3.5l-4.6-3.7c-1-0.8-2.5-0.8-3.5,0l-8.8,6.8l-0.3,0.2c-0.5,0.2-0.9,0.5-1.3,0.8c-0.7,0.7-1.2,1.7-1.4,2.7
			c-0.1,0.3-0.2,0.5-0.3,0.8l-4.6,11.8c-0.5,1.7-0.9,3.4-1.1,5.1c-0.2,1.1-0.4,2.2-0.5,2.8c-0.1,0.2-0.1,0.5-0.2,0.7
			c-0.2,0.9-0.4,1.7-0.9,2.5c-0.2,0.4-0.1,0.8,0.3,1.1l2.7,1.6c7.5,4.4,15.9,7.1,24.5,8c0.6,0,1.4,0.1,2.3,0.1
			c4.5,0,11.7-0.8,15.1-3.6l-1-1.2C263.7,375.1,254.9,375.7,251,375.4z"/>
		<g id="_023---Moisturising-Face">
			<path id="Shape" class="st1" d="M315.8,362.9l-1.8-4.4c-0.6-1.3-2.1-1.9-3.5-1.3s-1.9,2.1-1.3,3.5l0,0c3.5,7.6,3.6,8.4,5.2,10
				l6.1,6.1c0.1,0.1,0.3,0.2,0.5,0.2h8.2c0.4,0,0.8-0.3,0.8-0.8c0.1-1.5,0-3.1-0.3-4.6c0.7,0.1,1.3,0.1,2,0
				c-0.3,1.5-0.4,3.1-0.3,4.6c0,0.4,0.3,0.8,0.8,0.8h8.2c0.2,0,0.4-0.1,0.5-0.2l6.1-6.1c1.5-1.5,1.6-2.3,5.2-10
				c0.6-1.3,0-2.9-1.3-3.5s-2.9,0-3.5,1.3l-1.9,4.4c-0.9-0.6-2-0.8-3-0.6c0.4-0.9,0.6-1.7,0.9-2.6c1.5-0.3,5.2-1.6,5.2-7.4
				c0-2-0.3-4.4-2.3-4.6c2.7-4.2,3.8-9.3,3.1-14.3l-0.3-1.4c-0.1-0.4-0.4-0.6-0.8-0.6H313c-0.4,0-0.7,0.2-0.7,0.6l-0.3,1.4
				c-0.7,5,0.4,10,3.1,14.3c-1.9,0.3-2.3,2.7-2.3,4.6c0,5.7,3.7,7.1,5.2,7.4c0.2,0.9,0.5,1.8,0.9,2.6
				C317.8,362.1,316.7,362.3,315.8,362.9L315.8,362.9z M328.5,375.5h-7.2l-5.9-5.9c-1.2-1.2-1.2-1.6-4.9-9.5c-0.2-0.6,0-1.2,0.6-1.5
				c0.2-0.1,0.4-0.1,0.5-0.1c0.4,0,0.7,0.3,0.9,0.6c3.1,7.2,1.9,5.4,7.9,11.5c0.3,0.3,0.8,0.3,1.1,0c0.3-0.3,0.3-0.8,0-1.1
				c-4.2-4.2-4.4-4.3-5-5.3c0.8-0.7,2.1-0.7,2.9,0c1.6,1.4,3.4,2.6,5.4,3.4c1.8,0.6,3.6,2.9,3.6,6.1L328.5,375.5z M329.2,370
				c-0.7-1.7-2.1-3.1-3.8-3.8c-1.5-0.6-2.9-1.4-4.1-2.5c-2.6-4.6-3-10.2-3-15.5c1.6-2.8,5.8-9.4,12.4-13.4
				c6.6,4,10.9,10.6,12.5,13.4c0,5.4-0.3,10.7-2.9,15.4c-1.2,1.1-2.7,1.9-4.2,2.5c-1.7,0.7-3.1,2-3.8,3.7
				C331.3,370.2,330.2,370.2,329.2,370L329.2,370z M345,364.3c-0.6,1-0.8,1.1-5,5.2c-0.3,0.3-0.3,0.8,0,1.1c0.3,0.3,0.8,0.3,1.1,0
				c6-6,4.8-4.3,7.9-11.5c0.2-0.4,0.5-0.6,0.9-0.6c0.4,0,0.8,0.1,1,0.5c0.2,0.3,0.3,0.7,0.1,1.1c-3.6,7.8-3.6,8.3-4.9,9.5l-5.9,5.9
				H333v-1.7c0-1.6,0.5-3.3,1.5-4.6c1.8-2.2,2.4-0.6,7.5-5C342.8,363.5,344.1,363.5,345,364.3L345,364.3z M347.2,352.3
				c0,3.8-1.9,5.2-3.2,5.7c0.5-2.7,0.8-5.4,0.8-8.2c0.7-0.5,1.3-0.7,1.7-0.5C346.6,349.3,347.2,349.8,347.2,352.3L347.2,352.3z
				 M347.9,332.9c1,5.1-0.1,10.3-3.1,14.6c-0.1-5.7-1.6-9.5-4.6-11.9c-0.3-0.3-0.8-0.2-1.1,0.1c-0.3,0.3-0.2,0.8,0.1,1.1
				c2.2,1.7,3.5,4.4,3.8,8.3c-3-4.6-7.8-9.5-12.6-12.2L347.9,332.9z M313.7,332.9H324c-1.7,1.1-3.2,2.5-4.5,4.1
				c-0.3,0.3-0.2,0.8,0.1,1.1s0.8,0.2,1.1-0.1c1.7-2.1,3.8-3.8,6.3-5c0.8,0.3,1.5,0.6,2.3,1c-6.4,4.1-10.4,10.2-12.4,13.6
				C313.8,343.4,312.7,338.1,313.7,332.9L313.7,332.9z M314.4,352.3c0-2.5,0.6-3,0.8-3.1c0.3-0.2,1,0,1.7,0.5c0,2.8,0.3,5.5,0.8,8.2
				C316.2,357.5,314.3,356.1,314.4,352.3L314.4,352.3z"/>
			<path id="Shape-2" class="st1" d="M322,348c0.8-0.4,1.7-0.5,2.5-0.2l3,1c0.4,0.1,0.8-0.1,1-0.5c0-0.1,0.1-0.3,0-0.4
				c-0.1-0.3-0.2-0.5-0.5-0.6l-3-1c-1.2-0.4-2.6-0.3-3.7,0.3c-0.2,0.1-0.4,0.4-0.4,0.6c0,0.3,0.1,0.5,0.3,0.7
				C321.5,348.1,321.8,348.1,322,348L322,348z"/>
			<path id="Shape-3" class="st1" d="M333.8,348.8c0.2,0,0,0,3.2-1c0.8-0.3,1.8-0.2,2.5,0.2c0.2,0.1,0.5,0.1,0.8,0
				c0.4-0.2,0.5-0.7,0.2-1.1c-0.1-0.1-0.2-0.2-0.3-0.3c-1.2-0.6-2.5-0.7-3.7-0.3l-2.9,1c-0.4,0.1-0.6,0.5-0.5,0.8
				C333.1,348.6,333.4,348.9,333.8,348.8L333.8,348.8z"/>
			<path id="Shape-4" class="st1" d="M327.7,351.7c-0.1-0.4-0.6-0.6-1-0.5c0,0,0,0,0,0c-1.6,0.5-3.2,0.2-4.6-0.6
				c-0.3-0.2-0.7-0.2-1,0.1c-0.3,0.3-0.6,0.5-1,0.5c-0.4,0-0.8,0.3-0.8,0.7c0,0.4,0.3,0.8,0.7,0.8c0.1,0,0.1,0,0.2,0
				c0.6,0,1.1-0.2,1.6-0.6l0.3,0.2c-0.1,0.2-0.2,0.3-0.4,0.4c-0.4,0-0.8,0.3-0.8,0.8c0,0,0,0,0,0c0,0.9,1.4,1.3,2.6-0.6
				c1.2,0.3,2.5,0.2,3.7-0.2C327.6,352.5,327.8,352.1,327.7,351.7C327.6,351.7,327.6,351.7,327.7,351.7L327.7,351.7z"/>
			<path id="Shape-5" class="st1" d="M339.4,350.6c-1.4,0.9-3.1,1.1-4.6,0.6c-0.4-0.2-0.8,0-1,0.4c-0.2,0.4,0,0.8,0.4,1
				c0,0,0.1,0,0.2,0.1c1.2,0.4,2.5,0.4,3.7,0.2c0.4,0.7,1.1,1.2,1.9,1.4c0.4,0,0.8-0.3,0.8-0.7c0,0,0,0,0,0c0-0.2-0.1-0.4-0.2-0.5
				c-0.1-0.1-0.3-0.2-0.5-0.2c-0.2-0.1-0.3-0.2-0.4-0.4l0.3-0.2c0.5,0.3,1,0.5,1.6,0.6c0.4,0,0.7-0.4,0.7-0.8c0-0.4-0.3-0.6-0.7-0.7
				c-0.4-0.1-0.7-0.3-1-0.5C340.1,350.4,339.7,350.4,339.4,350.6z"/>
			<path id="Shape-6" class="st1" d="M328,357.9c1.6,1.1,3.8,1.1,5.4,0c0.2-0.1,0.4-0.4,0.3-0.7c0-0.4-0.4-0.7-0.8-0.7
				c-0.1,0-0.3,0.1-0.4,0.1c-1.1,0.7-2.6,0.7-3.7,0c-0.3-0.2-0.8-0.2-1.1,0.2C327.6,357.2,327.7,357.6,328,357.9
				C328,357.9,328,357.9,328,357.9L328,357.9z"/>
			<path id="Shape-7" class="st1" d="M335.3,362.4c0-0.3-0.1-0.5-0.3-0.7c-0.2-0.2-0.4-0.3-0.7-0.3c-0.6,0-2.5-1.2-3.6-1.2
				s-2.9,1.2-3.6,1.2c-0.3,0-0.5,0.1-0.7,0.2c-0.2,0.2-0.3,0.4-0.3,0.7c0,1.1,2.1,2.4,4.5,2.4S335.3,363.5,335.3,362.4z
				 M330.8,361.8c0.8,0.2,1.6,0.5,2.4,0.9c-1.5,0.8-3.3,0.8-4.8,0C329.1,362.4,329.9,362.1,330.8,361.8z"/>
			<path id="Shape-8" class="st1" d="M331.5,366.4H330c-0.4,0-0.8,0.3-0.8,0.8c0,0.4,0.3,0.8,0.8,0.8h1.5c0.4,0,0.8-0.3,0.8-0.8
				C332.3,366.7,331.9,366.4,331.5,366.4L331.5,366.4z"/>
			<circle id="Oval" class="st1" cx="317.9" cy="339.8" r="0.8"/>
		</g>
		<path class="st7" d="M399.5,370l-2.2-7.2c-0.1-0.2-0.3-0.3-0.5-0.3c-0.1,0-0.1,0.1-0.2,0.1l-5,4.8c-0.2,0.2-0.2,0.4,0,0.6
			c0,0.1,0.1,0.1,0.2,0.1l7.2,2.5c0.2,0.1,0.5,0,0.5-0.3C399.5,370.2,399.5,370.1,399.5,370z"/>
		<path class="st8" d="M394.1,365.2c-6.8-9.6-4.6-23,5.1-29.8c3.6-2.6,7.9-3.9,12.4-3.9"/>
		<path class="st7" d="M423.9,335.9l2.2,7.2c0.1,0.2,0.3,0.3,0.5,0.3c0.1,0,0.1,0,0.1-0.1l5-4.8c0.2-0.2,0.2-0.4,0-0.6
			c0,0-0.1-0.1-0.1-0.1l-7.2-2.5c-0.2-0.1-0.4,0-0.5,0.2C423.8,335.8,423.8,335.9,423.9,335.9z"/>
		<path class="st8" d="M429.2,340.7c6.8,9.6,4.6,23-5.1,29.8c-3.6,2.6-8,4-12.4,4"/>
		<path class="st7" d="M415.6,363c-3.7,1.4-7.9,0.7-10.9-1.9"/>
		<path class="st7" d="M406.4,343.8c5.1-2.9,11.7-1.1,14.6,4c1.6,2.8,1.8,6.2,0.6,9.3"/>
		<path class="st7" d="M401.6,356.5c-0.4-1.1-0.6-2.3-0.6-3.5c0-1.9,0.5-3.8,1.5-5.4"/>
		<circle class="st7" cx="403.8" cy="345" r="2.9"/>
		<circle class="st7" cx="403.8" cy="358.4" r="2.7"/>
		<circle class="st7" cx="418.5" cy="359.9" r="4.1"/>
		<path class="st7" d="M408.8,342.7v-0.3c0-3.1,2.5-5.7,5.7-5.7c3.1,0,5.7,2.5,5.7,5.7c0,0,0,0,0,0c0,1.1-0.3,2.1-0.9,3"/>
		<text transform="matrix(1 0 0 1 233.02 423.69)" class="st9 st10">活力</text>
		<text transform="matrix(1 0 0 1 393.58 423.69)" class="st9 st10">代謝</text>
		<text transform="matrix(1 0 0 1 317.86 423.69)" class="st9 st10">美容</text>
		<text transform="matrix(1 0 0 1 151.35 423.69)" class="st9 st10 st11">若</text>
		<text transform="matrix(1 0 0 1 170.46 423.69)" class="st9 st10 st12">さ</text>
	</g>
	<g>
		<path class="st13" d="M261.6,213.4h-3.7v1.2c0,3.4-1.1,6.9-5.7,9c-0.2-0.3-0.6-0.6-0.9-0.9c4.5-2,5.4-5.2,5.4-8.1v-1.3h-5.8v4.5
			h-1.3v-4.5H246v-1.2h3.5v-3.9l1.7,0.1c0,0.2-0.2,0.3-0.4,0.4v3.4h5.8v-4.1l1.7,0.1c0,0.2-0.2,0.3-0.4,0.3v3.7h3.7V213.4z"/>
		<path class="st13" d="M263.9,215.6h6.6v1.2h-6.6V215.6z"/>
		<path class="st13" d="M287.9,215.7h-6.2c-0.4,3.4-1.6,6-5,8c-0.3-0.3-0.7-0.6-1-0.9c3.2-1.8,4.4-4,4.8-7.1H273v-1.2h7.4
			c0.1-1.2,0.1-2.4,0.1-3.8c-1.8,0.4-4.2,0.8-6.2,1c-0.1-0.3-0.2-0.7-0.4-1c6.3-0.8,10-2,11.1-2.5l0.9,1.1c-0.1,0-0.1,0.1-0.2,0.1
			c-0.1,0-0.1,0-0.2,0c-1,0.4-2.6,0.8-4,1.2l0.6,0.1c0,0.2-0.1,0.3-0.4,0.3c0,1.3,0,2.6-0.1,3.7h6.1V215.7z"/>
		<path class="st13" d="M302.1,221.2v1h-12.2v-1h7.3c0.3-1.8,0.8-5.4,0.9-7.2h-6.8v-1h7.2l0.2-0.1l0.9,0.4c0,0.1-0.1,0.1-0.2,0.2
			c-0.2,1.9-0.8,5.8-1.1,7.7H302.1z"/>
		<path class="st13" d="M319,209.2c-0.1,0.1-0.2,0.1-0.3,0.1c-0.1,0-0.1,0-0.2,0c-1.4,1.4-3.4,3-5.1,4.3c0.1,0.1,0.4,0.2,0.4,0.2
			c0,0.1-0.2,0.2-0.4,0.2v9.6h-1.3v-9.2c-1.9,1.3-4.4,2.8-6.8,4c-0.2-0.3-0.5-0.7-0.8-1c4.9-2.3,10.2-6.1,13.1-9.3L319,209.2z"/>
		<path class="st13" d="M322.1,209.5c1.9,0.6,4,1.5,5.3,2.4l-0.7,1.1c-1.3-0.9-3.4-1.9-5.2-2.5L322.1,209.5z M322,221.9
			c6.4-2,10.6-5.5,12.7-10.5c0.4,0.3,0.8,0.5,1.2,0.7c-2.2,4.9-6.6,8.7-12.7,10.7c0,0.2-0.1,0.3-0.3,0.4L322,221.9z"/>
	</g>
	<g>
		<path class="st13" d="M263.3,245.1v7.3c1.7,2.6,4.9,2.6,9,2.6c2.4,0,5.3-0.1,7-0.2c-0.2,0.3-0.4,1-0.5,1.4c-1.5,0-3.9,0.1-6.1,0.1
			c-4.8,0-7.9,0-10-2.7c-1,1-2,2-2.9,2.7c0,0.2,0,0.2-0.2,0.3l-0.8-1.5c0.9-0.7,2.1-1.7,3.1-2.6v-6H259v-1.4H263.3z M260.4,236.9
			c1.4,1,2.9,2.6,3.6,3.7l-1.2,0.9c-0.6-1.1-2.2-2.7-3.6-3.8L260.4,236.9z M279,242.2v1.1h-14.9v-1.1h6.5v-1.1h-4.8v-3.4h4.8v-1.3
			l1.8,0.1c0,0.2-0.2,0.2-0.4,0.3v0.9h5v3.4h-5v1.1H279z M273.7,251.4c1.7,0.7,3.6,1.6,4.8,2.3l-1.3,0.7c-1.1-0.7-2.9-1.6-4.6-2.4
			l0.9-0.6h-4l1.3,0.5c-0.1,0.2-0.3,0.2-0.5,0.2c-1.1,0.9-2.8,1.8-4.2,2.4c-0.2-0.2-0.7-0.6-1-0.8c1.4-0.5,3-1.3,4-2.2h-3v-7.1H277
			v7.1H273.7z M267.3,240.1h3.4v-1.5h-3.4V240.1z M267.5,245.2v1.1h8.1v-1.1H267.5z M267.5,247.2v1.2h8.1v-1.2H267.5z M267.5,249.3
			v1.2h8.1v-1.2H267.5z M275.7,238.7h-3.6v1.5h3.6V238.7z"/>
		<path class="st13" d="M283.8,244.1c-0.8,1.4-1.8,2.6-2.7,3.7c-0.2-0.4-0.5-1-0.8-1.4c2.1-2.3,4.2-6.1,5.5-9.9l1.8,0.6
			c-0.1,0.2-0.2,0.2-0.5,0.2c-0.6,1.5-1.3,3.1-2,4.5l0.6,0.2c0,0.1-0.2,0.2-0.4,0.3v14.6h-1.4V244.1z M297.4,249.1
			c1.7,2.2,3.4,5.1,4.1,7l-1.4,0.7c-0.2-0.6-0.5-1.2-0.8-2c-4.4,0.4-8.9,0.7-11.9,1c0,0.2-0.2,0.3-0.3,0.3l-0.6-1.8l2.6-0.1
			c0.9-2.2,2-5.4,2.6-7.9h-4.9v-1.4h14.6v1.4h-8l0.3,0.1c-0.1,0.2-0.2,0.2-0.5,0.3c-0.6,2.2-1.6,5.3-2.6,7.5l8.1-0.5
			c-0.7-1.3-1.6-2.7-2.5-3.9L297.4,249.1z M300.1,238.1v1.4h-11.6v-1.4H300.1z"/>
		<path class="st13" d="M323.1,246.3v1.5h-9.3v7c0,1.1-0.3,1.5-1.1,1.8c-0.8,0.2-2.2,0.3-4.4,0.3c-0.1-0.4-0.4-1.1-0.6-1.5
			c1.2,0,2.3,0.1,3,0.1c1.4,0,1.6,0,1.6-0.6v-6.9H303v-1.5h9.3v-3.6l0.9,0c1.7-0.9,3.6-2.2,5-3.4h-12.9v-1.5h14.6l0.3-0.1l1.3,0.9
			c-0.1,0.1-0.2,0.2-0.4,0.2c-1.8,1.7-4.7,3.8-7.2,5.1v2.4H323.1z"/>
	</g>
</g>
</svg>
