<svg xmlns="http://www.w3.org/2000/svg" viewBox="0 0 20.45 20.45"><defs><style>.cls-1{fill:#43a5d9;}</style></defs><title>Asset 60</title><g id="Layer_2" data-name="Layer 2"><g id="Layer_2-2" data-name="Layer 2"><path class="cls-1" d="M5.85,5.39a6.25,6.25,0,0,0-2.16,4.84A6.28,6.28,0,0,0,5.38,14.6a6.25,6.25,0,0,0,4.84,2.16,6.29,6.29,0,0,0,4.38-1.69,6.25,6.25,0,0,0,2.16-4.84,6.28,6.28,0,0,0-1.69-4.37A6.26,6.26,0,0,0,10.22,3.7,6.32,6.32,0,0,0,5.85,5.39ZM14.09,6A5.5,5.5,0,0,1,16,10.23a5.59,5.59,0,0,1-1.46,3.86A5.51,5.51,0,0,1,10.22,16,5.59,5.59,0,0,1,6.36,14.5a5.47,5.47,0,0,1-1.87-4.27A5.55,5.55,0,0,1,6,6.38,5.51,5.51,0,0,1,10.22,4.5,5.6,5.6,0,0,1,14.09,6Zm-9-4.57A10.25,10.25,0,0,0,1.39,5.06,10.09,10.09,0,0,0,0,10.22a10.17,10.17,0,0,0,5.06,8.83,10.23,10.23,0,0,0,10.33,0,10,10,0,0,0,3.66-3.66,10.23,10.23,0,0,0,0-10.33A10.17,10.17,0,0,0,10.22,0,10.07,10.07,0,0,0,5.06,1.39ZM15,2.1a9.38,9.38,0,0,1,4.65,8.12,9.38,9.38,0,0,1-9.41,9.41,9.37,9.37,0,0,1-9.4-9.41,9.38,9.38,0,0,1,9.4-9.4A9.31,9.31,0,0,1,15,2.1Z"/></g></g></svg>