<svg xmlns="http://www.w3.org/2000/svg" viewBox="0 0 13.97 19.97"><defs><style>.cls-1{fill:#43a5d9;}</style></defs><title>Asset 61</title><g id="Layer_2" data-name="Layer 2"><g id="Layer_2-2" data-name="Layer 2"><path class="cls-1" d="M8.77,8.77A2.47,2.47,0,0,0,9.47,7a2.46,2.46,0,0,0-.7-1.78A2.43,2.43,0,0,0,7,4.5,2.4,2.4,0,0,0,4.5,7,2.4,2.4,0,0,0,7,9.47,2.47,2.47,0,0,0,8.77,8.77ZM12,2a6.86,6.86,0,0,1,2,5,17.26,17.26,0,0,1-3.49,8.47A50,50,0,0,1,7,20a53.38,53.38,0,0,1-3.49-4.52A17.16,17.16,0,0,1,0,7,6.9,6.9,0,0,1,7,0,6.86,6.86,0,0,1,12,2Z"/></g></g></svg>