<svg xmlns="http://www.w3.org/2000/svg" viewBox="0 0 18 18"><defs><style>.cls-1{fill:#43a5d9;}</style></defs><title>Asset 62</title><g id="Layer_2" data-name="Layer 2"><g id="Layer_2-2" data-name="Layer 2"><path class="cls-1" d="M5.81,5.58a1,1,0,0,0,.24-1A11.12,11.12,0,0,1,5.48,1,1,1,0,0,0,5.2.3.91.91,0,0,0,4.5,0H1A1,1,0,0,0,.3.3,1,1,0,0,0,0,1,16.79,16.79,0,0,0,2.27,9.54a16.86,16.86,0,0,0,6.19,6.19A16.79,16.79,0,0,0,17,18a.93.93,0,0,0,.68-.31A.92.92,0,0,0,18,17V13.5a.91.91,0,0,0-.3-.7,1,1,0,0,0-.68-.28A11.12,11.12,0,0,1,13.45,12a.87.87,0,0,0-1,.24l-2.2,2.2A14.68,14.68,0,0,1,3.61,7.78Z"/></g></g></svg>