<svg xmlns="http://www.w3.org/2000/svg" viewBox="0 0 40 34.64"><defs><style>.cls-1{fill:#5f8f1d;}</style></defs><title>Asset 72</title><g id="Layer_2" data-name="Layer 2"><g id="Layer_3" data-name="Layer 3"><path class="cls-1" d="M40,6.6S39.35,0,29.12,0H.67A.67.67,0,0,0,0,.56c0,.32.12.75.45.74.91,0,1.54,1,1.54,2.26a9.76,9.76,0,0,0,9.76,9.76H28.19a4.05,4.05,0,0,0,1.09,3.57,4,4,0,0,0,5.61,0l0,0a4,4,0,0,0,.33-5.27,13,13,0,0,0,2-1.46,15.36,15.36,0,0,0,1.44-1.47c-.11,2.42-.7,6.55-3.33,9.51L23,30.76a8.48,8.48,0,0,1-2.71,1.87,8.14,8.14,0,0,1-3.18.68c-4.32.1-5.51-3.6-7.86-3.53L23.58,15l-.95-.93L6.87,30.26a.68.68,0,0,0,0,.95.67.67,0,0,0,.77.11,2.12,2.12,0,0,1,2.75.39c1.66,1.56,3,2.93,6.67,2.93a9.93,9.93,0,0,0,3.7-.79,9.8,9.8,0,0,0,3.13-2.16L36.29,19.12l0,0C40.59,14.3,40,6.6,40,6.6ZM34,16h0a2.64,2.64,0,0,1-3.73,0v0a2.68,2.68,0,0,1-.67-2.64A11.49,11.49,0,0,0,34,12.25,2.68,2.68,0,0,1,34,16Zm2.34-6.76h0A10.63,10.63,0,0,1,29.12,12H11.76A8.43,8.43,0,0,1,3.33,3.56a3.77,3.77,0,0,0-.68-2.23H29.12A13.45,13.45,0,0,1,35,2.51a6.76,6.76,0,0,1,3.58,4.06A13.2,13.2,0,0,1,36.31,9.19Z"/><path class="cls-1" d="M28.33,23.51l0,0a4,4,0,0,0,0-5.65,3.94,3.94,0,0,0-5.6,0l0,0a4,4,0,0,0,0,5.65A4,4,0,0,0,28.33,23.51Zm-4.66-1a2.69,2.69,0,0,1,0-3.77,2.63,2.63,0,0,1,3.72,0l0,0a2.69,2.69,0,0,1,0,3.77,2.63,2.63,0,0,1-3.72,0Z"/><path class="cls-1" d="M19,23.26a3.94,3.94,0,0,0-2.81,1.17,4,4,0,0,0,0,5.65,4,4,0,0,0,5.61,0l0,0a4,4,0,0,0,0-5.65A4,4,0,0,0,19,23.26Zm2.13,5.8a.22.22,0,0,1-.26.08,2.63,2.63,0,0,1-3.72,0l0,0a2.69,2.69,0,0,1,0-3.77,2.64,2.64,0,0,1,3.73,0h0A2.57,2.57,0,0,1,21.11,29.06Z"/><path class="cls-1" d="M13.46,5.06a2.67,2.67,0,0,1-4.27,3.2l-1.06.8a4,4,0,1,0,6.39-4.8Z"/><path class="cls-1" d="M22.78,5.06a2.66,2.66,0,0,1-4.26,3.2l-1.07.8a4,4,0,1,0,6.4-4.8Z"/><path class="cls-1" d="M32.11,5.06a2.66,2.66,0,0,1-4.26,3.2l-1.07.8a4,4,0,1,0,6.4-4.8Z"/></g></g></svg>