<svg xmlns="http://www.w3.org/2000/svg" viewBox="0 0 40 39.66"><defs><style>.cls-1{fill:#5f8f1d;}</style></defs><title>Asset 71</title><g id="Layer_2" data-name="Layer 2"><g id="Layer_3" data-name="Layer 3"><path class="cls-1" d="M37.6,5.35a2.31,2.31,0,0,1,1.32-.91l1-.33-.73-.73a5.19,5.19,0,0,0-4.81-1.1A6.06,6.06,0,0,1,34.82.92L35.29,0h-1C34,0,29.13.05,27.47,3.76c-.56-.14-1.15-.28-1.78-.41A1.68,1.68,0,0,1,25.85,3a1.89,1.89,0,0,0,.29-1.44A1.92,1.92,0,0,0,25.32.32a1.91,1.91,0,0,0-2.65.53,9.82,9.82,0,0,0-1.13,5.34,5.73,5.73,0,0,0-3.3,1.89c-2.38,2.83-1.76,7.79-1,12.08l-.2-.23a25.63,25.63,0,0,1-3.22-5.79c-1.66-3.7-3.39-7.52-7.66-7.31a21.82,21.82,0,0,1-.91-2.09,12.6,12.6,0,0,0,3.69-.68,7,7,0,0,0,2.79.61,5.32,5.32,0,0,0,3.44-1.22l-.81-1a4.31,4.31,0,0,1-4,.76,2,2,0,0,0,.44-.77.29.29,0,0,0,0-.09,1.61,1.61,0,0,0,.06-.44A1.92,1.92,0,1,0,7,1.92a1.86,1.86,0,0,0,.47,1.23,16.06,16.06,0,0,1-2.71.34c-.23-.77-.34-1.27-.35-1.31A1.92,1.92,0,0,0,2.56.64a1.58,1.58,0,0,0-.38,0A1.9,1.9,0,0,0,.68,2.93,23.5,23.5,0,0,0,2.46,8,6.54,6.54,0,0,0,0,13.41c0,4.26,1.66,9.73,4.55,15C7.1,33,13.32,39.58,19.15,39.58a11.2,11.2,0,0,0,5.1-1,8.93,8.93,0,0,0,4.45,1.11,13.07,13.07,0,0,0,1.38-.08c4.13-.47,6-2.85,5.59-7.08a30.58,30.58,0,0,0-2.2-8.58,24.41,24.41,0,0,1-1.13-3.47c-.24-1.13-.41-2.39-.57-3.6a29.37,29.37,0,0,0-1.22-6c.7-.12,1.45.5,2,1l.67.71.39-.91c0-.1,1.15-2.57,5.57-.92l.86.33v-.93C40,10.05,40,6.49,37.6,5.35ZM8.94,1.28a.64.64,0,0,1,.64.64.65.65,0,0,1,0,.19,1,1,0,0,1-.33.38.6.6,0,0,1-.27.06.64.64,0,1,1,0-1.27ZM25.45,4.6c.57.12,1.11.25,1.63.38a11.4,11.4,0,0,0-.23,1.61,7,7,0,0,0-1.47-.45A13.66,13.66,0,0,1,25.45,4.6Zm-1.72-3a.65.65,0,0,1,.88-.18.61.61,0,0,1,.27.41.62.62,0,0,1-.09.48A7.81,7.81,0,0,0,24.1,6h-.54l-.74,0A8.49,8.49,0,0,1,23.73,1.56ZM1.93,2.68a.63.63,0,0,1,.5-.75.67.67,0,0,1,.75.5A22.49,22.49,0,0,0,4.79,7a7,7,0,0,0-1.22.4A22.27,22.27,0,0,1,1.93,2.68ZM22.13,38A38.07,38.07,0,0,1,7,19.29l-1.19.45A39.61,39.61,0,0,0,20.24,38.26c-.35,0-.71,0-1.09,0C13.9,38.3,8,32,5.67,27.78,2.88,22.7,1.28,17.46,1.28,13.41c0-1.42.43-4.78,4.44-5.28,3.59-.44,5,2.2,6.91,6.54A26,26,0,0,0,16,20.74c.51.63,1,1.24,1.59,1.83.11.64.2,1.24.26,1.76a42.87,42.87,0,0,0,.82,5.16,37.39,37.39,0,0,1-7.89-11.63l-1.17.51a38.06,38.06,0,0,0,9.71,13.46,19.19,19.19,0,0,0,.95,2.3A11,11,0,0,0,23,37.7,7.32,7.32,0,0,1,22.13,38Zm9-17.25a25.39,25.39,0,0,0,1.19,3.65,29.83,29.83,0,0,1,2.12,8.25c.35,3.55-1,5.3-4.47,5.69-3.89.44-6.66-1.12-8.49-4.76-1.6-3.18-2.05-7.2-2.29-9.36-.1-.89-.29-2-.48-3.08-.71-4-1.67-9.57.55-12.21a5.3,5.3,0,0,1,4.34-1.65A6.37,6.37,0,0,1,26.82,8a10.83,10.83,0,0,0,1.12,4.4l.64,1.28.52-1.34a3.93,3.93,0,0,1,.38-.67,30.71,30.71,0,0,1,1,5.33C30.67,18.25,30.84,19.54,31.09,20.72ZM32.87,10.5a3.06,3.06,0,0,0-2.57-.88,3,3,0,0,0-1.69,1.11,10.49,10.49,0,0,1-.29-5.42,27.75,27.75,0,0,1,5.83,2.26l.65-1.09A26.88,26.88,0,0,0,28.72,4.1c1-1.93,3.26-2.54,4.56-2.73A6.71,6.71,0,0,0,33,3.19v.95l.87-.35a4.46,4.46,0,0,1,3.58,0,2.6,2.6,0,0,0-1.26,2v.49l.48.12c1.35.34,1.82,1.92,2,2.94C35.31,8.36,33.61,9.61,32.87,10.5Z"/><path class="cls-1" d="M26.92,17.4c1.06,3.94,3.49,13.67,3,18.94l1.27.1c.44-5.27-1.75-14.4-3.09-19.37Z"/><path class="cls-1" d="M27.8,15.79c-.23-.82-.37-1.29-.37-1.29l-1.23.37s.14.46.37,1.26Z"/><path class="cls-1" d="M21.17,17.92c.27,4.31,1.23,12.4,4.59,18.15l1.11-.64c-3.23-5.53-4.16-13.4-4.43-17.6Z"/><path class="cls-1" d="M22.34,15.32H21.07s0,.48,0,1.31l1.28-.06C22.34,15.79,22.34,15.33,22.34,15.32Z"/><path class="cls-1" d="M5,17.42c.1.34.23.72.37,1.13l1.21-.41c-.14-.4-.26-.76-.36-1.09Z"/><path class="cls-1" d="M9.92,15.62l-1.21.43c.13.34.28.76.47,1.23l1.19-.47C10.19,16.35,10,16,9.92,15.62Z"/></g></g></svg>