<svg xmlns="http://www.w3.org/2000/svg" viewBox="0 0 40 39.95"><defs><style>.cls-1{fill:#5f8f1d;}</style></defs><title>Asset 73</title><g id="Layer_2" data-name="Layer 2"><g id="Layer_3" data-name="Layer 3"><path class="cls-1" d="M38.55,15a7.29,7.29,0,0,0-2.65-2.16,8.14,8.14,0,0,0,.08-1.1,7.23,7.23,0,0,0-9.19-7,7.39,7.39,0,0,0-2.05-3,7.23,7.23,0,0,0-9.48,0,7.39,7.39,0,0,0-2,3,7.31,7.31,0,0,0-2-.27A7.22,7.22,0,0,0,4,11.71a8.14,8.14,0,0,0,.08,1.1A7.29,7.29,0,0,0,1.45,15,7.23,7.23,0,0,0,7.22,26.54,7.34,7.34,0,0,0,10,26l2.47,4A9.73,9.73,0,0,1,14,35.13V40h12.1V35.13A9.73,9.73,0,0,1,27.53,30L30,26a7.34,7.34,0,0,0,2.78.56A7.23,7.23,0,0,0,38.55,15Zm-13,13.76a12.1,12.1,0,0,0-1.83,6.4V37.6H16.29V35.13a12.1,12.1,0,0,0-1.83-6.4l-2.48-4a7.33,7.33,0,0,0,1.64-2.08,9.55,9.55,0,0,0,1.23.74L20,33.34l5.15-9.94a9.55,9.55,0,0,0,1.23-.74A7.33,7.33,0,0,0,28,24.74ZM18,24.43a11.62,11.62,0,0,0,4,0l-2,3.82Zm14.76-.24A4.85,4.85,0,0,1,28,20.42l-.49-2.14L26,19.88a8.43,8.43,0,0,1-6,2.37,8.43,8.43,0,0,1-6-2.37l-1.5-1.6L12,20.42a4.88,4.88,0,0,1-9.63-1.1,4.9,4.9,0,0,1,3.47-4.67l1.13-.34-.35-1.14a4.79,4.79,0,0,1-.23-1.46,4.89,4.89,0,0,1,7.12-4.34l1.46.76.24-1.63a4.87,4.87,0,0,1,9.64,0l.24,1.63,1.46-.76a4.87,4.87,0,0,1,6.89,5.8l-.35,1.14,1.13.34a4.87,4.87,0,0,1-1.41,9.54Z"/><path class="cls-1" d="M27.53,10.8a5.74,5.74,0,0,0-4-1.1L23.81,12a3.55,3.55,0,0,1,2.25.6A2.75,2.75,0,0,1,27,14.58l2.33-.24A5,5,0,0,0,27.53,10.8Z"/><path class="cls-1" d="M12.54,10.75a5.06,5.06,0,0,0-1.85,3.57L13,14.6a2.59,2.59,0,0,1,1.6-2.35A3.67,3.67,0,0,1,16.19,12h0l.3-2.33A5.7,5.7,0,0,0,12.54,10.75Z"/></g></g></svg>