<svg xmlns="http://www.w3.org/2000/svg" width="178" height="178" viewBox="0 0 178 178">
  <g id="Group_63" data-name="Group 63" transform="translate(-422 -11924)">
    <circle id="Ellipse_15" data-name="Ellipse 15" cx="89" cy="89" r="89" transform="translate(422 11924)" fill="#fff"/>
    <path id="Path_44" data-name="Path 44" d="M50.847,6.432A6.4,6.4,0,0,0,46.869,5,5.891,5.891,0,0,0,43.05,6.353a103.721,103.721,0,0,0-13.685,14.8C20.215,33.166,15.6,44.7,15.6,55.364c0,15.515,12.889,28.245,29.2,29.2V71.277a.794.794,0,0,1-.4-.318L30.638,57.194a2.138,2.138,0,1,1,3.023-3.023L44.88,65.389V53.136c-.08-.08-.159-.08-.239-.159L33.9,42.236a2.138,2.138,0,0,1,3.023-3.023L44.8,47.09V32.609a2.148,2.148,0,0,1,4.3,0V46.851l7.638-7.638a2.138,2.138,0,0,1,3.023,3.023L49.1,52.9V65.071L60,54.171a2.138,2.138,0,0,1,3.023,3.023L49.176,70.959a.278.278,0,0,1-.159.08V84.564c16.311-1.034,29.2-13.765,29.2-29.2C78.3,31.256,51.961,7.466,50.847,6.432Z" transform="translate(464.091 11966.335)" fill="#48a55a"/>
  </g>
</svg>
