<svg xmlns="http://www.w3.org/2000/svg" width="178" height="178" viewBox="0 0 178 178">
  <g id="Group_62" data-name="Group 62" transform="translate(-156 -11924)">
    <circle id="Ellipse_15" data-name="Ellipse 15" cx="89" cy="89" r="89" transform="translate(156 11924)" fill="#fff"/>
    <g id="Group_36" data-name="Group 36" transform="translate(194.633 11963)">
      <path id="Path_39" data-name="Path 39" d="M70.115,47.338c.038.077.082.147.117.223a10.7,10.7,0,0,1,.918,3.093,5,5,0,1,1-2.347-.087,8.565,8.565,0,0,0-2.337-4.422,22.348,22.348,0,0,0-2.992-.484C63.387,49.71,57.388,52.977,50,52.977S36.613,49.71,36.525,45.662q-1.073.1-2.113.3a8.242,8.242,0,0,0-2.9,4.387,2.781,2.781,0,0,1,1.215,1.433c2.08.912,3.926,2.959,5.348,5.934a1.617,1.617,0,0,1,.009,1.378,18.715,18.715,0,0,1,1.384,6.645c0,3.211-.139,5.224-2.831,5.757a1.376,1.376,0,0,1-.962.394H33.607A1.387,1.387,0,0,1,32.221,70.5V70.47a1.388,1.388,0,0,1,1.385-1.354h2.069a1.385,1.385,0,0,1,.579.129c.491-.1.572-.241.617-.32a8.587,8.587,0,0,0,.31-3.187A16.294,16.294,0,0,0,35.945,59.9a1.623,1.623,0,0,1-.807-.781c-1.357-2.837-3.192-4.6-4.79-4.6-1.631,0-3.557,1.9-4.905,4.847a1.632,1.632,0,0,1-.94.857,15.951,15.951,0,0,0-1.116,5.514,8.577,8.577,0,0,0,.337,3.192c.047.077.142.23.7.332a1.387,1.387,0,0,1,.622-.146h2.069a1.388,1.388,0,0,1,1.383,1.305l0,.008V70.5a1.387,1.387,0,0,1-1.387,1.386H25.042a1.381,1.381,0,0,1-.922-.357,3.208,3.208,0,0,1-2.338-1.39c-.577-.929-.682-2.211-.682-4.4a18.4,18.4,0,0,1,1.334-6.505,1.609,1.609,0,0,1,.049-1.221,15.194,15.194,0,0,1,3.118-4.6,8.324,8.324,0,0,1,2.213-1.558,2.791,2.791,0,0,1,1.4-1.588,8.548,8.548,0,0,1,1.159-3.131,22.2,22.2,0,0,0-14,20.631c0,9.568,6.053,11.652,14.538,12.105.2-.246.418-.487.649-.719a10.249,10.249,0,0,1,10.908-2.337,10.146,10.146,0,0,1,17.482-10.3l5.01,8.18,3.195,5.218c8.977-.354,15.483-2.228,15.483-12.148A22.2,22.2,0,0,0,70.115,47.338Z" fill="#48a55a"/>
      <path id="Path_40" data-name="Path 40" d="M33.207,25.595c.011.161.026.32.041.479C34.318,38.2,41.41,47.562,50,47.562S65.682,38.2,66.753,26.074c.015-.159.027-.317.041-.479.076-.525.127-1.058.157-1.6.021-.369.036-.739.036-1.115a19.1,19.1,0,0,0-.193-2.713C65.552,11.581,58.506,5,50,5S34.448,11.581,33.207,20.169a18.824,18.824,0,0,0-.194,2.713c0,.376.015.746.034,1.115C33.08,24.538,33.13,25.07,33.207,25.595Zm6.314-9.641A28.8,28.8,0,0,0,50,18.481a28.809,28.809,0,0,0,10.479-2.527c3.543,1.4,1.863,11.361,1.863,11.362a7.182,7.182,0,0,1,2.357-1.1C63.724,36.8,57.517,44.964,50,44.964S36.274,36.8,35.3,26.213a7.122,7.122,0,0,1,2.357,1.1S35.978,17.352,39.521,15.954Z" fill="#48a55a"/>
      <circle id="Ellipse_16" data-name="Ellipse 16" cx="2.5" cy="2.5" r="2.5" transform="translate(67.302 52.965)" fill="#48a55a"/>
      <path id="Path_41" data-name="Path 41" d="M62.111,76.438,57.1,68.26a6.819,6.819,0,1,0-11.631,7.12l5.007,8.18,5.005,8.18a6.821,6.821,0,0,0,11.635-7.123ZM51.932,82.67l-5.006-8.18a5.115,5.115,0,0,1,8.726-5.339l5.006,8.177Z" fill="#48a55a"/>
      <path id="Path_42" data-name="Path 42" d="M38.812,79.48a6.936,6.936,0,0,0-5.7,10.883l9.652-9.651A6.943,6.943,0,0,0,38.812,79.48Z" fill="#48a55a"/>
      <path id="Path_43" data-name="Path 43" d="M34.967,92.195a6.941,6.941,0,0,0,9.627-9.626Z" fill="#48a55a"/>
    </g>
  </g>
</svg>
