<svg xmlns="http://www.w3.org/2000/svg" width="206" height="206" viewBox="0 0 206 206">
  <g id="Group_59" data-name="Group 59" transform="translate(-240 -8653)">
    <circle id="Ellipse_7" data-name="Ellipse 7" cx="103" cy="103" r="103" transform="translate(240 8653)" fill="#fff"/>
    <g id="Group_25" data-name="Group 25" transform="translate(291 8706.583)">
      <path id="Path_10" data-name="Path 10" d="M97.3,49.2a1.9,1.9,0,0,0-1.6-1H90v-.4a39.751,39.751,0,0,0-8.7-21.3,37.932,37.932,0,0,0-44-11.2,37.348,37.348,0,0,0-12.7,9h0c.2.3.5.6.7.9l.9,1.6a32.8,32.8,0,0,1,12.6-7.3,31.845,31.845,0,0,1,20,.4A30.771,30.771,0,0,1,74,31.9a29.49,29.49,0,0,1,4.8,15.9v.5H73.3a1.781,1.781,0,0,0-1.6,1,2.118,2.118,0,0,0,0,1.9L82.8,69.5a1.872,1.872,0,0,0,3.2,0L97.1,51.2A1.84,1.84,0,0,0,97.3,49.2Z" fill="#ada220"/>
      <path id="Path_11" data-name="Path 11" d="M73.6,72.6a30.568,30.568,0,0,1-12.5,7.3,32.247,32.247,0,0,1-19.9-.3A30.962,30.962,0,0,1,26,67.8,29.228,29.228,0,0,1,21.1,52v-.5h5.5a1.781,1.781,0,0,0,1.6-1,2.118,2.118,0,0,0,0-1.9L17.1,30.3a1.7,1.7,0,0,0-1.6-.9,1.7,1.7,0,0,0-1.6.9L2.8,48.7a1.654,1.654,0,0,0,0,1.9,1.9,1.9,0,0,0,1.6,1H10V52a39.326,39.326,0,0,0,8.6,21.3A38.06,38.06,0,0,0,39.1,86.4a37.235,37.235,0,0,0,23.6-1.7,36.782,36.782,0,0,0,12.8-9,12.491,12.491,0,0,1-.9-1.2Z" fill="#ada220"/>
      <path id="Path_12" data-name="Path 12" d="M37.1,41.1l3-.8a12.592,12.592,0,0,1,8.4.7,16.689,16.689,0,0,0,7.4,1.6A17.814,17.814,0,0,0,62,41.5l2.5-1a2.5,2.5,0,1,0-1.7-4.7l-2.5,1a12.69,12.69,0,0,1-9.4-.3A17.857,17.857,0,0,0,39,35.4l-3,.8a2.625,2.625,0,0,0-1.8,3.1A2.236,2.236,0,0,0,37.1,41.1Z" fill="#ada220"/>
      <path id="Path_13" data-name="Path 13" d="M34,50.6a2.542,2.542,0,0,0,3.1,1.8l3-.8a12.592,12.592,0,0,1,8.4.7,16.689,16.689,0,0,0,7.4,1.6A17.814,17.814,0,0,0,62,52.8l2.5-1A2.568,2.568,0,0,0,66,48.6a2.483,2.483,0,0,0-3.2-1.5l-2.5,1a12.69,12.69,0,0,1-9.4-.3A17.857,17.857,0,0,0,39,46.7l-3,.8A2.546,2.546,0,0,0,34,50.6Z" fill="#ada220"/>
      <path id="Path_14" data-name="Path 14" d="M34,61.8a2.625,2.625,0,0,0,3.1,1.8l3-.8a12.592,12.592,0,0,1,8.4.7,16.689,16.689,0,0,0,7.4,1.6A17.814,17.814,0,0,0,62,64l2.5-1a2.47,2.47,0,1,0-1.8-4.6l-2.5,1a12.69,12.69,0,0,1-9.4-.3A17.857,17.857,0,0,0,38.9,58l-3,.8A2.456,2.456,0,0,0,34,61.8Z" fill="#ada220"/>
    </g>
  </g>
</svg>
