<svg xmlns="http://www.w3.org/2000/svg" width="178" height="178" viewBox="0 0 178 178">
  <g id="Group_64" data-name="Group 64" transform="translate(-688 -11924)">
    <circle id="Ellipse_15" data-name="Ellipse 15" cx="89" cy="89" r="89" transform="translate(688 11924)" fill="#fff"/>
    <g id="Group_42" data-name="Group 42" transform="translate(58 -500.215)">
      <path id="Path_52" data-name="Path 52" d="M32.231,28.779l7.5-7.5a2.509,2.509,0,1,0-3.548-3.548L33.2,20.714a1.372,1.372,0,0,1-1.94,0l-2.98-2.98a2.509,2.509,0,1,0-3.548,3.548Z" transform="translate(680.461 12474.127)" fill="#48a55a"/>
      <circle id="Ellipse_17" data-name="Ellipse 17" cx="1.306" cy="1.306" r="1.306" transform="translate(694.532 12535.155)" fill="#48a55a"/>
      <circle id="Ellipse_18" data-name="Ellipse 18" cx="1.306" cy="1.306" r="1.306" transform="translate(694.532 12512.945)" fill="#48a55a"/>
      <circle id="Ellipse_19" data-name="Ellipse 19" cx="1.306" cy="1.306" r="1.306" transform="translate(694.532 12524.704)" fill="#48a55a"/>
      <path id="Path_53" data-name="Path 53" d="M61.385,8H28.462v4.115a4.115,4.115,0,0,1-8.231,0V10.744h2.744v1.372a1.372,1.372,0,1,0,2.744,0V8H12V73.847H61.385ZM20.231,69.731a4.115,4.115,0,1,1,4.115-4.115A4.115,4.115,0,0,1,20.231,69.731Zm0-10.974a4.115,4.115,0,1,1,4.115-4.115A4.115,4.115,0,0,1,20.231,58.757Zm0-10.974a4.115,4.115,0,1,1,4.115-4.115A4.115,4.115,0,0,1,20.231,47.782ZM30.969,17.6a5.213,5.213,0,0,1,3.713,1.538l2.01,2.01,2.01-2.01a5.252,5.252,0,1,1,7.427,7.427l-8.467,8.467a1.372,1.372,0,0,1-1.94,0l-8.467-8.467A5.251,5.251,0,0,1,30.969,17.6ZM27.09,58.757V56.013H51.782v2.744ZM32.577,61.5v2.744H29.834V61.5Zm0-8.231H29.834V50.526h2.744ZM27.09,47.782V45.039H51.782v2.744ZM32.577,42.3H29.834V39.552h2.744ZM51.782,69.731H27.09V66.988H51.782Zm5.487-5.487H35.321V61.5H57.27Zm0-10.974H35.321V50.526H57.27Zm0-10.974H35.321V39.552H57.27Z" transform="translate(676 12470.78)" fill="#48a55a"/>
      <path id="Path_54" data-name="Path 54" d="M62.642,12V73.731A1.372,1.372,0,0,1,61.27,75.1H16v2.744H65.385V12Z" transform="translate(677.487 12472.268)" fill="#48a55a"/>
      <path id="Path_55" data-name="Path 55" d="M24.231,7.487a2.744,2.744,0,1,0-5.487,0H16a5.487,5.487,0,0,1,10.974,0Z" transform="translate(677.487 12468.55)" fill="#48a55a"/>
    </g>
  </g>
</svg>
