<svg xmlns="http://www.w3.org/2000/svg" width="129.557" height="77.642" viewBox="0 0 129.557 77.642">
  <g id="Group_4" data-name="Group 4" transform="translate(-108.745 -26.186)">
    <path id="Path_1" data-name="Path 1" d="M222.2,54.419c-.83,1.164-.136.73-.159,1.089-.957,1.425-.671.491-1.152.855a23.793,23.793,0,0,1-1.346,2.352c-.079.012-.191.12-.129-.064a12.223,12.223,0,0,1-1.311,1.857,11.682,11.682,0,0,0-1.42,1.955.455.455,0,0,1-.173.077c.261-.054.407.03.47.137-.412.5-.639,1.043-.962,1.08a1.081,1.081,0,0,0,.307-.552l-.389.562c-.637.241.548-.75.371-.907a25.157,25.157,0,0,1-2.418,3.028c-.346-.041,1.532-1.8.429-.989l1.137-1.077c-1.154.564.661-.677-.45-.207-1.434,1.459-1.437,1.787-2.925,3.193-.2.445.282.061.079.509a4.662,4.662,0,0,1-1.939,1.6,3.137,3.137,0,0,0-1.5,1.216,3.078,3.078,0,0,1-1.443,1.821l.163-.6c-1.507,1.282-.536,1.111-2.261,2.3.193-.343,1.112-1.1.857-.936-1.2.666-.589.777-1.4,1.428l-.357-.095c-.812.673-1.618,1.443-2.494,2.171-.436.368-.875.743-1.32,1.12s-.916.723-1.384,1.077c.054-.148.327-.457-.173-.214a44.616,44.616,0,0,1-7.787,4.768l-.807.771c-.223.12-.47.125-.254-.05-1.018.446.03.17-.387.514-.546.321-.8.271-.489.012a28.114,28.114,0,0,1-6.733,3.6l.336-.232c-1.511.546-1.437,1.237-2.914,1.587l.248-.15c-3.252,1.262-6.825,2.775-9.492,3.16-.377.511-3.352.8-3.439,1.339-2,.245-1.461.029-4.228.471-.734.13-1.025.534-1.925.77l-.071-.262q-.587.265-1.184.5l-.714-.209-.841.211c.339-.041.741,0,.7.086a9.07,9.07,0,0,1-2.148.257,3.161,3.161,0,0,1-1.2-.1c-1.048.184-2.1.407-3.157.552.061-.118.593-.186,1.009-.3-1.677.425-.334-.255-1.868.123.212.045-.1.17-.134.227a14.169,14.169,0,0,0-1.739-.032c-.352.011-.72.03-1.082.054s-.716.036-1.045.059l.248-.191a75.883,75.883,0,0,1-7.623-.146c.939.161.7.468-.084.437l-.286-.309c-.518.13.8.177-.248.3-.987-.145-.627-.4-.055-.429l-1.207-.036c-.059-.093.227-.105.311-.207-.516.139-2.009-.554-2.755-.355l-.054-.093c-1.295-.236-2.239-.384-3.114-.57-.882-.159-1.687-.366-2.723-.636-.111.225-.893-.08-1.568-.082-1.473-.593-3.046-1.37-4.732-2.2-1.239-.489-.439.012-1.037-.136.009-.123-.4-.405-.7-.616s-.462-.37-.009-.186c-.484-.286-.882-.52-1.243-.734s-.666-.434-1-.645l-.52-.332-.559-.4q-.3-.212-.661-.466c-.23-.182-.48-.382-.759-.605.166.277.4.543.214.479-.411-.325-.814-.864-.679-.895a1.139,1.139,0,0,0,.114.075,11.756,11.756,0,0,1-3.084-4.1l-.282-.579c-.089-.193-.159-.393-.239-.586-.15-.387-.329-.748-.445-1.121s-.275-.707-.407-1.036a7.559,7.559,0,0,0-.393-.936l.062.127a20.753,20.753,0,0,1-.829-2.489c-.071-.6.011-.427.08-.216.089.207.211.446.193,0a14.146,14.146,0,0,1-.339-1.884c-.025-.584-.021-1.125-.014-1.65.05-.523.109-1.029.146-1.55s.136-1.05.155-1.637a28.153,28.153,0,0,0,1.371-3.944,14.41,14.41,0,0,1,2.077-4.159l-.205.045c.18-.625.457-.618.72-1.005-.136-.007-.462.525-.341.139a30.741,30.741,0,0,1,5.059-6.58,62.418,62.418,0,0,1,6.385-5.541c1.609-1.245.4-1.368,2.7-2.63l-.414.675c3.112-2.769,7.019-4.732,10.469-6.894-.182.171-.148.254-.5.437a7.741,7.741,0,0,0,1.718-.839c.6-.346,1.078-.689,1.046-.77.577-.264.2.073.586-.02.82-.284,1.848-1.164,2.348-1.173.084,0-.191.164-.329.245a12.153,12.153,0,0,1,1.3-.652c.47-.214.807-.391.512-.4.727-.245,1.382-.571,2.018-.848a13.185,13.185,0,0,1,1.827-.695c.646-.55,2.5-.786,2.609-1.239.03.407,2.637-.571,3.51-1.025-.277.211.841-.129.529.143,1.046-.334,2-.686,1.757-.825a10.192,10.192,0,0,0,2.864-.709,4.222,4.222,0,0,1,2.253-.382,66.952,66.952,0,0,1,9.035-2.053c-.029.207-.837.305-1.612.432s-1.52.264-1.425.461c.684-.146,1.291-.3,1.866-.434l1.655-.362A16.817,16.817,0,0,1,174.5,28.4c.582-.071,1.2-.139,1.893-.168.721.012-.395.193-.628.293,2.773-.375,5.38-.259,7.862-.4a1.579,1.579,0,0,1-.534.1c.491-.009,1.136.077,1.087-.1-.161.005-.32.018-.479.034-.387-.13.1-.28.7-.362a8.744,8.744,0,0,0,1.364-.225c-.434.236.18.3.73.379.548.1,1.029.212.346.479.323-.005.732-.052.67-.18.473.079.616.164.121.255a16.107,16.107,0,0,1,2.725.029c-.016.086-.337.075-.512.155.407-.03.818-.061,1.291-.052a8.322,8.322,0,0,1,1.659.252c-.087.037.05.132-.341.059,2.259.377,3.95.368,6.323,1.28-.823.118.773.4.789.752.434.116.875.223,1.3.373-.148-.116-.295-.237-.445-.352a19.907,19.907,0,0,1,3.041,1.166l-.854-.259,2.028.907-1.078-.659c1.159.377.07-.441,1.455.355a16.191,16.191,0,0,1,1.491,1.062l-.005,0a6.275,6.275,0,0,1,1.827,1.009c.132.212-.361.2-.273.339a4.607,4.607,0,0,1,1.475.852c.291.207.591.411.857.589a2.983,2.983,0,0,0,.68.4c-.232-.111-.35.014-.312.095l.511.146c.37.418.409.5.248.539.611.552.566.411.566.273s0-.218.637.546a2.8,2.8,0,0,1-.343-.223c.33.366.671.711,1.012,1.045s.645.7.968,1.034.646.671.92,1.039.541.739.789,1.121c.046.62-1.005-1.228-.864-.568.386.52.834,1.009,1.218,1.552l1.171,1.632c.348.571.693,1.145,1.021,1.718a7.464,7.464,0,0,1,.439.879c.132.295.259.591.377.884l-.157-.446c.284.064.423.525.58,1.1a6.863,6.863,0,0,0,.571,1.855c-.137-.286-.382-.3-.3-.237.271.82.552,1.659.866,2.6.359.934.632,2.014.993,3.287l-.186-.295c.066.507.154,1.177.245,1.857s.2,1.366.254,1.916c.163.311.191.946.332.541a13.226,13.226,0,0,0-.009,2.521c.052.816.1,1.616.18,2.405.036.395.08.787.105,1.178.005.389.007.777,0,1.164a9.754,9.754,0,0,1-.282,2.278c.05-.362-.061-.871-.064-.58-.013.857-.1,1.712-.143,2.573.223-.18.159-.323.373-.846a6.133,6.133,0,0,1,.032,1.721c-.021-1.184-.3-.025-.516.446.077-.073.114.105.184.073-.595,1.275.366.287-.2,2.077l-.087-.118c-.037.345-.036.684-.073,1.025a6.869,6.869,0,0,1-.212,1.041c-.305.246.075-.741-.1-.832-.246,1.014-.071,2.119-.543,2.978.059-.448.207-1.07.255-1.518a5.964,5.964,0,0,0-.464.97c-.041.12-.075.234-.111.362s-.1.268-.168.448l.029-.07-.671,1.634.212-.405a3.348,3.348,0,0,1-.046,1.037,4.468,4.468,0,0,1-.305,1.007,10.243,10.243,0,0,0-.75,2.282c.307-1.741-.095-.348-.289-.577-.237.386-.573.979-.568.77-.157.841-.762,1.162-1,2.35-.1.009-.4.791-.511.521-.421.991.246-.155.3-.025a3.918,3.918,0,0,1-.236.612c-.1.2-.223.4-.35.605-.257.411-.554.83-.857,1.271s-.593.916-.925,1.382a10.626,10.626,0,0,0-.882,1.53c-1.009,1.818-1.077,2.25-2.146,3.877-.509.427.086-.616.086-.616a11.414,11.414,0,0,0-.954,1.077c-.277.357-.566.695-.852,1.1.077-.2-.111-.084-.38.075-.512.607-.121.605-.911,1.3a3.032,3.032,0,0,1,.27-.821c-.562.745-1.041,1.559-1.689,2.28-.289.079.25-.57.42-.875a12.753,12.753,0,0,0-1.966,2.484l.554-.432c-.273.289-.286,0-.111-.237.529-.789,1.009-.891,1.111-.87l-.45.527a3.045,3.045,0,0,0,1.4-1.189,21.537,21.537,0,0,1,1.405-1.884l-.113.677.723-1.266c.273-.166.568-.189.15.362.805-.632.5-.737,1.184-1.293.082-.052.07-.009.027.07l.52-.839c-.057.2.3.032-.111.473,1.255-1.262,1.55-2.389,2.125-2.791l-.064.136c1.28-2.093-.086-.354.684-2.037.411-.216.843-.425,1.241-.662l-.105-.35c.137-.212.407-.63.452-.495.32-.9-.182.077-.054-.482a11.684,11.684,0,0,0,1.171-1.814c.32-.643.6-1.173.853-1.2.013-.482-.657.964-.207-.259.287-.061.437-.405.6-.845a7.771,7.771,0,0,1,.643-1.441c.1.414-.459,1.323.188.393-.113-.782.909-1.969,1.2-2.877-.279-.15.527-1.978.905-3.509a7.368,7.368,0,0,0,.537-1.541c.137-.448.287-.946.43-1.418s.225-.934.321-1.289l.045.052a2.082,2.082,0,0,1-.054-1.173,17.293,17.293,0,0,0,.191-1.741c.184.064.252.275.254.882.057-.343.079-.691.12-1.034a3.817,3.817,0,0,1-.062-1.257l.212.282c.177-1.378-.086-2.794.15-4.562-.229-.1-.664,1.386-.779-.468.118-.068.332-.137.386.352a4,4,0,0,1-.07-.893l.227.745c.068-.807-.184-.42-.182-1.062.173.011.111-.477.25-.389a4.213,4.213,0,0,0,.02.809,7.554,7.554,0,0,1,.212-1.909c-.1.068-.234.009-.271-.523-.118-1.371.171-.482.191-1.293-.15-.323-.107-1.216-.368-1.211a1.042,1.042,0,0,1,.134-.654c-.18-.7-.527-3.3-.668-2.459l.009.179-.029-.111,0,.009,0-.009c-.273-1.137-.525-2.316-.721-3.514a8.33,8.33,0,0,0-.179-.889c-.071-.295-.143-.586-.212-.879s-.15-.579-.23-.864l-.127-.423-.162-.407.084-.021c-.282-.639-.555-1.361-.825-2.028a13.572,13.572,0,0,0-.9-1.664,2.327,2.327,0,0,1-.164-.6c-.03-.171-.018-.286.07-.23-.279-.457-.452-.7-.63-1-.089-.152-.179-.321-.284-.541s-.22-.495-.4-.832c.35.412.329.32.316.275s-.011-.034.321.623a13.392,13.392,0,0,0-.695-1.4A7.389,7.389,0,0,0,217.2,42.3c.487.286-.393-1.007-.841-1.5l.452.88c-.234-.289-.441-.566-.639-.839l-.291-.407-.312-.384.461.086a12.027,12.027,0,0,0-1.289-1.6c-.47-.459-.971-.846-1.436-1.232s-.941-.721-1.366-1.093a9.162,9.162,0,0,1-1.15-1.22c-.366-.146-.077.116.216.386.282.286.555.591.227.462l-.705-.677c-.227-.227-.437-.455-.629-.668a5.763,5.763,0,0,0-.859-.882,4.29,4.29,0,0,0-1.546-.839,5.489,5.489,0,0,1-1.659-.741c.157.216.221.546-1.041-.016-1.141-.591-1.25-1.087-.466-.8.286.129.407.225.379.25.4.141.911.362.5.023l-.2.021c-.536-.377-2.171-1.15-1.718-1.123-.962-.282-.452-.023.186.341a30.833,30.833,0,0,0-4.014-1.682c.241.143.439.341.18.252a3.684,3.684,0,0,0-1.65-.47,2.131,2.131,0,0,1-1.111-.123c-.445-.209-.337-.279-.329-.336s-.08-.116-.936-.241c-1-.345-.155-.321.275-.307a11.4,11.4,0,0,1-2.125-.475c-.63-.179-1.173-.371-1.614-.471l.834.066a12.2,12.2,0,0,1-1.311-.189l.436.293c-.473-.132-.884-.18-.864-.266-.516.068.329.395-.679.446a8.368,8.368,0,0,0-1.237-.186c-.436-.055-.818-.089-.914-.241,1.007.136.955.084.871-.021s-.207-.221.654-.129a10.449,10.449,0,0,1-1.218-.152c-.07-.037.075-.05.209-.054-1.925-.418-.925.205-2.934.059.266-.143-.45-.321-.784-.3.816.045.375.28-.375.361a8.112,8.112,0,0,0-2.075.016l.768.068a6.016,6.016,0,0,1-1.8.161c-.079-.123.811-.073.493-.132a2.574,2.574,0,0,1-.793.064c-.279-.007-.571-.037-.879-.071a6.868,6.868,0,0,0-1.968-.032c-.646-.068-.075-.289-.645-.329-1.545.293-1.705-.129-3.328.2.491.166.566.107-.562.416.889-.121,1.777-.282,2.671-.371-.571.127-1.136.287-1.7.441.4-.034.825-.111,1.209-.168a7.578,7.578,0,0,1,.973-.093c-.809.22-.727.162-.329.314a3.825,3.825,0,0,0-1.67.073,6.636,6.636,0,0,1-1.791.191l-.018-.521a12.625,12.625,0,0,0-2.73.371,25.746,25.746,0,0,1-3.125.611c.27-.02.537-.043.807-.052a13.837,13.837,0,0,1-2.3.536c.043-.184-.468-.157-.829-.193.068.116-1.8.377-1.943.764-.382,0-.761.011-1.139.029a7.1,7.1,0,0,0-2.041.714,7.267,7.267,0,0,1-1.953.779c.511-.336-.37-.221.846-.7-.625.17-1.2.295-1.173.414-.4-.016-1.655.741-2.271.754a2.141,2.141,0,0,1-.964.557c-.086-.009-.025-.082-.025-.082.025.082-1.039.471-.379.454-2.075.082-5.218,1.9-6.992,2.123-1.28.6-2.825,1.316-3.973,1.88.05-.082-.034-.08.193-.166-1.673.6-.78.895-2.652,1.623-1.046.205.887-.609.266-.42-.252-.195-.789.093-1.432.468a8.322,8.322,0,0,1-2.05,1.043l.273-.184a5.965,5.965,0,0,0-1.62.93c-.584.423-1.239.88-1.966,1.312,0,0,.046-.087-.034-.08a18.5,18.5,0,0,1-1.8,1.482c-.709.554-1.495,1.093-2.134,1.6.287-.477.543-.518.159-.534-.579.445.38.18-.773,1.064-.459.17-1.382.686-1.63.58.361-.284.741-.543,1.114-.811-.77.137-1.443,1.05-2.053,1.445l-.009-.166A9.924,9.924,0,0,0,125.51,46.4a16.1,16.1,0,0,1-1.641,1.566l.243-.075c-.7,1.075-.921.521-1.659,1.548h-.507c-.266.318-.746.852-1.248,1.48s-1.071,1.293-1.528,1.868a8.383,8.383,0,0,1,.961-1.455l.616-.8.573-.7c-.146.141-.345.33-.566.541s-.437.464-.654.7a6.121,6.121,0,0,0-.895,1.152,4.267,4.267,0,0,1,.7-.807c-.252.452-.586.927-.964,1.466s-.868,1.077-1.368,1.712c-.084-.164-.3-.048-.6.229a9.344,9.344,0,0,0-1.055,1.2c-.379.493-.787,1.023-1.146,1.489a4.648,4.648,0,0,1-.957,1.037c-.675,1.295-1.389,2.541-2.082,3.882-.352.668-.646,1.382-.98,2.107-.145.373-.275.757-.411,1.148a10.127,10.127,0,0,0-.366,1.209c.795-1.041-.225.977.348.9-.082.384-.137.646-.177.825a.907.907,0,0,1-.079.3,20.858,20.858,0,0,0-.63,2.332c-.2.564-.061-.768-.186-.707-.171,1.759-.289.718-.507,1.891.191-.23.282.627.225,1.641l.229-1.423a8.521,8.521,0,0,1,0,2.3,5.827,5.827,0,0,0-.043.907,3.747,3.747,0,0,0,.064.614c.054.23.125.491.22.791l-.32-.748c.189.621.354,1.805.771,2.914.095.28.191.559.286.829s.237.52.354.754a4.051,4.051,0,0,0,.718,1.093c.043.229.045.564-.241.071A15.085,15.085,0,0,0,113.73,86.2c1.061,1.22,2.227,2.177,3.01,3.062l-.257-.055c.452.348.92.429,1.384.975-.059.023-.257-.037-.057.132.125.082.473.243.846.457a10.7,10.7,0,0,1,1.082.693c-.205-.068-.412-.137-.611-.221a14.152,14.152,0,0,0,1.671,1.066c.537.264,1.045.477,1.539.677,1.007.359,1.966.648,3.1,1.055-.075.18.4.525,1.045.841.32.164.679.33,1.023.484l.953.366-.054.041a24.2,24.2,0,0,0,4.425,1c1.393.191,2.759.3,4.3.437a19.02,19.02,0,0,0,4.323.711c.887.07,1.814.107,2.711.159.895.023,1.764.082,2.539.125-.473-.061.079-.3.623-.352a7.277,7.277,0,0,0,1.257-.084c.395-.05.684-.063.634.118l-.259.005c.559.318,2.057.173,3.212.073l.157-.479a10.836,10.836,0,0,0,2.562.011c.914-.07,1.853-.248,2.748-.4a17.769,17.769,0,0,1,4.259-.573c.7-.254,1.589-.427,2.271-.711l.016.252c1-.191,1.75-.332,2.546-.537s1.657-.411,2.855-.795l-.445.312c1.371-.375,1.525-1.171,2.753-1.584l.489.237,3.559-1.08c.587-.195,1.17-.409,1.741-.643a11.977,11.977,0,0,0,1.661-.807c-.021.068-.048.195-.412.359.539-.218,1.609-.579,2.462-.943s1.486-.736,1.189-.884c.079.145.67-.1,1.373-.482s1.52-.907,2.086-1.259l-.075.309a8.863,8.863,0,0,1,2.209-1.67c.345-.141.38.027-.084.195,1.157-.45.736-.659,2.116-1.259l-.416.407a4,4,0,0,0,1.516-1.123,5.874,5.874,0,0,1,2.386-1.073,3.047,3.047,0,0,1,1.239-1.071c.13.018-.073.207-.175.3,1.905-.975,2.493-1.962,3.846-2.564.073.05.173.027.286-.023-1.4.945-2.544,1.682-2.45,1.6.121.191,1.286-.539.548.329.412-.377.959-.905,1.546-1.418a12.736,12.736,0,0,1,1.77-1.386.733.733,0,0,1,.188-.039l-.1.1a3.792,3.792,0,0,0,.664-.518,9.676,9.676,0,0,0,.928-.607c.236.054,1.314-.868,1.861-1.275-.2-.161.525-.689-.254-.325.1-.054-.082.1-.437.384a2.555,2.555,0,0,0-.216.2l.025-.046c-.355.273-.818.63-1.339,1.036a4.211,4.211,0,0,1,1.42-1.195c.182-.336.386-.7.5-.895.934-.312,2.461-1.289,2.782-1.3.743-.736,1.677-1.534,2.471-2.343a10.75,10.75,0,0,0,1.8-2.193,1.29,1.29,0,0,1,.787-.477,7.6,7.6,0,0,0-.595.725c.768-.909,2.489-2.466,2.437-2.912,1.143-.966-.37.809,1.018-.695l-.121.268c.4-.318.757-.637,1.091-.961s.618-.668.9-1.005c.552-.68,1.059-1.345,1.528-2.057s.968-1.412,1.548-2.13a17.166,17.166,0,0,1,2.043-2.25c-.229.218-.337.325-.421.341.861-.939,1.623-1.98,2.409-3.014.755-1.057,1.484-2.143,2.2-3.228,1.411-2.2,2.778-4.4,4.228-6.46a6.36,6.36,0,0,0,.977-2.261l.379-.145.425-1.459a14,14,0,0,1,1.514-2.536,14.159,14.159,0,0,0,.82-1.328,7.553,7.553,0,0,0,.673-1.693l-.3.239c.423-.859,1.148-2.807,1.271-2.578a1,1,0,0,1,.188-.67l.139.029.677-2.264c.395-.823.5-.707.63-.691s.3-.066.78-1.312c.3-.95.616-2.78.4-2.462-.146.37-.441.923-.582.9l.25-.87c-.327-.293-.48-1.075-1.523.879l-.305,1.52-.359.387.441-1.205a3.289,3.289,0,0,0-.523,1.632,1.252,1.252,0,0,0-.448.511l-.212,1.537c-.218.105-.036-.746-.5.152-.1.721.587-.486.252.639-.45.607-.507.346-.714,1.195-.145.066-.132-.129-.034-.455a14.686,14.686,0,0,0-.746,2.314c-.5.609-1.064,2.357-1.375,2.123a9.119,9.119,0,0,1-.614,1.98c.184-1.345-1.255,2.312-1.536,1.778a6.191,6.191,0,0,1-.852,2.127c-.455.83-.95,1.745-1.293,2.516a.994.994,0,0,1,.154-.4,12.642,12.642,0,0,1-1.159,1.434c.225.279-.459,1.589-.732,2.361-.918.789.046-.807-.421-.677.266.1-.873,1.834-.462,1.632-.659.629-.5.584-.991.805.27.373-.412.714-.618,1.468-.914.928-.52.036-1.223,1.262-.252.232-.22.075-.134-.145s.236-.5.236-.5M199.135,78.484l0,0c.232-.173.432-.32.561-.416-.118.087-.277.209-.557.42m-2.32,1.607c.289-.182.648-.42,1.023-.673.132.016.093.148-.148.3.1-.134-.486.2-.875.37m5.9-2.107c-.345.3-.493.355-.573.354.168-.132.361-.291.614-.5,0-.014.02-.039.023-.055a.406.406,0,0,1-.064.205" transform="translate(0 0)" fill="#e25f92"/>
    <g id="Group_3" data-name="Group 3" transform="translate(135.213 40.214)">
      <g id="Group_2" data-name="Group 2">
        <path id="Path_2" data-name="Path 2" d="M124.514,55.708c.045.043.091.009.134-.1a.654.654,0,0,0,.061-.289l-.023.055a.112.112,0,0,1,.009-.091l.064-.159a6.862,6.862,0,0,1,.461-1.787c.23-.575.437-1.15.614-1.72l.7-1.952a4.414,4.414,0,0,0,.166-.461,1.829,1.829,0,0,1,.177-.423,1.329,1.329,0,0,0,.216-.439.909.909,0,0,1,.232-.4c-.009-.023-.011-.039,0-.045s.014-.018,0-.045a2.258,2.258,0,0,0,.161-.307,1.066,1.066,0,0,1,.179-.27l.007-.089q.6-.991,1.314-1.939a2.637,2.637,0,0,1,.3-.514,5.1,5.1,0,0,0,.311-.477l.382-.462a1.924,1.924,0,0,1,.382-.462,3.569,3.569,0,0,0,.4-.425l.352-.318c.18-.132.368-.282.564-.45s.384-.316.562-.446c.2-.168.364-.3.514-.409a2.811,2.811,0,0,1,.523-.277l.434-.177a1.255,1.255,0,0,1,.461-.1,2.964,2.964,0,0,0,.5-.025,1.721,1.721,0,0,1,.509.012.849.849,0,0,1,.43.087,1.474,1.474,0,0,0,.329.105,2.48,2.48,0,0,0,.3.034.945.945,0,0,1,.461.382,2.608,2.608,0,0,1,.68.491,5.159,5.159,0,0,1,.5.566,2.807,2.807,0,0,1,.57,1.239c.07.425.127.8.175,1.132.014.114.029.218.039.314a.981.981,0,0,0,.061.261c.021.05.025.077.012.082s-.014.02,0,.046a2.809,2.809,0,0,0-.037.716c.018.229.043.45.077.67a3.693,3.693,0,0,1-.048.7,2.575,2.575,0,0,1-.164.616,19.208,19.208,0,0,1-.445,2.2c-.189.721-.391,1.434-.6,2.132a8.862,8.862,0,0,1-.495.837c-.129.186-.38.25-.754.2-.111.016-.159-.029-.143-.139s-.005-.152-.054-.132c-.037-.014-.061-.02-.071-.014a.109.109,0,0,1-.073-.016.034.034,0,0,1-.052-.02l-.327-.264-.03-.075c-.052-.125-.107-.262-.168-.412a.313.313,0,0,1,.066-.379.105.105,0,0,1,.066-.157.148.148,0,0,0-.027-.121c-.023-.021-.023-.079-.005-.173a1.675,1.675,0,0,0,.187-.3c.029-.071.059-.141.091-.211a.5.5,0,0,0,.068-.316.467.467,0,0,1,.071-.312.5.5,0,0,0,.07-.095l.034-.08a.114.114,0,0,0,.007-.089c-.011-.025,0-.071.029-.143q.177-.862.4-1.72a11.5,11.5,0,0,0,.316-1.818c.025-.009.03-.03.014-.07s-.011-.062.016-.073c-.013-.314-.036-.695-.068-1.134A4.2,4.2,0,0,0,136.378,44q-.308-.753-.784-.843a4.462,4.462,0,0,0-1.077-.066,3.443,3.443,0,0,0-.57.273c-.1.071-.282.187-.536.35l-1.391,1.221c-.27.346-.529.7-.775,1.062s-.489.755-.73,1.173a11.386,11.386,0,0,0-.645,1.162c-.18.38-.371.759-.571,1.13-.343.812-.659,1.628-.955,2.452s-.562,1.616-.805,2.387a.263.263,0,0,0-.1.175.131.131,0,0,1-.082.12.1.1,0,0,1-.038.125.1.1,0,0,0-.037.127c-.034.277-.075.532-.123.773a4.442,4.442,0,0,0-.086.757c-.17.595-.305,1.193-.414,1.791a15.8,15.8,0,0,0-.216,1.843l-.062.814a1.591,1.591,0,0,1-.062.332.492.492,0,0,0,.029.341.32.32,0,0,0-.059.286c-.025.011-.023.159,0,.437a26.249,26.249,0,0,0,.139,3.473,16.571,16.571,0,0,0,.961,3.975,7.95,7.95,0,0,0,.929,1.641,2.751,2.751,0,0,0,1.175,1.055,1.807,1.807,0,0,0,.8.246,4.482,4.482,0,0,0,.914-.021,4.865,4.865,0,0,0,1.252-.639,6.923,6.923,0,0,0,1.018-.9,11.686,11.686,0,0,0,.855-1.027q.4-.533.764-1.034.356-.627.777-1.323c.279-.464.532-.918.761-1.364.057-.08.116-.161.186-.25a.559.559,0,0,0,.112-.311,2.432,2.432,0,0,0,.33-.593,4.725,4.725,0,0,1,.252-.562l.061-.289a3.5,3.5,0,0,0,.321-.612,4.471,4.471,0,0,0,.236-.711.6.6,0,0,0,.162-.305c.039-.148.084-.311.127-.489s.082-.341.111-.486a1.9,1.9,0,0,1,.089-.321.586.586,0,0,1,.689-.3.674.674,0,0,1,.511.557c.052-.02.1.043.141.186s.079.209.105.2l-.016-.037.054.023a.2.2,0,0,0,.014.145l.055.134a.121.121,0,0,1-.043.168c-.057.041-.055.134.007.286l-.371,1.028q-.038.233-.075.246-.386.991-.886,2.139t-1.127,2.3q-.627,1.154-1.361,2.264a13.146,13.146,0,0,1-1.6,1.989,3.057,3.057,0,0,1-.348.382c-.137.13-.259.246-.362.346-.209.143-.443.3-.712.464a4.6,4.6,0,0,1-.664.359,2.974,2.974,0,0,1-.539.35,2.138,2.138,0,0,1-.545.223c-.137.025-.266.046-.389.068a.979.979,0,0,0-.418.214c-.552-.068-1.1-.132-1.634-.191a2.276,2.276,0,0,1-1.412-.72,9.385,9.385,0,0,1-1.048-.8,4.837,4.837,0,0,1-.962-1.232,5.173,5.173,0,0,1,.52.577c.155.2.273.345.352.429s.093.087.045,0-.191-.309-.429-.68a.305.305,0,0,0-.187-.186.215.215,0,0,1-.154-.112.924.924,0,0,1-.223-.282c-.062-.107-.129-.22-.2-.334a1.483,1.483,0,0,1-.2-.271,6.551,6.551,0,0,1-.512-1.153,10.982,10.982,0,0,1-.314-1.1,28.04,28.04,0,0,1-.607-3.7,30.039,30.039,0,0,1-.12-3.369l-.077-.191a.036.036,0,0,0,.023-.052,2.93,2.93,0,0,0,.121-.511,1.323,1.323,0,0,0-.014-.411,4.314,4.314,0,0,1,.143-.782,2.25,2.25,0,0,0,.059-.879,2.789,2.789,0,0,0,.234-1.148,1,1,0,0,0,.093-.475,1.152,1.152,0,0,1,.03-.409.225.225,0,0,0,.014-.18.136.136,0,0,1,.03-.145c-.011-.023,0-.05.034-.08s.012-.055-.059-.084a.708.708,0,0,0,.157-.37,2.364,2.364,0,0,1,.066-.38l-.016-.037Zm.645,15.4a.419.419,0,0,0-.1-.245.932.932,0,0,1-.145-.359.694.694,0,0,0,.073.346,2.136,2.136,0,0,1,.134.271.114.114,0,0,1,.007-.089Z" transform="translate(-123.568 -28.817)" fill="#1a1311"/>
        <path id="Path_3" data-name="Path 3" d="M143.554,62.357a1.55,1.55,0,0,0-.632.123.547.547,0,0,1-.577-.071,1.769,1.769,0,0,1-1.155-.582,3.708,3.708,0,0,1-.755-1.316l-.077-.189a15.144,15.144,0,0,1-.323-2.3q-.064-1.133-.073-2.228c.052-.373.1-.712.134-1.021s.086-.632.148-.979a2.475,2.475,0,0,1,.016-.775,1.622,1.622,0,0,0-.061-.741.756.756,0,0,0-.348.273,1.855,1.855,0,0,1-.32.348,11.373,11.373,0,0,0-1.53,2.55,24.278,24.278,0,0,0-1.02,2.828,11.955,11.955,0,0,0-.552,2.309c-.1.757-.193,1.578-.275,2.457a6.492,6.492,0,0,1-.079,1,2.1,2.1,0,0,0,.073.934.239.239,0,0,0-.141.189.462.462,0,0,0,.016.259.378.378,0,0,1-.059.177c-.036.059-.07.079-.105.064l.032.075a.122.122,0,0,1-.007.089.157.157,0,0,1-.2-.05.178.178,0,0,0-.057.132,1.162,1.162,0,0,1,0,.154l-.541-.041c-.052.021-.071.043-.062.068a.118.118,0,0,1-.005.091l-.046-.112c-.025.011-.039-.007-.041-.048s-.016-.059-.043-.05c-.05.021-.05,0,0-.064s.041-.1-.02-.1l-.016-.037c-.02-.05-.043-.07-.068-.059-.07-.03-.086-.018-.05.041s.034.095-.016.116a.177.177,0,0,1-.062-.15.13.13,0,0,0-.1-.134c-.036-.014-.048-.009-.039.016s-.005.016-.05-.023c-.071-.03-.1-.073-.073-.125a.192.192,0,0,0,0-.154c-.039.045-.07.043-.091-.009a.068.068,0,0,0-.1-.043l-.048-.112a.186.186,0,0,1-.007-.13.277.277,0,0,1-.095-.289c.025-.112-.007-.18-.1-.2a.748.748,0,0,0-.082-.361.4.4,0,0,1-.05-.286c.005-.061-.005-.07-.036-.03s-.038.03-.032-.03l-.034-3.319-.046-.112a.666.666,0,0,1,.039-.171q.035-.078-.064-.214a9.961,9.961,0,0,0,.118-1.384,10.854,10.854,0,0,1,.093-1.334c.048-.457.1-.916.162-1.38s.107-.907.139-1.33a2.258,2.258,0,0,1,.068-.643,2.072,2.072,0,0,0,.054-.677,2.967,2.967,0,0,0,.171-.925,2.841,2.841,0,0,1,.15-.873c.034-.275.059-.536.079-.777a2.983,2.983,0,0,1,.146-.718,5.026,5.026,0,0,1,.129-.82,2.341,2.341,0,0,0,.052-.791,13.455,13.455,0,0,0,.414-2.053,13.542,13.542,0,0,1,.414-2.053c.02-.1.048-.209.082-.341a2.558,2.558,0,0,1,.1-.3.851.851,0,0,1,.045-.325,1.6,1.6,0,0,0,.073-.248c.045-.107.1-.23.157-.37a2.261,2.261,0,0,0,.118-.355c.03-.071.048-.111.062-.116s.011-.032-.011-.082a.26.26,0,0,0,.059-.286c-.041-.1.025-.187.2-.259a.571.571,0,0,1,.379-.527,1.214,1.214,0,0,1,.693-.02,1.361,1.361,0,0,1,.629.359.54.54,0,0,1,.166.57l.091.227a9.714,9.714,0,0,1-.323,1.468c-.139.45-.27.921-.391,1.411q-.418,2.319-.805,4.6t-.63,4.707a2.145,2.145,0,0,0,.323-.5c.095-.2.189-.391.289-.579a10.144,10.144,0,0,1,.584-1.048,10.6,10.6,0,0,1,.762-1.036,4.359,4.359,0,0,1,.457-.493,3.066,3.066,0,0,1,.543-.395,1.25,1.25,0,0,1,.412-.168.994.994,0,0,0,.437-.223c.034.016.139-.011.316-.082a.526.526,0,0,0,.291.012.408.408,0,0,1,.305.052,1.448,1.448,0,0,1,.53.223.647.647,0,0,1,.2.225.482.482,0,0,0,.239.209l-.03-.075a3.16,3.16,0,0,1,.339.673,1.7,1.7,0,0,1,.093.554,5.29,5.29,0,0,1-.034.564c-.023.2-.041.418-.061.659l-.155,3.178q0,.656-.011,1.212a6.72,6.72,0,0,0,.093,1.253c.007.232.018.5.038.795a1.743,1.743,0,0,0,.273.834.33.33,0,0,1,.082.1.12.12,0,0,0,.07.061.436.436,0,0,1,.166.195l.114-.045a1.37,1.37,0,0,1,.4-.207c.107-.1.134-.141.084-.121s-.021-.018.084-.12a1.02,1.02,0,0,0,.357-.409.907.907,0,0,1,.221-.266,1.544,1.544,0,0,0,.339-.621c.2-.371.32-.6.355-.691s.05-.13.039-.125-.016-.016,0-.064a4.809,4.809,0,0,1,.214-.548,2.279,2.279,0,0,0,.121-.4c.037-.161.091-.371.159-.632a7.214,7.214,0,0,1,.234-1.478,7.955,7.955,0,0,0,.246-1.439c.046.043.054-.012.023-.161s-.036-.2-.016-.148a.127.127,0,0,0,.029-.145.863.863,0,0,1-.032-.293.165.165,0,0,1,.1-.082.6.6,0,0,1,.082-.341c.079-.091.114-.148.105-.175a.074.074,0,0,1,.036.095c-.009.048,0,.08.039.093a.355.355,0,0,0,.245.011.149.149,0,0,0,.132-.164c.039-.043.073-.034.1.027s.063.087.114.066l.164.193c.041-.045.059-.023.052.07s.014.125.064.105c-.005.059-.011.15-.021.271a1.836,1.836,0,0,0-.005.309.624.624,0,0,1,.05.179.5.5,0,0,0,.034.137.712.712,0,0,1,0,.22c-.011.121-.02.255-.03.407s-.036.364-.07.643a.373.373,0,0,1,0,.261,1.11,1.11,0,0,0-.055.243,2.6,2.6,0,0,1,.037.468,1.39,1.39,0,0,1-.037.234c-.018.066-.043.15-.075.25s-.073.266-.129.491l-.075.032c.021.05.029.082.02.1a.082.082,0,0,0,.005.064c-.064.35-.105.591-.121.729a2.4,2.4,0,0,1-.052.305,1.826,1.826,0,0,1-.093.259c-.045.105-.134.316-.266.634-.121.286-.2.484-.241.6s-.077.221-.113.311a2.044,2.044,0,0,1-.18.312c-.084.123-.212.323-.395.6-.084.154-.114.2-.093.148s-.032.007-.166.179c-.1.189-.15.266-.146.236s-.064.041-.2.212c-.079.089-.236.241-.471.454a2.2,2.2,0,0,1-.541.4.6.6,0,0,0-.143.08A.736.736,0,0,1,143.554,62.357Zm-8.59,3.578c-.023.011-.021.054.009.129C135.017,65.958,135.015,65.915,134.963,65.935Z" transform="translate(-115.656 -28.613)" fill="#1a1311"/>
        <path id="Path_4" data-name="Path 4" d="M143.436,45.15c.048-.021.063-.041.039-.061s-.009-.039.043-.061a5.745,5.745,0,0,0,.557-.623,2.134,2.134,0,0,1,.755-.57c-.011-.025.077-.082.259-.171s.27-.146.261-.171l.677-.275q.163-.024.509-.1a.911.911,0,0,1,.448-.03,4.149,4.149,0,0,1,.491.13.888.888,0,0,1,.4.341c-.009-.025.03-.02.116.018l.08.034a.94.94,0,0,1,.293.341,3.385,3.385,0,0,1,.248.448.638.638,0,0,1,.05.286,1.351,1.351,0,0,0,.012.3.643.643,0,0,0,.032.295,3.75,3.75,0,0,1,.027,1.041.784.784,0,0,1-.027.362,1.169,1.169,0,0,0-.043.325A18.885,18.885,0,0,1,147.938,49a11.977,11.977,0,0,1-.9,1.661c-.15.209-.339.461-.57.759a2.311,2.311,0,0,1-.818.682c-.164.1-.336.2-.507.318a1.53,1.53,0,0,1-.5.225,3.85,3.85,0,0,1-.7.111,1.443,1.443,0,0,1-.946-.495,7.456,7.456,0,0,0-.22.968,3.8,3.8,0,0,0,.068,1.245,2.373,2.373,0,0,0,.07.387,3.083,3.083,0,0,0,.161.505,2.638,2.638,0,0,0,.223.437.622.622,0,0,0,.279.257,1.273,1.273,0,0,0,.955.029,5.012,5.012,0,0,0,.9-.43,1.818,1.818,0,0,0,.341-.184,1.176,1.176,0,0,0,.214-.175,3.47,3.47,0,0,1,.429-.348,2.2,2.2,0,0,0,.33-.266q.362-.41.789-.87c.284-.305.532-.589.748-.854q.45-.621.845-1.264a10.813,10.813,0,0,0,.755-1.491,31.562,31.562,0,0,0,1.541-3.543c.337-.968.541-1.616.616-1.939-.005-.084.005-.134.03-.143a.674.674,0,0,0,0,.22l.014.036c.025-.011.023-.052-.005-.127a.181.181,0,0,1,.1-.021c.018.009.054,0,.105-.02.054.066.07.105.045.114.05-.02.05-.079-.005-.173s-.05-.141.011-.136l.234.036c.043-.105.054-.154.03-.143.059,0,.073.021.041.05a.094.094,0,0,0-.018.116.18.18,0,0,0,.1-.084l.061.15.075-.03c.121.011.205.13.254.357a3.923,3.923,0,0,1,.075.827,6.452,6.452,0,0,1-.075.95,1.554,1.554,0,0,1-.214.657c-.052.168-.107.336-.168.507s-.12.341-.168.507c-.027.009-.023.016.009.018s.02.013-.032.034c.018.112.016.164,0,.155s-.046.041-.091.148a.448.448,0,0,1-.073.248c-.064.2-.105.27-.118.2s-.034.007-.062.223a3.664,3.664,0,0,0-.161.414c0,.032,0,.043.016.039s.005.012-.021.052a4.534,4.534,0,0,0-.2.43,22.126,22.126,0,0,1-1.689,3.232,12.2,12.2,0,0,1-2.518,2.821,5.005,5.005,0,0,1-.9.695,9.538,9.538,0,0,1-1.1.58,9.666,9.666,0,0,1-1.184.436,7.38,7.38,0,0,1-1.1.252.429.429,0,0,0-.323-.045.408.408,0,0,1-.325-.041,1.114,1.114,0,0,1-.537-.134,5.5,5.5,0,0,1-.47-.293c-.1-.1-.195-.2-.277-.3a1.993,1.993,0,0,0-.368-.312c-.116-.214-.239-.441-.366-.68a2.554,2.554,0,0,1-.254-.732.175.175,0,0,0-.005-.13l-.016-.036a.389.389,0,0,0-.034-.293q-.1-.793-.173-1.4a2.823,2.823,0,0,1,.1-1.159l-.016-.036a17.51,17.51,0,0,1,.716-3.318,12.16,12.16,0,0,1,1.453-3c0-.059.016-.064.038-.014s.032.045.037-.016c.15-.205.286-.411.412-.605a6.2,6.2,0,0,1,.448-.621l.037-.014ZM140.4,55.682a.094.094,0,0,1,0,.066.091.091,0,0,0,0,.064l-.045-.114Zm3.107-5.3a.491.491,0,0,0,.318.354c.077.118.161.162.254.139a.525.525,0,0,0,.261-.171,4.734,4.734,0,0,0,1-.98l.546-.923c.011-.121.02-.2.029-.252s.052-.057.121-.027c.03-.071.071-.184.125-.337a1.062,1.062,0,0,1,.143-.3,1.779,1.779,0,0,1,.211-.612,1.6,1.6,0,0,0,.207-.521c.052-.229.109-.5.171-.816s-.021-.5-.248-.557l-.048-.114c.027-.011,0-.005-.082.012s-.125.016-.136-.009a.8.8,0,0,0-.173,0c.032,0-.034.023-.195.057a3.858,3.858,0,0,0-.712.73c-.23.3-.421.548-.57.755a7.585,7.585,0,0,0-.545.923,6.145,6.145,0,0,0-.366.939,2.813,2.813,0,0,0-.227.575,1.416,1.416,0,0,0-.077.512,2.506,2.506,0,0,0-.036.343A2.4,2.4,0,0,1,143.5,50.384Zm8.548-5.623c.025-.011.039-.009.045,0s-.007.025-.03.036Z" transform="translate(-110.54 -26.946)" fill="#1a1311"/>
        <path id="Path_5" data-name="Path 5" d="M151.781,44.645a4.361,4.361,0,0,0,.048-.525,1.947,1.947,0,0,0-.054-.568q-.115-.174-.123-.193a.469.469,0,0,0-.129-.1.244.244,0,0,0-.355-.011,2.078,2.078,0,0,0-.416.434c-.141.187-.287.4-.439.639a7.729,7.729,0,0,0-.4.687,6.381,6.381,0,0,0-.429.943,10.627,10.627,0,0,0-.307,1.025,10.443,10.443,0,0,0-.387,2.175,9.031,9.031,0,0,0,.141,2.4.9.9,0,0,0,.041.312c.023.063.068.17.129.32a.967.967,0,0,0,.07.277c.041.1.082.2.121.3.223.261.382.436.48.529s.245.1.445.016a1.222,1.222,0,0,0,.346-.118c.02-.023.114-.112.284-.27a10.733,10.733,0,0,0,1.87-2.469q.745-1.355,1.407-2.636c.075-.173.116-.271.125-.289s.007,0,0,.062l.073-.246c.118-.286.207-.516.262-.7s.114-.352.168-.505.109-.309.164-.462.134-.354.239-.6a1.058,1.058,0,0,0,.041-.325,2.142,2.142,0,0,0,.1-.3c.023-.011.061-.08.107-.22s.1-.3.155-.479.107-.366.152-.545a2.392,2.392,0,0,1,.112-.375c.023-.011.027-.016.009-.027s0-.02.05-.041c.029-.07.055-.134.079-.184A.536.536,0,0,0,156,42.4c.059.005.095.014.1.027s.018-.029.037-.125c.061.005.073-.016.041-.059s-.014-.054.057-.023l-.077-.189a.463.463,0,0,0,.286.059c.021.052.025.041.012-.027s-.009-.077.013-.027a.191.191,0,0,0,.038-.17c-.011-.068,0-.062.029.011.036.016.073-.014.114-.091a.8.8,0,0,1,.162-.2.231.231,0,0,1,.221-.046c.084.027.164.168.241.43a.7.7,0,0,1,.046.33.6.6,0,0,1,.016.257c-.009.121-.021.25-.038.389s-.036.277-.052.416-.027.239-.032.295c-.048.17-.082.286-.1.35s-.03.123-.039.17a1.055,1.055,0,0,0-.021.162c-.005.061-.021.168-.045.325,0,.148-.014.22-.043.216s-.084.084-.159.259l-.221.75-.052.2c-.025.009-.052.05-.082.121a.862.862,0,0,1-.032.3c-.021.054-.048.114-.077.186a.727.727,0,0,0-.112.262,1.617,1.617,0,0,1-.1.3.94.94,0,0,1-.159.414,1.029,1.029,0,0,0-.159.418,2.083,2.083,0,0,1-.109.22.723.723,0,0,0-.079.295c-.107.307-.182.521-.221.639s-.071.218-.1.3a1.334,1.334,0,0,1-.143.3c-.07.116-.193.314-.373.591q-.426.787-.832,1.457a14.828,14.828,0,0,1-.955,1.375.807.807,0,0,0-.284.377q-.437.442-.843.895a5.079,5.079,0,0,1-.928.793,2.077,2.077,0,0,1-.812.373c-.146,0-.291,0-.437,0a2.555,2.555,0,0,0-.639-.005.9.9,0,0,1-.605-.146l-.546-.479c-.1-.107-.221-.218-.357-.339a1.764,1.764,0,0,1-.352-.429,7.393,7.393,0,0,1-.791-2.923,19.727,19.727,0,0,1,0-2.587,6.55,6.55,0,0,1,.53-2.364,1.252,1.252,0,0,1,.045-.371,2.347,2.347,0,0,0,.087-.384c.064-.055.091-.1.08-.121s.018-.066.084-.12c-.032-.077-.032-.129,0-.157s.043-.054.032-.08a2.251,2.251,0,0,0,.207-.521,4.56,4.56,0,0,1,.188-.559c.011.027.039-.014.082-.12l.255-.455.1-.173.846-1.264a3.114,3.114,0,0,1,.987-.755,2.954,2.954,0,0,1,1.173-.3,3.54,3.54,0,0,1,.459.054c.066.016.18.052.348.1a1.811,1.811,0,0,1,.787.645,2.706,2.706,0,0,1,.661,1.136,4.056,4.056,0,0,1,.205,1.32c-.018.241-.034.436-.046.589a1.3,1.3,0,0,1-.164.507c-.075.177-.134.321-.173.441a.828.828,0,0,1-.291.361.55.55,0,0,0-.379-.068c-.075.03-.237-.048-.491-.239a.05.05,0,0,0-.03-.073.049.049,0,0,0-.075.032.937.937,0,0,0-.155-.112.155.155,0,0,1-.082-.146c.05-.021.061-.068.03-.143a.084.084,0,0,1,0-.062q.011-.027-.059-.086l.111-.266-.014-.037a.284.284,0,0,1,0-.22l.016.037.014-.18-.03.143.014-.18Zm-.086.868a.037.037,0,0,0-.023.054A.037.037,0,0,1,151.695,45.513Z" transform="translate(-105.657 -28.531)" fill="#1a1311"/>
        <path id="Path_6" data-name="Path 6" d="M152.064,57.79c.027-.011.073,0,.145.032a.873.873,0,0,1-.273-.243c.036-.13.014-.164-.064-.1s-.116.018-.116-.129c-.062,0-.07-.045-.029-.12s.039-.1-.013-.082l-.023-.168-.07-.059a1.1,1.1,0,0,1-.052-.35.559.559,0,0,0-.095-.337c-.038-.6-.066-1.134-.084-1.609s-.03-.939-.037-1.387,0-.916.027-1.393.054-1,.086-1.57a2.332,2.332,0,0,1-.036-.841,8.715,8.715,0,0,0,.077-.886c.045-.254.084-.5.113-.75a3.333,3.333,0,0,0,.007-.791c.027-.011.039-.052.039-.125s.011-.116.036-.125a1.124,1.124,0,0,1,.048-.37,1.3,1.3,0,0,0,.046-.37l-.036.014a.382.382,0,0,1,.054-.241.348.348,0,0,0-.014-.3c.07.029.095.05.07.061a.038.038,0,0,0-.025.052.6.6,0,0,0,.03-.362.6.6,0,0,1,.029-.362l.052.021-.061-.15a.038.038,0,0,1,.054.023.882.882,0,0,0,.013-.291c-.011-.1-.016-.22-.018-.366.025-.009.048.013.07.063a7.217,7.217,0,0,0,.146-.829c.023-.23.054-.512.093-.85q.163-1.425.371-2.541c.136-.741.284-1.527.446-2.352a2.611,2.611,0,0,0,.095-.521,1.7,1.7,0,0,1,.132-.536,3.554,3.554,0,0,1,.175-.816,2.489,2.489,0,0,0,.143-.673l.112-.046a.62.62,0,0,0,0-.262.3.3,0,0,1,.093-.259l.029.075.121-.136a.2.2,0,0,1,.086-.277,1,1,0,0,1,.787-.055.648.648,0,0,1,.287.168.349.349,0,0,1,.1.136c.221-.032.337.021.352.162a.608.608,0,0,0,.171.371.3.3,0,0,1,.027.227.489.489,0,0,0-.023.209q-.372,2.649-.782,5.251t-.766,5.291q.463-.584.9-1.18c.293-.4.587-.771.88-1.125a.624.624,0,0,1,.207-.191,1.528,1.528,0,0,0,.28-.227,2.737,2.737,0,0,1,.579-.521,3,3,0,0,1,.823-.4,2.021,2.021,0,0,1,.945-.054,1.948,1.948,0,0,1,.986.539,2.059,2.059,0,0,1,.45.891,4.04,4.04,0,0,1,.105,1.012,4.287,4.287,0,0,1-.141,1c-.086.327-.171.641-.257.936A4.06,4.06,0,0,1,159.313,48c-.27.345-.573.745-.914,1.2a.386.386,0,0,0-.107.111q-.072.094-.193.23a3.69,3.69,0,0,1-.277.291.683.683,0,0,0-.136.1.524.524,0,0,1-.173.112,1.65,1.65,0,0,1-.566.386,3.138,3.138,0,0,0-.7.393,5.594,5.594,0,0,0,.737,1.17,4.078,4.078,0,0,0,1.184,1.077,4.015,4.015,0,0,0,.554.28,2.515,2.515,0,0,0,.7,0,2.336,2.336,0,0,0,.446-.093,1.736,1.736,0,0,0,.345-.229,1.564,1.564,0,0,1,.173-.114c.025-.011.03-.012.02-.007h0a1.671,1.671,0,0,0,.175-.159,5.883,5.883,0,0,0,.384-.464,6.015,6.015,0,0,1,.425-.568,4.337,4.337,0,0,0,.45-.839c.148-.354.291-.718.43-1.1s.264-.734.375-1.075a7.048,7.048,0,0,0,.225-.793.853.853,0,0,0,.164-.461,2.927,2.927,0,0,1,.109-.482c.025-.011.057-.118.089-.323s.064-.311.089-.321c.025-.157.02-.237-.016-.255s-.025-.062.029-.143l.016.036c-.005-.232.045-.375.154-.434a1.225,1.225,0,0,1,.454-.12c-.029.073.127.095.468.073-.029.071-.018.095.032.075a.037.037,0,0,0,.023-.054c-.011-.025.007-.046.059-.068a.522.522,0,0,1,.034.139.421.421,0,0,0,.036.141q-.024.054.016.037a.037.037,0,0,0,.021-.054c.059.005.077.064.05.175s-.021.15.018.1q0,.22-.054.134c-.038-.059-.025-.041.043.048.048-.02.066-.036.048-.043s-.016-.016.011-.025a.84.84,0,0,1-.021.27,5.1,5.1,0,0,1-.105.5,4.116,4.116,0,0,0-.093.521.846.846,0,0,0,0,.329c-.245,1.125-.5,2.125-.771,3.011a9.958,9.958,0,0,1-1.37,2.727l-.12.137a.358.358,0,0,1-.136.1,2.47,2.47,0,0,1-.457.493q-.233.182-.5.38c-.205.141-.354.246-.443.311a3.665,3.665,0,0,1-.625.3,1,1,0,0,1-.289.095,1.713,1.713,0,0,0-.321.021,2.594,2.594,0,0,1-1.759-.118l-.62-.23c-.3-.17-.543-.314-.723-.432a2.569,2.569,0,0,1-.455-.362c-.123-.123-.248-.252-.371-.377s-.27-.282-.436-.479a2.148,2.148,0,0,1-.364-.464,5.091,5.091,0,0,0-.257-.468c-.138-.236-.241-.4-.309-.491-.013.037.011.1.077.191a1.058,1.058,0,0,1,.13.211.509.509,0,0,1-.209-.245c-.07-.13-.141-.184-.216-.154a5.552,5.552,0,0,0-.091,1.07c0,.425-.018.787-.039,1.087-.014.182-.027.334-.036.454s-.014.234-.016.336,0,.22.007.348.018.307.023.539a1.572,1.572,0,0,1,.057.459,2.467,2.467,0,0,0,.077.627.471.471,0,0,0-.061.286c-.059,0-.062.023-.012.073a.153.153,0,0,1,.03.184.778.778,0,0,1-.136.364.526.526,0,0,0-.125.18c-.084.005-.13.023-.132.054s-.038.03-.109,0c-.029.07-.052.1-.07.095s-.043.023-.071.095c-.041.043-.045.037-.009-.02s.029-.077-.023-.055c-.029.07-.054.08-.075.029s-.041-.07-.068-.059c.045-.105.054-.154.03-.143a.242.242,0,0,1-.143.08.163.163,0,0,0-.129.118.074.074,0,0,1,.045-.107l.077-.03a.038.038,0,0,0-.054-.023.036.036,0,0,1-.054-.021.45.45,0,0,0-.123.073.521.521,0,0,1-.125.071c.005-.059-.018-.1-.064-.107a.491.491,0,0,1-.193-.095c-.03.071-.043.077-.038.014l-.145-.027a.116.116,0,0,0,.07.057c-.014.037-.046.036-.091-.005A.472.472,0,0,0,152.064,57.79Zm5.91-13.408a3.959,3.959,0,0,0-.757.568,6.14,6.14,0,0,0-.6.73c-.148.207-.286.407-.409.6s-.237.389-.337.577a14.582,14.582,0,0,0-.736,1.373,7.055,7.055,0,0,0-.479,1.359c-.03.068-.007.109.073.123a.446.446,0,0,0,.23-.029,6.371,6.371,0,0,0,1.584-1.171l.2-.257a.131.131,0,0,1,.079-.079.12.12,0,0,0,.075-.075l.248-.364a.806.806,0,0,0,.048-.152.179.179,0,0,1,.1-.125,6.593,6.593,0,0,0,.571-1.023,6.994,6.994,0,0,0,.368-.982,1.7,1.7,0,0,0,.082-.712.344.344,0,0,0-.237-.321c-.016.036-.03.036-.046,0S158,44.373,157.974,44.382Z" transform="translate(-101.742 -34.042)" fill="#1a1311"/>
      </g>
    </g>
  </g>
</svg>
