<svg xmlns="http://www.w3.org/2000/svg" xmlns:xlink="http://www.w3.org/1999/xlink" width="276" height="146" viewBox="0 0 276 146">
  <defs>
    <radialGradient id="radial-gradient" cx="0.5" cy="0.5" r="0.5" gradientUnits="objectBoundingBox">
      <stop offset="0" stop-color="#91c0ff"/>
      <stop offset="1" stop-color="#077ce5"/>
    </radialGradient>
    <radialGradient id="radial-gradient-2" cx="0.5" cy="0.5" r="0.5" gradientUnits="objectBoundingBox">
      <stop offset="0" stop-color="#9cd1ae"/>
      <stop offset="1" stop-color="#4ad35f"/>
    </radialGradient>
  </defs>
  <g id="Group_59" data-name="Group 59" transform="translate(-502 -1563)">
    <circle id="Ellipse_5" data-name="Ellipse 5" cx="73" cy="73" r="73" transform="translate(502 1563)" opacity="0.5" fill="url(#radial-gradient)"/>
    <circle id="Ellipse_13" data-name="Ellipse 13" cx="73" cy="73" r="73" transform="translate(632 1563)" opacity="0.5" fill="url(#radial-gradient-2)"/>
    <path id="Path_57" data-name="Path 57" d="M-24.894.18H-28.6v-5.4h5.328c.252,0,.432-.09.486-.288-.864-.738-2.3-1.8-2.3-1.8l-1.26,1.566H-28.6V-10.35h5.814c.288,0,.486-.09.54-.288-.882-.738-2.268-1.746-2.268-1.746l-1.242,1.53H-28.6V-14.4c.486-.072.612-.252.666-.522l-2.988-.288v4.356h-2.9a18.377,18.377,0,0,0,1.188-2.538c.414,0,.648-.162.7-.378l-3.024-.9A24.774,24.774,0,0,1-38.3-6.1l.2.162a14.2,14.2,0,0,0,4-4.41h3.186v4.608h-5.094l.144.522h4.95V.18h-7.218L-38,.7h16.236c.27,0,.468-.09.522-.288-.9-.756-2.358-1.872-2.358-1.872Zm7.812-15.012a7.323,7.323,0,0,1,1.89,2.736c2,1.08,3.276-2.664-1.746-2.88Zm-1.35,3.942A5.694,5.694,0,0,1-16.7-8.3c1.89,1.152,3.276-2.52-1.584-2.736Zm5.526-.666c-3.456,6.822-3.456,6.822-3.87,7.488-.216.36-.306.378-.576.378H-18.2v.324a1.873,1.873,0,0,1,.954.306c.432.288.5,1.89.162,3.78.162.648.558.918.99.918A1.46,1.46,0,0,0-14.544.144c.054-1.566-.684-2.178-.72-3.114a7.188,7.188,0,0,1,.306-1.692c.252-.9,1.584-4.752,2.322-6.8Zm8.118,6.7V-.54h-5.454V-4.86Zm.306-4.5h-2v-3.294c1.206-.144,2.322-.324,3.222-.5a1.293,1.293,0,0,0,1.188.036l-2.088-2.016A47.554,47.554,0,0,1-13.05-12.4l.036.27c1.4-.036,2.934-.144,4.392-.288v3.06h-4.7l.144.522h4.554v3.456h-1.512l-2.16-.864V1.548h.27c.882,0,1.782-.45,1.782-.648V-.018h5.454V1.458h.36A3.008,3.008,0,0,0-2.682.864V-4.518A1.342,1.342,0,0,0-1.944-4.9L-3.978-6.462l-.99,1.08H-6.48V-8.838H-1.8c.252,0,.45-.09.5-.288-.756-.72-2.034-1.782-2.034-1.782ZM7.074-8.8c0,.216-.072.324-.324.324-.36,0-1.6-.108-1.6-.108v.252a1.723,1.723,0,0,1,1.188.594A2.346,2.346,0,0,1,6.66-6.48C8.694-6.66,8.982-7.362,8.982-8.6v-4.572a1.182,1.182,0,0,0,.738-.378L7.74-15.03l-.846,1.008H2.052l.162.522h4.86v3.06l-.036-.126c-2.268.63-4.518,1.224-5.49,1.4l1.116,2.07a.618.618,0,0,0,.414-.45C4.9-8.748,6.21-9.7,7.074-10.35ZM2.916-13.086a5.454,5.454,0,0,1,1.3,2.34c1.6,1.116,3.1-1.944-1.152-2.448ZM13.14-5.22v2.25H6.7V-5.22ZM6.7-.09V-2.448H13.14V-.09Zm9.216-14.94-.882,1.008H10.062l.162.522H15.21v2.9l-.036-.144c-2.268.63-4.518,1.206-5.49,1.4l1.17,1.962L8.928-7.7c-.072.576-.18,1.4-.288,1.98H6.84l-2.232-.9V1.584h.324C5.8,1.584,6.7,1.134,6.7.918V.432H13.14V1.566h.36a3.487,3.487,0,0,0,1.764-.522V-4.878a1.159,1.159,0,0,0,.7-.378l-2.034-1.53L12.96-5.724H9.666c.468-.324,1.062-.756,1.44-1.044.4-.018.648-.162.72-.45l-.792-.126a.629.629,0,0,0,.27-.414c1.8-1.188,3.078-2.106,3.906-2.754V-8.82c0,.216-.072.342-.324.342-.36,0-1.638-.108-1.638-.108v.252a1.829,1.829,0,0,1,1.224.612,2.335,2.335,0,0,1,.306,1.278c2.088-.2,2.376-.9,2.376-2.16v-4.554a1.323,1.323,0,0,0,.738-.378ZM10.62-13.086A4.982,4.982,0,0,1,12.042-10.8c1.62,1.08,3.024-2.07-1.278-2.412ZM22.3-11.862a5.055,5.055,0,0,1-.774,3.114A1.018,1.018,0,0,0,21.2-7.434a.934.934,0,0,0,1.512-.144c.468-.756.612-2.322-.126-4.284Zm3.078-.36v-2.286c.468-.072.612-.252.648-.522l-2.574-.252V1.6h.4c.72,0,1.53-.378,1.53-.576v-13A6.381,6.381,0,0,1,25.9-9.36c1.134,1.188,2.718-1.206-.378-2.9Zm7.4,10.782a7.2,7.2,0,0,1,2.9,2.448c1.548,1.674,5.256-2.016-2.808-2.664ZM26.154,1.584A17.016,17.016,0,0,0,31.86-.648c.4.09.558.018.684-.144L30.492-2.178a15.437,15.437,0,0,1-4.5,3.528ZM32.814-10.4c.054-.414.09-.918.144-1.458h1.62c-.054.486-.09.99-.126,1.458ZM34.506-8.73H29.754l-1.962-.81a2.522,2.522,0,0,0,1.71-.2L29.52-9.9H34.4l-.036.27a4.264,4.264,0,0,0,.936.054ZM29.664-2.682V-4.23h5.022v1.548Zm0-3.528h5.022v1.476H29.664Zm5.022-.522H29.664V-8.226h5.022Zm-3.438-5.13c-.036.522-.09,1.044-.144,1.458h-1.53c.036-.45.09-.954.126-1.458Zm.144-2.016c-.036.45-.072.99-.108,1.512H29.736c.054-.558.09-1.08.108-1.512Zm3.312,0c-.036.45-.054.972-.09,1.512h-1.62c.036-.522.072-1.044.09-1.512Zm1.872,1.512h-.108c.018-.45.036-.864.054-1.188a1.229,1.229,0,0,0,.738-.342L35.3-15.354l-.756.954H30.186l-2-.81c-.054.738-.126,1.764-.252,2.844H26.568l.144.5H27.9c-.09.81-.2,1.62-.288,2.3h.036v8.244h.288c.864,0,1.728-.468,1.728-.666v-.2h5.022V-1.6h.342a2.83,2.83,0,0,0,1.692-.612V-7.938a1.132,1.132,0,0,0,.648-.342L35.64-9.612a1.721,1.721,0,0,0,.648-.216c.054-.612.108-1.332.144-2.034h1.656c.252,0,.414-.09.45-.288-.45-.5-1.26-1.242-1.26-1.242Z" transform="translate(574 1644)" fill="#fff"/>
    <path id="Path_58" data-name="Path 58" d="M-11.7-15.192a6.438,6.438,0,0,1,.81,3.258c1.674,1.674,3.924-1.728-.63-3.33Zm-4.122.36a5.769,5.769,0,0,1,1.26,3.24c1.764,1.53,3.69-2.106-1.08-3.348ZM-4.59-10.224c-.2.738-.486,1.656-.72,2.25l.144.126A19.22,19.22,0,0,0-2.232-9.774c.378-.018.558-.072.7-.234L-3.51-11.88l-1.152,1.134h-2.79a24.067,24.067,0,0,0,3.546-3.078c.414.036.63-.09.72-.306L-6.1-15.12a31.177,31.177,0,0,1-1.854,4.374h-7.452a5.86,5.86,0,0,0-.414-1.188h-.252a2.838,2.838,0,0,1-1.134,2.5,1.2,1.2,0,0,0-.774,1.44,1.121,1.121,0,0,0,1.674.486,2.616,2.616,0,0,0,.99-2.718Zm2.07,4.212c.252,0,.432-.09.486-.288-.756-.666-2.034-1.674-2.034-1.674L-5.184-6.516h-3.69v-2.5c.486-.072.63-.27.666-.522L-11-9.792v3.276h-6.5l.144.5h5A15.615,15.615,0,0,1-18.234.54l.162.234A16.2,16.2,0,0,0-11-4.158V1.584h.378c.828,0,1.746-.414,1.746-.612V-6.012h.054A11.742,11.742,0,0,0-3.186.576,2.222,2.222,0,0,1-1.512-1.188l.036-.2c-2.61-.81-5.544-2.3-6.966-4.626Zm15.012,3.2v.54h.36a4.448,4.448,0,0,0,1.44-.306c-.414.45-.9.954-1.35,1.368a6.913,6.913,0,0,1-2.862-1.6Zm-5.184,0H9.576a7.585,7.585,0,0,0,1.152,1.6c-1.188.09-2.34.2-3.42.288Zm5.328-5.814a6.67,6.67,0,0,0,.522,1.008l-.81.846H10.872v-.846c.36-.054.486-.2.5-.414L8.91-8.244v1.476H7.542L6.912-7a8.922,8.922,0,0,0,1.26-1.62ZM12.492-5.04H7.308V-6.264h5.184Zm0,1.728H7.308V-4.536h5.184Zm6.084-2.916A11.274,11.274,0,0,1,13.14-8.622h4.536c.27,0,.468-.09.5-.288-.774-.648-2-1.53-2-1.53l-1.1,1.3H10.872v-1.35h5.67a.444.444,0,0,0,.468-.288c-.72-.612-1.89-1.44-1.89-1.44l-1.026,1.206H10.872v-1.278h6.5c.252,0,.45-.09.486-.288-.756-.648-1.962-1.53-1.962-1.53l-1.08,1.3h-3.33A17.5,17.5,0,0,0,13.7-14.274c.414.018.612-.108.7-.324l-2.718-.756a24.122,24.122,0,0,1-.792,2.538H8.154c.864-.594.666-2.43-2.628-2.43l-.144.108a6.877,6.877,0,0,1,1.494,2.322H2.2l.144.522H8.82v1.278H3.006l.162.522H8.82v1.35H1.746l.144.522H5.634A12.705,12.705,0,0,1,1.26-3.96l.144.252A17.122,17.122,0,0,0,5.256-5.634V-.756C4.23-.684,3.4-.63,2.844-.612L4,1.656a.662.662,0,0,0,.468-.414c3.024-.954,5-1.674,6.39-2.232V-1.1a11.275,11.275,0,0,0,5.994,2.664,2.1,2.1,0,0,1,1.386-1.8L18.216-.45a22.784,22.784,0,0,1-4.428-.522c.972-.36,1.944-.774,2.628-1.1.378.108.54.018.648-.144L15.156-3.582c-.162.2-.378.45-.612.738V-5.922a11.356,11.356,0,0,0,2.52,1.728A2.257,2.257,0,0,1,18.54-6.03Z" transform="translate(702 1644)" fill="#fff"/>
  </g>
</svg>
