<svg xmlns="http://www.w3.org/2000/svg" width="198.08" height="72.273" viewBox="0 0 198.08 72.273">
  <g id="よこ" transform="translate(99.04 36.136)">
    <g id="Group_40" data-name="Group 40" transform="translate(-99.04 -36.136)">
      <g id="Group_37" data-name="Group 37" transform="translate(84.035)">
        <path id="Path_96" data-name="Path 96" d="M93.179,9.871l-5.619-1-1.166,6.2,5.071.9Z" transform="translate(-84.223 -0.019)" fill="#fff500"/>
        <path id="Path_97" data-name="Path 97" d="M94.253,6.039,89.221,0,88.4,4.394,87.986,6.6,93.8,7.636Z" transform="translate(-84.226)" fill="#fff500"/>
        <path id="Path_98" data-name="Path 98" d="M154.818,58.147q-.073,2.32-.165,3.371a4.519,4.519,0,0,1-.276,1.419.59.59,0,0,1-.553.368H152.5q-.518,0-.645-.239a3.233,3.233,0,0,1-.131-1.2V53.357h-9.5V49.562h-5.38v3.795h-9.21v4.937h8.291q-2.323,4.275-11.275,6.337.959.958,1.989,2.21a16.783,16.783,0,0,1,1.585,2.21q6.446-1.584,9.581-4.365a12.451,12.451,0,0,0,4.015-6.392h4.237v3.648a12.626,12.626,0,0,0,.5,4,3.478,3.478,0,0,0,1.64,2.026,7,7,0,0,0,3.241.609h2.984a5.15,5.15,0,0,0,2.911-.718A4.709,4.709,0,0,0,159,65.387a20.928,20.928,0,0,0,.866-4.956,23.511,23.511,0,0,1-2.819-.994A8.065,8.065,0,0,1,154.818,58.147Z" transform="translate(-84.306 -0.108)" fill="#fff500"/>
        <path id="Path_99" data-name="Path 99" d="M158.283,36.853H144.8v-3.1h-5.527v3.1H126.009v8.069h5.378V41.606h3.243a7.564,7.564,0,0,1-1.07,3.04,6.165,6.165,0,0,1-2.744,2.026,23.222,23.222,0,0,1-5.655,1.419,11.9,11.9,0,0,1,1.584,2.063,10.991,10.991,0,0,1,1.143,2.284,24.246,24.246,0,0,0,7.221-2.34,9.05,9.05,0,0,0,3.665-3.463,14.673,14.673,0,0,0,1.493-5.029h3.205V45.77a10.586,10.586,0,0,0,.442,3.463,2.964,2.964,0,0,0,1.6,1.749,8.564,8.564,0,0,0,3.445.535H152.5a6.512,6.512,0,0,0,2.67-.461,3.3,3.3,0,0,0,1.585-1.584,10.516,10.516,0,0,0,.865-3.187,20.874,20.874,0,0,1-2.394-.755,10.811,10.811,0,0,1-2.063-.977h5.12ZM152.7,46.414a.791.791,0,0,1-.793.424h-2.063a1.371,1.371,0,0,1-.883-.185,1.544,1.544,0,0,1-.185-.958v-4.09h3.833v2.948h.4A6.51,6.51,0,0,1,152.7,46.414Z" transform="translate(-84.307 -0.073)" fill="#fff500"/>
        <path id="Path_100" data-name="Path 100" d="M186.075,56.862H193.7V51.888H163.01v4.974h7.922a44.6,44.6,0,0,1-2.173,5.564l-1.106.037q-1.474.073-4.533.147l.7,5.233,2.1-.112q11.936-.516,21.591-1.069a23.214,23.214,0,0,1,1.326,2.174l5.011-3.021a33.559,33.559,0,0,0-3.335-4.42A53.594,53.594,0,0,0,186.075,56.862Zm-2.359,5.048-8.99.331q.922-1.658,2.8-5.379h7.184l-3.906,2.027Q182.28,60.29,183.716,61.91Z" transform="translate(-84.389 -0.113)" fill="#fff500"/>
        <path id="Path_101" data-name="Path 101" d="M180.874,33.87H175.2a29.8,29.8,0,0,1-6.152,6.705,34.209,34.209,0,0,1-8.548,5.3,19.574,19.574,0,0,1,1.75,2.174,16.73,16.73,0,0,1,1.418,2.321,40.272,40.272,0,0,0,6.044-3.463v2.727H186.8V46.617a40.906,40.906,0,0,0,5.933,3.353,27.227,27.227,0,0,1,3.463-4.9,31.434,31.434,0,0,1-15.328-11.2Zm-8.253,10.868a33.327,33.327,0,0,0,5.637-5.747,30.044,30.044,0,0,0,5.9,5.747Z" transform="translate(-84.384 -0.074)" fill="#fff500"/>
        <path id="Path_102" data-name="Path 102" d="M197.933,35.22a4,4,0,0,0-1.515-1.514,4.2,4.2,0,0,0-2.11-.542,4.248,4.248,0,0,0-2.119.542,3.979,3.979,0,0,0-1.524,1.514,4.543,4.543,0,0,0,0,4.369,4.051,4.051,0,0,0,1.524,1.523,4.194,4.194,0,0,0,2.119.551,4.143,4.143,0,0,0,2.11-.551,4.071,4.071,0,0,0,1.515-1.523,4.543,4.543,0,0,0,0-4.369Zm-1.45,4.507a3.152,3.152,0,0,1-4.351,0A3.223,3.223,0,0,1,191.3,37.4a3.186,3.186,0,0,1,.834-2.312,3.173,3.173,0,0,1,4.351,0,3.183,3.183,0,0,1,.835,2.312A3.219,3.219,0,0,1,196.483,39.727Z" transform="translate(-84.448 -0.072)" fill="#fff500"/>
        <path id="Path_103" data-name="Path 103" d="M196.021,37.382a1.275,1.275,0,0,0,.184-.671,1.2,1.2,0,0,0-.468-1.028,2.026,2.026,0,0,0-1.239-.348h-1.909v4.111h1.266V38.217h.551l.624,1.229h1.3l-.862-1.6A1.193,1.193,0,0,0,196.021,37.382ZM194.7,37.2a.641.641,0,0,1-.459.156h-.385V36.271h.4a.633.633,0,0,1,.45.147.505.505,0,0,1,.156.385A.518.518,0,0,1,194.7,37.2Z" transform="translate(-84.453 -0.077)" fill="#fff500"/>
        <path id="Path_104" data-name="Path 104" d="M169.711,29.618a.466.466,0,0,1-.353.109q-1.328,0-2.063-.032c.208.477.4,1,.594,1.585a10.527,10.527,0,0,1,.4,1.585q1.525,0,2.43-.093a4.136,4.136,0,0,0,1.582-.466,2.193,2.193,0,0,0,1.045-1.057,5.163,5.163,0,0,0,.282-1.957V16.584h-4.857l-.34-.187a54.19,54.19,0,0,0,5-3.7l-2.317-2.33-.847.217H157.8v3.044h3.644l-1.864,1.927,2.259,1.025h-4.858v16.31h3.757V28.079h2.571v4.38h3.756v-4.38h2.74v1.181A.531.531,0,0,1,169.711,29.618Zm-6.4-4.583h-2.571V23.917h2.571Zm0-4.163h-2.571V19.785h2.571Zm2.033-6.058L162.8,13.633h4.1Zm1.723,4.97h2.74v1.088h-2.74Zm0,5.251V23.917h2.74v1.118Z" transform="translate(-84.376 -0.023)" fill="#fff500"/>
        <path id="Path_105" data-name="Path 105" d="M146.733,20.992l2.053.336,3.457-7.963a48.753,48.753,0,0,1-.513,9.514l0,0a14.711,14.711,0,0,1-2.938,6.9,9.874,9.874,0,0,1,1.512,1.367,11.149,11.149,0,0,1,1.37,1.678,16.169,16.169,0,0,0,3.419-7.442,47.1,47.1,0,0,0,.932-9.46V9.766h18.643V5.913h-9.6V3.127h-4.351V5.913h-8.5v6.415c.006.176.011.374.016.583l-2.537-.506,1.724-4.59L147.5,7.087l-1.3,6.378,2.766.561Z" transform="translate(-84.353 -0.007)" fill="#fff500"/>
        <path id="Path_106" data-name="Path 106" d="M99.314,17.582q6.527-.528,9.776-.87a21.639,21.639,0,0,1,1.045,2.547l3.843-2.33a33.794,33.794,0,0,0-2.3-4.551A44.759,44.759,0,0,0,108.525,7.7l-3.617,1.957q1.018,1.429,1.978,3.014l-5.113.341q1.835-4.1,3.39-8.543l-4.775-1.118q-.479,2.329-1.3,5t-1.723,4.909c-1.374.083-2.3.135-2.767.155l.479,4.535Z" transform="translate(-84.241 -0.007)" fill="#fff500"/>
        <path id="Path_107" data-name="Path 107" d="M111.381,32.809V19.668H96.891V32.934h3.982V31.722H107.2v1.088Zm-10.508-5.219V23.8H107.2v3.791Z" transform="translate(-84.246 -0.043)" fill="#fff500"/>
        <path id="Path_108" data-name="Path 108" d="M119.472,40.5h2.95V35.531H104V40.5h2.284v8.217h-3.205v5.047h3.1q-.588,8.439-4.053,12.269a16.3,16.3,0,0,1,2.119,1.437,17.357,17.357,0,0,1,1.9,1.658q4.459-4.754,5.048-15.365h3.205V68.8h5.083V53.768h3.686V48.721h-3.686Zm-5.083,8.217H111.3V40.5h3.094Z" transform="translate(-84.257 -0.077)" fill="#fff500"/>
        <path id="Path_109" data-name="Path 109" d="M95.375,46.766H91.859l1.973-6.6h8.507V35.344h-12.3l2.681-8.991,2.38-7.386-9.14-1.625-.7,3.723,4.341.875-2.114,8.51L85.307,38.8l3.327-.122L84.218,72.31l6.805-22.747-.289,7.669v9.761h4.384V64.377h6.889V46.766H95.375Zm2.1,12.932H95.118V51.445h2.359Z" transform="translate(-84.218 -0.038)" fill="#fff500"/>
        <path id="Path_110" data-name="Path 110" d="M118.451,22.748a4.526,4.526,0,0,0-1.429.358,3.584,3.584,0,0,0-.906.543c-.194.175-.294.268-.3.278V21.36h-2.132v5.168H115.7a8.617,8.617,0,0,1,1.087-.925,4,4,0,0,1,1.48-.671,2.1,2.1,0,0,1,1.29.088,1.576,1.576,0,0,1,.682.662,1.862,1.862,0,0,1,.231.893,1.621,1.621,0,0,1-.21.917,1.666,1.666,0,0,1-.827.679,4.717,4.717,0,0,1-1.761.262,16.807,16.807,0,0,1-3.015-.326V30.53q3.972.669,5.981-.4a3.671,3.671,0,0,0,1.994-3.54,4.536,4.536,0,0,0-.493-2.1,3.188,3.188,0,0,0-1.443-1.38A4.147,4.147,0,0,0,118.451,22.748Z" transform="translate(-84.282 -0.046)" fill="#fff500"/>
        <path id="Path_111" data-name="Path 111" d="M116.3,20.4c.42-.016.863-.018,1.326-.008a10.447,10.447,0,0,1,1.37.128q.7.112,1.189.224a4.293,4.293,0,0,1,.5.128V18.307c-.009,0-.169-.027-.478-.08s-.693-.107-1.152-.16-.921-.09-1.385-.112-.911-.029-1.341-.024-.786.014-1.066.024l-.436.016v2.5l.428-.024C115.53,20.436,115.879,20.421,116.3,20.4Z" transform="translate(-84.285 -0.039)" fill="#fff500"/>
        <path id="Path_112" data-name="Path 112" d="M126.257,28.212q.419-1.531,1.449-6.491h2.19V19.313h-1.841q.043-.446.245-1.658h-2.03c0,.01-.017.17-.051.478s-.09.7-.167,1.18h-1.827v2.408h1.436q-.248,1.548-1.509,6.491Z" transform="translate(-84.305 -0.038)" fill="#fff500"/>
        <path id="Path_113" data-name="Path 113" d="M128.01,25.321a3.589,3.589,0,0,0-.92,2.575,3.525,3.525,0,0,0,.471,1.978,2.512,2.512,0,0,0,1.146.973,3.246,3.246,0,0,0,1.37.239,2.748,2.748,0,0,0,1.059-.216,1.917,1.917,0,0,0,.892-.829,3.6,3.6,0,0,0,.369-1.826V27.179a4.732,4.732,0,0,1,.784.431q.4.271.942.686V25.7c-.02-.021-.2-.131-.552-.327a9.093,9.093,0,0,0-1.174-.55V21.645q.726.016,1.182.048c.3.022.462.032.471.032V19.269a3.919,3.919,0,0,0-.536-.048q-.522-.031-1.327-.048a13.384,13.384,0,0,0-1.689.08l.014,5.247A3.016,3.016,0,0,0,128.01,25.321Zm2.5,2.687a1.347,1.347,0,0,1-.109.59.378.378,0,0,1-.326.239,1.23,1.23,0,0,1-.891-.208.971.971,0,0,1-.312-.845,1.264,1.264,0,0,1,.45-.925,1.448,1.448,0,0,1,1.188-.207Z" transform="translate(-84.311 -0.042)" fill="#fff500"/>
        <path id="Path_114" data-name="Path 114" d="M143.381,24.206q.13,1.6.138,2.935t0,1.682c0,.229-.007.354-.007.375H145.7a49.99,49.99,0,0,0-.225-6.227q-.269-2.161-.559-3.444t-.3-1.284h-2.247a18.183,18.183,0,0,1,.645,2.815Q143.25,22.612,143.381,24.206Z" transform="translate(-84.344 -0.04)" fill="#fff500"/>
        <path id="Path_115" data-name="Path 115" d="M138.9,30.442a3.657,3.657,0,0,0,1.283-.391,4.1,4.1,0,0,0,.841-.574,3.336,3.336,0,0,1,.311-.279V26.551c-.019.011-.159.125-.42.343a8.831,8.831,0,0,1-.906.654,1.913,1.913,0,0,1-.921.342q-.362-.046-.472-.829a15.494,15.494,0,0,1-.109-2.041q.015-.973.037-2.129t.051-2.208q.028-1.054.058-1.731t.029-.709h-2.175q0,.033-.022.782t-.043,1.9q-.022,1.157-.03,2.409t-.007,2.272a8.607,8.607,0,0,0,.617,3.724A1.8,1.8,0,0,0,138.9,30.442Z" transform="translate(-84.331 -0.04)" fill="#fff500"/>
        <path id="Path_116" data-name="Path 116" d="M177.914,30.025a2.1,2.1,0,0,0,1.443-.83,7.177,7.177,0,0,0,1.11-1.881,12.907,12.907,0,0,0,.7-2.169l.015-.032c.2.086.411.179.624.279s.43.21.653.326a25.139,25.139,0,0,1-.7,2.671q-.37,1.109-.639,1.707t-.267.614h2.32a12.1,12.1,0,0,0,.682-1.882q.274-1,.464-2.058.7.416,1.117.694c.279.186.425.283.435.294V24.89a3.773,3.773,0,0,1-.326-.2c-.208-.134-.5-.3-.863-.5q.115-1.067.167-1.93t.051-1.363v-.519h-1.914c0,.5-.013.989-.036,1.468s-.061.946-.109,1.4a11.564,11.564,0,0,0-1.261-.542q.144-1.292.21-2.352t.073-1.7q.007-.638.007-.654h-5.452v2.551h3.408c-.01.224-.024.49-.043.8s-.049.633-.088.973a3.739,3.739,0,0,0-1.689.5,4.681,4.681,0,0,0-1.392,1.243,3.852,3.852,0,0,0-.747,1.842,5.47,5.47,0,0,0,.37,2.983A1.833,1.833,0,0,0,177.914,30.025Zm-.275-3.8a3.386,3.386,0,0,1,.254-.655,1.779,1.779,0,0,1,.544-.638,1.363,1.363,0,0,1,.84-.27c0,.01-.029.157-.087.438s-.14.6-.246.965a4.337,4.337,0,0,1-.4.957.715.715,0,0,1-.558.43c-.1,0-.2-.1-.3-.3A1.574,1.574,0,0,1,177.639,26.229Z" transform="translate(-84.417 -0.039)" fill="#fff500"/>
        <path id="Path_117" data-name="Path 117" d="M188.676,29.141a2.336,2.336,0,0,0,1.3.486,1.785,1.785,0,0,0,1.537-.749,6.544,6.544,0,0,0,1.016-2.1,14.162,14.162,0,0,0,.544-2.9q.138-1.579.182-3.126a1.89,1.89,0,0,1,1.421,1.029,4.851,4.851,0,0,1,.507,2.129,5.549,5.549,0,0,1-.7,3.117,2.34,2.34,0,0,1-1.944,1.109V30.52a4.614,4.614,0,0,0,3.154-1.363,5.266,5.266,0,0,0,1.189-2.018,8.888,8.888,0,0,0,.428-3.094,7.629,7.629,0,0,0-.856-3.46,4.472,4.472,0,0,0-1.965-1.921,5.09,5.09,0,0,0-2.617-.455,4.309,4.309,0,0,0-2.364,1.029,6.222,6.222,0,0,0-1.667,2.328,8.363,8.363,0,0,0-.653,3.214,7.929,7.929,0,0,0,.442,2.854A3.41,3.41,0,0,0,188.676,29.141Zm.543-4.361a7.158,7.158,0,0,1,.254-1.571,5.354,5.354,0,0,1,.653-1.508,2.17,2.17,0,0,1,1.066-.909q.013.894-.051,1.978t-.2,2.081a8.476,8.476,0,0,1-.363,1.634q-.225.638-.558.622c-.251-.021-.454-.216-.61-.582A4.423,4.423,0,0,1,189.219,24.78Z" transform="translate(-84.442 -0.04)" fill="#fff500"/>
      </g>
      <g id="Group_39" data-name="Group 39" transform="translate(0 0.668)">
        <g id="Group_38" data-name="Group 38">
          <path id="Path_118" data-name="Path 118" d="M47.731,24.843a15.376,15.376,0,0,0,.5,2.776,29.7,29.7,0,0,0,1.441,4.037,10.225,10.225,0,0,0,2.106,2.6,6.693,6.693,0,0,0,2.056,1.221,7.06,7.06,0,0,0,2.7.553,9.121,9.121,0,0,0,4.741-1.3,8.98,8.98,0,0,0,3.512-4.409,20.945,20.945,0,0,0,1.323-8.1q0-2.057-.259-5.579l-.119-.489a10.611,10.611,0,0,1-.236-1.054,11.46,11.46,0,0,0-3.345-6.429,8.969,8.969,0,0,0-6.208-2.21A6.484,6.484,0,0,0,52.3,7.5a7.925,7.925,0,0,0-2.389,2.3,14.673,14.673,0,0,0-1.914,4.666,28.632,28.632,0,0,0-.569,6.158,20.969,20.969,0,0,0,.166,3.164C47.623,23.995,47.668,24.346,47.731,24.843Z" transform="translate(-0.103 -0.682)" fill="#fff500"/>
          <path id="Path_119" data-name="Path 119" d="M14.643,60.925a4.556,4.556,0,0,0,4.171-1.471,6.093,6.093,0,0,0,1.207-3.784,7.487,7.487,0,0,0-1.79-5.079,4.4,4.4,0,0,0-3.543-1.471c-.047,0-.1.008-.146.009l-2.849,9.757c.049.123.087.25.148.369A3.615,3.615,0,0,0,14.643,60.925Z" transform="translate(-0.025 -0.774)" fill="#fff500"/>
          <path id="Path_120" data-name="Path 120" d="M11.843,36.977l-7.115.8L8.679.669H0V69.1H6.027Z" transform="translate(0 -0.669)" fill="#fff500"/>
          <path id="Path_121" data-name="Path 121" d="M33.038,55.449a5.638,5.638,0,0,0-1.852,1.665,2.857,2.857,0,0,0-.372,1.507,1.861,1.861,0,0,0,.484,1.321,1.483,1.483,0,0,0,1.117.521,2.689,2.689,0,0,0,1.766-.595,3.636,3.636,0,0,0,1.153-1.274,11.86,11.86,0,0,0,.168-2.689q0-.819-.074-1.637A11.571,11.571,0,0,0,33.038,55.449Z" transform="translate(-0.067 -0.785)" fill="#fff500"/>
          <path id="Path_122" data-name="Path 122" d="M17.007.669,15.849,7.663c1.1,1.178,2.081,2.263,2.911,3.231q2.221,2.6,16.223,18.179V28.43l-.093-2.983q-.067-2.622-.183-4.153t-.138-3.651q-.022-2.119-.161-3.844-.275-3.368-.274-3.883a4.1,4.1,0,0,0-.322-2.031,3.821,3.821,0,0,0-2.2-.849,6.062,6.062,0,0,1-1.878-.591l.022-1.518.6-.077L34.867,4.7l5.041-.155c.335-.016.657-.025.962-.025l.024,1.671a4.559,4.559,0,0,1-1.079.463,9.04,9.04,0,0,0-1.694.54,7,7,0,0,0-1.26.9,1.733,1.733,0,0,0-.207.951c0,.1.015.462.047,1.08q.022.464.022,2.16.022,3.728.185,5.888.043.694.068,1.569l.251,9.024c.015.635.022,1.08.022,1.338v3.162l.069,1.336-.069,1.389c.062.7.093,1.123.093,1.26v1.363l-2.634.1-2.728-3.162-5.567-6.2-3.895-4.37-2.865-3.292q-2.794-3.085-5.086-5.425l-.122-.123-2.063,12.47,8.361-.853-5.5,18.831a12.646,12.646,0,0,1,2.276-.219,5.991,5.991,0,0,1,3.368.967c.074.05.18.119.315.206a5.7,5.7,0,0,1,1.359,1.283A9.709,9.709,0,0,1,23.9,51.435a7.9,7.9,0,0,1,.316,2.419,9.39,9.39,0,0,1-.5,3.275,8.6,8.6,0,0,1-1.73,2.7,7.35,7.35,0,0,1-2.633,1.936,7.7,7.7,0,0,1-2.95.577,10.859,10.859,0,0,1-2.176-.186A13.838,13.838,0,0,1,11.1,60.774L8.675,69.1h68.25V.669Zm23.87,13.722A15.3,15.3,0,0,1,43.2,10.149a15.672,15.672,0,0,1,3.737-3.434,16.011,16.011,0,0,1,4.59-2.159A19.382,19.382,0,0,1,56.751,3.9a17.348,17.348,0,0,1,8.539,2.006,15.129,15.129,0,0,1,5.7,5.425,17.745,17.745,0,0,1,2.7,9.335,18.271,18.271,0,0,1-4.554,12.47q-4.553,5.2-12.668,5.194a23.711,23.711,0,0,1-3.761-.282,12.367,12.367,0,0,1-2.319-.567q-1.8-.641-2.012-.744a20.125,20.125,0,0,1-4.14-3.266,16.839,16.839,0,0,1-2.65-3.78,23.126,23.126,0,0,1-1.346-4.268,19.806,19.806,0,0,1,.638-11.031Zm9,26.967a2.576,2.576,0,0,1-.245,1.077,1.95,1.95,0,0,1-.776.863,2.053,2.053,0,0,1-1.085.324,1.947,1.947,0,0,1-1.4-.649,2.138,2.138,0,0,1-.641-1.552,1.881,1.881,0,0,1,.555-1.4,1.943,1.943,0,0,1,1.425-.547,2.18,2.18,0,0,1,1.552.579A1.754,1.754,0,0,1,49.873,41.358ZM40.963,61.436a2.672,2.672,0,0,1-1.8.624,3.024,3.024,0,0,1-1.89-.6,5.22,5.22,0,0,1-1.44-2.13,5.166,5.166,0,0,1-2.252,2.13,7.976,7.976,0,0,1-3.554.716,4.207,4.207,0,0,1-2.848-.809,2.713,2.713,0,0,1-.912-2.13,3.168,3.168,0,0,1,.27-1.247,4.207,4.207,0,0,1,.874-1.255,8.611,8.611,0,0,1,1.945-1.368q.2-.112,1.414-.633l4.632-1.86q.057-.708.056-1.433a6.642,6.642,0,0,0-.613-3.424,1.451,1.451,0,0,0-1.3-.559,4.1,4.1,0,0,0-1.711.354,2.519,2.519,0,0,0-1.136.911,4.583,4.583,0,0,0-.447,1.545,2.792,2.792,0,0,1-.241.949,2.381,2.381,0,0,1-1.013.642q-.736.289-1,.419a4,4,0,0,1-1.6.484.788.788,0,0,1-.26-.633A3.537,3.537,0,0,1,26.58,50.3,7.934,7.934,0,0,1,28.6,48.206a9.536,9.536,0,0,1,2.521-1.423,12.74,12.74,0,0,1,3.907-.521,5.554,5.554,0,0,1,2.558.549,3.014,3.014,0,0,1,1.489,1.627,12.218,12.218,0,0,1,.418,3.89L39.454,55.4l.038,2.252v.577a1.946,1.946,0,0,0,.21,1.07.642.642,0,0,0,.541.288.552.552,0,0,0,.347-.112l.559-.874.335-.131.427.279a.526.526,0,0,1,.2.316l.019.093A4.547,4.547,0,0,1,40.963,61.436Zm11.757.512q-.5.019-.743.019c-.186,0-.469-.012-.853-.037q-1.895-.093-5.071-.093c-.6,0-1.194.021-1.763.065s-.959.065-1.17.065l-.036-1.209,2.1-.279a1.125,1.125,0,0,0,.642-.382A2.267,2.267,0,0,0,46,58.971v-.206q0-.223.029-.809t.027-1.032q0-.353-.056-1.359l.029-.93L46,53.76l.056-3.031a6.723,6.723,0,0,0-.111-1.192,1.632,1.632,0,0,0-.751-.483,7.491,7.491,0,0,0-1.89-.3V47.714a9.019,9.019,0,0,0,3.367-.8,7.81,7.81,0,0,0,2.14-1.582h1.245q.075,2.306.076,5.991L50,58.915a12.106,12.106,0,0,0,.076,1.414,11.643,11.643,0,0,0,1.879.409,4.139,4.139,0,0,1,.8.186Zm21.045.112-3.647-.26-1.08.038h-.856L65.728,62h-.634q-.018-.233-.018-.359c0-.217.012-.45.037-.7q.26-.055,1.3-.187a4.552,4.552,0,0,0,.613-.13c.249-.1.391-.2.429-.3a3.3,3.3,0,0,0,.148-1.21q0-1.564-.018-2.4l.018-2.16q0-3.932-.5-4.9a2.261,2.261,0,0,0-2.115-1.4,4.984,4.984,0,0,0-2.153.531,9.669,9.669,0,0,0-2.3,1.612l-.038.316.038,1.172L60.5,53.132l.076,2.978-.038.465A11.7,11.7,0,0,0,60.781,60a3.863,3.863,0,0,0,1.857.87,1.911,1.911,0,0,1-.075,1.153q-.578.019-.97.019a9.336,9.336,0,0,1-1.23-.127l-1.995-.041q-1.491,0-4.307.13a1.006,1.006,0,0,1-.075-.384c0-.1.006-.293.019-.587a3.787,3.787,0,0,1,.893-.3,4.679,4.679,0,0,0,1.19-.279.849.849,0,0,0,.373-.41,7.342,7.342,0,0,0,.112-1.64v-1.62l.018-1.322-.056-1.957V52.332a8.161,8.161,0,0,0-.186-1.919,1.106,1.106,0,0,0-.465-.56,6.138,6.138,0,0,0-1.768-.726l-.019-.893a2.9,2.9,0,0,1,.437-.1q.2-.028,1.5-.363,1.024-.371,1.321-.521c.062-.037.162-.093.3-.168a6.1,6.1,0,0,1,.5-.371,7.329,7.329,0,0,0,1.34-1.358l1-.075-.036,2.1a4.31,4.31,0,0,0-.038.5c0,.1.012.384.038.855a10.7,10.7,0,0,1,2.8-1.86,8.173,8.173,0,0,1,3.139-.688,5.453,5.453,0,0,1,3.065.866,4.134,4.134,0,0,1,1.727,2,16.335,16.335,0,0,1,.409,4.585l-.075,6.078a1.494,1.494,0,0,0,.15.708,3.368,3.368,0,0,0,1.022.262l.912.176a.988.988,0,0,1,.168.586Q73.783,61.675,73.765,62.059Z" transform="translate(-0.019 -0.669)" fill="#fff500"/>
        </g>
      </g>
    </g>
  </g>
</svg>
