<?xml version="1.0" standalone="no"?>
<!DOCTYPE svg PUBLIC "-//W3C//DTD SVG 1.1//EN" "http://www.w3.org/Graphics/SVG/1.1/DTD/svg11.dtd" >
<svg xmlns="http://www.w3.org/2000/svg" xmlns:xlink="http://www.w3.org/1999/xlink" version="1.1">
<metadata>
Created by FontForge 20170731 at Thu Apr  8 20:39:19 2021
 By Aleksey,,,
(c) 1997, 1998, 1999, 2004 Adobe Systems Incorporated. All Rights Reserved.
</metadata>
<defs>
<font id="BickhamScriptPro-Regular" horiz-adv-x="391" >
  <font-face 
    font-family="Bickham Script Pro Regular"
    font-weight="400"
    font-style="italic"
    font-stretch="normal"
    units-per-em="2048"
    panose-1="3 3 4 2 4 7 7 13 13 6"
    ascent="1393"
    descent="-655"
    x-height="350"
    cap-height="885"
    bbox="-4557.87 -2198 7127.77 2611"
    underline-thickness="61"
    underline-position="-306"
    slope="-39"
    unicode-range="U+0020-FB06"
  />
<missing-glyph horiz-adv-x="1024" 
d="M0 0v1434h1024v-1434h-1024zM512 809l348 522h-696zM573 717l349 -522v1044zM164 102h696l-348 523zM102 1239v-1044l349 522z" />
    <glyph glyph-name="O_n" unicode="On" horiz-adv-x="1525" 
d="M729 293q71 89 108 159.5t44 141.5q6 45 -17 75.5t-63 35.5q-70 7 -147.5 -39t-151.5 -138q-50 -64 -68.5 -126.5t3.5 -111.5t87 -65q25 -6 74 -1t88 20q21 21 43 49zM1356 170q-45 -53 -68 -90q-21 -35 -8 -45t49 8q44 21 98 63q21 16 99 84q21 18 26 13q6 -5 -16 -27
q-50 -50 -123 -106q-108 -82 -184 -82q-30 0 -46.5 13.5t-15.5 39.5q1 21 17 49.5t27 42.5t42 51q37 44 86 101q16 20 2 28q-13 8 -53 -12q-69 -33 -160 -104q-45 -35 -114.5 -93.5t-114.5 -93.5q-23 -18 -53 -18q-24 0 -30.5 5.5t3.5 27.5q30 59 90 137q38 49 84 106
q22 30 15 39q-16 19 -115 -16q-24 -8 -66.5 -25t-50.5 -20q-108 -123 -261 -202t-284 -75q-33 1 -63 8.5t-61.5 24.5t-52.5 51t-27 82q-11 101 44.5 223.5t164.5 231.5q120 119 276 183.5t313 57.5q74 -4 133 -43t66 -118q3 -28 -6.5 -56.5t-24.5 -44.5q-7 -8 -16 -14
t-12 -2q-1 3 0 5t6 7.5t10 12.5q27 41 20 90q-7 48 -38 80t-66 44t-72 13q-125 5 -271 -80.5t-239 -189.5q-100 -114 -151 -237.5t-39 -207.5q8 -52 44.5 -76t82.5 -26q196 -6 416 233q-32 -9 -75.5 -12.5t-72.5 2.5q-73 14 -103.5 70.5t-14 132.5t74.5 149
q66 82 154.5 124.5t171.5 33.5q58 -6 91 -48t26 -116q-12 -150 -123 -287q71 32 100 43q107 39 152 37q51 -2 51 -47q0 -24 -43 -86q-78 -103 -96 -129l2 -2q155 130 188 154q149 110 223 110q33 0 50 -14.5t14 -40.5q-2 -11 -7 -22.5t-16 -27t-17 -23.5t-22.5 -28
t-19.5 -24z" />
    <glyph glyph-name="O_r" unicode="Or" horiz-adv-x="1255" 
d="M668 225q99 122 152.5 210.5t60.5 158.5q6 45 -17 75.5t-63 35.5q-71 8 -155 -41.5t-157 -141.5q-119 -149 -137.5 -269t80.5 -147q68 -14 137 13q71 71 99 106zM1155 106q60 47 96 80q24 24 31 17q5 -5 -25 -35q-60 -55 -116 -98q-107 -82 -183 -82q-32 0 -48.5 14.5
t-14.5 38.5q2 54 98 145q20 19 53.5 46.5t55 46t24.5 24.5q5 15 -17 17q-9 1 -65 -1q-34 0 -47 5q-18 -20 -129 -95q-37 -26 -106 -60.5t-119 -51.5q-189 -154 -412 -148q-33 1 -63 8.5t-61.5 24.5t-52.5 51t-27 82q-11 101 44.5 223.5t164.5 231.5q120 119 276 183.5
t313 57.5q74 -4 133 -43t66 -118q3 -28 -6.5 -56.5t-24.5 -44.5q-7 -8 -16 -14t-12 -2q-1 3 0 5t6 7.5t10 12.5q27 41 20 90q-7 48 -38 80t-66 44t-72 13q-125 5 -271 -80.5t-239 -189.5q-100 -114 -151 -237.5t-39 -207.5q8 -52 44.5 -76t82.5 -26q86 -3 154.5 23.5
t142.5 84.5q-58 -18 -119 -6q-73 14 -97.5 82t4.5 165t105 193q68 84 174 142t187 49q58 -6 91 -48t26 -116q-5 -69 -50 -163t-139 -197q-42 -42 -57 -54q91 40 192 105q88 57 115 84q-14 9 -14.5 27.5t14.5 37.5q28 35 78 35q30 0 37 -20q-21 -15 -35 -29q-39 -42 6 -45
q29 -1 43.5 -2t35 -5t29.5 -12.5t9 -21.5q0 -10 -9 -25t-20 -27.5t-32 -35.5t-33 -37q-53 -62 -70 -96q-16 -29 -2 -39q12 -9 45 8q48 25 92 61z" />
    <glyph glyph-name="d_d" unicode="dd" horiz-adv-x="1179" 
d="M348 330q-59 0 -188 -129q-121 -119 -115 -162q3 -21 27 -21q29 0 79.5 29t92.5 68q51 44 95.5 99t45.5 79q3 37 -37 37zM940 330q-59 0 -188 -129q-121 -119 -115 -162q3 -21 27 -21q29 0 79.5 29t92.5 68q51 44 95.5 99t45.5 79q3 37 -37 37zM891 -12q-57 0 -60 43
q-3 32 29 73l-2 2q-132 -113 -223 -118q-40 -2 -65 16.5t-21 65.5q3 43 57 106l-2 2q-1 -1 -8 -7t-10 -9q-10 -8 -46.5 -38.5t-64.5 -53.5q-105 -82 -174 -82q-28 0 -43.5 11.5t-17.5 31.5q-3 33 28 73l-2 2q-132 -113 -223 -118h-2q-39 -2 -64.5 17.5t-19.5 64.5
q6 47 57 106l-2 2q-14 -14 -26 -24q-15 -11 -19 -7q-6 9 33 43q20 20 57 46q52 36 99 59q133 65 202 55q27 -4 38.5 -25.5t4.5 -43.5h2q79 115 205 251q172 185 269 240q45 25 88 25q23 0 34 -15q-47 -10 -109.5 -64.5t-189.5 -193.5q-59 -66 -172 -207q-50 -62 -104.5 -136
t-67.5 -99q-20 -33 -8 -45q16 -16 62 12q35 19 79 57q14 12 34 29t33 27.5t19 15.5q36 32 74 58q52 36 99 59q133 65 202 55q28 -4 39 -24.5t4 -44.5h2q96 137 244 309q126 148 258 246q57 43 100 43q26 0 31 -15q-47 -20 -108.5 -79.5t-163.5 -174.5q-90 -103 -238 -293
q-144 -188 -170 -235q-23 -37 -6 -47q14 -8 47 8q39 19 92 63q38 31 99 84q23 20 28 15q8 -8 -26 -37q-50 -47 -115 -98q-102 -82 -176 -82z" />
    <glyph glyph-name="f_b" unicode="fb" horiz-adv-x="948" 
d="M-479 -788q16 -8 51 20q40 32 128 147.5t157 225.5q117 186 175.5 308t102.5 247h-2q-265 -345 -414 -572q-160 -238 -198 -325q-15 -42 0 -51zM199 242q53 39 156.5 77t185.5 60q74 92 198 229q82 89 189.5 181t197.5 153q-39 49 -133 49q-72 0 -143 -39t-158 -123
q-77 -74 -222.5 -248t-270.5 -339zM657 401q21 6 92.5 28t144.5 44.5t134 42.5q88 29 204.5 80t182.5 90q194 116 197 232q2 66 -41 101.5t-123 31.5q-135 -8 -293 -115q18 -46 10 -92q-2 -12 -5 -21.5t-5.5 -13t-3.5 -2.5q-2 3 -1.5 3t2 10.5t1.5 25.5q0 44 -16 76
q-42 -34 -107 -95.5t-104 -105.5q-130 -144 -269 -320zM526 12q48 5 99 35q55 36 94 86q-35 -17 -127 -39q-118 -29 -115 -63q3 -22 49 -19zM121 270l-2 2q-31 -23 -109 -96q-16 -14 -22 -8q-5 5 12 22q87 83 160 134q76 102 186.5 229t210.5 223q106 102 232 169t219 67
q100 0 137 -56q164 106 301 113q92 4 140 -36.5t46 -114.5q-1 -71 -55.5 -132t-149.5 -118q-123 -75 -395 -170q-84 -29 -231.5 -73t-161.5 -48q-72 -92 -178 -242l2 -2q80 83 192 158q102 67 181 59q34 -3 50.5 -23t12.5 -55q-6 -46 -41.5 -98t-95.5 -96q-112 -84 -236 -88
q-82 0 -82 41q1 27 34 44t100 34q112 27 157 47q51 59 66 102q21 61 -21 61q-59 0 -178 -92q-90 -70 -227 -207q-25 -25 -60 -28q-28 -1 -33 7.5t5 25.5q21 52 84 137q104 142 151 192q-44 -12 -94 -28.5t-132.5 -53t-129.5 -73.5q-84 -275 -297 -615q-69 -109 -161.5 -230
t-147.5 -159q-44 -32 -76 -26q-51 10 -37 81q16 78 104.5 231t204.5 316q110 153 365 473z" />
    <glyph glyph-name="f_f_r" unicode="ffr" horiz-adv-x="1077" 
d="M637 340q51 0 129 4q19 1 39.5 3.5t30.5 2.5q23 0 34 -14t9 -33q-2 -27 -43 -86q-11 -15 -25 -33t-22 -28.5t-15 -20.5l4 -4q11 11 35 35.5t44.5 45t37.5 36.5q106 102 170 102q32 0 46.5 -14.5t8.5 -40.5q-8 -36 -52 -67t-75 -13q-4 4 -3.5 7.5t5.5 11t10 14.5
t11.5 17.5t9.5 19.5q9 21 -2 26q-10 6 -39 -14q-29 -19 -111 -94q-32 -30 -99 -97t-97 -96q-18 -18 -53 -18q-24 0 -30.5 5.5t3.5 27.5q34 67 90 137q38 49 84 106q19 19 19 37q0 17 -35 17q-38 0 -135 -5q-28 -36 -81 -101t-71 -89q-66 -172 -133.5 -311t-169.5 -308
q-138 -229 -242 -307q-48 -36 -84 -28q-47 10 -33 77q17 81 105 236.5t201 310.5q123 169 217 289q37 49 182 229q-35 -1 -109 -2t-100 -2q-28 -35 -76 -98t-55 -72q-77 -101 -242 -329q-78 -105 -204 -314q-104 -176 -148 -286q-3 -8 -6.5 -18t-5 -15.5t-4 -11t-5.5 -7.5
t-6 -2q-11 -1 -15.5 14t-3 37t5 42.5t7.5 35.5q18 68 95.5 222.5t173.5 291.5q91 133 202 275q13 43 16 99t13 79q13 28 27.5 43t46.5 25t88 14q81 106 187.5 230t201.5 216q101 98 221.5 164t210.5 66q80 0 117 -47q227 165 399 165q121 0 191.5 -65t58.5 -152
q-2 -12 -5 -22.5t-6.5 -16t-6.5 -4.5q-1 3 -0.5 6t3 14.5t3.5 22.5q5 70 -64 124.5t-180 54.5q-119 0 -207 -38t-170 -108q25 -41 25 -88q0 -10 -2.5 -22.5t-5.5 -12.5q-2 0 -2 2.5v11.5t-2 19q-7 48 -29 76q-20 -16 -29 -25q-112 -105 -354 -407q-64 -80 -125 -160zM43 115
q90 122 147 196q-51 -3 -79.5 -16t-42.5 -49q-10 -22 -14 -63t-11 -68zM-121 -786q15 -8 51 18q79 61 224 295q142 229 288 565q-196 -252 -366 -504q-160 -240 -197 -325q-17 -42 0 -49zM319 334q27 1 100.5 2t108.5 2q105 127 217 258q152 177 349 332q5 4 16 12t16 12
q-39 39 -112 39q-69 0 -129 -36.5t-152 -125.5q-123 -120 -414 -495z" />
    <glyph glyph-name="f_h" unicode="fh" horiz-adv-x="993" 
d="M-479 -788q16 -8 51 20q40 32 128 147.5t157 225.5q117 186 175.5 308t102.5 247h-2q-265 -345 -414 -572q-160 -238 -198 -325q-15 -42 0 -51zM199 242q53 39 156.5 77t185.5 60q74 92 198 229q82 89 189.5 181t197.5 153q-39 49 -133 49q-72 0 -143 -39t-158 -123
q-78 -75 -226 -252t-267 -335zM657 401q21 6 92.5 28t144.5 44.5t134 42.5q88 29 204.5 80t182.5 90q194 116 197 232q2 66 -41 101.5t-123 31.5q-135 -8 -293 -115q17 -45 8 -92q-6 -37 -12 -37q-1 2 -0.5 3.5t1.5 10.5t1 19q0 50 -16 82q-42 -34 -107 -95.5t-104 -105.5
q-130 -144 -269 -320zM166 332q183 244 387 440q108 105 235 172.5t220 67.5q100 0 137 -56q164 106 301 113q92 4 140 -36.5t46 -114.5q-1 -71 -55.5 -132t-149.5 -118q-123 -75 -395 -170q-84 -29 -231.5 -73t-161.5 -48q-142 -183 -211 -289l2 -2q155 130 188 154
q149 110 224 110q32 0 49 -14.5t14 -40.5q-1 -7 -4 -15t-8.5 -17.5t-10.5 -17.5t-14 -19.5t-14.5 -18.5t-16 -19.5t-14.5 -17.5q-41 -49 -67 -90q-21 -35 -8 -45t49 8q44 21 98 63q12 10 98 84q21 19 27 13q6 -5 -16 -27q-50 -50 -123 -106q-108 -82 -185 -82
q-30 0 -46 13.5t-15 39.5q1 21 17 49.5t27 42.5t42 51q37 44 86 101q16 20 2 28q-16 9 -53 -12q-69 -33 -160 -104q-45 -35 -114.5 -93.5t-114.5 -93.5q-23 -18 -54 -18q-23 0 -28.5 5.5t2.5 27.5q21 52 84 137q47 64 149 192q-255 -77 -354 -155q-80 -269 -297 -615
q-69 -109 -161.5 -230t-147.5 -159q-44 -32 -76 -26q-22 3 -33 24t-4 57q16 78 104.5 231t204.5 316q110 153 365 473l-2 2q-31 -23 -109 -96q-16 -14 -22 -8q-5 5 12 22q71 68 166 142z" />
    <glyph glyph-name="f_j" unicode="fj" horiz-adv-x="626" 
d="M-1288 -1012q-135 -4 -237 23.5t-161 78.5t-87.5 115.5t-28.5 141.5q0 63 32.5 132t83.5 113q8 7 16 12.5t14 8t7 0.5q2 -3 -1.5 -6t-13 -11t-17.5 -18q-36 -41 -58 -102.5t-22 -128.5q0 -71 27.5 -132t82.5 -110t148 -75.5t215 -22.5q280 8 534 198q-40 63 -18 136
q0 -72 35 -123q129 98 259.5 242t289.5 350q55 69 204 266q13 44 17 100t12 78q15 41 51 59t111 21q72 92 145 180q194 242 383 399q254 203 471 209q146 3 221.5 -54.5t75.5 -143.5q0 -44 -21 -83t-52 -65q-6 -6 -13 -9t-10.5 -3.5t-5.5 0.5q-1 3 16 20q47 50 47 129
q0 85 -64 140t-194 51q-101 -3 -205.5 -60.5t-226.5 -173.5q-84 -81 -148.5 -156t-154.5 -190q-97 -120 -149 -186q156 4 190 4q62 0 106 6q22 3 27 -9.5t-12 -23.5q-54 -34 -129 -135q-13 -17 -48.5 -68.5t-97 -140t-122.5 -172.5q-185 -257 -365 -440q-225 -231 -451 -231
q-90 0 -141 43q-280 -174 -567 -183zM-573 -854h2q163 0 368 227q69 75 169 205.5t146.5 195.5t147.5 208q164 231 211 284q31 34 66 51v2q-166 0 -232 -4q-9 -12 -52.5 -71t-78.5 -105q-234 -309 -256 -338q-162 -212 -312 -364.5t-306 -253.5q19 -17 56.5 -27t70.5 -10z
M43 109q22 29 71 97.5t76 104.5q-52 -3 -82 -16.5t-42 -48.5q-7 -20 -11 -63t-12 -74zM696 514q-6 10 -6.5 29.5t6.5 40.5q15 39 78 39q25 0 31.5 -15.5t-10.5 -38.5q-19 -23 -49.5 -39t-49.5 -16z" />
    <glyph glyph-name="r_s" unicode="rs" horiz-adv-x="1021" 
d="M608 2h2q31 0 67 27.5t68 83.5q19 30 52.5 113t44.5 96v2q-21 -21 -99 -78q-66 -44 -102 -62q4 -11 0 -22q-8 -25 -45 -47q-45 -28 -47 -62q-1 -24 15 -37.5t44 -13.5zM793 18q-83 -36 -172 -36q-75 0 -102.5 35.5t-20.5 86.5q6 35 22 56q-39 -5 -71 8t-43.5 43t-2.5 68
q-20 -11 -102 -76q-80 -69 -207 -193q-18 -18 -53 -18q-24 0 -30.5 5.5t3.5 27.5q30 59 90 137q30 40 82 106q21 27 15 35q-7 10 -31 -2q-28 -13 -80 -55q-50 -42 -88 -78q-28 -25 -35 -18q-4 6 31 38q87 80 106 95q86 67 140 67q51 0 51 -45q0 -26 -43 -88q-8 -12 -31 -41
t-31 -41l5 -4q71 71 124 115q60 49 101 76q35 23 61 28q28 6 45 -2q7 -4 7 -13.5t-15 -19.5q-75 -42 -78 -73q-4 -44 33 -58q24 -10 62 -6q27 31 69 31q19 0 29 -10q61 35 108 69q46 34 121 99q8 16 33 34q33 23 59 23q43 0 13 -27q-9 -8 -23 -16q-6 -4 -24.5 -14.5
t-24.5 -16.5q-3 -3 -5 -6t-3.5 -6t-2.5 -7t-2 -6t-1 -7v-7v-8v-8q4 -38 0.5 -84t-19.5 -84q-9 -23 -28 -47.5t-37 -36.5q37 13 90 45q65 40 135 102q22 18 27 13q7 -7 -23 -33q-49 -44 -104 -82q-61 -42 -129 -70z" />
    <glyph glyph-name="r_s_t" unicode="rst" horiz-adv-x="1218" 
d="M834 -31h-3q-10 0 -13.5 1.5t-2 12.5t13.5 33q14 26 140 224q7 21 12.5 40.5t9.5 28.5q13 32 58 35q75 100 237 272q-48 -18 -106 -18q-79 0 -183.5 26.5t-144.5 28.5q-88 3 -137 -29t-58 -89q-8 -48 9 -82.5t43 -51.5q15 -10 12 -16q-3 -5 -21 4q-35 18 -59.5 53
t-19.5 90q7 64 63 110t168 42q60 -2 168.5 -35t165.5 -33q66 0 121 23l14 14q41 41 82.5 69t66.5 28q20 0 27 -13q-15 -35 -51 -68.5t-66 -52.5q-177 -200 -233 -272q47 2 180 2q32 0 29 -12q-4 -10 -37 -10q-142 0 -189 -2q-7 -8 -33 -45t-58 -82t-46 -64
q-32 -78 -100 -135q-32 -27 -59 -27zM252 217q-8 -12 -31 -41t-31 -41l5 -4q71 71 124 115q41 33 95 69q8 16 25.5 26.5t33.5 12.5q33 4 47 -10q7 -5 2 -17.5t-24 -23.5q-39 -24 -35 -43q3 -14 27 -23t61 -8q54 3 121 33q43 19 100 76q10 20 35 39q28 22 61 22q43 0 13 -27
q-9 -8 -23 -16q-7 -4 -19 -11t-21 -13t-13 -10q-3 -3 -5.5 -6.5t-4 -8t-2.5 -6.5t-1.5 -8.5t-0.5 -8v-9.5v-9q3 -96 -19 -147q-19 -46 -67 -82q-28 -22 -75.5 -38.5t-90.5 -16.5q-67 0 -97.5 31.5t-23.5 74.5q6 38 31.5 61t58.5 23q18 0 29.5 -11t11.5 -26q0 -31 -37 -49
q-27 -12 -37 -21t-10 -24q0 -16 17 -27.5t44 -11.5q33 0 69.5 27.5t68.5 83.5q18 29 48 97.5t42 82.5l-2 2q-31 -31 -76 -51q-65 -32 -129 -35q-70 -2 -107 24q-24 19 -28 56q-81 -60 -111 -86q-80 -69 -207 -193q-18 -18 -53 -18q-24 0 -30.5 5.5t3.5 27.5q28 56 90 137
q30 40 82 106q21 27 15 35q-7 10 -31 -2q-28 -13 -80 -55q-50 -42 -88 -78q-28 -25 -35 -18q-4 6 31 38q87 80 106 95q86 67 140 67q51 0 51 -45q0 -29 -43 -88z" />
    <glyph glyph-name="r_scaron" unicode="r&#x161;" horiz-adv-x="1021" 
d="M608 2h2q31 0 67 27.5t68 83.5q19 30 52.5 113t44.5 96v2q-21 -21 -99 -78q-66 -44 -102 -62q4 -11 0 -22q-8 -25 -45 -47q-45 -28 -47 -62q-1 -24 15 -37.5t44 -13.5zM793 18q-83 -36 -172 -36q-75 0 -102.5 35.5t-20.5 86.5q6 35 22 56q-39 -5 -71 8t-43.5 43t-2.5 68
q-20 -11 -102 -76q-80 -69 -207 -193q-18 -18 -53 -18q-24 0 -30.5 5.5t3.5 27.5q30 59 90 137q30 40 82 106q21 27 15 35q-7 10 -31 -2q-28 -13 -80 -55q-50 -42 -88 -78q-28 -25 -35 -18q-4 6 31 38q87 80 106 95q86 67 140 67q51 0 51 -45q0 -26 -43 -88q-8 -12 -31 -41
t-31 -41l5 -4q71 71 124 115q60 49 101 76q35 23 61 28q28 6 45 -2q7 -4 7 -13.5t-15 -19.5q-75 -42 -78 -73q-4 -44 33 -58q24 -10 62 -6q27 31 69 31q19 0 29 -10q61 35 108 69q46 34 121 99q8 16 33 34q33 23 59 23q43 0 13 -27q-9 -8 -23 -16q-6 -4 -24.5 -14.5
t-24.5 -16.5q-3 -3 -5 -6t-3.5 -6t-2.5 -7t-2 -6t-1 -7v-7v-8v-8q4 -38 0.5 -84t-19.5 -84q-9 -23 -28 -47.5t-37 -36.5q37 13 90 45q65 40 135 102q22 18 27 13q7 -7 -23 -33q-49 -44 -104 -82q-61 -42 -129 -70zM973 553h-2q-5 0 -10 14q-47 100 -70 135q-8 11 -4 15
q5 5 22 -6q50 -35 88 -86q115 67 215 96q16 5 19 -2q1 -1 0 -2.5t-2.5 -2.5t-3.5 -2t-4.5 -2.5t-3.5 -2.5q-153 -90 -224 -144q-13 -10 -20 -10z" />
    <glyph glyph-name="s_f_e" unicode="sfe" horiz-adv-x="1232" 
d="M-10 -788q18 -6 51 20q40 32 128 147.5t157 225.5q117 186 175.5 308t102.5 247h-2q-265 -345 -414 -572q-160 -238 -198 -325q-18 -44 0 -51zM244 43q33 11 90 45q55 34 135 102q53 48 158 134q8 8 12 14q-12 12 -19 32t-4 31q4 15 16.5 22.5t26.5 2.5q11 -3 15 -41
q43 54 130 165t114 144q-244 -20 -351 -45q-136 -33 -195 -84.5t-61 -97.5q-2 -34 13 -57q7 -10 12 -13q8 9 12 11q24 16 53 16q43 0 13 -27q-9 -8 -23 -16q-6 -4 -24.5 -14.5t-24.5 -16.5q-3 -3 -5 -6t-3.5 -6t-2.5 -7t-2 -6t-1 -7v-7v-8v-8q4 -38 0.5 -84t-19.5 -84
q-9 -23 -28 -47.5t-37 -36.5zM1042 723q68 12 163.5 49t180.5 90q97 61 164 139.5t72 133.5q3 59 -57 59q-80 0 -228 -139q-46 -42 -143.5 -154t-151.5 -178zM801 166q-37 15 -64 35q-36 29 -49 61l-51 -65q-80 -265 -299 -613q-69 -109 -161.5 -230t-147.5 -159
q-44 -32 -76 -26q-22 3 -33 24t-4 57q17 78 105.5 233t203.5 314q60 81 185 243.5t172 221.5l-2 2q-4 -3 -99 -86q-41 -41 -112 -90q-61 -42 -129 -70q-83 -36 -172 -36q-75 0 -102.5 35.5t-20.5 86.5q6 45 37 76.5t67 30.5q21 -1 31.5 -14t7.5 -31q-6 -31 -45 -51
q-44 -25 -47 -62q-1 -24 15 -37.5t44 -13.5q33 0 69.5 27.5t68.5 83.5q19 30 52 113t44 96v2q-25 -26 -99 -78q-55 -38 -77 -49q-17 -8 -21 -2q-3 8 10 16q52 31 86 57q46 34 121 99q12 18 21 24q-12 4 -23 15q-28 28 -28 71q0 66 60.5 114t207.5 77q118 24 387 47
q130 152 231 250q118 114 225 180.5t181 66.5q45 0 67 -26t19 -64q-5 -58 -76.5 -134.5t-191.5 -147.5q-85 -50 -185.5 -88t-177.5 -52q-121 -152 -291 -374q-16 -19 -33 -43q14 -38 50 -66q31 -24 61 -33q57 66 135 109q105 59 182 59q30 0 47 -16.5t15 -38.5
q-3 -37 -41 -70.5t-90 -54.5q-82 -31 -164 -31q-27 -38 -27 -80q0 -47 48 -47q72 0 186 74q64 44 125 98q17 14 22 9q6 -8 -16 -27q-65 -60 -121 -98q-133 -88 -237 -88q-56 0 -84.5 22.5t-28.5 61.5q0 52 37 100zM909 164q22 -2 59.5 4.5t67.5 21.5q84 43 84 109
q0 25 -24 25q-28 0 -90 -56q-69 -66 -97 -104z" />
    <glyph glyph-name="s_s" unicode="ss" horiz-adv-x="935" 
d="M522 2h2q31 0 67 27.5t68 83.5q19 30 52.5 113t44.5 96v2q-30 -30 -99 -78q-55 -38 -102 -64q2 -10 0 -18q-6 -29 -45 -49q-44 -25 -47 -62q-1 -24 15 -37.5t44 -13.5zM836 88q-61 -42 -129 -70q-83 -36 -172 -36q-73 0 -102 35.5t-19 91.5q-30 -19 -52 -31
q-71 -39 -122 -60q-83 -36 -172 -36h-2q-73 0 -100.5 36t-20.5 86q6 43 37.5 74t68.5 31q20 0 30 -13.5t7 -29.5q-6 -28 -45 -51q-45 -28 -47 -62q-1 -24 15 -37.5t44 -13.5q31 0 58.5 18t64.5 62q39 47 91.5 163t64.5 130v2q-64 -71 -139 -127q-46 -34 -80 -53
q-18 -11 -23 -4q-5 8 10 18q67 43 86 57q72 54 166 152q16 22 33 35q28 22 59 22q43 0 13 -27q-9 -8 -23 -16q-6 -4 -24.5 -14.5t-24.5 -16.5q-3 -3 -5 -6t-3.5 -6t-2.5 -7t-2 -6t-1 -7v-7v-8v-8q2 -43 -11.5 -102.5t-33.5 -100.5q-15 -30 -40 -60t-44 -42q39 13 106 49
q44 23 70 43q13 32 38.5 54t55.5 22q25 0 33 -12q65 37 108 69q46 34 121 99q13 20 33 34q32 23 59 23q43 0 13 -27q-9 -8 -23 -16q-6 -4 -24.5 -14.5t-24.5 -16.5q-3 -3 -5 -6t-3.5 -6t-2.5 -7t-2 -6t-1 -7v-7v-8v-8q4 -38 0.5 -84t-19.5 -84q-9 -23 -28 -47.5t-37 -36.5
q33 11 90 45q65 40 135 102q22 18 27 13q7 -7 -23 -33q-49 -44 -104 -82z" />
    <glyph glyph-name="w_h" unicode="wh" horiz-adv-x="1533" 
d="M1137 197q-45 -35 -115 -93.5t-115 -93.5q-23 -18 -53 -18q-24 0 -30 5.5t1 27.5q19 45 86 137q2 3 33.5 44t48.5 64q-16 -12 -28 -18q-82 -46 -131 -49q-42 -3 -64 12q-27 -34 -70 -74t-61 -53q-136 -102 -229 -102q-36 0 -54 16.5t-18 42.5q0 33 27 74q18 30 63 82
q36 46 49 75q4 10 2 18.5t-10 8.5q-18 0 -104 -59q-110 -75 -168 -129q-6 -6 -44 -41.5t-49 -46.5q-49 -45 -67 -45h-2q-10 0 -19 6.5t-10 17.5q-2 12 19 37q3 4 41.5 49.5t58.5 69.5q57 73 76 112q11 22 0 29q-11 8 -31 -2q-25 -11 -80 -55q-55 -45 -86 -76q-14 -14 -20 -8
t8 20q55 55 108 97q89 71 144 71q63 0 57 -69q-3 -36 -41 -91q58 46 112 81t77 46q50 23 83 23q17 0 30.5 -10.5t12.5 -30.5q-3 -44 -57 -115q-52 -71 -69 -104q-7 -11 -8.5 -25t8.5 -28q18 -12 57 4q57 22 117 71q71 56 129 127q-7 8 -11 31.5t0 42.5q10 53 52 53
q13 0 21.5 -8t8.5 -22q0 -37 -37 -90q10 -14 48 -11q50 3 129 49q30 16 57 37q141 182 244 299q105 121 253.5 271.5t221.5 201.5q37 27 59 41t54.5 27.5t60.5 13.5q37 0 52.5 -21t10.5 -52q-6 -35 -39.5 -81.5t-102.5 -111.5t-123.5 -112t-154.5 -130q-33 -27 -181 -141.5
t-236 -191.5q-46 -51 -170 -236l2 -2q155 130 188 154q149 110 223 110q33 0 50 -14.5t14 -40.5q-2 -11 -7 -22.5t-16 -27t-17 -23.5t-22.5 -28t-19.5 -24q-45 -53 -68 -90q-21 -35 -8 -45t49 8q47 23 99 63q12 10 98 84q21 19 27 13q5 -5 -17 -27q-50 -50 -123 -106
q-108 -82 -184 -82q-30 0 -46 13.5t-15 39.5q1 21 17 49.5t27 42.5t42 51q37 44 86 101q16 20 2 28t-54 -12q-66 -32 -159 -104zM1171 377q110 96 221 184.5t146 118.5q88 76 145 127.5t117 112t91 106.5t34 78q3 39 -35 39q-47 0 -133 -82q-166 -166 -272 -293
q-180 -214 -314 -391z" />
    <glyph glyph-name="y_g" unicode="yg" horiz-adv-x="1136" 
d="M670 18h2q27 0 77.5 29t92.5 68q51 44 95.5 99t45.5 79q3 37 -37 37q-59 0 -188 -129q-118 -115 -115 -162q3 -21 27 -21zM125 -190l311 419l-2 2q-32 -28 -166 -131q-73 -55 -125 -83.5t-94 -28.5q-32 0 -49.5 15.5t-15.5 43.5q4 42 36 82q65 86 146 164
q-23 -10 -90 -64q-62 -50 -72 -59q-24 -21 -31 -16q-6 6 23 32q88 77 145 115q38 27 63.5 36t55.5 9q32 0 37 -6.5t-14 -26.5q-36 -39 -107 -127q-65 -85 -76 -110q-13 -26 -2 -37q12 -12 47 6q67 37 154 105q53 41 122 98t99 80q29 22 60 22q29 0 36 -5.5t-8 -25.5
q-7 -9 -53 -68t-70 -91q-12 -16 -62 -86.5t-105 -147t-93 -125.5q-315 -406 -583 -594q58 -51 184 -59q240 -12 481 217q31 30 64.5 68t73 90t65.5 87.5t73.5 102.5t65.5 92q9 12 88 122t119 167l-2 2q-122 -103 -215 -108q-40 -2 -64.5 16.5t-19.5 65.5q2 21 20.5 59
t45.5 66q62 65 129 98q122 63 200 57q30 -1 42 -21t9 -48h3q35 40 55 54.5t43 14.5q30 0 36.5 -7t-10.5 -26q-54 -63 -106 -135q-121 -170 -277 -395q-215 -305 -399 -457q-258 -213 -520 -200q-142 7 -205 63q-147 -100 -291 -150.5t-305 -54.5q-135 -4 -236.5 22.5
t-161 76t-88 113.5t-28.5 141q0 74 33 140.5t84 110.5q17 14 26.5 19t10.5 2q2 -3 -0.5 -5l-12.5 -10t-20 -20q-80 -94 -80 -231q0 -71 27.5 -132t82.5 -110t148 -75.5t215 -22.5q295 8 567 225q-40 67 -16 133q-2 -61 35 -119q119 96 240.5 232.5t273.5 331.5z" />
    <glyph glyph-name="ydieresis_gcommaaccent" unicode="&#xff;&#x123;" horiz-adv-x="1130" 
d="M967 446q-27 0 -27 19q0 10 12 31q35 41 82.5 78.5t79.5 54.5q23 12 25 10q3 -5 -15 -23q-55 -59 -67 -90q-5 -10 -3.5 -20.5t-0.5 -20.5q-6 -16 -31 -26.5t-55 -12.5zM551 473q-6 8 -6 26.5t6 35.5q12 34 72 34q22 0 27.5 -13.5t-11.5 -33.5q-16 -21 -43.5 -35
t-44.5 -14zM346 473q-6 8 -6 26.5t6 35.5q14 34 70 34q22 0 27.5 -13.5t-9.5 -33.5q-16 -21 -43.5 -35t-44.5 -14zM670 18h2q27 0 77.5 29t92.5 68q51 44 95.5 99t45.5 79q3 37 -37 37q-59 0 -188 -129q-118 -115 -115 -162q3 -21 27 -21zM125 -190l311 419l-2 2
q-32 -28 -166 -131q-73 -55 -125 -83.5t-94 -28.5q-32 0 -49.5 15.5t-15.5 43.5q4 42 36 82q65 86 146 164q-23 -10 -90 -64q-62 -50 -72 -59q-24 -21 -31 -16q-6 6 23 32q88 77 145 115q38 27 63.5 36t55.5 9q32 0 37 -6.5t-14 -26.5q-36 -39 -107 -127q-65 -85 -76 -110
q-13 -26 -2 -37q12 -12 47 6q67 37 154 105q53 41 122 98t99 80q29 22 60 22q29 0 36 -5.5t-8 -25.5q-7 -9 -53 -68t-70 -91q-12 -16 -62 -86.5t-105 -147t-93 -125.5q-315 -406 -583 -594q58 -51 184 -59q240 -12 481 217q31 30 64.5 68t73 90t65.5 87.5t73.5 102.5
t65.5 92q9 12 88 122t119 167l-2 2q-122 -103 -215 -108q-40 -2 -64.5 16.5t-19.5 65.5q2 21 20.5 59t45.5 66q62 65 129 98q122 63 200 57q30 -1 42 -21t9 -48h3q35 40 55 54.5t43 14.5q30 0 36.5 -7t-10.5 -26q-54 -63 -106 -135q-121 -170 -277 -395q-215 -305 -399 -457
q-258 -213 -520 -200q-142 7 -205 63q-147 -100 -291 -150.5t-305 -54.5q-135 -4 -236.5 22.5t-161 76t-88 113.5t-28.5 141q0 74 33 140.5t84 110.5q17 14 26.5 19t10.5 2q2 -3 -0.5 -5l-12.5 -10t-20 -20q-80 -94 -80 -231q0 -71 27.5 -132t82.5 -110t148 -75.5t215 -22.5
q295 8 567 225q-40 67 -16 133q-2 -61 35 -119q119 96 240.5 232.5t273.5 331.5z" />
    <glyph glyph-name=".notdef" horiz-adv-x="1024" 
d="M0 0v1434h1024v-1434h-1024zM512 809l348 522h-696zM573 717l349 -522v1044zM164 102h696l-348 523zM102 1239v-1044l349 522z" />
    <glyph glyph-name=".null" horiz-adv-x="0" 
 />
    <glyph glyph-name="nonmarkingreturn" horiz-adv-x="682" 
 />
    <glyph glyph-name="space" unicode=" " horiz-adv-x="313" 
 />
    <glyph glyph-name="exclam" unicode="!" horiz-adv-x="489" 
d="M625 694q24 0 24 -8q-1 -12 -39 -63q-70 -92 -206.5 -242t-215.5 -229q-19 -19 -26 -15q-9 4 12 33q200 265 328 459q28 40 56 52.5t67 12.5zM137 90q26 0 32.5 -15t-11.5 -38q-17 -23 -48.5 -39t-48.5 -16q-19 27 -2 69q15 39 78 39z" />
    <glyph glyph-name="quotedbl" unicode="&#x22;" horiz-adv-x="389" 
d="M383 696q29 0 33.5 -12t-21.5 -35q-97 -87 -159 -135q-18 -15 -23 -10q-4 2 8 22q10 15 82 131q9 16 32 27.5t48 11.5zM545 696q30 0 34.5 -12t-22.5 -35q-91 -82 -160 -135q-16 -13 -22 -10q-5 2 8 22q16 23 45 69.5t39 61.5q9 16 31.5 27.5t46.5 11.5z" />
    <glyph glyph-name="numbersign" unicode="#" horiz-adv-x="729" 
d="M504 575q23 0 23 -9q1 -13 -35 -56q-23 -26 -61.5 -72.5t-45.5 -54.5q52 0 188 -4q5 7 50.5 67t66.5 89q3 4 9 11.5t9 11t8 9t8.5 8.5t8.5 6.5t10 5t11.5 2.5t13.5 1q24 0 24 -10q0 -13 -36 -56q-32 -40 -121 -145h104q33 0 33 -8q0 -9 -33 -9h-118q-106 -129 -113 -137
q18 0 50 -0.5t57 -1t26 -0.5q33 0 33 -8t-33 -8h-147q-109 -135 -181 -221q-5 -7 -15 -15t-17 -4q-8 5 10 31q28 40 153 209q-35 -1 -100.5 -2t-101.5 -2q-79 -98 -191 -232q-7 -9 -18.5 -15.5t-16.5 -2.5q-7 7 11 31q6 8 163 219h-84q-47 0 -49 12q0 14 43 14h109
q9 12 44 58.5t54 70.5h-102q-47 0 -49 11q-1 6 6.5 10t16.5 5t20 1q23 0 65 -1t62 -1q2 2 42 55.5t60 79.5q5 6 12.5 15.5t11 14t10 11t12 9.5t13 5t17.5 2zM369 358l-107 -131q129 0 199 -2q39 55 100 135q-26 0 -91 -1t-101 -1z" />
    <glyph glyph-name="dollar" unicode="$" horiz-adv-x="501" 
d="M508 557l-135 -205q0 -1 7.5 -23t10.5 -35t7.5 -35.5t3 -43t-8.5 -39.5q-22 -64 -83.5 -101.5t-121.5 -37.5q-18 0 -26 2q-39 -59 -53 -82q-12 -18 -23 -14q-10 3 4 26l47 74q-46 12 -69.5 43.5t-16.5 71.5q6 31 25.5 46t44.5 13q19 -1 28.5 -15.5t4.5 -33.5
q-4 -17 -20 -34t-17 -28q-4 -31 35 -43l151 232q-14 37 -16.5 78t8.5 73q21 59 75 93t117 36q15 21 25 37q20 31 29 39.5t18 5.5q12 -3 -18 -49l-23 -35q38 -8 58 -33t10 -61q-7 -22 -23.5 -34.5t-34.5 -10.5q-22 3 -27.5 18.5t3.5 32.5q6 13 17 28t11 22q-3 17 -24 22z
M360 383l117 176q-37 0 -72 -23.5t-47 -58.5q-14 -44 2 -94zM315 266l-141 -209q6 -2 21 -2q38 0 72 23.5t52 58.5q25 52 -4 129z" />
    <glyph glyph-name="percent" unicode="%" horiz-adv-x="802" 
d="M492 -12q-35 0 -55.5 22.5t-16.5 57.5q9 65 78 137q33 35 76.5 58t78.5 30q6 2 15.5 1.5t9.5 -3.5q0 -2 -3.5 -3.5t-12.5 -5.5t-17 -10q-34 -21 -94 -94q-63 -84 -70 -131q-6 -35 21 -41q50 -6 116 88q62 85 78 142q10 32 0 45q-2 3 -5 5t-5 3t-2 2q0 2 4.5 3t11.5 1
t13 -2q45 -16 32 -78q-12 -62 -83 -139q-38 -38 -86.5 -63t-83.5 -25zM627 512q-61 -33 -121 -39q-48 -5 -90 12q9 -22 2 -55q-16 -63 -84 -131q-36 -39 -84.5 -64.5t-83.5 -25.5t-55.5 22.5t-16.5 57.5q8 66 78 139q31 34 75.5 57.5t80.5 30.5q22 4 22 -2q0 -2 -4 -3.5
t-13 -5.5t-16 -9q-34 -23 -92 -97q-61 -83 -69 -129q-7 -38 20 -41q51 -6 117 88q57 74 78 142q9 29 0 43q-2 3 -5.5 5.5t-6 3.5t-1.5 3q2 3 11 4t18 -2q12 -4 16 -8q43 -24 103 -19q81 9 164 70q37 39 55 48q15 7 33 7q16 0 16 -6q-1 -9 -51 -59q-281 -274 -580 -619
q-23 -23 -32 -16q-6 6 14 31q232 275 502 567z" />
    <glyph glyph-name="ampersand" unicode="&#x26;" horiz-adv-x="925" 
d="M1036 612q44 0 67 -23.5t15 -60.5q-6 -29 -29.5 -51t-48.5 -16q-19 4 -22.5 23.5t2.5 39.5q7 40 -29 43q-32 4 -83.5 -27.5t-141.5 -109.5q-39 -35 -123 -116.5t-125 -118.5q14 -21 25 -38t24 -41t21 -47.5t13.5 -50.5t5.5 -56.5t-7 -59.5q-24 -111 -121.5 -184.5
t-214.5 -73.5q-49 0 -81 18.5t-42 38.5q-14 28 -4 35q3 0 4.5 -3t4.5 -10t8 -14q33 -41 110 -41q81 0 146 51.5t90 133.5q40 138 -37 292q-187 -155 -318 -155q-37 0 -59 23.5t-14 66.5q10 47 54.5 89t119.5 87q24 14 68 37.5t63 34.5q-19 70 -8 123q11 57 54 103t99 46
q32 0 47.5 -28t1.5 -72q-34 -85 -141 -158q6 -16 15.5 -33.5t17 -30t22 -33.5t21.5 -32q42 39 124.5 121.5t121.5 118.5q85 77 154 118t130 41zM518 567q-32 0 -60.5 -34.5t-37.5 -79.5q-9 -49 6 -95q98 72 123 144q9 28 0.5 46.5t-31.5 18.5zM215 45q38 0 103.5 34
t132.5 87q-48 83 -68 145q-113 -79 -121 -86q-83 -68 -94 -127q-6 -27 9 -40t38 -13z" />
    <glyph glyph-name="quotesingle" unicode="'" horiz-adv-x="223" 
d="M385 696q26 0 30.5 -12t-20.5 -35q-103 -89 -162 -135q-17 -13 -20 -10q-8 3 6 22q12 18 41.5 64.5t42.5 66.5q23 39 82 39z" />
    <glyph glyph-name="parenleft" unicode="(" horiz-adv-x="489" 
d="M147 -188q-7 0 -10 18q-8 39 -9.5 98.5t7.5 150t50.5 200t111.5 206.5q71 99 154 178.5t154.5 127t149 82t129 49.5t103.5 24q19 4 19 -2q0 -4 -19 -10q-63 -18 -131 -50.5t-152 -86t-172.5 -139t-164.5 -191.5q-66 -95 -112.5 -197t-67 -187.5t-28.5 -146t-7 -106.5
q0 -18 -5 -18z" />
    <glyph glyph-name="parenright" unicode=")" horiz-adv-x="489" 
d="M-219 -176q0 2 18 8q62 21 128 56.5t141.5 92t154 143t146.5 191.5q41 63 73 130.5t49.5 125.5t30 116t15 102.5t4.5 85t-2 63.5q0 16 2 16q7 0 10 -14q14 -52 20 -110.5t2.5 -145t-37 -189t-96.5 -200.5q-64 -99 -139.5 -179.5t-142.5 -130.5t-138.5 -86.5t-122.5 -53
t-98 -25.5q-18 -4 -18 4z" />
    <glyph glyph-name="asterisk" unicode="*" horiz-adv-x="473" 
d="M618 696q0 -8 -34 -8q-72 0 -117 2q28 -61 39 -98q8 -29 2 -31q-6 -3 -19 14q-27 35 -65 99q-83 -79 -111 -103q-27 -24 -32 -16q-7 7 14 33q56 70 92 108q-15 3 -98 21q-24 7 -26 13q-1 2 -1 5q2 10 33 10q39 0 94 -6q-25 52 -39 92q-9 28 0 35q9 6 27 -20
q29 -39 59 -94q51 51 105 96q30 24 37 20q5 -5 -15 -34q-45 -60 -84 -105q102 -17 109 -18q30 -5 30 -15z" />
    <glyph glyph-name="plus" unicode="+" horiz-adv-x="729" 
d="M588 512q10 0 16 -1t10.5 -3t5 -6.5t-2.5 -12t-10 -18t-19 -25.5q-45 -54 -85.5 -101t-60.5 -71q134 -3 232 -6q33 0 33 -10t-33 -10q-121 -3 -260 -6q-29 -33 -78.5 -90.5t-82.5 -95t-50 -56.5q-2 -2 -7 -7.5t-7.5 -7.5t-7 -6t-6 -3t-5.5 1q-8 5 10 31q18 25 172 232
q-31 0 -102 -1t-113 -1q-23 0 -34 2.5t-13 7t0 10.5q8 27 43 27q39 -1 121.5 -4.5t124.5 -4.5q54 75 133 179q2 2 9 11.5t8.5 11.5t7.5 9t8.5 9t8.5 6.5t10.5 5.5t10.5 2.5t13 1.5z" />
    <glyph glyph-name="comma" unicode="," horiz-adv-x="215" 
d="M139 72q0 -16 -16 -35q-66 -82 -178 -150q-24 -13 -27 -10q0 3 -1 3.5t1.5 3.5t4 4.5t5 6t6.5 7.5q60 64 76 100q5 10 3.5 23.5t0.5 21.5q6 19 33.5 31t61.5 12q30 0 30 -18z" />
    <glyph glyph-name="hyphen" unicode="-" horiz-adv-x="501" 
d="M307 240q47 0 70.5 -32t21.5 -75q0 -10 -4 -10t-8 6q-20 33 -82 33q-25 0 -71 -9.5t-82 -9.5q-19 0 -41 8t-31 19q-3 7 0 10q4 4 8 0q16 -8 33 -8q35 0 102 39q41 29 84 29z" />
    <glyph glyph-name="period" unicode="." horiz-adv-x="215" 
d="M102 90q27 0 33 -15t-12 -38t-47.5 -39t-48.5 -16q-17 23 -2 69q13 39 77 39z" />
    <glyph glyph-name="slash" unicode="/" horiz-adv-x="489" 
d="M760 778q24 0 24 -8q0 -12 -47 -63q-39 -42 -805 -869q-19 -19 -30 -12q-6 6 16 33q483 552 739 858q29 33 51 47t52 14z" />
    <glyph glyph-name="zero" unicode="0" horiz-adv-x="544" 
d="M133 -18h-2q-59 0 -90 34.5t-25 98.5q10 123 138 260q54 62 130 106.5t138 57.5q15 3 29 1.5t14 -5.5q0 -1 -4.5 -2t-15.5 -5t-23 -12q-80 -54 -180 -182q-54 -65 -92.5 -133.5t-47.5 -120.5q-15 -73 37 -76q44 -4 97.5 40t121.5 128q113 144 150 274q14 50 -6 70
q-5 6 -12 10t-10.5 5.5t-2.5 3.5q1 5 17.5 4t29.5 -7q31 -13 46 -52t1 -91q-30 -116 -153 -246q-68 -74 -146 -117.5t-139 -43.5z" />
    <glyph glyph-name="one" unicode="1" horiz-adv-x="382" 
d="M365 455q-59 -39 -136 -80q-21 -11 -45 -18t-37 -7.5t-16 2.5q-1 3 0 4t14 6q38 17 84 41q137 74 179 103q64 39 84 39q25 0 -15 -45q-157 -189 -321 -420q-39 -55 -59 -68t-89 -26q-31 -5 -32 5q0 12 42 68q79 105 200 243t147 153z" />
    <glyph glyph-name="two" unicode="2" horiz-adv-x="509" 
d="M66 82q33 8 69 6q24 -2 68.5 -16.5t60.5 -14.5q39 0 71.5 16.5t74.5 61.5q12 12 16 10q8 -6 -2 -16q-107 -141 -207 -141q-57 0 -115 28q-39 19 -84 19q-31 0 -65 -21q-5 -3 -15.5 -9.5t-18 -11t-11.5 -5.5q-10 -3 -4 12q4 12 35 31q14 9 81.5 44.5t108.5 59.5
q108 64 196 145.5t109 145.5q10 35 -5 57.5t-46 22.5q-76 0 -141 -53q-61 -49 -72 -101q-7 -36 8 -52.5t45 -8.5q13 3 15 0q1 -3 -4 -6.5t-11 -5.5q-25 -10 -47 -7q-59 8 -47 68q14 61 100 129q100 76 201 76q67 0 94 -36t11 -95q-18 -60 -75 -110.5t-153 -110.5
q-101 -58 -241 -111z" />
    <glyph glyph-name="three" unicode="3" horiz-adv-x="516" 
d="M330 305q45 -3 73 -24q44 -35 21 -105q-26 -82 -137 -141q-95 -53 -201 -53q-60 2 -97 27t-30 73q6 37 35 60.5t67 23.5q26 0 39.5 -14t8.5 -33q-4 -19 -39 -43q-30 -20 -35 -39q-4 -19 12.5 -29t50.5 -8q53 2 112 42.5t109 137.5q19 34 18 68t-26 37q-18 2 -53 -15
q-27 -14 -29 -10q-3 6 7 16t28 17q88 36 138.5 83.5t50.5 92.5q0 17 -13.5 28t-36.5 11q-53 0 -98 -31q-44 -31 -59 -76q-9 -27 -6 -43q1 -4 3 -7.5t2.5 -4.5t-1.5 -4q-4 -2 -10.5 0.5t-10.5 9.5q-13 20 -4 54q15 51 84 94q75 45 164 45q41 0 62.5 -18t21.5 -46
q0 -62 -78 -112q-64 -40 -143 -64z" />
    <glyph glyph-name="four" unicode="4" horiz-adv-x="559" 
d="M651 547h2q7 0 10 -1t2.5 -4.5t-3 -7l-7.5 -10.5q-122 -152 -313 -418q63 -5 80 -8q16 -3 24 -9t5 -13q-1 -2 -2 -2.5t-4 -0.5t-6.5 0.5t-10.5 1t-14 1.5q-62 4 -86 4q-87 -109 -162 -217q-22 -30 -44.5 -42.5t-58.5 -19.5q-38 -7 -40 2q-3 14 36 70q27 38 78 105t76 102
q-89 0 -160 -6q-32 -2 -84 -11q-26 -5 -26 5q-3 11 30 34q102 82 258 191q61 42 119 80t119 78t94 61q56 35 88 35zM526 455l-2 2q-106 -60 -280 -185q-192 -141 -232 -174v-2q71 10 221 10q66 87 159.5 200t133.5 149z" />
    <glyph glyph-name="five" unicode="5" horiz-adv-x="528" 
d="M436 559h2q3 0 17 -14q23 -23 57 -35q29 -10 70 -10q34 0 53 14q14 9 16 8q7 -4 -6 -20q-17 -24 -51 -39q-53 -24 -123 -21q-56 3 -96 31q-64 -82 -152 -166l2 -2q52 23 101 23q59 0 94.5 -33t19.5 -98q-21 -94 -125.5 -154.5t-222.5 -60.5q-63 0 -100 24.5t-29 75.5
q6 33 32 56.5t56 23.5q22 0 34 -12t11 -33q-3 -23 -26 -43q-27 -22 -29 -39q-2 -15 12.5 -25t38.5 -10q82 0 156.5 61.5t95.5 155.5q9 41 -5 64.5t-46 23.5q-38 0 -66 -14q-18 -9 -39 -27q-21 -17 -30 -12q-16 14 20 41q45 37 113 110q43 46 123 142q10 14 22 14z" />
    <glyph glyph-name="six" unicode="6" horiz-adv-x="534" 
d="M39 88v2q0 71 42 155.5t116 160.5q105 108 250.5 179.5t248.5 69.5q46 0 79.5 -18t45.5 -47q10 -22 0 -27q-3 -1 -5 1t-6 8l-3 6q-32 53 -109 53q-87 0 -190 -69.5t-229 -203.5q-72 -76 -124.5 -158.5t-52.5 -142.5q0 -59 52 -59q40 1 92 46t100 114q46 65 57.5 117
t-20.5 61q-44 6 -104 -35q-12 -9 -17 -4q-3 6 14 20q25 20 62.5 33.5t67.5 9.5q67 -9 74 -83.5t-52 -153.5q-50 -68 -127 -105.5t-145 -37.5q-55 0 -86 31.5t-31 76.5z" />
    <glyph glyph-name="seven" unicode="7" horiz-adv-x="440" 
d="M524 487q-52 -21 -127.5 -36.5t-132.5 -14.5q-34 0 -59 17t-21 47q4 33 52 57q24 12 47 12l4 -2q1 -2 0 -4t-4 -5.5t-4 -6.5q-7 -15 -4.5 -28.5t25 -23t62.5 -10.5q96 -3 193 23q8 4 19.5 5.5t13.5 -3.5q1 -5 -5.5 -8.5t-17.5 -5.5q-111 -94 -258 -249.5t-260 -291.5
q-17 -17 -108 -29q-52 -7 -55 0t36 45q160 156 324.5 296t279.5 216z" />
    <glyph glyph-name="eight" unicode="8" horiz-adv-x="501" 
d="M489 623h-2q-41 0 -78.5 -29.5t-46.5 -69.5q-14 -65 29 -166q33 -93 31 -139q-6 -97 -99 -170t-198 -67q-61 5 -94 42t-19 95q16 63 80.5 117t147.5 86q45 17 47 8q1 -3 -3.5 -6t-15 -8.5t-18.5 -10.5q-105 -70 -137 -174q-17 -54 -0.5 -85.5t57.5 -33.5q70 -6 119 51.5
t49 126.5q0 40 -33 125q-27 69 -24 134q4 80 83 143t164 61q58 -1 85.5 -37t15.5 -88q-6 -27 -24 -52t-46.5 -45.5t-49 -32t-48.5 -25.5q-52 -23 -55 -15q-1 4 3 7.5t15 10t12 7.5q93 59 113 145q9 39 -7.5 67t-52.5 28z" />
    <glyph glyph-name="nine" unicode="9" horiz-adv-x="546" 
d="M-176 -188h2q129 0 272 116q58 44 130.5 123.5t119.5 145.5q72 103 104.5 164t36.5 104q6 49 -30 55q-38 9 -96.5 -33t-112.5 -118q-43 -62 -50.5 -112t25.5 -60q40 -10 101 34q4 3 12.5 10t9.5 7.5t6 -0.5q2 -1 -0.5 -6t-9.5 -13t-16 -16q-66 -52 -127 -41
q-66 11 -73.5 82.5t50.5 151.5q54 74 142 109.5t149 23.5q39 -7 60.5 -36t23.5 -67q3 -52 -28.5 -129.5t-88.5 -150.5q-117 -154 -288 -261.5t-320 -107.5q-43 0 -76.5 18t-42.5 45q-3 9 -2.5 18t4.5 9q3 1 4.5 -0.5t3 -6.5t2.5 -7q12 -23 41 -37t62 -14z" />
    <glyph glyph-name="colon" unicode=":" horiz-adv-x="333" 
d="M123 90h2q25 0 30.5 -15t-12.5 -38t-47.5 -39t-48.5 -16q-17 23 -2 69q13 39 78 39zM221 293h2q25 0 31 -15t-12 -38t-48 -39.5t-49 -16.5q-7 9 -7 30t7 40q15 39 76 39z" />
    <glyph glyph-name="semicolon" unicode=";" horiz-adv-x="333" 
d="M162 72v-2q0 -13 -17 -33q-66 -82 -178 -150q-23 -13 -26 -10q-4 5 16 25q59 64 76 100q5 10 3.5 23.5t0.5 21.5q6 20 32.5 31.5t61.5 11.5q31 0 31 -18zM219 293h2q27 0 33 -15t-12 -38t-48 -39.5t-49 -16.5q-7 9 -7 30t7 40q15 39 74 39z" />
    <glyph glyph-name="less" unicode="&#x3c;" horiz-adv-x="577" 
d="M80 264v2q0 11 47 27q204 77 479 176q27 11 27 0q0 -8 -31 -20q-70 -30 -216.5 -95t-213.5 -94q149 -93 287 -178q5 -2 11 -8.5t3 -10.5q-7 -9 -24 0q-216 110 -343 177q-26 13 -26 24z" />
    <glyph glyph-name="equal" unicode="=" horiz-adv-x="677" 
d="M702 330v-2q0 -11 -30 -11q-174 -5 -508 -8q-20 0 -25 6.5t-2 18.5q12 24 47 24q276 -9 486 -18q32 0 32 -10zM627 199v-2q0 -4 -10.5 -7.5t-20.5 -3.5q-79 -2 -248 -4t-260 -4q-37 0 -25 27q11 25 46 22q79 -3 244.5 -8.5t240.5 -7.5q33 0 33 -12z" />
    <glyph glyph-name="greater" unicode="&#x3e;" horiz-adv-x="577" 
d="M543 266v-2q0 -9 -47 -26q-69 -26 -240.5 -89.5t-237.5 -89.5q-23 -8 -26 0q-1 4 6.5 10.5t21.5 12.5q85 37 431 188q-46 28 -116.5 71.5t-117.5 72t-53 32.5q-17 13 -12 21q7 10 22 0q305 -156 344 -176q25 -11 25 -25z" />
    <glyph glyph-name="question" unicode="?" horiz-adv-x="489" 
d="M524 690h2q58 0 86 -39t11 -96q-20 -66 -80 -116t-160 -97q-83 -40 -127 -68q-63 -37 -72 -65q-3 -5 -8.5 -23t-12.5 -28.5t-18 -10.5q-9 3 -6 21t11 31q31 64 112 112q111 67 174.5 126.5t89.5 125.5q14 35 2 60t-45 28q-73 6 -143 -51q-47 -34 -71 -84t-7 -80
q3 -5 7.5 -9t7.5 -5.5t2 -3.5q-1 -3 -9 -3.5t-14 1.5q-27 5 -34.5 31t1.5 47q14 53 105 122q100 74 196 74zM137 90h2q24 0 30.5 -15t-11.5 -38q-17 -23 -48.5 -39t-48.5 -16q-19 27 -2 69q15 39 78 39z" />
    <glyph glyph-name="at" unicode="@" horiz-adv-x="1013" 
d="M651 541h2q104 0 161 -49t52 -121q-3 -45 -41 -105q9 -23 9 -39q0 -65 -41 -114q-56 -65 -142 -103t-194 -35q-100 2 -167.5 42t-90 99t-8.5 127.5t65 127.5q64 73 169.5 121.5t225.5 48.5zM651 524h-2q-97 0 -189.5 -54t-140.5 -120q-47 -59 -63.5 -121.5t-2 -113.5
t68 -85t139.5 -36q99 -3 180.5 34t132.5 97q43 53 43 100q0 17 -2 23q-15 -20 -18 -23q-85 -90 -166 -90q-70 0 -76 45q-3 23 16 49h-2q-96 -92 -157 -92q-28 0 -45.5 13t-14.5 45q8 70 103 139q38 27 91 46t85 13q20 -3 29 -17.5t4 -29.5h2q41 47 69 49q22 0 26 -5t-7 -17
q-101 -125 -117 -154q-15 -25 -9 -41t31 -16q27 0 62 23.5t59 52.5q15 18 25 38q-5 14 -14 25q-8 11 -7 14q3 6 13 -4t16 -18q19 46 21 80q2 63 -45.5 107t-137.5 44zM618 377h-2q-32 0 -122 -86q-74 -77 -74 -111q0 -14 16 -14q38 0 111 65q34 31 64.5 68t33.5 53
q1 12 -6.5 18.5t-20.5 6.5z" />
    <glyph glyph-name="A" unicode="A" horiz-adv-x="1413" 
d="M43 115v2q0 52 32.5 87.5t74.5 37.5q35 3 55 -14.5t20 -47.5q0 -37 -47 -69q-37 -26 -37 -52q0 -34 53 -54t148 -13q193 17 426 178q-40 36 -76.5 99t-36.5 132q2 94 69 155t175 60q75 -3 132.5 -49.5t80.5 -97.5q21 21 96 90q194 175 308 236q140 77 245 77q47 0 72 -20
q9 -8 13.5 -17t0.5 -12q-2 -1 -4 0.5t-7.5 6t-10.5 8.5q-16 12 -45 12q-37 0 -66 -23q-33 -27 -81.5 -83.5t-84.5 -108.5q-185 -256 -383 -578q49 3 115 35q67 36 129 94q14 14 21 7q5 -5 -17 -27q-62 -57 -127 -92q-63 -33 -131 -37q-41 -43 -80 -51q-27 -6 -40.5 -1.5
t-12.5 13.5t4 16q3 6 8.5 16.5t7.5 14.5q-56 6 -133 37q-76 30 -121 72q-247 -174 -452 -189q-126 -9 -209.5 30t-83.5 120zM1143 203q38 61 117.5 174t130.5 178q167 220 329 297v2q-72 -6 -194 -72q-105 -58 -275 -211q-82 -76 -129 -120q23 -66 27 -134q3 -58 -6 -114z
M901 586h-2q-75 0 -120 -56t-48 -133q-3 -58 19.5 -114t48.5 -88q75 61 149 127q69 61 146 131q-32 60 -82.5 96.5t-110.5 36.5zM813 176q32 -37 107 -72q75 -32 133 -38q9 17 34 55.5t27 42.5q20 41 12 151q-6 79 -22 119q-98 -90 -143 -131q-77 -69 -148 -127z" />
    <glyph glyph-name="B" unicode="B" horiz-adv-x="1310" 
d="M821 -18q-69 0 -117.5 23.5t-48.5 76.5q0 48 39.5 81.5t87.5 33.5q28 0 46 -13t18 -37q0 -38 -53 -59q-46 -18 -50 -41q-4 -24 20.5 -36.5t57.5 -12.5q103 0 196 95t99 218q4 67 -38 100t-81 29q-38 -6 -59 -6q-52 0 -49 17q2 16 55 16q8 0 62 -6q67 9 126 62.5t76 123.5
q25 103 -45 146q-40 -40 -47 -48q-70 -70 -230 -283q-5 -7 -8 -11l-7.5 -10t-8.5 -11q-346 -471 -649 -471q-217 0 -217 156q0 97 83 220t255 249q167 122 363.5 186t365.5 64q36 0 80 -7q105 74 196 111q101 43 203 43q108 0 144 -55q10 -16 4 -19q-2 -1 -3.5 0.5t-4.5 5
t-5 5.5q-40 47 -133 47q-97 0 -192 -45q-72 -30 -162 -105q135 -52 113 -168q-8 -53 -54 -96.5t-100 -66.5t-107 -31v-2q91 -15 137.5 -63t43.5 -114q-6 -126 -124.5 -209t-277.5 -83zM78 113q0 -62 34 -99t99 -37q51 0 102 21.5t85.5 44.5t89.5 83.5t78.5 90.5t86.5 113
q22 28 33 43q92 120 194.5 225t184.5 172q6 5 51 39q-27 6 -65 6q-156 0 -341 -63.5t-341 -182.5q-105 -81 -173.5 -171t-93 -158t-24.5 -127z" />
    <glyph glyph-name="C" unicode="C" horiz-adv-x="798" 
d="M545 954q74 0 142.5 -34.5t109.5 -94.5q59 16 108 19q51 3 95.5 -3.5t80.5 -23.5t53 -49.5t9 -77.5q-11 -60 -77.5 -104.5t-149.5 -64t-166 -19.5q-90 0 -173 21t-137 61q-118 -105 -192 -232.5t-74 -226.5q0 -85 47.5 -125.5t128.5 -40.5q82 0 152 29t145 78
q67 47 127 102q38 36 45 29q5 -5 -16 -27q-92 -84 -148 -123q-156 -109 -309 -117q-133 -5 -212 46t-83 161q-4 126 94.5 260.5t241.5 237.5q-51 65 -51 129q0 84 61.5 137t147.5 53zM754 522q114 0 205 49t108 123q15 68 -27 102.5t-127 32.5q-58 0 -108 -20
q28 -51 35 -113q2 -17 1.5 -28.5t-2.5 -17.5t-5 -5q-1 0 -9 41q-12 62 -49 113q-80 -30 -165.5 -84.5t-153.5 -116.5q103 -76 297 -76zM528 928q-69 0 -117.5 -46t-48.5 -120q0 -62 41 -115q175 117 361 170q-47 53 -109.5 82t-126.5 29z" />
    <glyph glyph-name="D" unicode="D" horiz-adv-x="1378" 
d="M729 557v2q0 42 -25 67t-65 27q-38 1 -74 -14.5t-59 -38.5q-11 -11 -19.5 -22.5t-11.5 -15.5t-6 -3q-1 2 -0.5 7.5t7.5 16.5t18 23q23 27 63.5 48t87.5 18q48 -2 81.5 -33t33.5 -84q0 -57 -33 -115t-90 -106q-138 -114 -315 -105q-115 6 -177 57t-61 144q1 89 63.5 171
t162 139t227 90.5t256.5 33.5q134 0 256 -34.5t198 -102.5q80 51 133 72q98 41 201 41q71 0 115 -31q10 -7 15.5 -17.5t2.5 -13.5q-2 -1 -4 1l-8 8t-16 12q-35 22 -105 22q-92 0 -190 -43q-84 -38 -123 -73q60 -66 81.5 -150.5t5 -168t-64.5 -155.5q-81 -120 -242.5 -183.5
t-330.5 -63.5q-143 0 -281 10q-114 -12 -203 -12q-226 0 -274 8q-50 8 -49 28q5 50 297 39q112 -3 274 -30q41 12 80.5 34.5t69.5 46.5t66.5 62.5t59.5 66.5t61.5 75t60.5 73q76 91 171.5 182.5t166.5 139.5q-65 67 -184 103t-240 36q-159 0 -302.5 -59.5t-231 -159.5
t-89.5 -213q0 -70 39.5 -115t114.5 -49q160 -8 288 106q54 49 85.5 103.5t31.5 97.5zM512 23q92 -19 172 -19q324 0 520 270q73 102 83.5 217t-48.5 193q-42 -40 -135 -170.5t-117 -161.5q-115 -139 -225.5 -213t-249.5 -116z" />
    <glyph glyph-name="E" unicode="E" horiz-adv-x="798" 
d="M461 539q0 57 45 120q-88 67 -88 152q0 61 42 98.5t109 40.5q63 3 133 -26.5t117 -85.5q83 15 152 12q100 -4 155.5 -40.5t55.5 -88.5q0 -68 -92 -117t-216 -49q-172 0 -286 57q-21 -29 -31 -61q-12 -37 -6 -66q57 10 100 7q49 -2 81.5 -15t29.5 -37q-3 -20 -36 -29.5
t-77 -9.5q-50 0 -97.5 15.5t-66.5 40.5q-94 -34 -186 -123q-52 -48 -85 -107.5t-36 -117.5q-3 -70 44 -110t124 -40q139 0 301 107q74 51 146 118q21 18 26 13q7 -7 -18 -29q-86 -80 -146 -121q-156 -109 -309 -117q-135 -6 -214 41t-79 142q-2 114 114.5 214t307.5 144
q-14 22 -14 68zM870 575q106 0 184 40t79 106q3 42 -34.5 75.5t-121.5 37.5q-66 0 -139 -25q20 -42 26 -90q6 -53 -4 -53q-2 0 -2.5 3t-2.5 14t-5 24q-10 41 -45 90q-75 -37 -150 -105q-31 -26 -57 -63q108 -54 272 -54zM780 829q-39 48 -99 77t-116 26q-55 -3 -92 -34.5
t-37 -84.5q0 -68 82 -137q16 23 43 45q83 72 219 108zM555 471q6 -23 34 -36t62 -15q31 -2 52.5 5t21.5 21q0 12 -22.5 19.5t-51.5 9.5q-43 4 -96 -4z" />
    <glyph glyph-name="F" unicode="F" horiz-adv-x="1118" 
d="M711 821q-100 0 -181 -22t-140 -72.5t-77 -124.5q-8 -28 -3.5 -61t17 -63.5t44.5 -59.5t78 -49q4 -2 8 -3t6.5 -2t5 -1.5t3.5 -1t2 -1.5t1 -2v-2q-3 -9 -39 2q-88 31 -129.5 102t-30.5 156q15 117 136.5 193.5t308.5 75.5q123 0 348 -62q29 -8 100 -27.5t109 -29.5
q43 24 105 40.5t120 16.5q57 0 92.5 -16t34.5 -47q-1 -26 -33.5 -42t-83.5 -16q-87 0 -227 21q-30 -21 -78.5 -70t-83.5 -92q-34 -42 -85 -110t-76 -99q39 -2 91.5 2.5t82.5 14.5q41 53 66 65q15 6 28 4q27 -7 0 -37q-10 -11 -41 -39q-50 -43 -94 -94q-3 -4 -6.5 -8t-5 -6.5
t-3.5 -4.5t-3.5 -3t-2.5 0q-11 3 8 41q10 24 37 57q-52 -14 -176 -14q-19 -25 -47 -56q-287 -311 -610 -311q-101 0 -172 34t-74 109q-2 41 25.5 72t72.5 31q28 0 46.5 -19t15.5 -45q-4 -24 -31 -51t-27 -47q1 -31 44 -48t96 -17q111 0 218 53t191 145q68 73 125 152
q-87 0 -112 -2q-15 -1 -35 -3q-19 -3 -19 5q3 13 70 18q23 2 110 2q38 51 105 127q70 75 158 149.5t139 104.5q-23 5 -81.5 19t-94.5 22q-214 47 -346 47zM1501 805q-99 0 -178 -51q125 -33 199 -33q37 0 62 10.5t26 30.5t-28.5 31.5t-80.5 11.5z" />
    <glyph glyph-name="G" unicode="G" horiz-adv-x="919" 
d="M1182 752q0 -81 -71.5 -161.5t-182.5 -139.5q-87 -44 -190.5 -66.5t-196.5 -22.5q-100 0 -185 29q-97 -141 -108 -260q-5 -54 21 -88t73 -35q77 -1 158.5 52.5t177.5 154.5q64 64 98 64q30 0 36 -7t-9 -26q-35 -42 -103 -135q-17 -22 -53 -70.5t-67 -89.5v-2
q100 55 194 125q85 63 144 114q23 20 28 15q7 -7 -26 -37q-42 -38 -123 -98q-104 -78 -240 -152q-78 -112 -119 -166t-135 -164q-122 -141 -260 -236t-223 -95q-39 0 -64.5 20t-21.5 66q11 130 317 323q95 59 205.5 120.5t187.5 109.5l170 235q-64 -64 -136.5 -104.5
t-137.5 -44.5q-92 -8 -149.5 28.5t-63.5 118.5q-5 65 29.5 148.5t99.5 164.5q-51 34 -82 84.5t-31 110.5q0 117 94 186.5t226 69.5q160 0 254 -100q180 79 303 79q41 0 75 -9t60.5 -37t26.5 -72zM1157 756q0 92 -137 92q-123 0 -279 -90q35 -51 47 -111q4 -19 4.5 -33
t-1 -20t-3.5 -6q-2 -1 -3 1t-2 6.5t-2 10t-3.5 15t-5.5 18.5q-18 57 -59 102q-109 -72 -213 -176q-73 -73 -131 -159q83 -25 170 -25q188 0 364 96q100 53 177 135.5t77 143.5zM449 866q-115 0 -200 -63t-85 -168q0 -108 104 -180q93 106 183 174q121 91 231 145
q-103 92 -233 92zM422 -139q-51 -34 -161 -95t-212 -128q-97 -62 -180 -150t-82 -152q0 -47 47 -53q50 -6 127 41q54 33 125 104t137 160q141 186 199 273z" />
    <glyph glyph-name="H" unicode="H" horiz-adv-x="1331" 
d="M1081 784q-53 -20 -165.5 -22t-272.5 6q-123 4 -221.5 -25t-161.5 -96.5t-63 -165.5q0 -58 39.5 -115.5t109.5 -80.5q5 -2 10 -3l7.5 -1.5t4.5 -1.5t3 -2t0 -3q-1 -4 -15 -4.5t-24 2.5q-77 23 -125 83t-51 130q-5 146 115.5 239t344.5 87q38 -1 123 -7t149 -10.5
t127.5 -2t86.5 15.5q4 2 12 6.5t11.5 6.5t10 5.5t10.5 4.5t8.5 2.5t8 1t6.5 -2.5t3.5 -4.5t-2 -6t-6 -6.5t-10 -8.5t-11.5 -10.5q-89 -85 -148 -162q-34 -42 -80.5 -104.5t-62.5 -82.5h293q79 94 172 179q66 62 138.5 115.5t119.5 80.5q110 62 205 62q52 0 86 -20.5
t43 -45.5q10 -27 -2 -31q-2 -1 -3 1t-3.5 8t-4.5 10q-28 57 -114 57q-92 0 -187 -69q-73 -54 -186 -175q-75 -81 -143 -172q136 -5 164 -8q47 -6 47 -10q0 -6 -45 -6q-140 0 -187 -2q-62 -79 -102 -133t-80.5 -124.5t-40.5 -105.5q0 -34 39 -34q57 0 145 63q33 22 117 96
q20 16 25 11t-13 -23q-63 -58 -118 -100q-111 -82 -191 -82q-45 0 -71.5 23.5t-26.5 66.5q0 110 194 342l-288 -2q-52 -63 -85.5 -102.5t-83.5 -93.5t-88.5 -86.5t-90 -69t-99.5 -56.5t-106 -33.5t-119 -13.5q-84 0 -144.5 39.5t-60.5 120.5q0 43 31 75t75 31
q31 -2 50 -22.5t16 -52.5q-3 -35 -33 -62q-26 -23 -26 -51q3 -30 33.5 -44.5t68.5 -14.5q35 0 71 9t72 29.5t66 40t66.5 55t59.5 58t58.5 65.5t51 62.5t49 63t41.5 53.5q-8 0 -152 -4h-5.5h-5.5h-6h-6.5t-5.5 0.5t-4.5 1.5t-3.5 2t-2 2.5v3.5q2 8 59 12q38 4 152 8
q81 98 186 198.5t168 141.5z" />
    <glyph glyph-name="I" unicode="I" horiz-adv-x="901" 
d="M1255 846q-23 -6 -81.5 -19.5t-88.5 -21.5q-196 -51 -301 -113q-51 -30 -92 -77t-41 -89q0 -25 16 -39t40 -14q28 0 55 19q3 2 8.5 6t6.5 4.5t5 -0.5q6 -6 -10 -21q-28 -28 -74 -28q-44 0 -70 24.5t-26 61.5q0 108 178 190q99 50 301 96q20 5 68.5 15t75 17t45.5 15
q33 14 41 13q11 -3 9 -15.5t-13 -17.5q-85 -37 -191 -188q-10 -14 -80 -120t-104 -151q-172 -221 -348 -325.5t-371 -104.5q-48 0 -90.5 9t-79.5 27t-58.5 50t-21.5 74q0 46 31.5 84.5t83.5 38.5q33 0 52.5 -20t16.5 -52q-3 -34 -38 -61l-12 -11q-12 -11 -14.5 -15
t-7.5 -14.5t-5 -21.5q0 -29 38 -48t99 -19q81 0 160 29.5t154.5 86.5t145 128t146.5 167q22 27 100 125.5t109 136.5q52 60 116.5 113.5t116.5 75.5z" />
    <glyph glyph-name="J" unicode="J" horiz-adv-x="686" 
d="M330 -43q53 19 110 53q59 32 138 90q58 45 104 86q28 21 33 19q7 -7 -27 -37q-60 -53 -115 -94q-74 -58 -143 -92q-73 -40 -123 -60q-102 -126 -145 -170q-106 -112 -227.5 -208t-231.5 -150q-115 -56 -195 -56q-25 0 -48 5.5t-44.5 26.5t-21.5 55q0 64 91.5 141
t258.5 158q179 87 424 178q198 268 393 487q112 128 316 291q31 25 61 47t69.5 48t41.5 28q22 16 22 18q0 10 -20 10q-199 4 -435 -120q-142 -75 -235.5 -178t-93.5 -191q0 -75 57 -90q12 -3 22 -2.5t11 1.5t4 -3q1 -3 -4 -6t-14.5 -5t-18.5 -1q-47 5 -75.5 40.5t-28.5 90.5
q0 97 89.5 206.5t274.5 190.5q89 38 218.5 65.5t236.5 20.5q13 -1 21.5 -3t17.5 -9.5t6 -18.5q-2 -8 -37 -35q-46 -37 -123 -110q-116 -114 -254 -277q-231 -276 -360 -440zM150 -129q-227 -81 -404 -170q-148 -75 -223.5 -148t-69.5 -131q5 -47 68 -51q71 -8 172 41
q85 42 170 123.5t188 206.5q34 41 99 129z" />
    <glyph glyph-name="K" unicode="K" horiz-adv-x="1241" 
d="M1708 752q0 -69 -81 -117.5t-173 -40.5q-44 3 -74 20q-9 6 -6 13q3 3 12 -2q34 -13 66 -15q84 -8 161 35.5t77 106.5q0 40 -29.5 63t-71.5 23q-20 0 -38 -3t-37 -13t-32 -16.5t-33 -25t-29 -26t-30.5 -33.5t-27.5 -33.5t-30 -38.5t-29 -37q-65 -86 -148 -141.5
t-162 -79.5q17 -11 32 -31.5t19 -42.5q15 -59 -32 -127q-7 -11 -22 -32.5t-21.5 -32t-15 -26t-12 -28t-3.5 -24.5q0 -14 9 -24.5t28 -10.5q45 0 147 78q66 51 95 78q2 2 6 5.5t6.5 6t6.5 5.5l6 4.5t5 3.5t4.5 1.5t3.5 -1.5q7 -7 -14 -27q-47 -43 -113 -96q-109 -90 -192 -90
q-46 0 -71 21.5t-27 57.5q0 62 71 160q8 12 24.5 33.5t25.5 33.5t16.5 28t7.5 28q0 24 -14 41q-24 -12 -62 -12q-22 0 -40 7t-17 21q3 31 65 27q37 -3 62 -20q37 14 72.5 43t58 55t60.5 73.5t61 73.5q93 104 177 154.5t179 50.5q53 0 88 -27.5t35 -76.5zM-43 123q0 41 31 73
t75 31q33 -2 52 -21t16 -52q-3 -35 -35 -64q-26 -26 -26 -51q0 -28 32 -43.5t70 -15.5q40 0 82 13.5t78 34.5t76.5 54.5t71 63t67.5 72t59.5 70.5t54 68t44.5 56q63 80 135.5 157t126.5 113v2q-70 -47 -150.5 -68.5t-130.5 -21.5q-104 -2 -167 34t-52 105q4 34 26.5 63.5
t47.5 45.5q30 20 57 20t0 -24q-46 -41 -53 -107q-5 -53 32.5 -85t110.5 -32q94 0 203.5 48.5t195.5 123.5q42 42 54 33q11 -9 -12 -32l-3 -3l-4 -4q-52 -52 -127 -149q-31 -38 -85.5 -114t-75.5 -101q-60 -74 -100 -120.5t-97 -105.5t-106 -95t-108.5 -69.5t-124.5 -49
t-136 -15.5q-84 0 -144.5 40t-60.5 122zM905 385h2q22 0 47 10q-13 13 -43 17q-15 2 -29 -2t-14 -11q0 -14 37 -14z" />
    <glyph glyph-name="L" unicode="L" horiz-adv-x="1226" 
d="M516 717q0 83 81.5 142t219.5 59q193 0 326 -107q99 39 184 39q87 3 142 -36.5t42 -106.5q-10 -47 -56 -87t-109.5 -65.5t-123 -41t-110.5 -21.5q-118 -14 -225 0q-98 -143 -179.5 -226.5t-183.5 -152.5q30 -4 154 -37q152 -37 211 -37q90 0 165.5 33t168.5 114
q1 1 9.5 8.5t9 7t7.5 -0.5q7 -7 -18 -31q-87 -80 -132 -116t-101 -59.5t-121 -23.5q-120 0 -222 41q-25 10 -65.5 27t-66.5 27.5t-38 13.5q-129 -103 -276 -105q-126 -3 -123 48q3 47 103.5 76.5t201.5 27.5q46 0 96 -8q50 46 92.5 107t94 143t96.5 141q-109 23 -181.5 78
t-72.5 129zM897 510q95 -12 217 4q66 9 135 33.5t129 71.5t74 104q10 51 -25 82t-100 29q-34 0 -83 -15.5t-79 -34.5q26 -33 39 -69q8 -24 10.5 -42.5t1.5 -26t-4 -7.5q-1 0 -2.5 6.5t-8 25t-19.5 40.5q-16 32 -47 57q-96 -54 -238 -258zM535 723q0 -69 70.5 -120.5
t176.5 -74.5q70 89 162 165.5t164 105.5q-132 90 -301 90q-125 0 -198.5 -49t-73.5 -117zM459 90q-64 16 -117 14q-64 -1 -113 -23t-51 -50q-1 -19 18 -27t48 -6q48 0 112 27t103 65z" />
    <glyph glyph-name="M" unicode="M" horiz-adv-x="1695" 
d="M174 -61h-2q-46 0 -85.5 7t-75 22.5t-57.5 45.5t-24 72q-2 53 33.5 96t89.5 43q36 0 58.5 -19.5t19.5 -49.5q-5 -38 -45 -70q-4 -4 -12.5 -12t-12.5 -12t-8.5 -11.5t-5.5 -15.5q-6 -32 33.5 -52t114.5 -20q129 0 315 81.5t352 205.5q66 48 144 114.5t133 118t150 141.5
t145 136q-180 33 -406 33q-115 0 -214 -28t-171.5 -90.5t-91.5 -150.5q-14 -71 17.5 -134.5t121.5 -94.5q6 -2 13.5 -3.5t10 -2.5t1.5 -4q-4 -11 -39 -2q-87 26 -132.5 94.5t-37.5 152.5q15 146 153.5 229.5t372.5 74.5q76 -3 151 -12t170 -25t99 -17q25 25 39 37
q44 39 65 37q23 -4 21.5 -15.5t-23.5 -37.5q-5 -6 -14 -16.5t-14 -16.5q85 -13 149 -10q131 5 211 37q96 40 137 94q12 14 15.5 26t3.5 16.5t4 6.5q9 2 11 -11q4 -19 -5 -40q-20 -45 -78 -103q-219 -228 -342 -383q-102 -128 -160 -215.5t-59 -138.5q0 -12 7.5 -19.5
t19.5 -7.5q50 0 155 84q32 26 99 84q19 16 24 11q4 -7 -18 -29q-45 -42 -115 -98q-99 -80 -168 -82q-89 -4 -92 76q-1 51 37 117t115 165q65 84 165 192t175 171h-2q-189 -141 -412 -334q-227 -197 -391 -352q-4 -4 -10 -9.5t-9 -8t-7 -6.5t-7 -5t-6.5 -2t-7 0t-7.5 4
q-21 18 7 55q46 65 209 317.5t225 329.5h-2q-360 -350 -525 -471q-164 -123 -355.5 -206.5t-342.5 -83.5zM1163 197q178 160 385 329q172 140 318 242v2q-74 -29 -197 -33q-65 0 -158 11q-45 -64 -169.5 -272t-178.5 -279z" />
    <glyph glyph-name="N" unicode="N" horiz-adv-x="1320" 
d="M-180 98v2q0 50 35 87.5t79 37.5q37 0 58.5 -18.5t21.5 -48.5q-3 -41 -37 -68q-2 -2 -12.5 -12t-13.5 -13.5t-8 -12t-6 -17.5q-3 -31 31.5 -49.5t107.5 -18.5q124 0 279.5 64t295.5 172q296 224 445 510q13 26 39 65q44 62 82 64q18 1 23 -7t-3 -20q-34 -49 -49 -115
q-5 -22 -9.5 -55t-6.5 -54.5t-6 -72.5t-5 -67q-16 -214 -57 -310h2q104 151 229.5 311.5t223.5 264.5q238 252 399 252q60 0 92.5 -35t34.5 -80q0 -20 -6 -20q-1 0 -11 20q-20 55 -116 55q-174 0 -377 -211q-217 -226 -539 -694q-1 -2 -4.5 -6.5t-5.5 -6.5t-5 -6t-5.5 -6
t-5.5 -5t-6 -4t-6 -1.5t-6.5 0t-6.5 2.5q-22 12 -4 56q54 152 68 327q3 37 7 90.5t6 83t7.5 63t13.5 54.5h-2q-59 -114 -175 -240t-242 -221q-149 -111 -304.5 -175.5t-285.5 -67.5q-48 -1 -91 6.5t-81 24.5t-60 49.5t-22 76.5z" />
    <glyph glyph-name="O" unicode="O" horiz-adv-x="833" 
d="M279 106q0 -46 22 -77q9 -12 8 -15q-3 -7 -16 6q-30 30 -35 89q-5 70 28 163.5t105 186.5q109 135 242 217.5t223 73.5q96 -11 82 -148q-5 -62 -48 -157t-106 -173q-108 -132 -263 -219.5t-290 -83.5q-33 1 -63 8.5t-61.5 24.5t-52.5 51t-27 82q-11 101 44.5 223.5
t164.5 231.5q123 121 293 197t325 69q63 -3 105.5 -31.5t46.5 -81.5q3 -28 -6.5 -56t-24.5 -44q-7 -8 -16.5 -14t-12.5 -2q-1 3 0.5 4.5t6.5 7t10 12.5q27 41 20 90q-4 39 -41 62.5t-88 25.5q-124 5 -284 -91.5t-255 -202.5q-100 -114 -151 -237.5t-39 -207.5
q8 -52 44.5 -76t82.5 -26q211 -9 467 311q71 90 122 185.5t58 166.5q5 34 -7 54.5t-38 23.5q-77 7 -198.5 -77t-225.5 -214q-72 -91 -111.5 -180.5t-39.5 -151.5z" />
    <glyph glyph-name="P" unicode="P" horiz-adv-x="1161" 
d="M807 578q0 38 -24.5 64t-61.5 28q-39 1 -74.5 -15t-58.5 -37q-11 -10 -20 -21t-12.5 -15.5t-6.5 -3.5q-2 1 0 8.5t9.5 20t19.5 24.5q64 63 149 59q47 -2 80 -32.5t33 -84.5q0 -56 -34.5 -116t-90.5 -107t-132.5 -76t-154.5 -26q-111 3 -170.5 48t-56.5 136
q4 117 103 216.5t261 156.5t346 57q199 0 324 -76q65 50 143 82q101 43 207 43q116 0 150 -55q8 -15 0 -18q-1 0 -13 12q-40 43 -135 43q-100 0 -194 -43q-82 -37 -136 -80q42 -35 67.5 -81t23 -113t-49.5 -134q-91 -134 -307 -153q-72 -4 -102 6q-151 -162 -344 -242v-2
q177 -31 207 -31q102 0 166 46q7 5 16 12q5 4 6.5 5t3.5 -1q1 -2 1.5 -5.5t-5 -11.5t-14.5 -16q-79 -69 -197 -69q-106 0 -262 38q-117 -43 -315 -43q-73 0 -130 15t-57 53q0 40 57.5 62t153.5 18q106 -5 330 -57q79 46 149.5 118t178.5 201q68 84 113 136.5t120.5 127.5
t138.5 117q-37 29 -119.5 53.5t-171.5 24.5q-169 0 -308 -51.5t-225 -148.5t-95 -222q-5 -65 31.5 -108.5t109.5 -47.5q73 -3 145 28.5t122 80t81 103.5t31 100zM905 315q31 -8 76 -2q71 9 135.5 51t110.5 109q37 52 46 108t-3.5 97t-38.5 67q-41 -36 -95 -109t-109 -156
t-79 -113q-26 -35 -43 -52zM434 31q-11 2 -59.5 12t-75.5 15t-66 11t-65 7q-176 14 -176 -33q0 -26 51 -36.5t109 -10.5q78 0 159.5 10t122.5 25z" />
    <glyph glyph-name="Q" unicode="Q" horiz-adv-x="1024" 
d="M801 573q0 30 -27.5 52.5t-68.5 21.5q-57 -3 -103 -39q-12 -10 -21 -20.5l-12 -14t-6 -2.5q-11 7 27 45q19 19 52.5 35.5t70.5 16.5q55 0 90 -28t35 -83q0 -38 -24 -83t-69 -85q-55 -49 -131 -76.5t-153 -27.5q-71 0 -116.5 36t-49.5 103q-4 75 44 157.5t122 139.5
q82 64 191 99.5t192 35.5q70 0 130.5 -19t104 -66t45.5 -116q5 -189 -262 -374q-80 -55 -216 -119.5t-224 -91.5v-2q11 -2 54 -12.5t65.5 -15.5t56 -10t57.5 -5q185 0 361 157q22 22 28 15q4 -7 -16 -27q-104 -96 -197 -147.5t-194 -51.5q-120 0 -311 56q-151 -52 -299 -52
q-67 0 -117.5 15t-50.5 51q0 40 59.5 65t163.5 25q135 0 309 -51q230 93 410 250q105 89 163 173.5t58 174.5q0 160 -178 160q-82 0 -177 -41t-184 -115q-165 -142 -159 -258q3 -57 40.5 -89t96.5 -32q64 0 131 32.5t123 82.5q86 76 86 155zM293 41q-175 36 -227 41
q-74 5 -126.5 -4t-52.5 -35q0 -47 142 -47q68 0 142.5 14.5t121.5 30.5z" />
    <glyph glyph-name="R" unicode="R" horiz-adv-x="1349" 
d="M1577 899q-78 0 -174 -39q-71 -28 -119 -63q16 -10 31 -24.5t34 -38t28 -49.5t11.5 -60.5t-14.5 -69.5q-31 -71 -114 -109t-158 -38v-2q28 -11 48.5 -34.5t23.5 -52.5q5 -50 -41 -116q-7 -11 -21.5 -32t-21 -32t-15.5 -26.5t-12.5 -28.5t-3.5 -25q0 -14 9.5 -24t29.5 -10
q44 0 147 77q32 24 98 82q22 22 29 15q6 -5 -14 -25q-36 -36 -109 -94q-110 -88 -190 -88q-48 0 -73 22t-25 60q-2 63 71 157q4 5 13 16t12.5 15.5t11 14t10.5 15t8.5 13.5t7.5 14t5 13t3.5 13.5t0.5 12.5q0 30 -37 48q-30 -5 -45 -3q-19 2 -37 11q-38 -54 -57 -78
q-102 -123 -190.5 -186.5t-192.5 -108.5q56 -13 100 -16q90 -7 150 34q13 8 21 15.5t9.5 9t3.5 0.5q1 -2 1.5 -6t-5 -12.5t-14.5 -16.5q-75 -67 -193 -67q-59 0 -157 28q-127 -39 -309 -35q-69 0 -128 17t-59 51q0 40 57.5 62t153.5 18q31 -2 80 -11t77.5 -15.5t99.5 -24
t79 -19.5q121 59 299 297q246 322 422 438q-91 56 -256 56q-130 0 -255.5 -48t-216.5 -135.5t-116 -193.5q-21 -85 7.5 -145t99.5 -66q14 -1 23.5 -0.5t15 1.5t9 2t5 1t2.5 -2q2 -3 -4.5 -8t-21.5 -9.5t-33 -4.5q-96 3 -149.5 66.5t-33.5 166.5q21 112 121 203t245 140.5
t302 49.5q181 0 285 -53q51 39 131 70q93 39 186 39q48 0 89 -14.5t58 -39.5q5 -7 7 -14.5t2 -11.5t-2 -4q-3 0 -4 1.5l-5 7.5t-10 13q-40 43 -137 43zM1257 772q-55 -45 -133 -154q-22 -30 -65 -93t-64 -91q21 0 39 -2t41 -10q70 5 132 46t89 105q25 67 12.5 118t-51.5 81z
M426 20q-10 2 -113 26t-147 28q-176 18 -176 -33q0 -22 51.5 -33.5t108.5 -13.5q175 -3 276 26z" />
    <glyph glyph-name="S" unicode="S" horiz-adv-x="1116" 
d="M784 442q315 131 320 133q118 180 237 263q68 46 127 49q29 2 51 -11.5t19 -44.5q-4 -50 -77.5 -109.5t-178.5 -103.5q-26 -11 -55 -22q-20 -38 -54.5 -106t-50.5 -97q-214 -416 -661 -446q-218 -12 -334 69q-131 -117 -164 -190q0 -1 -1 -2q-5 -10 -8 -14t-7 -3
q-7 3 0 25q30 88 153 205q-83 75 -75 192q6 71 52 132t112 99t135 60.5t129 26.5q94 9 192 -17t139 -88zM1239 625q5 2 18.5 7t18.5 7q94 39 164 91.5t76 100.5q3 21 -11.5 30.5t-36.5 6.5q-43 -6 -94 -57q-58 -55 -135 -186zM510 143q-91 0 -156 43q-86 -58 -123 -86
q-15 -11 -38.5 -30t-28.5 -23q53 -51 137.5 -70t177.5 -12q160 13 284.5 118t237.5 312q69 119 91 150v2q-178 -73 -293 -127q12 -27 12 -64q-3 -96 -97 -154.5t-204 -58.5zM506 164q58 0 115.5 22.5t98.5 67t44 100.5q0 28 -6 49q-18 -8 -64 -29t-73 -34
q-134 -65 -250 -141q63 -35 135 -35zM752 426q-32 63 -121 87t-178 15q-57 -4 -115 -23.5t-111.5 -53.5t-89.5 -89.5t-41 -123.5q-6 -103 45 -164q28 28 64 53q42 31 119 82q-37 32 -43 78q-4 20 6 20q2 0 6 -16q11 -40 49 -70q131 79 274 144q22 10 67.5 30.5t68.5 30.5z
" />
    <glyph glyph-name="T" unicode="T" horiz-adv-x="1269" 
d="M1466 1051q-83 0 -151.5 -29t-108.5 -76q-20 -22 -30 -55q-2 -5 -3 -10t-1.5 -8t-1.5 -6t-2 -4t-3 -1q-7 0 -4 27q3 35 31 69q40 53 112 86t164 33q134 0 211 -59.5t56 -161.5q-17 -85 -119 -128t-256 -38q-44 0 -51 -2q-31 -11 -73 -44.5t-83 -82.5
q-24 -28 -96.5 -128.5t-134.5 -158.5q-104 -95 -231 -155.5t-240 -83.5v-2q214 -19 325 -19q134 2 224 23.5t176 77.5q42 28 88 69q20 17 26 13q7 -7 -16 -27q-66 -58 -92 -76q-89 -62 -191 -90.5t-243 -28.5q-185 0 -400 29q-82 -17 -219 -22q-28 -2 -63 -1t-66.5 3.5
t-51.5 10.5t-18 21q10 52 170 52q101 0 306 -27q58 10 138 46.5t140 86.5q68 57 157.5 163.5t123.5 141.5q153 167 315 215v2q-93 9 -279 43q-12 2 -78 14.5t-91 17t-73.5 10.5t-86.5 7q-143 8 -245 -41t-114 -145q-7 -67 50.5 -113t144.5 -49q94 -1 152 34t63 95
q4 36 -14 60l-5 5l-4 4t0 3q6 6 23 -6q14 -8 27.5 -26.5t13.5 -43.5q1 -65 -75 -104t-181 -39q-99 2 -162.5 53.5t-54.5 132.5q7 73 64 127t146 80t195 23q90 -2 340 -43q206 -34 346 -43q138 -6 226 27.5t100 103.5q12 69 -55.5 118.5t-186.5 49.5z" />
    <glyph glyph-name="U" unicode="U" horiz-adv-x="1132" 
d="M834 274q-104 -104 -243 -198t-229 -94q-48 0 -72 24t-18 70q8 60 67.5 141t192.5 229q108 123 160 192.5t68 121.5q11 42 -16.5 62t-71.5 20q-79 0 -175.5 -47.5t-181.5 -130.5q-163 -159 -163 -267q0 -38 18.5 -61t54.5 -23q40 0 74 21q8 5 15 11t10 8.5t6 0.5
q4 -3 -4.5 -13.5t-20.5 -18.5q-39 -27 -84 -27q-44 1 -70.5 27.5t-31.5 72.5q-5 69 38 152t119 153q86 79 197.5 119.5t198.5 40.5q76 0 121.5 -29.5t44.5 -87.5q-1 -61 -52 -135.5t-147 -185.5q-135 -150 -194 -227.5t-66 -124.5q-8 -46 29 -50q61 -8 225 111
q91 67 154.5 128.5t146.5 158.5q191 220 375 364q40 31 89 59t77 25q26 -6 21 -32t-34 -60q-47 -51 -153 -129q-139 -103 -187 -143q-5 -6 -65 -80q-59 -77 -81 -108t-64 -92t-59 -99.5t-17 -65.5q0 -34 41 -34q46 0 131 63q46 32 100 82q35 31 41 25q4 -6 -21 -31
q-42 -39 -108 -92q-106 -82 -180 -82q-45 0 -71 23.5t-26 66.5q0 68 91 196zM1176 567q23 18 66.5 49t53.5 39q76 51 136 111q20 22 31 39.5t12 27t-5 13.5q-29 10 -110 -78q-110 -114 -184 -201z" />
    <glyph glyph-name="V" unicode="V" horiz-adv-x="987" 
d="M193 6q189 10 387 100q82 35 185 102.5t169 125.5q178 153 250 282q14 24 10 52q0 20 -23 114q-9 23 -4.5 52.5t29.5 29.5q31 0 47 -26.5t12 -75.5q-7 -75 -51 -154q-92 -179 -239 -307q-159 -144 -371 -229q-218 -83 -447 -90q-68 -17 -106 -19q-94 -7 -94 14
q0 31 78 35q70 3 127 -4q146 63 348 271q230 234 252 409q10 78 -24 117t-99 39q-74 0 -156 -34t-149 -87q-66 -53 -112.5 -125t-53.5 -135q-6 -56 15.5 -93t72.5 -40q92 -7 217 127q34 37 60.5 85.5t29.5 80.5q3 33 -8 53q-9 12 -8 14q3 7 16 -6q27 -27 25 -78
q-6 -85 -86 -172q-46 -50 -116.5 -87.5t-133.5 -33.5q-67 4 -100 45.5t-27 108.5q8 63 58 136.5t130 133.5q76 57 163 91t167 34q48 0 88 -10t75.5 -33t52.5 -67t11 -105q-20 -168 -270 -401q-76 -71 -188 -138t-209 -102z" />
    <glyph glyph-name="W" unicode="W" horiz-adv-x="1230" 
d="M625 844q-73 0 -155 -34t-151 -87q-65 -52 -110 -124t-53 -136q-14 -125 88 -131q96 -5 217 125q34 37 60.5 85.5t29.5 80.5t-10 53q-7 13 -6 14q3 7 16 -6q26 -26 22 -78q-3 -80 -84 -172q-46 -50 -116 -87.5t-133 -33.5q-68 4 -101.5 45.5t-25.5 108.5q8 63 58 136.5
t130 133.5q75 57 162.5 91t165.5 34q37 0 70.5 -6t65.5 -21t53.5 -38.5t32.5 -62t5 -87.5q-8 -85 -127.5 -249.5t-239.5 -284.5v-2q54 37 234 170q130 93 254 188q49 138 90 203q73 116 145 116q29 0 44.5 -23t3.5 -58q-9 -29 -34 -61.5t-48 -54t-57.5 -51.5t-47.5 -42
q-1 -6 -9 -38.5t-10.5 -42.5t-10.5 -41t-12 -44.5t-12 -41t-14 -42.5t-14.5 -38t-16 -38t-17 -31.5t-19.5 -29.5v-2q38 37 177.5 157.5t191.5 167.5q135 122 202 221t78 162q7 51 -12 70l-6 4t-6 3t-5.5 1.5t-4.5 1t-3 1t-1.5 1.5t-0.5 2q3 6 21 6q42 0 64.5 -29t19.5 -71
q-17 -146 -326 -399q-302 -248 -455 -394q-30 -30 -57 -30q-14 0 -16 11t8 23q31 42 59.5 116.5t56.5 166.5t44 131v2q-46 -39 -265 -201q-22 -15 -103.5 -74t-144 -103t-96.5 -66q-32 -21 -43 -21q-19 0 -22 11t10 28q155 163 260 311q166 235 187 369q12 76 -23.5 116
t-101.5 40zM1079 535l46 39q46 40 72 70t38 61q10 29 2 46t-29 17t-41.5 -23.5t-31.5 -50.5q-30 -61 -56 -159z" />
    <glyph glyph-name="X" unicode="X" horiz-adv-x="999" 
d="M973 643q54 47 110.5 88t144 81t158.5 40q45 0 71.5 -25.5t17.5 -64.5q-9 -46 -57 -85.5t-95.5 -58.5t-81.5 -24q-29 -4 -31 2q0 1 0.5 2t1.5 2t2.5 1.5t4.5 1t5.5 1.5t7.5 2t9 2q60 16 110 58t60 96q5 28 -8 47t-39 20q-68 2 -161 -58.5t-175.5 -145t-167.5 -191.5
q-171 -220 -196 -336q-17 -84 49 -84q58 0 164 74q33 23 114 94q27 24 33 22q1 0 2 -1q6 -5 -22 -33q-73 -68 -117 -98q-116 -86 -205 -90q-71 -1 -100 29t-23 89q4 42 37 95v2q-245 -226 -473 -226q-82 0 -137.5 30t-61.5 97q-3 54 31 97t94 43q31 0 50 -16.5t18 -43.5
q-2 -33 -41 -63q-43 -34 -45 -64q-1 -33 26.5 -47t71.5 -14q81 0 165.5 36t161.5 98.5t138.5 126.5t120.5 140q76 97 140.5 203t76.5 156q11 50 -13 71t-67 21q-79 0 -175 -47.5t-181 -130.5q-167 -163 -164 -267q0 -38 19 -61t55 -23q39 0 73 21q6 4 12.5 10t10 8.5
t6.5 1.5q6 -3 -2.5 -13t-20.5 -19q-39 -27 -82 -27q-44 0 -72.5 27t-31.5 73q-2 73 39.5 156.5t118.5 148.5q90 78 200 119t195 41q74 0 115.5 -29.5t40.5 -87.5q-3 -55 -35 -100z" />
    <glyph glyph-name="Y" unicode="Y" horiz-adv-x="1021" 
d="M862 303q-112 -118 -260 -219.5t-240 -101.5q-48 0 -72 24t-18 70q8 60 67.5 141t192.5 229q108 123 160 192.5t68 121.5q11 42 -16.5 62t-71.5 20q-79 0 -175.5 -47.5t-181.5 -130.5q-163 -159 -163 -267q0 -38 18.5 -61t54.5 -23q45 0 74 21q6 4 13 10.5t11 9t7 0.5
q4 -3 -4.5 -13.5t-20.5 -18.5q-39 -27 -84 -27q-43 0 -71 27t-31 73q-3 69 39.5 153t117.5 152q87 78 198.5 119t197.5 41q76 0 121.5 -29.5t44.5 -87.5q-1 -61 -52 -135.5t-147 -185.5q-135 -150 -194 -227.5t-66 -124.5q-8 -46 29 -50q61 -8 225 111q160 118 301 287
q119 143 182.5 215.5t138.5 148.5q93 89 152 84q30 -3 30 -32t-24 -60q-45 -57 -135 -129q-109 -87 -166 -143q-45 -61 -266 -365q-30 -42 -68 -97t-63.5 -91t-46.5 -64q156 4 239 -63.5t64 -183.5q-3 -17 -10 -29.5t-13 -11.5q-1 3 -1 3.5t2.5 11t4.5 23.5
q12 110 -68 173.5t-231 56.5q-77 -111 -219 -279q-122 -142 -259.5 -236.5t-223.5 -94.5q-36 0 -63 19.5t-23 66.5q7 80 103.5 183t199.5 175q96 64 201 109t192 63q37 54 150 217.5t149 214.5zM1159 569q20 17 55 45.5t50 40.5q85 69 118 111q18 22 27 39.5t8.5 27.5
t-8.5 13q-29 10 -98 -78q-46 -55 -152 -199zM551 -152q-180 -40 -365 -167q-88 -61 -174 -168t-86 -177q0 -25 12.5 -38t30.5 -15q50 -6 127 41q53 32 125.5 105t136.5 159q15 20 52.5 70.5t73 98.5t67.5 91z" />
    <glyph glyph-name="Z" unicode="Z" horiz-adv-x="935" 
d="M887 664q-151 -82 -264 -82q-72 0 -122.5 26t-45.5 88q5 46 50 86t104.5 62t115.5 24q31 0 31 -8q0 -2 -1.5 -3t-4.5 -1.5t-6 -0.5t-9 -0.5t-10 -0.5q-56 -3 -101 -39t-49 -90q-3 -39 20.5 -60t57.5 -24q117 -11 265 64q65 70 112 108q57 47 96 41q12 -2 11 -15t-15 -28
q-49 -54 -151 -111q-68 -68 -236 -208q-143 -119 -217 -170v-3h25q112 0 181 -58t73 -171q62 33 139 100q20 16 25 11t-21 -31q-20 -20 -63 -51.5t-78 -50.5q-8 -217 -285 -451q-177 -149 -388.5 -251t-346.5 -101q-120 3 -129 94q-3 42 22.5 87t66.5 83.5t103.5 80.5
t117 72.5t122.5 65.5q105 55 300.5 140.5t299.5 146.5q12 40 7.5 109.5t-34.5 103.5q-29 31 -80.5 41t-93.5 4q-58 -43 -125 -88q-126 -82 -149 -43q-11 19 23 50.5t94 57.5q80 34 147 45q108 78 213 168q94 76 203 181zM676 6q-97 -56 -293.5 -144t-288.5 -138
q-199 -107 -273 -159q-156 -111 -149 -206q3 -37 32 -55.5t73 -18.5q126 0 308.5 97t326.5 245q214 220 264 379zM440 287q-44 -7 -106 -35q-43 -20 -70 -41.5t-22 -30.5q9 -19 100 41q40 26 98 66z" />
    <glyph glyph-name="bracketleft" unicode="[" horiz-adv-x="489" 
d="M993 948l-8 -14q-68 -4 -127 -12q-34 -5 -46.5 -11.5t-33.5 -33.5q-317 -419 -383 -502q-129 -163 -383 -467q-28 -34 -24.5 -45.5t39.5 -16.5l120 -12l-10 -12h-227q7 9 76.5 106.5t163.5 224t176 230.5q171 215 467 565h200z" />
    <glyph glyph-name="backslash" unicode="\" horiz-adv-x="489" 
d="M285 -176h-2q-9 0 -15 26q-16 69 -196 848q-9 43 20 80q21 23 32 -13q3 -10 9 -39q1 -6 2 -9q23 -114 74.5 -403.5t81.5 -450.5q7 -39 -6 -39z" />
    <glyph glyph-name="bracketright" unicode="]" horiz-adv-x="489" 
d="M-68 -178h-200l10 14q63 4 127 12q33 5 45.5 12t32.5 34q302 399 383 501q129 163 383 467q29 35 25.5 46t-38.5 16l-120 12l8 12h227q-274 -384 -414 -559q-120 -152 -263.5 -324t-205.5 -243z" />
    <glyph glyph-name="asciicircum" unicode="^" horiz-adv-x="628" 
d="M422 516h2q4 0 20 -22q67 -102 144 -197q12 -16 8 -18q-7 -7 -29 10q-110 83 -164 143q-46 -33 -142.5 -83.5t-154.5 -76.5q-17 -6 -20 -2q-4 6 16 19q121 79 293 211q20 16 27 16z" />
    <glyph glyph-name="underscore" unicode="_" horiz-adv-x="1024" 
d="M911 -215v-61h-1042v61h1042z" />
    <glyph glyph-name="grave" unicode="`" horiz-adv-x="628" 
d="M391 700h2q15 0 23 -20q42 -96 102 -176q10 -15 4 -19q-6 0 -6.5 -0.5t-7.5 4.5l-6 5q-106 89 -135 137q-11 17 -11 31q0 15 11.5 26.5t23.5 11.5z" />
    <glyph glyph-name="a" unicode="a" horiz-adv-x="587" 
d="M399 272q75 78 117 78q31 1 37 -6.5t-10 -26.5q-80 -92 -115 -135q-52 -64 -72 -100t-6 -47q12 -10 47 8q39 19 92 63q38 31 99 84q23 20 28 15q8 -8 -26 -37q-50 -47 -115 -98q-102 -82 -176 -82q-56 0 -59 43q-3 33 28 73l-2 2q-50 -44 -111 -79.5t-114 -38.5
q-39 -2 -64.5 17.5t-19.5 64.5q6 47 57 106l-2 2q-14 -14 -26 -24q-15 -11 -19 -7q-6 9 29 39q24 24 61 50q44 31 95 57q132 68 204 57q30 -4 41 -27t2 -51zM348 330q-59 0 -188 -129q-121 -119 -115 -162q3 -21 27 -21q29 0 79.5 29t92.5 68q51 44 95.5 99t45.5 79
q3 37 -37 37z" />
    <glyph glyph-name="b" unicode="b" horiz-adv-x="610" 
d="M555 272q-6 -46 -41.5 -98t-95.5 -96q-112 -84 -236 -88q-82 0 -82 41q1 27 33.5 44t99.5 34q114 28 158 47q51 59 66 102q21 61 -21 61q-59 0 -178 -92q-90 -70 -227 -207q-25 -25 -60 -28q-28 -1 -33 7.5t5 25.5q18 41 84 137q33 49 59 80h-2q-13 -11 -27 -23.5
t-27.5 -25t-19.5 -17.5q-16 -14 -22 -8q-5 5 10 20q129 113 131 115q155 196 250 307q95 113 246.5 265.5t228.5 207.5q110 82 174 82q37 0 53 -21.5t11 -51.5q-6 -35 -39.5 -81.5t-102.5 -111.5t-123.5 -112t-154.5 -130q-34 -28 -191 -149t-227 -184q-16 -19 -50 -66.5
t-60 -85.5l-27 -37l2 -2q80 83 192 158q39 26 90 45t91 14q34 -3 50.5 -23t12.5 -55zM182 12q48 5 99 35q55 36 94 86q-35 -17 -127 -39q-118 -29 -115 -63q3 -22 49 -19zM287 377q105 91 215 178t151 125q213 191 277 258q105 109 110 166q3 39 -34 39q-48 0 -134 -82
q-145 -141 -272 -293q-171 -203 -313 -391z" />
    <glyph glyph-name="c" unicode="c" horiz-adv-x="438" 
d="M82 -18h-2q-115 0 -109 86q6 58 60 122l-2 3q-11 -11 -35 -31q-21 -18 -27 -12q-4 5 13 22q29 27 75 61q61 43 99 62q123 65 188 55q69 -12 55 -78q-6 -28 -27 -48.5t-42 -20.5q-25 0 -28.5 18t11.5 41q37 63 6 68q-38 7 -127 -86q-43 -43 -76.5 -95.5t-37.5 -87.5
q-6 -47 47 -47q28 0 78 17t110 57q54 37 123 98q17 15 23 9q4 -6 -17 -27q-65 -60 -121 -98t-121 -63t-116 -25z" />
    <glyph glyph-name="d" unicode="d" horiz-adv-x="587" 
d="M348 330q-59 0 -188 -129q-121 -119 -115 -162q3 -21 27 -21q29 0 79.5 29t92.5 68q51 44 95.5 99t45.5 79q3 37 -37 37zM152 293q131 67 204 57q28 -4 39.5 -24t5.5 -45h2q78 113 263 329q117 137 243 254q35 35 76 35q27 0 31 -14q-87 -84 -234 -254
q-100 -114 -256 -314q-144 -188 -170 -235q-20 -36 -6 -47q12 -10 47 8q39 19 92 63q38 31 99 84q23 20 28 15q8 -8 -26 -37q-50 -47 -115 -98q-102 -82 -176 -82q-56 0 -59 43q-3 33 28 73l-2 2q-50 -44 -111 -79.5t-114 -38.5q-39 -2 -64.5 17.5t-19.5 64.5q6 47 57 106
l-2 2q-14 -14 -26 -24q-15 -11 -19 -7q-6 9 33 43q20 20 57 46q50 35 95 57z" />
    <glyph glyph-name="e" unicode="e" horiz-adv-x="436" 
d="M121 12q27 0 76.5 17.5t109.5 58.5q69 48 125 98q17 15 23 9q5 -8 -17 -27q-59 -55 -129 -102q-127 -84 -231 -84q-57 0 -84 20.5t-25 60.5q3 56 62 127l-2 3q-17 -17 -41 -37q-15 -12 -21 -6q-4 5 13 22q29 27 75 61q56 39 101 62q108 57 176 57h2q31 0 46 -16t13 -39
q-5 -61 -131 -125q-89 -44 -176 -66q-12 -24 -12 -47q0 -47 47 -47zM98 129q78 19 140 61q37 26 59.5 55.5t24.5 51.5q3 29 -25 29q-27 0 -90 -60q-24 -23 -57 -64.5t-52 -72.5z" />
    <glyph glyph-name="f" unicode="f" horiz-adv-x="350" 
d="M1034 1165h2q34 0 48.5 -21t9.5 -52q-4 -24 -20.5 -52.5t-51.5 -66.5t-64.5 -68t-88 -80.5t-92 -78.5t-103.5 -87q-23 -19 -179 -144t-227 -189q-122 -151 -241 -318q35 7 88 29q63 26 114 59q64 41 117 90q26 26 33 19q5 -5 -19 -29q-51 -51 -133 -104q-71 -44 -161 -76
q-38 -13 -52 -33q-15 -21 -28 -65q-64 -205 -172 -390q-126 -220 -238 -303q-47 -38 -88 -32q-47 7 -33 77q17 81 105 237t200 310q132 182 361 473l-2 2q-31 -23 -109 -96q-16 -14 -22 -8q-5 5 12 22q71 68 166 142q101 126 227 280q121 140 258.5 278.5t214.5 194.5
q34 25 55 38.5t54 27.5t59 14zM305 379q98 85 202.5 173.5t149.5 129.5q213 191 277 258q105 109 110 166q3 37 -32 37q-37 0 -127 -82q-106 -99 -267 -291q-32 -38 -58 -68.5t-52.5 -63t-40.5 -49.5t-41.5 -53t-35 -45.5t-42.5 -55t-43 -56.5zM-18 -51q-28 -36 -48.5 -62.5
t-41 -54t-31 -42t-30.5 -44t-28.5 -42t-36.5 -54t-42 -62.5q-160 -240 -197 -325q-17 -39 0 -49q15 -8 51 18q42 33 101.5 110.5t121.5 184.5q53 90 104.5 215t76.5 207z" />
    <glyph glyph-name="g" unicode="g" horiz-adv-x="581" 
d="M109 -127q-49 -32 -177 -109t-233 -147q-140 -94 -233 -190.5t-99 -171.5q-3 -46 31 -56q23 -7 61 3.5t68 29.5q162 97 375 369q129 164 207 272zM348 330q-59 0 -188 -129q-121 -119 -115 -162q3 -21 27 -21q29 0 79.5 29t92.5 68q51 44 95.5 99t45.5 79q3 37 -37 37z
M152 293q129 68 204 57q54 -8 47 -69h3q35 40 55 54.5t43 14.5q30 0 36.5 -7t-10.5 -26q-16 -18 -106 -135q-15 -20 -43 -57.5t-65 -88t-60 -81.5q134 80 197 129q87 67 127 104q18 18 24 11q6 -5 -20 -31q-32 -30 -121 -100q-109 -81 -225 -146q-63 -92 -148 -202.5
t-133 -163.5q-100 -111 -214 -203t-208 -141q-79 -43 -141 -43q-46 0 -74.5 19t-21.5 67q19 143 413 399q107 69 237 146t179 108q107 148 137 192l-2 2q-128 -109 -221 -114q-39 -2 -63.5 16.5t-20.5 65.5q6 47 57 106l-2 2q-14 -14 -26 -24q-15 -11 -19 -7q-6 9 33 43
q20 20 57 46q50 35 95 57z" />
    <glyph glyph-name="h" unicode="h" horiz-adv-x="649" 
d="M287 377q110 96 220.5 184.5t145.5 118.5q88 76 145 127.5t117 112t91 106.5t34 78q3 39 -34 39q-48 0 -134 -82q-166 -166 -272 -293q-171 -203 -313 -391zM537 70q-108 -82 -185 -82q-64 0 -61 53q1 21 17 49.5t27 42.5t42 51q12 15 42 49.5t44 51.5q16 20 2 28
q-13 8 -53 -12q-69 -33 -160 -104q-45 -35 -114.5 -93.5t-114.5 -93.5q-23 -18 -54 -18q-23 0 -29 5.5t3 27.5q30 58 84 137q20 31 61 82v2q-16 -14 -41.5 -37.5t-36.5 -32.5q-17 -14 -22 -6q-2 6 10 18q27 27 133 115q145 191 248 307q105 121 253.5 271.5t221.5 201.5
q37 27 59 41t54.5 27.5t60.5 13.5q37 0 53 -21.5t11 -51.5q-6 -35 -39.5 -81.5t-102.5 -111.5t-123.5 -112t-154.5 -130q-34 -28 -182 -142t-236 -191q-39 -43 -170 -236l2 -2q155 130 188 154q149 110 224 110q32 0 49 -14.5t14 -40.5q-2 -11 -7 -22.5t-16 -27t-17 -23.5
t-22.5 -28t-19.5 -24q-45 -53 -67 -90q-20 -36 -9 -45q13 -10 50 8q46 22 98 63q12 10 98 84q21 19 27 13q5 -5 -17 -27q-53 -53 -122 -106z" />
    <glyph glyph-name="i" unicode="i" horiz-adv-x="331" 
d="M451 623h2q21 0 26.5 -15.5t-12.5 -38.5q-17 -23 -48 -39t-48 -16q-8 9 -8.5 29.5t6.5 40.5q15 39 82 39zM166 293q-24 -10 -88 -62q-60 -48 -74 -61q-24 -21 -31 -16q-6 6 23 32q88 77 145 115q38 27 63.5 36t55.5 9q32 0 37 -6.5t-14 -26.5q-52 -58 -111 -131
q-46 -56 -72 -100q-17 -34 -6 -45q14 -11 49 6q41 21 90 61q58 47 95 82q24 22 29 21q2 -1 3 -2q6 -5 -22 -33q-40 -40 -117 -102q-104 -84 -178 -84q-61 0 -61 53q0 31 30 78q28 43 76 96.5t78 79.5z" />
    <glyph glyph-name="j" unicode="j" horiz-adv-x="342" 
d="M193 307q-7 0 -33 -16q-34 -21 -82 -60q-60 -48 -74 -61q-24 -21 -31 -16q-6 6 23 32q88 77 145 115q64 45 119 45q32 0 35.5 -6t-12.5 -25q-50 -58 -107 -131q-27 -35 -94.5 -123.5t-87.5 -113.5q98 50 215 135q77 55 129 104q24 24 31 17q4 -3 -2 -11.5t-21 -21.5
q-59 -55 -131 -107q-106 -77 -238 -149q-166 -239 -272 -358q-151 -166 -310 -276.5t-259 -110.5q-37 0 -65.5 19.5t-20.5 66.5q8 56 79.5 133.5t151 137.5t174.5 122q98 65 217.5 136t194.5 120q90 126 141 194q128 169 185 209zM-156 -133q-54 -37 -174.5 -110
t-220.5 -140q-141 -93 -233.5 -190t-98.5 -172q-2 -43 31 -54q24 -7 61 3t70 30q164 100 373 367q81 100 192 266zM432 623h2q25 0 31 -15.5t-12 -38.5q-17 -21 -48.5 -37t-48.5 -16q-8 8 -8.5 28.5t6.5 39.5q10 23 28.5 31t49.5 8z" />
    <glyph glyph-name="k" unicode="k" horiz-adv-x="638" 
d="M88 244v2q-16 -14 -41.5 -37.5t-36.5 -32.5q-17 -14 -22 -6q-2 6 10 18q11 11 131 115q146 192 250 307q104 119 247 264.5t228 208.5q37 27 59.5 41.5t54.5 27.5t60 13q37 0 53 -21.5t11 -51.5q-6 -35 -39.5 -81.5t-102.5 -111.5t-123.5 -112t-154.5 -130
q-34 -28 -191 -149t-227 -184q-33 -37 -164 -226l4 -2q136 122 176 152q76 59 136 84q52 21 102 18q41 -3 61 -27.5t6 -54.5q-17 -33 -96 -43q-77 -11 -88 -28q-19 -29 -16 -84q6 -70 35 -76q18 -3 53 16q41 23 78 53q58 47 98 84q20 20 27 13q1 -4 1 -6t-4 -6.5t-6.5 -7
l-6.5 -6.5l-5 -5q-59 -55 -121 -104q-101 -80 -176 -80q-72 0 -69 96q1 36 15.5 67t29.5 46q26 26 84 34q44 8 63 29q11 13 13 31t-15 28q-20 9 -63 -10q-70 -33 -156 -102q-40 -34 -122 -107t-103 -88q-29 -20 -54 -20t-31 6.5t3 26.5q18 41 84 137q15 21 36.5 49.5
t24.5 32.5zM287 377q110 96 220.5 184.5t145.5 118.5q91 79 144.5 128t116 111t93 107.5t33.5 77.5q3 39 -34 39q-48 0 -134 -82q-166 -166 -272 -293q-166 -200 -313 -391z" />
    <glyph glyph-name="l" unicode="l" horiz-adv-x="344" 
d="M96 250l-2 2q-16 -14 -44.5 -40.5t-39.5 -35.5q-17 -14 -22 -6q-2 6 10 18q23 23 149 129q123 157 242 293q122 143 244 254q38 35 74 35q30 0 30 -14q-32 -32 -138 -150t-167 -190q-273 -331 -328 -451q-18 -43 -4 -55q19 -13 64 12q31 16 84 58q59 46 90 75
q24 24 31 17q5 -5 -15 -25q-47 -47 -125 -106q-108 -82 -184 -82q-66 0 -63 55q3 65 114 207z" />
    <glyph glyph-name="m" unicode="m" horiz-adv-x="1048" 
d="M104 283q86 67 140 67q51 0 51 -45q0 -29 -43 -88q-78 -103 -96 -129l2 -2q155 130 188 154q149 110 221 110q37 0 54 -16t12 -43q-5 -30 -80 -117q-59 -69 -74 -90l2 -2q117 102 193 158q149 110 223 110q33 0 50 -15t14 -40q-2 -11 -7 -22.5t-16 -27t-17 -23.5
t-22.5 -28t-19.5 -24q-38 -45 -68 -90q-22 -34 -8 -45q13 -10 49 8q44 21 98 63q21 16 99 84q21 18 26 13t-16 -27q-50 -50 -123 -106q-108 -82 -184 -82q-65 0 -62 53q0 10 3 20t9 21.5t11.5 20.5t15 22t15 19.5t17 20.5t15.5 19q50 59 86 101q16 20 2 28q-13 8 -53 -12
q-69 -33 -160 -104q-45 -35 -114.5 -93.5t-114.5 -93.5q-23 -18 -53 -18q-25 0 -30.5 6.5t3.5 26.5q28 61 109 159q17 20 48 55.5t38 45.5q7 8 7 16.5t-9 11.5q-14 5 -52 -12q-75 -36 -159 -104q-45 -35 -115 -93.5t-115 -93.5q-23 -18 -53 -18q-24 0 -30.5 5.5t3.5 27.5
q22 43 90 137q21 29 82 106q21 27 15 35q-7 10 -31 -2q-28 -13 -80 -55q-50 -42 -88 -78q-28 -25 -35 -18q-4 6 31 38q87 80 106 95z" />
    <glyph glyph-name="n" unicode="n" horiz-adv-x="720" 
d="M424 -12q-30 0 -46.5 13.5t-15.5 39.5q0 7 2 14.5t5.5 16.5t7 15.5t10 16.5t10.5 15.5t13 17t12.5 15.5t13.5 16.5t13 15.5q37 44 86 101q16 20 2 28t-54 -12q-66 -32 -159 -104q-45 -35 -115 -93.5t-115 -93.5q-23 -18 -53 -18q-24 0 -30.5 5.5t3.5 27.5q32 61 90 137
q30 40 82 106q21 27 15 35q-7 10 -31 -2q-28 -13 -80 -55q-50 -42 -88 -78q-28 -25 -35 -18q-4 6 31 38q87 80 106 95q86 67 140 67q51 0 51 -45q0 -29 -43 -88q-78 -103 -96 -129l2 -2q155 130 188 154q149 110 223 110q33 0 50 -14.5t14 -40.5q-2 -11 -7 -22.5t-16 -27
t-17 -23.5t-22.5 -28t-19.5 -24q-45 -53 -68 -90q-21 -35 -8 -45t49 8q47 23 99 63q12 10 98 84q21 19 27 13q5 -5 -17 -27q-50 -50 -123 -106q-108 -82 -184 -82z" />
    <glyph glyph-name="o" unicode="o" horiz-adv-x="509" 
d="M43 205q-7 -6 -18.5 -16.5t-18.5 -16.5q-20 -18 -26 -12q-4 6 14 24q26 26 63 52q46 31 99 59q99 52 170 55q30 0 30 -8q0 -2 -1.5 -3t-8 -3.5t-12.5 -5.5q-60 -28 -148 -113q-46 -46 -80.5 -98t-37.5 -82q-4 -35 28 -35q34 0 88.5 36t102.5 89q4 44 37 86q27 37 65 53
q6 14 6 47q0 9 -2 17.5t-2.5 10t2.5 5.5q11 6 29 -12q29 -29 24 -72q-8 -69 -116 -166q13 -6 39 0q27 6 69 35q22 14 66 53q27 24 33 22q1 0 2 -1q7 -7 -27 -37q-40 -36 -66 -53q-43 -30 -77 -37q-37 -8 -56 4q-129 -100 -233 -100q-48 0 -74.5 23t-25.5 67q3 66 65 131z
" />
    <glyph glyph-name="p" unicode="p" horiz-adv-x="669" 
d="M207 354q-162 -148 -205 -186q-27 -24 -33 -18t29 38q76 70 139 129q16 14 82.5 75t104.5 95q47 41 79 41q30 -2 29.5 -8.5t-24.5 -34.5q-5 -5 -7 -8q-167 -195 -526 -678q-150 -204 -210.5 -290t-156.5 -236q-20 -33 -12 -41q9 -9 27 12q25 28 160 221q47 67 235 318
q144 191 248 313q98 113 180 174q107 80 176 80q68 0 62 -53q-1 -7 -3.5 -15t-8.5 -17.5t-11 -16.5t-14 -18.5t-14.5 -18t-17 -19.5t-15.5 -18q-59 -66 -72 -88q-21 -36 -6 -47q16 -13 55 6q42 20 94 61q56 44 95 80q24 24 30 17q6 -5 -16 -27q-47 -47 -125 -106
q-107 -82 -184 -82q-36 0 -52.5 17t-13.5 42q6 44 90 137q74 83 88 103q13 19 0 26q-13 6 -45 -10q-103 -51 -213 -170q-110 -122 -297 -371q-209 -282 -247 -337q-136 -197 -177 -232q-30 -26 -59 -20q-35 6 -35 43q0 56 78 172q91 137 287 403q72 99 212 281.5t220 281.5z
" />
    <glyph glyph-name="q" unicode="q" horiz-adv-x="559" 
d="M356 350q30 -6 41 -28.5t2 -49.5q31 33 43.5 45t29.5 22.5t32 10.5q63 0 33 -33q-124 -144 -134 -157q-63 -76 -272 -363q-141 -193 -202 -281t-160 -243q-21 -34 -11 -41q11 -7 31 16q49 56 150 207q100 144 231 316q100 129 244 280q70 73 139 133q28 24 33 19
q7 -7 -25 -35q-52 -45 -117 -113q-125 -128 -258 -297q-91 -119 -243 -336q-8 -11 -37.5 -52.5t-40.5 -56.5t-32 -43t-35.5 -44.5t-28.5 -28.5q-29 -29 -60 -26q-39 3 -39 43q0 37 84 174q91 144 279 401q42 58 85.5 117t86 115.5t61.5 82.5l-2 2q-45 -43 -108 -79t-115 -39
q-39 -2 -64.5 17.5t-19.5 64.5q6 47 57 106l-2 2q-14 -14 -26 -24q-15 -11 -19 -7q-6 9 33 43q20 20 57 46q50 35 95 57q129 68 204 57zM348 330q-59 0 -188 -129q-121 -119 -115 -162q3 -21 27 -21q29 0 79.5 29t92.5 68q51 44 95.5 99t45.5 79q3 37 -37 37z" />
    <glyph glyph-name="r" unicode="r" horiz-adv-x="421" 
d="M350 297v-2q0 -9 -9 -23.5t-20 -27t-32 -35.5t-33 -37q-53 -62 -70 -96q-16 -29 -2 -39q12 -9 45 8q51 27 93 61q60 47 96 80q24 24 31 17q5 -5 -25 -35q-55 -51 -117 -98q-107 -82 -182 -82q-32 0 -49 14.5t-15 38.5q2 53 99 145q20 19 53.5 46.5t55 46t24.5 24.5
q5 14 -16 16q-9 1 -37 1l-29 -1q-35 0 -47 5q-25 -29 -78 -78q-64 -60 -82 -76q-25 -22 -31 -16t23 32q65 59 80 74q41 38 71 72q-14 9 -14.5 27.5t14.5 37.5q28 35 78 35q13 0 24.5 -5.5t12.5 -14.5q-21 -15 -35 -29q-39 -42 6 -45q29 -1 43.5 -2t35 -5t29.5 -12.5t9 -21.5
z" />
    <glyph glyph-name="s" unicode="s" horiz-adv-x="468" 
d="M244 43q37 13 90 45q65 40 135 102q22 18 27 13q7 -7 -23 -33q-49 -44 -104 -82q-61 -42 -129 -70q-83 -36 -172 -36q-75 0 -102.5 35.5t-20.5 86.5q6 45 37 76.5t67 30.5q21 -1 31.5 -14t7.5 -31q-6 -31 -45 -51q-44 -25 -47 -62q-1 -24 15 -37.5t44 -13.5
q33 0 69.5 27.5t68.5 83.5q19 30 52 113t44 96v2q-25 -26 -99 -78q-55 -38 -77 -49q-17 -8 -21 -2q-3 8 10 16q52 31 86 57q46 34 121 99q8 16 33 34q33 23 59 23q43 0 13 -27q-9 -8 -23 -16q-6 -4 -24.5 -14.5t-24.5 -16.5q-3 -3 -5 -6t-3.5 -6t-2.5 -7t-2 -6t-1 -7v-7v-8
v-8q4 -38 0.5 -84t-19.5 -84q-9 -23 -28 -47.5t-37 -36.5z" />
    <glyph glyph-name="t" unicode="t" horiz-adv-x="342" 
d="M90 246q-34 -28 -82 -72q-18 -16 -24 -10t14 24q32 29 86.5 78t62.5 56q-14 0 -37.5 -1.5t-35.5 -1.5q-13 0 -18.5 2t-4.5 9q2 9 55 12q27 2 58 2q104 129 192 213q84 84 129 84q27 0 31 -12q-38 -35 -125 -133q-58 -66 -125 -152q47 2 117 2q14 0 22 -2.5t7 -9.5
q0 -2 -1.5 -4t-4 -3t-4.5 -2t-6.5 -1h-6.5h-7h-7q-78 0 -125 -2q-32 -38 -76.5 -105.5t-71.5 -120.5q-25 -48 -2 -59q18 -9 52 8q42 20 92 61q21 16 53.5 45t42.5 37q24 20 29 15t-15 -25q-52 -52 -125 -108q-107 -84 -188 -84q-33 0 -48 16t-13 41q5 64 110 203z" />
    <glyph glyph-name="u" unicode="u" horiz-adv-x="659" 
d="M166 293q-24 -10 -88 -62q-60 -48 -74 -61q-24 -21 -31 -16q-6 6 23 32q88 77 145 115q38 27 63.5 36t55.5 9q32 0 37 -6.5t-14 -26.5q-36 -39 -107 -127q-65 -85 -76 -110q-13 -26 -2 -37q13 -13 47 4q58 32 154 107q53 41 122 98t99 80q29 22 60 22q20 0 29 -2t12 -9.5
t-11 -21.5q-13 -16 -33.5 -40t-38.5 -46t-36 -45q-57 -70 -76 -104q-20 -34 -6 -45q13 -11 47 6q45 22 92 61q19 15 98 84q23 23 29 15q7 -4 -16 -27q-32 -32 -125 -106q-105 -82 -176 -82q-64 0 -64 49q0 34 33 84q23 33 96 106l-2 2q-68 -55 -164 -129q-73 -55 -125 -83.5
t-94 -28.5q-33 0 -50.5 15t-16.5 42q2 35 38 84q67 90 146 164z" />
    <glyph glyph-name="v" unicode="v" horiz-adv-x="606" 
d="M455 92q-25 0 -43 11t-23 28q-51 -31 -86 -49q-104 -56 -197 -86q-42 -14 -69 -14q-29 0 -31 24q-2 12 19 37q50 57 100 119q57 73 76 112q11 22 0 29q-11 8 -31 -2q-25 -11 -80 -55q-55 -45 -86 -76q-14 -14 -20 -8t8 20q55 55 108 97q89 71 144 71q30 0 45.5 -17.5
t11.5 -53.5q-6 -51 -72 -132q-56 -72 -116 -124q74 20 184 79q53 27 90 56q3 52 47 116q59 85 98 76q18 -4 19 -27.5t-12 -46.5q-42 -75 -131 -133q6 -29 45 -32q49 -3 98 32q29 21 51 43q24 24 31 17q5 -5 -21 -31q-20 -20 -49 -41q-55 -39 -108 -39z" />
    <glyph glyph-name="w" unicode="w" horiz-adv-x="874" 
d="M47 -14h-2q-29 0 -42.5 17.5t-10.5 45.5q6 53 76 137q53 64 120 121q-37 -15 -106 -71q-48 -39 -82 -70q-25 -22 -31 -16q-7 7 27 36q95 83 143 115q39 28 65 36.5t68 8.5q33 0 38 -6.5t-15 -26.5q-82 -82 -123 -131q-56 -69 -70 -106q-10 -25 0 -35q13 -13 52 6
q38 18 120 84q52 41 207 172q37 29 66 29q15 0 24 -1t14.5 -4.5t3.5 -10t-11 -17.5q-45 -53 -93 -115q-53 -72 -67 -104q-7 -14 -8 -28.5t8 -24.5q14 -10 57 4q51 17 119 65q34 23 59 51q0 56 49 127q59 85 99 76q17 -4 18.5 -26.5t-12.5 -47.5q-43 -69 -129 -141
q9 -20 41 -24q47 -3 102 36q30 20 51 41t27 15q7 -7 -18 -31q-17 -17 -52 -41q-59 -42 -112 -39q-18 0 -33.5 8.5t-21.5 20.5q-12 -10 -52 -39q-136 -96 -231 -96q-36 0 -54 16.5t-18 42.5q0 28 27 74q18 30 74 94l-2 2q-10 -8 -154 -127q-127 -102 -205 -102z" />
    <glyph glyph-name="x" unicode="x" horiz-adv-x="583" 
d="M195 100q-30 -45 -71.5 -78.5t-82.5 -33.5q-39 0 -60 18.5t-18 56.5q2 33 26 58.5t54 25.5q23 0 35 -15.5t4 -35.5q-4 -11 -20.5 -25t-18.5 -26q-1 -11 4.5 -18t15.5 -7q33 0 68 36.5t80 101.5q56 77 65 116t-24 45q-53 9 -154 -69q-46 -35 -94 -80q-29 -26 -35 -20
t25 34q54 51 115 97q87 69 163 69q40 0 69 -27.5t17 -82.5h2q97 110 162 110q32 0 48 -20.5t10 -50.5q-5 -23 -24 -39.5t-42 -16.5q-14 0 -23 7.5t-8 23.5q1 8 10 19.5t11 19.5q2 6 -3 11t-14 5q-25 0 -77 -49q-35 -32 -78 -90q-41 -52 -51 -92q-14 -50 20 -58
q28 -6 74 14.5t92 55.5q43 32 111 94q13 13 20 6q5 -5 -12 -22q-65 -60 -109 -94q-115 -86 -192 -86q-50 0 -76 29.5t-14 82.5z" />
    <glyph glyph-name="y" unicode="y" horiz-adv-x="645" 
d="M436 229l-2 2q-32 -28 -166 -131q-73 -55 -125 -83.5t-94 -28.5q-32 0 -49.5 15.5t-15.5 43.5q3 38 36 82q65 86 146 164q-23 -10 -90 -64q-62 -50 -72 -59q-24 -21 -31 -16q-6 6 23 32q88 77 145 115q38 27 63.5 36t55.5 9q32 0 37 -6.5t-14 -26.5q-36 -39 -107 -127
q-60 -74 -76 -110q-13 -26 -2 -37q12 -12 47 6q67 37 154 105q53 41 122 98t99 80q29 22 60 22q29 0 36 -5.5t-8 -25.5q-86 -112 -121 -159q-82 -106 -270 -363q-121 -166 -227.5 -321.5t-134.5 -202.5q-21 -35 -11 -41q11 -7 31 16q30 35 150 207q156 219 231 316
q141 178 262 299q31 31 125 118q22 22 29 15q4 -6 -23 -33q-54 -50 -119 -115q-125 -128 -258 -297q-137 -182 -243 -336q-12 -16 -37.5 -52.5t-38.5 -54.5t-32.5 -43.5t-35 -43.5t-30.5 -31q-32 -29 -60 -26q-39 3 -39 43q0 38 84 174q87 138 277 401q17 23 131.5 182
t187.5 258z" />
    <glyph glyph-name="z" unicode="z" horiz-adv-x="499" 
d="M102 74q28 7 54 4q76 -7 98 -70q50 27 121 80q76 56 125 102q22 19 28 13q7 -7 -26 -35q-38 -35 -115 -94q-55 -40 -129 -84q4 -12 4 -31q0 -51 -33.5 -119.5t-86 -135.5t-106.5 -125t-106 -103q-138 -124 -289 -214.5t-237 -90.5q-46 0 -66 20.5t-20 50.5q0 70 83 160.5
t234 206.5q164 122 400 264q32 20 85 52.5t70 43.5q4 41 -11 65.5t-44 24.5q-67 0 -147 -75q-18 -18 -25 -11q-12 12 6 35q21 27 86 62q35 18 99 48.5t102 51.5q101 61 150 115q11 11 8 18q-3 5 -13 0q-39 -22 -93 -38.5t-91 -16.5q-77 0 -100 39q-61 -68 -109 -113
q-16 -14 -22 -8q-5 5 12 22q58 54 111 117q-4 33 20 64q23 30 68 30q34 0 34 -20q-27 -13 -32 -33q-4 -15 8.5 -28t48.5 -13q84 0 166 35q33 12 41 2q7 -7 1 -22.5t-13 -24.5q-53 -72 -177 -139q-36 -19 -92 -44t-80 -38zM-588 -807h2q79 0 207 93.5t254 228.5
q95 99 193 229.5t118 202.5q-23 -15 -71 -45.5t-70 -44.5q-234 -146 -397 -269q-267 -202 -281 -340q-4 -55 45 -55z" />
    <glyph glyph-name="braceleft" unicode="{" horiz-adv-x="604" 
d="M1137 948l-13 -16q-10 0 -37 1t-45 1q-85 0 -140 -17.5t-95 -60.5q-35 -39 -73 -109.5t-82.5 -140t-102.5 -121.5q-66 -59 -184 -63q27 -27 29 -76t-34 -104q-34 -47 -97 -126t-83 -108q-79 -120 66 -160q36 -10 90 -14l-12 -12q-55 0 -101 10q-65 14 -96 46t-21.5 89.5
t68.5 134.5q9 12 42 53.5t60 78t46 67.5q22 36 20 64t-17.5 46t-39.5 23v2q47 0 108.5 18t93.5 50q39 39 69 81t66 104t46 77q39 62 81 100.5t110.5 62t162.5 23.5z" />
    <glyph glyph-name="bar" unicode="|" horiz-adv-x="294" 
d="M168 1536v-2048h-41v2048h41z" />
    <glyph glyph-name="braceright" unicode="}" horiz-adv-x="604" 
d="M518 938l10 10q66 0 101 -8q66 -14 97 -46t21.5 -90t-69.5 -136q-12 -16 -41.5 -51.5t-56 -70t-45.5 -65.5q-30 -53 -15.5 -85.5t55.5 -39.5v-2q-47 6 -108.5 -19.5t-99.5 -66.5q-29 -31 -58 -69.5t-44 -61.5t-43.5 -71.5t-35.5 -59.5q-61 -95 -139 -140.5t-215 -45.5
l-117 4l13 14h82q167 0 235 78q35 39 73 109.5t82.5 140t102.5 121.5q40 35 98 57.5t105 24.5q-21 14 -33 37.5t-8.5 57t27.5 66.5q23 30 63 80.5t69 88t48 65.5q77 117 -64 160q-40 10 -90 14z" />
    <glyph glyph-name="asciitilde" unicode="~" horiz-adv-x="628" 
d="M463 438h2q143 0 166 -125q3 -12 -4 -12q-1 0 -9 12q-17 27 -51 42.5t-108 15.5q-37 0 -119.5 -23.5t-126.5 -23.5q-71 0 -104 65q-4 13 0 17q4 2 10 -9q21 -30 65 -30q49 0 141.5 35.5t137.5 35.5z" />
    <glyph glyph-name="uni00A0" unicode="&#xa0;" horiz-adv-x="313" 
 />
    <glyph glyph-name="exclamdown" unicode="&#xa1;" horiz-adv-x="489" 
d="M309 242h-2q-24 0 -30 15t12 38q17 23 48 39t48 16q19 -27 2 -69q-15 -39 -78 -39zM-178 -362h-2q-23 0 -23 8q1 13 39 63q70 92 206.5 242t215.5 229q19 19 27 15t-13 -33q-193 -255 -327 -459q-28 -40 -56 -52.5t-67 -12.5z" />
    <glyph glyph-name="cent" unicode="&#xa2;" horiz-adv-x="423" 
d="M385 428l-207 -311q13 -3 39 4q70 19 127 69q1 1 4 3q16 13 21 8q6 -6 -13 -25q-35 -35 -89 -62.5t-107 -27.5q-65 -96 -90 -129q-12 -16 -21 -14t4 24l78 121q-42 3 -63.5 26t-18.5 60q5 81 98 174q44 41 107 72.5t115 34.5q20 31 34 51q20 31 30.5 40t19.5 5
q10 -5 -21 -51l-31 -47q78 -9 72 -70q-3 -27 -24 -50.5t-41 -23.5q-44 0 -21 58q19 48 -2 61zM154 125l202 309q-44 0 -110 -72q-109 -113 -109 -196q0 -28 17 -41z" />
    <glyph glyph-name="sterling" unicode="&#xa3;" horiz-adv-x="1044" 
d="M1292 616v-2q0 -35 -61 -81.5t-154 -69.5q-103 -23 -176 -23q-38 -43 -57 -67q-15 -17 -40 -45t-38 -43q64 0 125 -2q29 0 29 -9q0 -8 -29 -8q-72 -2 -143 -2q-90 -93 -269 -188q9 -2 43.5 -10t53.5 -11.5t51 -7.5t59 -4q117 0 191 47q4 3 8 5.5t6 4t4 2.5t3.5 1t2.5 -1
q6 -6 -8 -20q-108 -102 -252 -102q-74 0 -227 55q-109 -53 -305 -53q-65 0 -126.5 14.5t-58.5 44.5q1 38 80.5 57t185.5 17q104 0 267 -35q25 15 52 39t43.5 41.5t49.5 54t45 49.5q-82 -2 -254 -2q-41 0 -41 12q0 17 39 17q58 -1 273 -6q12 13 35.5 41t37.5 43q45 50 66 71
q-87 6 -139 47.5t-52 104.5q0 36 24.5 64.5t59.5 37.5q23 7 23 -2q0 -2 -2.5 -3t-7.5 -2.5t-9 -2.5q-32 -11 -49.5 -37t-17.5 -55q0 -55 49.5 -89t116.5 -36h28q87 88 202.5 142.5t197.5 54.5q65 0 65 -48zM1272 614v2q0 29 -45 29q-149 0 -307 -178q86 9 165 33
q85 26 136 57t51 57zM113 -2h2q76 0 154.5 11.5t121.5 33.5q-122 33 -252 37q-193 4 -198 -37q-1 -13 20.5 -22.5t53 -14t57 -6.5t41.5 -2z" />
    <glyph glyph-name="currency" unicode="&#xa4;" horiz-adv-x="655" 
d="M582 350v-2q0 -58 -37 -120t-88 -103q34 -49 55 -92q11 -26 0 -31q-9 -5 -29 18q-29 34 -61 80q-33 -25 -76 -42.5t-80 -18.5q-68 -2 -114 47q-18 -11 -54 -34t-43 -27q-35 -21 -41 -15q-10 10 19 31q6 4 96 76q-12 24 -12 63q0 58 36.5 116.5t86.5 98.5q-9 16 -27 46
t-27 46q-15 26 0 31q8 4 27 -18q55 -69 61 -78q36 25 81 41t81 16q75 0 113 -45q44 33 82 58q30 20 39 14q9 -5 -15 -29q-28 -27 -86 -74q13 -26 13 -53zM502 352v2q0 44 -22.5 71.5t-63.5 27.5q-55 -1 -108 -51t-83 -116t-30 -120q0 -49 19.5 -77.5t61.5 -27.5q56 1 110 52
t85 118t31 121z" />
    <glyph glyph-name="yen" unicode="&#xa5;" horiz-adv-x="759" 
d="M383 258q222 193 373 287q189 113 334 102q18 -2 33.5 -9t11.5 -15q-4 -2 -5 -1t-11 4t-23 3q-102 0 -320 -129q-210 -127 -352 -244q162 0 264 -2q35 0 35 -8q0 -10 -35 -10q-255 -5 -297 -5q-33 -22 -43 -30q-29 -29 -45 -47q165 -3 256 -7q37 0 37 -8t-37 -8
q-76 -2 -280 -2q-61 -67 -156 -156q-25 -25 -39 -16q-9 6 12 31q7 9 48.5 62t60.5 79q-19 0 -65.5 -1t-67.5 -1q-52 0 -52 10q0 21 54 21q83 0 149 -2q32 41 37 47q21 27 23 30q-25 0 -91 -1t-108 -1q-51 0 -51 13q0 20 53 20q55 -1 211 -6q76 114 106 186q40 88 33 138
q-2 16 -17 28.5t-44 12.5q-37 0 -77.5 -20t-66.5 -46q-12 -12 -16 -10q-7 3 6 16q34 37 84 62.5t103 25.5q80 0 104 -49t-10 -149q-37 -94 -119 -195z" />
    <glyph glyph-name="brokenbar" unicode="&#xa6;" horiz-adv-x="294" 
d="M168 1382v-716h-41v716h41zM127 358h41v-716h-41v716z" />
    <glyph glyph-name="section" unicode="&#xa7;" horiz-adv-x="729" 
d="M86 -213h-2q-71 0 -112.5 38.5t-30.5 92.5q7 34 28.5 50.5t48.5 13.5q19 -2 29 -17t6 -35q-3 -15 -22 -35t-19 -34q0 -21 20.5 -36t61.5 -15q108 0 148 88q13 28 12.5 60t-7 55t-20.5 61q-37 98 -14 162q21 67 80.5 105t130.5 38q-24 80 -6 137q23 66 84 104.5t133 36.5
q52 -2 82.5 -32t17.5 -74q-6 -22 -24.5 -37t-38.5 -12q-22 3 -28.5 22.5t1.5 32.5q6 12 14.5 23.5t13 18t3.5 13.5q-1 12 -15.5 19.5t-33.5 7.5q-48 1 -87 -25t-57 -67q-21 -59 13 -146q12 -27 19 -47.5t12.5 -44.5t4.5 -47t-8 -45q-23 -66 -85.5 -106t-131.5 -45
q23 -82 6 -134q-25 -70 -90 -107.5t-137 -37.5zM430 358q-51 3 -96 -24t-60 -66q-21 -59 13 -145q3 -8 8 -21t6 -16q109 7 148 92q11 23 11.5 50t-4.5 46.5t-16 55.5q-2 7 -5.5 16.5t-4.5 11.5z" />
    <glyph glyph-name="dieresis" unicode="&#xa8;" horiz-adv-x="628" 
d="M412 610h2q21 0 26 -13.5t-10 -33.5q-16 -21 -43.5 -35t-44.5 -14q-6 8 -6.5 25.5t6.5 35.5q12 35 70 35zM616 610h2q21 0 26 -13.5t-11 -33.5q-16 -21 -43.5 -35t-44.5 -14q-6 8 -6 26t6 35q12 35 71 35z" />
    <glyph glyph-name="copyright" unicode="&#xa9;" horiz-adv-x="1042" 
d="M547 594h2q134 0 232 -93t98 -225t-98.5 -223.5t-233.5 -91.5t-234.5 91.5t-99.5 223.5t99.5 225t234.5 93zM545 557h-2q-114 0 -195.5 -83.5t-81.5 -199.5q0 -115 81.5 -195.5t197.5 -80.5t198 80.5t82 195.5q0 116 -82.5 199.5t-197.5 83.5zM698 334h-30
q-2 39 -24 62.5t-66 23.5q-56 0 -89.5 -38t-33.5 -103q0 -67 32.5 -106.5t85.5 -39.5q77 0 103 76h24q-1 -4 -2 -13t-2.5 -18t-3.5 -18q-3 -13 -4.5 -17.5t-7 -10.5t-16.5 -11q-42 -17 -95 -17q-89 0 -142.5 42.5t-53.5 125.5q0 82 61 129.5t144 47.5q61 0 92 -17
q28 -14 28 -53v-45z" />
    <glyph glyph-name="ordfeminine" unicode="&#xaa;" horiz-adv-x="538" 
d="M600 795q44 47 72 49q21 0 25 -5.5t-7 -17.5q-103 -127 -127 -168q-15 -27 -4 -35q10 -6 33 7q22 11 63 43q42 35 72 61q17 14 21 10q2 -2 2 -4t-2 -4.5t-3.5 -4l-5 -5l-4.5 -4.5q-35 -35 -86 -76q-67 -53 -114 -53q-43 0 -46 30q-3 31 19 60h-2q-98 -88 -158 -90
q-27 -2 -44.5 10.5t-14.5 44.5q3 30 28 67t74 72q38 27 91 46.5t85 13.5q20 -3 29 -17.5t4 -29.5zM557 825h-2q-37 0 -123 -86q-74 -77 -74 -106q0 -17 17 -17q41 0 117 72q92 80 92 113q0 24 -27 24z" />
    <glyph glyph-name="guillemotleft" unicode="&#xab;" horiz-adv-x="571" 
d="M213 8h-2q-3 0 -10 15q-27 65 -86 155q-1 2 -5 8t-4.5 8t0.5 9q2 7 21 16q112 63 188 113q15 10 17 8q8 -5 -6 -23q-23 -27 -67 -66t-81 -61q37 -93 41 -163q0 -19 -6 -19zM385 8h-2q-3 0 -10 15q-19 54 -86 155q-1 2 -3.5 6t-3.5 6t-2 6t1 7q2 6 22 16q118 66 186 113
q15 10 19 8q7 -7 -6 -23q-22 -26 -67 -65t-83 -62q36 -90 41 -163q0 -19 -6 -19z" />
    <glyph glyph-name="logicalnot" unicode="&#xac;" horiz-adv-x="935" 
d="M164 326v2q0 12 39 12q153 0 608 14q15 1 25 -4.5t10 -12.5t-4 -13q-153 -171 -211 -246q-29 -37 -41 -27q-10 6 12 39q101 145 148 207q-92 3 -189 5.5t-202.5 5t-155.5 3.5q-13 0 -26 4t-13 11z" />
    <glyph glyph-name="uni00AD" unicode="&#xad;" horiz-adv-x="501" 
d="M307 240q47 0 70.5 -32t21.5 -75q0 -10 -4 -10t-8 6q-20 33 -82 33q-25 0 -71 -9.5t-82 -9.5q-19 0 -41 8t-31 19q-3 7 0 10q4 4 8 0q16 -8 33 -8q35 0 102 39q41 29 84 29z" />
    <glyph glyph-name="registered" unicode="&#xae;" horiz-adv-x="927" 
d="M750 586v-2q0 -105 -81.5 -181.5t-189.5 -76.5q-110 0 -192 77t-82 183q0 107 82 184.5t192 77.5q108 0 189.5 -78t81.5 -184zM705 586v2q0 92 -67.5 158.5t-160.5 66.5q-94 0 -160.5 -66.5t-66.5 -160.5q0 -92 67 -159t160 -67q92 0 160 67t68 159zM653 473v-20h-49
q-41 0 -84 59q-19 28 -33 55q-10 -2 -22 -2l-19 2v-35q0 -33 8.5 -44t37.5 -11v-22h-150v22q28 0 35.5 12t7.5 46v114q0 30 -8 38.5t-35 8.5v23h141q105 0 105 -70q0 -40 -47 -61q22 -40 41 -66q30 -43 71 -49zM446 694v-104q40 -2 59 11t19 46q0 53 -78 47z" />
    <glyph glyph-name="macron" unicode="&#xaf;" horiz-adv-x="628" 
d="M653 567v-2q0 -4 -8 -12q-26 -23 -41 -23q-159 3 -274 0q-14 0 -18 2t1 11q8 10 17 15t17 7t26 4q132 16 254 9q26 -3 26 -11z" />
    <glyph glyph-name="degree" unicode="&#xb0;" horiz-adv-x="317" 
d="M254 541h2q36 0 63 -27t27 -65q0 -37 -27.5 -64t-64.5 -27q-38 0 -65 27t-27 64q0 38 27 65t65 27zM254 510h-2q-23 0 -41 -18t-18 -43t18 -42.5t43 -17.5t43 17.5t18 42.5t-18 43t-43 18z" />
    <glyph glyph-name="plusminus" unicode="&#xb1;" horiz-adv-x="735" 
d="M612 565h2q30 0 31 -12q0 -13 -33 -53q-104 -124 -108 -129q129 -3 231 -6q30 0 33 -11q0 -10 -31 -10q-160 -4 -260 -4q-12 -14 -121 -133q-30 -30 -39 -23q-8 8 11 33q12 18 86 121q-68 -2 -213 -2q-24 0 -35.5 2.5t-13.5 6t0 11.5q8 25 43 25q40 -1 122.5 -4t122.5 -4
q66 93 97 135q3 4 11 15t11 14.5t10 11t12 9.5t13 4.5t18 2.5zM621 135v-2q0 -10 -31 -10q-176 -5 -508 -8q-19 0 -23.5 6t-1.5 18q11 25 47 25q181 -6 486 -19q31 0 31 -10z" />
    <glyph glyph-name="two.superior" unicode="&#xb2;" 
d="M236 379q28 7 47 4q15 -1 40 -9.5t35 -8.5q38 0 76 38q11 11 15 9t-3 -13q-34 -41 -61.5 -62.5t-60.5 -21.5q-31 0 -74 19q-23 10 -51 10q-23 0 -41 -12q-4 -2 -9.5 -6.5t-9 -7.5t-6.5 -3t-3.5 4t1.5 7q2 7 21 18q8 5 24.5 14.5t43 24t46.5 25.5q65 37 115 81.5t61 83.5
q6 22 -2 35t-28 13q-41 0 -80 -31q-31 -25 -39 -55q-4 -21 3.5 -30.5t25.5 -4.5q8 3 8 -2t-8 -9q-12 -6 -29 -6q-19 1 -25 15.5t-2 29.5q11 44 60 78q62 45 118 45q41 0 61.5 -22t12.5 -56q-8 -38 -44.5 -69t-96.5 -64q-78 -43 -141 -61z" />
    <glyph glyph-name="three.superior" unicode="&#xb3;" 
d="M385 508q25 0 43 -14q12 -10 15 -30.5t-3 -33.5q-17 -54 -80 -86q-64 -31 -122 -31q-39 0 -62.5 15.5t-19.5 46.5q3 21 22 37t41 18q19 1 27 -8t6 -21q-3 -16 -23 -26q-19 -10 -22 -23q-3 -22 33 -22q32 0 70 25t63 77q25 57 -6 60q-9 0 -31 -11q-17 -8 -19 -2
q-1 2 1 5.5t7.5 7.5t14.5 8q113 47 113 98q0 11 -9 18t-22 7q-30 0 -60 -21q-23 -14 -32 -37q-6 -15 -2 -26q3 -10 2 -11q-8 -4 -17 9q-7 11 -2 30q9 31 51 56q47 28 99 28q26 0 40.5 -10.5t16.5 -28.5q3 -39 -45 -67q-38 -23 -88 -37z" />
    <glyph glyph-name="acute" unicode="&#xb4;" horiz-adv-x="628" 
d="M649 684h2q8 0 15 -10q8 -16 3.5 -35t-18.5 -33q-21 -21 -77 -58.5t-93 -58.5q-20 -10 -24 -6q-4 7 10 21q87 83 154 162q14 18 28 18z" />
    <glyph glyph-name="mu" unicode="&#xb5;" horiz-adv-x="659" 
d="M145 43q58 32 154 107q53 41 122 98t99 80q29 22 60 22q20 0 29 -2t12 -9.5t-11 -21.5q-13 -16 -33.5 -40t-38.5 -46t-36 -45q-57 -70 -76 -104q-20 -34 -6 -45q13 -11 47 6q45 22 92 61q19 15 98 84q23 23 29 15q7 -4 -16 -27q-32 -32 -125 -106q-105 -82 -176 -82
q-64 0 -64 49q0 34 33 84q23 33 96 106l-2 2q-68 -55 -164 -129q-149 -112 -213 -112q-39 0 -49 26q-22 -33 -39 -67q-33 -64 -41 -115q-4 -20 0 -41q2 -6 -2.5 -9t-13.5 1q-27 15 -27 57q0 44 33 115q46 95 100 168q16 25 61.5 77t90.5 93q-24 -9 -92 -64q-62 -50 -72 -59
q-24 -21 -31 -16q-6 6 23 32q88 77 145 115q38 27 63.5 36t55.5 9q32 0 37 -6.5t-14 -26.5q-36 -39 -107 -127q-65 -85 -76 -110q-13 -26 -2 -37q13 -13 47 4z" />
    <glyph glyph-name="paragraph" unicode="&#xb6;" horiz-adv-x="854" 
d="M1161 819h2q38 0 61 -9t23 -22q0 -18 -22 -18q-9 0 -15 2.5t-14.5 11l-9.5 9.5q-16 13 -43 10q-98 -9 -232 -168q30 -9 50 -25q14 -12 10 -16t-17 4q-24 16 -55 25q-42 -50 -100 -127q-179 -237 -287 -349q-91 -91 -167 -137t-148 -47q-19 0 -31 4q-118 -78 -217 -78
q-73 0 -116.5 32.5t-33.5 84.5q7 34 30.5 50.5t49.5 13.5q18 -2 28.5 -16.5t6.5 -35.5q-4 -19 -22 -38t-19 -31q-2 -18 20 -29.5t58 -11.5q106 0 227 102q80 67 201 219q-66 8 -108 55.5t-39 117t59 133.5q129 142 448 133q60 -3 123 -17q172 168 299 168zM778 643
q-8 2 -26 2q-117 0 -209.5 -33t-157.5 -120q-37 -48 -52.5 -93t-9.5 -76.5t24 -52.5t44 -26q10 10 19 22q259 335 368 377zM182 -20q10 -5 19 -5q80 0 219 142q24 25 47.5 51t50.5 59.5t45.5 57.5t54.5 70.5t56 72.5q119 153 178 209q-20 4 -29 4q-16 0 -20 -2
q-10 -3 -22 -10.5t-27 -20.5t-28 -25.5t-32 -34t-33 -37.5t-36 -43t-36 -44t-39 -48.5t-38 -47.5q-211 -261 -301 -328q-8 -6 -29 -20z" />
    <glyph glyph-name="periodcentered" unicode="&#xb7;" horiz-adv-x="258" 
d="M190 332h3q25 0 31 -15t-11 -38q-19 -23 -49 -39.5t-49 -16.5q-6 10 -6.5 30.5t6.5 39.5q15 39 75 39z" />
    <glyph glyph-name="cedilla" unicode="&#xb8;" horiz-adv-x="628" 
d="M53 -201h2q35 0 62 18.5t28 45.5q2 24 -13.5 36t-47.5 11q-9 -1 -19.5 -4.5l-13.5 -4.5t-8 1q-4 6 8 18q34 37 86 82l17 -10q-38 -29 -66 -62q12 4 29 4q45 0 69.5 -19.5t20.5 -57.5q-5 -39 -48.5 -64t-103.5 -22q-82 2 -116 51q-6 8 -8.5 15t-2 11t3.5 5t5 -1t5.5 -6.5
t6.5 -7.5q35 -39 104 -39z" />
    <glyph glyph-name="one.superior" unicode="&#xb9;" 
d="M408 590q-12 -7 -41 -23.5t-41 -23.5q-13 -6 -25.5 -8.5t-20 -1.5t-8.5 4t4 4q25 9 56 26q40 20 106 62q38 22 51 22q16 3 8 -12l-10 -14q-88 -106 -192 -252q-25 -33 -39 -42t-55 -16q-21 -3 -21 4q1 8 25 41q53 69 120 146t83 84z" />
    <glyph glyph-name="ordmasculine" unicode="&#xba;" horiz-adv-x="538" 
d="M397 588h-2q-33 0 -50.5 16t-16.5 45q3 64 69 119q35 31 82 51t88 25q23 4 23 -4q0 -2 -17 -11q-52 -27 -102 -77q-32 -30 -56.5 -66t-25.5 -57q-2 -11 3.5 -18t15.5 -7q25 0 62 23.5t71 60.5q4 29 26 62q24 30 45 34q8 16 4 37q0 3 -1 7l-1.5 6t-0.5 4t0.5 2.5t2.5 1.5
q8 3 19 -8q21 -21 18 -52q-6 -45 -80 -110q9 -6 27 -2t47 24q27 19 47 39q16 15 21 10t-10 -20q-18 -18 -46 -39q-39 -28 -57 -31q-25 -6 -41 2q-97 -67 -164 -67z" />
    <glyph glyph-name="guillemotright" unicode="&#xbb;" horiz-adv-x="571" 
d="M338 340h2q3 0 10 -14q28 -67 86 -156q10 -19 8 -25t-20 -16q-129 -72 -188 -113q-14 -9 -17 -8q-8 5 6 23q19 25 64.5 64.5t83.5 62.5q-36 89 -41 161q0 21 6 21zM170 340h2q3 0 10 -14q23 -56 84 -156q11 -19 10 -25q-1 -4 -22 -16q-132 -74 -186 -113q-15 -12 -19 -8
q-7 7 6 23q22 26 67 65t83 62q-17 42 -29 90t-12 71q0 21 6 21z" />
    <glyph glyph-name="onequarter" unicode="&#xbc;" horiz-adv-x="796" 
d="M375 106q0 6 26 23q17 11 134 84q36 22 81.5 48.5t51.5 29.5q58 31 84 31q13 0 6 -11q-81 -107 -135 -182q25 0 49 -6q11 -3 17 -7t5 -7q-2 -3 -28 -3h-58q-31 -40 -69 -96q-14 -20 -62 -28q-21 -2 -22.5 3t14.5 31q20 30 66 90q-58 0 -89 -2q-34 -3 -57 -6q-14 -4 -14 8
zM680 281q-5 -3 -55 -32t-78 -46q-20 -13 -46.5 -30t-44 -28t-30.5 -18v-2q52 6 125 6zM727 614q16 0 16 -6q-1 -9 -51 -59q-295 -291 -579 -619q-7 -9 -17 -14.5t-16 -1.5q-6 6 14 31q274 327 545 614q37 39 55 48q15 7 33 7zM328 483q-6 -3 -36.5 -21.5t-45.5 -25.5
q-13 -6 -25 -8.5t-19.5 -1.5t-8.5 4t5 5q25 11 54 26q47 23 106 61q37 23 52 23q6 0 8.5 -1.5t0.5 -7.5t-11 -18q-95 -115 -193 -252q-25 -32 -39 -41t-55 -16q-21 -3 -21 4q1 8 25 41q52 68 119.5 145t83.5 84z" />
    <glyph glyph-name="onehalf" unicode="&#xbd;" horiz-adv-x="833" 
d="M489 51q28 4 46 2q15 -1 40 -9.5t35 -8.5q22 0 38.5 8.5t37.5 32.5q8 8 12 6q5 -3 0 -8q-34 -43 -61 -64.5t-62 -21.5q-27 0 -73 16q-30 10 -51 10q-27 0 -39 -10q-20 -15 -23 -16q-3 -2 -6 1t0 7q4 9 20 18q8 5 26 15t44 24t45 25q66 38 116 83t60 83q6 22 -2 34.5
t-28 12.5q-38 0 -80 -31q-32 -25 -39 -53q-4 -22 3.5 -32t24.5 -7q11 4 11 0t-9 -8q-17 -8 -32 -6q-35 5 -25 45q8 36 60 77q60 46 118 46q41 0 60 -22t10 -56q-11 -36 -45.5 -67t-91.5 -66q-75 -44 -140 -60zM729 614q16 0 16 -6q-1 -9 -51 -59q-295 -291 -579 -619
q-7 -9 -17 -14.5t-16 -1.5q-6 6 14 31q274 327 545 614q37 39 55 48q15 7 33 7zM328 483q-6 -3 -36.5 -21.5t-45.5 -25.5q-13 -6 -25 -8.5t-19.5 -1.5t-8.5 4t5 5q25 11 54 26q47 23 106 61q37 23 52 23q6 0 8.5 -1.5t0.5 -7.5t-11 -18q-95 -115 -193 -252q-25 -32 -39 -41
t-55 -16q-21 -3 -21 4q1 8 25 41q52 68 119.5 145t83.5 84z" />
    <glyph glyph-name="threequarters" unicode="&#xbe;" horiz-adv-x="860" 
d="M305 403q25 0 43 -14q26 -20 12 -63q-16 -54 -79 -86q-64 -31 -123 -31q-40 2 -63 16.5t-19 44.5q3 22 21 39t40 17q19 0 28 -8.5t7 -20.5q-3 -13 -22 -27q-22 -16 -23 -22q-3 -23 33 -23q33 2 70 26t63 77q25 56 -6 59q-11 0 -31 -10q-15 -9 -18 -2q-1 2 0.5 5t7 7
t14.5 8q53 22 83 48t30 51q0 24 -31 24q-26 0 -59 -20q-24 -15 -33 -37q-6 -14 -2 -25q3 -11 2 -12q-8 -4 -17 8q-7 14 -2 31q9 30 50 55q49 29 100 29q26 0 41.5 -11t15.5 -28q0 -42 -45 -68q-39 -24 -88 -37zM438 106q0 5 27 23q24 17 133 84q36 22 81.5 48.5t51.5 29.5
q58 31 84 31q13 0 6 -11q-81 -107 -135 -182q25 0 49 -6q11 -3 17.5 -7t5.5 -7q-2 -3 -29 -3h-57q-39 -50 -70 -96q-14 -20 -61 -28q-21 -2 -23 3t14 31q20 30 66 90q-57 0 -88 -2q-34 -3 -57 -6q-15 -4 -15 8zM745 279l-2 2q-5 -3 -55 -32t-78 -46q-114 -72 -121 -76v-2
q53 6 125 6q106 129 131 148zM791 614q16 0 16 -6q-1 -9 -51 -59q-302 -298 -580 -619q-7 -9 -17 -14.5t-16 -1.5q-6 6 15 31q283 336 544 614q20 21 28.5 29.5t25.5 17t35 8.5z" />
    <glyph glyph-name="questiondown" unicode="&#xbf;" horiz-adv-x="489" 
d="M-72 -358h-2q-58 0 -85.5 39t-10.5 96q20 66 80 116t160 97q90 44 127 67q61 36 71 66q3 5 8.5 22.5t12.5 28t18 10.5q9 -2 6 -20t-10 -31q-31 -65 -113 -113q-111 -67 -175 -126.5t-89 -124.5q-14 -35 -2 -60t45 -28q74 -6 144 51q46 34 70 84t7 80q-3 5 -7.5 9t-7 5.5
t-1.5 3.5q1 3 9 3.5t14 -1.5q27 -5 34 -31t-2 -47q-15 -56 -104 -123q-99 -73 -197 -73zM315 242h-2q-24 0 -30 15t12 38q17 23 48 39t48 16q19 -27 2 -69q-15 -39 -78 -39z" />
    <glyph glyph-name="Agrave" unicode="&#xc0;" horiz-adv-x="1413" 
d="M43 115v2q0 52 32.5 87.5t74.5 37.5q35 3 55 -14.5t20 -47.5q0 -37 -47 -69q-37 -26 -37 -52q0 -34 53 -54t148 -13q193 17 426 178q-40 36 -76.5 99t-36.5 132q2 94 69 155t175 60q75 -3 132.5 -49.5t80.5 -97.5q21 21 96 90q194 175 308 236q140 77 245 77q47 0 72 -20
q9 -8 13.5 -17t0.5 -12q-2 -1 -4 0.5t-7.5 6t-10.5 8.5q-16 12 -45 12q-37 0 -66 -23q-33 -27 -81.5 -83.5t-84.5 -108.5q-185 -256 -383 -578q49 3 115 35q67 36 129 94q14 14 21 7q5 -5 -17 -27q-62 -57 -127 -92q-63 -33 -131 -37q-41 -43 -80 -51q-27 -6 -40.5 -1.5
t-12.5 13.5t4 16q3 6 8.5 16.5t7.5 14.5q-56 6 -133 37q-76 30 -121 72q-247 -174 -452 -189q-126 -9 -209.5 30t-83.5 120zM1143 203q38 61 117.5 174t130.5 178q167 220 329 297v2q-72 -6 -194 -72q-105 -58 -275 -211q-82 -76 -129 -120q23 -66 27 -134q3 -58 -6 -114z
M901 586h-2q-75 0 -120 -56t-48 -133q-3 -58 19.5 -114t48.5 -88q75 61 149 127q69 61 146 131q-32 60 -82.5 96.5t-110.5 36.5zM813 176q32 -37 107 -72q75 -32 133 -38q9 17 34 55.5t27 42.5q20 41 12 151q-6 79 -22 119q-98 -90 -143 -131q-77 -69 -148 -127zM1624 1073
q-22 14 -28.5 32.5t3.5 37.5q9 14 23 14q12 0 27 -12q73 -63 184 -141q16 -12 12 -17q-5 -6 -24 0q-134 46 -197 86z" />
    <glyph glyph-name="Aacute" unicode="&#xc1;" horiz-adv-x="1413" 
d="M43 115v2q0 52 32.5 87.5t74.5 37.5q35 3 55 -14.5t20 -47.5q0 -37 -47 -69q-37 -26 -37 -52q0 -34 53 -54t148 -13q193 17 426 178q-40 36 -76.5 99t-36.5 132q2 94 69 155t175 60q75 -3 132.5 -49.5t80.5 -97.5q21 21 96 90q194 175 308 236q140 77 245 77q47 0 72 -20
q9 -8 13.5 -17t0.5 -12q-2 -1 -4 0.5t-7.5 6t-10.5 8.5q-16 12 -45 12q-37 0 -66 -23q-33 -27 -81.5 -83.5t-84.5 -108.5q-185 -256 -383 -578q49 3 115 35q67 36 129 94q14 14 21 7q5 -5 -17 -27q-62 -57 -127 -92q-63 -33 -131 -37q-41 -43 -80 -51q-27 -6 -40.5 -1.5
t-12.5 13.5t4 16q3 6 8.5 16.5t7.5 14.5q-56 6 -133 37q-76 30 -121 72q-247 -174 -452 -189q-126 -9 -209.5 30t-83.5 120zM1143 203q38 61 117.5 174t130.5 178q167 220 329 297v2q-72 -6 -194 -72q-105 -58 -275 -211q-82 -76 -129 -120q23 -66 27 -134q3 -58 -6 -114z
M901 586h-2q-75 0 -120 -56t-48 -133q-3 -58 19.5 -114t48.5 -88q75 61 149 127q69 61 146 131q-32 60 -82.5 96.5t-110.5 36.5zM813 176q32 -37 107 -72q75 -32 133 -38q9 17 34 55.5t27 42.5q20 41 12 151q-6 79 -22 119q-98 -90 -143 -131q-77 -69 -148 -127zM1587 983
q-1 4 4 8t13 8q98 41 245 136q13 8 27 8q16 0 20 -23q6 -36 -43 -61q-35 -17 -114 -41.5t-127 -34.5q-23 -8 -25 0z" />
    <glyph glyph-name="Acircumflex" unicode="&#xc2;" horiz-adv-x="1413" 
d="M43 115v2q0 52 32.5 87.5t74.5 37.5q35 3 55 -14.5t20 -47.5q0 -37 -47 -69q-37 -26 -37 -52q0 -34 53 -54t148 -13q193 17 426 178q-40 36 -76.5 99t-36.5 132q2 94 69 155t175 60q75 -3 132.5 -49.5t80.5 -97.5q21 21 96 90q194 175 308 236q140 77 245 77q47 0 72 -20
q9 -8 13.5 -17t0.5 -12q-2 -1 -4 0.5t-7.5 6t-10.5 8.5q-16 12 -45 12q-37 0 -66 -23q-33 -27 -81.5 -83.5t-84.5 -108.5q-185 -256 -383 -578q49 3 115 35q67 36 129 94q14 14 21 7q5 -5 -17 -27q-62 -57 -127 -92q-63 -33 -131 -37q-41 -43 -80 -51q-27 -6 -40.5 -1.5
t-12.5 13.5t4 16q3 6 8.5 16.5t7.5 14.5q-56 6 -133 37q-76 30 -121 72q-247 -174 -452 -189q-126 -9 -209.5 30t-83.5 120zM1143 203q38 61 117.5 174t130.5 178q167 220 329 297v2q-72 -6 -194 -72q-105 -58 -275 -211q-82 -76 -129 -120q23 -66 27 -134q3 -58 -6 -114z
M901 586h-2q-75 0 -120 -56t-48 -133q-3 -58 19.5 -114t48.5 -88q75 61 149 127q69 61 146 131q-32 60 -82.5 96.5t-110.5 36.5zM813 176q32 -37 107 -72q75 -32 133 -38q9 17 34 55.5t27 42.5q20 41 12 151q-6 79 -22 119q-98 -90 -143 -131q-77 -69 -148 -127zM1565 963
q-21 -5 -23 2q-2 6 14 14q172 102 224 143q12 8 20 8t12 -12q27 -59 70 -135q7 -14 6 -16q-5 -3 -24 6q-42 25 -88 74q-80 -41 -211 -84z" />
    <glyph glyph-name="Atilde" unicode="&#xc3;" horiz-adv-x="1413" 
d="M43 115v2q0 52 32.5 87.5t74.5 37.5q35 3 55 -14.5t20 -47.5q0 -37 -47 -69q-37 -26 -37 -52q0 -34 53 -54t148 -13q193 17 426 178q-40 36 -76.5 99t-36.5 132q2 94 69 155t175 60q75 -3 132.5 -49.5t80.5 -97.5q21 21 96 90q194 175 308 236q140 77 245 77q47 0 72 -20
q9 -8 13.5 -17t0.5 -12q-2 -1 -4 0.5t-7.5 6t-10.5 8.5q-16 12 -45 12q-37 0 -66 -23q-33 -27 -81.5 -83.5t-84.5 -108.5q-185 -256 -383 -578q49 3 115 35q67 36 129 94q14 14 21 7q5 -5 -17 -27q-62 -57 -127 -92q-63 -33 -131 -37q-41 -43 -80 -51q-27 -6 -40.5 -1.5
t-12.5 13.5t4 16q3 6 8.5 16.5t7.5 14.5q-56 6 -133 37q-76 30 -121 72q-247 -174 -452 -189q-126 -9 -209.5 30t-83.5 120zM1143 203q38 61 117.5 174t130.5 178q167 220 329 297v2q-72 -6 -194 -72q-105 -58 -275 -211q-82 -76 -129 -120q23 -66 27 -134q3 -58 -6 -114z
M901 586h-2q-75 0 -120 -56t-48 -133q-3 -58 19.5 -114t48.5 -88q75 61 149 127q69 61 146 131q-32 60 -82.5 96.5t-110.5 36.5zM813 176q32 -37 107 -72q75 -32 133 -38q9 17 34 55.5t27 42.5q20 41 12 151q-6 79 -22 119q-98 -90 -143 -131q-77 -69 -148 -127zM1593 987
q-8 4 2 23q47 85 123 82q26 -1 65 -23.5t60 -24.5q45 -2 82 39l3.5 3.5t3.5 4t3 3t3.5 1.5t3.5 -1q6 -2 -3 -21q-47 -86 -116 -86q-26 0 -67.5 22.5t-63.5 24.5q-27 3 -49.5 -8.5t-34.5 -28.5q-9 -14 -15 -10z" />
    <glyph glyph-name="Adieresis" unicode="&#xc4;" horiz-adv-x="1413" 
d="M43 115v2q0 52 32.5 87.5t74.5 37.5q35 3 55 -14.5t20 -47.5q0 -37 -47 -69q-37 -26 -37 -52q0 -34 53 -54t148 -13q193 17 426 178q-40 36 -76.5 99t-36.5 132q2 94 69 155t175 60q75 -3 132.5 -49.5t80.5 -97.5q21 21 96 90q194 175 308 236q140 77 245 77q47 0 72 -20
q9 -8 13.5 -17t0.5 -12q-2 -1 -4 0.5t-7.5 6t-10.5 8.5q-16 12 -45 12q-37 0 -66 -23q-33 -27 -81.5 -83.5t-84.5 -108.5q-185 -256 -383 -578q49 3 115 35q67 36 129 94q14 14 21 7q5 -5 -17 -27q-62 -57 -127 -92q-63 -33 -131 -37q-41 -43 -80 -51q-27 -6 -40.5 -1.5
t-12.5 13.5t4 16q3 6 8.5 16.5t7.5 14.5q-56 6 -133 37q-76 30 -121 72q-247 -174 -452 -189q-126 -9 -209.5 30t-83.5 120zM1143 203q38 61 117.5 174t130.5 178q167 220 329 297v2q-72 -6 -194 -72q-105 -58 -275 -211q-82 -76 -129 -120q23 -66 27 -134q3 -58 -6 -114z
M901 586h-2q-75 0 -120 -56t-48 -133q-3 -58 19.5 -114t48.5 -88q75 61 149 127q69 61 146 131q-32 60 -82.5 96.5t-110.5 36.5zM813 176q32 -37 107 -72q75 -32 133 -38q9 17 34 55.5t27 42.5q20 41 12 151q-6 79 -22 119q-98 -90 -143 -131q-77 -69 -148 -127zM1817 987
q-16 24 0 68q15 39 77 39q25 0 32 -15.5t-11 -38.5q-18 -22 -48 -37.5t-50 -15.5zM1593 987q-8 9 -8.5 28t6.5 40q15 39 76 39q25 0 31.5 -15.5t-10.5 -38.5q-17 -21 -48 -37t-47 -16z" />
    <glyph glyph-name="Aring" unicode="&#xc5;" horiz-adv-x="1413" 
d="M43 115v2q0 52 32.5 87.5t74.5 37.5q35 3 55 -14.5t20 -47.5q0 -37 -47 -69q-37 -26 -37 -52q0 -34 53 -54t148 -13q193 17 426 178q-40 36 -76.5 99t-36.5 132q2 94 69 155t175 60q75 -3 132.5 -49.5t80.5 -97.5q21 21 96 90q194 175 308 236q140 77 245 77q47 0 72 -20
q9 -8 13.5 -17t0.5 -12q-2 -1 -4 0.5t-7.5 6t-10.5 8.5q-16 12 -45 12q-37 0 -66 -23q-33 -27 -81.5 -83.5t-84.5 -108.5q-185 -256 -383 -578q49 3 115 35q67 36 129 94q14 14 21 7q5 -5 -17 -27q-62 -57 -127 -92q-63 -33 -131 -37q-41 -43 -80 -51q-27 -6 -40.5 -1.5
t-12.5 13.5t4 16q3 6 8.5 16.5t7.5 14.5q-56 6 -133 37q-76 30 -121 72q-247 -174 -452 -189q-126 -9 -209.5 30t-83.5 120zM1143 203q38 61 117.5 174t130.5 178q167 220 329 297v2q-72 -6 -194 -72q-105 -58 -275 -211q-82 -76 -129 -120q23 -66 27 -134q3 -58 -6 -114z
M901 586h-2q-75 0 -120 -56t-48 -133q-3 -58 19.5 -114t48.5 -88q75 61 149 127q69 61 146 131q-32 60 -82.5 96.5t-110.5 36.5zM813 176q32 -37 107 -72q75 -32 133 -38q9 17 34 55.5t27 42.5q20 41 12 151q-6 79 -22 119q-98 -90 -143 -131q-77 -69 -148 -127zM1780 979
q-38 0 -63 26t-25 64q0 36 25.5 64t62.5 28t63.5 -28t26.5 -64q0 -38 -26.5 -64t-63.5 -26zM1780 1020q22 0 36.5 14.5t14.5 36.5q0 19 -15 34t-36 15q-22 0 -35.5 -14.5t-13.5 -34.5q0 -22 13 -36.5t36 -14.5z" />
    <glyph glyph-name="AE" unicode="&#xc6;" horiz-adv-x="1869" 
d="M1812 442v2q0 11 -25 18t-52 9q-56 4 -97 -2q7 -21 35 -35t58 -16q32 -2 56.5 4.5t24.5 19.5zM1184 215q40 105 149 174q98 64 230 86q-11 20 -13.5 52t12 78t48.5 85q46 53 123.5 91t144.5 50v3q-16 2 -51 2q-135 0 -271 -68q-164 -82 -303 -201q-57 -47 -125 -112
q56 -115 56 -240zM901 584h-2q-75 0 -120 -56t-48 -133q-3 -58 19.5 -114t48.5 -88q122 98 297 270q-33 56 -83.5 88.5t-111.5 32.5zM1165 111q-3 26 4 63q-6 141 -59 264q-151 -143 -297 -264q26 -28 84 -53t127 -31q33 -3 74 3.5t67 17.5zM1726 47q-142 -99 -292 -104
q-106 -5 -180 31.5t-87 115.5q-56 -25 -143 -22q-80 4 -142.5 29.5t-95.5 56.5q-240 -174 -450 -189q-126 -9 -209.5 30t-83.5 120q0 53 32.5 89t74.5 38q34 3 54.5 -15.5t20.5 -48.5q-2 -36 -47 -67q-39 -27 -37 -52q0 -34 53 -54t148 -13q195 17 424 178q-37 30 -74 95.5
t-37 135.5q2 94 69 155t175 60q65 -3 122.5 -41t92.5 -96q56 54 121 109q66 57 151.5 113t157.5 90q136 63 285 63q46 0 88 -14q71 11 121 8q102 -4 161.5 -40t59.5 -87q0 -50 -45.5 -86t-114 -50t-143.5 -7q-41 4 -72 18.5t-43 30.5q-9 12 -4 14q2 1 6 -3t8 -7
q37 -32 101 -37q102 -8 181 25.5t79 97.5q0 47 -41.5 80.5t-126.5 33.5q-83 0 -168 -43q-80 -37 -152 -110q-88 -94 -88 -193q43 8 101 4q114 -4 114 -49q0 -20 -33.5 -29.5t-78.5 -9.5q-49 0 -97 16t-69 42q-239 -76 -285 -291q-19 -94 24 -144.5t140 -50.5q126 0 266 93
q74 51 146 118q21 18 26 13q7 -7 -18 -29q-86 -80 -146 -121z" />
    <glyph glyph-name="Ccedilla" unicode="&#xc7;" horiz-adv-x="798" 
d="M51 137q-4 126 94.5 260.5t241.5 237.5q-51 65 -51 129q0 84 61.5 137t147.5 53q74 0 142.5 -34.5t109.5 -94.5q59 16 108 19q51 3 95.5 -3.5t80.5 -23.5t53 -49.5t9 -77.5q-11 -60 -77.5 -104.5t-149.5 -64t-166 -19.5q-90 0 -173 21t-137 61q-118 -105 -192 -232.5
t-74 -226.5q0 -85 47.5 -125.5t128.5 -40.5q82 0 152 29t145 78q67 47 127 102q38 36 45 29q5 -5 -16 -27q-92 -84 -148 -123q-156 -109 -309 -117q-73 0 -115 9q-36 -30 -45 -45q12 4 23 4q46 0 73 -21t21 -55q-5 -37 -48 -63t-101 -23q-83 2 -117 51q-18 23 -6 31
q3 1 4.5 -0.5t4.5 -6t7 -8.5q46 -32 100 -32q31 2 55.5 16t28.5 39q3 22 -10.5 35t-42.5 12q-8 -1 -17 -4t-12 -3.5t-8 1.5q-7 5 6 18q30 30 62 58q-149 41 -158 194zM754 522q114 0 205 49t108 123q15 68 -27 102.5t-127 32.5q-58 0 -108 -20q28 -51 35 -113q3 -51 -6 -51
q-1 0 -9 41q-12 62 -49 113q-80 -30 -165.5 -84.5t-153.5 -116.5q103 -76 297 -76zM528 928q-69 0 -117.5 -46t-48.5 -120q0 -62 41 -115q175 117 361 170q-47 53 -109.5 82t-126.5 29z" />
    <glyph glyph-name="Egrave" unicode="&#xc8;" horiz-adv-x="798" 
d="M461 539q0 57 45 120q-88 67 -88 152q0 61 42 98.5t109 40.5q63 3 133 -26.5t117 -85.5q83 15 152 12q100 -4 155.5 -40.5t55.5 -88.5q0 -68 -92 -117t-216 -49q-172 0 -286 57q-21 -29 -31 -61q-12 -37 -6 -66q57 10 100 7q49 -2 81.5 -15t29.5 -37q-3 -20 -36 -29.5
t-77 -9.5q-50 0 -97.5 15.5t-66.5 40.5q-94 -34 -186 -123q-52 -48 -85 -107.5t-36 -117.5q-3 -70 44 -110t124 -40q139 0 301 107q74 51 146 118q21 18 26 13q7 -7 -18 -29q-86 -80 -146 -121q-156 -109 -309 -117q-135 -6 -214 41t-79 142q-2 114 114.5 214t307.5 144
q-14 22 -14 68zM870 575q106 0 184 40t79 106q3 42 -34.5 75.5t-121.5 37.5q-66 0 -139 -25q20 -42 26 -90q6 -53 -4 -53q-2 0 -2.5 3t-2.5 14t-5 24q-10 41 -45 90q-75 -37 -150 -105q-31 -26 -57 -63q108 -54 272 -54zM780 829q-39 48 -99 77t-116 26q-55 -3 -92 -34.5
t-37 -84.5q0 -68 82 -137q16 23 43 45q83 72 219 108zM555 471q6 -23 34 -36t62 -15q31 -2 52.5 5t21.5 21q0 12 -22.5 19.5t-51.5 9.5q-43 4 -96 -4zM889 1073q-22 14 -28.5 32.5t3.5 37.5q9 14 23 14q11 0 26 -12q69 -60 185 -141q16 -12 12 -17q-5 -7 -25 0
q-41 14 -105 41.5t-91 44.5z" />
    <glyph glyph-name="Eacute" unicode="&#xc9;" horiz-adv-x="798" 
d="M461 539q0 57 45 120q-88 67 -88 152q0 61 42 98.5t109 40.5q63 3 133 -26.5t117 -85.5q83 15 152 12q100 -4 155.5 -40.5t55.5 -88.5q0 -68 -92 -117t-216 -49q-172 0 -286 57q-21 -29 -31 -61q-12 -37 -6 -66q57 10 100 7q49 -2 81.5 -15t29.5 -37q-3 -20 -36 -29.5
t-77 -9.5q-50 0 -97.5 15.5t-66.5 40.5q-94 -34 -186 -123q-52 -48 -85 -107.5t-36 -117.5q-3 -70 44 -110t124 -40q139 0 301 107q74 51 146 118q21 18 26 13q7 -7 -18 -29q-86 -80 -146 -121q-156 -109 -309 -117q-135 -6 -214 41t-79 142q-2 114 114.5 214t307.5 144
q-14 22 -14 68zM870 575q106 0 184 40t79 106q3 42 -34.5 75.5t-121.5 37.5q-66 0 -139 -25q20 -42 26 -90q6 -53 -4 -53q-2 0 -2.5 3t-2.5 14t-5 24q-10 41 -45 90q-75 -37 -150 -105q-31 -26 -57 -63q108 -54 272 -54zM780 829q-39 48 -99 77t-116 26q-55 -3 -92 -34.5
t-37 -84.5q0 -68 82 -137q16 23 43 45q83 72 219 108zM555 471q6 -23 34 -36t62 -15q31 -2 52.5 5t21.5 21q0 12 -22.5 19.5t-51.5 9.5q-43 4 -96 -4zM909 983q-1 4 4 8t13 8q98 41 245 136q13 8 27 8q17 0 21 -23q6 -36 -43 -61q-35 -17 -114.5 -41t-127.5 -35
q-23 -8 -25 0z" />
    <glyph glyph-name="Ecircumflex" unicode="&#xca;" horiz-adv-x="798" 
d="M461 539q0 57 45 120q-88 67 -88 152q0 61 42 98.5t109 40.5q63 3 133 -26.5t117 -85.5q83 15 152 12q100 -4 155.5 -40.5t55.5 -88.5q0 -68 -92 -117t-216 -49q-172 0 -286 57q-21 -29 -31 -61q-12 -37 -6 -66q57 10 100 7q49 -2 81.5 -15t29.5 -37q-3 -20 -36 -29.5
t-77 -9.5q-50 0 -97.5 15.5t-66.5 40.5q-94 -34 -186 -123q-52 -48 -85 -107.5t-36 -117.5q-3 -70 44 -110t124 -40q139 0 301 107q74 51 146 118q21 18 26 13q7 -7 -18 -29q-86 -80 -146 -121q-156 -109 -309 -117q-135 -6 -214 41t-79 142q-2 114 114.5 214t307.5 144
q-14 22 -14 68zM870 575q106 0 184 40t79 106q3 42 -34.5 75.5t-121.5 37.5q-66 0 -139 -25q20 -42 26 -90q6 -53 -4 -53q-2 0 -2.5 3t-2.5 14t-5 24q-10 41 -45 90q-75 -37 -150 -105q-31 -26 -57 -63q108 -54 272 -54zM780 829q-39 48 -99 77t-116 26q-55 -3 -92 -34.5
t-37 -84.5q0 -68 82 -137q16 23 43 45q83 72 219 108zM555 471q6 -23 34 -36t62 -15q31 -2 52.5 5t21.5 21q0 12 -22.5 19.5t-51.5 9.5q-43 4 -96 -4zM893 963q-21 -5 -23 2q-2 6 15 14q168 99 223 143q12 8 20 8q9 0 13 -12q30 -68 69 -135q8 -15 7 -16q-6 -4 -25 6
q-42 25 -88 74q-80 -41 -211 -84z" />
    <glyph glyph-name="Edieresis" unicode="&#xcb;" horiz-adv-x="798" 
d="M461 539q0 57 45 120q-88 67 -88 152q0 61 42 98.5t109 40.5q63 3 133 -26.5t117 -85.5q83 15 152 12q100 -4 155.5 -40.5t55.5 -88.5q0 -68 -92 -117t-216 -49q-172 0 -286 57q-21 -29 -31 -61q-12 -37 -6 -66q57 10 100 7q49 -2 81.5 -15t29.5 -37q-3 -20 -36 -29.5
t-77 -9.5q-50 0 -97.5 15.5t-66.5 40.5q-94 -34 -186 -123q-52 -48 -85 -107.5t-36 -117.5q-3 -70 44 -110t124 -40q139 0 301 107q74 51 146 118q21 18 26 13q7 -7 -18 -29q-86 -80 -146 -121q-156 -109 -309 -117q-135 -6 -214 41t-79 142q-2 114 114.5 214t307.5 144
q-14 22 -14 68zM870 575q106 0 184 40t79 106q3 42 -34.5 75.5t-121.5 37.5q-66 0 -139 -25q20 -42 26 -90q6 -53 -4 -53q-2 0 -2.5 3t-2.5 14t-5 24q-10 41 -45 90q-75 -37 -150 -105q-31 -26 -57 -63q108 -54 272 -54zM780 829q-39 48 -99 77t-116 26q-55 -3 -92 -34.5
t-37 -84.5q0 -68 82 -137q16 23 43 45q83 72 219 108zM555 471q6 -23 34 -36t62 -15q31 -2 52.5 5t21.5 21q0 12 -22.5 19.5t-51.5 9.5q-43 4 -96 -4zM1133 987q-16 24 0 68q15 39 77 39q25 0 32 -15.5t-11 -38.5q-18 -22 -48 -37.5t-50 -15.5zM909 987q-8 9 -8.5 28t6.5 40
q15 39 76 39q25 0 31.5 -15.5t-10.5 -38.5q-17 -21 -48 -37t-47 -16z" />
    <glyph glyph-name="Igrave" unicode="&#xcc;" horiz-adv-x="901" 
d="M1255 846q-23 -6 -81.5 -19.5t-88.5 -21.5q-196 -51 -301 -113q-51 -30 -92 -77t-41 -89q0 -25 16 -39t40 -14q28 0 55 19q3 2 8.5 6t6.5 4.5t5 -0.5q6 -6 -10 -21q-28 -28 -74 -28q-44 0 -70 24.5t-26 61.5q0 108 178 190q99 50 301 96q20 5 68.5 15t75 17t45.5 15
q33 14 41 13q11 -3 9 -15.5t-13 -17.5q-85 -37 -191 -188q-10 -14 -80 -120t-104 -151q-172 -221 -348 -325.5t-371 -104.5q-48 0 -90.5 9t-79.5 27t-58.5 50t-21.5 74q0 46 31.5 84.5t83.5 38.5q33 0 52.5 -20t16.5 -52q-3 -34 -38 -61l-12 -11q-12 -11 -14.5 -15
t-7.5 -14.5t-5 -21.5q0 -29 38 -48t99 -19q81 0 160 29.5t154.5 86.5t145 128t146.5 167q22 27 100 125.5t109 136.5q52 60 116.5 113.5t116.5 75.5zM1122 1073q-22 13 -28.5 32t4.5 38q9 14 22 14q12 0 27 -12q73 -63 184 -141q16 -12 12 -17q-5 -6 -24 0q-134 46 -197 86z
" />
    <glyph glyph-name="Iacute" unicode="&#xcd;" horiz-adv-x="901" 
d="M1255 846q-23 -6 -81.5 -19.5t-88.5 -21.5q-196 -51 -301 -113q-51 -30 -92 -77t-41 -89q0 -25 16 -39t40 -14q28 0 55 19q3 2 8.5 6t6.5 4.5t5 -0.5q6 -6 -10 -21q-28 -28 -74 -28q-44 0 -70 24.5t-26 61.5q0 108 178 190q99 50 301 96q20 5 68.5 15t75 17t45.5 15
q33 14 41 13q11 -3 9 -15.5t-13 -17.5q-85 -37 -191 -188q-10 -14 -80 -120t-104 -151q-172 -221 -348 -325.5t-371 -104.5q-48 0 -90.5 9t-79.5 27t-58.5 50t-21.5 74q0 46 31.5 84.5t83.5 38.5q33 0 52.5 -20t16.5 -52q-3 -34 -38 -61l-12 -11q-12 -11 -14.5 -15
t-7.5 -14.5t-5 -21.5q0 -29 38 -48t99 -19q81 0 160 29.5t154.5 86.5t145 128t146.5 167q22 27 100 125.5t109 136.5q52 60 116.5 113.5t116.5 75.5zM1096 983q-2 7 16 16q101 42 246 136q13 8 26 8q17 0 21 -23q6 -36 -43 -61q-35 -17 -114.5 -41t-127.5 -35q-22 -7 -24 0z
" />
    <glyph glyph-name="Icircumflex" unicode="&#xce;" horiz-adv-x="901" 
d="M1255 846q-23 -6 -81.5 -19.5t-88.5 -21.5q-196 -51 -301 -113q-51 -30 -92 -77t-41 -89q0 -25 16 -39t40 -14q28 0 55 19q3 2 8.5 6t6.5 4.5t5 -0.5q6 -6 -10 -21q-28 -28 -74 -28q-44 0 -70 24.5t-26 61.5q0 108 178 190q99 50 301 96q20 5 68.5 15t75 17t45.5 15
q33 14 41 13q11 -3 9 -15.5t-13 -17.5q-85 -37 -191 -188q-10 -14 -80 -120t-104 -151q-172 -221 -348 -325.5t-371 -104.5q-48 0 -90.5 9t-79.5 27t-58.5 50t-21.5 74q0 46 31.5 84.5t83.5 38.5q33 0 52.5 -20t16.5 -52q-3 -34 -38 -61l-12 -11q-12 -11 -14.5 -15
t-7.5 -14.5t-5 -21.5q0 -29 38 -48t99 -19q81 0 160 29.5t154.5 86.5t145 128t146.5 167q22 27 100 125.5t109 136.5q52 60 116.5 113.5t116.5 75.5zM1106 963q-21 -5 -23 2q-2 6 15 14q168 99 223 143q12 8 20 8q9 0 13 -12q30 -68 69 -135q1 -3 3.5 -6.5t3.5 -5.5t0 -4
q-6 -4 -25 6q-42 25 -88 74q-80 -41 -211 -84z" />
    <glyph glyph-name="Idieresis" unicode="&#xcf;" horiz-adv-x="901" 
d="M1255 846q-23 -6 -81.5 -19.5t-88.5 -21.5q-196 -51 -301 -113q-51 -30 -92 -77t-41 -89q0 -25 16 -39t40 -14q28 0 55 19q3 2 8.5 6t6.5 4.5t5 -0.5q6 -6 -10 -21q-28 -28 -74 -28q-44 0 -70 24.5t-26 61.5q0 108 178 190q99 50 301 96q20 5 68.5 15t75 17t45.5 15
q33 14 41 13q11 -3 9 -15.5t-13 -17.5q-85 -37 -191 -188q-10 -14 -80 -120t-104 -151q-172 -221 -348 -325.5t-371 -104.5q-48 0 -90.5 9t-79.5 27t-58.5 50t-21.5 74q0 46 31.5 84.5t83.5 38.5q33 0 52.5 -20t16.5 -52q-3 -34 -38 -61l-12 -11q-12 -11 -14.5 -15
t-7.5 -14.5t-5 -21.5q0 -29 38 -48t99 -19q81 0 160 29.5t154.5 86.5t145 128t146.5 167q22 27 100 125.5t109 136.5q52 60 116.5 113.5t116.5 75.5zM1362 987q-16 24 0 68q15 39 78 39q25 0 31.5 -15.5t-11.5 -38.5q-18 -22 -48 -37.5t-50 -15.5zM1139 987q-8 9 -8.5 28
t6.5 40q15 39 75 39q25 0 31.5 -15.5t-10.5 -38.5q-17 -21 -47.5 -37t-46.5 -16z" />
    <glyph glyph-name="Eth" unicode="&#xd0;" horiz-adv-x="1378" 
d="M987 354q82 0 133 -2q21 0 21 -8q0 -6 -21 -6q-61 -2 -149 -2q-109 -130 -215.5 -200.5t-243.5 -112.5q92 -19 172 -19q324 0 520 270q73 102 83.5 217t-48.5 193q-41 -39 -131 -165.5t-121 -164.5zM834 330h-72q-33 0 -33 12q0 14 31 14h94q4 5 12.5 14.5t12.5 14.5
q76 91 171.5 182.5t166.5 139.5q-65 67 -184 103t-240 36q-159 0 -302.5 -59.5t-231 -159.5t-89.5 -213q0 -70 39.5 -115t114.5 -49q157 -11 288 106q54 49 85.5 103.5t31.5 97.5t-24.5 68.5t-65.5 27.5q-38 1 -74 -14.5t-59 -38.5q-7 -7 -13 -14.5t-9.5 -12t-6 -8.5
t-4.5 -5.5t-4 -0.5q-1 2 -0.5 7.5t7.5 16.5t18 23q23 27 63.5 48t87.5 18q48 -2 81.5 -33t33.5 -84q0 -57 -33 -115t-90 -106q-138 -114 -315 -105q-115 6 -177 57t-61 144q1 89 63.5 171t162 139t227 90.5t256.5 33.5q134 0 256 -34.5t198 -102.5q80 51 133 72
q116 41 201 41q71 0 115 -31q10 -7 15.5 -17.5t2.5 -13.5q-2 -1 -4 1l-8 8t-16 12q-35 22 -105 22q-92 0 -190 -43q-84 -38 -123 -73q60 -66 81.5 -150.5t5 -168t-64.5 -155.5q-81 -120 -242.5 -183.5t-330.5 -63.5q-189 0 -281 10q-114 -12 -203 -12q-226 0 -274 8
q-50 8 -49 28q5 50 297 39q112 -3 274 -30q22 6 44 16t39.5 19t39 25.5t35.5 27t35.5 32.5t32 32.5t33.5 37t30.5 36t32 39.5t31.5 38z" />
    <glyph glyph-name="Ntilde" unicode="&#xd1;" horiz-adv-x="1320" 
d="M-180 98v2q0 50 35 87.5t79 37.5q37 0 58.5 -18.5t21.5 -48.5q-3 -41 -37 -68q-2 -2 -12.5 -12t-13.5 -13.5t-8 -12t-6 -17.5q-3 -31 31.5 -49.5t107.5 -18.5q124 0 279.5 64t295.5 172q296 224 445 510q13 26 39 65q44 62 82 64q18 1 23 -7t-3 -20q-34 -49 -49 -115
q-5 -22 -9.5 -55t-6.5 -54.5t-6 -72.5t-5 -67q-16 -214 -57 -310h2q104 151 229.5 311.5t223.5 264.5q238 252 399 252q60 0 92.5 -35t34.5 -80q0 -20 -6 -20q-1 0 -11 20q-20 55 -116 55q-174 0 -377 -211q-217 -226 -539 -694q-1 -2 -4.5 -6.5t-5.5 -6.5t-5 -6t-5.5 -6
t-5.5 -5t-6 -4t-6 -1.5t-6.5 0t-6.5 2.5q-22 12 -4 56q54 152 68 327q3 37 7 90.5t6 83t7.5 63t13.5 54.5h-2q-59 -114 -175 -240t-242 -221q-149 -111 -304.5 -175.5t-285.5 -67.5q-48 -1 -91 6.5t-81 24.5t-60 49.5t-22 76.5zM1374 987q-8 4 2 23q47 85 123 82
q26 -1 65 -23.5t60 -24.5q45 -2 82 39q1 1 5.5 6.5t5 5t5.5 -0.5q7 -2 -2 -21q-47 -86 -116 -86q-26 0 -67.5 22.5t-63.5 24.5q-27 3 -49.5 -8.5t-34.5 -28.5q-9 -14 -15 -10z" />
    <glyph glyph-name="Ograve" unicode="&#xd2;" horiz-adv-x="833" 
d="M279 106q0 -46 22 -77q9 -12 8 -15q-3 -7 -16 6q-30 30 -35 89q-5 70 28 163.5t105 186.5q109 135 242 217.5t223 73.5q96 -11 82 -148q-5 -62 -48 -157t-106 -173q-108 -132 -263 -219.5t-290 -83.5q-33 1 -63 8.5t-61.5 24.5t-52.5 51t-27 82q-11 101 44.5 223.5
t164.5 231.5q123 121 293 197t325 69q63 -3 105.5 -31.5t46.5 -81.5q3 -28 -6.5 -56t-24.5 -44q-7 -8 -16.5 -14t-12.5 -2q-1 3 0.5 4.5t6.5 7t10 12.5q27 41 20 90q-4 39 -41 62.5t-88 25.5q-124 5 -284 -91.5t-255 -202.5q-100 -114 -151 -237.5t-39 -207.5
q8 -52 44.5 -76t82.5 -26q211 -9 467 311q71 90 122 185.5t58 166.5q5 34 -7 54.5t-38 23.5q-77 7 -198.5 -77t-225.5 -214q-72 -91 -111.5 -180.5t-39.5 -151.5zM778 1073q-22 13 -28.5 32t4.5 38q9 14 22 14q12 0 27 -12q73 -63 184 -141q16 -12 12 -17q-5 -6 -24 0
q-134 46 -197 86z" />
    <glyph glyph-name="Oacute" unicode="&#xd3;" horiz-adv-x="833" 
d="M279 106q0 -46 22 -77q9 -12 8 -15q-3 -7 -16 6q-30 30 -35 89q-5 70 28 163.5t105 186.5q109 135 242 217.5t223 73.5q96 -11 82 -148q-5 -62 -48 -157t-106 -173q-108 -132 -263 -219.5t-290 -83.5q-33 1 -63 8.5t-61.5 24.5t-52.5 51t-27 82q-11 101 44.5 223.5
t164.5 231.5q123 121 293 197t325 69q63 -3 105.5 -31.5t46.5 -81.5q3 -28 -6.5 -56t-24.5 -44q-7 -8 -16.5 -14t-12.5 -2q-1 3 0.5 4.5t6.5 7t10 12.5q27 41 20 90q-4 39 -41 62.5t-88 25.5q-124 5 -284 -91.5t-255 -202.5q-100 -114 -151 -237.5t-39 -207.5
q8 -52 44.5 -76t82.5 -26q211 -9 467 311q71 90 122 185.5t58 166.5q5 34 -7 54.5t-38 23.5q-77 7 -198.5 -77t-225.5 -214q-72 -91 -111.5 -180.5t-39.5 -151.5zM735 983q-1 4 4 8t13 8q98 41 245 136q13 8 27 8q16 0 20 -23q6 -36 -43 -61q-35 -17 -114 -41.5t-127 -34.5
q-23 -8 -25 0z" />
    <glyph glyph-name="Ocircumflex" unicode="&#xd4;" horiz-adv-x="833" 
d="M279 106q0 -46 22 -77q9 -12 8 -15q-3 -7 -16 6q-30 30 -35 89q-5 70 28 163.5t105 186.5q109 135 242 217.5t223 73.5q96 -11 82 -148q-5 -62 -48 -157t-106 -173q-108 -132 -263 -219.5t-290 -83.5q-33 1 -63 8.5t-61.5 24.5t-52.5 51t-27 82q-11 101 44.5 223.5
t164.5 231.5q123 121 293 197t325 69q63 -3 105.5 -31.5t46.5 -81.5q3 -28 -6.5 -56t-24.5 -44q-7 -8 -16.5 -14t-12.5 -2q-1 3 0.5 4.5t6.5 7t10 12.5q27 41 20 90q-4 39 -41 62.5t-88 25.5q-124 5 -284 -91.5t-255 -202.5q-100 -114 -151 -237.5t-39 -207.5
q8 -52 44.5 -76t82.5 -26q211 -9 467 311q71 90 122 185.5t58 166.5q5 34 -7 54.5t-38 23.5q-77 7 -198.5 -77t-225.5 -214q-72 -91 -111.5 -180.5t-39.5 -151.5zM702 963q-20 -5 -22 2q-2 6 14 14q172 102 224 143q12 8 20 8t12 -12q27 -59 70 -135q7 -14 6 -16
q-6 -4 -25 6q-42 25 -88 74q-80 -41 -211 -84z" />
    <glyph glyph-name="Otilde" unicode="&#xd5;" horiz-adv-x="833" 
d="M279 106q0 -46 22 -77q9 -12 8 -15q-3 -7 -16 6q-30 30 -35 89q-5 70 28 163.5t105 186.5q109 135 242 217.5t223 73.5q96 -11 82 -148q-5 -62 -48 -157t-106 -173q-108 -132 -263 -219.5t-290 -83.5q-33 1 -63 8.5t-61.5 24.5t-52.5 51t-27 82q-11 101 44.5 223.5
t164.5 231.5q123 121 293 197t325 69q63 -3 105.5 -31.5t46.5 -81.5q3 -28 -6.5 -56t-24.5 -44q-7 -8 -16.5 -14t-12.5 -2q-1 3 0.5 4.5t6.5 7t10 12.5q27 41 20 90q-4 39 -41 62.5t-88 25.5q-124 5 -284 -91.5t-255 -202.5q-100 -114 -151 -237.5t-39 -207.5
q8 -52 44.5 -76t82.5 -26q211 -9 467 311q71 90 122 185.5t58 166.5q5 34 -7 54.5t-38 23.5q-77 7 -198.5 -77t-225.5 -214q-72 -91 -111.5 -180.5t-39.5 -151.5zM731 987q-8 4 2 23q47 85 123 82q26 -1 65 -23.5t60 -24.5q45 -2 82 39q1 1 5.5 6.5t5 5t5.5 -0.5
q7 -2 -2 -21q-47 -86 -116 -86q-26 0 -68 22.5t-64 24.5q-27 3 -49.5 -8.5t-34.5 -28.5q-9 -13 -14 -10z" />
    <glyph glyph-name="Odieresis" unicode="&#xd6;" horiz-adv-x="833" 
d="M279 106q0 -46 22 -77q9 -12 8 -15q-3 -7 -16 6q-30 30 -35 89q-5 70 28 163.5t105 186.5q109 135 242 217.5t223 73.5q96 -11 82 -148q-5 -62 -48 -157t-106 -173q-108 -132 -263 -219.5t-290 -83.5q-33 1 -63 8.5t-61.5 24.5t-52.5 51t-27 82q-11 101 44.5 223.5
t164.5 231.5q123 121 293 197t325 69q63 -3 105.5 -31.5t46.5 -81.5q3 -28 -6.5 -56t-24.5 -44q-7 -8 -16.5 -14t-12.5 -2q-1 3 0.5 4.5t6.5 7t10 12.5q27 41 20 90q-4 39 -41 62.5t-88 25.5q-124 5 -284 -91.5t-255 -202.5q-100 -114 -151 -237.5t-39 -207.5
q8 -52 44.5 -76t82.5 -26q211 -9 467 311q71 90 122 185.5t58 166.5q5 34 -7 54.5t-38 23.5q-77 7 -198.5 -77t-225.5 -214q-72 -91 -111.5 -180.5t-39.5 -151.5zM967 987q-16 24 0 68q15 39 77 39q25 0 32 -15.5t-11 -38.5q-18 -22 -48 -37.5t-50 -15.5zM743 987
q-8 9 -8.5 28t6.5 40q15 39 76 39q25 0 31.5 -15.5t-10.5 -38.5q-17 -21 -48 -37t-47 -16z" />
    <glyph glyph-name="multiply" unicode="&#xd7;" horiz-adv-x="643" 
d="M356 287q185 143 205 157q54 40 74 46q15 4 31 2q25 -1 26 -8q0 -12 -63 -56q-12 -9 -262 -180q3 -16 41 -180q8 -34 0 -39q-7 -3 -11.5 2.5t-9.5 19.5q-44 130 -59 170q-42 -28 -132.5 -89.5t-132.5 -88.5q-41 -27 -45 -18q-6 6 25 28q33 26 272 203q-39 105 -57 162
q-18 46 18 67q19 10 27.5 5t13.5 -27q3 -15 10 -47.5t14.5 -65t14.5 -63.5z" />
    <glyph glyph-name="Oslash" unicode="&#xd8;" horiz-adv-x="833" 
d="M920 815l-730 -813q28 -14 62 -14q211 -9 467 311q154 194 180 346q8 38 0 68q-2 12 -6 22.5t-4.5 12t0.5 4.5q3 1 7.5 -2t10 -12.5t11.5 -24.5q21 -57 16 -111q-3 -62 -45 -157t-105 -173q-108 -132 -263.5 -219.5t-289.5 -83.5q-32 0 -63 8q-121 -124 -148 -151
q-16 -16 -22 -10q-4 6 10 24l131 146q-96 34 -112 149q-11 100 45 221.5t164 233.5q123 127 292.5 201t325.5 65q27 0 51 -8q19 21 39 44t44 51t38 44q22 26 37 17q12 -9 -8 -33q-13 -15 -36.5 -42.5t-43 -50t-37.5 -42.5q29 -13 47.5 -39.5t20.5 -53.5q3 -27 -7.5 -54
t-25.5 -44q-20 -25 -27 -18q-1 1 0.5 2.5t6.5 7.5t10 14q27 45 20 90q-4 53 -63 74zM168 16l719 809q-16 4 -33 4q-124 5 -284 -91.5t-255 -202.5q-100 -114 -151 -237.5t-39 -207.5q8 -50 43 -74z" />
    <glyph glyph-name="Ugrave" unicode="&#xd9;" horiz-adv-x="1132" 
d="M834 274q-104 -104 -243 -198t-229 -94q-48 0 -72 24t-18 70q8 60 67.5 141t192.5 229q108 123 160 192.5t68 121.5q11 42 -16.5 62t-71.5 20q-79 0 -175.5 -47.5t-181.5 -130.5q-163 -159 -163 -267q0 -38 18.5 -61t54.5 -23q40 0 74 21q8 5 15 11t10 8.5t6 0.5
q4 -3 -4.5 -13.5t-20.5 -18.5q-39 -27 -84 -27q-44 1 -70.5 27.5t-31.5 72.5q-5 69 38 152t119 153q86 79 197.5 119.5t198.5 40.5q76 0 121.5 -29.5t44.5 -87.5q-1 -61 -52 -135.5t-147 -185.5q-135 -150 -194 -227.5t-66 -124.5q-8 -46 29 -50q61 -8 225 111
q91 67 154.5 128.5t146.5 158.5q191 220 375 364q40 31 89 59t77 25q26 -6 21 -32t-34 -60q-47 -51 -153 -129q-139 -103 -187 -143q-5 -6 -65 -80q-59 -77 -81 -108t-64 -92t-59 -99.5t-17 -65.5q0 -34 41 -34q46 0 131 63q46 32 100 82q35 31 41 25q4 -6 -21 -31
q-42 -39 -108 -92q-106 -82 -180 -82q-45 0 -71 23.5t-26 66.5q0 68 91 196zM1176 567q23 18 66.5 49t53.5 39q76 51 136 111q20 22 31 39.5t12 27t-5 13.5q-29 10 -110 -78q-110 -114 -184 -201zM1012 1049q-47 29 -25 69q10 15 23 15q10 0 26 -13q69 -60 185 -141
q15 -11 12 -16q-5 -7 -25 0q-41 14 -105 41.5t-91 44.5z" />
    <glyph glyph-name="Uacute" unicode="&#xda;" horiz-adv-x="1132" 
d="M834 274q-104 -104 -243 -198t-229 -94q-48 0 -72 24t-18 70q8 60 67.5 141t192.5 229q108 123 160 192.5t68 121.5q11 42 -16.5 62t-71.5 20q-79 0 -175.5 -47.5t-181.5 -130.5q-163 -159 -163 -267q0 -38 18.5 -61t54.5 -23q40 0 74 21q8 5 15 11t10 8.5t6 0.5
q4 -3 -4.5 -13.5t-20.5 -18.5q-39 -27 -84 -27q-44 1 -70.5 27.5t-31.5 72.5q-5 69 38 152t119 153q86 79 197.5 119.5t198.5 40.5q76 0 121.5 -29.5t44.5 -87.5q-1 -61 -52 -135.5t-147 -185.5q-135 -150 -194 -227.5t-66 -124.5q-8 -46 29 -50q61 -8 225 111
q91 67 154.5 128.5t146.5 158.5q191 220 375 364q40 31 89 59t77 25q26 -6 21 -32t-34 -60q-47 -51 -153 -129q-139 -103 -187 -143q-5 -6 -65 -80q-59 -77 -81 -108t-64 -92t-59 -99.5t-17 -65.5q0 -34 41 -34q46 0 131 63q46 32 100 82q35 31 41 25q4 -6 -21 -31
q-42 -39 -108 -92q-106 -82 -180 -82q-45 0 -71 23.5t-26 66.5q0 68 91 196zM1176 567q23 18 66.5 49t53.5 39q76 51 136 111q20 22 31 39.5t12 27t-5 13.5q-29 10 -110 -78q-110 -114 -184 -201zM1042 958q-2 7 17 17q105 44 246 135q13 8 26 8q17 0 21 -22q6 -37 -43 -62
q-35 -17 -114.5 -41t-127.5 -35q-23 -8 -25 0z" />
    <glyph glyph-name="Ucircumflex" unicode="&#xdb;" horiz-adv-x="1132" 
d="M834 274q-104 -104 -243 -198t-229 -94q-48 0 -72 24t-18 70q8 60 67.5 141t192.5 229q108 123 160 192.5t68 121.5q11 42 -16.5 62t-71.5 20q-79 0 -175.5 -47.5t-181.5 -130.5q-163 -159 -163 -267q0 -38 18.5 -61t54.5 -23q40 0 74 21q8 5 15 11t10 8.5t6 0.5
q4 -3 -4.5 -13.5t-20.5 -18.5q-39 -27 -84 -27q-44 1 -70.5 27.5t-31.5 72.5q-5 69 38 152t119 153q86 79 197.5 119.5t198.5 40.5q76 0 121.5 -29.5t44.5 -87.5q-1 -61 -52 -135.5t-147 -185.5q-135 -150 -194 -227.5t-66 -124.5q-8 -46 29 -50q61 -8 225 111
q91 67 154.5 128.5t146.5 158.5q191 220 375 364q40 31 89 59t77 25q26 -6 21 -32t-34 -60q-47 -51 -153 -129q-139 -103 -187 -143q-5 -6 -65 -80q-59 -77 -81 -108t-64 -92t-59 -99.5t-17 -65.5q0 -34 41 -34q46 0 131 63q46 32 100 82q35 31 41 25q4 -6 -21 -31
q-42 -39 -108 -92q-106 -82 -180 -82q-45 0 -71 23.5t-26 66.5q0 68 91 196zM1176 567q23 18 66.5 49t53.5 39q76 51 136 111q20 22 31 39.5t12 27t-5 13.5q-29 10 -110 -78q-110 -114 -184 -201zM973 963q-21 -5 -23 2q-2 6 15 14q168 99 223 143q12 8 20 8q9 0 13 -12
q30 -68 69 -135q7 -14 6 -16q-5 -3 -24 6q-42 25 -88 74q-80 -41 -211 -84z" />
    <glyph glyph-name="Udieresis" unicode="&#xdc;" horiz-adv-x="1132" 
d="M834 274q-104 -104 -243 -198t-229 -94q-48 0 -72 24t-18 70q8 60 67.5 141t192.5 229q108 123 160 192.5t68 121.5q11 42 -16.5 62t-71.5 20q-79 0 -175.5 -47.5t-181.5 -130.5q-163 -159 -163 -267q0 -38 18.5 -61t54.5 -23q40 0 74 21q8 5 15 11t10 8.5t6 0.5
q4 -3 -4.5 -13.5t-20.5 -18.5q-39 -27 -84 -27q-44 1 -70.5 27.5t-31.5 72.5q-5 69 38 152t119 153q86 79 197.5 119.5t198.5 40.5q76 0 121.5 -29.5t44.5 -87.5q-1 -61 -52 -135.5t-147 -185.5q-135 -150 -194 -227.5t-66 -124.5q-8 -46 29 -50q61 -8 225 111
q91 67 154.5 128.5t146.5 158.5q191 220 375 364q40 31 89 59t77 25q26 -6 21 -32t-34 -60q-47 -51 -153 -129q-139 -103 -187 -143q-5 -6 -65 -80q-59 -77 -81 -108t-64 -92t-59 -99.5t-17 -65.5q0 -34 41 -34q46 0 131 63q46 32 100 82q35 31 41 25q4 -6 -21 -31
q-42 -39 -108 -92q-106 -82 -180 -82q-45 0 -71 23.5t-26 66.5q0 68 91 196zM1176 567q23 18 66.5 49t53.5 39q76 51 136 111q20 22 31 39.5t12 27t-5 13.5q-29 10 -110 -78q-110 -114 -184 -201zM1237 987q-16 24 0 68q15 39 78 39q25 0 31.5 -15.5t-11.5 -38.5
q-18 -22 -48 -37.5t-50 -15.5zM1014 987q-8 9 -8.5 28t6.5 40q15 39 75 39q25 0 31.5 -15.5t-10.5 -38.5q-17 -21 -47.5 -37t-46.5 -16z" />
    <glyph glyph-name="Yacute" unicode="&#xdd;" horiz-adv-x="1021" 
d="M862 303q-112 -118 -260 -219.5t-240 -101.5q-48 0 -72 24t-18 70q8 60 67.5 141t192.5 229q108 123 160 192.5t68 121.5q11 42 -16.5 62t-71.5 20q-79 0 -175.5 -47.5t-181.5 -130.5q-163 -159 -163 -267q0 -38 18.5 -61t54.5 -23q45 0 74 21q6 4 13 10.5t11 9t7 0.5
q4 -3 -4.5 -13.5t-20.5 -18.5q-39 -27 -84 -27q-43 0 -71 27t-31 73q-3 69 39.5 153t117.5 152q87 78 198.5 119t197.5 41q76 0 121.5 -29.5t44.5 -87.5q-1 -61 -52 -135.5t-147 -185.5q-135 -150 -194 -227.5t-66 -124.5q-8 -46 29 -50q61 -8 225 111q160 118 301 287
q119 143 182.5 215.5t138.5 148.5q93 89 152 84q30 -3 30 -32t-24 -60q-45 -57 -135 -129q-109 -87 -166 -143q-45 -61 -266 -365q-30 -42 -68 -97t-63.5 -91t-46.5 -64q156 4 239 -63.5t64 -183.5q-3 -17 -10 -29.5t-13 -11.5q-1 3 -1 3.5t2.5 11t4.5 23.5
q12 110 -68 173.5t-231 56.5q-77 -111 -219 -279q-122 -142 -259.5 -236.5t-223.5 -94.5q-36 0 -63 19.5t-23 66.5q7 80 103.5 183t199.5 175q96 64 201 109t192 63q37 54 150 217.5t149 214.5zM1159 569q20 17 55 45.5t50 40.5q85 69 118 111q18 22 27 39.5t8.5 27.5
t-8.5 13q-29 10 -98 -78q-46 -55 -152 -199zM551 -152q-180 -40 -365 -167q-88 -61 -174 -168t-86 -177q0 -25 12.5 -38t30.5 -15q50 -6 127 41q53 32 125.5 105t136.5 159q15 20 52.5 70.5t73 98.5t67.5 91zM995 983q-1 4 4 8t13 8q98 41 245 136q13 8 27 8q17 0 21 -23
q6 -36 -43 -61q-35 -17 -114.5 -41t-127.5 -35q-22 -8 -25 0z" />
    <glyph glyph-name="Thorn" unicode="&#xde;" horiz-adv-x="1200" 
d="M430 197q-150 -87 -334 -226q-166 -134 -166 -180q0 -24 31 -24q67 3 175 97.5t294 332.5zM975 733q61 14 151 45q163 62 168 117q2 22 -11 33t-40 10q-72 -4 -168 -100q-5 -5 -100 -105zM754 459q106 92 184.5 142t142.5 50q46 0 78.5 -30t32.5 -91q0 -92 -96 -213
q-71 -92 -175 -162t-198.5 -101t-159.5 -23q-28 3 -48.5 12t-27 18.5t-2.5 14.5q2 2 8.5 -3t24.5 -12.5t43 -9.5q84 -9 218.5 81t236.5 222q71 90 91 154.5t2.5 89.5t-52.5 25q-49 0 -145.5 -66t-200.5 -160q-184 -230 -267 -319q-86 -94 -172 -168q-78 -69 -159 -116.5
t-146 -51.5q-61 0 -61 49q0 34 45.5 82t128.5 115q65 50 178.5 126t200.5 126q10 12 58.5 76.5t76.5 97.5q126 156 246 270v2q-106 -18 -178 -18q-246 0 -246 116q0 45 40.5 78t94.5 43q67 12 67 -4q0 -1 -7 -1.5t-23 -2t-33 -6.5q-36 -13 -62.5 -41t-25.5 -68
q5 -96 192 -96q73 0 203 23q63 69 154 137q138 108 229 110q34 2 53.5 -15t18.5 -46q-1 -23 -20 -44.5t-52.5 -39t-58 -28t-60.5 -23.5q-83 -29 -165 -49q-106 -122 -207 -252z" />
    <glyph glyph-name="germandbls" unicode="&#xdf;" horiz-adv-x="694" 
d="M469 43q41 13 115 61q56 37 106 82q24 24 31 17q0 -4 0.5 -6t-4 -7.5t-7.5 -8t-8 -7.5l-6 -6q-46 -41 -102 -80q-65 -43 -131 -70q-29 -13 -82 -24.5t-96 -11.5q-65 0 -93 36.5t-18 83.5q10 49 41 78.5t68 26.5q19 -1 28 -14.5t6 -28.5q-5 -26 -47 -51q-43 -27 -45 -60
q-1 -23 14.5 -37t41.5 -14q78 0 135 100q23 38 31.5 96.5t-3.5 104.5q-3 10 -13.5 42.5t-13.5 47t-0.5 39.5t15.5 45q12 18 49 34.5t92.5 38.5t94.5 46q124 77 139 170q4 29 -9.5 46t-35.5 19q-105 11 -246 -153q-24 -27 -60 -77.5t-89 -128t-78 -112.5q-15 -21 -58 -83
t-68 -97.5t-68 -93.5t-85 -111q-39 -50 -84.5 -97t-103 -95t-121 -77.5t-119.5 -29.5q-73 0 -108.5 19t-38.5 47q-3 24 11 39.5t38 15.5q6 0 12 -1.5t10.5 -5.5t8 -7t7.5 -10t6 -10t6 -11l5 -10q23 -45 53 -45q73 0 144.5 63t187.5 222q30 41 63 89.5t73 109.5t57 87v2
q-73 -60 -107 -94q-18 -18 -24 -10q-3 7 14 24q88 82 164 146q154 214 205 274q118 137 222.5 193t174.5 47q53 -4 74.5 -45t3.5 -92q-24 -76 -133 -135q-38 -21 -99.5 -41.5t-104.5 -36.5t-54 -33q-7 -18 -9 -30.5t7 -33t17 -34t21 -34t19 -32.5q55 -102 24 -180
q-9 -23 -26.5 -45.5t-36.5 -34.5z" />
    <glyph glyph-name="agrave" unicode="&#xe0;" horiz-adv-x="587" 
d="M340 721h2q15 0 23 -21q42 -96 102 -176q10 -14 4 -18q-4 -3 -20 8q-108 91 -136 137q-10 15 -10 31q0 15 11.5 27t23.5 12zM399 272q75 78 117 78q31 1 37 -6.5t-10 -26.5q-80 -92 -115 -135q-52 -64 -72 -100t-6 -47q12 -10 47 8q39 19 92 63q38 31 99 84q23 20 28 15
q8 -8 -26 -37q-50 -47 -115 -98q-102 -82 -176 -82q-56 0 -59 43q-3 33 28 73l-2 2q-50 -44 -111 -79.5t-114 -38.5q-39 -2 -64.5 17.5t-19.5 64.5q6 47 57 106l-2 2q-14 -14 -26 -24q-15 -11 -19 -7q-6 9 29 39q24 24 61 50q44 31 95 57q132 68 204 57q30 -4 41 -27t2 -51z
M348 330q-59 0 -188 -129q-121 -119 -115 -162q3 -21 27 -21q29 0 79.5 29t92.5 68q51 44 95.5 99t45.5 79q3 37 -37 37z" />
    <glyph glyph-name="aacute" unicode="&#xe1;" horiz-adv-x="587" 
d="M559 705h2q7 0 14 -11q9 -15 4.5 -34t-18.5 -33q-21 -21 -77 -58.5t-93 -58.5q-20 -10 -24 -6q-4 6 10 20q82 78 153 162q15 19 29 19zM399 272q75 78 117 78q31 1 37 -6.5t-10 -26.5q-80 -92 -115 -135q-52 -64 -72 -100t-6 -47q12 -10 47 8q39 19 92 63q38 31 99 84
q23 20 28 15q8 -8 -26 -37q-50 -47 -115 -98q-102 -82 -176 -82q-56 0 -59 43q-3 33 28 73l-2 2q-50 -44 -111 -79.5t-114 -38.5q-39 -2 -64.5 17.5t-19.5 64.5q6 47 57 106l-2 2q-14 -14 -26 -24q-15 -11 -19 -7q-6 9 29 39q24 24 61 50q44 31 95 57q132 68 204 57
q30 -4 41 -27t2 -51zM348 330q-59 0 -188 -129q-121 -119 -115 -162q3 -21 27 -21q29 0 79.5 29t92.5 68q51 44 95.5 99t45.5 79q3 37 -37 37z" />
    <glyph glyph-name="acircumflex" unicode="&#xe2;" horiz-adv-x="587" 
d="M496 657h2q5 0 10 -14q47 -100 70 -135q8 -10 4 -14q-6 -6 -23 6q-50 35 -88 86q-54 -32 -118.5 -60t-96.5 -37q-15 -5 -18 3q-1 1 0 2.5t2.5 2.5t3.5 2t4.5 2.5t3.5 2.5q155 91 223 143q13 10 21 10zM399 272q75 78 117 78q31 1 37 -6.5t-10 -26.5q-80 -92 -115 -135
q-52 -64 -72 -100t-6 -47q12 -10 47 8q39 19 92 63q38 31 99 84q23 20 28 15q8 -8 -26 -37q-50 -47 -115 -98q-102 -82 -176 -82q-56 0 -59 43q-3 33 28 73l-2 2q-50 -44 -111 -79.5t-114 -38.5q-39 -2 -64.5 17.5t-19.5 64.5q6 47 57 106l-2 2q-14 -14 -26 -24
q-15 -11 -19 -7q-6 9 29 39q24 24 61 50q44 31 95 57q132 68 204 57q30 -4 41 -27t2 -51zM348 330q-59 0 -188 -129q-121 -119 -115 -162q3 -21 27 -21q29 0 79.5 29t92.5 68q51 44 95.5 99t45.5 79q3 37 -37 37z" />
    <glyph glyph-name="atilde" unicode="&#xe3;" horiz-adv-x="587" 
d="M487 514h-2q-24 0 -65 26.5t-64 28.5q-43 4 -82 -45q-11 -14 -16 -12q-8 4 2 25q21 36 52.5 59t68.5 22q27 -1 65 -28t62 -29q42 -2 82 49q9 13 16 11q8 -3 -2 -23q-15 -31 -46.5 -57.5t-70.5 -26.5zM399 272q75 78 117 78q31 1 37 -6.5t-10 -26.5q-80 -92 -115 -135
q-52 -64 -72 -100t-6 -47q12 -10 47 8q39 19 92 63q38 31 99 84q23 20 28 15q8 -8 -26 -37q-50 -47 -115 -98q-102 -82 -176 -82q-56 0 -59 43q-3 33 28 73l-2 2q-50 -44 -111 -79.5t-114 -38.5q-39 -2 -64.5 17.5t-19.5 64.5q6 47 57 106l-2 2q-14 -14 -26 -24
q-15 -11 -19 -7q-6 9 29 39q24 24 61 50q44 31 95 57q132 68 204 57q30 -4 41 -27t2 -51zM348 330q-59 0 -188 -129q-121 -119 -115 -162q3 -21 27 -21q29 0 79.5 29t92.5 68q51 44 95.5 99t45.5 79q3 37 -37 37z" />
    <glyph glyph-name="adieresis" unicode="&#xe4;" horiz-adv-x="587" 
d="M385 610h2q21 0 26 -13.5t-10 -33.5q-16 -21 -43.5 -35t-44.5 -14q-6 8 -6.5 25.5t6.5 35.5q12 35 70 35zM590 610h2q21 0 26 -13.5t-12 -33.5q-16 -21 -43.5 -35t-44.5 -14q-6 8 -6 26t6 35q12 35 72 35zM399 272q75 78 117 78q31 1 37 -6.5t-10 -26.5
q-80 -92 -115 -135q-52 -64 -72 -100t-6 -47q12 -10 47 8q39 19 92 63q38 31 99 84q23 20 28 15q8 -8 -26 -37q-50 -47 -115 -98q-102 -82 -176 -82q-56 0 -59 43q-3 33 28 73l-2 2q-50 -44 -111 -79.5t-114 -38.5q-39 -2 -64.5 17.5t-19.5 64.5q6 47 57 106l-2 2
q-14 -14 -26 -24q-15 -11 -19 -7q-6 9 29 39q24 24 61 50q44 31 95 57q132 68 204 57q30 -4 41 -27t2 -51zM348 330q-59 0 -188 -129q-121 -119 -115 -162q3 -21 27 -21q29 0 79.5 29t92.5 68q51 44 95.5 99t45.5 79q3 37 -37 37z" />
    <glyph glyph-name="aring" unicode="&#xe5;" horiz-adv-x="587" 
d="M446 686h3q35 0 61.5 -28t26.5 -64q0 -38 -27 -64t-64 -26q-38 0 -64 26t-26 64q0 36 26.5 64t63.5 28zM446 649h-2q-23 0 -37 -16t-14 -39q0 -24 14.5 -38.5t38.5 -14.5q23 0 38.5 15t15.5 38q0 22 -15.5 38.5t-38.5 16.5zM399 272q75 78 117 78q31 1 37 -6.5t-10 -26.5
q-80 -92 -115 -135q-52 -64 -72 -100t-6 -47q12 -10 47 8q39 19 92 63q38 31 99 84q23 20 28 15q8 -8 -26 -37q-50 -47 -115 -98q-102 -82 -176 -82q-56 0 -59 43q-3 33 28 73l-2 2q-50 -44 -111 -79.5t-114 -38.5q-39 -2 -64.5 17.5t-19.5 64.5q6 47 57 106l-2 2
q-14 -14 -26 -24q-15 -11 -19 -7q-6 9 29 39q24 24 61 50q44 31 95 57q132 68 204 57q30 -4 41 -27t2 -51zM348 330q-59 0 -188 -129q-121 -119 -115 -162q3 -21 27 -21q29 0 79.5 29t92.5 68q51 44 95.5 99t45.5 79q3 37 -37 37z" />
    <glyph glyph-name="ae" unicode="&#xe6;" horiz-adv-x="722" 
d="M408 12q27 0 76.5 17.5t109.5 58.5q64 44 125 98q17 14 22 9q6 -8 -16 -27q-65 -60 -121 -98q-133 -88 -235 -88q-56 0 -82.5 21.5t-24.5 62.5q0 26 14 47h-2q-46 -44 -112 -83t-121 -42q-39 -2 -64.5 17.5t-19.5 64.5q6 47 57 106l-2 2q-12 -12 -22 -20q-17 -14 -23 -8
q-4 5 19 28q37 32 63 51q66 46 103 64q96 51 204 55q15 1 31.5 -0.5t27 -4.5t9.5 -7q-1 -5 -10 -7t-29.5 -4t-36.5 -6q-35 -7 -86 -37t-102 -81q-121 -118 -115 -162q3 -21 27 -21q29 0 79.5 29t92.5 68q65 58 139 136.5t90 90.5q31 24 59 27q21 2 24.5 -1t-7.5 -20
q-18 -24 -39 -41q65 45 111 45q31 0 46 -16t13 -39q-5 -61 -131 -125q-89 -44 -176 -66q-13 -26 -13 -47q0 -47 48 -47zM385 129q76 19 139 61q37 26 59.5 55.5t24.5 51.5q2 13 -4.5 21t-19.5 8q-27 0 -88 -58t-111 -139z" />
    <glyph glyph-name="ccedilla" unicode="&#xe7;" horiz-adv-x="438" 
d="M82 -18h-16q-26 -19 -54 -52q12 4 27 4q44 0 71 -21.5t21 -55.5q-6 -39 -49 -64t-102 -22q-83 2 -117 51q-17 23 -6 31q3 1 5 -1t5 -6.5t6 -7.5q35 -39 104 -39h3q35 0 62 18.5t28 45.5q2 23 -16 35.5t-50 11.5q-9 -1 -18.5 -4.5t-11.5 -4.5t-7 1q-5 5 8 18q38 43 68 66
q-78 12 -72 82q6 58 60 122l-2 3q-11 -11 -35 -31q-21 -18 -27 -12q-4 5 13 22q29 27 75 61q61 43 99 62q123 65 188 55q69 -12 55 -78q-6 -28 -27 -48.5t-42 -20.5q-25 0 -28.5 18t11.5 41q37 63 6 68q-38 7 -127 -86q-43 -43 -76.5 -95.5t-37.5 -87.5q-6 -47 47 -47
q28 0 78 17t110 57q54 37 123 98q17 15 23 9q5 -8 -17 -27q-65 -60 -121 -98t-121 -63t-116 -25z" />
    <glyph glyph-name="egrave" unicode="&#xe8;" horiz-adv-x="436" 
d="M291 715h2q14 0 22 -21q40 -93 103 -176q10 -14 4 -18q-4 -3 -21 8q-106 89 -135 137q-10 15 -10 31q0 15 11.5 27t23.5 12zM121 12q27 0 76.5 17.5t109.5 58.5q69 48 125 98q17 15 23 9q5 -8 -17 -27q-59 -55 -129 -102q-127 -84 -231 -84q-57 0 -84 20.5t-25 60.5
q3 56 62 127l-2 3q-17 -17 -41 -37q-15 -12 -21 -6q-4 5 13 22q29 27 75 61q56 39 101 62q108 57 176 57h2q31 0 46 -16t13 -39q-5 -61 -131 -125q-89 -44 -176 -66q-12 -24 -12 -47q0 -47 47 -47zM98 129q78 19 140 61q37 26 59.5 55.5t24.5 51.5q3 29 -25 29
q-27 0 -90 -60q-24 -23 -57 -64.5t-52 -72.5z" />
    <glyph glyph-name="eacute" unicode="&#xe9;" horiz-adv-x="436" 
d="M492 705h2q7 0 14 -11q9 -15 4.5 -34t-18.5 -33q-21 -21 -77 -58.5t-93 -58.5q-21 -10 -25 -6q-4 6 10 20q87 83 154 162q15 19 29 19zM121 12q27 0 76.5 17.5t109.5 58.5q69 48 125 98q17 15 23 9q5 -8 -17 -27q-59 -55 -129 -102q-127 -84 -231 -84q-57 0 -84 20.5
t-25 60.5q3 56 62 127l-2 3q-17 -17 -41 -37q-15 -12 -21 -6q-4 5 13 22q29 27 75 61q56 39 101 62q108 57 176 57h2q31 0 46 -16t13 -39q-5 -61 -131 -125q-89 -44 -176 -66q-12 -24 -12 -47q0 -47 47 -47zM98 129q78 19 140 61q37 26 59.5 55.5t24.5 51.5q3 29 -25 29
q-27 0 -90 -60q-24 -23 -57 -64.5t-52 -72.5z" />
    <glyph glyph-name="ecircumflex" unicode="&#xea;" horiz-adv-x="436" 
d="M420 657h2q5 0 10 -14q47 -100 70 -135q8 -10 4 -14q-6 -6 -23 6q-50 35 -88 86q-54 -32 -118.5 -60t-96.5 -37q-15 -5 -18 3q-1 1 0 2.5t2.5 2.5t3.5 2t4.5 2.5t3.5 2.5q155 91 223 143q13 10 21 10zM121 12q27 0 76.5 17.5t109.5 58.5q69 48 125 98q17 15 23 9
q5 -8 -17 -27q-59 -55 -129 -102q-127 -84 -231 -84q-57 0 -84 20.5t-25 60.5q3 56 62 127l-2 3q-17 -17 -41 -37q-15 -12 -21 -6q-4 5 13 22q29 27 75 61q56 39 101 62q108 57 176 57h2q31 0 46 -16t13 -39q-5 -61 -131 -125q-89 -44 -176 -66q-12 -24 -12 -47
q0 -47 47 -47zM98 129q78 19 140 61q37 26 59.5 55.5t24.5 51.5q3 29 -25 29q-27 0 -90 -60q-24 -23 -57 -64.5t-52 -72.5z" />
    <glyph glyph-name="edieresis" unicode="&#xeb;" horiz-adv-x="436" 
d="M293 610h2q21 0 26 -13.5t-10 -33.5q-16 -21 -43.5 -35t-44.5 -14q-6 8 -6.5 25.5t6.5 35.5q12 35 70 35zM498 610h2q21 0 26 -13.5t-12 -33.5q-16 -21 -43.5 -35t-44.5 -14q-6 8 -6 26t6 35q12 35 72 35zM121 12q27 0 76.5 17.5t109.5 58.5q69 48 125 98q17 15 23 9
q5 -8 -17 -27q-59 -55 -129 -102q-127 -84 -231 -84q-57 0 -84 20.5t-25 60.5q3 56 62 127l-2 3q-17 -17 -41 -37q-15 -12 -21 -6q-4 5 13 22q29 27 75 61q56 39 101 62q108 57 176 57h2q31 0 46 -16t13 -39q-5 -61 -131 -125q-89 -44 -176 -66q-12 -24 -12 -47
q0 -47 47 -47zM98 129q78 19 140 61q37 26 59.5 55.5t24.5 51.5q3 29 -25 29q-27 0 -90 -60q-24 -23 -57 -64.5t-52 -72.5z" />
    <glyph glyph-name="igrave" unicode="&#xec;" horiz-adv-x="331" 
d="M270 707h2q15 0 23 -21q42 -96 102 -176q10 -14 4 -18q-4 -3 -20 8q-106 89 -135 137q-10 15 -10 31q0 15 11 27t23 12zM166 293q-23 -10 -90 -64q-62 -50 -72 -59q-24 -21 -31 -16q-6 6 23 32q88 77 145 115q38 27 63.5 36t55.5 9q32 0 37 -6.5t-14 -26.5
q-34 -37 -109 -131q-53 -65 -74 -100q-17 -34 -6 -45q14 -11 49 6q41 21 90 61q58 47 95 82q24 22 29 21q2 -1 3 -2q6 -5 -22 -33q-40 -40 -117 -102q-104 -84 -178 -84q-61 0 -61 53q0 31 30 78q28 43 76 96.5t78 79.5z" />
    <glyph glyph-name="iacute" unicode="&#xed;" horiz-adv-x="331" 
d="M434 705h2q8 0 15 -11q8 -16 3.5 -34.5t-18.5 -32.5q-21 -21 -77 -58.5t-93 -58.5q-20 -10 -24 -6q-4 6 10 20q87 83 154 162q15 19 28 19zM166 293q-23 -10 -90 -64q-62 -50 -72 -59q-24 -21 -31 -16q-6 6 23 32q88 77 145 115q38 27 63.5 36t55.5 9q32 0 37 -6.5
t-14 -26.5q-34 -37 -109 -131q-53 -65 -74 -100q-17 -34 -6 -45q14 -11 49 6q41 21 90 61q58 47 95 82q24 22 29 21q2 -1 3 -2q6 -5 -22 -33q-40 -40 -117 -102q-104 -84 -178 -84q-61 0 -61 53q0 31 30 78q28 43 76 96.5t78 79.5z" />
    <glyph glyph-name="icircumflex" unicode="&#xee;" horiz-adv-x="331" 
d="M391 657h2q5 0 10 -14q47 -100 70 -135q8 -10 4 -14q-5 -5 -22 6q-50 35 -88 86q-54 -32 -118.5 -60t-96.5 -37q-16 -5 -19 3q-1 1 0 2.5t2.5 2.5t3.5 2t4.5 2.5t3.5 2.5q159 94 224 143q13 10 20 10zM166 293q-23 -10 -90 -64q-62 -50 -72 -59q-24 -21 -31 -16
q-6 6 23 32q88 77 145 115q38 27 63.5 36t55.5 9q32 0 37 -6.5t-14 -26.5q-34 -37 -109 -131q-53 -65 -74 -100q-17 -34 -6 -45q14 -11 49 6q41 21 90 61q58 47 95 82q24 22 29 21q2 -1 3 -2q6 -5 -22 -33q-40 -40 -117 -102q-104 -84 -178 -84q-61 0 -61 53q0 31 30 78
q28 43 76 96.5t78 79.5z" />
    <glyph glyph-name="idieresis" unicode="&#xef;" horiz-adv-x="331" 
d="M242 610h2q21 0 26 -13.5t-10 -33.5q-16 -21 -43.5 -35t-44.5 -14q-6 8 -6.5 25.5t6.5 35.5q12 35 70 35zM446 610h3q21 0 26 -13.5t-12 -33.5q-16 -21 -43.5 -35t-44.5 -14q-6 8 -6 26t6 35q12 35 71 35zM166 293q-23 -10 -90 -64q-62 -50 -72 -59q-24 -21 -31 -16
q-6 6 23 32q88 77 145 115q38 27 63.5 36t55.5 9q32 0 37 -6.5t-14 -26.5q-34 -37 -109 -131q-53 -65 -74 -100q-17 -34 -6 -45q14 -11 49 6q41 21 90 61q58 47 95 82q24 22 29 21q2 -1 3 -2q6 -5 -22 -33q-40 -40 -117 -102q-104 -84 -178 -84q-61 0 -61 53q0 31 30 78
q28 43 76 96.5t78 79.5z" />
    <glyph glyph-name="eth" unicode="&#xf0;" horiz-adv-x="536" 
d="M106 4q42 0 93.5 36t95.5 87q28 29 56 82t28 84q3 37 -33 37q-62 0 -166 -113q-40 -40 -72 -94.5t-34 -83.5q0 -35 32 -35zM326 350h30q28 -6 39.5 -29.5t5.5 -50.5q25 34 52 104t30 126q0 29 -2 41q-70 -23 -180 -62q-19 -5 -22 0q-7 10 18 21q164 64 180 71
q-14 65 -56.5 108t-103.5 46q-10 1 -20 0t-12 -1.5t-4 1.5q-1 3 2.5 6.5t12 6t21.5 3.5q71 6 131.5 -35.5t90.5 -111.5q12 4 44.5 17t49.5 18q6 4 17.5 3t15.5 -9q3 -8 -6 -14.5t-21 -10.5q-6 -2 -40 -15t-50 -18q10 -42 10 -76q0 -114 -70.5 -225.5t-144.5 -171.5
q-142 -110 -256 -110q-45 0 -72.5 23.5t-27.5 64.5q0 69 57 133l-2 2q-7 -6 -18.5 -16.5t-18.5 -16.5q-20 -18 -26 -12q-4 6 14 24q26 26 63 52q46 31 99 59q99 52 170 55z" />
    <glyph glyph-name="ntilde" unicode="&#xf1;" horiz-adv-x="720" 
d="M571 514h-2q-24 0 -65 26.5t-64 28.5q-43 4 -82 -45q-11 -14 -16 -12q-8 4 2 25q21 36 52.5 59t68.5 22q27 -1 65 -28t62 -29q42 -2 82 49q9 13 16 11q8 -3 -2 -23q-15 -31 -46.5 -57.5t-70.5 -26.5zM424 -12q-30 0 -46.5 13.5t-15.5 39.5q0 7 2 14.5t5.5 16.5t7 15.5
t10 16.5t10.5 15.5t13 17t12.5 15.5t13.5 16.5t13 15.5q37 44 86 101q16 20 2 28t-54 -12q-66 -32 -159 -104q-45 -35 -115 -93.5t-115 -93.5q-23 -18 -53 -18q-24 0 -30.5 5.5t3.5 27.5q32 61 90 137q30 40 82 106q21 27 15 35q-7 10 -31 -2q-28 -13 -80 -55
q-50 -42 -88 -78q-28 -25 -35 -18q-4 6 31 38q87 80 106 95q86 67 140 67q51 0 51 -45q0 -29 -43 -88q-78 -103 -96 -129l2 -2q155 130 188 154q149 110 223 110q33 0 50 -14.5t14 -40.5q-2 -11 -7 -22.5t-16 -27t-17 -23.5t-22.5 -28t-19.5 -24q-45 -53 -68 -90
q-21 -35 -8 -45t49 8q47 23 99 63q12 10 98 84q21 19 27 13q5 -5 -17 -27q-50 -50 -123 -106q-108 -82 -184 -82z" />
    <glyph glyph-name="ograve" unicode="&#xf2;" horiz-adv-x="509" 
d="M340 715h2q15 0 23 -21q42 -96 102 -176q10 -14 4 -18q-4 -3 -20 8q-108 91 -136 137q-10 15 -10 31q0 15 11.5 27t23.5 12zM43 205q-7 -6 -18.5 -16.5t-18.5 -16.5q-20 -18 -26 -12q-4 6 14 24q26 26 63 52q46 31 99 59q99 52 170 55q30 0 30 -8q0 -2 -1.5 -3t-8 -3.5
t-12.5 -5.5q-60 -28 -148 -113q-46 -46 -80.5 -98t-37.5 -82q-4 -35 28 -35q34 0 88.5 36t102.5 89q4 44 37 86q27 37 65 53q6 14 6 47q0 9 -2 17.5t-2.5 10t2.5 5.5q11 6 29 -12q29 -29 24 -72q-8 -69 -116 -166q13 -6 39 0q27 6 69 35q22 14 66 53q27 24 33 22q1 0 2 -1
q7 -7 -27 -37q-40 -36 -66 -53q-43 -30 -77 -37q-37 -8 -56 4q-129 -100 -233 -100q-48 0 -74.5 23t-25.5 67q3 66 65 131z" />
    <glyph glyph-name="oacute" unicode="&#xf3;" horiz-adv-x="509" 
d="M541 705h2q7 0 14 -11q9 -15 4.5 -34t-18.5 -33q-21 -21 -77 -58.5t-93 -58.5q-21 -10 -25 -6q-4 6 10 20q87 83 154 162q15 19 29 19zM43 205q-7 -6 -18.5 -16.5t-18.5 -16.5q-20 -18 -26 -12q-4 6 14 24q26 26 63 52q46 31 99 59q99 52 170 55q30 0 30 -8q0 -2 -1.5 -3
t-8 -3.5t-12.5 -5.5q-60 -28 -148 -113q-46 -46 -80.5 -98t-37.5 -82q-4 -35 28 -35q34 0 88.5 36t102.5 89q4 44 37 86q27 37 65 53q6 14 6 47q0 9 -2 17.5t-2.5 10t2.5 5.5q11 6 29 -12q29 -29 24 -72q-8 -69 -116 -166q13 -6 39 0q27 6 69 35q22 14 66 53q27 24 33 22
q1 0 2 -1q7 -7 -27 -37q-40 -36 -66 -53q-43 -30 -77 -37q-37 -8 -56 4q-129 -100 -233 -100q-48 0 -74.5 23t-25.5 67q3 66 65 131z" />
    <glyph glyph-name="ocircumflex" unicode="&#xf4;" horiz-adv-x="509" 
d="M461 657h2q5 0 10 -14q47 -100 70 -135q8 -10 4 -14q-6 -6 -23 6q-50 35 -88 86q-54 -32 -118.5 -60t-96.5 -37q-15 -5 -18 3q-1 1 0 2.5t2.5 2.5t3.5 2t4.5 2.5t3.5 2.5q155 91 223 143q13 10 21 10zM43 205q-7 -6 -18.5 -16.5t-18.5 -16.5q-20 -18 -26 -12q-4 6 14 24
q26 26 63 52q46 31 99 59q99 52 170 55q30 0 30 -8q0 -2 -1.5 -3t-8 -3.5t-12.5 -5.5q-60 -28 -148 -113q-46 -46 -80.5 -98t-37.5 -82q-4 -35 28 -35q34 0 88.5 36t102.5 89q4 44 37 86q27 37 65 53q6 14 6 47q0 9 -2 17.5t-2.5 10t2.5 5.5q11 6 29 -12q29 -29 24 -72
q-8 -69 -116 -166q13 -6 39 0q27 6 69 35q22 14 66 53q27 24 33 22q1 0 2 -1q7 -7 -27 -37q-40 -36 -66 -53q-43 -30 -77 -37q-37 -8 -56 4q-129 -100 -233 -100q-48 0 -74.5 23t-25.5 67q3 66 65 131z" />
    <glyph glyph-name="otilde" unicode="&#xf5;" horiz-adv-x="509" 
d="M471 514h-2q-24 0 -65 26.5t-64 28.5q-43 4 -82 -45q-11 -14 -16 -12q-8 4 2 25q21 36 52.5 59t68.5 22q27 -1 65 -28t62 -29q41 -2 81 49q9 14 17 11t-2 -23q-15 -31 -46.5 -57.5t-70.5 -26.5zM43 205q-7 -6 -18.5 -16.5t-18.5 -16.5q-20 -18 -26 -12q-4 6 14 24
q26 26 63 52q46 31 99 59q99 52 170 55q30 0 30 -8q0 -2 -1.5 -3t-8 -3.5t-12.5 -5.5q-60 -28 -148 -113q-46 -46 -80.5 -98t-37.5 -82q-4 -35 28 -35q34 0 88.5 36t102.5 89q4 44 37 86q27 37 65 53q6 14 6 47q0 9 -2 17.5t-2.5 10t2.5 5.5q11 6 29 -12q29 -29 24 -72
q-8 -69 -116 -166q13 -6 39 0q27 6 69 35q22 14 66 53q27 24 33 22q1 0 2 -1q7 -7 -27 -37q-40 -36 -66 -53q-43 -30 -77 -37q-37 -8 -56 4q-129 -100 -233 -100q-48 0 -74.5 23t-25.5 67q3 66 65 131z" />
    <glyph glyph-name="odieresis" unicode="&#xf6;" horiz-adv-x="509" 
d="M348 610h2q21 0 26.5 -13.5t-9.5 -33.5q-16 -21 -43.5 -35t-44.5 -14q-6 8 -6.5 25.5t6.5 35.5q12 35 69 35zM553 610h2q21 0 26 -13.5t-12 -33.5q-16 -21 -43.5 -35t-44.5 -14q-6 8 -6 26t6 35q12 35 72 35zM43 205q-7 -6 -18.5 -16.5t-18.5 -16.5q-20 -18 -26 -12
q-4 6 14 24q26 26 63 52q46 31 99 59q99 52 170 55q30 0 30 -8q0 -2 -1.5 -3t-8 -3.5t-12.5 -5.5q-60 -28 -148 -113q-46 -46 -80.5 -98t-37.5 -82q-4 -35 28 -35q34 0 88.5 36t102.5 89q4 44 37 86q27 37 65 53q6 14 6 47q0 9 -2 17.5t-2.5 10t2.5 5.5q11 6 29 -12
q29 -29 24 -72q-8 -69 -116 -166q13 -6 39 0q27 6 69 35q22 14 66 53q27 24 33 22q1 0 2 -1q7 -7 -27 -37q-40 -36 -66 -53q-43 -30 -77 -37q-37 -8 -56 4q-129 -100 -233 -100q-48 0 -74.5 23t-25.5 67q3 66 65 131z" />
    <glyph glyph-name="divide" unicode="&#xf7;" horiz-adv-x="653" 
d="M444 440h2q21 0 26.5 -14.5t-9.5 -34.5q-14 -19 -43 -34t-45 -15q-16 24 0 64q14 34 69 34zM637 264v-2q0 -10 -33 -10q-75 -2 -481 -6q-20 0 -25.5 7t0.5 17q11 25 45 25q416 -18 461 -19q33 0 33 -12zM342 184h2q21 0 26 -14.5t-10 -34.5q-14 -19 -42.5 -33t-45.5 -14
q-6 8 -6.5 25.5t6.5 36.5q14 34 70 34z" />
    <glyph glyph-name="oslash" unicode="&#xf8;" horiz-adv-x="509" 
d="M367 340h-2q-24 0 -71.5 -30.5t-107.5 -90.5q-72 -68 -108 -149q-10 -23 -10 -39q45 42 159 151.5t160 151.5q-6 6 -20 6zM94 2h2q35 0 89.5 36.5t101.5 88.5q4 44 37 86q27 37 65 53q10 22 6 47q-39 -36 -95.5 -89t-125 -117.5t-100.5 -94.5q7 -10 20 -10zM57 236
q46 31 99 59q90 50 182 57q37 3 61 -6q7 8 29 29t33 31q30 28 39.5 35t15.5 3q3 -2 3.5 -5t-3 -8.5t-11.5 -14t-22 -21.5q-1 -1 -8.5 -8t-23 -21.5t-31.5 -29.5q33 -26 26 -74q-8 -69 -116 -166q13 -6 39 0q27 6 69 35q22 14 66 53q27 24 33 22q1 0 2 -1q7 -7 -27 -37
q-40 -36 -66 -53q-43 -30 -77 -37q-37 -8 -56 4q-130 -100 -231 -100q-25 0 -35 4q-70 -66 -78 -74q-18 -18 -24 -10q-5 5 12 22q39 39 70 68q-50 18 -47 80q3 66 65 131l-2 2q-7 -6 -18.5 -16.5t-18.5 -16.5q-20 -18 -26 -12q-4 6 14 24q26 26 63 52z" />
    <glyph glyph-name="ugrave" unicode="&#xf9;" horiz-adv-x="659" 
d="M342 700h2q15 0 23 -20q42 -96 102 -176q10 -15 4 -19q-6 0 -6.5 -0.5t-6.5 4.5l-7 5q-108 91 -136 137q-10 15 -10 31q0 15 11.5 26.5t23.5 11.5zM166 293q-24 -10 -88 -62q-60 -48 -74 -61q-24 -21 -31 -16q-6 6 23 32q88 77 145 115q38 27 63.5 36t55.5 9
q32 0 37 -6.5t-14 -26.5q-36 -39 -107 -127q-65 -85 -76 -110q-13 -26 -2 -37q13 -13 47 4q58 32 154 107q53 41 122 98t99 80q29 22 60 22q20 0 29 -2t12 -9.5t-11 -21.5q-13 -16 -33.5 -40t-38.5 -46t-36 -45q-57 -70 -76 -104q-20 -34 -6 -45q13 -11 47 6q45 22 92 61
q19 15 98 84q23 23 29 15q7 -4 -16 -27q-32 -32 -125 -106q-105 -82 -176 -82q-64 0 -64 49q0 34 33 84q23 33 96 106l-2 2q-68 -55 -164 -129q-73 -55 -125 -83.5t-94 -28.5q-33 0 -50.5 15t-16.5 42q2 35 38 84q67 90 146 164z" />
    <glyph glyph-name="uacute" unicode="&#xfa;" horiz-adv-x="659" 
d="M594 705h2q7 0 14 -11q9 -15 4.5 -34t-18.5 -33q-21 -21 -77 -58.5t-93 -58.5q-21 -10 -25 -6q-4 5 11 20q82 78 153 162q15 19 29 19zM166 293q-24 -10 -88 -62q-60 -48 -74 -61q-24 -21 -31 -16q-6 6 23 32q88 77 145 115q38 27 63.5 36t55.5 9q32 0 37 -6.5t-14 -26.5
q-36 -39 -107 -127q-65 -85 -76 -110q-13 -26 -2 -37q13 -13 47 4q58 32 154 107q53 41 122 98t99 80q29 22 60 22q20 0 29 -2t12 -9.5t-11 -21.5q-13 -16 -33.5 -40t-38.5 -46t-36 -45q-57 -70 -76 -104q-20 -34 -6 -45q13 -11 47 6q45 22 92 61q19 15 98 84q23 23 29 15
q7 -4 -16 -27q-32 -32 -125 -106q-105 -82 -176 -82q-64 0 -64 49q0 34 33 84q23 33 96 106l-2 2q-68 -55 -164 -129q-73 -55 -125 -83.5t-94 -28.5q-33 0 -50.5 15t-16.5 42q2 35 38 84q67 90 146 164z" />
    <glyph glyph-name="ucircumflex" unicode="&#xfb;" horiz-adv-x="659" 
d="M541 668h2q5 0 10 -15q47 -100 70 -135q8 -10 4 -14q-6 -6 -23 6q-50 35 -88 86q-115 -67 -215 -96q-16 -5 -18 2q-1 1 0 2.5t2.5 2.5t3.5 2t4.5 2.5t3.5 2.5q155 91 223 143q15 11 21 11zM166 293q-24 -10 -88 -62q-60 -48 -74 -61q-24 -21 -31 -16q-6 6 23 32
q88 77 145 115q38 27 63.5 36t55.5 9q32 0 37 -6.5t-14 -26.5q-36 -39 -107 -127q-65 -85 -76 -110q-13 -26 -2 -37q13 -13 47 4q58 32 154 107q53 41 122 98t99 80q29 22 60 22q20 0 29 -2t12 -9.5t-11 -21.5q-13 -16 -33.5 -40t-38.5 -46t-36 -45q-57 -70 -76 -104
q-20 -34 -6 -45q13 -11 47 6q45 22 92 61q19 15 98 84q23 23 29 15q7 -4 -16 -27q-32 -32 -125 -106q-105 -82 -176 -82q-64 0 -64 49q0 34 33 84q23 33 96 106l-2 2q-68 -55 -164 -129q-73 -55 -125 -83.5t-94 -28.5q-33 0 -50.5 15t-16.5 42q2 35 38 84q67 90 146 164z
" />
    <glyph glyph-name="udieresis" unicode="&#xfc;" horiz-adv-x="659" 
d="M422 610h2q21 0 26 -13.5t-10 -33.5q-16 -21 -43.5 -35t-44.5 -14q-6 8 -6.5 25.5t6.5 35.5q12 35 70 35zM627 610h2q21 0 26 -13.5t-12 -33.5q-16 -21 -43.5 -35t-44.5 -14q-6 8 -6 26t6 35q12 35 72 35zM166 293q-24 -10 -88 -62q-60 -48 -74 -61q-24 -21 -31 -16
q-6 6 23 32q88 77 145 115q38 27 63.5 36t55.5 9q32 0 37 -6.5t-14 -26.5q-36 -39 -107 -127q-65 -85 -76 -110q-13 -26 -2 -37q13 -13 47 4q58 32 154 107q53 41 122 98t99 80q29 22 60 22q20 0 29 -2t12 -9.5t-11 -21.5q-13 -16 -33.5 -40t-38.5 -46t-36 -45
q-57 -70 -76 -104q-20 -34 -6 -45q13 -11 47 6q45 22 92 61q19 15 98 84q23 23 29 15q7 -4 -16 -27q-32 -32 -125 -106q-105 -82 -176 -82q-64 0 -64 49q0 34 33 84q23 33 96 106l-2 2q-68 -55 -164 -129q-73 -55 -125 -83.5t-94 -28.5q-33 0 -50.5 15t-16.5 42q2 35 38 84
q67 90 146 164z" />
    <glyph glyph-name="yacute" unicode="&#xfd;" horiz-adv-x="645" 
d="M592 694h2q7 0 14 -10q9 -15 4.5 -34.5t-18.5 -33.5q-21 -21 -76.5 -58t-93.5 -58q-21 -10 -25 -6q-4 5 11 20q82 78 153 162q14 18 29 18zM436 229l-2 2q-32 -28 -166 -131q-73 -55 -125 -83.5t-94 -28.5q-32 0 -49.5 15.5t-15.5 43.5q3 38 36 82q65 86 146 164
q-23 -10 -90 -64q-62 -50 -72 -59q-24 -21 -31 -16q-6 6 23 32q88 77 145 115q38 27 63.5 36t55.5 9q32 0 37 -6.5t-14 -26.5q-36 -39 -107 -127q-60 -74 -76 -110q-13 -26 -2 -37q12 -12 47 6q67 37 154 105q53 41 122 98t99 80q29 22 60 22q29 0 36 -5.5t-8 -25.5
q-86 -112 -121 -159q-82 -106 -270 -363q-121 -166 -227.5 -321.5t-134.5 -202.5q-21 -35 -11 -41q11 -7 31 16q30 35 150 207q156 219 231 316q141 178 262 299q31 31 125 118q22 22 29 15q4 -6 -23 -33q-54 -50 -119 -115q-125 -128 -258 -297q-137 -182 -243 -336
q-12 -16 -37.5 -52.5t-38.5 -54.5t-32.5 -43.5t-35 -43.5t-30.5 -31q-32 -29 -60 -26q-39 3 -39 43q0 38 84 174q87 138 277 401q17 23 131.5 182t187.5 258z" />
    <glyph glyph-name="thorn" unicode="&#xfe;" horiz-adv-x="669" 
d="M137 317q78 70 142 134q10 13 31.5 38t52 60.5t51.5 60.5q125 147 243 254q35 35 76 35q29 0 29 -14q-128 -133 -361 -408q-167 -195 -526 -678q-150 -204 -210.5 -290t-156.5 -236q-20 -33 -12 -41q9 -6 27 12q45 52 160 221q18 24 100 135.5t135 182.5q144 191 248 313
q98 113 180 174q111 80 176 80q34 0 50.5 -14t11.5 -39q-1 -7 -3.5 -15t-8.5 -17.5t-11 -16.5t-14 -18.5t-14.5 -18t-17 -19.5t-15.5 -18q-59 -66 -72 -88q-21 -36 -6 -47q16 -13 55 6q42 20 94 61q54 42 99 84q20 20 26 13q6 -5 -16 -27q-57 -57 -125 -106
q-107 -82 -184 -82q-36 0 -52.5 17t-13.5 42q7 49 90 137q74 83 88 103q14 19 0 26q-13 6 -45 -10q-97 -46 -213 -170q-110 -122 -297 -371q-209 -282 -247 -337q-136 -197 -177 -232q-30 -26 -59 -20q-35 6 -35 43q0 56 78 172q127 186 287 403q190 261 432 563
q-152 -139 -205 -186q-26 -23 -33 -16q-6 6 21 30q119 108 147 135z" />
    <glyph glyph-name="ydieresis" unicode="&#xff;" horiz-adv-x="645" 
d="M406 610h2q21 0 26 -13.5t-10 -33.5q-16 -21 -43.5 -35t-44.5 -14q-6 8 -6.5 25.5t6.5 35.5q12 35 70 35zM610 610h2q21 0 26 -13.5t-11 -33.5q-16 -21 -43.5 -35t-44.5 -14q-6 8 -6 26t6 35q12 35 71 35zM436 229l-2 2q-32 -28 -166 -131q-73 -55 -125 -83.5t-94 -28.5
q-32 0 -49.5 15.5t-15.5 43.5q3 38 36 82q65 86 146 164q-23 -10 -90 -64q-62 -50 -72 -59q-24 -21 -31 -16q-6 6 23 32q88 77 145 115q38 27 63.5 36t55.5 9q32 0 37 -6.5t-14 -26.5q-36 -39 -107 -127q-60 -74 -76 -110q-13 -26 -2 -37q12 -12 47 6q67 37 154 105
q53 41 122 98t99 80q29 22 60 22q29 0 36 -5.5t-8 -25.5q-86 -112 -121 -159q-82 -106 -270 -363q-121 -166 -227.5 -321.5t-134.5 -202.5q-21 -35 -11 -41q11 -7 31 16q30 35 150 207q156 219 231 316q141 178 262 299q31 31 125 118q22 22 29 15q4 -6 -23 -33
q-54 -50 -119 -115q-125 -128 -258 -297q-137 -182 -243 -336q-12 -16 -37.5 -52.5t-38.5 -54.5t-32.5 -43.5t-35 -43.5t-30.5 -31q-32 -29 -60 -26q-39 3 -39 43q0 38 84 174q87 138 277 401q17 23 131.5 182t187.5 258z" />
    <glyph glyph-name="Amacron" unicode="&#x100;" horiz-adv-x="1413" 
d="M43 115v2q0 52 32.5 87.5t74.5 37.5q35 3 55 -14.5t20 -47.5q0 -37 -47 -69q-37 -26 -37 -52q0 -34 53 -54t148 -13q193 17 426 178q-40 36 -76.5 99t-36.5 132q2 94 69 155t175 60q75 -3 132.5 -49.5t80.5 -97.5q21 21 96 90q194 175 308 236q140 77 245 77q47 0 72 -20
q9 -8 13.5 -17t0.5 -12q-2 -1 -4 0.5t-7.5 6t-10.5 8.5q-16 12 -45 12q-37 0 -66 -23q-33 -27 -81.5 -83.5t-84.5 -108.5q-185 -256 -383 -578q49 3 115 35q67 36 129 94q14 14 21 7q5 -5 -17 -27q-62 -57 -127 -92q-63 -33 -131 -37q-41 -43 -80 -51q-27 -6 -40.5 -1.5
t-12.5 13.5t4 16q3 6 8.5 16.5t7.5 14.5q-56 6 -133 37q-76 30 -121 72q-247 -174 -452 -189q-126 -9 -209.5 30t-83.5 120zM1143 203q38 61 117.5 174t130.5 178q167 220 329 297v2q-72 -6 -194 -72q-105 -58 -275 -211q-82 -76 -129 -120q23 -66 27 -134q3 -58 -6 -114z
M901 586h-2q-75 0 -120 -56t-48 -133q-3 -58 19.5 -114t48.5 -88q75 61 149 127q69 61 146 131q-32 60 -82.5 96.5t-110.5 36.5zM813 176q32 -37 107 -72q75 -32 133 -38q9 17 34 55.5t27 42.5q20 41 12 151q-6 79 -22 119q-98 -90 -143 -131q-77 -69 -148 -127zM1604 1006
q-16 0 -19 1.5t2 10.5q27 37 60 39q105 12 254 8q30 0 30 -16q0 -11 -12 -23q-22 -25 -41 -25q-204 9 -274 5z" />
    <glyph glyph-name="amacron" unicode="&#x101;" horiz-adv-x="587" 
d="M594 567v-2q0 -4 -8 -12q-26 -23 -41 -23q-160 3 -275 0q-14 0 -17.5 2t1.5 11q11 14 22.5 18.5t36.5 7.5q132 16 254 9q27 -3 27 -11zM399 272q75 78 117 78q31 1 37 -6.5t-10 -26.5q-80 -92 -115 -135q-52 -64 -72 -100t-6 -47q12 -10 47 8q39 19 92 63q38 31 99 84
q23 20 28 15q8 -8 -26 -37q-50 -47 -115 -98q-102 -82 -176 -82q-56 0 -59 43q-3 33 28 73l-2 2q-50 -44 -111 -79.5t-114 -38.5q-39 -2 -64.5 17.5t-19.5 64.5q6 47 57 106l-2 2q-14 -14 -26 -24q-15 -11 -19 -7q-6 9 29 39q24 24 61 50q44 31 95 57q132 68 204 57
q30 -4 41 -27t2 -51zM348 330q-59 0 -188 -129q-121 -119 -115 -162q3 -21 27 -21q29 0 79.5 29t92.5 68q51 44 95.5 99t45.5 79q3 37 -37 37z" />
    <glyph glyph-name="Abreve" unicode="&#x102;" horiz-adv-x="1413" 
d="M43 115v2q0 52 32.5 87.5t74.5 37.5q35 3 55 -14.5t20 -47.5q0 -37 -47 -69q-37 -26 -37 -52q0 -34 53 -54t148 -13q193 17 426 178q-40 36 -76.5 99t-36.5 132q2 94 69 155t175 60q75 -3 132.5 -49.5t80.5 -97.5q21 21 96 90q194 175 308 236q140 77 245 77q47 0 72 -20
q9 -8 13.5 -17t0.5 -12q-2 -1 -4 0.5t-7.5 6t-10.5 8.5q-16 12 -45 12q-37 0 -66 -23q-33 -27 -81.5 -83.5t-84.5 -108.5q-185 -256 -383 -578q49 3 115 35q67 36 129 94q14 14 21 7q5 -5 -17 -27q-62 -57 -127 -92q-63 -33 -131 -37q-41 -43 -80 -51q-27 -6 -40.5 -1.5
t-12.5 13.5t4 16q3 6 8.5 16.5t7.5 14.5q-56 6 -133 37q-76 30 -121 72q-247 -174 -452 -189q-126 -9 -209.5 30t-83.5 120zM1143 203q38 61 117.5 174t130.5 178q167 220 329 297v2q-72 -6 -194 -72q-105 -58 -275 -211q-82 -76 -129 -120q23 -66 27 -134q3 -58 -6 -114z
M901 586h-2q-75 0 -120 -56t-48 -133q-3 -58 19.5 -114t48.5 -88q75 61 149 127q69 61 146 131q-32 60 -82.5 96.5t-110.5 36.5zM813 176q32 -37 107 -72q75 -32 133 -38q9 17 34 55.5t27 42.5q20 41 12 151q-6 79 -22 119q-98 -90 -143 -131q-77 -69 -148 -127zM1722 985
q-42 4 -71 36.5t-29 74.5q0 22 10 22q2 0 3.5 -2.5t3.5 -7t3 -6.5q11 -18 37 -34t58 -19q108 -8 184 57q12 12 18 8q7 -3 -4 -18q-90 -124 -213 -111z" />
    <glyph glyph-name="abreve" unicode="&#x103;" horiz-adv-x="587" 
d="M354 643h2q1 0 1.5 -1.5t1.5 -6t3 -8.5q9 -26 35 -43.5t62 -20.5q55 -5 94 12.5t88 57.5q13 10 18 8q9 -6 -2 -20q-93 -124 -213 -111q-43 4 -72.5 37t-29.5 74q0 22 12 22zM399 272q75 78 117 78q31 1 37 -6.5t-10 -26.5q-80 -92 -115 -135q-52 -64 -72 -100t-6 -47
q12 -10 47 8q39 19 92 63q38 31 99 84q23 20 28 15q8 -8 -26 -37q-50 -47 -115 -98q-102 -82 -176 -82q-56 0 -59 43q-3 33 28 73l-2 2q-50 -44 -111 -79.5t-114 -38.5q-39 -2 -64.5 17.5t-19.5 64.5q6 47 57 106l-2 2q-14 -14 -26 -24q-15 -11 -19 -7q-6 9 29 39
q24 24 61 50q44 31 95 57q132 68 204 57q30 -4 41 -27t2 -51zM348 330q-59 0 -188 -129q-121 -119 -115 -162q3 -21 27 -21q29 0 79.5 29t92.5 68q51 44 95.5 99t45.5 79q3 37 -37 37z" />
    <glyph glyph-name="Aogonek" unicode="&#x104;" horiz-adv-x="1413" 
d="M901 586h-2q-75 0 -120 -56t-48 -133q-3 -58 19.5 -114t48.5 -88q13 11 42 35t56 47t51 45q103 90 146 131q-32 60 -82.5 96.5t-110.5 36.5zM1143 203q38 61 117.5 174t130.5 178q167 220 329 297v2q-72 -6 -194 -72q-107 -59 -275 -211q-28 -25 -129 -120
q21 -56 27 -134q3 -58 -6 -114zM813 176q39 -42 107 -72q76 -32 133 -38q9 17 34 55.5t27 42.5q19 40 12 151q-8 82 -22 119q-137 -126 -143 -131q-67 -60 -148 -127zM1155 37q-38 -38 -63 -47q-54 -31 -90.5 -65t-45.5 -62q-6 -20 2 -32.5t27 -14.5q35 -2 92 30q18 12 21 7
q4 -7 -8 -19q-72 -69 -150 -63q-33 3 -51 26t-8 56q10 32 54.5 67t108.5 64q-32 2 -18 30q3 6 8.5 16.5t7.5 14.5q-56 6 -133 37q-72 27 -121 72q-247 -174 -452 -189q-126 -9 -209.5 30t-83.5 120v2q0 52 32.5 87.5t74.5 37.5q35 3 55 -14.5t20 -47.5q0 -37 -47 -69
q-37 -26 -37 -52q0 -34 53 -54t148 -13q193 17 426 178q-40 36 -76.5 99t-36.5 132q2 94 69 155t175 60q75 -3 132.5 -49.5t80.5 -97.5q3 2 37.5 35t58.5 55q100 90 167.5 142.5t140.5 93.5q143 77 245 77q47 0 72 -20q9 -8 13.5 -17t0.5 -12q-2 -1 -4 0.5t-7.5 6t-10.5 8.5
q-16 12 -45 12q-37 0 -66 -23q-33 -27 -81.5 -83.5t-84.5 -108.5q-185 -256 -383 -578q49 3 115 35q67 36 129 94q14 14 21 7q5 -5 -17 -27q-62 -57 -127 -92q-63 -33 -131 -37z" />
    <glyph glyph-name="aogonek" unicode="&#x105;" horiz-adv-x="587" 
d="M348 330h-2q-57 0 -186 -129q-122 -119 -115 -162q3 -21 27 -21q29 0 79.5 29t92.5 68q51 44 95.5 99t45.5 79q3 37 -37 37zM57 236q51 35 95 57q129 68 204 57q30 -6 41 -28.5t2 -49.5q75 78 117 78q31 1 37 -6.5t-10 -26.5q-80 -92 -115 -135q-51 -60 -72 -100
q-20 -36 -6 -47q12 -10 47 8q32 14 92 63q38 31 99 84q23 20 28 15q8 -8 -26 -37q-50 -47 -115 -98q-69 -55 -119 -72q-58 -30 -98 -67t-51 -68q-6 -20 2 -32.5t27 -14.5q35 -2 92 30q17 11 20 7q4 -7 -8 -19q-72 -69 -150 -63q-33 3 -51 26t-8 56q24 69 176 135h-8
q-56 0 -59 43q-3 33 28 73l-2 2q-50 -44 -111 -79.5t-114 -38.5q-39 -2 -64.5 17.5t-19.5 64.5q6 47 57 106l-2 2q-14 -14 -26 -24q-15 -11 -19 -7q-6 9 29 39q24 24 61 50z" />
    <glyph glyph-name="Cacute" unicode="&#x106;" horiz-adv-x="798" 
d="M545 954q74 0 142.5 -34.5t109.5 -94.5q59 16 108 19q51 3 95.5 -3.5t80.5 -23.5t53 -49.5t9 -77.5q-11 -60 -77.5 -104.5t-149.5 -64t-166 -19.5q-90 0 -173 21t-137 61q-118 -105 -192 -232.5t-74 -226.5q0 -85 47.5 -125.5t128.5 -40.5q82 0 152 29t145 78
q67 47 127 102q38 36 45 29q5 -5 -16 -27q-92 -84 -148 -123q-156 -109 -309 -117q-133 -5 -212 46t-83 161q-4 126 94.5 260.5t241.5 237.5q-51 65 -51 129q0 84 61.5 137t147.5 53zM754 522q114 0 205 49t108 123q15 68 -27 102.5t-127 32.5q-58 0 -108 -20
q28 -51 35 -113q2 -17 1.5 -28.5t-2.5 -17.5t-5 -5q-1 0 -9 41q-12 62 -49 113q-80 -30 -165.5 -84.5t-153.5 -116.5q103 -76 297 -76zM528 928q-69 0 -117.5 -46t-48.5 -120q0 -62 41 -115q175 117 361 170q-47 53 -109.5 82t-126.5 29zM868 983q-1 4 4 8t13 8
q98 41 245 136q13 8 27 8q17 0 21 -23q6 -36 -43 -61q-35 -17 -114.5 -41t-127.5 -35q-23 -8 -25 0z" />
    <glyph glyph-name="cacute" unicode="&#x107;" horiz-adv-x="438" 
d="M532 684h3q7 0 14 -10q9 -15 4.5 -34.5t-18.5 -33.5q-21 -21 -77 -58.5t-93 -58.5q-21 -10 -25 -6q-4 7 10 21q87 83 154 162q14 18 28 18zM82 -18h-2q-115 0 -109 86q6 58 60 122l-2 3q-11 -11 -35 -31q-21 -18 -27 -12q-4 5 13 22q29 27 75 61q61 43 99 62
q123 65 188 55q69 -12 55 -78q-6 -28 -27 -48.5t-42 -20.5q-25 0 -28.5 18t11.5 41q37 63 6 68q-38 7 -127 -86q-43 -43 -76.5 -95.5t-37.5 -87.5q-6 -47 47 -47q28 0 78 17t110 57q54 37 123 98q17 15 23 9q4 -6 -17 -27q-65 -60 -121 -98t-121 -63t-116 -25z" />
    <glyph glyph-name="Ccaron" unicode="&#x10c;" horiz-adv-x="798" 
d="M545 954q74 0 142.5 -34.5t109.5 -94.5q59 16 108 19q51 3 95.5 -3.5t80.5 -23.5t53 -49.5t9 -77.5q-11 -60 -77.5 -104.5t-149.5 -64t-166 -19.5q-90 0 -173 21t-137 61q-118 -105 -192 -232.5t-74 -226.5q0 -85 47.5 -125.5t128.5 -40.5q82 0 152 29t145 78
q67 47 127 102q38 36 45 29q5 -5 -16 -27q-92 -84 -148 -123q-156 -109 -309 -117q-133 -5 -212 46t-83 161q-4 126 94.5 260.5t241.5 237.5q-51 65 -51 129q0 84 61.5 137t147.5 53zM754 522q114 0 205 49t108 123q15 68 -27 102.5t-127 32.5q-58 0 -108 -20
q28 -51 35 -113q2 -17 1.5 -28.5t-2.5 -17.5t-5 -5q-1 0 -9 41q-12 62 -49 113q-80 -30 -165.5 -84.5t-153.5 -116.5q103 -76 297 -76zM528 928q-69 0 -117.5 -46t-48.5 -120q0 -62 41 -115q175 117 361 170q-47 53 -109.5 82t-126.5 29zM944 967q-6 0 -12 12
q-21 49 -70 135q-9 13 -6 16q7 5 25 -6q44 -26 88 -73q80 41 211 84q18 4 20 -2q2 -7 -12 -15q-168 -99 -223 -143q-11 -8 -21 -8z" />
    <glyph glyph-name="ccaron" unicode="&#x10d;" horiz-adv-x="438" 
d="M352 492h-2q-5 0 -10 14q-47 100 -70 135q-8 10 -4 14q6 6 23 -6q50 -35 88 -86q115 67 215 96q16 5 18 -2q1 -1 0 -2.5t-2.5 -2.5t-3.5 -2t-4.5 -2.5t-3.5 -2.5q-155 -91 -223 -143q-13 -10 -21 -10zM82 -18h-2q-115 0 -109 86q6 58 60 122l-2 3q-11 -11 -35 -31
q-21 -18 -27 -12q-4 5 13 22q29 27 75 61q61 43 99 62q123 65 188 55q69 -12 55 -78q-6 -28 -27 -48.5t-42 -20.5q-25 0 -28.5 18t11.5 41q37 63 6 68q-38 7 -127 -86q-43 -43 -76.5 -95.5t-37.5 -87.5q-6 -47 47 -47q28 0 78 17t110 57q54 37 123 98q17 15 23 9
q4 -6 -17 -27q-65 -60 -121 -98t-121 -63t-116 -25z" />
    <glyph glyph-name="Dcaron" unicode="&#x10e;" horiz-adv-x="1378" 
d="M729 557v2q0 42 -25 67t-65 27q-38 1 -74 -14.5t-59 -38.5q-11 -11 -19.5 -22.5t-11.5 -15.5t-6 -3q-1 2 -0.5 7.5t7.5 16.5t18 23q23 27 63.5 48t87.5 18q48 -2 81.5 -33t33.5 -84q0 -57 -33 -115t-90 -106q-138 -114 -315 -105q-115 6 -177 57t-61 144q1 89 63.5 171
t162 139t227 90.5t256.5 33.5q134 0 256 -34.5t198 -102.5q80 51 133 72q98 41 201 41q71 0 115 -31q10 -7 15.5 -17.5t2.5 -13.5q-2 -1 -4 1l-8 8t-16 12q-35 22 -105 22q-92 0 -190 -43q-84 -38 -123 -73q60 -66 81.5 -150.5t5 -168t-64.5 -155.5q-81 -120 -242.5 -183.5
t-330.5 -63.5q-143 0 -281 10q-114 -12 -203 -12q-226 0 -274 8q-50 8 -49 28q5 50 297 39q112 -3 274 -30q41 12 80.5 34.5t69.5 46.5t66.5 62.5t59.5 66.5t61.5 75t60.5 73q76 91 171.5 182.5t166.5 139.5q-65 67 -184 103t-240 36q-159 0 -302.5 -59.5t-231 -159.5
t-89.5 -213q0 -70 39.5 -115t114.5 -49q160 -8 288 106q54 49 85.5 103.5t31.5 97.5zM512 23q92 -19 172 -19q324 0 520 270q73 102 83.5 217t-48.5 193q-42 -40 -135 -170.5t-117 -161.5q-115 -139 -225.5 -213t-249.5 -116zM1311 926q-7 0 -13 12q-24 56 -69 135
q-9 14 -6 17q6 4 24 -7q44 -26 88 -73q80 41 211 84q19 5 21 -2q2 -6 -13 -15q-168 -99 -223 -143q-11 -8 -20 -8z" />
    <glyph glyph-name="dcaron" unicode="&#x10f;" horiz-adv-x="587" 
d="M348 330q-59 0 -188 -129q-121 -119 -115 -162q3 -21 27 -21q29 0 79.5 29t92.5 68q51 44 95.5 99t45.5 79q3 37 -37 37zM152 293q131 67 204 57q28 -4 39.5 -24t5.5 -45h2q78 113 263 329q117 137 243 254q35 35 76 35q27 0 31 -14q-87 -84 -234 -254
q-100 -114 -256 -314q-144 -188 -170 -235q-20 -36 -6 -47q12 -10 47 8q39 19 92 63q38 31 99 84q23 20 28 15q8 -8 -26 -37q-50 -47 -115 -98q-102 -82 -176 -82q-56 0 -59 43q-3 33 28 73l-2 2q-50 -44 -111 -79.5t-114 -38.5q-39 -2 -64.5 17.5t-19.5 64.5q6 47 57 106
l-2 2q-14 -14 -26 -24q-15 -11 -19 -7q-6 9 33 43q20 20 57 46q50 35 95 57zM1001 709q0 3 -1 3.5t1.5 3.5t3.5 4.5t5 5t6 5.5q48 48 67 90q5 9 2.5 22t-0.5 19q6 16 32.5 26.5t56.5 12.5q28 0 28 -18q0 -15 -14 -31q-54 -63 -160 -131q-23 -16 -27 -12z" />
    <glyph glyph-name="Dcroat" unicode="&#x110;" horiz-adv-x="1378" 
d="M987 354q82 0 133 -2q21 0 21 -8q0 -6 -21 -6q-61 -2 -149 -2q-109 -130 -215.5 -200.5t-243.5 -112.5q92 -19 172 -19q324 0 520 270q73 102 83.5 217t-48.5 193q-41 -39 -131 -165.5t-121 -164.5zM834 330h-72q-33 0 -33 12q0 14 31 14h94q4 5 12.5 14.5t12.5 14.5
q76 91 171.5 182.5t166.5 139.5q-65 67 -184 103t-240 36q-159 0 -302.5 -59.5t-231 -159.5t-89.5 -213q0 -70 39.5 -115t114.5 -49q157 -11 288 106q54 49 85.5 103.5t31.5 97.5t-24.5 68.5t-65.5 27.5q-38 1 -74 -14.5t-59 -38.5q-7 -7 -13 -14.5t-9.5 -12t-6 -8.5
t-4.5 -5.5t-4 -0.5q-1 2 -0.5 7.5t7.5 16.5t18 23q23 27 63.5 48t87.5 18q48 -2 81.5 -33t33.5 -84q0 -57 -33 -115t-90 -106q-138 -114 -315 -105q-115 6 -177 57t-61 144q1 89 63.5 171t162 139t227 90.5t256.5 33.5q134 0 256 -34.5t198 -102.5q80 51 133 72
q116 41 201 41q71 0 115 -31q10 -7 15.5 -17.5t2.5 -13.5q-2 -1 -4 1l-8 8t-16 12q-35 22 -105 22q-92 0 -190 -43q-84 -38 -123 -73q60 -66 81.5 -150.5t5 -168t-64.5 -155.5q-81 -120 -242.5 -183.5t-330.5 -63.5q-189 0 -281 10q-114 -12 -203 -12q-226 0 -274 8
q-50 8 -49 28q5 50 297 39q112 -3 274 -30q22 6 44 16t39.5 19t39 25.5t35.5 27t35.5 32.5t32 32.5t33.5 37t30.5 36t32 39.5t31.5 38z" />
    <glyph glyph-name="dcroat" unicode="&#x111;" horiz-adv-x="587" 
d="M807 659q-130 -149 -281 -342q-144 -188 -170 -235q-20 -36 -6 -47q12 -10 47 8q39 19 92 63q38 31 99 84q23 20 28 15q8 -8 -26 -37q-50 -47 -115 -98q-102 -82 -176 -82q-56 0 -59 43q-3 33 28 73l-2 2q-50 -44 -111 -79.5t-114 -38.5q-39 -2 -64.5 17.5t-19.5 64.5
q6 47 57 106l-2 2q-14 -14 -26 -24q-15 -11 -19 -7q-6 9 33 43q20 20 57 46q50 35 95 57q131 67 204 57q28 -4 39.5 -24t5.5 -45h2q96 137 306 378q-27 0 -84 -1t-84 -1q-33 0 -33 13q0 14 31 14q132 -4 188 -4q70 80 182 184q35 35 76 35q27 0 31 -14q-86 -83 -191 -205
q137 0 176 -2q21 0 21 -8q0 -6 -21 -6q-33 -1 -97 -2.5t-97 -2.5zM348 330q-59 0 -188 -129q-121 -119 -115 -162q3 -21 27 -21q29 0 79.5 29t92.5 68q51 44 95.5 99t45.5 79q3 37 -37 37z" />
    <glyph glyph-name="Emacron" unicode="&#x112;" horiz-adv-x="798" 
d="M461 539q0 57 45 120q-88 67 -88 152q0 61 42 98.5t109 40.5q63 3 133 -26.5t117 -85.5q83 15 152 12q100 -4 155.5 -40.5t55.5 -88.5q0 -68 -92 -117t-216 -49q-172 0 -286 57q-21 -29 -31 -61q-12 -37 -6 -66q57 10 100 7q49 -2 81.5 -15t29.5 -37q-3 -20 -36 -29.5
t-77 -9.5q-50 0 -97.5 15.5t-66.5 40.5q-94 -34 -186 -123q-52 -48 -85 -107.5t-36 -117.5q-3 -70 44 -110t124 -40q139 0 301 107q74 51 146 118q21 18 26 13q7 -7 -18 -29q-86 -80 -146 -121q-156 -109 -309 -117q-135 -6 -214 41t-79 142q-2 114 114.5 214t307.5 144
q-14 22 -14 68zM870 575q106 0 184 40t79 106q3 42 -34.5 75.5t-121.5 37.5q-66 0 -139 -25q20 -42 26 -90q6 -53 -4 -53q-2 0 -2.5 3t-2.5 14t-5 24q-10 41 -45 90q-75 -37 -150 -105q-31 -26 -57 -63q108 -54 272 -54zM780 829q-39 48 -99 77t-116 26q-55 -3 -92 -34.5
t-37 -84.5q0 -68 82 -137q16 23 43 45q83 72 219 108zM555 471q6 -23 34 -36t62 -15q31 -2 52.5 5t21.5 21q0 12 -22.5 19.5t-51.5 9.5q-43 4 -96 -4zM866 1006q-16 0 -19 1.5t3 10.5q16 21 27.5 29.5t31.5 9.5q105 12 254 8q31 0 31 -16q0 -11 -12 -23q-22 -25 -41 -25
q-205 9 -275 5z" />
    <glyph glyph-name="emacron" unicode="&#x113;" horiz-adv-x="436" 
d="M537 567v-2q0 -3 -9 -12q-26 -23 -41 -23q-159 3 -274 0q-14 0 -17.5 2t1.5 11q11 14 22.5 18.5t36.5 7.5q132 16 254 9q27 -3 27 -11zM121 12q27 0 76.5 17.5t109.5 58.5q69 48 125 98q17 15 23 9q5 -8 -17 -27q-59 -55 -129 -102q-127 -84 -231 -84q-57 0 -84 20.5
t-25 60.5q3 56 62 127l-2 3q-17 -17 -41 -37q-15 -12 -21 -6q-4 5 13 22q29 27 75 61q56 39 101 62q108 57 176 57h2q31 0 46 -16t13 -39q-5 -61 -131 -125q-89 -44 -176 -66q-12 -24 -12 -47q0 -47 47 -47zM98 129q78 19 140 61q37 26 59.5 55.5t24.5 51.5q3 29 -25 29
q-27 0 -90 -60q-24 -23 -57 -64.5t-52 -72.5z" />
    <glyph glyph-name="Ebreve" unicode="&#x114;" horiz-adv-x="798" 
d="M461 539q0 57 45 120q-88 67 -88 152q0 61 42 98.5t109 40.5q63 3 133 -26.5t117 -85.5q83 15 152 12q100 -4 155.5 -40.5t55.5 -88.5q0 -68 -92 -117t-216 -49q-172 0 -286 57q-21 -29 -31 -61q-12 -37 -6 -66q57 10 100 7q49 -2 81.5 -15t29.5 -37q-3 -20 -36 -29.5
t-77 -9.5q-50 0 -97.5 15.5t-66.5 40.5q-94 -34 -186 -123q-52 -48 -85 -107.5t-36 -117.5q-3 -70 44 -110t124 -40q139 0 301 107q74 51 146 118q21 18 26 13q7 -7 -18 -29q-86 -80 -146 -121q-156 -109 -309 -117q-135 -6 -214 41t-79 142q-2 114 114.5 214t307.5 144
q-14 22 -14 68zM870 575q106 0 184 40t79 106q3 42 -34.5 75.5t-121.5 37.5q-66 0 -139 -25q20 -42 26 -90q6 -53 -4 -53q-2 0 -2.5 3t-2.5 14t-5 24q-10 41 -45 90q-75 -37 -150 -105q-31 -26 -57 -63q108 -54 272 -54zM780 829q-39 48 -99 77t-116 26q-55 -3 -92 -34.5
t-37 -84.5q0 -68 82 -137q16 23 43 45q83 72 219 108zM555 471q6 -23 34 -36t62 -15q31 -2 52.5 5t21.5 21q0 12 -22.5 19.5t-51.5 9.5q-43 4 -96 -4zM965 985q-42 4 -71.5 36.5t-29.5 74.5q0 22 10 22q2 0 3.5 -2.5t4 -7t3.5 -6.5q11 -18 36.5 -34t57.5 -19q108 -8 184 57
q12 12 19 8q7 -3 -4 -18q-90 -124 -213 -111z" />
    <glyph glyph-name="ebreve" unicode="&#x115;" horiz-adv-x="436" 
d="M250 643h2q1 0 1.5 -1.5t1.5 -6t3 -8.5q9 -26 34.5 -43.5t61.5 -20.5q56 -5 95 12.5t88 57.5q13 10 18 8q9 -6 -2 -20q-93 -124 -213 -111q-43 4 -72.5 37t-29.5 74q0 22 12 22zM121 12q27 0 76.5 17.5t109.5 58.5q69 48 125 98q17 15 23 9q5 -8 -17 -27
q-59 -55 -129 -102q-127 -84 -231 -84q-57 0 -84 20.5t-25 60.5q3 56 62 127l-2 3q-17 -17 -41 -37q-15 -12 -21 -6q-4 5 13 22q29 27 75 61q56 39 101 62q108 57 176 57h2q31 0 46 -16t13 -39q-5 -61 -131 -125q-89 -44 -176 -66q-12 -24 -12 -47q0 -47 47 -47zM98 129
q78 19 140 61q37 26 59.5 55.5t24.5 51.5q3 29 -25 29q-27 0 -90 -60q-24 -23 -57 -64.5t-52 -72.5z" />
    <glyph glyph-name="Edotaccent" unicode="&#x116;" horiz-adv-x="798" 
d="M461 539q0 57 45 120q-88 67 -88 152q0 61 42 98.5t109 40.5q63 3 133 -26.5t117 -85.5q83 15 152 12q100 -4 155.5 -40.5t55.5 -88.5q0 -68 -92 -117t-216 -49q-172 0 -286 57q-21 -29 -31 -61q-12 -37 -6 -66q57 10 100 7q49 -2 81.5 -15t29.5 -37q-3 -20 -36 -29.5
t-77 -9.5q-50 0 -97.5 15.5t-66.5 40.5q-94 -34 -186 -123q-52 -48 -85 -107.5t-36 -117.5q-3 -70 44 -110t124 -40q139 0 301 107q74 51 146 118q21 18 26 13q7 -7 -18 -29q-86 -80 -146 -121q-156 -109 -309 -117q-135 -6 -214 41t-79 142q-2 114 114.5 214t307.5 144
q-14 22 -14 68zM870 575q106 0 184 40t79 106q3 42 -34.5 75.5t-121.5 37.5q-66 0 -139 -25q20 -42 26 -90q6 -53 -4 -53q-2 0 -2.5 3t-2.5 14t-5 24q-10 41 -45 90q-75 -37 -150 -105q-31 -26 -57 -63q108 -54 272 -54zM780 829q-39 48 -99 77t-116 26q-55 -3 -92 -34.5
t-37 -84.5q0 -68 82 -137q16 23 43 45q83 72 219 108zM555 471q6 -23 34 -36t62 -15q31 -2 52.5 5t21.5 21q0 12 -22.5 19.5t-51.5 9.5q-43 4 -96 -4zM989 991q-19 19 -4 70q17 43 86 43q25 0 31 -16t-12 -39t-50.5 -39.5t-50.5 -18.5z" />
    <glyph glyph-name="edotaccent" unicode="&#x117;" horiz-adv-x="436" 
d="M412 614h2q24 0 29.5 -13.5t-11.5 -33.5q-17 -21 -45.5 -36t-42.5 -15q-8 8 -9 26.5t5 37.5q12 34 72 34zM121 12q27 0 76.5 17.5t109.5 58.5q69 48 125 98q17 15 23 9q5 -8 -17 -27q-59 -55 -129 -102q-127 -84 -231 -84q-57 0 -84 20.5t-25 60.5q3 56 62 127l-2 3
q-17 -17 -41 -37q-15 -12 -21 -6q-4 5 13 22q29 27 75 61q56 39 101 62q108 57 176 57h2q31 0 46 -16t13 -39q-5 -61 -131 -125q-89 -44 -176 -66q-12 -24 -12 -47q0 -47 47 -47zM98 129q78 19 140 61q37 26 59.5 55.5t24.5 51.5q3 29 -25 29q-27 0 -90 -60
q-24 -23 -57 -64.5t-52 -72.5z" />
    <glyph glyph-name="Eogonek" unicode="&#x118;" horiz-adv-x="798" 
d="M870 575h2q105 0 182.5 40t78.5 106q3 42 -34.5 75.5t-121.5 37.5q-66 0 -139 -25q20 -42 26 -90q6 -53 -4 -53q-3 0 -3.5 3t-2 14.5t-4.5 23.5q-10 41 -45 90q-82 -40 -150 -105q-35 -31 -57 -63q108 -54 272 -54zM780 829q-39 48 -99 77t-116 26q-55 -3 -91 -34.5
t-36 -84.5q0 -70 80 -137q16 23 43 45q83 72 219 108zM555 471q16 -47 96 -51q31 -2 52.5 5t21.5 21q0 12 -22.5 19.5t-51.5 9.5q-43 4 -96 -4zM655 47q-152 -107 -301 -117q-119 -68 -139 -131q-6 -20 2 -32.5t27 -14.5q33 -2 92 31q17 11 20 6q4 -6 -8 -18
q-73 -70 -149 -64q-34 3 -52 26t-8 56q11 35 63.5 72.5t125.5 68.5q-128 -3 -201.5 44t-73.5 139q-2 114 114.5 214t307.5 144q-17 29 -14 68q3 61 45 120q-90 69 -90 152q0 60 43 98t110 41q63 3 133 -26.5t117 -85.5q83 15 152 12q100 -4 155.5 -40.5t55.5 -88.5
q0 -68 -92 -117t-216 -49q-172 0 -286 57q-19 -27 -31 -61q-12 -37 -6 -66q57 10 100 7q49 -2 81.5 -15t29.5 -37q-3 -20 -36 -29.5t-77 -9.5q-50 0 -97.5 15.5t-66.5 40.5q-94 -34 -186 -123q-52 -48 -85 -107.5t-36 -117.5q-3 -70 44 -110t124 -40q139 0 301 107
q74 51 146 118q21 18 26 13q7 -7 -18 -29q-86 -80 -146 -121z" />
    <glyph glyph-name="eogonek" unicode="&#x119;" horiz-adv-x="436" 
d="M317 70q-79 -52 -137 -70q-60 -32 -101 -69t-52 -68q-6 -20 1.5 -32.5t26.5 -14.5q35 -2 92 30q18 12 21 7q4 -7 -8 -19q-72 -69 -150 -63q-33 3 -51 26t-8 56q23 67 172 133q-24 -4 -45 -4q-57 0 -84 20.5t-25 60.5q3 56 62 127l-2 3q-17 -17 -41 -37q-15 -12 -21 -6
q-4 5 13 22q29 27 75 61q56 39 101 62q108 57 176 57h2q31 0 46 -16t13 -39q-5 -61 -131 -125q-89 -44 -176 -66q-12 -24 -12 -47q0 -47 47 -47q27 0 76.5 17.5t109.5 58.5q64 44 125 98q17 15 23 9q5 -8 -17 -27q-65 -60 -121 -98zM98 129q78 19 140 61q37 26 59.5 55.5
t24.5 51.5q3 29 -25 29q-27 0 -90 -60q-24 -23 -57 -64.5t-52 -72.5z" />
    <glyph glyph-name="Ecaron" unicode="&#x11a;" horiz-adv-x="798" 
d="M461 539q0 57 45 120q-88 67 -88 152q0 61 42 98.5t109 40.5q63 3 133 -26.5t117 -85.5q83 15 152 12q100 -4 155.5 -40.5t55.5 -88.5q0 -68 -92 -117t-216 -49q-172 0 -286 57q-21 -29 -31 -61q-12 -37 -6 -66q57 10 100 7q49 -2 81.5 -15t29.5 -37q-3 -20 -36 -29.5
t-77 -9.5q-50 0 -97.5 15.5t-66.5 40.5q-94 -34 -186 -123q-52 -48 -85 -107.5t-36 -117.5q-3 -70 44 -110t124 -40q139 0 301 107q74 51 146 118q21 18 26 13q7 -7 -18 -29q-86 -80 -146 -121q-156 -109 -309 -117q-135 -6 -214 41t-79 142q-2 114 114.5 214t307.5 144
q-14 22 -14 68zM870 575q106 0 184 40t79 106q3 42 -34.5 75.5t-121.5 37.5q-66 0 -139 -25q20 -42 26 -90q6 -53 -4 -53q-2 0 -2.5 3t-2.5 14t-5 24q-10 41 -45 90q-75 -37 -150 -105q-31 -26 -57 -63q108 -54 272 -54zM780 829q-39 48 -99 77t-116 26q-55 -3 -92 -34.5
t-37 -84.5q0 -68 82 -137q16 23 43 45q83 72 219 108zM555 471q6 -23 34 -36t62 -15q31 -2 52.5 5t21.5 21q0 12 -22.5 19.5t-51.5 9.5q-43 4 -96 -4zM1024 967q-6 0 -12 12q-21 49 -70 135q-9 13 -6 16q7 5 25 -6q44 -26 88 -73q80 41 211 84q18 4 20 -2q2 -7 -12 -15
q-172 -102 -224 -143q-11 -8 -20 -8z" />
    <glyph glyph-name="ecaron" unicode="&#x11b;" horiz-adv-x="436" 
d="M332 492h-2q-6 0 -11 14q-49 105 -69 135q-8 10 -4 14q5 5 22 -6q50 -35 88 -86q115 67 215 96q17 5 19 -2q1 -2 -1 -4t-7.5 -4.5t-6.5 -3.5q-155 -91 -223 -143q-13 -10 -20 -10zM121 12q27 0 76.5 17.5t109.5 58.5q69 48 125 98q17 15 23 9q5 -8 -17 -27
q-59 -55 -129 -102q-127 -84 -231 -84q-57 0 -84 20.5t-25 60.5q3 56 62 127l-2 3q-17 -17 -41 -37q-15 -12 -21 -6q-4 5 13 22q29 27 75 61q56 39 101 62q108 57 176 57h2q31 0 46 -16t13 -39q-5 -61 -131 -125q-89 -44 -176 -66q-12 -24 -12 -47q0 -47 47 -47zM98 129
q78 19 140 61q37 26 59.5 55.5t24.5 51.5q3 29 -25 29q-27 0 -90 -60q-24 -23 -57 -64.5t-52 -72.5z" />
    <glyph glyph-name="Gbreve" unicode="&#x11e;" horiz-adv-x="919" 
d="M1182 752q0 -81 -71.5 -161.5t-182.5 -139.5q-87 -44 -190.5 -66.5t-196.5 -22.5q-100 0 -185 29q-97 -141 -108 -260q-5 -54 21 -88t73 -35q77 -1 158.5 52.5t177.5 154.5q64 64 98 64q30 0 36 -7t-9 -26q-35 -42 -103 -135q-17 -22 -53 -70.5t-67 -89.5v-2
q100 55 194 125q85 63 144 114q23 20 28 15q7 -7 -26 -37q-42 -38 -123 -98q-104 -78 -240 -152q-78 -112 -119 -166t-135 -164q-122 -141 -260 -236t-223 -95q-39 0 -64.5 20t-21.5 66q11 130 317 323q95 59 205.5 120.5t187.5 109.5l170 235q-64 -64 -136.5 -104.5
t-137.5 -44.5q-92 -8 -149.5 28.5t-63.5 118.5q-5 65 29.5 148.5t99.5 164.5q-51 34 -82 84.5t-31 110.5q0 117 94 186.5t226 69.5q160 0 254 -100q180 79 303 79q41 0 75 -9t60.5 -37t26.5 -72zM1157 756q0 92 -137 92q-123 0 -279 -90q35 -51 47 -111q4 -19 4.5 -33
t-1 -20t-3.5 -6q-2 -1 -3 1t-2 6.5t-2 10t-3.5 15t-5.5 18.5q-18 57 -59 102q-109 -72 -213 -176q-73 -73 -131 -159q83 -25 170 -25q188 0 364 96q100 53 177 135.5t77 143.5zM449 866q-115 0 -200 -63t-85 -168q0 -108 104 -180q93 106 183 174q121 91 231 145
q-103 92 -233 92zM422 -139q-51 -34 -161 -95t-212 -128q-97 -62 -180 -150t-82 -152q0 -47 47 -53q50 -6 127 41q54 33 125 104t137 160q141 186 199 273zM930 985q-42 4 -71.5 36.5t-29.5 74.5q0 22 11 22q2 0 3.5 -2.5t3.5 -7t3 -6.5q11 -18 36.5 -34t57.5 -19
q108 -8 184 57q12 12 19 8q7 -3 -4 -18q-90 -124 -213 -111z" />
    <glyph glyph-name="gbreve" unicode="&#x11f;" horiz-adv-x="581" 
d="M289 643h2q1 0 1.5 -1.5t1.5 -6t3 -8.5q9 -26 34.5 -43.5t61.5 -20.5q55 -5 94 12.5t88 57.5q13 10 19 8q9 -6 -2 -20q-93 -124 -213 -111q-43 4 -73 37t-30 74q0 22 13 22zM109 -127q-49 -32 -177 -109t-233 -147q-140 -94 -233 -190.5t-99 -171.5q-3 -46 31 -56
q23 -7 61 3.5t68 29.5q162 97 375 369q129 164 207 272zM348 330q-59 0 -188 -129q-121 -119 -115 -162q3 -21 27 -21q29 0 79.5 29t92.5 68q51 44 95.5 99t45.5 79q3 37 -37 37zM152 293q129 68 204 57q54 -8 47 -69h3q35 40 55 54.5t43 14.5q30 0 36.5 -7t-10.5 -26
q-16 -18 -106 -135q-15 -20 -43 -57.5t-65 -88t-60 -81.5q134 80 197 129q87 67 127 104q18 18 24 11q6 -5 -20 -31q-32 -30 -121 -100q-109 -81 -225 -146q-63 -92 -148 -202.5t-133 -163.5q-100 -111 -214 -203t-208 -141q-79 -43 -141 -43q-46 0 -74.5 19t-21.5 67
q19 143 413 399q107 69 237 146t179 108q107 148 137 192l-2 2q-128 -109 -221 -114q-39 -2 -63.5 16.5t-20.5 65.5q6 47 57 106l-2 2q-14 -14 -26 -24q-15 -11 -19 -7q-6 9 33 43q20 20 57 46q50 35 95 57z" />
    <glyph glyph-name="Gcommaaccent" unicode="&#x122;" horiz-adv-x="919" 
d="M1182 752q0 -81 -71.5 -161.5t-182.5 -139.5q-87 -44 -190.5 -66.5t-196.5 -22.5q-100 0 -185 29q-97 -141 -108 -260q-5 -54 21 -88t73 -35q77 -1 158.5 52.5t177.5 154.5q64 64 98 64q30 0 36 -7t-9 -26q-35 -42 -103 -135q-17 -22 -53 -70.5t-67 -89.5v-2
q100 55 194 125q85 63 144 114q23 20 28 15q7 -7 -26 -37q-42 -38 -123 -98q-104 -78 -240 -152q-78 -112 -119 -166t-135 -164q-122 -141 -260 -236t-223 -95q-39 0 -64.5 20t-21.5 66q11 130 317 323q95 59 205.5 120.5t187.5 109.5l170 235q-64 -64 -136.5 -104.5
t-137.5 -44.5q-92 -8 -149.5 28.5t-63.5 118.5q-5 65 29.5 148.5t99.5 164.5q-51 34 -82 84.5t-31 110.5q0 117 94 186.5t226 69.5q160 0 254 -100q180 79 303 79q41 0 75 -9t60.5 -37t26.5 -72zM1157 756q0 92 -137 92q-123 0 -279 -90q35 -51 47 -111q4 -19 4.5 -33
t-1 -20t-3.5 -6q-2 -1 -3 1t-2 6.5t-2 10t-3.5 15t-5.5 18.5q-18 57 -59 102q-109 -72 -213 -176q-73 -73 -131 -159q83 -25 170 -25q188 0 364 96q100 53 177 135.5t77 143.5zM449 866q-115 0 -200 -63t-85 -168q0 -108 104 -180q93 106 183 174q121 91 231 145
q-103 92 -233 92zM422 -139q-51 -34 -161 -95t-212 -128q-97 -62 -180 -150t-82 -152q0 -47 47 -53q50 -6 127 41q54 33 125 104t137 160q141 186 199 273zM92 -254q-4 5 14 23q50 50 68 90q5 9 2.5 22t-0.5 19q6 16 32 26.5t56 12.5q29 0 29 -19q0 -15 -14 -31
q-54 -63 -160 -131q-23 -16 -27 -12z" />
    <glyph glyph-name="gcommaaccent" unicode="&#x123;" horiz-adv-x="581" 
d="M109 -127q-49 -32 -177 -109t-233 -147q-140 -94 -233 -190.5t-99 -171.5q-3 -46 31 -56q23 -7 61 3.5t68 29.5q162 97 375 369q129 164 207 272zM348 330q-59 0 -188 -129q-121 -119 -115 -162q3 -21 27 -21q29 0 79.5 29t92.5 68q51 44 95.5 99t45.5 79q3 37 -37 37z
M152 293q129 68 204 57q54 -8 47 -69h3q35 40 55 54.5t43 14.5q30 0 36.5 -7t-10.5 -26q-16 -18 -106 -135q-15 -20 -43 -57.5t-65 -88t-60 -81.5q134 80 197 129q87 67 127 104q18 18 24 11q6 -5 -20 -31q-32 -30 -121 -100q-109 -81 -225 -146q-63 -92 -148 -202.5
t-133 -163.5q-100 -111 -214 -203t-208 -141q-79 -43 -141 -43q-46 0 -74.5 19t-21.5 67q19 143 413 399q107 69 237 146t179 108q107 148 137 192l-2 2q-128 -109 -221 -114q-39 -2 -63.5 16.5t-20.5 65.5q6 47 57 106l-2 2q-14 -14 -26 -24q-15 -11 -19 -7q-6 9 33 43
q20 20 57 46q50 35 95 57zM559 659q4 -4 -14 -22q-49 -49 -68 -90q-4 -9 -2.5 -20.5t-1.5 -20.5q-6 -16 -31 -26.5t-55 -12.5q-27 0 -27 18q0 15 15 33q35 40 81 76.5t79 54.5q22 12 24 10z" />
    <glyph glyph-name="Imacron" unicode="&#x12a;" horiz-adv-x="901" 
d="M1255 846q-23 -6 -81.5 -19.5t-88.5 -21.5q-196 -51 -301 -113q-51 -30 -92 -77t-41 -89q0 -25 16 -39t40 -14q28 0 55 19q3 2 8.5 6t6.5 4.5t5 -0.5q6 -6 -10 -21q-28 -28 -74 -28q-44 0 -70 24.5t-26 61.5q0 108 178 190q99 50 301 96q20 5 68.5 15t75 17t45.5 15
q33 14 41 13q11 -3 9 -15.5t-13 -17.5q-85 -37 -191 -188q-10 -14 -80 -120t-104 -151q-172 -221 -348 -325.5t-371 -104.5q-48 0 -90.5 9t-79.5 27t-58.5 50t-21.5 74q0 46 31.5 84.5t83.5 38.5q33 0 52.5 -20t16.5 -52q-3 -34 -38 -61l-12 -11q-12 -11 -14.5 -15
t-7.5 -14.5t-5 -21.5q0 -29 38 -48t99 -19q81 0 160 29.5t154.5 86.5t145 128t146.5 167q22 27 100 125.5t109 136.5q52 60 116.5 113.5t116.5 75.5zM1126 1006q-16 0 -19 1.5t3 10.5q16 21 27.5 29.5t31.5 9.5q105 12 254 8q31 0 31 -16q0 -11 -12 -23q-22 -25 -41 -25
q-205 9 -275 5z" />
    <glyph glyph-name="imacron" unicode="&#x12b;" horiz-adv-x="331" 
d="M463 567v-2q0 -4 -8 -12q-26 -23 -41 -23q-160 3 -275 0q-14 0 -17.5 2t1.5 11q11 14 22.5 18.5t36.5 7.5q132 16 254 9q27 -3 27 -11zM166 293q-23 -10 -90 -64q-62 -50 -72 -59q-24 -21 -31 -16q-6 6 23 32q88 77 145 115q38 27 63.5 36t55.5 9q32 0 37 -6.5t-14 -26.5
q-34 -37 -109 -131q-53 -65 -74 -100q-17 -34 -6 -45q14 -11 49 6q41 21 90 61q58 47 95 82q24 22 29 21q2 -1 3 -2q6 -5 -22 -33q-40 -40 -117 -102q-104 -84 -178 -84q-61 0 -61 53q0 31 30 78q28 43 76 96.5t78 79.5z" />
    <glyph glyph-name="Iogonek" unicode="&#x12e;" horiz-adv-x="901" 
d="M1022 657q52 60 116.5 113.5t116.5 75.5q-23 -6 -81.5 -19.5t-88.5 -21.5q-196 -51 -301 -113q-51 -30 -92 -77t-41 -89q0 -25 16 -39t40 -14q28 0 55 19q3 2 8.5 6t6.5 4.5t5 -0.5q6 -6 -10 -21q-28 -28 -74 -28q-44 0 -70 24.5t-26 61.5q0 108 178 190q99 50 301 96
q20 5 68.5 15t75 17t45.5 15q33 14 41 13q11 -3 9 -15.5t-13 -17.5q-85 -37 -191 -188q-10 -14 -80 -120t-104 -151q-238 -307 -494 -393q-60 -32 -101 -69t-52 -68q-6 -20 1.5 -32.5t26.5 -14.5q36 -2 93 30q17 11 20 7q4 -7 -8 -19q-72 -69 -150 -63q-33 3 -51 26t-8 56
q20 64 160 129q-81 -19 -156 -19q-48 0 -90.5 9t-79.5 27t-58.5 50t-21.5 74q0 46 31.5 84.5t83.5 38.5q33 0 52.5 -20t16.5 -52q-3 -34 -38 -61l-12 -11q-12 -11 -14.5 -15t-7.5 -14.5t-5 -21.5q0 -29 38 -48t99 -19q81 0 160 29.5t154.5 86.5t145 128t146.5 167
q22 27 100 125.5t109 136.5z" />
    <glyph glyph-name="iogonek" unicode="&#x12f;" horiz-adv-x="331" 
d="M430 582h2q21 0 26.5 -15.5t-12.5 -38.5q-17 -23 -48 -39t-48 -16q-8 9 -8.5 29.5t6.5 40.5q15 39 82 39zM141 301q38 27 63.5 36t55.5 9q32 0 37 -6.5t-14 -26.5q-52 -58 -111 -131q-46 -56 -72 -100q-17 -34 -6 -45q14 -11 49 6q41 21 90 61q58 47 95 82q24 22 29 21
q2 -1 3 -2q6 -5 -22 -33q-40 -40 -117 -102q-70 -55 -119 -72q-57 -32 -96.5 -69t-50.5 -66q-6 -20 2 -32.5t27 -14.5q35 -2 92 30q17 11 20 7q4 -7 -8 -19q-72 -69 -149 -63q-34 3 -52 26t-8 56q23 67 172 133h-8q-61 0 -61 53q0 31 30 78q28 43 76 96.5t78 79.5
q-23 -10 -90 -64q-62 -50 -72 -59q-24 -21 -31 -16q-6 6 23 32q88 77 145 115z" />
    <glyph glyph-name="Idotaccent" unicode="&#x130;" horiz-adv-x="901" 
d="M1255 846q-23 -6 -81.5 -19.5t-88.5 -21.5q-196 -51 -301 -113q-51 -30 -92 -77t-41 -89q0 -25 16 -39t40 -14q28 0 55 19q3 2 8.5 6t6.5 4.5t5 -0.5q6 -6 -10 -21q-28 -28 -74 -28q-44 0 -70 24.5t-26 61.5q0 108 178 190q99 50 301 96q20 5 68.5 15t75 17t45.5 15
q33 14 41 13q11 -3 9 -15.5t-13 -17.5q-85 -37 -191 -188q-10 -14 -80 -120t-104 -151q-172 -221 -348 -325.5t-371 -104.5q-48 0 -90.5 9t-79.5 27t-58.5 50t-21.5 74q0 46 31.5 84.5t83.5 38.5q33 0 52.5 -20t16.5 -52q-3 -34 -38 -61l-12 -11q-12 -11 -14.5 -15
t-7.5 -14.5t-5 -21.5q0 -29 38 -48t99 -19q81 0 160 29.5t154.5 86.5t145 128t146.5 167q22 27 100 125.5t109 136.5q52 60 116.5 113.5t116.5 75.5zM1290 1012q-19 19 -4 69q17 43 86 43q25 0 31 -16t-12 -39t-50.5 -39t-50.5 -18z" />
    <glyph glyph-name="dotlessi" unicode="&#x131;" horiz-adv-x="331" 
d="M166 293q-23 -10 -90 -64q-62 -50 -72 -59q-24 -21 -31 -16q-6 6 23 32q88 77 145 115q38 27 63.5 36t55.5 9q32 0 37 -6.5t-14 -26.5q-34 -37 -109 -131q-53 -65 -74 -100q-17 -34 -6 -45q14 -11 49 6q41 21 90 61q58 47 95 82q24 22 29 21q2 -1 3 -2q6 -5 -22 -33
q-40 -40 -117 -102q-104 -84 -178 -84q-61 0 -61 53q0 31 30 78q28 43 76 96.5t78 79.5z" />
    <glyph glyph-name="Kcommaaccent" unicode="&#x136;" horiz-adv-x="1241" 
d="M1708 752q0 -69 -81 -117.5t-173 -40.5q-44 3 -74 20q-9 6 -6 13q3 3 12 -2q34 -13 66 -15q84 -8 161 35.5t77 106.5q0 40 -29.5 63t-71.5 23q-20 0 -38 -3t-37 -13t-32 -16.5t-33 -25t-29 -26t-30.5 -33.5t-27.5 -33.5t-30 -38.5t-29 -37q-65 -86 -148 -141.5
t-162 -79.5q17 -11 32 -31.5t19 -42.5q15 -59 -32 -127q-7 -11 -22 -32.5t-21.5 -32t-15 -26t-12 -28t-3.5 -24.5q0 -14 9 -24.5t28 -10.5q45 0 147 78q66 51 95 78q2 2 6 5.5t6.5 6t6.5 5.5l6 4.5t5 3.5t4.5 1.5t3.5 -1.5q7 -7 -14 -27q-47 -43 -113 -96q-109 -90 -192 -90
q-46 0 -71 21.5t-27 57.5q0 62 71 160q8 12 24.5 33.5t25.5 33.5t16.5 28t7.5 28q0 24 -14 41q-24 -12 -62 -12q-22 0 -40 7t-17 21q3 31 65 27q37 -3 62 -20q37 14 72.5 43t58 55t60.5 73.5t61 73.5q93 104 177 154.5t179 50.5q53 0 88 -27.5t35 -76.5zM-43 123q0 41 31 73
t75 31q33 -2 52 -21t16 -52q-3 -35 -35 -64q-26 -26 -26 -51q0 -28 32 -43.5t70 -15.5q40 0 82 13.5t78 34.5t76.5 54.5t71 63t67.5 72t59.5 70.5t54 68t44.5 56q63 80 135.5 157t126.5 113v2q-70 -47 -150.5 -68.5t-130.5 -21.5q-104 -2 -167 34t-52 105q4 34 26.5 63.5
t47.5 45.5q30 20 57 20t0 -24q-46 -41 -53 -107q-5 -53 32.5 -85t110.5 -32q94 0 203.5 48.5t195.5 123.5q42 42 54 33q11 -9 -12 -32l-3 -3l-4 -4q-52 -52 -127 -149q-31 -38 -85.5 -114t-75.5 -101q-60 -74 -100 -120.5t-97 -105.5t-106 -95t-108.5 -69.5t-124.5 -49
t-136 -15.5q-84 0 -144.5 40t-60.5 122zM905 385h2q22 0 47 10q-13 13 -43 17q-15 2 -29 -2t-14 -11q0 -14 37 -14zM506 -193q-4 5 14 23q50 50 68 90q5 9 2.5 22t-0.5 19q6 16 32 26.5t56 12.5q29 0 29 -18q0 -14 -15 -31q-54 -63 -160 -131q-23 -16 -26 -13z" />
    <glyph glyph-name="kcommaaccent" unicode="&#x137;" horiz-adv-x="638" 
d="M88 244v2q-16 -14 -41.5 -37.5t-36.5 -32.5q-17 -14 -22 -6q-2 6 10 18q11 11 131 115q146 192 250 307q104 119 247 264.5t228 208.5q37 27 59.5 41.5t54.5 27.5t60 13q37 0 53 -21.5t11 -51.5q-6 -35 -39.5 -81.5t-102.5 -111.5t-123.5 -112t-154.5 -130
q-34 -28 -191 -149t-227 -184q-33 -37 -164 -226l4 -2q136 122 176 152q76 59 136 84q52 21 102 18q41 -3 61 -27.5t6 -54.5q-17 -33 -96 -43q-77 -11 -88 -28q-19 -29 -16 -84q6 -70 35 -76q18 -3 53 16q41 23 78 53q58 47 98 84q20 20 27 13q1 -4 1 -6t-4 -6.5t-6.5 -7
l-6.5 -6.5l-5 -5q-59 -55 -121 -104q-101 -80 -176 -80q-72 0 -69 96q1 36 15.5 67t29.5 46q26 26 84 34q44 8 63 29q11 13 13 31t-15 28q-20 9 -63 -10q-70 -33 -156 -102q-40 -34 -122 -107t-103 -88q-29 -20 -54 -20t-31 6.5t3 26.5q18 41 84 137q15 21 36.5 49.5
t24.5 32.5zM287 377q110 96 220.5 184.5t145.5 118.5q91 79 144.5 128t116 111t93 107.5t33.5 77.5q3 39 -34 39q-48 0 -134 -82q-166 -166 -272 -293q-166 -200 -313 -391zM0 -225q-4 4 14 22q49 49 68 90q4 9 2.5 20.5t1.5 20.5q6 16 31 26.5t55 12.5q27 0 27 -18
q0 -15 -15 -33q-35 -41 -81 -77.5t-78 -53.5q-22 -13 -25 -10z" />
    <glyph glyph-name="Lacute" unicode="&#x139;" horiz-adv-x="1226" 
d="M516 717q0 83 81.5 142t219.5 59q193 0 326 -107q99 39 184 39q87 3 142 -36.5t42 -106.5q-10 -47 -56 -87t-109.5 -65.5t-123 -41t-110.5 -21.5q-118 -14 -225 0q-98 -143 -179.5 -226.5t-183.5 -152.5q30 -4 154 -37q152 -37 211 -37q90 0 165.5 33t168.5 114
q1 1 9.5 8.5t9 7t7.5 -0.5q7 -7 -18 -31q-87 -80 -132 -116t-101 -59.5t-121 -23.5q-120 0 -222 41q-25 10 -65.5 27t-66.5 27.5t-38 13.5q-129 -103 -276 -105q-126 -3 -123 48q3 47 103.5 76.5t201.5 27.5q46 0 96 -8q50 46 92.5 107t94 143t96.5 141q-109 23 -181.5 78
t-72.5 129zM897 510q95 -12 217 4q66 9 135 33.5t129 71.5t74 104q10 51 -25 82t-100 29q-34 0 -83 -15.5t-79 -34.5q26 -33 39 -69q8 -24 10.5 -42.5t1.5 -26t-4 -7.5q-1 0 -2.5 6.5t-8 25t-19.5 40.5q-16 32 -47 57q-96 -54 -238 -258zM535 723q0 -69 70.5 -120.5
t176.5 -74.5q70 89 162 165.5t164 105.5q-132 90 -301 90q-125 0 -198.5 -49t-73.5 -117zM459 90q-64 16 -117 14q-64 -1 -113 -23t-51 -50q-1 -19 18 -27t48 -6q48 0 112 27t103 65zM1227 983q-2 7 16 16q101 42 246 136q13 8 27 8q16 0 20 -23q6 -36 -43 -61
q-35 -17 -114.5 -41t-127.5 -35q-22 -7 -24 0z" />
    <glyph glyph-name="lacute" unicode="&#x13a;" horiz-adv-x="344" 
d="M96 250l-2 2q-16 -14 -44.5 -40.5t-39.5 -35.5q-17 -14 -22 -6q-2 6 10 18q23 23 149 129q123 157 242 293q122 143 244 254q38 35 74 35q30 0 30 -14q-32 -32 -138 -150t-167 -190q-273 -331 -328 -451q-18 -43 -4 -55q19 -13 64 12q31 16 84 58q59 46 90 75
q24 24 31 17q5 -5 -15 -25q-47 -47 -125 -106q-108 -82 -184 -82q-66 0 -63 55q3 65 114 207zM641 983q-2 7 16 16q101 42 246 136q13 8 27 8q16 0 20 -23q6 -36 -43 -61q-35 -17 -114 -41.5t-127 -34.5q-22 -8 -25 0z" />
    <glyph glyph-name="Lcommaaccent" unicode="&#x13b;" horiz-adv-x="1226" 
d="M516 717q0 83 81.5 142t219.5 59q193 0 326 -107q99 39 184 39q87 3 142 -36.5t42 -106.5q-10 -47 -56 -87t-109.5 -65.5t-123 -41t-110.5 -21.5q-118 -14 -225 0q-98 -143 -179.5 -226.5t-183.5 -152.5q30 -4 154 -37q152 -37 211 -37q90 0 165.5 33t168.5 114
q1 1 9.5 8.5t9 7t7.5 -0.5q7 -7 -18 -31q-87 -80 -132 -116t-101 -59.5t-121 -23.5q-120 0 -222 41q-25 10 -65.5 27t-66.5 27.5t-38 13.5q-129 -103 -276 -105q-126 -3 -123 48q3 47 103.5 76.5t201.5 27.5q46 0 96 -8q50 46 92.5 107t94 143t96.5 141q-109 23 -181.5 78
t-72.5 129zM897 510q95 -12 217 4q66 9 135 33.5t129 71.5t74 104q10 51 -25 82t-100 29q-34 0 -83 -15.5t-79 -34.5q26 -33 39 -69q8 -24 10.5 -42.5t1.5 -26t-4 -7.5q-1 0 -2.5 6.5t-8 25t-19.5 40.5q-16 32 -47 57q-96 -54 -238 -258zM535 723q0 -69 70.5 -120.5
t176.5 -74.5q70 89 162 165.5t164 105.5q-132 90 -301 90q-125 0 -198.5 -49t-73.5 -117zM459 90q-64 16 -117 14q-64 -1 -113 -23t-51 -50q-1 -19 18 -27t48 -6q48 0 112 27t103 65zM397 -254q-3 5 15 23q48 48 67 90q5 9 2.5 22t-0.5 19q6 16 32 26.5t56 12.5q29 0 29 -19
q0 -15 -14 -31q-54 -63 -160 -131q-23 -16 -27 -12z" />
    <glyph glyph-name="lcommaaccent" unicode="&#x13c;" horiz-adv-x="344" 
d="M96 250l-2 2q-16 -14 -44.5 -40.5t-39.5 -35.5q-17 -14 -22 -6q-2 6 10 18q23 23 149 129q123 157 242 293q122 143 244 254q38 35 74 35q30 0 30 -14q-32 -32 -138 -150t-167 -190q-273 -331 -328 -451q-18 -43 -4 -55q19 -13 64 12q31 16 84 58q59 46 90 75
q24 24 31 17q5 -5 -15 -25q-47 -47 -125 -106q-108 -82 -184 -82q-66 0 -63 55q3 65 114 207zM-158 -266q-4 4 15 22q48 48 67 90q4 9 2.5 20.5t1.5 20.5q6 16 31 26.5t55 12.5q27 0 27 -18q0 -17 -14 -33q-35 -40 -81 -76.5t-79 -54.5q-22 -13 -25 -10z" />
    <glyph glyph-name="Lcaron" unicode="&#x13d;" horiz-adv-x="1226" 
d="M516 717q0 83 81.5 142t219.5 59q193 0 326 -107q99 39 184 39q87 3 142 -36.5t42 -106.5q-10 -47 -56 -87t-109.5 -65.5t-123 -41t-110.5 -21.5q-118 -14 -225 0q-98 -143 -179.5 -226.5t-183.5 -152.5q30 -4 154 -37q152 -37 211 -37q90 0 165.5 33t168.5 114
q1 1 9.5 8.5t9 7t7.5 -0.5q7 -7 -18 -31q-87 -80 -132 -116t-101 -59.5t-121 -23.5q-120 0 -222 41q-25 10 -65.5 27t-66.5 27.5t-38 13.5q-129 -103 -276 -105q-126 -3 -123 48q3 47 103.5 76.5t201.5 27.5q46 0 96 -8q50 46 92.5 107t94 143t96.5 141q-109 23 -181.5 78
t-72.5 129zM897 510q95 -12 217 4q66 9 135 33.5t129 71.5t74 104q10 51 -25 82t-100 29q-34 0 -83 -15.5t-79 -34.5q26 -33 39 -69q8 -24 10.5 -42.5t1.5 -26t-4 -7.5q-1 0 -2.5 6.5t-8 25t-19.5 40.5q-16 32 -47 57q-96 -54 -238 -258zM535 723q0 -69 70.5 -120.5
t176.5 -74.5q70 89 162 165.5t164 105.5q-132 90 -301 90q-125 0 -198.5 -49t-73.5 -117zM459 90q-64 16 -117 14q-64 -1 -113 -23t-51 -50q-1 -19 18 -27t48 -6q48 0 112 27t103 65zM1565 647q-4 5 14 23q50 50 68 90q5 9 2.5 22t-0.5 19q6 16 32 26.5t56 12.5q28 0 28 -19
q0 -14 -14 -30q-56 -65 -160 -132q-22 -16 -26 -12z" />
    <glyph glyph-name="lcaron" unicode="&#x13e;" horiz-adv-x="344" 
d="M96 250l-2 2q-16 -14 -44.5 -40.5t-39.5 -35.5q-17 -14 -22 -6q-2 6 10 18q23 23 149 129q123 157 242 293q122 143 244 254q38 35 74 35q30 0 30 -14q-32 -32 -138 -150t-167 -190q-273 -331 -328 -451q-18 -43 -4 -55q19 -13 64 12q31 16 84 58q59 46 90 75
q24 24 31 17q5 -5 -15 -25q-47 -47 -125 -106q-108 -82 -184 -82q-66 0 -63 55q3 65 114 207zM733 709q0 3 -1 3.5t1.5 3.5t3.5 4.5t5 5t6 5.5q48 48 67 90q5 9 2.5 22t-0.5 19q6 16 32 26.5t56 12.5q29 0 29 -18q0 -15 -14 -31q-54 -63 -160 -131q-23 -16 -27 -12z" />
    <glyph glyph-name="Lslash" unicode="&#x141;" horiz-adv-x="1226" 
d="M524 113q30 -4 154 -37q152 -37 211 -37q90 0 165.5 33t168.5 114q23 19 26 15q8 -5 -12 -25q-127 -118 -197.5 -161.5t-162.5 -43.5q-120 0 -222 41q-25 10 -65.5 27t-66.5 27.5t-38 13.5q-129 -103 -276 -105q-126 -3 -123 48q3 47 103.5 76.5t201.5 27.5q68 0 96 -8
q59 55 134 168q-22 -8 -45 -16.5t-37 -13.5t-19 -7q-35 -12 -39 -2q-3 8 5 14.5t24 11.5l131 43q83 132 129 193q-109 23 -181.5 78t-72.5 129q0 83 81.5 142t219.5 59q193 0 326 -107q99 39 184 39q87 3 142 -36.5t42 -106.5q-10 -47 -56 -87t-109.5 -65.5t-123 -41
t-110.5 -21.5q-134 -12 -225 0q-45 -65 -101 -136q32 9 142 43q23 6 24 2t-4 -8.5t-14 -7.5q-102 -38 -174 -61q-106 -125 -236 -211zM897 510q83 -11 217 4q46 6 98 22t103 41.5t89 64t48 81.5q10 51 -25 82t-100 29q-34 0 -83 -15.5t-79 -34.5q26 -33 39 -69
q8 -24 10.5 -42.5t1.5 -26t-4 -7.5q-1 0 -2 4.5t-8 23.5t-20 44q-16 32 -47 57q-96 -54 -238 -258zM535 723q0 -69 70.5 -120.5t176.5 -74.5q70 89 162 165.5t164 105.5q-132 90 -301 90q-125 0 -198.5 -49t-73.5 -117zM459 90q-64 16 -117 14q-64 -1 -113 -23t-51 -50
q-1 -19 18 -27t48 -6q48 0 112 27t103 65z" />
    <glyph glyph-name="lslash" unicode="&#x142;" horiz-adv-x="344" 
d="M362 659q-28 -6 -32 5q-3 8 5.5 14.5t24.5 11.5q105 28 132 35q54 60 141 139q40 35 74 35q27 0 30 -14q-13 -13 -123 -131q142 32 177 39q20 4 22 -2q1 -4 -3 -7t-15 -6q-21 -6 -94.5 -26.5t-114.5 -30.5q-83 -87 -240 -283q-194 -245 -242 -346q-17 -42 -4 -53
q16 -13 64 12q36 20 80 55q56 44 104 89q16 15 23 8q5 -5 -13 -23q-65 -60 -129 -110q-102 -82 -184 -82q-66 0 -63 55q2 61 112 207h-2q-58 -50 -82 -74q-15 -15 -22 -8q-4 7 14 25q44 40 145 124q157 203 308 367q-15 -4 -46 -12.5t-47 -12.5z" />
    <glyph glyph-name="Nacute" unicode="&#x143;" horiz-adv-x="1320" 
d="M-180 98v2q0 50 35 87.5t79 37.5q37 0 58.5 -18.5t21.5 -48.5q-3 -41 -37 -68q-2 -2 -12.5 -12t-13.5 -13.5t-8 -12t-6 -17.5q-3 -31 31.5 -49.5t107.5 -18.5q124 0 279.5 64t295.5 172q296 224 445 510q13 26 39 65q44 62 82 64q18 1 23 -7t-3 -20q-34 -49 -49 -115
q-5 -22 -9.5 -55t-6.5 -54.5t-6 -72.5t-5 -67q-16 -214 -57 -310h2q104 151 229.5 311.5t223.5 264.5q238 252 399 252q60 0 92.5 -35t34.5 -80q0 -20 -6 -20q-1 0 -11 20q-20 55 -116 55q-174 0 -377 -211q-217 -226 -539 -694q-1 -2 -4.5 -6.5t-5.5 -6.5t-5 -6t-5.5 -6
t-5.5 -5t-6 -4t-6 -1.5t-6.5 0t-6.5 2.5q-22 12 -4 56q54 152 68 327q3 37 7 90.5t6 83t7.5 63t13.5 54.5h-2q-59 -114 -175 -240t-242 -221q-149 -111 -304.5 -175.5t-285.5 -67.5q-48 -1 -91 6.5t-81 24.5t-60 49.5t-22 76.5zM1397 983q-2 7 16 16q101 42 246 136
q13 8 27 8q16 0 20 -23q6 -36 -43 -61q-35 -17 -114.5 -41t-127.5 -35q-22 -7 -24 0z" />
    <glyph glyph-name="nacute" unicode="&#x144;" horiz-adv-x="720" 
d="M614 684h2q8 0 15 -10q8 -16 3.5 -35t-18.5 -33q-21 -21 -77 -58.5t-93 -58.5q-20 -10 -24 -6q-4 7 10 21q87 83 154 162q14 18 28 18zM424 -12q-30 0 -46.5 13.5t-15.5 39.5q0 7 2 14.5t5.5 16.5t7 15.5t10 16.5t10.5 15.5t13 17t12.5 15.5t13.5 16.5t13 15.5
q37 44 86 101q16 20 2 28t-54 -12q-66 -32 -159 -104q-45 -35 -115 -93.5t-115 -93.5q-23 -18 -53 -18q-24 0 -30.5 5.5t3.5 27.5q32 61 90 137q30 40 82 106q21 27 15 35q-7 10 -31 -2q-28 -13 -80 -55q-50 -42 -88 -78q-28 -25 -35 -18q-4 6 31 38q87 80 106 95
q86 67 140 67q51 0 51 -45q0 -29 -43 -88q-78 -103 -96 -129l2 -2q155 130 188 154q149 110 223 110q33 0 50 -14.5t14 -40.5q-2 -11 -7 -22.5t-16 -27t-17 -23.5t-22.5 -28t-19.5 -24q-45 -53 -68 -90q-21 -35 -8 -45t49 8q47 23 99 63q12 10 98 84q21 19 27 13
q5 -5 -17 -27q-50 -50 -123 -106q-108 -82 -184 -82z" />
    <glyph glyph-name="Ncommaaccent" unicode="&#x145;" horiz-adv-x="1320" 
d="M-180 98v2q0 50 35 87.5t79 37.5q37 0 58.5 -18.5t21.5 -48.5q-3 -41 -37 -68q-2 -2 -12.5 -12t-13.5 -13.5t-8 -12t-6 -17.5q-3 -31 31.5 -49.5t107.5 -18.5q124 0 279.5 64t295.5 172q296 224 445 510q13 26 39 65q44 62 82 64q18 1 23 -7t-3 -20q-34 -49 -49 -115
q-5 -22 -9.5 -55t-6.5 -54.5t-6 -72.5t-5 -67q-16 -214 -57 -310h2q104 151 229.5 311.5t223.5 264.5q238 252 399 252q60 0 92.5 -35t34.5 -80q0 -20 -6 -20q-1 0 -11 20q-20 55 -116 55q-174 0 -377 -211q-217 -226 -539 -694q-1 -2 -4.5 -6.5t-5.5 -6.5t-5 -6t-5.5 -6
t-5.5 -5t-6 -4t-6 -1.5t-6.5 0t-6.5 2.5q-22 12 -4 56q54 152 68 327q3 37 7 90.5t6 83t7.5 63t13.5 54.5h-2q-59 -114 -175 -240t-242 -221q-149 -111 -304.5 -175.5t-285.5 -67.5q-48 -1 -91 6.5t-81 24.5t-60 49.5t-22 76.5zM588 -190q-3 5 14 22q50 50 68 90q5 9 2.5 22
t-0.5 19q6 16 32 26.5t56 12.5q28 0 28 -18q0 -15 -14 -31q-54 -63 -160 -131q-22 -16 -26 -12z" />
    <glyph glyph-name="ncommaaccent" unicode="&#x146;" horiz-adv-x="720" 
d="M424 -12q-30 0 -46.5 13.5t-15.5 39.5q0 7 2 14.5t5.5 16.5t7 15.5t10 16.5t10.5 15.5t13 17t12.5 15.5t13.5 16.5t13 15.5q37 44 86 101q16 20 2 28t-54 -12q-66 -32 -159 -104q-45 -35 -115 -93.5t-115 -93.5q-23 -18 -53 -18q-24 0 -30.5 5.5t3.5 27.5q32 61 90 137
q30 40 82 106q21 27 15 35q-7 10 -31 -2q-28 -13 -80 -55q-50 -42 -88 -78q-28 -25 -35 -18q-4 6 31 38q87 80 106 95q86 67 140 67q51 0 51 -45q0 -29 -43 -88q-78 -103 -96 -129l2 -2q155 130 188 154q149 110 223 110q33 0 50 -14.5t14 -40.5q-2 -11 -7 -22.5t-16 -27
t-17 -23.5t-22.5 -28t-19.5 -24q-45 -53 -68 -90q-21 -35 -8 -45t49 8q47 23 99 63q12 10 98 84q21 19 27 13q5 -5 -17 -27q-50 -50 -123 -106q-108 -82 -184 -82zM63 -233q-4 4 11 18l4 4q48 48 67 90q4 9 3 20.5t2 20.5q6 16 31 26.5t55 12.5q26 0 26 -18q0 -17 -14 -33
q-35 -40 -81 -76.5t-79 -54.5q-22 -13 -25 -10z" />
    <glyph glyph-name="Ncaron" unicode="&#x147;" horiz-adv-x="1320" 
d="M-180 98v2q0 50 35 87.5t79 37.5q37 0 58.5 -18.5t21.5 -48.5q-3 -41 -37 -68q-2 -2 -12.5 -12t-13.5 -13.5t-8 -12t-6 -17.5q-3 -31 31.5 -49.5t107.5 -18.5q124 0 279.5 64t295.5 172q296 224 445 510q13 26 39 65q44 62 82 64q18 1 23 -7t-3 -20q-34 -49 -49 -115
q-5 -22 -9.5 -55t-6.5 -54.5t-6 -72.5t-5 -67q-16 -214 -57 -310h2q104 151 229.5 311.5t223.5 264.5q238 252 399 252q60 0 92.5 -35t34.5 -80q0 -20 -6 -20q-1 0 -11 20q-20 55 -116 55q-174 0 -377 -211q-217 -226 -539 -694q-1 -2 -4.5 -6.5t-5.5 -6.5t-5 -6t-5.5 -6
t-5.5 -5t-6 -4t-6 -1.5t-6.5 0t-6.5 2.5q-22 12 -4 56q54 152 68 327q3 37 7 90.5t6 83t7.5 63t13.5 54.5h-2q-59 -114 -175 -240t-242 -221q-149 -111 -304.5 -175.5t-285.5 -67.5q-48 -1 -91 6.5t-81 24.5t-60 49.5t-22 76.5zM1493 967q-6 0 -12 12q-21 49 -70 135
q-9 13 -6 16q7 5 25 -6q44 -26 88 -73q80 41 211 84q18 4 20 -2q2 -7 -12 -15q-172 -102 -224 -143q-11 -8 -20 -8z" />
    </font>
</defs>
</svg>
