<?xml version="1.0" encoding="utf-8"?>
<!-- Generator: Adobe Illustrator 24.1.0, SVG Export Plug-In . SVG Version: 6.00 Build 0)  -->
<svg version="1.1" id="レイヤー_1" xmlns="http://www.w3.org/2000/svg" xmlns:xlink="http://www.w3.org/1999/xlink" x="0px"
	 y="0px" viewBox="0 0 530 103.7" style="enable-background:new 0 0 530 103.7;" xml:space="preserve">
<style type="text/css">
	.st0{fill:#848484;}
	.st1{fill:#59D4D8;}
	.st2{fill:#3EAEE6;}
</style>
<g id="レイヤー_2_1_">
	<g id="レイヤー_1-2">
		<g>
			<g>
				<path class="st0" d="M129,82.9c-0.3-0.3-0.8-1-1.7-2.2s-1.5-2-2.1-2.8c0.7-0.6,1.4-1.3,1.9-2.1c0.6-0.9,1-2,1-3.2
					c0.1-1.5-0.6-3-1.8-3.9c-1.2-0.9-2.8-1.4-4.3-1.4c-1.1,0-2.4,0.1-3.9,0.2h-0.3v18.2h1.8v-7.2c1.2,0.1,2.5,0.1,3.9,0.1
					c2.2,3.1,3.6,4.8,4.2,5.4c0.5,0.6,1.2,1.1,1.9,1.4c0.8,0.3,1.7,0.5,2.6,0.5h0.3v-1.4h-0.3C131,84.5,129.8,83.9,129,82.9z
					 M119.6,69.2c0.9,0,1.6-0.1,2.3-0.1c1.1-0.1,2.3,0.3,3.2,0.9c0.8,0.6,1.2,1.6,1.2,2.6c0,1.2-0.4,2.3-1.2,3.1
					c-0.5,0.7-1.2,1.2-2.1,1.3c-1.1,0-2.2,0-3.4-0.1L119.6,69.2z"/>
				<rect x="135.5" y="69.2" class="st0" width="1.7" height="16.6"/>
				<path class="st0" d="M154.6,81.1c0,0.6,0,1,0,1.4c-0.3-0.4-0.6-0.8-1-1.2L143,69.1h-1v16.7h1.7V74c0-0.6,0-1.1,0-1.4l0.8,1
					L155.3,86h1V69.2h-1.7L154.6,81.1z"/>
				<path class="st0" d="M170,83.2c-1.9-1.9-3.7-3.9-5.4-6l7.1-8h-2.2l-6.8,7.7v-7.7h-1.7v16.6h1.7v-8.1c0.7,0.9,1.8,2.1,3.1,3.6
					c1.5,1.7,2.4,2.7,2.9,3.2c0.5,0.5,1,0.8,1.6,1.1c0.8,0.3,1.6,0.4,2.4,0.4h0.3v-1.3h-0.3C171.7,84.5,170.8,84,170,83.2z"/>
				<path class="st0" d="M187.8,78.6c0,3.9-1.7,5.8-5.2,5.8s-5.2-1.9-5.2-5.8v-9.4h-1.7v9.4c-0.1,2,0.5,3.9,1.7,5.5
					c2.9,2.7,7.4,2.7,10.4,0c1.2-1.6,1.8-3.5,1.7-5.5v-9.4h-1.7V78.6z"/>
				<path class="st0" d="M219.8,67.4l-6.2,13.3l-0.5,1c-0.1-0.3-0.3-0.7-0.4-1l-5.6-13.3H206l-3,18.4h1.8l2.1-13.6l0.1-0.7
					c0.1,0.2,0.2,0.5,0.3,0.7l5.2,12.7h1.1l5.9-12.7l0.4-0.8c0,0.2,0.1,0.5,0.1,0.7l2,13.7h1.8L221,67.4L219.8,67.4z"/>
				<polygon class="st0" points="229.3,77.6 235,77.6 235,76 229.3,76 229.3,70.8 235.6,70.8 235.6,69.2 227.5,69.2 227.5,85.8 
					235.9,85.8 235.9,84.2 229.3,84.2 				"/>
				<path class="st0" d="M244.8,69.1c-1.8,0-3.4,0-4.7,0.1h-0.3v16.6h0.3c1.8,0.2,3.5,0.2,5.2,0.2c2.2,0.1,4.4-0.6,6.1-2
					c1.7-1.6,2.6-3.8,2.4-6.1c0.1-2.4-0.8-4.8-2.6-6.4C249.4,69.8,247.1,69,244.8,69.1z M245.2,84.4c-1.5,0-2.7-0.1-3.6-0.1V70.7
					c0.8,0,1.8-0.1,3.2-0.1c1.9,0,3.7,0.6,5.1,1.9c1.4,1.4,2.2,3.3,2.1,5.2c0.1,1.8-0.5,3.6-1.8,4.9C248.8,83.9,247,84.5,245.2,84.4
					z"/>
				<rect x="257.8" y="69.2" class="st0" width="1.7" height="16.6"/>
				<path class="st0" d="M276.9,83.7c-1.5,0.6-3,0.8-4.6,0.8c-3.8-0.1-6.9-3.2-6.9-7c0-1.8,0.6-3.6,1.8-4.9c1.1-1.3,2.7-2,4.4-2
					c1.8,0,3.5,0.3,5.2,0.8l0.3,0.1l0.5-1.5l-0.3-0.1c-1.8-0.6-3.7-0.9-5.5-0.9c-2.2-0.1-4.4,0.8-5.9,2.5c-1.5,1.7-2.3,3.8-2.3,6.1
					c0,2.3,0.9,4.5,2.6,6.1c1.6,1.6,3.8,2.5,6,2.4c1.8,0.1,3.6-0.3,5.3-1.1l0.2-0.1l-0.6-1.3L276.9,83.7z"/>
				<path class="st0" d="M287.2,69.1l-7,16.7h1.8l2.3-5.6h6.7l2.3,5.6h1.9l-7-16.7H287.2z M290.5,78.7H285l2.3-5.5
					c0.1-0.3,0.3-0.7,0.4-1.1l0.5,1.1L290.5,78.7z"/>
				<polygon class="st0" points="299.9,69.2 298.2,69.2 298.2,85.8 307.3,85.8 307.3,84.2 299.9,84.2 				"/>
				<path class="st0" d="M331.8,83.6c-1.6,0.6-3.2,0.9-4.9,0.9c-2.1,0-4.1-0.8-5.5-2.3c-1.5-1.4-2.3-3.4-2.3-5.5c0-2,0.7-4,2-5.5
					c1.3-1.4,3.1-2.2,5-2.2c1.9,0,3.8,0.3,5.6,0.9L332,70l0.5-1.6l-0.3-0.1c-2-0.7-4-1-6.1-1c-2.4-0.1-4.8,0.9-6.4,2.7
					c-1.7,1.8-2.6,4.2-2.5,6.7c-0.1,2.5,1,5,2.8,6.7c1.8,1.8,4.3,2.7,6.8,2.7c1,0,2-0.1,3-0.3c0.9-0.2,1.8-0.4,2.5-0.9l0.2-0.1
					l-0.6-1.3L331.8,83.6z"/>
				<polygon class="st0" points="338.4,69.2 336.6,69.2 336.6,85.8 345.7,85.8 345.7,84.2 338.4,84.2 				"/>
				<rect x="349.7" y="69.2" class="st0" width="1.7" height="16.6"/>
				<path class="st0" d="M368.8,81.1c0,0.6,0,1,0,1.4c-0.3-0.4-0.6-0.8-1-1.2l-10.6-12.2h-1v16.7h1.7V74c0-0.6,0-1.1,0-1.4l0.8,1
					L369.5,86h1V69.2h-1.7V81.1z"/>
				<rect x="375.2" y="69.2" class="st0" width="1.7" height="16.6"/>
				<path class="st0" d="M394.6,83.6l-0.3,0.1c-1.5,0.6-3,0.8-4.6,0.8c-3.8-0.1-6.9-3.2-6.9-7c0-1.8,0.6-3.6,1.8-4.9
					c1.1-1.3,2.7-2,4.4-2c1.8,0,3.5,0.3,5.2,0.8l0.3,0.1l0.5-1.5l-0.3-0.1c-1.8-0.6-3.7-0.8-5.6-0.8c-2.2-0.1-4.4,0.8-5.9,2.5
					c-1.5,1.7-2.3,3.9-2.3,6.1c0,2.3,0.9,4.5,2.6,6.1c1.6,1.6,3.8,2.5,6,2.4c1.8,0.1,3.7-0.3,5.3-1.1l0.2-0.1L394.6,83.6z"/>
			</g>
			<g>
				<path d="M123.1,45.1c2.5-0.7,4.7-2.2,6.3-4.2c1.6-2,2.1-4.5,2.1-9.5c0-3.3-0.1-6.2-0.4-9.6h2.6c0.3,2.9,0.4,6.1,0.4,9.5
					c0,5.8-0.7,8.7-2.7,11.3c-1.7,2.1-4,3.6-6.6,4.5L123.1,45.1z M120.1,38.1c-1.6,0-2.5-2.6-2.5-7.3c0-2.9,0.3-5.7,0.6-8.6l2.5,0.3
					c-0.4,2.8-0.7,5.7-0.7,8.5c0,2.6,0.3,3.9,0.8,3.9s2.1-2.1,2.9-4.1l1.6,1.7C123.7,35.9,121.6,38.2,120.1,38.1L120.1,38.1z"/>
				<path d="M160.9,46.6c-2.9,0-4.2-2-4.3-6.3c-0.1-3.8-0.6-4.9-2-4.9c-2.8,0-5.7,3.5-9.1,11.2l-2.2-1c3.1-6.9,7.3-15.6,11.6-23.8
					l2.4,1.1c-2.6,4.3-4.8,8.5-6.7,12.5l0.1,0.1c1.2-1.3,2.8-2.1,4.6-2.2c2.5,0,3.5,1.7,3.6,6.2c0.1,3.8,0.5,4.7,2.2,4.7
					c1.9,0,3.9-2.3,5.6-6.4l1.9,1.8C166.2,44.3,163.7,46.6,160.9,46.6z"/>
				<path d="M188.7,47.2c-3.2-4.3-6.8-8.2-10.8-11.7c-0.7-0.5-1.1-1.2-1.2-2c0-0.7,0.1-0.9,2-2.5c3.5-2.8,6.6-6.2,9.1-10l2.1,1.5
					c-2.8,3.8-6.2,7.2-9.9,10.1c-0.4,0.3-0.5,0.5-0.5,0.8s0.1,0.4,1.2,1.4c3.7,3.2,7.1,6.6,10.2,10.4L188.7,47.2z"/>
				<path d="M207.9,45.3c6.5-1.5,10-5.2,10-10.8c0-2.7-1.3-4.2-3.7-4.2c-2.1,0-5.9,1.1-10.6,3l-1-2.4c6.2-2.1,9.2-2.8,11.8-2.8
					c3.8,0,6,2.4,6,6.4c0,6.5-3.6,10.8-10.8,12.8L207.9,45.3z M215.6,26.4c-2.6-1.6-5.4-2.8-8.4-3.7l1.1-2c3,0.8,5.9,2,8.6,3.5
					L215.6,26.4z"/>
				<path d="M229.7,44.7c4.3-2.6,8-6.1,10.8-10.3l0.1-0.1l-0.1-0.1c-2.1-1.7-4.3-3.1-6.7-4.4l1.6-1.8c2.2,1.3,4.3,2.7,6.4,4.2
					l0.1,0.1v-0.1c1.8-3.1,3.3-6.5,4.4-9.9l2.4,1c-1.3,3.7-2.9,7.2-5,10.4l-0.1,0.1l0.1,0.1c1.4,1.1,3,2.6,5.6,5.1l-1.8,2
					c-1.6-1.8-3.3-3.4-5.1-5l-0.1-0.1l-0.1,0.1c-2.9,4.2-6.5,7.7-10.8,10.5L229.7,44.7z"/>
				<path d="M262.8,45c6-2.2,8.1-5.3,8.3-11.9V33h-12v-2.2h25V33h-10.5v0.1c-0.2,7.2-2.9,11.3-9.2,13.8L262.8,45z M281.8,26.2
					c-0.6-1.5-1.4-2.9-2.4-4.1l1.6-0.8c1,1.2,1.9,2.6,2.5,4L281.8,26.2z M263.3,25.6v-2.2h15.9v2.2L263.3,25.6z M285,24.4
					c-0.7-1.4-1.5-2.7-2.4-3.9l1.6-0.9c1,1.2,1.9,2.5,2.6,3.8L285,24.4z"/>
				<path d="M300.2,46.8V34.9l-0.2,0.1c-2.3,1.7-4.7,3.2-7.3,4.3l-1.5-1.8c5.6-2.3,10.6-6.1,14.3-10.9l1.8,1.4
					c-1.4,1.8-3,3.5-4.8,4.9l0,0v13.8H300.2z"/>
				<path d="M316.8,44.5c5.5-2.7,8.7-7.6,9.3-14.2v-0.1h-8.6V28h8.8v-6.4h2.4v6.2h9.8c0.1,4.3-0.1,8.6-0.6,12.9
					c-0.6,4-1.5,5.4-3.9,5.4c-1.8-0.1-3.5-0.5-5.1-1.2l-0.1-2.6c1.4,0.8,3,1.2,4.6,1.3c1.4,0,1.7-0.5,2.1-3.9
					c0.4-3.2,0.5-6.4,0.6-9.6V30h-7.5v0.1c-0.6,7.4-4.1,13.2-9.9,16.3L316.8,44.5z"/>
				<path d="M346.7,44.1c5.4-4,6.5-7.3,6.4-19.7h2.5c0,13.1-1.2,17-7,21.4L346.7,44.1z M360.2,44V23.1h2.5v19l0.1-0.1
					c3.9-2.4,7.2-5.6,9.7-9.5l1.6,2.2c-3.2,4.4-7.3,8.1-12,10.7L360.2,44z"/>
				<path d="M385.3,44.9c7.3-3,12.6-9.4,14.2-17.2v-0.1h-8.9v0c-1.8,3.2-4.3,6.1-7.1,8.5l-1.8-1.7c4.3-3.3,7.5-7.9,9.1-13.1l2.3,0.7
					c-0.3,0.9-0.8,2.1-1.3,3.2l-0.1,0.1h9l1.6,1.2c-1.3,8.9-7.1,16.5-15.3,20.2L385.3,44.9z"/>
				<path d="M416.5,45.3c6-2.7,8.2-6.2,8.2-12.9V21.9h2.6v10.4c0,7.5-2.6,11.9-9,15.1L416.5,45.3z M412.9,36.4V22.5h2.6v13.9
					L412.9,36.4z"/>
				<path d="M438,42.5v-2.4h24.6v2.4H438z M441.3,29.1v-2.4h17.9v2.4H441.3z"/>
				<path d="M473.5,43.8c7.3-2.2,11.3-7,12.5-15.1l2.4,0.6c-1.5,8.6-5.7,13.9-13.3,16.5L473.5,43.8z M472.8,36
					c-0.6-1.9-1.4-3.8-2.4-5.6l2.2-1c1.1,1.8,1.9,3.6,2.5,5.6L472.8,36z M478.9,34.4c-0.5-1.9-1.3-3.7-2.3-5.5l2.2-1
					c1,1.7,1.8,3.5,2.4,5.4L478.9,34.4z"/>
				<path d="M500.5,44.9c7.3-3,12.6-9.4,14.2-17.2v-0.1h-8.9v0c-1.8,3.2-4.3,6.1-7.1,8.5l-1.8-1.7c4.3-3.3,7.5-7.9,9.1-13.1l2.4,0.7
					c-0.3,0.9-0.8,2.1-1.3,3.2l-0.1,0.1h9l1.6,1.2c-1.3,8.9-7.1,16.5-15.3,20.2L500.5,44.9z"/>
			</g>
		</g>
		<g>
			<circle class="st1" cx="51.9" cy="1.8" r="1.8"/>
			<circle class="st1" cx="89.5" cy="39.3" r="1.8"/>
			<circle class="st2" cx="39.3" cy="89.4" r="3.2"/>
			<circle class="st2" cx="51.9" cy="64.4" r="3.9"/>
			<path class="st2" d="M39.3,81.4c-2.5,0-4.4-2-4.5-4.4c0-1.2,0.5-2.3,1.3-3.2c1.2-1.2,1.2-3.1,0.1-4.2c-0.1-0.1-0.3-0.2-0.4-0.3
				c-2.6-1.9-3.2-5.6-1.3-8.2c0.1-0.1,0.2-0.2,0.2-0.3c1-1.2,0.9-2.9-0.2-4c-0.2-0.2-0.3-0.3-0.5-0.5c-0.5-0.6-1.2-1-2-1.1h-0.3
				c-0.7,0-1.4,0.2-1.9,0.7c-2.1,1.7-5.1,1.4-6.8-0.7c-1.7-2.1-1.4-5.1,0.7-6.8c1.8-1.4,4.3-1.4,6.1,0c0.5,0.4,1.2,0.7,1.9,0.7
				c0.1,0,0.2,0,0.3,0c0.8-0.1,1.5-0.5,2-1.1c0.3-0.4,0.7-0.8,1.1-1.1c0.6-0.5,1-1.2,1.1-2c0.1-0.8-0.1-1.6-0.7-2.2
				c-1.6-2.1-1.2-5,0.8-6.6c2.1-1.6,5-1.2,6.6,0.8c0.6,0.8,1.5,1.2,2.4,1.2l0,0c1,0,1.9-0.5,2.5-1.4c0.3-0.5,0.8-0.9,1.3-1.2
				c0.8-0.6,1.3-1.5,1.4-2.5c0-1-0.4-1.9-1.3-2.5c-1.1-0.8-1.8-2.1-1.8-3.5c-0.1-2.4,1.7-4.4,4.1-4.5c2.4-0.1,4.4,1.7,4.5,4.1
				c0,0.1,0,0.3,0,0.4c0,1.4-0.7,2.7-1.8,3.5c-0.8,0.6-1.3,1.5-1.3,2.5c0,1,0.5,1.9,1.4,2.5c2.2,1.5,2.8,4.4,1.4,6.7
				c-0.3,0.4-0.6,0.7-0.9,1c-1.3,1.1-1.5,2.9-0.4,4.2c0.1,0.2,0.3,0.3,0.5,0.5c2.3,1.8,2.7,5,0.9,7.3c-1,1.3-2.5,2-4.1,2
				c-1.2,0-2.4-0.4-3.3-1.2c-1.3-1-3.1-0.9-4.2,0.4l-0.3,0.3c-1.1,1.1-1.2,2.8-0.2,4c2.1,2.5,1.7,6.2-0.8,8.3
				C43,69,42.9,69,42.8,69.1c-0.7,0.5-1.2,1.3-1.2,2.2c-0.1,0.9,0.3,1.7,0.9,2.4c1.7,1.7,1.7,4.6,0,6.3
				C41.7,80.8,40.5,81.3,39.3,81.4L39.3,81.4z M45.5,40.9c-1,0-1.9,0.4-2.4,1.2L43,42.3c-0.5,0.6-0.7,1.4-0.7,2.2
				c0.1,0.8,0.5,1.5,1.1,2c0.3,0.3,0.6,0.5,0.9,0.9c1.1,1.2,2.9,1.4,4.2,0.4l0.1-0.1c1.3-1,1.6-2.9,0.6-4.2
				c-0.1-0.2-0.3-0.3-0.5-0.5c-0.3-0.3-0.6-0.5-0.8-0.8C47.4,41.4,46.5,40.9,45.5,40.9L45.5,40.9z"/>
			<circle class="st2" cx="1.8" cy="51.9" r="1.8"/>
			<circle class="st2" cx="39.3" cy="102" r="1.8"/>
			<circle class="st2" cx="64.4" cy="51.9" r="3.3"/>
			<circle class="st1" cx="51.9" cy="76.9" r="2.8"/>
			<circle class="st1" cx="51.9" cy="14.3" r="2.8"/>
			<circle class="st1" cx="76.9" cy="39.3" r="2.8"/>
			<circle class="st1" cx="64.4" cy="39.3" r="3.9"/>
			<circle class="st2" cx="39.3" cy="26.8" r="3.3"/>
			<circle class="st2" cx="14.3" cy="51.9" r="3.3"/>
			<circle class="st1" cx="26.8" cy="39.3" r="2.8"/>
		</g>
	</g>
</g>
</svg>
